<REAPER_PROJECT 0.1 "4.22/x64"
  RIPPLE 0
  GROUPOVERRIDE 0 0 0
  AUTOXFADE 1
  ENVATTACH 1
  MIXERUIFLAGS 11 48
  PEAKGAIN 1.00000000000000
  FEEDBACK 0
  PANLAW 1.00000000000000
  PROJOFFS 0.00000000000000 0
  MAXPROJLEN 0 600.00000000000000
  GRID 3199 8 1.00000000000000 8 1.00000000000000 0
  TIMEMODE 1 0 -1
  PANMODE 3
  CURSOR 0.00000000000000
  ZOOM 17.15708742017295 0 0
  VZOOMEX 6
  USE_REC_CFG 0
  RECMODE 1
  SMPTESYNC 0 23.976024 100 40 1000 300 0 0.000000 1
  LOOP 1
  LOOPGRAN 0 4.00000000000000
  RECORD_PATH "" ""
  <RECORD_CFG
    ZXZhdxAD
  >
  <APPLYFX_CFG
  >
  RENDER_FILE ""
  RENDER_PATTERN ""
  RENDER_FMT 0 2 0
  RENDER_1X 0
  RENDER_RANGE 1 0.00000000000000 0.00000000000000
  RENDER_RESAMPLE 3 0 1
  RENDER_ADDTOPROJ 0
  RENDER_STEMS 0
  RENDER_DITHER 0
  TIMELOCKMODE 0
  ITEMMIX 0
  DEFPITCHMODE 393216
  TAKELANE 1
  SAMPLERATE 44100 0 0
  <RENDER_CFG
  >
  LOCK 1
  <METRONOME 6 2.000000
    VOL 0.250000 0.125000
    FREQ 800 1600 1
    BEATLEN 4
    SAMPLES "" ""
  >
  GLOBAL_AUTO -1
  TEMPO 120.00000000000000 4 4
  PLAYRATE 1.00000000000000 0 0.25000 4.00000
  SELECTION 0.00000000000000 63.47110399997885
  SELECTION2 0.00000000000000 63.47110399997885
  MASTERAUTOMODE 0
  MASTERTRACKHEIGHT 0
  MASTERPEAKCOL 16576
  MASTERMUTESOLO 0
  MASTERTRACKVIEW 0 0.666700 0.500000 0.500000 -1 -1 -1
  MASTERHWOUT 0 0 1.00000000000000 0.00000000000000 0 0 0 -1.00000000000000
  MASTER_NCH 2 2
  MASTER_VOLUME 0.20369801508874 0.00000000000000 -1.00000000000000 -1.00000000000000 1.00000000000000
  MASTER_PANMODE -1
  MASTER_FX 1
  MASTER_SEL 0
  <MASTERPLAYSPEEDENV
    ACT 0
    VIS 0 1 1.000000
    LANEHEIGHT 0 0
    ARM 0
    DEFSHAPE 0 -1 -1
  >
  <TEMPOENVEX
    ACT 1
    VIS 1 0 1.000000
    LANEHEIGHT 0 0
    ARM 0
    DEFSHAPE 1 -1 -1
    PT 0.000000000000 120.9999435334 1
  >
  <PROJBAY
  >
  <TRACK '{4CF0614F-79D9-4EC8-A76E-FDA73DA4F320}'
    NAME "PART DRUMS"
    PEAKCOL 16576
    BEAT -1
    AUTOMODE 0
    VOLPAN 1.00000000000000 0.00000000000000 -1.00000000000000 -1.00000000000000 1.00000000000000
    MUTESOLO 0 0 0
    IPHASE 0
    ISBUS 1 1
    BUSCOMP 0 0
    SHOWINMIX 1 0.666700 0.500000 1 0.500000 -1 -1 -1
    FREEMODE 0
    SEL 0
    REC 0 0 0 0 0 0 0
    VU 2
    TRACKHEIGHT 0 0
    INQ 0 0 0 0.5000000000 100 0 0 100
    NCHAN 2
    FX 1
    TRACKID {4CF0614F-79D9-4EC8-A76E-FDA73DA4F320}
    PERF 0
    MIDIOUT -1
    <MIDINOTENAMES
      0 127 "CYMBAL SWELLS"
      0 126 "DRUM ROLL"
      0 125 "---"
      0 124 "DRUM FILL"
      0 123 "DRUM FILL"
      0 122 "DRUM FILL"
      0 121 "DRUM FILL"
      0 120 "DRUM FILL (use all 5)"
      0 118 "----"
      0 116 "OVERDRIVE"
      0 114 "----"
      0 112 "TOM GEMS PAD 4"
      0 111 "TOM GEMS PAD 3"
      0 110 "TOM GEMS PAD 2"
      0 103 "Solo Marker"
      0 102 "----"
      0 100 "EXPERT Green"
      0 99 "EXPERT Blue"
      0 98 "EXPERT Yellow"
      0 97 "EXPERT Red"
      0 96 "EXPERT Kick"
      0 92 "----"
      0 88 "HARD Green"
      0 87 "HARD Blue"
      0 86 "HARD Yellow"
      0 85 "HARD Red"
      0 84 "HARD Kick"
      0 80 "----"
      0 76 "MEDIUM Green"
      0 75 "MEDIUM Blue"
      0 74 "MEDIUM Yellow"
      0 73 "MEDIUM Red"
      0 72 "MEDIUM Kick"
      0 68 "----"
      0 64 "EASY Green"
      0 63 "EASY Blue"
      0 62 "EASY Yellow"
      0 61 "EASY Red"
      0 60 "EASY Kick"
      0 56 "----"
      0 52 "-- DRUM ANIMATION --"
      0 51 "FLOOR TOM RH"
      0 50 "FLOOR TOM LH"
      0 49 "TOM2 RH"
      0 48 "TOM2 LH"
      0 47 "TOM1 RH"
      0 46 "TOM1 LH"
      0 45 "SOFT CRASH 2 LH"
      0 44 "CRASH 2 LH"
      0 43 "RIDE LH"
      0 42 "RIDE CYM RH"
      0 41 "CRASH2 CHOKE"
      0 40 "CRASH1 CHOKE"
      0 39 "CRASH2 SOFT RH"
      0 38 "CRASH2 HARD RH"
      0 37 "CRASH1 SOFT RH"
      0 36 "CRASH1 HARD RH"
      0 35 "CRASH1 SOFT LH"
      0 34 "CRASH1 HARD LH"
      0 32 "PERCUSSION RH"
      0 31 "HI-HAT RH"
      0 30 "HI-HAT LH"
      0 29 "SOFT SNARE RH"
      0 28 "SOFT SNARE LH"
      0 27 "SNARE RH"
      0 26 "SNARE LH"
      0 25 "HI-HAT OPEN"
      0 24 "KICK RF"
    >
    MAINSEND 1 0
    <FXCHAIN
      WNDRECT 0 43 891 559
      SHOW 0
      LASTSEL 0
      DOCKED 0
      BYPASS 0 0
      <VST "VSTi: RBN Preview (RBN)" "rbprev_vst64.dll" 0 ""
        dnBicu5e7f4AAAAAAgAAAAEAAAAAAAAAAgAAAAAAAAAEAAAAAQAAAA==
        AAAQAAMBqgAAABAAAAA=
      >
      FLOATPOS 0 0 0 0
      FXID {6E6C5339-98F7-4DD9-9AB8-B7E3598B6A3C}
      WAK 0
    >
    <ITEM
      POSITION 0.00000000000000
      SNAPOFFS 0.00000000000000
      LENGTH 61.48763199997951
      LOOP 0
      ALLTAKES 0
      SEL 0
      FADEIN 1 0.000000 0.000000 1 0
      FADEOUT 1 0.000000 0.000000 1 0
      MUTE 0
      IGUID {64829B6A-FA6A-49A0-B4BB-B933F0F890F7}
      IID 1
      NAME "PART DRUMS"
      VOLPAN 1.000000 0.000000 1.000000 -1.000000
      SOFFS 0.00000000000000 0.00000000000000
      PLAYRATE 1.00000000000000 1 0.00000000000000 -1
      CHANMODE 0
      GUID {A6973D8D-5415-4332-B12E-9C5B91096EC5}
      <SOURCE MIDI
        HASDATA 1 480 QN
        POOLEDEVTS {31942408-6DA9-44EF-A497-1674B04ACD78}
        <X 0 0
          /wNQQVJUIERSVU1T
        >
        E 0 90 19 60
        <X 240 0
          /wFbbWl4IDEgZHJ1bXMxXQ==
        >
        <X 0 0
          /wFbbWl4IDAgZHJ1bXMxXQ==
        >
        <X 120 0
          /wFbbWl4IDIgZHJ1bXMxXQ==
        >
        <X 120 0
          /wFbbWl4IDMgZHJ1bXMxXQ==
        >
        E 720 80 19 00
        E 240 90 19 60
        E 1920 80 19 00
        <X 360 0
          /wFbcGxheV0=
        >
        E 120 90 1f 60
        E 0 90 62 60
        E 0 90 56 60
        E 0 90 4a 60
        E 0 90 3e 60
        E 0 99 18 60
        E 0 99 60 60
        E 0 99 54 60
        E 0 99 48 60
        E 120 80 1f 00
        E 0 80 62 00
        E 0 80 56 00
        E 0 80 4a 00
        E 0 80 3e 00
        E 0 90 1c 60
        E 0 90 61 60
        E 0 89 18 00
        E 0 89 60 00
        E 0 89 54 00
        E 0 89 48 00
        E 0 99 18 60
        E 0 99 60 60
        E 120 80 1c 00
        E 0 80 61 00
        E 0 90 1f 60
        E 0 90 62 60
        E 0 90 56 60
        E 0 89 18 00
        E 0 89 60 00
        E 120 80 1f 00
        E 0 80 62 00
        E 0 80 56 00
        E 120 90 1c 60
        E 0 90 1f 60
        E 0 90 61 60
        E 0 90 62 60
        E 0 90 55 60
        E 0 90 56 60
        E 0 90 49 60
        E 0 90 4a 60
        E 0 90 3d 60
        E 0 90 3e 60
        E 0 99 18 60
        E 0 99 60 60
        E 0 99 54 60
        E 120 80 1c 00
        E 0 80 1f 00
        E 0 80 61 00
        E 0 80 62 00
        E 0 80 55 00
        E 0 80 56 00
        E 0 80 49 00
        E 0 80 4a 00
        E 0 80 3d 00
        E 0 80 3e 00
        E 0 89 18 00
        E 0 89 60 00
        E 0 89 54 00
        E 120 90 1f 60
        E 0 90 62 60
        E 0 90 56 60
        E 120 80 1f 00
        E 0 80 62 00
        E 0 80 56 00
        E 120 90 1a 60
        E 0 90 1f 60
        E 0 90 61 60
        E 0 90 62 60
        E 0 90 55 60
        E 0 90 56 60
        E 0 90 49 60
        E 0 90 4a 60
        E 0 90 3d 60
        E 0 90 3e 60
        E 120 80 1a 00
        E 0 80 1f 00
        E 0 80 61 00
        E 0 80 62 00
        E 0 80 55 00
        E 0 80 56 00
        E 0 80 49 00
        E 0 80 4a 00
        E 0 80 3d 00
        E 0 80 3e 00
        E 120 90 1f 60
        E 0 90 62 60
        E 0 90 56 60
        E 0 99 18 60
        E 0 99 60 60
        E 0 99 54 60
        E 120 80 1f 00
        E 0 80 62 00
        E 0 80 56 00
        E 0 89 18 00
        E 0 89 60 00
        E 0 89 54 00
        E 120 90 1c 60
        E 0 90 1f 60
        E 0 90 61 60
        E 0 90 62 60
        E 0 90 55 60
        E 0 90 56 60
        E 0 90 49 60
        E 0 90 4a 60
        E 0 90 3d 60
        E 0 90 3e 60
        E 120 80 1c 00
        E 0 80 1f 00
        E 0 80 61 00
        E 0 80 62 00
        E 0 80 55 00
        E 0 80 56 00
        E 0 80 49 00
        E 0 80 4a 00
        E 0 80 3d 00
        E 0 80 3e 00
        E 120 90 1f 60
        E 0 90 62 60
        E 0 90 56 60
        E 120 80 1f 00
        E 0 80 62 00
        E 0 80 56 00
        E 0 90 1c 60
        E 0 90 61 60
        E 120 80 1c 00
        E 0 80 61 00
        E 0 90 1f 60
        E 0 90 62 60
        E 0 90 56 60
        E 0 90 4a 60
        E 0 90 3e 60
        E 0 99 18 60
        E 0 99 60 60
        E 0 99 54 60
        E 0 99 48 60
        E 120 80 1f 00
        E 0 80 62 00
        E 0 80 56 00
        E 0 80 4a 00
        E 0 80 3e 00
        E 0 90 1c 60
        E 0 90 61 60
        E 0 89 18 00
        E 0 89 60 00
        E 0 89 54 00
        E 0 89 48 00
        E 0 99 18 60
        E 0 99 60 60
        E 120 80 1c 00
        E 0 80 61 00
        E 0 90 1f 60
        E 0 90 62 60
        E 0 90 56 60
        E 0 89 18 00
        E 0 89 60 00
        E 120 80 1f 00
        E 0 80 62 00
        E 0 80 56 00
        E 120 90 1c 60
        E 0 90 1f 60
        E 0 90 61 60
        E 0 90 62 60
        E 0 90 55 60
        E 0 90 56 60
        E 0 90 49 60
        E 0 90 4a 60
        E 0 90 3d 60
        E 0 90 3e 60
        E 0 99 18 60
        E 0 99 60 60
        E 0 99 54 60
        E 120 80 1c 00
        E 0 80 1f 00
        E 0 80 61 00
        E 0 80 62 00
        E 0 80 55 00
        E 0 80 56 00
        E 0 80 49 00
        E 0 80 4a 00
        E 0 80 3d 00
        E 0 80 3e 00
        E 0 89 18 00
        E 0 89 60 00
        E 0 89 54 00
        E 120 90 1f 60
        E 0 90 62 60
        E 0 90 56 60
        E 120 80 1f 00
        E 0 80 62 00
        E 0 80 56 00
        E 120 90 1a 60
        E 0 90 1f 60
        E 0 90 61 60
        E 0 90 62 60
        E 0 90 55 60
        E 0 90 56 60
        E 0 90 49 60
        E 0 90 4a 60
        E 0 90 3d 60
        E 0 90 3e 60
        E 120 80 1a 00
        E 0 80 1f 00
        E 0 80 61 00
        E 0 80 62 00
        E 0 80 55 00
        E 0 80 56 00
        E 0 80 49 00
        E 0 80 4a 00
        E 0 80 3d 00
        E 0 80 3e 00
        E 120 90 1f 60
        E 0 90 62 60
        E 0 90 56 60
        E 0 99 18 60
        E 0 99 60 60
        E 0 99 54 60
        E 120 80 1f 00
        E 0 80 62 00
        E 0 80 56 00
        E 0 89 18 00
        E 0 89 60 00
        E 0 89 54 00
        E 120 90 1c 60
        E 0 90 1f 60
        E 0 90 61 60
        E 0 90 62 60
        E 0 90 55 60
        E 0 90 56 60
        E 0 90 49 60
        E 0 90 4a 60
        E 0 90 3d 60
        E 0 90 3e 60
        E 120 80 1c 00
        E 0 80 1f 00
        E 0 80 61 00
        E 0 80 62 00
        E 0 80 55 00
        E 0 80 56 00
        E 0 80 49 00
        E 0 80 4a 00
        E 0 80 3d 00
        E 0 80 3e 00
        E 120 90 1f 60
        E 0 90 62 60
        E 0 90 56 60
        E 120 80 1f 00
        E 0 80 62 00
        E 0 80 56 00
        E 0 90 1c 60
        E 0 90 61 60
        E 120 80 1c 00
        E 0 80 61 00
        E 0 90 1f 60
        E 0 90 62 60
        E 0 90 56 60
        E 0 90 4a 60
        E 0 90 3e 60
        E 0 99 18 60
        E 0 99 60 60
        E 0 99 54 60
        E 0 99 48 60
        E 120 80 1f 00
        E 0 80 62 00
        E 0 80 56 00
        E 0 80 4a 00
        E 0 80 3e 00
        E 0 90 1c 60
        E 0 90 61 60
        E 0 89 18 00
        E 0 89 60 00
        E 0 89 54 00
        E 0 89 48 00
        E 0 99 18 60
        E 0 99 60 60
        E 120 80 1c 00
        E 0 80 61 00
        E 0 90 1f 60
        E 0 90 62 60
        E 0 90 56 60
        E 0 89 18 00
        E 0 89 60 00
        E 120 80 1f 00
        E 0 80 62 00
        E 0 80 56 00
        E 120 90 1c 60
        E 0 90 1f 60
        E 0 90 61 60
        E 0 90 62 60
        E 0 90 55 60
        E 0 90 56 60
        E 0 90 49 60
        E 0 90 4a 60
        E 0 90 3d 60
        E 0 90 3e 60
        E 0 99 60 60
        E 0 99 18 60
        E 0 99 54 60
        E 120 80 1c 00
        E 0 80 1f 00
        E 0 80 61 00
        E 0 80 62 00
        E 0 80 55 00
        E 0 80 56 00
        E 0 80 49 00
        E 0 80 4a 00
        E 0 80 3d 00
        E 0 80 3e 00
        E 0 89 60 00
        E 0 89 18 00
        E 0 89 54 00
        E 120 90 1f 60
        E 0 90 62 60
        E 0 90 56 60
        E 120 80 1f 00
        E 0 80 62 00
        E 0 80 56 00
        E 120 90 1a 60
        E 0 90 1f 60
        E 0 90 61 60
        E 0 90 62 60
        E 0 90 55 60
        E 0 90 56 60
        E 0 90 49 60
        E 0 90 4a 60
        E 0 90 3d 60
        E 0 90 3e 60
        E 120 80 1a 00
        E 0 80 1f 00
        E 0 80 61 00
        E 0 80 62 00
        E 0 80 55 00
        E 0 80 56 00
        E 0 80 49 00
        E 0 80 4a 00
        E 0 80 3d 00
        E 0 80 3e 00
        E 120 90 1f 60
        E 0 90 62 60
        E 0 90 56 60
        E 0 99 18 60
        E 0 99 60 60
        E 0 99 54 60
        E 120 80 1f 00
        E 0 80 62 00
        E 0 80 56 00
        E 0 89 18 00
        E 0 89 60 00
        E 0 89 54 00
        E 120 90 1c 60
        E 0 90 1f 60
        E 0 90 61 60
        E 0 90 62 60
        E 0 90 55 60
        E 0 90 56 60
        E 0 90 49 60
        E 0 90 4a 60
        E 0 90 3d 60
        E 0 90 3e 60
        E 120 80 1c 00
        E 0 80 1f 00
        E 0 80 61 00
        E 0 80 62 00
        E 0 80 55 00
        E 0 80 56 00
        E 0 80 49 00
        E 0 80 4a 00
        E 0 80 3d 00
        E 0 80 3e 00
        E 120 90 1f 60
        E 0 90 62 60
        E 0 90 56 60
        E 120 80 1f 00
        E 0 80 62 00
        E 0 80 56 00
        E 0 90 1c 60
        E 0 90 61 60
        E 120 80 1c 00
        E 0 80 61 00
        E 0 90 1f 60
        E 0 90 62 60
        E 0 90 74 60
        E 0 90 56 60
        E 0 90 4a 60
        E 0 90 3e 60
        E 0 99 18 60
        E 0 99 60 60
        E 0 99 54 60
        E 0 99 48 60
        E 120 80 1f 00
        E 0 80 62 00
        E 0 80 56 00
        E 0 80 4a 00
        E 0 80 3e 00
        E 0 90 1c 60
        E 0 90 61 60
        E 0 89 18 00
        E 0 89 60 00
        E 0 89 54 00
        E 0 89 48 00
        E 0 99 18 60
        E 0 99 60 60
        E 120 80 1c 00
        E 0 80 61 00
        E 0 90 1f 60
        E 0 90 62 60
        E 0 90 56 60
        E 0 89 18 00
        E 0 89 60 00
        E 120 80 1f 00
        E 0 80 62 00
        E 0 80 56 00
        E 120 90 1c 60
        E 0 90 1f 60
        E 0 90 61 60
        E 0 90 62 60
        E 0 90 55 60
        E 0 90 56 60
        E 0 90 49 60
        E 0 90 4a 60
        E 0 90 3d 60
        E 0 90 3e 60
        E 0 99 18 60
        E 0 99 60 60
        E 0 99 54 60
        E 120 80 1c 00
        E 0 80 1f 00
        E 0 80 61 00
        E 0 80 62 00
        E 0 80 55 00
        E 0 80 56 00
        E 0 80 49 00
        E 0 80 4a 00
        E 0 80 3d 00
        E 0 80 3e 00
        E 0 89 18 00
        E 0 89 60 00
        E 0 89 54 00
        E 120 90 1f 60
        E 0 90 62 60
        E 0 90 56 60
        E 120 80 1f 00
        E 0 80 62 00
        E 0 80 56 00
        E 120 90 1a 60
        E 0 90 1f 60
        E 0 90 61 60
        E 0 90 62 60
        E 0 90 55 60
        E 0 90 56 60
        E 0 90 49 60
        E 0 90 4a 60
        E 0 90 3d 60
        E 0 90 3e 60
        E 120 80 1a 00
        E 0 80 1f 00
        E 0 80 61 00
        E 0 80 62 00
        E 0 80 55 00
        E 0 80 56 00
        E 0 80 49 00
        E 0 80 4a 00
        E 0 80 3d 00
        E 0 80 3e 00
        E 120 90 1f 60
        E 0 90 62 60
        E 0 90 56 60
        E 0 99 18 60
        E 0 99 60 60
        E 0 99 54 60
        E 120 80 1f 00
        E 0 80 62 00
        E 0 80 56 00
        E 0 89 18 00
        E 0 89 60 00
        E 0 89 54 00
        E 120 90 1c 60
        E 0 90 1f 60
        E 0 90 61 60
        E 0 90 62 60
        E 0 90 55 60
        E 0 90 56 60
        E 0 90 49 60
        E 0 90 4a 60
        E 0 90 3d 60
        E 0 90 3e 60
        E 120 80 1c 00
        E 0 80 1f 00
        E 0 80 61 00
        E 0 80 62 00
        E 0 80 55 00
        E 0 80 56 00
        E 0 80 49 00
        E 0 80 4a 00
        E 0 80 3d 00
        E 0 80 3e 00
        E 120 90 1f 60
        E 0 90 62 60
        E 0 90 56 60
        E 120 80 1f 00
        E 0 80 62 00
        E 0 80 56 00
        E 0 90 1c 60
        E 0 90 61 60
        E 120 80 74 00
        E 0 80 1c 00
        E 0 80 61 00
        E 0 90 1f 60
        E 0 90 62 60
        E 0 90 56 60
        E 0 90 4a 60
        E 0 90 3e 60
        E 0 99 18 60
        E 0 99 60 60
        E 0 99 54 60
        E 0 99 48 60
        E 120 80 1f 00
        E 0 80 62 00
        E 0 80 56 00
        E 0 80 4a 00
        E 0 80 3e 00
        E 0 90 1c 60
        E 0 90 61 60
        E 0 89 18 00
        E 0 89 60 00
        E 0 89 54 00
        E 0 89 48 00
        E 0 99 18 60
        E 0 99 60 60
        E 120 80 1c 00
        E 0 80 61 00
        E 0 90 1f 60
        E 0 90 62 60
        E 0 90 56 60
        E 0 89 18 00
        E 0 89 60 00
        E 120 80 1f 00
        E 0 80 62 00
        E 0 80 56 00
        E 120 90 1c 60
        E 0 90 1f 60
        E 0 90 61 60
        E 0 90 62 60
        E 0 90 55 60
        E 0 90 56 60
        E 0 90 49 60
        E 0 90 4a 60
        E 0 90 3d 60
        E 0 90 3e 60
        E 0 99 18 60
        E 0 99 60 60
        E 0 99 54 60
        E 120 80 1c 00
        E 0 80 1f 00
        E 0 80 61 00
        E 0 80 62 00
        E 0 80 55 00
        E 0 80 56 00
        E 0 80 49 00
        E 0 80 4a 00
        E 0 80 3d 00
        E 0 80 3e 00
        E 0 89 18 00
        E 0 89 60 00
        E 0 89 54 00
        E 120 90 1f 60
        E 0 90 62 60
        E 0 90 56 60
        E 120 80 1f 00
        E 0 80 62 00
        E 0 80 56 00
        E 120 90 1a 60
        E 0 90 1f 60
        E 0 90 61 60
        E 0 90 62 60
        E 0 90 55 60
        E 0 90 56 60
        E 0 90 49 60
        E 0 90 4a 60
        E 0 90 3d 60
        E 0 90 3e 60
        E 120 80 1a 00
        E 0 80 1f 00
        E 0 80 61 00
        E 0 80 62 00
        E 0 80 55 00
        E 0 80 56 00
        E 0 80 49 00
        E 0 80 4a 00
        E 0 80 3d 00
        E 0 80 3e 00
        E 120 90 1f 60
        E 0 90 62 60
        E 0 90 56 60
        E 0 99 18 60
        E 0 99 60 60
        E 0 99 54 60
        E 120 80 1f 00
        E 0 80 62 00
        E 0 80 56 00
        E 0 89 18 00
        E 0 89 60 00
        E 0 89 54 00
        E 120 90 1c 60
        E 0 90 1f 60
        E 0 90 61 60
        E 0 90 62 60
        E 0 90 55 60
        E 0 90 56 60
        E 0 90 49 60
        E 0 90 4a 60
        E 0 90 3d 60
        E 0 90 3e 60
        E 120 80 1c 00
        E 0 80 1f 00
        E 0 80 61 00
        E 0 80 62 00
        E 0 80 55 00
        E 0 80 56 00
        E 0 80 49 00
        E 0 80 4a 00
        E 0 80 3d 00
        E 0 80 3e 00
        E 120 90 1f 60
        E 0 90 62 60
        E 0 90 56 60
        E 120 80 1f 00
        E 0 80 62 00
        E 0 80 56 00
        E 0 90 1c 60
        E 0 90 61 60
        E 120 80 1c 00
        E 0 80 61 00
        E 0 90 1f 60
        E 0 90 62 60
        E 0 90 56 60
        E 0 90 4a 60
        E 0 90 3e 60
        E 0 99 18 60
        E 0 99 60 60
        E 0 99 54 60
        E 0 99 48 60
        E 120 80 1f 00
        E 0 80 62 00
        E 0 80 56 00
        E 0 80 4a 00
        E 0 80 3e 00
        E 0 90 1c 60
        E 0 90 61 60
        E 0 89 18 00
        E 0 89 60 00
        E 0 89 54 00
        E 0 89 48 00
        E 0 99 18 60
        E 0 99 60 60
        E 120 80 1c 00
        E 0 80 61 00
        E 0 90 1f 60
        E 0 90 62 60
        E 0 90 56 60
        E 0 89 18 00
        E 0 89 60 00
        E 120 80 1f 00
        E 0 80 62 00
        E 0 80 56 00
        E 120 90 1c 60
        E 0 90 1f 60
        E 0 90 61 60
        E 0 90 62 60
        E 0 90 55 60
        E 0 90 56 60
        E 0 90 49 60
        E 0 90 4a 60
        E 0 90 3d 60
        E 0 90 3e 60
        E 0 99 18 60
        E 0 99 60 60
        E 0 99 54 60
        E 120 80 1c 00
        E 0 80 1f 00
        E 0 80 61 00
        E 0 80 62 00
        E 0 80 55 00
        E 0 80 56 00
        E 0 80 49 00
        E 0 80 4a 00
        E 0 80 3d 00
        E 0 80 3e 00
        E 0 89 18 00
        E 0 89 60 00
        E 0 89 54 00
        E 120 90 1f 60
        E 0 90 62 60
        E 0 90 56 60
        E 120 80 1f 00
        E 0 80 62 00
        E 0 80 56 00
        E 120 90 1a 60
        E 0 90 1f 60
        E 0 90 61 60
        E 0 90 62 60
        E 0 90 55 60
        E 0 90 56 60
        E 0 90 49 60
        E 0 90 4a 60
        E 0 90 3d 60
        E 0 90 3e 60
        E 120 80 1a 00
        E 0 80 1f 00
        E 0 80 61 00
        E 0 80 62 00
        E 0 80 55 00
        E 0 80 56 00
        E 0 80 49 00
        E 0 80 4a 00
        E 0 80 3d 00
        E 0 80 3e 00
        E 120 90 1f 60
        E 0 90 62 60
        E 0 90 56 60
        E 0 99 18 60
        E 0 99 60 60
        E 0 99 54 60
        E 120 80 1f 00
        E 0 80 62 00
        E 0 80 56 00
        E 0 89 18 00
        E 0 89 60 00
        E 0 89 54 00
        E 120 90 1c 60
        E 0 90 1f 60
        E 0 90 61 60
        E 0 90 62 60
        E 0 90 55 60
        E 0 90 56 60
        E 0 90 49 60
        E 0 90 4a 60
        E 0 90 3d 60
        E 0 90 3e 60
        E 120 80 1c 00
        E 0 80 1f 00
        E 0 80 61 00
        E 0 80 62 00
        E 0 80 55 00
        E 0 80 56 00
        E 0 80 49 00
        E 0 80 4a 00
        E 0 80 3d 00
        E 0 80 3e 00
        E 120 90 1f 60
        E 0 90 62 60
        E 0 90 56 60
        E 120 80 1f 00
        E 0 80 62 00
        E 0 80 56 00
        E 0 90 1c 60
        E 0 90 61 60
        E 120 80 1c 00
        E 0 80 61 00
        E 0 90 1f 60
        E 0 90 62 60
        E 0 90 56 60
        E 0 90 4a 60
        E 0 90 3e 60
        E 0 99 18 60
        E 0 99 60 60
        E 0 99 54 60
        E 0 99 48 60
        E 120 80 1f 00
        E 0 80 62 00
        E 0 80 56 00
        E 0 80 4a 00
        E 0 80 3e 00
        E 0 90 1c 60
        E 0 90 61 60
        E 0 89 18 00
        E 0 89 60 00
        E 0 89 54 00
        E 0 89 48 00
        E 0 99 18 60
        E 0 99 60 60
        E 120 80 1c 00
        E 0 80 61 00
        E 0 90 1f 60
        E 0 90 62 60
        E 0 90 56 60
        E 0 89 18 00
        E 0 89 60 00
        E 120 80 1f 00
        E 0 80 62 00
        E 0 80 56 00
        E 120 90 1c 60
        E 0 90 1f 60
        E 0 90 61 60
        E 0 90 62 60
        E 0 90 55 60
        E 0 90 56 60
        E 0 90 49 60
        E 0 90 4a 60
        E 0 90 3d 60
        E 0 90 3e 60
        E 0 99 18 60
        E 0 99 60 60
        E 0 99 54 60
        E 120 80 1c 00
        E 0 80 1f 00
        E 0 80 61 00
        E 0 80 62 00
        E 0 80 55 00
        E 0 80 56 00
        E 0 80 49 00
        E 0 80 4a 00
        E 0 80 3d 00
        E 0 80 3e 00
        E 0 89 18 00
        E 0 89 60 00
        E 0 89 54 00
        E 120 90 1f 60
        E 0 90 62 60
        E 0 90 56 60
        E 120 80 1f 00
        E 0 80 62 00
        E 0 80 56 00
        E 120 90 1a 60
        E 0 90 1f 60
        E 0 90 61 60
        E 0 90 62 60
        E 0 90 55 60
        E 0 90 56 60
        E 0 90 49 60
        E 0 90 4a 60
        E 0 90 3d 60
        E 0 90 3e 60
        E 120 80 1a 00
        E 0 80 1f 00
        E 0 80 61 00
        E 0 80 62 00
        E 0 80 55 00
        E 0 80 56 00
        E 0 80 49 00
        E 0 80 4a 00
        E 0 80 3d 00
        E 0 80 3e 00
        E 120 90 1f 60
        E 0 90 62 60
        E 0 90 56 60
        E 0 99 18 60
        E 0 99 60 60
        E 0 99 54 60
        E 120 80 1f 00
        E 0 80 62 00
        E 0 80 56 00
        E 0 89 18 00
        E 0 89 60 00
        E 0 89 54 00
        E 120 90 1c 60
        E 0 90 1f 60
        E 0 90 61 60
        E 0 90 62 60
        E 0 90 55 60
        E 0 90 56 60
        E 0 90 49 60
        E 0 90 4a 60
        E 0 90 3d 60
        E 0 90 3e 60
        E 120 80 1c 00
        E 0 80 1f 00
        E 0 80 61 00
        E 0 80 62 00
        E 0 80 55 00
        E 0 80 56 00
        E 0 80 49 00
        E 0 80 4a 00
        E 0 80 3d 00
        E 0 80 3e 00
        E 120 90 1f 60
        E 0 90 62 60
        E 0 90 56 60
        E 120 80 1f 00
        E 0 80 62 00
        E 0 80 56 00
        E 0 90 1c 60
        E 0 90 61 60
        E 120 80 1c 00
        E 0 80 61 00
        E 0 90 1f 60
        E 0 90 62 60
        E 0 90 78 60
        E 0 90 79 60
        E 0 90 7a 60
        E 0 90 7b 60
        E 0 90 7c 60
        E 0 90 56 60
        E 0 90 4a 60
        E 0 90 3e 60
        E 0 99 18 60
        E 0 99 60 60
        E 0 99 54 60
        E 0 99 48 60
        E 120 80 1f 00
        E 0 80 62 00
        E 0 80 56 00
        E 0 80 4a 00
        E 0 80 3e 00
        E 0 90 1c 60
        E 0 90 61 60
        E 0 89 18 00
        E 0 89 60 00
        E 0 89 54 00
        E 0 89 48 00
        E 0 99 18 60
        E 0 99 60 60
        E 120 80 1c 00
        E 0 80 61 00
        E 0 90 1f 60
        E 0 90 62 60
        E 0 90 56 60
        E 0 89 18 00
        E 0 89 60 00
        E 120 80 1f 00
        E 0 80 62 00
        E 0 80 56 00
        E 120 90 1c 60
        E 0 90 1f 60
        E 0 90 61 60
        E 0 90 62 60
        E 0 90 55 60
        E 0 90 56 60
        E 0 90 49 60
        E 0 90 4a 60
        E 0 90 3d 60
        E 0 90 3e 60
        E 0 99 18 60
        E 0 99 60 60
        E 0 99 54 60
        E 120 80 1c 00
        E 0 80 1f 00
        E 0 80 61 00
        E 0 80 62 00
        E 0 80 55 00
        E 0 80 56 00
        E 0 80 49 00
        E 0 80 4a 00
        E 0 80 3d 00
        E 0 80 3e 00
        E 0 89 18 00
        E 0 89 60 00
        E 0 89 54 00
        E 120 90 1f 60
        E 0 90 62 60
        E 0 90 56 60
        E 120 80 1f 00
        E 0 80 62 00
        E 0 80 56 00
        E 0 90 1a 60
        E 0 90 61 60
        E 120 80 1a 00
        E 0 80 61 00
        E 0 90 1a 60
        E 0 90 1f 60
        E 0 90 61 60
        E 0 90 62 60
        E 0 90 55 60
        E 0 90 56 60
        E 0 90 49 60
        E 0 90 4a 60
        E 0 90 3d 60
        E 0 90 3e 60
        E 120 80 1a 00
        E 0 80 1f 00
        E 0 80 61 00
        E 0 80 62 00
        E 0 80 55 00
        E 0 80 56 00
        E 0 80 49 00
        E 0 80 4a 00
        E 0 80 3d 00
        E 0 80 3e 00
        E 120 90 1a 60
        E 0 90 1f 60
        E 0 90 61 60
        E 0 90 62 60
        E 0 90 55 60
        E 0 90 56 60
        E 0 99 18 60
        E 0 99 60 60
        E 0 99 54 60
        E 120 80 1a 00
        E 0 80 1f 00
        E 0 80 61 00
        E 0 80 62 00
        E 0 80 55 00
        E 0 80 56 00
        E 0 89 18 00
        E 0 89 60 00
        E 0 89 54 00
        E 120 90 1c 60
        E 0 90 1f 60
        E 0 90 61 60
        E 0 90 62 60
        E 0 90 55 60
        E 0 90 56 60
        E 0 90 49 60
        E 0 90 4a 60
        E 0 90 3d 60
        E 0 90 3e 60
        E 120 80 1c 00
        E 0 80 1f 00
        E 0 80 61 00
        E 0 80 62 00
        E 0 80 55 00
        E 0 80 56 00
        E 0 80 49 00
        E 0 80 4a 00
        E 0 80 3d 00
        E 0 80 3e 00
        E 120 90 1f 60
        E 0 90 62 60
        E 0 90 56 60
        E 120 80 1f 00
        E 0 80 62 00
        E 0 80 56 00
        E 0 90 1c 60
        E 0 90 61 60
        E 120 80 78 00
        E 0 80 79 00
        E 0 80 7a 00
        E 0 80 7b 00
        E 0 80 7c 00
        E 0 80 1c 00
        E 0 80 61 00
        E 0 90 26 60
        E 0 90 64 60
        E 0 90 58 60
        E 0 90 4c 60
        E 0 90 40 60
        E 0 99 18 60
        E 0 99 60 60
        E 0 99 54 60
        E 0 99 48 60
        E 120 80 26 00
        E 0 80 64 00
        E 0 80 58 00
        E 0 80 4c 00
        E 0 80 40 00
        E 0 90 1c 60
        E 0 90 61 60
        E 0 89 18 00
        E 0 89 60 00
        E 0 89 54 00
        E 0 89 48 00
        E 0 99 18 60
        E 0 99 60 60
        E 120 80 1c 00
        E 0 80 61 00
        E 0 90 1f 60
        E 0 90 62 60
        E 0 90 56 60
        E 0 89 18 00
        E 0 89 60 00
        E 0 99 18 60
        E 0 99 60 60
        E 0 99 54 60
        E 120 80 1f 00
        E 0 80 62 00
        E 0 80 56 00
        E 0 89 18 00
        E 0 89 60 00
        E 0 89 54 00
        E 120 90 1c 60
        E 0 90 1f 60
        E 0 90 61 60
        E 0 90 62 60
        E 0 90 55 60
        E 0 90 56 60
        E 0 90 49 60
        E 0 90 4a 60
        E 0 90 3d 60
        E 0 90 3e 60
        E 0 99 18 60
        E 0 99 60 60
        E 0 99 54 60
        E 120 80 1c 00
        E 0 80 1f 00
        E 0 80 61 00
        E 0 80 62 00
        E 0 80 55 00
        E 0 80 56 00
        E 0 80 49 00
        E 0 80 4a 00
        E 0 80 3d 00
        E 0 80 3e 00
        E 0 89 18 00
        E 0 89 60 00
        E 0 89 54 00
        E 120 90 1f 60
        E 0 90 62 60
        E 0 90 56 60
        E 120 80 1f 00
        E 0 80 62 00
        E 0 80 56 00
        E 120 90 1a 60
        E 0 90 1f 60
        E 0 90 61 60
        E 0 90 62 60
        E 0 90 55 60
        E 0 90 56 60
        E 0 90 49 60
        E 0 90 4a 60
        E 0 90 3d 60
        E 0 90 3e 60
        E 120 80 1a 00
        E 0 80 1f 00
        E 0 80 61 00
        E 0 80 62 00
        E 0 80 55 00
        E 0 80 56 00
        E 0 80 49 00
        E 0 80 4a 00
        E 0 80 3d 00
        E 0 80 3e 00
        E 120 90 1f 60
        E 0 90 62 60
        E 0 90 56 60
        E 0 99 18 60
        E 0 99 60 60
        E 0 99 54 60
        E 120 80 1f 00
        E 0 80 62 00
        E 0 80 56 00
        E 0 89 18 00
        E 0 89 60 00
        E 0 89 54 00
        E 120 90 1c 60
        E 0 90 1f 60
        E 0 90 61 60
        E 0 90 62 60
        E 0 90 55 60
        E 0 90 56 60
        E 0 90 49 60
        E 0 90 4a 60
        E 0 90 3d 60
        E 0 90 3e 60
        E 120 80 1c 00
        E 0 80 1f 00
        E 0 80 61 00
        E 0 80 62 00
        E 0 80 55 00
        E 0 80 56 00
        E 0 80 49 00
        E 0 80 4a 00
        E 0 80 3d 00
        E 0 80 3e 00
        E 120 90 1f 60
        E 0 90 62 60
        E 0 90 56 60
        E 120 80 1f 00
        E 0 80 62 00
        E 0 80 56 00
        E 0 90 1c 60
        E 0 90 61 60
        E 120 80 1c 00
        E 0 80 61 00
        E 0 90 1f 60
        E 0 90 62 60
        E 0 90 74 60
        E 0 90 56 60
        E 0 90 4a 60
        E 0 90 3e 60
        E 0 99 18 60
        E 0 99 60 60
        E 0 99 54 60
        E 0 99 48 60
        E 120 80 1f 00
        E 0 80 62 00
        E 0 80 56 00
        E 0 80 4a 00
        E 0 80 3e 00
        E 0 90 1c 60
        E 0 90 61 60
        E 0 89 18 00
        E 0 89 60 00
        E 0 89 54 00
        E 0 89 48 00
        E 0 99 18 60
        E 0 99 60 60
        E 120 80 1c 00
        E 0 80 61 00
        E 0 90 1f 60
        E 0 90 62 60
        E 0 90 56 60
        E 0 89 18 00
        E 0 89 60 00
        E 0 99 18 60
        E 0 99 60 60
        E 0 99 54 60
        E 120 80 1f 00
        E 0 80 62 00
        E 0 80 56 00
        E 0 89 18 00
        E 0 89 60 00
        E 0 89 54 00
        E 0 99 18 60
        E 0 99 60 60
        E 120 90 1c 60
        E 0 90 1f 60
        E 0 90 61 60
        E 0 90 62 60
        E 0 90 55 60
        E 0 90 56 60
        E 0 90 49 60
        E 0 90 4a 60
        E 0 90 3d 60
        E 0 90 3e 60
        E 0 89 18 00
        E 0 89 60 00
        E 0 99 18 60
        E 0 99 60 60
        E 0 99 54 60
        E 120 80 1c 00
        E 0 80 1f 00
        E 0 80 61 00
        E 0 80 62 00
        E 0 80 55 00
        E 0 80 56 00
        E 0 80 49 00
        E 0 80 4a 00
        E 0 80 3d 00
        E 0 80 3e 00
        E 0 89 18 00
        E 0 89 60 00
        E 0 89 54 00
        E 120 90 1f 60
        E 0 90 62 60
        E 0 90 56 60
        E 120 80 1f 00
        E 0 80 62 00
        E 0 80 56 00
        E 120 90 1a 60
        E 0 90 1f 60
        E 0 90 61 60
        E 0 90 62 60
        E 0 90 55 60
        E 0 90 56 60
        E 0 90 49 60
        E 0 90 4a 60
        E 0 90 3d 60
        E 0 90 3e 60
        E 120 80 1a 00
        E 0 80 1f 00
        E 0 80 61 00
        E 0 80 62 00
        E 0 80 55 00
        E 0 80 56 00
        E 0 80 49 00
        E 0 80 4a 00
        E 0 80 3d 00
        E 0 80 3e 00
        E 120 90 1f 60
        E 0 90 62 60
        E 0 90 56 60
        E 0 99 18 60
        E 0 99 60 60
        E 0 99 54 60
        E 120 80 1f 00
        E 0 80 62 00
        E 0 80 56 00
        E 0 89 18 00
        E 0 89 60 00
        E 0 89 54 00
        E 120 90 1c 60
        E 0 90 1f 60
        E 0 90 61 60
        E 0 90 62 60
        E 0 90 55 60
        E 0 90 56 60
        E 0 90 49 60
        E 0 90 4a 60
        E 0 90 3d 60
        E 0 90 3e 60
        E 120 80 1c 00
        E 0 80 1f 00
        E 0 80 61 00
        E 0 80 62 00
        E 0 80 55 00
        E 0 80 56 00
        E 0 80 49 00
        E 0 80 4a 00
        E 0 80 3d 00
        E 0 80 3e 00
        E 120 90 1f 60
        E 0 90 62 60
        E 0 90 56 60
        E 120 80 1f 00
        E 0 80 62 00
        E 0 80 56 00
        E 0 90 1c 60
        E 0 90 61 60
        E 120 80 74 00
        E 0 80 1c 00
        E 0 80 61 00
        E 0 90 1f 60
        E 0 90 62 60
        E 0 90 56 60
        E 0 90 4a 60
        E 0 90 3e 60
        E 0 99 18 60
        E 0 99 60 60
        E 0 99 54 60
        E 0 99 48 60
        E 120 80 1f 00
        E 0 80 62 00
        E 0 80 56 00
        E 0 80 4a 00
        E 0 80 3e 00
        E 0 90 1c 60
        E 0 90 61 60
        E 0 89 18 00
        E 0 89 60 00
        E 0 89 54 00
        E 0 89 48 00
        E 0 99 18 60
        E 0 99 60 60
        E 120 80 1c 00
        E 0 80 61 00
        E 0 90 1f 60
        E 0 90 62 60
        E 0 90 56 60
        E 0 89 18 00
        E 0 89 60 00
        E 120 80 1f 00
        E 0 80 62 00
        E 0 80 56 00
        E 120 90 1c 60
        E 0 90 1f 60
        E 0 90 61 60
        E 0 90 62 60
        E 0 90 55 60
        E 0 90 56 60
        E 0 90 49 60
        E 0 90 4a 60
        E 0 90 3d 60
        E 0 90 3e 60
        E 0 99 18 60
        E 0 99 60 60
        E 0 99 54 60
        E 120 80 1c 00
        E 0 80 1f 00
        E 0 80 61 00
        E 0 80 62 00
        E 0 80 55 00
        E 0 80 56 00
        E 0 80 49 00
        E 0 80 4a 00
        E 0 80 3d 00
        E 0 80 3e 00
        E 0 89 18 00
        E 0 89 60 00
        E 0 89 54 00
        E 120 90 1f 60
        E 0 90 62 60
        E 0 90 56 60
        E 120 80 1f 00
        E 0 80 62 00
        E 0 80 56 00
        E 120 90 1a 60
        E 0 90 1f 60
        E 0 90 61 60
        E 0 90 62 60
        E 0 90 55 60
        E 0 90 56 60
        E 0 90 49 60
        E 0 90 4a 60
        E 0 90 3d 60
        E 0 90 3e 60
        E 120 80 1a 00
        E 0 80 1f 00
        E 0 80 61 00
        E 0 80 62 00
        E 0 80 55 00
        E 0 80 56 00
        E 0 80 49 00
        E 0 80 4a 00
        E 0 80 3d 00
        E 0 80 3e 00
        E 120 90 1f 60
        E 0 90 62 60
        E 0 90 56 60
        E 0 99 18 60
        E 0 99 60 60
        E 0 99 54 60
        E 120 80 1f 00
        E 0 80 62 00
        E 0 80 56 00
        E 0 89 18 00
        E 0 89 60 00
        E 0 89 54 00
        E 120 90 1c 60
        E 0 90 1f 60
        E 0 90 61 60
        E 0 90 62 60
        E 0 90 55 60
        E 0 90 56 60
        E 0 90 49 60
        E 0 90 4a 60
        E 0 90 3d 60
        E 0 90 3e 60
        E 120 80 1c 00
        E 0 80 1f 00
        E 0 80 61 00
        E 0 80 62 00
        E 0 80 55 00
        E 0 80 56 00
        E 0 80 49 00
        E 0 80 4a 00
        E 0 80 3d 00
        E 0 80 3e 00
        E 120 90 1f 60
        E 0 90 62 60
        E 0 90 56 60
        E 120 80 1f 00
        E 0 80 62 00
        E 0 80 56 00
        E 0 90 1c 60
        E 0 90 61 60
        E 120 80 1c 00
        E 0 80 61 00
        E 0 90 1f 60
        E 0 90 62 60
        E 0 90 78 60
        E 0 90 79 60
        E 0 90 7a 60
        E 0 90 7b 60
        E 0 90 7c 60
        E 0 90 56 60
        E 0 90 4a 60
        E 0 90 3e 60
        E 0 99 18 60
        E 0 99 60 60
        E 0 99 54 60
        E 0 99 48 60
        E 120 80 1f 00
        E 0 80 62 00
        E 0 80 56 00
        E 0 80 4a 00
        E 0 80 3e 00
        E 0 90 1c 60
        E 0 90 61 60
        E 0 89 18 00
        E 0 89 60 00
        E 0 89 54 00
        E 0 89 48 00
        E 0 99 18 60
        E 0 99 60 60
        E 120 80 1c 00
        E 0 80 61 00
        E 0 90 1f 60
        E 0 90 62 60
        E 0 90 56 60
        E 0 89 18 00
        E 0 89 60 00
        E 0 99 18 60
        E 0 99 60 60
        E 0 99 54 60
        E 120 80 1f 00
        E 0 80 62 00
        E 0 80 56 00
        E 0 89 18 00
        E 0 89 60 00
        E 0 89 54 00
        E 0 99 18 60
        E 0 99 60 60
        E 120 90 1a 60
        E 0 90 1f 60
        E 0 90 61 60
        E 0 90 62 60
        E 0 90 55 60
        E 0 90 56 60
        E 0 90 49 60
        E 0 90 4a 60
        E 0 90 3d 60
        E 0 90 3e 60
        E 0 89 18 00
        E 0 89 60 00
        E 0 99 18 60
        E 0 99 60 60
        E 0 99 54 60
        E 120 80 1a 00
        E 0 80 1f 00
        E 0 80 61 00
        E 0 80 62 00
        E 0 80 55 00
        E 0 80 56 00
        E 0 80 49 00
        E 0 80 4a 00
        E 0 80 3d 00
        E 0 80 3e 00
        E 0 89 18 00
        E 0 89 60 00
        E 0 89 54 00
        E 120 90 1f 60
        E 0 90 62 60
        E 0 90 56 60
        E 120 80 1f 00
        E 0 80 62 00
        E 0 80 56 00
        E 120 90 1f 60
        E 0 90 62 60
        E 0 90 56 60
        E 0 90 4a 60
        E 0 90 3e 60
        E 120 80 1f 00
        E 0 80 62 00
        E 0 80 56 00
        E 0 80 4a 00
        E 0 80 3e 00
        E 120 90 1f 60
        E 0 90 62 60
        E 0 90 56 60
        E 0 99 18 60
        E 0 99 60 60
        E 0 99 54 60
        E 120 80 1f 00
        E 0 80 62 00
        E 0 80 56 00
        E 0 89 18 00
        E 0 89 60 00
        E 0 89 54 00
        E 120 90 1a 60
        E 0 90 1f 60
        E 0 90 61 60
        E 0 90 62 60
        E 0 90 55 60
        E 0 90 56 60
        E 0 90 49 60
        E 0 90 4a 60
        E 0 90 3d 60
        E 0 90 3e 60
        E 120 80 1a 00
        E 0 80 1f 00
        E 0 80 61 00
        E 0 80 62 00
        E 0 80 55 00
        E 0 80 56 00
        E 0 80 49 00
        E 0 80 4a 00
        E 0 80 3d 00
        E 0 80 3e 00
        E 0 99 18 60
        E 0 99 60 60
        E 120 90 24 60
        E 0 90 63 60
        E 0 90 57 60
        E 0 89 18 00
        E 0 89 60 00
        E 120 80 24 00
        E 0 80 63 00
        E 0 80 57 00
        E 0 90 1c 60
        E 0 90 61 60
        E 120 80 78 00
        E 0 80 79 00
        E 0 80 7a 00
        E 0 80 7b 00
        E 0 80 7c 00
        E 0 80 1c 00
        E 0 80 61 00
        E 0 90 1f 60
        E 0 90 62 60
        E 0 90 56 60
        E 0 90 4a 60
        E 0 90 3e 60
        E 0 99 18 60
        E 0 99 60 60
        E 0 99 54 60
        E 0 99 48 60
        E 120 80 1f 00
        E 0 80 62 00
        E 0 80 56 00
        E 0 80 4a 00
        E 0 80 3e 00
        E 0 90 1c 60
        E 0 90 61 60
        E 0 89 18 00
        E 0 89 60 00
        E 0 89 54 00
        E 0 89 48 00
        E 0 99 18 60
        E 0 99 60 60
        E 120 80 1c 00
        E 0 80 61 00
        E 0 90 1f 60
        E 0 90 62 60
        E 0 90 56 60
        E 0 89 18 00
        E 0 89 60 00
        E 0 99 18 60
        E 0 99 60 60
        E 0 99 54 60
        E 120 80 1f 00
        E 0 80 62 00
        E 0 80 56 00
        E 0 89 18 00
        E 0 89 60 00
        E 0 89 54 00
        E 0 99 18 60
        E 0 99 60 60
        E 120 90 1c 60
        E 0 90 1f 60
        E 0 90 61 60
        E 0 90 62 60
        E 0 90 55 60
        E 0 90 56 60
        E 0 90 49 60
        E 0 90 4a 60
        E 0 90 3d 60
        E 0 90 3e 60
        E 0 89 18 00
        E 0 89 60 00
        E 0 99 18 60
        E 0 99 60 60
        E 0 99 54 60
        E 120 80 1c 00
        E 0 80 1f 00
        E 0 80 61 00
        E 0 80 62 00
        E 0 80 55 00
        E 0 80 56 00
        E 0 80 49 00
        E 0 80 4a 00
        E 0 80 3d 00
        E 0 80 3e 00
        E 0 89 18 00
        E 0 89 60 00
        E 0 89 54 00
        E 120 90 1f 60
        E 0 90 62 60
        E 0 90 56 60
        E 120 80 1f 00
        E 0 80 62 00
        E 0 80 56 00
        E 120 90 1a 60
        E 0 90 1f 60
        E 0 90 61 60
        E 0 90 62 60
        E 0 90 55 60
        E 0 90 56 60
        E 0 90 49 60
        E 0 90 4a 60
        E 0 90 3d 60
        E 0 90 3e 60
        E 120 80 1a 00
        E 0 80 1f 00
        E 0 80 61 00
        E 0 80 62 00
        E 0 80 55 00
        E 0 80 56 00
        E 0 80 49 00
        E 0 80 4a 00
        E 0 80 3d 00
        E 0 80 3e 00
        E 120 90 1f 60
        E 0 90 62 60
        E 0 90 56 60
        E 0 99 18 60
        E 0 99 60 60
        E 0 99 54 60
        E 120 80 1f 00
        E 0 80 62 00
        E 0 80 56 00
        E 0 89 18 00
        E 0 89 60 00
        E 0 89 54 00
        E 120 90 1c 60
        E 0 90 1f 60
        E 0 90 61 60
        E 0 90 62 60
        E 0 90 55 60
        E 0 90 56 60
        E 0 90 49 60
        E 0 90 4a 60
        E 0 90 3d 60
        E 0 90 3e 60
        E 120 80 1c 00
        E 0 80 1f 00
        E 0 80 61 00
        E 0 80 62 00
        E 0 80 55 00
        E 0 80 56 00
        E 0 80 49 00
        E 0 80 4a 00
        E 0 80 3d 00
        E 0 80 3e 00
        E 0 99 18 60
        E 0 99 60 60
        E 120 90 1f 60
        E 0 90 62 60
        E 0 90 56 60
        E 0 89 18 00
        E 0 89 60 00
        E 120 80 1f 00
        E 0 80 62 00
        E 0 80 56 00
        E 0 90 1c 60
        E 0 90 61 60
        E 0 99 18 60
        E 0 99 60 60
        E 120 80 1c 00
        E 0 80 61 00
        E 0 90 1f 60
        E 0 90 62 60
        E 0 90 56 60
        E 0 90 4a 60
        E 0 90 3e 60
        E 0 89 18 00
        E 0 89 60 00
        E 0 99 18 60
        E 0 99 60 60
        E 0 99 54 60
        E 0 99 48 60
        E 120 80 1f 00
        E 0 80 62 00
        E 0 80 56 00
        E 0 80 4a 00
        E 0 80 3e 00
        E 0 90 1c 60
        E 0 90 61 60
        E 0 89 18 00
        E 0 89 60 00
        E 0 89 54 00
        E 0 89 48 00
        E 0 99 18 60
        E 0 99 60 60
        E 120 80 1c 00
        E 0 80 61 00
        E 0 90 1f 60
        E 0 90 62 60
        E 0 90 56 60
        E 0 89 18 00
        E 0 89 60 00
        E 0 99 18 60
        E 0 99 60 60
        E 0 99 54 60
        E 120 80 1f 00
        E 0 80 62 00
        E 0 80 56 00
        E 0 89 18 00
        E 0 89 60 00
        E 0 89 54 00
        E 0 99 18 60
        E 0 99 60 60
        E 120 90 1c 60
        E 0 90 1f 60
        E 0 90 61 60
        E 0 90 62 60
        E 0 90 55 60
        E 0 90 56 60
        E 0 90 49 60
        E 0 90 4a 60
        E 0 90 3d 60
        E 0 90 3e 60
        E 0 89 18 00
        E 0 89 60 00
        E 0 99 18 60
        E 0 99 60 60
        E 0 99 54 60
        E 120 80 1c 00
        E 0 80 1f 00
        E 0 80 61 00
        E 0 80 62 00
        E 0 80 55 00
        E 0 80 56 00
        E 0 80 49 00
        E 0 80 4a 00
        E 0 80 3d 00
        E 0 80 3e 00
        E 0 89 18 00
        E 0 89 60 00
        E 0 89 54 00
        E 120 90 1f 60
        E 0 90 62 60
        E 0 90 56 60
        E 120 80 1f 00
        E 0 80 62 00
        E 0 80 56 00
        E 120 90 1a 60
        E 0 90 1f 60
        E 0 90 61 60
        E 0 90 62 60
        E 0 90 55 60
        E 0 90 56 60
        E 0 90 49 60
        E 0 90 4a 60
        E 0 90 3d 60
        E 0 90 3e 60
        E 120 80 1a 00
        E 0 80 1f 00
        E 0 80 61 00
        E 0 80 62 00
        E 0 80 55 00
        E 0 80 56 00
        E 0 80 49 00
        E 0 80 4a 00
        E 0 80 3d 00
        E 0 80 3e 00
        E 120 90 1f 60
        E 0 90 62 60
        E 0 90 56 60
        E 0 99 18 60
        E 0 99 60 60
        E 0 99 54 60
        E 120 80 1f 00
        E 0 80 62 00
        E 0 80 56 00
        E 0 89 18 00
        E 0 89 60 00
        E 0 89 54 00
        E 120 90 1c 60
        E 0 90 1f 60
        E 0 90 61 60
        E 0 90 62 60
        E 0 90 55 60
        E 0 90 56 60
        E 0 90 49 60
        E 0 90 4a 60
        E 0 90 3d 60
        E 0 90 3e 60
        E 120 80 1c 00
        E 0 80 1f 00
        E 0 80 61 00
        E 0 80 62 00
        E 0 80 55 00
        E 0 80 56 00
        E 0 80 49 00
        E 0 80 4a 00
        E 0 80 3d 00
        E 0 80 3e 00
        E 0 99 18 60
        E 0 99 60 60
        E 120 90 1f 60
        E 0 90 62 60
        E 0 90 56 60
        E 0 89 18 00
        E 0 89 60 00
        E 120 80 1f 00
        E 0 80 62 00
        E 0 80 56 00
        E 0 90 1c 60
        E 0 90 61 60
        E 0 99 18 60
        E 0 99 60 60
        E 120 80 1c 00
        E 0 80 61 00
        E 0 90 1f 60
        E 0 90 62 60
        E 0 90 56 60
        E 0 90 4a 60
        E 0 90 3e 60
        E 0 89 18 00
        E 0 89 60 00
        E 0 99 18 60
        E 0 99 60 60
        E 0 99 54 60
        E 0 99 48 60
        E 120 80 1f 00
        E 0 80 62 00
        E 0 80 56 00
        E 0 80 4a 00
        E 0 80 3e 00
        E 0 90 1c 60
        E 0 90 61 60
        E 0 89 18 00
        E 0 89 60 00
        E 0 89 54 00
        E 0 89 48 00
        E 0 99 18 60
        E 0 99 60 60
        E 120 80 1c 00
        E 0 80 61 00
        E 0 90 1f 60
        E 0 90 62 60
        E 0 90 56 60
        E 0 89 18 00
        E 0 89 60 00
        E 0 99 18 60
        E 0 99 60 60
        E 0 99 54 60
        E 120 80 1f 00
        E 0 80 62 00
        E 0 80 56 00
        E 0 89 18 00
        E 0 89 60 00
        E 0 89 54 00
        E 0 99 18 60
        E 0 99 60 60
        E 120 90 1c 60
        E 0 90 1f 60
        E 0 90 61 60
        E 0 90 62 60
        E 0 90 55 60
        E 0 90 56 60
        E 0 90 49 60
        E 0 90 4a 60
        E 0 90 3d 60
        E 0 90 3e 60
        E 0 89 18 00
        E 0 89 60 00
        E 0 99 18 60
        E 0 99 60 60
        E 0 99 54 60
        E 120 80 1c 00
        E 0 80 1f 00
        E 0 80 61 00
        E 0 80 62 00
        E 0 80 55 00
        E 0 80 56 00
        E 0 80 49 00
        E 0 80 4a 00
        E 0 80 3d 00
        E 0 80 3e 00
        E 0 89 18 00
        E 0 89 60 00
        E 0 89 54 00
        E 120 90 1f 60
        E 0 90 62 60
        E 0 90 56 60
        E 120 80 1f 00
        E 0 80 62 00
        E 0 80 56 00
        E 120 90 1a 60
        E 0 90 1f 60
        E 0 90 61 60
        E 0 90 62 60
        E 0 90 55 60
        E 0 90 56 60
        E 0 90 49 60
        E 0 90 4a 60
        E 0 90 3d 60
        E 0 90 3e 60
        E 120 80 1a 00
        E 0 80 1f 00
        E 0 80 61 00
        E 0 80 62 00
        E 0 80 55 00
        E 0 80 56 00
        E 0 80 49 00
        E 0 80 4a 00
        E 0 80 3d 00
        E 0 80 3e 00
        E 120 90 1f 60
        E 0 90 62 60
        E 0 90 56 60
        E 0 99 18 60
        E 0 99 60 60
        E 0 99 54 60
        E 120 80 1f 00
        E 0 80 62 00
        E 0 80 56 00
        E 0 89 18 00
        E 0 89 60 00
        E 0 89 54 00
        E 120 90 1c 60
        E 0 90 1f 60
        E 0 90 61 60
        E 0 90 62 60
        E 0 90 55 60
        E 0 90 56 60
        E 0 90 49 60
        E 0 90 4a 60
        E 0 90 3d 60
        E 0 90 3e 60
        E 120 80 1c 00
        E 0 80 1f 00
        E 0 80 61 00
        E 0 80 62 00
        E 0 80 55 00
        E 0 80 56 00
        E 0 80 49 00
        E 0 80 4a 00
        E 0 80 3d 00
        E 0 80 3e 00
        E 0 99 18 60
        E 0 99 60 60
        E 120 90 1f 60
        E 0 90 62 60
        E 0 90 56 60
        E 0 89 18 00
        E 0 89 60 00
        E 120 80 1f 00
        E 0 80 62 00
        E 0 80 56 00
        E 0 90 1c 60
        E 0 90 61 60
        E 0 99 18 60
        E 0 99 60 60
        E 120 80 1c 00
        E 0 80 61 00
        E 0 90 1f 60
        E 0 90 62 60
        E 0 90 74 60
        E 0 90 56 60
        E 0 90 4a 60
        E 0 90 3e 60
        E 0 89 18 00
        E 0 89 60 00
        E 0 99 60 60
        E 0 99 18 60
        E 0 99 54 60
        E 0 99 48 60
        E 120 80 1f 00
        E 0 80 62 00
        E 0 80 56 00
        E 0 80 4a 00
        E 0 80 3e 00
        E 0 90 1c 60
        E 0 90 61 60
        E 0 89 60 00
        E 0 89 18 00
        E 0 89 54 00
        E 0 89 48 00
        E 0 99 18 60
        E 0 99 60 60
        E 120 80 1c 00
        E 0 80 61 00
        E 0 90 1f 60
        E 0 90 62 60
        E 0 90 56 60
        E 0 89 18 00
        E 0 89 60 00
        E 0 99 18 60
        E 0 99 60 60
        E 0 99 54 60
        E 120 80 1f 00
        E 0 80 62 00
        E 0 80 56 00
        E 0 89 18 00
        E 0 89 60 00
        E 0 89 54 00
        E 0 99 18 60
        E 0 99 60 60
        E 120 90 1c 60
        E 0 90 2f 60
        E 0 90 61 60
        E 0 90 62 60
        E 0 90 55 60
        E 0 90 56 60
        E 0 90 49 60
        E 0 90 4a 60
        E 0 90 6e 60
        E 0 90 3d 60
        E 0 90 3e 60
        E 0 89 18 00
        E 0 89 60 00
        E 0 99 18 60
        E 0 99 60 60
        E 0 99 54 60
        E 120 80 1c 00
        E 0 80 2f 00
        E 0 80 61 00
        E 0 80 62 00
        E 0 80 55 00
        E 0 80 56 00
        E 0 80 49 00
        E 0 80 4a 00
        E 0 80 6e 00
        E 0 80 3d 00
        E 0 80 3e 00
        E 0 89 18 00
        E 0 89 60 00
        E 0 89 54 00
        E 240 90 30 60
        E 0 90 63 60
        E 0 90 6f 60
        E 120 80 30 00
        E 0 80 63 00
        E 0 90 31 60
        E 0 90 63 60
        E 0 90 57 60
        E 0 90 4b 60
        E 0 90 3f 60
        E 0 99 18 60
        E 0 99 60 60
        E 0 99 54 60
        E 0 99 48 60
        E 120 80 31 00
        E 0 80 63 00
        E 0 80 57 00
        E 0 80 4b 00
        E 0 80 3f 00
        E 0 89 18 00
        E 0 89 60 00
        E 0 89 54 00
        E 0 89 48 00
        E 120 90 1a 60
        E 0 90 31 60
        E 0 90 61 60
        E 0 90 63 60
        E 0 90 55 60
        E 0 90 57 60
        E 120 80 6f 00
        E 0 80 1a 00
        E 0 80 31 00
        E 0 80 61 00
        E 0 80 63 00
        E 0 80 55 00
        E 0 80 57 00
        E 120 90 1c 60
        E 0 90 33 60
        E 0 90 61 60
        E 0 90 64 60
        E 0 90 55 60
        E 0 90 58 60
        E 0 90 49 60
        E 0 90 4c 60
        E 0 90 70 60
        E 0 90 3d 60
        E 0 90 40 60
        E 0 99 18 60
        E 0 99 60 60
        E 0 99 54 60
        E 120 80 1c 00
        E 0 80 33 00
        E 0 80 61 00
        E 0 80 64 00
        E 0 80 55 00
        E 0 80 58 00
        E 0 80 49 00
        E 0 80 4c 00
        E 0 80 3d 00
        E 0 80 40 00
        E 0 90 33 60
        E 0 90 64 60
        E 0 89 18 00
        E 0 89 60 00
        E 0 89 54 00
        E 120 80 70 00
        E 0 80 33 00
        E 0 80 64 00
        E 120 90 1c 60
        E 0 90 61 60
        E 0 99 18 60
        E 0 99 60 60
        E 120 80 74 00
        E 0 80 1c 00
        E 0 80 61 00
        E 0 90 26 60
        E 0 90 64 60
        E 0 90 58 60
        E 0 90 4c 60
        E 0 90 40 60
        E 0 89 18 00
        E 0 89 60 00
        E 0 99 18 60
        E 0 99 60 60
        E 0 99 54 60
        E 0 99 48 60
        E 120 80 26 00
        E 0 80 64 00
        E 0 80 58 00
        E 0 80 4c 00
        E 0 80 40 00
        E 0 90 1c 60
        E 0 90 61 60
        E 0 89 18 00
        E 0 89 60 00
        E 0 89 54 00
        E 0 89 48 00
        E 0 99 18 60
        E 0 99 60 60
        E 120 80 1c 00
        E 0 80 61 00
        E 0 90 1f 60
        E 0 90 62 60
        E 0 90 56 60
        E 0 89 18 00
        E 0 89 60 00
        E 0 99 18 60
        E 0 99 60 60
        E 0 99 54 60
        E 120 80 1f 00
        E 0 80 62 00
        E 0 80 56 00
        E 0 89 18 00
        E 0 89 60 00
        E 0 89 54 00
        E 0 99 18 60
        E 0 99 60 60
        E 120 90 1c 60
        E 0 90 1f 60
        E 0 90 61 60
        E 0 90 62 60
        E 0 90 55 60
        E 0 90 56 60
        E 0 90 49 60
        E 0 90 4a 60
        E 0 90 3d 60
        E 0 90 3e 60
        E 0 89 18 00
        E 0 89 60 00
        E 0 99 18 60
        E 0 99 60 60
        E 0 99 54 60
        E 120 80 1c 00
        E 0 80 1f 00
        E 0 80 61 00
        E 0 80 62 00
        E 0 80 55 00
        E 0 80 56 00
        E 0 80 49 00
        E 0 80 4a 00
        E 0 80 3d 00
        E 0 80 3e 00
        E 0 89 18 00
        E 0 89 60 00
        E 0 89 54 00
        E 120 90 1f 60
        E 0 90 62 60
        E 0 90 56 60
        E 120 80 1f 00
        E 0 80 62 00
        E 0 80 56 00
        E 120 90 1a 60
        E 0 90 1f 60
        E 0 90 61 60
        E 0 90 62 60
        E 0 90 55 60
        E 0 90 56 60
        E 0 90 49 60
        E 0 90 4a 60
        E 0 90 3d 60
        E 0 90 3e 60
        E 120 80 1a 00
        E 0 80 1f 00
        E 0 80 61 00
        E 0 80 62 00
        E 0 80 55 00
        E 0 80 56 00
        E 0 80 49 00
        E 0 80 4a 00
        E 0 80 3d 00
        E 0 80 3e 00
        E 120 90 1f 60
        E 0 90 62 60
        E 0 90 56 60
        E 0 99 18 60
        E 0 99 60 60
        E 0 99 54 60
        E 120 80 1f 00
        E 0 80 62 00
        E 0 80 56 00
        E 0 89 18 00
        E 0 89 60 00
        E 0 89 54 00
        E 120 90 1c 60
        E 0 90 1f 60
        E 0 90 61 60
        E 0 90 62 60
        E 0 90 55 60
        E 0 90 56 60
        E 0 90 49 60
        E 0 90 4a 60
        E 0 90 3d 60
        E 0 90 3e 60
        E 120 80 1c 00
        E 0 80 1f 00
        E 0 80 61 00
        E 0 80 62 00
        E 0 80 55 00
        E 0 80 56 00
        E 0 80 49 00
        E 0 80 4a 00
        E 0 80 3d 00
        E 0 80 3e 00
        E 0 99 18 60
        E 0 99 60 60
        E 120 90 1f 60
        E 0 90 62 60
        E 0 90 56 60
        E 0 89 18 00
        E 0 89 60 00
        E 120 80 1f 00
        E 0 80 62 00
        E 0 80 56 00
        E 0 90 1c 60
        E 0 90 61 60
        E 0 99 18 60
        E 0 99 60 60
        E 120 80 1c 00
        E 0 80 61 00
        E 0 90 1f 60
        E 0 90 62 60
        E 0 90 56 60
        E 0 90 4a 60
        E 0 90 3e 60
        E 0 89 18 00
        E 0 89 60 00
        E 0 99 18 60
        E 0 99 60 60
        E 0 99 54 60
        E 0 99 48 60
        E 120 80 1f 00
        E 0 80 62 00
        E 0 80 56 00
        E 0 80 4a 00
        E 0 80 3e 00
        E 0 90 1c 60
        E 0 90 61 60
        E 0 89 18 00
        E 0 89 60 00
        E 0 89 54 00
        E 0 89 48 00
        E 0 99 18 60
        E 0 99 60 60
        E 120 80 1c 00
        E 0 80 61 00
        E 0 90 1f 60
        E 0 90 62 60
        E 0 90 56 60
        E 0 89 18 00
        E 0 89 60 00
        E 0 99 18 60
        E 0 99 60 60
        E 0 99 54 60
        E 120 80 1f 00
        E 0 80 62 00
        E 0 80 56 00
        E 0 89 18 00
        E 0 89 60 00
        E 0 89 54 00
        E 0 99 18 60
        E 0 99 60 60
        E 120 90 1c 60
        E 0 90 1f 60
        E 0 90 61 60
        E 0 90 62 60
        E 0 90 55 60
        E 0 90 56 60
        E 0 90 49 60
        E 0 90 4a 60
        E 0 90 3d 60
        E 0 90 3e 60
        E 0 89 18 00
        E 0 89 60 00
        E 0 99 18 60
        E 0 99 60 60
        E 0 99 54 60
        E 120 80 1c 00
        E 0 80 1f 00
        E 0 80 61 00
        E 0 80 62 00
        E 0 80 55 00
        E 0 80 56 00
        E 0 80 49 00
        E 0 80 4a 00
        E 0 80 3d 00
        E 0 80 3e 00
        E 0 89 18 00
        E 0 89 60 00
        E 0 89 54 00
        E 120 90 1f 60
        E 0 90 62 60
        E 0 90 56 60
        E 120 80 1f 00
        E 0 80 62 00
        E 0 80 56 00
        E 120 90 1a 60
        E 0 90 1f 60
        E 0 90 61 60
        E 0 90 62 60
        E 0 90 55 60
        E 0 90 56 60
        E 0 90 49 60
        E 0 90 4a 60
        E 0 90 3d 60
        E 0 90 3e 60
        E 120 80 1a 00
        E 0 80 1f 00
        E 0 80 61 00
        E 0 80 62 00
        E 0 80 55 00
        E 0 80 56 00
        E 0 80 49 00
        E 0 80 4a 00
        E 0 80 3d 00
        E 0 80 3e 00
        E 120 90 1f 60
        E 0 90 62 60
        E 0 90 56 60
        E 0 99 18 60
        E 0 99 60 60
        E 0 99 54 60
        E 120 80 1f 00
        E 0 80 62 00
        E 0 80 56 00
        E 0 89 18 00
        E 0 89 60 00
        E 0 89 54 00
        E 120 90 1c 60
        E 0 90 1f 60
        E 0 90 61 60
        E 0 90 62 60
        E 0 90 55 60
        E 0 90 56 60
        E 0 90 49 60
        E 0 90 4a 60
        E 0 90 3d 60
        E 0 90 3e 60
        E 120 80 1c 00
        E 0 80 1f 00
        E 0 80 61 00
        E 0 80 62 00
        E 0 80 55 00
        E 0 80 56 00
        E 0 80 49 00
        E 0 80 4a 00
        E 0 80 3d 00
        E 0 80 3e 00
        E 0 99 18 60
        E 0 99 60 60
        E 120 90 1f 60
        E 0 90 62 60
        E 0 90 56 60
        E 0 89 18 00
        E 0 89 60 00
        E 120 80 1f 00
        E 0 80 62 00
        E 0 80 56 00
        E 0 90 1c 60
        E 0 90 61 60
        E 0 99 18 60
        E 0 99 60 60
        E 120 80 1c 00
        E 0 80 61 00
        E 0 90 1f 60
        E 0 90 62 60
        E 0 90 56 60
        E 0 90 4a 60
        E 0 90 3e 60
        E 0 89 18 00
        E 0 89 60 00
        E 0 99 18 60
        E 0 99 60 60
        E 0 99 54 60
        E 0 99 48 60
        E 120 80 1f 00
        E 0 80 62 00
        E 0 80 56 00
        E 0 80 4a 00
        E 0 80 3e 00
        E 0 90 1c 60
        E 0 90 61 60
        E 0 89 18 00
        E 0 89 60 00
        E 0 89 54 00
        E 0 89 48 00
        E 0 99 18 60
        E 0 99 60 60
        E 120 80 1c 00
        E 0 80 61 00
        E 0 90 1f 60
        E 0 90 62 60
        E 0 90 56 60
        E 0 89 18 00
        E 0 89 60 00
        E 0 99 18 60
        E 0 99 60 60
        E 0 99 54 60
        E 120 80 1f 00
        E 0 80 62 00
        E 0 80 56 00
        E 0 89 18 00
        E 0 89 60 00
        E 0 89 54 00
        E 0 99 18 60
        E 0 99 60 60
        E 120 90 1c 60
        E 0 90 1f 60
        E 0 90 61 60
        E 0 90 62 60
        E 0 90 55 60
        E 0 90 56 60
        E 0 90 49 60
        E 0 90 4a 60
        E 0 90 3d 60
        E 0 90 3e 60
        E 0 89 18 00
        E 0 89 60 00
        E 0 99 18 60
        E 0 99 60 60
        E 0 99 54 60
        E 120 80 1c 00
        E 0 80 1f 00
        E 0 80 61 00
        E 0 80 62 00
        E 0 80 55 00
        E 0 80 56 00
        E 0 80 49 00
        E 0 80 4a 00
        E 0 80 3d 00
        E 0 80 3e 00
        E 0 89 18 00
        E 0 89 60 00
        E 0 89 54 00
        E 120 90 1f 60
        E 0 90 62 60
        E 0 90 56 60
        E 120 80 1f 00
        E 0 80 62 00
        E 0 80 56 00
        E 120 90 1a 60
        E 0 90 1f 60
        E 0 90 61 60
        E 0 90 62 60
        E 0 90 55 60
        E 0 90 56 60
        E 0 90 49 60
        E 0 90 4a 60
        E 0 90 3d 60
        E 0 90 3e 60
        E 120 80 1a 00
        E 0 80 1f 00
        E 0 80 61 00
        E 0 80 62 00
        E 0 80 55 00
        E 0 80 56 00
        E 0 80 49 00
        E 0 80 4a 00
        E 0 80 3d 00
        E 0 80 3e 00
        E 120 90 1f 60
        E 0 90 62 60
        E 0 90 56 60
        E 0 99 18 60
        E 0 99 60 60
        E 0 99 54 60
        E 120 80 1f 00
        E 0 80 62 00
        E 0 80 56 00
        E 0 89 18 00
        E 0 89 60 00
        E 0 89 54 00
        E 120 90 1c 60
        E 0 90 1f 60
        E 0 90 61 60
        E 0 90 62 60
        E 0 90 55 60
        E 0 90 56 60
        E 0 90 49 60
        E 0 90 4a 60
        E 0 90 3d 60
        E 0 90 3e 60
        E 120 80 1c 00
        E 0 80 1f 00
        E 0 80 61 00
        E 0 80 62 00
        E 0 80 55 00
        E 0 80 56 00
        E 0 80 49 00
        E 0 80 4a 00
        E 0 80 3d 00
        E 0 80 3e 00
        E 0 99 18 60
        E 0 99 60 60
        E 120 90 1f 60
        E 0 90 62 60
        E 0 90 56 60
        E 0 89 18 00
        E 0 89 60 00
        E 120 80 1f 00
        E 0 80 62 00
        E 0 80 56 00
        E 0 90 1c 60
        E 0 90 61 60
        E 0 99 18 60
        E 0 99 60 60
        E 120 80 1c 00
        E 0 80 61 00
        E 0 90 2f 60
        E 0 90 62 60
        E 0 90 78 60
        E 0 90 79 60
        E 0 90 7a 60
        E 0 90 7b 60
        E 0 90 7c 60
        E 0 90 56 60
        E 0 90 4a 60
        E 0 90 6e 60
        E 0 90 3e 60
        E 0 89 18 00
        E 0 89 60 00
        E 0 99 18 60
        E 0 99 60 60
        E 0 99 54 60
        E 120 80 2f 00
        E 0 80 62 00
        E 0 80 56 00
        E 0 80 4a 00
        E 0 80 6e 00
        E 0 80 3e 00
        E 0 90 1c 60
        E 0 90 61 60
        E 0 89 18 00
        E 0 89 60 00
        E 0 89 54 00
        E 0 99 18 60
        E 0 99 60 60
        E 120 80 1c 00
        E 0 80 61 00
        E 0 89 18 00
        E 0 89 60 00
        E 0 99 18 60
        E 0 99 60 60
        E 0 99 54 60
        E 120 89 18 00
        E 0 89 60 00
        E 0 89 54 00
        E 0 99 18 60
        E 0 99 60 60
        E 120 90 1c 60
        E 0 90 31 60
        E 0 90 61 60
        E 0 90 63 60
        E 0 90 55 60
        E 0 90 57 60
        E 0 90 49 60
        E 0 90 4b 60
        E 0 90 6f 60
        E 0 90 3d 60
        E 0 90 3f 60
        E 0 89 18 00
        E 0 89 60 00
        E 0 99 18 60
        E 0 99 60 60
        E 0 99 54 60
        E 120 80 1c 00
        E 0 80 31 00
        E 0 80 61 00
        E 0 80 63 00
        E 0 80 55 00
        E 0 80 57 00
        E 0 80 49 00
        E 0 80 4b 00
        E 0 80 3d 00
        E 0 80 3f 00
        E 0 89 18 00
        E 0 89 60 00
        E 0 89 54 00
        E 240 90 30 60
        E 0 90 63 60
        E 120 80 30 00
        E 0 80 63 00
        E 0 90 33 60
        E 0 90 64 60
        E 0 90 58 60
        E 0 90 4c 60
        E 0 90 70 60
        E 0 90 40 60
        E 0 99 18 60
        E 0 99 60 60
        E 0 99 54 60
        E 120 80 33 00
        E 0 80 64 00
        E 0 80 58 00
        E 0 80 4c 00
        E 0 80 40 00
        E 0 89 18 00
        E 0 89 60 00
        E 0 89 54 00
        E 120 90 1a 60
        E 0 90 31 60
        E 0 90 61 60
        E 0 90 63 60
        E 0 90 55 60
        E 0 90 57 60
        E 120 80 6f 00
        E 0 80 1a 00
        E 0 80 31 00
        E 0 80 61 00
        E 0 80 63 00
        E 0 80 55 00
        E 0 80 57 00
        E 120 90 1c 60
        E 0 90 33 60
        E 0 90 61 60
        E 0 90 64 60
        E 0 90 55 60
        E 0 90 58 60
        E 0 90 49 60
        E 0 90 4c 60
        E 0 90 3d 60
        E 0 90 40 60
        E 0 99 18 60
        E 0 99 60 60
        E 0 99 54 60
        E 120 80 70 00
        E 0 80 1c 00
        E 0 80 33 00
        E 0 80 61 00
        E 0 80 64 00
        E 0 80 55 00
        E 0 80 58 00
        E 0 80 49 00
        E 0 80 4c 00
        E 0 80 3d 00
        E 0 80 40 00
        E 0 89 18 00
        E 0 89 60 00
        E 0 89 54 00
        E 120 90 1f 60
        E 0 90 62 60
        E 0 90 56 60
        E 120 80 1f 00
        E 0 80 62 00
        E 0 80 56 00
        E 0 90 1c 60
        E 0 90 61 60
        E 0 99 18 60
        E 0 99 60 60
        <X 120 0
          /wFbaW50ZW5zZV0=
        >
        E 0 80 78 00
        E 0 80 79 00
        E 0 80 7a 00
        E 0 80 7b 00
        E 0 80 7c 00
        E 0 80 1c 00
        E 0 80 61 00
        E 0 90 26 60
        E 0 90 64 60
        E 0 90 74 60
        E 0 90 58 60
        E 0 90 4c 60
        E 0 90 40 60
        E 0 89 18 00
        E 0 89 60 00
        E 0 99 18 60
        E 0 99 60 60
        E 0 99 54 60
        E 0 99 48 60
        E 120 80 26 00
        E 0 80 64 00
        E 0 80 58 00
        E 0 80 4c 00
        E 0 80 40 00
        E 0 90 1c 60
        E 0 90 61 60
        E 0 89 18 00
        E 0 89 60 00
        E 0 89 54 00
        E 0 89 48 00
        E 0 99 18 60
        E 0 99 60 60
        E 120 80 1c 00
        E 0 80 61 00
        E 0 90 1f 60
        E 0 90 62 60
        E 0 90 56 60
        E 0 89 18 00
        E 0 89 60 00
        E 120 80 1f 00
        E 0 80 62 00
        E 0 80 56 00
        E 120 90 1a 60
        E 0 90 1f 60
        E 0 90 61 60
        E 0 90 62 60
        E 0 90 55 60
        E 0 90 56 60
        E 0 90 49 60
        E 0 90 4a 60
        E 0 90 3d 60
        E 0 90 3e 60
        E 0 99 18 60
        E 0 99 60 60
        E 0 99 54 60
        E 120 80 1a 00
        E 0 80 1f 00
        E 0 80 61 00
        E 0 80 62 00
        E 0 80 55 00
        E 0 80 56 00
        E 0 80 49 00
        E 0 80 4a 00
        E 0 80 3d 00
        E 0 80 3e 00
        E 0 89 18 00
        E 0 89 60 00
        E 0 89 54 00
        E 120 90 1f 60
        E 0 90 62 60
        E 0 90 56 60
        E 120 80 1f 00
        E 0 80 62 00
        E 0 80 56 00
        E 120 90 1f 60
        E 0 90 62 60
        E 0 90 56 60
        E 0 90 4a 60
        E 0 90 3e 60
        E 120 80 1f 00
        E 0 80 62 00
        E 0 80 56 00
        E 0 80 4a 00
        E 0 80 3e 00
        E 120 90 1f 60
        E 0 90 62 60
        E 0 90 56 60
        E 0 99 18 60
        E 0 99 60 60
        E 0 99 54 60
        E 120 80 1f 00
        E 0 80 62 00
        E 0 80 56 00
        E 0 89 18 00
        E 0 89 60 00
        E 0 89 54 00
        E 120 90 1a 60
        E 0 90 1f 60
        E 0 90 61 60
        E 0 90 62 60
        E 0 90 55 60
        E 0 90 56 60
        E 0 90 49 60
        E 0 90 4a 60
        E 0 90 3d 60
        E 0 90 3e 60
        E 120 80 1a 00
        E 0 80 1f 00
        E 0 80 61 00
        E 0 80 62 00
        E 0 80 55 00
        E 0 80 56 00
        E 0 80 49 00
        E 0 80 4a 00
        E 0 80 3d 00
        E 0 80 3e 00
        E 120 90 1f 60
        E 0 90 62 60
        E 0 90 56 60
        E 120 80 1f 00
        E 0 80 62 00
        E 0 80 56 00
        E 0 90 1c 60
        E 0 90 61 60
        E 120 80 74 00
        E 0 80 1c 00
        E 0 80 61 00
        E 0 90 1f 60
        E 0 90 62 60
        E 0 90 56 60
        E 0 90 4a 60
        E 0 90 3e 60
        E 0 99 18 60
        E 0 99 60 60
        E 0 99 54 60
        E 0 99 48 60
        E 120 80 1f 00
        E 0 80 62 00
        E 0 80 56 00
        E 0 80 4a 00
        E 0 80 3e 00
        E 0 90 1c 60
        E 0 90 61 60
        E 0 89 18 00
        E 0 89 60 00
        E 0 89 54 00
        E 0 89 48 00
        E 0 99 18 60
        E 0 99 60 60
        E 120 80 1c 00
        E 0 80 61 00
        E 0 90 1f 60
        E 0 90 62 60
        E 0 90 56 60
        E 0 89 18 00
        E 0 89 60 00
        E 120 80 1f 00
        E 0 80 62 00
        E 0 80 56 00
        E 120 90 1a 60
        E 0 90 1f 60
        E 0 90 61 60
        E 0 90 62 60
        E 0 90 55 60
        E 0 90 56 60
        E 0 90 49 60
        E 0 90 4a 60
        E 0 90 3d 60
        E 0 90 3e 60
        E 0 99 18 60
        E 0 99 60 60
        E 0 99 54 60
        E 120 80 1a 00
        E 0 80 1f 00
        E 0 80 61 00
        E 0 80 62 00
        E 0 80 55 00
        E 0 80 56 00
        E 0 80 49 00
        E 0 80 4a 00
        E 0 80 3d 00
        E 0 80 3e 00
        E 0 89 18 00
        E 0 89 60 00
        E 0 89 54 00
        E 120 90 1f 60
        E 0 90 62 60
        E 0 90 56 60
        E 120 80 1f 00
        E 0 80 62 00
        E 0 80 56 00
        E 120 90 1f 60
        E 0 90 62 60
        E 0 90 56 60
        E 0 90 4a 60
        E 0 90 3e 60
        E 120 80 1f 00
        E 0 80 62 00
        E 0 80 56 00
        E 0 80 4a 00
        E 0 80 3e 00
        E 120 90 1f 60
        E 0 90 62 60
        E 0 90 56 60
        E 0 99 18 60
        E 0 99 60 60
        E 0 99 54 60
        E 120 80 1f 00
        E 0 80 62 00
        E 0 80 56 00
        E 0 89 18 00
        E 0 89 60 00
        E 0 89 54 00
        E 120 90 1a 60
        E 0 90 1c 60
        E 0 90 1f 60
        E 0 90 61 60
        E 0 90 62 60
        E 0 90 55 60
        E 0 90 56 60
        E 0 90 49 60
        E 0 90 4a 60
        E 0 90 3d 60
        E 0 90 3e 60
        E 120 80 1a 00
        E 0 80 1c 00
        E 0 80 1f 00
        E 0 80 61 00
        E 0 80 62 00
        E 0 80 55 00
        E 0 80 56 00
        E 0 80 49 00
        E 0 80 4a 00
        E 0 80 3d 00
        E 0 80 3e 00
        E 120 90 1f 60
        E 0 90 62 60
        E 0 90 56 60
        E 120 80 1f 00
        E 0 80 62 00
        E 0 80 56 00
        E 0 90 1c 60
        E 0 90 61 60
        E 120 80 1c 00
        E 0 80 61 00
        E 0 90 1f 60
        E 0 90 62 60
        E 0 90 56 60
        E 0 90 4a 60
        E 0 90 3e 60
        E 0 99 18 60
        E 0 99 60 60
        E 0 99 54 60
        E 0 99 48 60
        E 120 80 1f 00
        E 0 80 62 00
        E 0 80 56 00
        E 0 80 4a 00
        E 0 80 3e 00
        E 0 90 1c 60
        E 0 90 61 60
        E 0 89 18 00
        E 0 89 60 00
        E 0 89 54 00
        E 0 89 48 00
        E 0 99 18 60
        E 0 99 60 60
        E 120 80 1c 00
        E 0 80 61 00
        E 0 90 1f 60
        E 0 90 62 60
        E 0 90 56 60
        E 0 89 18 00
        E 0 89 60 00
        E 120 80 1f 00
        E 0 80 62 00
        E 0 80 56 00
        E 120 90 1a 60
        E 0 90 1f 60
        E 0 90 61 60
        E 0 90 62 60
        E 0 90 55 60
        E 0 90 56 60
        E 0 90 49 60
        E 0 90 4a 60
        E 0 90 3d 60
        E 0 90 3e 60
        E 0 99 18 60
        E 0 99 60 60
        E 0 99 54 60
        E 120 80 1a 00
        E 0 80 1f 00
        E 0 80 61 00
        E 0 80 62 00
        E 0 80 55 00
        E 0 80 56 00
        E 0 80 49 00
        E 0 80 4a 00
        E 0 80 3d 00
        E 0 80 3e 00
        E 0 89 18 00
        E 0 89 60 00
        E 0 89 54 00
        E 120 90 1f 60
        E 0 90 62 60
        E 0 90 56 60
        E 120 80 1f 00
        E 0 80 62 00
        E 0 80 56 00
        E 120 90 1f 60
        E 0 90 62 60
        E 0 90 56 60
        E 0 90 4a 60
        E 0 90 3e 60
        E 120 80 1f 00
        E 0 80 62 00
        E 0 80 56 00
        E 0 80 4a 00
        E 0 80 3e 00
        E 120 90 1f 60
        E 0 90 62 60
        E 0 90 56 60
        E 0 99 18 60
        E 0 99 60 60
        E 0 99 54 60
        E 120 80 1f 00
        E 0 80 62 00
        E 0 80 56 00
        E 0 89 18 00
        E 0 89 60 00
        E 0 89 54 00
        E 120 90 1a 60
        E 0 90 1f 60
        E 0 90 61 60
        E 0 90 62 60
        E 0 90 55 60
        E 0 90 56 60
        E 0 90 49 60
        E 0 90 4a 60
        E 0 90 3d 60
        E 0 90 3e 60
        E 120 80 1a 00
        E 0 80 1f 00
        E 0 80 61 00
        E 0 80 62 00
        E 0 80 55 00
        E 0 80 56 00
        E 0 80 49 00
        E 0 80 4a 00
        E 0 80 3d 00
        E 0 80 3e 00
        E 120 90 1f 60
        E 0 90 62 60
        E 0 90 56 60
        E 120 80 1f 00
        E 0 80 62 00
        E 0 80 56 00
        E 0 90 1c 60
        E 0 90 61 60
        E 120 80 1c 00
        E 0 80 61 00
        E 0 90 1f 60
        E 0 90 62 60
        E 0 90 78 60
        E 0 90 79 60
        E 0 90 7a 60
        E 0 90 7b 60
        E 0 90 7c 60
        E 0 90 56 60
        E 0 90 4a 60
        E 0 90 3e 60
        E 0 99 18 60
        E 0 99 60 60
        E 0 99 54 60
        E 0 99 48 60
        E 120 80 1f 00
        E 0 80 62 00
        E 0 80 56 00
        E 0 80 4a 00
        E 0 80 3e 00
        E 0 90 1c 60
        E 0 90 61 60
        E 0 89 18 00
        E 0 89 60 00
        E 0 89 54 00
        E 0 89 48 00
        E 0 99 18 60
        E 0 99 60 60
        E 120 80 1c 00
        E 0 80 61 00
        E 0 90 1f 60
        E 0 90 62 60
        E 0 90 56 60
        E 0 89 18 00
        E 0 89 60 00
        E 120 80 1f 00
        E 0 80 62 00
        E 0 80 56 00
        E 120 90 1a 60
        E 0 90 1f 60
        E 0 90 61 60
        E 0 90 62 60
        E 0 90 55 60
        E 0 90 56 60
        E 0 90 49 60
        E 0 90 4a 60
        E 0 90 3d 60
        E 0 90 3e 60
        E 0 99 18 60
        E 0 99 60 60
        E 0 99 54 60
        E 120 80 1a 00
        E 0 80 1f 00
        E 0 80 61 00
        E 0 80 62 00
        E 0 80 55 00
        E 0 80 56 00
        E 0 80 49 00
        E 0 80 4a 00
        E 0 80 3d 00
        E 0 80 3e 00
        E 0 89 18 00
        E 0 89 60 00
        E 0 89 54 00
        E 120 90 1f 60
        E 0 90 62 60
        E 0 90 56 60
        E 120 80 1f 00
        E 0 80 62 00
        E 0 80 56 00
        E 0 90 1a 60
        E 0 90 61 60
        E 120 80 1a 00
        E 0 80 61 00
        E 0 90 1f 60
        E 0 90 62 60
        E 0 90 56 60
        E 0 90 4a 60
        E 0 90 3e 60
        E 120 80 1f 00
        E 0 80 62 00
        E 0 80 56 00
        E 0 80 4a 00
        E 0 80 3e 00
        E 120 90 1a 60
        E 0 90 1f 60
        E 0 90 61 60
        E 0 90 62 60
        E 0 90 55 60
        E 0 90 56 60
        E 0 99 18 60
        E 0 99 60 60
        E 0 99 54 60
        E 120 80 1a 00
        E 0 80 1f 00
        E 0 80 61 00
        E 0 80 62 00
        E 0 80 55 00
        E 0 80 56 00
        E 0 89 18 00
        E 0 89 60 00
        E 0 89 54 00
        E 120 90 1c 60
        E 0 90 1f 60
        E 0 90 61 60
        E 0 90 62 60
        E 0 90 55 60
        E 0 90 56 60
        E 0 90 49 60
        E 0 90 4a 60
        E 0 90 3d 60
        E 0 90 3e 60
        E 120 80 1c 00
        E 0 80 1f 00
        E 0 80 61 00
        E 0 80 62 00
        E 0 80 55 00
        E 0 80 56 00
        E 0 80 49 00
        E 0 80 4a 00
        E 0 80 3d 00
        E 0 80 3e 00
        E 120 90 1f 60
        E 0 90 62 60
        E 0 90 56 60
        E 120 80 1f 00
        E 0 80 62 00
        E 0 80 56 00
        E 0 90 1c 60
        E 0 90 61 60
        E 120 80 78 00
        E 0 80 79 00
        E 0 80 7a 00
        E 0 80 7b 00
        E 0 80 7c 00
        E 0 80 1c 00
        E 0 80 61 00
        E 0 90 1f 60
        E 0 90 62 60
        E 0 90 56 60
        E 0 90 4a 60
        E 0 90 3e 60
        E 0 99 18 60
        E 0 99 60 60
        E 0 99 54 60
        E 0 99 48 60
        E 120 80 1f 00
        E 0 80 62 00
        E 0 80 56 00
        E 0 80 4a 00
        E 0 80 3e 00
        E 0 90 1c 60
        E 0 90 61 60
        E 0 89 18 00
        E 0 89 60 00
        E 0 89 54 00
        E 0 89 48 00
        E 0 99 18 60
        E 0 99 60 60
        E 120 80 1c 00
        E 0 80 61 00
        E 0 90 1f 60
        E 0 90 62 60
        E 0 90 56 60
        E 0 89 18 00
        E 0 89 60 00
        E 0 99 18 60
        E 0 99 60 60
        E 0 99 54 60
        E 120 80 1f 00
        E 0 80 62 00
        E 0 80 56 00
        E 0 89 18 00
        E 0 89 60 00
        E 0 89 54 00
        E 120 90 1a 60
        E 0 90 1f 60
        E 0 90 61 60
        E 0 90 62 60
        E 0 90 55 60
        E 0 90 56 60
        E 0 90 49 60
        E 0 90 4a 60
        E 0 90 3d 60
        E 0 90 3e 60
        E 0 99 18 60
        E 0 99 60 60
        E 0 99 54 60
        E 120 80 1a 00
        E 0 80 1f 00
        E 0 80 61 00
        E 0 80 62 00
        E 0 80 55 00
        E 0 80 56 00
        E 0 80 49 00
        E 0 80 4a 00
        E 0 80 3d 00
        E 0 80 3e 00
        E 0 89 18 00
        E 0 89 60 00
        E 0 89 54 00
        E 120 90 1f 60
        E 0 90 62 60
        E 0 90 56 60
        E 120 80 1f 00
        E 0 80 62 00
        E 0 80 56 00
        E 120 90 1f 60
        E 0 90 62 60
        E 0 90 56 60
        E 0 90 4a 60
        E 0 90 3e 60
        E 120 80 1f 00
        E 0 80 62 00
        E 0 80 56 00
        E 0 80 4a 00
        E 0 80 3e 00
        E 120 90 1f 60
        E 0 90 62 60
        E 0 90 56 60
        E 0 99 18 60
        E 0 99 60 60
        E 0 99 54 60
        E 120 80 1f 00
        E 0 80 62 00
        E 0 80 56 00
        E 0 89 18 00
        E 0 89 60 00
        E 0 89 54 00
        E 120 90 1a 60
        E 0 90 1f 60
        E 0 90 61 60
        E 0 90 62 60
        E 0 90 55 60
        E 0 90 56 60
        E 0 90 49 60
        E 0 90 4a 60
        E 0 90 3d 60
        E 0 90 3e 60
        E 120 80 1a 00
        E 0 80 1f 00
        E 0 80 61 00
        E 0 80 62 00
        E 0 80 55 00
        E 0 80 56 00
        E 0 80 49 00
        E 0 80 4a 00
        E 0 80 3d 00
        E 0 80 3e 00
        E 120 90 1f 60
        E 0 90 62 60
        E 0 90 56 60
        E 120 80 1f 00
        E 0 80 62 00
        E 0 80 56 00
        E 0 90 1c 60
        E 0 90 61 60
        E 120 80 1c 00
        E 0 80 61 00
        E 0 90 1f 60
        E 0 90 62 60
        E 0 90 56 60
        E 0 90 4a 60
        E 0 90 3e 60
        E 0 99 18 60
        E 0 99 60 60
        E 0 99 54 60
        E 0 99 48 60
        E 120 80 1f 00
        E 0 80 62 00
        E 0 80 56 00
        E 0 80 4a 00
        E 0 80 3e 00
        E 0 90 1c 60
        E 0 90 61 60
        E 0 89 18 00
        E 0 89 60 00
        E 0 89 54 00
        E 0 89 48 00
        E 0 99 18 60
        E 0 99 60 60
        E 120 80 1c 00
        E 0 80 61 00
        E 0 90 1f 60
        E 0 90 62 60
        E 0 90 56 60
        E 0 89 18 00
        E 0 89 60 00
        E 0 99 18 60
        E 0 99 60 60
        E 0 99 54 60
        E 120 80 1f 00
        E 0 80 62 00
        E 0 80 56 00
        E 0 89 18 00
        E 0 89 60 00
        E 0 89 54 00
        E 0 99 18 60
        E 0 99 60 60
        E 120 90 1a 60
        E 0 90 1f 60
        E 0 90 61 60
        E 0 90 62 60
        E 0 90 55 60
        E 0 90 56 60
        E 0 90 49 60
        E 0 90 4a 60
        E 0 90 3d 60
        E 0 90 3e 60
        E 0 89 18 00
        E 0 89 60 00
        E 0 99 18 60
        E 0 99 60 60
        E 0 99 54 60
        E 120 80 1a 00
        E 0 80 1f 00
        E 0 80 61 00
        E 0 80 62 00
        E 0 80 55 00
        E 0 80 56 00
        E 0 80 49 00
        E 0 80 4a 00
        E 0 80 3d 00
        E 0 80 3e 00
        E 0 89 18 00
        E 0 89 60 00
        E 0 89 54 00
        E 120 90 1f 60
        E 0 90 62 60
        E 0 90 56 60
        E 120 80 1f 00
        E 0 80 62 00
        E 0 80 56 00
        E 0 90 1a 60
        E 0 90 61 60
        E 120 80 1a 00
        E 0 80 61 00
        E 0 90 1f 60
        E 0 90 62 60
        E 0 90 56 60
        E 0 90 4a 60
        E 0 90 3e 60
        E 120 80 1f 00
        E 0 80 62 00
        E 0 80 56 00
        E 0 80 4a 00
        E 0 80 3e 00
        E 120 90 1a 60
        E 0 90 1f 60
        E 0 90 61 60
        E 0 90 62 60
        E 0 90 55 60
        E 0 90 56 60
        E 0 99 18 60
        E 0 99 60 60
        E 0 99 54 60
        E 120 80 1a 00
        E 0 80 1f 00
        E 0 80 61 00
        E 0 80 62 00
        E 0 80 55 00
        E 0 80 56 00
        E 0 89 18 00
        E 0 89 60 00
        E 0 89 54 00
        E 120 90 1c 60
        E 0 90 1f 60
        E 0 90 61 60
        E 0 90 62 60
        E 0 90 55 60
        E 0 90 56 60
        E 0 90 49 60
        E 0 90 4a 60
        E 0 90 3d 60
        E 0 90 3e 60
        E 120 80 1c 00
        E 0 80 1f 00
        E 0 80 61 00
        E 0 80 62 00
        E 0 80 55 00
        E 0 80 56 00
        E 0 80 49 00
        E 0 80 4a 00
        E 0 80 3d 00
        E 0 80 3e 00
        E 120 90 1f 60
        E 0 90 62 60
        E 0 90 56 60
        E 120 80 1f 00
        E 0 80 62 00
        E 0 80 56 00
        E 0 90 1c 60
        E 0 90 61 60
        E 120 80 1c 00
        E 0 80 61 00
        E 0 90 1f 60
        E 0 90 62 60
        E 0 90 56 60
        E 0 90 4a 60
        E 0 90 3e 60
        E 0 99 18 60
        E 0 99 60 60
        E 0 99 54 60
        E 0 99 48 60
        E 120 80 1f 00
        E 0 80 62 00
        E 0 80 56 00
        E 0 80 4a 00
        E 0 80 3e 00
        E 0 90 1c 60
        E 0 90 61 60
        E 0 89 18 00
        E 0 89 60 00
        E 0 89 54 00
        E 0 89 48 00
        E 0 99 18 60
        E 0 99 60 60
        E 120 80 1c 00
        E 0 80 61 00
        E 0 90 1f 60
        E 0 90 62 60
        E 0 90 56 60
        E 0 89 18 00
        E 0 89 60 00
        E 120 80 1f 00
        E 0 80 62 00
        E 0 80 56 00
        E 120 90 1a 60
        E 0 90 1f 60
        E 0 90 61 60
        E 0 90 62 60
        E 0 90 55 60
        E 0 90 56 60
        E 0 90 49 60
        E 0 90 4a 60
        E 0 90 3d 60
        E 0 90 3e 60
        E 0 99 18 60
        E 0 99 60 60
        E 0 99 54 60
        E 120 80 1a 00
        E 0 80 1f 00
        E 0 80 61 00
        E 0 80 62 00
        E 0 80 55 00
        E 0 80 56 00
        E 0 80 49 00
        E 0 80 4a 00
        E 0 80 3d 00
        E 0 80 3e 00
        E 0 89 18 00
        E 0 89 60 00
        E 0 89 54 00
        E 120 90 1f 60
        E 0 90 62 60
        E 0 90 56 60
        E 120 80 1f 00
        E 0 80 62 00
        E 0 80 56 00
        E 120 90 1f 60
        E 0 90 62 60
        E 0 90 56 60
        E 0 90 4a 60
        E 0 90 3e 60
        E 120 80 1f 00
        E 0 80 62 00
        E 0 80 56 00
        E 0 80 4a 00
        E 0 80 3e 00
        E 120 90 1f 60
        E 0 90 62 60
        E 0 90 56 60
        E 0 99 18 60
        E 0 99 60 60
        E 0 99 54 60
        E 120 80 1f 00
        E 0 80 62 00
        E 0 80 56 00
        E 0 89 18 00
        E 0 89 60 00
        E 0 89 54 00
        E 120 90 1a 60
        E 0 90 1f 60
        E 0 90 61 60
        E 0 90 62 60
        E 0 90 55 60
        E 0 90 56 60
        E 0 90 49 60
        E 0 90 4a 60
        E 0 90 3d 60
        E 0 90 3e 60
        E 120 80 1a 00
        E 0 80 1f 00
        E 0 80 61 00
        E 0 80 62 00
        E 0 80 55 00
        E 0 80 56 00
        E 0 80 49 00
        E 0 80 4a 00
        E 0 80 3d 00
        E 0 80 3e 00
        E 120 90 1f 60
        E 0 90 62 60
        E 0 90 56 60
        E 120 80 1f 00
        E 0 80 62 00
        E 0 80 56 00
        E 0 90 1c 60
        E 0 90 61 60
        E 120 80 1c 00
        E 0 80 61 00
        E 0 90 1f 60
        E 0 90 62 60
        E 0 90 56 60
        E 0 90 4a 60
        E 0 90 3e 60
        E 0 99 18 60
        E 0 99 60 60
        E 0 99 54 60
        E 0 99 48 60
        E 120 80 1f 00
        E 0 80 62 00
        E 0 80 56 00
        E 0 80 4a 00
        E 0 80 3e 00
        E 0 90 1c 60
        E 0 90 61 60
        E 0 89 18 00
        E 0 89 60 00
        E 0 89 54 00
        E 0 89 48 00
        E 0 99 18 60
        E 0 99 60 60
        E 120 80 1c 00
        E 0 80 61 00
        E 0 90 2f 60
        E 0 90 63 60
        E 0 90 57 60
        E 0 90 6f 60
        E 0 89 18 00
        E 0 89 60 00
        E 0 99 18 60
        E 0 99 60 60
        E 0 99 54 60
        E 120 80 2f 00
        E 0 80 63 00
        E 0 80 57 00
        E 0 89 18 00
        E 0 89 60 00
        E 0 89 54 00
        E 0 99 18 60
        E 0 99 60 60
        E 120 90 2f 60
        E 0 90 63 60
        E 0 90 57 60
        E 0 90 4b 60
        E 0 90 3f 60
        E 0 89 18 00
        E 0 89 60 00
        E 0 99 18 60
        E 0 99 60 60
        E 0 99 54 60
        E 0 99 48 60
        E 120 80 6f 00
        E 0 80 2f 00
        E 0 80 63 00
        E 0 80 57 00
        E 0 80 4b 00
        E 0 80 3f 00
        E 0 89 18 00
        E 0 89 60 00
        E 0 89 54 00
        E 0 89 48 00
        E 120 90 1f 60
        E 0 90 62 60
        E 0 90 56 60
        E 120 80 1f 00
        E 0 80 62 00
        E 0 80 56 00
        E 0 90 31 60
        E 0 90 64 60
        E 0 90 70 60
        E 120 80 31 00
        E 0 80 64 00
        E 0 80 70 00
        E 0 90 1f 60
        E 0 90 62 60
        E 0 90 56 60
        E 0 90 4a 60
        E 0 90 3e 60
        E 120 80 1f 00
        E 0 80 62 00
        E 0 80 56 00
        E 0 80 4a 00
        E 0 80 3e 00
        E 120 90 1f 60
        E 0 90 62 60
        E 0 90 56 60
        E 0 99 18 60
        E 0 99 60 60
        E 0 99 54 60
        E 120 80 1f 00
        E 0 80 62 00
        E 0 80 56 00
        E 0 89 18 00
        E 0 89 60 00
        E 0 89 54 00
        E 120 90 1c 60
        E 0 90 26 60
        E 0 90 61 60
        E 0 90 63 60
        E 0 90 55 60
        E 0 90 57 60
        E 0 90 49 60
        E 0 90 4b 60
        E 0 90 3d 60
        E 0 90 3f 60
        E 120 80 1c 00
        E 0 80 26 00
        E 0 80 61 00
        E 0 80 63 00
        E 0 80 55 00
        E 0 80 57 00
        E 0 80 49 00
        E 0 80 4b 00
        E 0 80 3d 00
        E 0 80 3f 00
        E 0 99 18 60
        E 0 99 60 60
        E 120 90 1f 60
        E 0 90 62 60
        E 0 90 56 60
        E 0 89 18 00
        E 0 89 60 00
        E 120 80 1f 00
        E 0 80 62 00
        E 0 80 56 00
        E 0 90 1c 60
        E 0 90 61 60
        E 120 80 1c 00
        E 0 80 61 00
        E 0 90 24 60
        E 0 90 64 60
        E 0 90 58 60
        E 0 90 4c 60
        E 0 90 40 60
        E 0 99 18 60
        E 0 99 60 60
        E 0 99 54 60
        E 0 99 48 60
        E 120 80 24 00
        E 0 80 64 00
        E 0 80 58 00
        E 0 80 4c 00
        E 0 80 40 00
        E 0 89 18 00
        E 0 89 60 00
        E 0 89 54 00
        E 0 89 48 00
        <X 1799 0
          /wFbaWRsZV9yZWFsdGltZV0=
        >
        E 1 b0 7b 00
        GUID {F9F39934-8798-4B9F-B69F-9617D81EA5FE}
        IGNTEMPO 0 120.00000000 4 4
        SRCCOLOR 22
        VELLANE 132 128 60
        COLORMAP "C:\Program Files\REAPER (x64)\Data\color_maps\rockband_guitarbass.png"
      >
    >
  >
  <TRACK '{A1CA40A1-FF36-48CE-B348-A0254221DA12}'
    NAME "kick2x"
    PEAKCOL 16576
    BEAT -1
    AUTOMODE 0
    VOLPAN 1.00000000000000 0.00000000000000 -1.00000000000000 -1.00000000000000 1.00000000000000
    MUTESOLO 0 0 0
    IPHASE 0
    ISBUS 0 0
    BUSCOMP 0 0
    SHOWINMIX 1 0.666700 0.500000 1 0.500000 -1 -1 -1
    FREEMODE 0
    SEL 0
    REC 0 0 0 0 0 0 0
    VU 2
    TRACKHEIGHT 0 0
    INQ 0 0 0 0.5000000000 100 0 0 100
    NCHAN 2
    FX 1
    TRACKID {A1CA40A1-FF36-48CE-B348-A0254221DA12}
    PERF 0
    MIDIOUT -1
    MAINSEND 1 0
    <ITEM
      POSITION 0.00000000000000
      SNAPOFFS 0.00000000000000
      LENGTH 63.47097505668934
      LOOP 0
      ALLTAKES 0
      SEL 0
      FADEIN 1 0.000000 0.000000 1 0
      FADEOUT 1 0.000000 0.000000 1 0
      MUTE 0
      IGUID {FC2D0A21-4746-44AF-8DFD-FD13F5EE9542}
      IID 16
      NAME "kick2x.wav"
      VOLPAN 1.000000 0.000000 1.000000 -1.000000
      SOFFS 0.00000000000000
      PLAYRATE 1.00000000000000 1 0.00000000000000 -1
      CHANMODE 0
      GUID {A1C8EB52-5E61-430E-B466-F377371B26AA}
      <SOURCE WAVE
        FILE "wav\kick2x.wav"
      >
    >
  >
  <TRACK '{2C7416BF-B462-49A2-9BD1-F4B106BCB748}'
    NAME "snare"
    PEAKCOL 16576
    BEAT -1
    AUTOMODE 0
    VOLPAN 1.00000000000000 0.00000000000000 -1.00000000000000 -1.00000000000000 1.00000000000000
    MUTESOLO 0 0 0
    IPHASE 0
    ISBUS 0 0
    BUSCOMP 0 0
    SHOWINMIX 1 0.666700 0.500000 1 0.500000 -1 -1 -1
    FREEMODE 0
    SEL 0
    REC 0 0 0 0 0 0 0
    VU 2
    TRACKHEIGHT 0 0
    INQ 0 0 0 0.5000000000 100 0 0 100
    NCHAN 2
    FX 1
    TRACKID {2C7416BF-B462-49A2-9BD1-F4B106BCB748}
    PERF 0
    MIDIOUT -1
    MAINSEND 1 0
    <ITEM
      POSITION 0.00000000000000
      SNAPOFFS 0.00000000000000
      LENGTH 63.47100000000000
      LOOP 0
      ALLTAKES 0
      SEL 0
      FADEIN 1 0.000000 0.000000 1 0
      FADEOUT 1 0.000000 0.000000 1 0
      MUTE 0
      IGUID {4AAD55D2-D793-4E13-ACD8-EA9451C2DE9A}
      IID 21
      NAME "snare.wav"
      VOLPAN 1.000000 0.000000 1.000000 -1.000000
      SOFFS 0.00000000000000
      PLAYRATE 1.00000000000000 1 0.00000000000000 -1
      CHANMODE 0
      GUID {B0403E4B-2588-41C6-AD5C-6394454CE46A}
      <SOURCE WAVE
        FILE "wav\snare.wav"
      >
    >
  >
  <TRACK '{DDED0B37-A6EF-4125-8D77-345D2190B5CA}'
    NAME "kit"
    PEAKCOL 16576
    BEAT -1
    AUTOMODE 0
    VOLPAN 1.00000000000000 0.00000000000000 -1.00000000000000 -1.00000000000000 1.00000000000000
    MUTESOLO 0 0 0
    IPHASE 0
    ISBUS 2 -1
    BUSCOMP 0 0
    SHOWINMIX 1 0.666700 0.500000 1 0.500000 -1 -1 -1
    FREEMODE 0
    SEL 0
    REC 0 0 0 0 0 0 0
    VU 2
    TRACKHEIGHT 0 0
    INQ 0 0 0 0.5000000000 100 0 0 100
    NCHAN 2
    FX 1
    TRACKID {DDED0B37-A6EF-4125-8D77-345D2190B5CA}
    PERF 0
    MIDIOUT -1
    MAINSEND 1 0
    <ITEM
      POSITION 0.00000000000000
      SNAPOFFS 0.00000000000000
      LENGTH 63.47100000000000
      LOOP 0
      ALLTAKES 0
      SEL 0
      FADEIN 1 0.000000 0.000000 1 0
      FADEOUT 1 0.000000 0.000000 1 0
      MUTE 0
      IGUID {9BB36C85-6048-4C40-ACF3-FD26DDE05A7B}
      IID 20
      NAME "kit.wav"
      VOLPAN 1.000000 0.000000 1.000000 -1.000000
      SOFFS 0.00000000000000
      PLAYRATE 1.00000000000000 1 0.00000000000000 -1
      CHANMODE 0
      GUID {C702C5FF-2748-43EF-9A6B-539FEC67D89C}
      <SOURCE WAVE
        FILE "wav\kit.wav"
      >
    >
  >
  <TRACK '{B22F1DFB-C7DE-49C8-8242-65A7FAD1A5E0}'
    NAME "PART BASS"
    PEAKCOL 16576
    BEAT -1
    AUTOMODE 0
    VOLPAN 1.00000000000000 0.00000000000000 -1.00000000000000 -1.00000000000000 1.00000000000000
    MUTESOLO 0 0 0
    IPHASE 0
    ISBUS 1 1
    BUSCOMP 0 0
    SHOWINMIX 1 0.666700 0.500000 1 0.500000 -1 -1 -1
    FREEMODE 0
    SEL 0
    REC 0 0 0 0 0 0 0
    VU 2
    TRACKHEIGHT 0 0
    INQ 0 0 0 0.5000000000 100 0 0 100
    NCHAN 2
    FX 1
    TRACKID {B22F1DFB-C7DE-49C8-8242-65A7FAD1A5E0}
    PERF 0
    MIDIOUT -1
    <MIDINOTENAMES
      0 127 "TRILL MARKER"
      0 126 "TREMOLO MARKER"
      0 125 "---"
      0 124 "BRE"
      0 123 "BRE"
      0 122 "BRE"
      0 121 "BRE"
      0 120 "BRE (use all 5)"
      0 119 "----"
      0 116 "OVERDRIVE"
      0 115 "----"
      0 103 "Solo Marker"
      0 102 "Force HOPO Off"
      0 101 "Force HOPO On"
      0 100 "EXPERT Orange"
      0 99 "EXPERT Blue"
      0 98 "EXPERT Yellow"
      0 97 "EXPERT Red"
      0 96 "EXPERT Green"
      0 95 "----"
      0 90 "Force HOPO Off"
      0 89 "Force HOPO On"
      0 88 "HARD Orange"
      0 87 "HARD Blue"
      0 86 "HARD Yellow"
      0 85 "HARD Red"
      0 84 "HARD Green"
      0 77 "----"
      0 76 "MEDIUM Orange"
      0 75 "MEDIUM Blue"
      0 74 "MEDIUM Yellow"
      0 73 "MEDIUM Red"
      0 72 "MEDIUM Green"
      0 65 "----"
      0 64 "EASY Orange"
      0 63 "EASY Blue"
      0 62 "EASY Yellow"
      0 61 "EASY Red"
      0 60 "EASY Green"
      0 59 "Fret 12"
      0 57 "Fret 11"
      0 56 "Fret 10"
      0 55 "Fret 9"
      0 53 "Fret 8"
      0 52 "Fret 7"
      0 50 "Fret 6"
      0 49 "Fret 5"
      0 47 "Fret 4"
      0 45 "Fret 3"
      0 43 "Fret 2"
      0 40 "Fret 1"
    >
    MAINSEND 1 0
    <FXCHAIN
      WNDRECT 0 43 891 559
      SHOW 0
      LASTSEL 0
      DOCKED 0
      BYPASS 0 0
      <VST "VSTi: RBN Preview (RBN)" "rbprev_vst64.dll" 0 ""
        dnBicu5e7f4AAAAAAgAAAAEAAAAAAAAAAgAAAAAAAAAEAAAAAQAAAA==
        AAAQAAMAqgAAABAAAAA=
      >
      FLOATPOS 0 0 0 0
      FXID {1B4B0CCA-7757-41D9-8A65-76DFE4A678FB}
      WAK 0
    >
    <ITEM
      POSITION 0.00000000000000
      SNAPOFFS 0.00000000000000
      LENGTH 63.47100000000000
      LOOP 0
      ALLTAKES 0
      SEL 0
      FADEIN 1 0.000000 0.000000 1 0
      FADEOUT 1 0.000000 0.000000 1 0
      MUTE 0
      IGUID {6F2F0F6F-9088-4F53-92CB-DEFF0D8D3C33}
      IID 2
      NAME "PART BASS"
      VOLPAN 1.000000 0.000000 1.000000 -1.000000
      SOFFS 0.00000000000000 0.00000000000000
      PLAYRATE 1.00000000000000 1 0.00000000000000 -1
      CHANMODE 0
      GUID {3080844E-17F6-49FB-9FBA-70FA5F9A4D81}
      <SOURCE MIDI
        HASDATA 1 480 QN
        POOLEDEVTS {DAF2FEEA-DFA1-4954-9EFD-A9D8A0BD5B15}
        <X 0 0
          /wNQQVJUIEJBU1M=
        >
        <X 3360 0
          /wFbbWFwIFN0cnVtTWFwX1BpY2td
        >
        <X 0 0
          /wFbcGxheV0=
        >
        E 480 90 28 60
        E 0 90 3d 60
        E 0 90 4a 60
        E 0 90 56 60
        E 0 90 62 60
        E 120 80 3d 00
        E 0 80 4a 00
        E 0 80 56 00
        E 0 80 62 00
        E 0 90 62 60
        E 120 80 62 00
        E 0 90 4a 60
        E 0 90 56 60
        E 0 90 62 60
        E 120 80 4a 00
        E 0 80 56 00
        E 0 80 62 00
        E 0 90 62 60
        E 120 80 62 00
        E 0 90 3d 60
        E 0 90 4a 60
        E 0 90 56 60
        E 0 90 62 60
        E 120 80 3d 00
        E 0 80 4a 00
        E 0 80 56 00
        E 0 80 62 00
        E 600 90 4a 60
        E 0 90 56 60
        E 0 90 62 60
        E 120 80 4a 00
        E 0 80 56 00
        E 0 80 62 00
        E 240 90 62 60
        E 120 80 62 00
        E 0 90 4a 60
        E 0 90 56 60
        E 0 90 62 60
        E 120 80 4a 00
        E 0 80 56 00
        E 0 80 62 00
        E 0 90 62 60
        E 120 80 62 00
        E 0 90 3d 60
        E 0 90 4a 60
        E 0 90 56 60
        E 0 90 62 60
        E 120 80 3d 00
        E 0 80 4a 00
        E 0 80 56 00
        E 0 80 62 00
        E 0 90 62 60
        E 120 80 62 00
        E 0 90 4a 60
        E 0 90 56 60
        E 0 90 62 60
        E 120 80 4a 00
        E 0 80 56 00
        E 0 80 62 00
        E 0 90 62 60
        E 120 80 62 00
        E 0 90 3d 60
        E 0 90 4a 60
        E 0 90 56 60
        E 0 90 62 60
        E 120 80 3d 00
        E 0 80 4a 00
        E 0 80 56 00
        E 0 80 62 00
        E 600 90 4a 60
        E 0 90 56 60
        E 0 90 62 60
        E 120 80 4a 00
        E 0 80 56 00
        E 0 80 62 00
        E 240 90 62 60
        E 120 80 62 00
        E 0 90 4a 60
        E 0 90 56 60
        E 0 90 62 60
        E 120 80 4a 00
        E 0 80 56 00
        E 0 80 62 00
        E 0 90 62 60
        E 120 80 62 00
        E 0 90 3d 60
        E 0 90 4a 60
        E 0 90 56 60
        E 0 90 62 60
        E 120 80 3d 00
        E 0 80 4a 00
        E 0 80 56 00
        E 0 80 62 00
        E 0 90 62 60
        E 120 80 62 00
        E 0 90 4a 60
        E 0 90 56 60
        E 0 90 62 60
        E 120 80 4a 00
        E 0 80 56 00
        E 0 80 62 00
        E 0 90 62 60
        E 120 80 62 00
        E 0 90 3d 60
        E 0 90 4a 60
        E 0 90 56 60
        E 0 90 62 60
        E 120 80 3d 00
        E 0 80 4a 00
        E 0 80 56 00
        E 0 80 62 00
        E 600 90 4a 60
        E 0 90 56 60
        E 0 90 62 60
        E 120 80 4a 00
        E 0 80 56 00
        E 0 80 62 00
        E 240 90 62 60
        E 120 80 62 00
        E 0 90 4a 60
        E 0 90 56 60
        E 0 90 62 60
        E 120 80 4a 00
        E 0 80 56 00
        E 0 80 62 00
        E 0 90 62 60
        E 120 80 62 00
        E 0 90 3d 60
        E 0 90 4a 60
        E 0 90 56 60
        E 0 90 62 60
        E 0 90 74 60
        E 120 80 3d 00
        E 0 80 4a 00
        E 0 80 56 00
        E 0 80 62 00
        E 0 90 62 60
        E 120 80 62 00
        E 0 90 4a 60
        E 0 90 56 60
        E 0 90 62 60
        E 120 80 4a 00
        E 0 80 56 00
        E 0 80 62 00
        E 0 90 62 60
        E 120 80 62 00
        E 0 90 3d 60
        E 0 90 4a 60
        E 0 90 56 60
        E 0 90 62 60
        E 120 80 3d 00
        E 0 80 4a 00
        E 0 80 56 00
        E 0 80 62 00
        E 600 90 4a 60
        E 0 90 56 60
        E 0 90 62 60
        E 120 80 4a 00
        E 0 80 56 00
        E 0 80 62 00
        E 240 90 62 60
        E 120 80 62 00
        E 0 90 4a 60
        E 0 90 56 60
        E 0 90 62 60
        E 120 80 4a 00
        E 0 80 56 00
        E 0 80 62 00
        E 0 90 62 60
        E 120 80 74 00
        E 0 80 62 00
        E 0 90 3d 60
        E 0 90 4a 60
        E 0 90 56 60
        E 0 90 62 60
        E 120 80 3d 00
        E 0 80 4a 00
        E 0 80 56 00
        E 0 80 62 00
        E 0 90 62 60
        E 120 80 62 00
        E 0 90 4a 60
        E 0 90 56 60
        E 0 90 62 60
        E 120 80 4a 00
        E 0 80 56 00
        E 0 80 62 00
        E 0 90 62 60
        E 120 80 62 00
        E 0 90 3d 60
        E 0 90 4a 60
        E 0 90 56 60
        E 0 90 62 60
        E 120 80 3d 00
        E 0 80 4a 00
        E 0 80 56 00
        E 0 80 62 00
        E 600 90 4b 60
        E 0 90 57 60
        E 0 90 63 60
        E 120 80 4b 00
        E 0 80 57 00
        E 0 80 63 00
        E 240 90 58 60
        E 0 90 64 60
        E 120 80 58 00
        E 0 80 64 00
        E 120 90 60 60
        E 120 80 60 00
        E 0 90 3c 60
        E 0 90 48 60
        E 0 90 54 60
        E 0 90 60 60
        E 120 80 3c 00
        E 0 80 48 00
        E 0 80 54 00
        E 0 80 60 00
        E 0 90 60 60
        E 120 80 60 00
        E 0 90 48 60
        E 0 90 54 60
        E 0 90 60 60
        E 120 80 48 00
        E 0 80 54 00
        E 0 80 60 00
        E 0 90 60 60
        E 120 80 60 00
        E 0 90 3c 60
        E 0 90 48 60
        E 0 90 54 60
        E 0 90 60 60
        E 120 80 3c 00
        E 0 80 48 00
        E 0 80 54 00
        E 0 80 60 00
        E 600 90 4a 60
        E 0 90 56 60
        E 0 90 62 60
        E 120 80 4a 00
        E 0 80 56 00
        E 0 80 62 00
        E 240 90 61 60
        E 120 80 61 00
        E 0 90 49 60
        E 0 90 55 60
        E 0 90 61 60
        E 120 80 49 00
        E 0 80 55 00
        E 0 80 61 00
        E 0 90 61 60
        E 120 80 61 00
        E 0 90 3c 60
        E 0 90 49 60
        E 0 90 55 60
        E 0 90 61 60
        E 120 80 3c 00
        E 0 80 49 00
        E 0 80 55 00
        E 0 80 61 00
        E 0 90 61 60
        E 120 80 61 00
        E 0 90 49 60
        E 0 90 55 60
        E 0 90 61 60
        E 120 80 49 00
        E 0 80 55 00
        E 0 80 61 00
        E 0 90 61 60
        E 120 80 61 00
        E 0 90 3c 60
        E 0 90 49 60
        E 0 90 55 60
        E 0 90 61 60
        E 120 80 3c 00
        E 0 80 49 00
        E 0 80 55 00
        E 0 80 61 00
        E 600 90 4b 60
        E 0 90 58 60
        E 0 90 64 60
        E 120 80 4b 00
        E 0 80 58 00
        E 0 80 64 00
        E 240 90 63 60
        E 120 80 63 00
        E 0 90 57 60
        E 0 90 63 60
        E 120 80 57 00
        E 0 80 63 00
        E 0 90 62 60
        E 120 80 62 00
        E 0 90 3d 60
        E 0 90 4a 60
        E 0 90 56 60
        E 0 90 62 60
        E 120 80 3d 00
        E 0 80 4a 00
        E 0 80 56 00
        E 0 80 62 00
        E 0 90 62 60
        E 120 80 62 00
        E 0 90 4a 60
        E 0 90 56 60
        E 0 90 62 60
        E 120 80 4a 00
        E 0 80 56 00
        E 0 80 62 00
        E 0 90 62 60
        E 120 80 62 00
        E 0 90 3d 60
        E 0 90 4a 60
        E 0 90 56 60
        E 0 90 62 60
        E 120 80 3d 00
        E 0 80 4a 00
        E 0 80 56 00
        E 0 80 62 00
        E 600 90 48 60
        E 0 90 54 60
        E 0 90 60 60
        E 120 80 48 00
        E 0 80 54 00
        E 0 80 60 00
        E 240 90 58 60
        E 0 90 64 60
        E 120 80 58 00
        E 180 80 64 00
        E 60 90 3d 60
        E 0 90 4a 60
        E 0 90 56 60
        E 0 90 62 60
        E 0 90 74 60
        E 120 80 3d 00
        E 0 80 4a 00
        E 0 80 56 00
        E 0 80 62 00
        E 0 90 62 60
        E 120 80 62 00
        E 0 90 4a 60
        E 0 90 56 60
        E 0 90 62 60
        E 120 80 4a 00
        E 0 80 56 00
        E 0 80 62 00
        E 0 90 62 60
        E 120 80 62 00
        E 0 90 3d 60
        E 0 90 4a 60
        E 0 90 56 60
        E 0 90 62 60
        E 120 80 3d 00
        E 0 80 4a 00
        E 0 80 56 00
        E 0 80 62 00
        E 600 90 4b 60
        E 0 90 57 60
        E 0 90 63 60
        E 120 80 4b 00
        E 0 80 57 00
        E 0 80 63 00
        E 240 90 58 60
        E 0 90 64 60
        E 120 80 58 00
        E 0 80 64 00
        E 240 80 74 00
        E 0 90 3c 60
        E 0 90 48 60
        E 0 90 54 60
        E 0 90 60 60
        E 120 80 3c 00
        E 0 80 48 00
        E 0 80 54 00
        E 0 80 60 00
        E 0 90 60 60
        E 120 80 60 00
        E 0 90 48 60
        E 0 90 54 60
        E 0 90 60 60
        E 120 80 48 00
        E 0 80 54 00
        E 0 80 60 00
        E 0 90 60 60
        E 120 80 60 00
        E 0 90 3c 60
        E 0 90 48 60
        E 0 90 54 60
        E 0 90 60 60
        E 120 80 3c 00
        E 0 80 48 00
        E 0 80 54 00
        E 0 80 60 00
        E 600 90 4a 60
        E 0 90 56 60
        E 0 90 62 60
        E 120 80 4a 00
        E 0 80 56 00
        E 0 80 62 00
        E 240 90 61 60
        E 120 80 61 00
        E 0 90 49 60
        E 0 90 55 60
        E 0 90 61 60
        E 120 80 49 00
        E 0 80 55 00
        E 0 80 61 00
        E 0 90 61 60
        E 120 80 61 00
        E 0 90 3c 60
        E 0 90 49 60
        E 0 90 55 60
        E 0 90 61 60
        E 120 80 3c 00
        E 0 80 49 00
        E 0 80 55 00
        E 0 80 61 00
        E 0 90 61 60
        E 120 80 61 00
        E 0 90 55 60
        E 0 90 61 60
        E 120 80 55 00
        E 0 80 61 00
        E 0 90 61 60
        E 120 80 61 00
        E 0 90 49 60
        E 0 90 55 60
        E 0 90 61 60
        E 120 80 49 00
        E 0 80 55 00
        E 0 80 61 00
        E 600 90 4b 60
        E 0 90 58 60
        E 0 90 64 60
        E 120 80 4b 00
        E 0 80 58 00
        E 0 80 64 00
        E 240 90 63 60
        E 120 80 63 00
        E 0 90 57 60
        E 0 90 63 60
        E 120 80 57 00
        E 0 80 63 00
        E 0 90 62 60
        E 120 80 62 00
        E 0 90 3d 60
        E 0 90 4a 60
        E 0 90 56 60
        E 0 90 62 60
        E 120 80 3d 00
        E 0 80 4a 00
        E 0 80 56 00
        E 0 80 62 00
        E 0 90 62 60
        E 120 80 62 00
        E 0 90 4a 60
        E 0 90 56 60
        E 0 90 62 60
        E 120 80 4a 00
        E 0 80 56 00
        E 0 80 62 00
        E 0 90 62 60
        E 120 80 62 00
        E 0 90 3d 60
        E 0 90 4a 60
        E 0 90 56 60
        E 0 90 62 60
        E 120 80 3d 00
        E 0 80 4a 00
        E 0 80 56 00
        E 0 80 62 00
        E 600 90 48 60
        E 0 90 54 60
        E 0 90 60 60
        E 120 80 48 00
        E 0 80 54 00
        E 0 80 60 00
        E 240 90 64 60
        E 120 80 64 00
        E 0 90 4b 60
        E 0 90 58 60
        E 0 90 64 60
        E 120 80 4b 00
        E 0 80 58 00
        E 0 80 64 00
        E 0 90 63 60
        E 120 80 63 00
        E 0 90 3e 60
        E 0 90 4b 60
        E 0 90 58 60
        E 0 90 64 60
        E 120 80 3e 00
        E 0 80 4b 00
        E 0 80 58 00
        E 0 80 64 00
        E 0 90 64 60
        E 120 80 64 00
        E 0 90 4b 60
        E 0 90 58 60
        E 0 90 64 60
        E 120 80 4b 00
        E 0 80 58 00
        E 0 80 64 00
        E 0 90 64 60
        E 120 80 64 00
        E 0 90 3e 60
        E 0 90 4b 60
        E 0 90 58 60
        E 0 90 64 60
        E 120 80 3e 00
        E 0 80 4b 00
        E 0 80 58 00
        E 0 80 64 00
        E 480 80 28 00
        E 120 90 2f 60
        E 0 90 48 60
        E 0 90 54 60
        E 0 90 60 60
        E 120 80 48 00
        E 0 80 54 00
        E 0 80 60 00
        E 240 90 55 60
        E 0 90 61 60
        E 120 80 55 00
        E 0 80 61 00
        E 120 90 62 60
        E 120 80 62 00
        E 0 90 3d 60
        E 0 90 4a 60
        E 0 90 56 60
        E 0 90 62 60
        E 120 80 3d 00
        E 0 80 4a 00
        E 0 80 56 00
        E 0 80 62 00
        E 0 90 62 60
        E 120 80 62 00
        E 0 90 4a 60
        E 0 90 56 60
        E 0 90 62 60
        E 120 80 4a 00
        E 0 80 56 00
        E 0 80 62 00
        E 0 90 62 60
        E 120 80 62 00
        E 0 90 3d 60
        E 0 90 4a 60
        E 0 90 56 60
        E 0 90 62 60
        E 120 80 3d 00
        E 0 80 4a 00
        E 0 80 56 00
        E 0 80 62 00
        E 480 80 2f 00
        E 120 90 28 60
        E 0 90 4b 60
        E 0 90 58 60
        E 0 90 64 60
        E 120 80 4b 00
        E 0 80 58 00
        E 0 80 64 00
        E 240 90 57 60
        E 0 90 63 60
        E 120 80 57 00
        E 0 80 63 00
        E 120 90 61 60
        E 120 80 61 00
        E 0 90 3c 60
        E 0 90 49 60
        E 0 90 55 60
        E 0 90 61 60
        E 120 80 3c 00
        E 0 80 49 00
        E 0 80 55 00
        E 0 80 61 00
        E 0 90 61 60
        E 120 80 61 00
        E 0 90 49 60
        E 0 90 55 60
        E 0 90 61 60
        E 120 80 49 00
        E 0 80 55 00
        E 0 80 61 00
        E 0 90 61 60
        E 120 80 61 00
        E 0 90 3c 60
        E 0 90 49 60
        E 0 90 55 60
        E 0 90 61 60
        E 120 80 3c 00
        E 0 80 49 00
        E 0 80 55 00
        E 0 80 61 00
        E 600 90 4b 60
        E 0 90 58 60
        E 0 90 64 60
        E 120 80 4b 00
        E 0 80 58 00
        E 0 80 64 00
        E 240 90 57 60
        E 0 90 63 60
        E 120 80 57 00
        E 0 80 63 00
        E 120 90 62 60
        E 120 80 62 00
        E 0 90 3d 60
        E 0 90 4a 60
        E 0 90 56 60
        E 0 90 62 60
        E 120 80 3d 00
        E 0 80 4a 00
        E 0 80 56 00
        E 0 80 62 00
        E 0 90 62 60
        E 120 80 62 00
        E 0 90 56 60
        E 0 90 62 60
        E 120 80 56 00
        E 0 80 62 00
        E 0 90 62 60
        E 120 80 62 00
        E 0 90 4b 60
        E 0 90 57 60
        E 0 90 63 60
        E 120 80 4b 00
        E 240 80 57 00
        E 0 80 63 00
        E 120 90 3e 60
        E 0 90 4b 60
        E 0 90 58 60
        E 0 90 64 60
        E 120 80 3e 00
        E 0 80 4b 00
        E 240 80 58 00
        E 0 80 64 00
        E 120 90 48 60
        E 0 90 54 60
        E 0 90 60 60
        E 120 80 48 00
        E 0 80 54 00
        E 120 80 60 00
        E 120 90 64 60
        E 120 80 64 00
        E 0 90 3e 60
        E 0 90 4b 60
        E 0 90 58 60
        E 0 90 64 60
        E 0 90 74 60
        E 120 80 3e 00
        E 0 80 4b 00
        E 0 80 58 00
        E 0 80 64 00
        E 0 90 64 60
        E 120 80 64 00
        E 0 90 4b 60
        E 0 90 58 60
        E 0 90 64 60
        E 120 80 4b 00
        E 0 80 58 00
        E 0 80 64 00
        E 0 90 64 60
        E 120 80 64 00
        E 0 90 3e 60
        E 0 90 4b 60
        E 0 90 58 60
        E 0 90 64 60
        E 120 80 3e 00
        E 0 80 4b 00
        E 0 80 58 00
        E 0 80 64 00
        E 480 80 28 00
        E 120 90 2f 60
        E 0 90 48 60
        E 0 90 54 60
        E 0 90 60 60
        E 120 80 48 00
        E 0 80 54 00
        E 0 80 60 00
        E 240 90 55 60
        E 0 90 61 60
        E 120 80 55 00
        E 0 80 61 00
        E 120 90 62 60
        E 120 80 74 00
        E 0 80 62 00
        E 0 90 3d 60
        E 0 90 4a 60
        E 0 90 56 60
        E 0 90 62 60
        E 120 80 3d 00
        E 0 80 4a 00
        E 0 80 56 00
        E 0 80 62 00
        E 0 90 62 60
        E 120 80 62 00
        E 0 90 4a 60
        E 0 90 56 60
        E 0 90 62 60
        E 120 80 4a 00
        E 0 80 56 00
        E 0 80 62 00
        E 0 90 62 60
        E 120 80 62 00
        E 0 90 3d 60
        E 0 90 4a 60
        E 0 90 56 60
        E 0 90 62 60
        E 120 80 3d 00
        E 0 80 4a 00
        E 0 80 56 00
        E 0 80 62 00
        E 480 80 2f 00
        E 120 90 28 60
        E 0 90 4b 60
        E 0 90 58 60
        E 0 90 64 60
        E 120 80 4b 00
        E 0 80 58 00
        E 0 80 64 00
        E 240 90 57 60
        E 0 90 63 60
        E 120 80 57 00
        E 0 80 63 00
        E 120 90 61 60
        E 120 80 61 00
        E 0 90 3c 60
        E 0 90 49 60
        E 0 90 55 60
        E 0 90 61 60
        E 120 80 3c 00
        E 0 80 49 00
        E 0 80 55 00
        E 0 80 61 00
        E 0 90 61 60
        E 120 80 61 00
        E 0 90 49 60
        E 0 90 55 60
        E 0 90 61 60
        E 120 80 49 00
        E 0 80 55 00
        E 0 80 61 00
        E 0 90 61 60
        E 120 80 61 00
        E 0 90 3c 60
        E 0 90 49 60
        E 0 90 55 60
        E 0 90 61 60
        E 120 80 3c 00
        E 0 80 49 00
        E 0 80 55 00
        E 0 80 61 00
        E 600 90 4b 60
        E 0 90 58 60
        E 0 90 64 60
        E 120 80 4b 00
        E 0 80 58 00
        E 0 80 64 00
        E 240 90 57 60
        E 0 90 63 60
        E 120 80 57 00
        E 0 80 63 00
        E 120 90 62 60
        E 120 80 62 00
        E 0 90 3d 60
        E 0 90 4a 60
        E 0 90 56 60
        E 0 90 62 60
        E 120 80 3d 00
        E 0 80 4a 00
        E 0 80 56 00
        E 0 80 62 00
        E 0 90 62 60
        E 120 80 62 00
        E 0 90 56 60
        E 0 90 62 60
        E 120 80 56 00
        E 0 80 62 00
        E 0 90 62 60
        E 120 80 62 00
        E 0 90 49 60
        E 0 90 55 60
        E 0 90 61 60
        E 120 80 49 00
        E 240 80 55 00
        E 0 80 61 00
        E 120 90 3c 60
        E 0 90 48 60
        E 0 90 54 60
        E 0 90 60 60
        E 120 80 3c 00
        E 0 80 48 00
        E 240 80 54 00
        E 0 80 60 00
        E 120 90 4b 60
        E 0 90 57 60
        E 0 90 63 60
        E 120 80 4b 00
        E 0 80 57 00
        E 120 80 63 00
        E 120 90 62 60
        <X 120 0
          /wFbaW50ZW5zZV0=
        >
        E 0 80 62 00
        E 0 90 3d 60
        E 0 90 4a 60
        E 0 90 56 60
        E 0 90 62 60
        E 0 90 74 60
        E 120 80 3d 00
        E 0 80 4a 00
        E 0 80 56 00
        E 0 80 62 00
        E 0 90 62 60
        E 120 80 62 00
        E 0 90 4a 60
        E 0 90 56 60
        E 0 90 62 60
        E 120 80 4a 00
        E 0 80 56 00
        E 0 80 62 00
        E 0 90 62 60
        E 120 80 62 00
        E 0 90 3d 60
        E 0 90 4a 60
        E 0 90 56 60
        E 0 90 62 60
        E 120 80 3d 00
        E 0 80 4a 00
        E 0 80 56 00
        E 0 80 62 00
        E 600 90 4b 60
        E 0 90 57 60
        E 0 90 63 60
        E 120 80 4b 00
        E 0 80 57 00
        E 0 80 63 00
        E 240 90 58 60
        E 0 90 64 60
        E 120 80 58 00
        E 0 80 64 00
        E 120 90 60 60
        E 120 80 74 00
        E 0 80 60 00
        E 0 90 3c 60
        E 0 90 48 60
        E 0 90 54 60
        E 0 90 60 60
        E 120 80 3c 00
        E 0 80 48 00
        E 0 80 54 00
        E 0 80 60 00
        E 0 90 60 60
        E 120 80 60 00
        E 0 90 48 60
        E 0 90 54 60
        E 0 90 60 60
        E 120 80 48 00
        E 0 80 54 00
        E 0 80 60 00
        E 0 90 60 60
        E 120 80 60 00
        E 0 90 3c 60
        E 0 90 48 60
        E 0 90 54 60
        E 0 90 60 60
        E 120 80 3c 00
        E 0 80 48 00
        E 0 80 54 00
        E 0 80 60 00
        E 600 90 4a 60
        E 0 90 56 60
        E 0 90 62 60
        E 120 80 4a 00
        E 0 80 56 00
        E 0 80 62 00
        E 240 90 61 60
        E 120 80 61 00
        E 0 90 49 60
        E 0 90 55 60
        E 0 90 61 60
        E 120 80 49 00
        E 0 80 55 00
        E 0 80 61 00
        E 0 90 61 60
        E 120 80 61 00
        E 0 90 3c 60
        E 0 90 49 60
        E 0 90 55 60
        E 0 90 61 60
        E 120 80 3c 00
        E 0 80 49 00
        E 0 80 55 00
        E 0 80 61 00
        E 0 90 61 60
        E 120 80 61 00
        E 0 90 49 60
        E 0 90 55 60
        E 0 90 61 60
        E 120 80 49 00
        E 0 80 55 00
        E 0 80 61 00
        E 0 90 61 60
        E 120 80 61 00
        E 0 90 3c 60
        E 0 90 49 60
        E 0 90 55 60
        E 0 90 61 60
        E 120 80 3c 00
        E 0 80 49 00
        E 0 80 55 00
        E 0 80 61 00
        E 600 90 4b 60
        E 0 90 58 60
        E 0 90 64 60
        E 120 80 4b 00
        E 0 80 58 00
        E 0 80 64 00
        E 240 90 63 60
        E 120 80 63 00
        E 0 90 57 60
        E 0 90 63 60
        E 120 80 57 00
        E 0 80 63 00
        E 0 90 62 60
        E 120 80 62 00
        E 0 90 3d 60
        E 0 90 4a 60
        E 0 90 56 60
        E 0 90 62 60
        E 120 80 3d 00
        E 0 80 4a 00
        E 0 80 56 00
        E 0 80 62 00
        E 0 90 62 60
        E 120 80 62 00
        E 0 90 4a 60
        E 0 90 56 60
        E 0 90 62 60
        E 120 80 4a 00
        E 0 80 56 00
        E 0 80 62 00
        E 0 90 62 60
        E 120 80 62 00
        E 0 90 3d 60
        E 0 90 4a 60
        E 0 90 56 60
        E 0 90 62 60
        E 120 80 3d 00
        E 0 80 4a 00
        E 0 80 56 00
        E 0 80 62 00
        E 600 90 48 60
        E 0 90 54 60
        E 0 90 60 60
        E 120 80 48 00
        E 0 80 54 00
        E 0 80 60 00
        E 240 90 58 60
        E 0 90 64 60
        E 120 80 58 00
        E 120 80 64 00
        E 120 90 3d 60
        E 0 90 4a 60
        E 0 90 56 60
        E 0 90 62 60
        E 120 80 3d 00
        E 0 80 4a 00
        E 0 80 56 00
        E 0 80 62 00
        E 0 90 62 60
        E 120 80 62 00
        E 0 90 4a 60
        E 0 90 56 60
        E 0 90 62 60
        E 120 80 4a 00
        E 0 80 56 00
        E 0 80 62 00
        E 0 90 62 60
        E 120 80 62 00
        E 0 90 3d 60
        E 0 90 4a 60
        E 0 90 56 60
        E 0 90 62 60
        E 120 80 3d 00
        E 0 80 4a 00
        E 0 80 56 00
        E 0 80 62 00
        E 600 90 4b 60
        E 0 90 57 60
        E 0 90 63 60
        E 120 80 4b 00
        E 0 80 57 00
        E 0 80 63 00
        E 240 90 58 60
        E 0 90 64 60
        E 120 80 58 00
        E 0 80 64 00
        E 240 90 3c 60
        E 0 90 48 60
        E 0 90 54 60
        E 0 90 60 60
        E 120 80 3c 00
        E 0 80 48 00
        E 0 80 54 00
        E 0 80 60 00
        E 0 90 60 60
        E 120 80 60 00
        E 0 90 48 60
        E 0 90 54 60
        E 0 90 60 60
        E 120 80 48 00
        E 0 80 54 00
        E 0 80 60 00
        E 0 90 60 60
        E 120 80 60 00
        E 0 90 3c 60
        E 0 90 48 60
        E 0 90 54 60
        E 0 90 60 60
        E 120 80 3c 00
        E 0 80 48 00
        E 0 80 54 00
        E 0 80 60 00
        E 600 90 4a 60
        E 0 90 56 60
        E 0 90 62 60
        E 120 80 4a 00
        E 0 80 56 00
        E 0 80 62 00
        E 240 90 61 60
        E 120 80 61 00
        E 0 90 49 60
        E 0 90 55 60
        E 0 90 61 60
        E 120 80 49 00
        E 0 80 55 00
        E 0 80 61 00
        E 0 90 61 60
        E 120 80 61 00
        E 0 90 3c 60
        E 0 90 49 60
        E 0 90 55 60
        E 0 90 61 60
        E 120 80 3c 00
        E 0 80 49 00
        E 0 80 55 00
        E 0 80 61 00
        E 0 90 61 60
        E 120 80 61 00
        E 0 90 49 60
        E 0 90 55 60
        E 0 90 61 60
        E 120 80 49 00
        E 0 80 55 00
        E 0 80 61 00
        E 0 90 61 60
        E 120 80 61 00
        E 0 90 3c 60
        E 0 90 49 60
        E 0 90 55 60
        E 0 90 61 60
        E 120 80 3c 00
        E 0 80 49 00
        E 0 80 55 00
        E 0 80 61 00
        E 600 90 4b 60
        E 0 90 58 60
        E 0 90 64 60
        E 120 80 4b 00
        E 0 80 58 00
        E 0 80 64 00
        E 240 90 63 60
        E 120 80 63 00
        E 0 90 57 60
        E 0 90 63 60
        E 120 80 57 00
        E 0 80 63 00
        E 0 90 62 60
        E 120 80 62 00
        E 0 90 3d 60
        E 0 90 4a 60
        E 0 90 56 60
        E 0 90 62 60
        E 120 80 3d 00
        E 0 80 4a 00
        E 0 80 56 00
        E 0 80 62 00
        E 0 90 62 60
        E 120 80 62 00
        E 0 90 4a 60
        E 0 90 56 60
        E 0 90 62 60
        E 120 80 4a 00
        E 0 80 56 00
        E 0 80 62 00
        E 0 90 62 60
        E 120 80 62 00
        E 0 90 3d 60
        E 0 90 4a 60
        E 0 90 56 60
        E 0 90 62 60
        E 120 80 3d 00
        E 0 80 4a 00
        E 0 80 56 00
        E 0 80 62 00
        E 600 90 48 60
        E 0 90 54 60
        E 0 90 60 60
        E 120 80 48 00
        E 0 80 54 00
        E 0 80 60 00
        E 240 90 64 60
        E 120 80 64 00
        E 0 90 58 60
        E 0 90 64 60
        E 120 80 58 00
        E 0 80 64 00
        E 0 90 63 60
        E 120 80 63 00
        E 0 90 3d 60
        E 0 90 4a 60
        E 0 90 56 60
        E 0 90 62 60
        E 959 80 28 00
        E 961 80 3d 00
        E 0 80 4a 00
        E 0 80 56 00
        E 0 80 62 00
        <X 239 0
          /wFbaWRsZV9yZWFsdGltZV0=
        >
        E 1681 b0 7b 00
        GUID {3B0D50EE-7E35-4A9E-927B-D8A686957CC5}
        IGNTEMPO 0 120.00000000 4 4
        SRCCOLOR 5
        VELLANE 132 128 60
        COLORMAP "C:\Program Files\REAPER (x64)\Data\color_maps\rockband_guitarbass.png"
        CFGEDITVIEW -4118.682102 17.156936 0 12 0 0 0
        CFGEDIT 1 1 0 1 1 0 1 1 1 1 1 0.25000000 -8 -8 1544 872 0 2 1 1 0.00000000 0 1 0 0 0.500000 0 0 1.000000 64
        KEYSNAP 0 6 "102030050700" 0 "Pentatonic"
        EVTFILTER 0 -1 -1 -1 -1 0 1 0 0 -1.00000000 -1.00000000
      >
    >
  >
  <TRACK '{093B387E-5E90-4C2C-9602-5BA0E55752EB}'
    NAME "bass"
    PEAKCOL 16576
    BEAT -1
    AUTOMODE 0
    VOLPAN 1.00000000000000 0.00000000000000 -1.00000000000000 -1.00000000000000 1.00000000000000
    MUTESOLO 0 0 0
    IPHASE 0
    ISBUS 2 -1
    BUSCOMP 0 0
    SHOWINMIX 1 0.666700 0.500000 1 0.500000 -1 -1 -1
    FREEMODE 0
    SEL 0
    REC 0 0 0 0 0 0 0
    VU 2
    TRACKHEIGHT 0 0
    INQ 0 0 0 0.5000000000 100 0 0 100
    NCHAN 2
    FX 1
    TRACKID {093B387E-5E90-4C2C-9602-5BA0E55752EB}
    PERF 0
    MIDIOUT -1
    MAINSEND 1 0
    <ITEM
      POSITION 0.00000000000000
      SNAPOFFS 0.00000000000000
      LENGTH 63.47100000000000
      LOOP 0
      ALLTAKES 0
      SEL 0
      FADEIN 1 0.000000 0.000000 1 0
      FADEOUT 1 0.000000 0.000000 1 0
      MUTE 0
      IGUID {76E47B5E-AFF0-4AA8-82F0-3824493B8344}
      IID 16
      NAME "bass.wav"
      VOLPAN 1.000000 0.000000 1.000000 -1.000000
      SOFFS 0.00000000000000
      PLAYRATE 1.00000000000000 1 0.00000000000000 -1
      CHANMODE 0
      GUID {C88E3B3A-07BA-4867-8B50-02CEE56E6B97}
      <SOURCE WAVE
        FILE "wav\bass.wav"
      >
    >
  >
  <TRACK '{B2FAD44C-8917-4EEF-94FD-70F65CA1EC10}'
    NAME "PART GUITAR"
    PEAKCOL 16576
    BEAT -1
    AUTOMODE 0
    VOLPAN 1.00000000000000 0.00000000000000 -1.00000000000000 -1.00000000000000 1.00000000000000
    MUTESOLO 0 0 0
    IPHASE 0
    ISBUS 1 1
    BUSCOMP 0 0
    SHOWINMIX 1 0.666700 0.500000 1 0.500000 -1 -1 -1
    FREEMODE 0
    SEL 0
    REC 0 0 0 0 0 0 0
    VU 2
    TRACKHEIGHT 0 0
    INQ 0 0 0 0.5000000000 100 0 0 100
    NCHAN 2
    FX 1
    TRACKID {B2FAD44C-8917-4EEF-94FD-70F65CA1EC10}
    PERF 0
    MIDIOUT -1
    <MIDINOTENAMES
      0 127 "TRILL MARKER"
      0 126 "TREMOLO MARKER"
      0 125 "---"
      0 124 "BRE"
      0 123 "BRE"
      0 122 "BRE"
      0 121 "BRE"
      0 120 "BRE (use all 5)"
      0 119 "----"
      0 116 "OVERDRIVE"
      0 115 "----"
      0 103 "Solo Marker"
      0 102 "Force HOPO Off"
      0 101 "Force HOPO On"
      0 100 "EXPERT Orange"
      0 99 "EXPERT Blue"
      0 98 "EXPERT Yellow"
      0 97 "EXPERT Red"
      0 96 "EXPERT Green"
      0 95 "----"
      0 90 "Force HOPO Off"
      0 89 "Force HOPO On"
      0 88 "HARD Orange"
      0 87 "HARD Blue"
      0 86 "HARD Yellow"
      0 85 "HARD Red"
      0 84 "HARD Green"
      0 77 "----"
      0 76 "MEDIUM Orange"
      0 75 "MEDIUM Blue"
      0 74 "MEDIUM Yellow"
      0 73 "MEDIUM Red"
      0 72 "MEDIUM Green"
      0 65 "----"
      0 64 "EASY Orange"
      0 63 "EASY Blue"
      0 62 "EASY Yellow"
      0 61 "EASY Red"
      0 60 "EASY Green"
      0 59 "Fret 12"
      0 57 "Fret 11"
      0 56 "Fret 10"
      0 55 "Fret 9"
      0 53 "Fret 8"
      0 52 "Fret 7"
      0 50 "Fret 6"
      0 49 "Fret 5"
      0 47 "Fret 4"
      0 45 "Fret 3"
      0 43 "Fret 2"
      0 40 "Fret 1"
    >
    MAINSEND 1 0
    <FXCHAIN
      WNDRECT 0 43 891 559
      SHOW 0
      LASTSEL 0
      DOCKED 0
      BYPASS 0 0
      <VST "VSTi: RBN Preview (RBN)" "rbprev_vst64.dll" 0 ""
        dnBicu5e7f4AAAAAAgAAAAEAAAAAAAAAAgAAAAAAAAAEAAAAAQAAAA==
        AAAQAAMAqgAAABAAAAA=
      >
      FLOATPOS 0 0 0 0
      FXID {90CFFF3D-79BD-4EC3-A608-9C2606A0BE15}
      WAK 0
    >
    <ITEM
      POSITION 0.00000000000000
      SNAPOFFS 0.00000000000000
      LENGTH 63.47100000000000
      LOOP 0
      ALLTAKES 0
      SEL 0
      FADEIN 1 0.000000 0.000000 1 0
      FADEOUT 1 0.000000 0.000000 1 0
      MUTE 0
      IGUID {B920D8B7-002F-4110-A6AC-09F67B23F214}
      IID 4
      NAME "PART GUITAR"
      VOLPAN 1.000000 0.000000 1.000000 -1.000000
      SOFFS 0.00000000000000 0.00000000000000
      PLAYRATE 1.00000000000000 1 0.00000000000000 -1
      CHANMODE 0
      GUID {49D23236-B3FC-4888-A094-15BB5E03A7BD}
      <SOURCE MIDI
        HASDATA 1 480 QN
        POOLEDEVTS {BC7035BD-7BC8-465C-A408-D76551DC1925}
        <X 0 0
          /wNQQVJUIEdVSVRBUg==
        >
        <X 3840 0
          /wFbcGxheV0=
        >
        E 0 90 28 60
        E 0 90 3e 60
        E 0 90 4a 60
        E 0 90 56 60
        E 0 90 62 60
        E 120 90 3e 00
        E 0 90 4a 00
        E 0 90 56 00
        E 0 90 62 00
        E 0 90 61 60
        E 120 90 61 00
        E 0 90 54 60
        E 0 90 60 60
        E 120 90 54 00
        E 0 90 60 00
        E 0 90 63 60
        E 120 90 63 00
        E 0 90 4a 60
        E 0 90 56 60
        E 0 90 62 60
        E 120 90 4a 00
        E 0 90 56 00
        E 0 90 62 00
        E 0 90 64 60
        E 120 90 64 00
        E 0 90 54 60
        E 0 90 60 60
        E 120 90 54 00
        E 0 90 60 00
        E 0 90 61 60
        E 120 90 61 00
        E 0 90 3e 60
        E 0 90 4a 60
        E 0 90 56 60
        E 0 90 62 60
        E 120 90 3e 00
        E 0 90 4a 00
        E 0 90 56 00
        E 0 90 62 00
        E 0 90 63 60
        E 120 90 63 00
        E 0 90 54 60
        E 0 90 60 60
        E 120 90 54 00
        E 0 90 60 00
        E 0 90 64 60
        E 120 90 64 00
        E 0 90 4a 60
        E 0 90 56 60
        E 0 90 62 60
        E 120 90 4a 00
        E 0 90 56 00
        E 0 90 62 00
        E 0 90 61 60
        E 120 90 61 00
        E 0 90 54 60
        E 0 90 60 60
        E 120 90 54 00
        E 0 90 60 00
        E 0 90 63 60
        E 120 90 63 00
        E 0 90 3e 60
        E 0 90 4a 60
        E 0 90 56 60
        E 0 90 62 60
        E 120 90 3e 00
        E 0 90 4a 00
        E 0 90 56 00
        E 0 90 62 00
        E 0 90 64 60
        E 120 90 64 00
        E 0 90 54 60
        E 0 90 60 60
        E 120 90 54 00
        E 0 90 60 00
        E 0 90 61 60
        E 120 90 61 00
        E 0 90 4a 60
        E 0 90 56 60
        E 0 90 62 60
        E 120 90 4a 00
        E 0 90 56 00
        E 0 90 62 00
        E 0 90 63 60
        E 120 90 63 00
        E 0 90 54 60
        E 0 90 60 60
        E 120 90 54 00
        E 0 90 60 00
        E 0 90 64 60
        E 120 90 64 00
        E 0 90 3e 60
        E 0 90 4a 60
        E 0 90 56 60
        E 0 90 62 60
        E 120 90 3e 00
        E 0 90 4a 00
        E 0 90 56 00
        E 0 90 62 00
        E 0 90 61 60
        E 120 90 61 00
        E 0 90 54 60
        E 0 90 60 60
        E 120 90 54 00
        E 0 90 60 00
        E 0 90 63 60
        E 120 90 63 00
        E 0 90 4a 60
        E 0 90 56 60
        E 0 90 62 60
        E 120 90 4a 00
        E 0 90 56 00
        E 0 90 62 00
        E 0 90 64 60
        E 120 90 64 00
        E 0 90 54 60
        E 0 90 60 60
        E 120 90 54 00
        E 0 90 60 00
        E 0 90 61 60
        E 120 90 61 00
        E 0 90 3e 60
        E 0 90 4a 60
        E 0 90 56 60
        E 0 90 62 60
        E 120 90 3e 00
        E 0 90 4a 00
        E 0 90 56 00
        E 0 90 62 00
        E 0 90 63 60
        E 120 90 63 00
        E 0 90 54 60
        E 0 90 60 60
        E 120 90 54 00
        E 0 90 60 00
        E 0 90 64 60
        E 120 90 64 00
        E 0 90 4a 60
        E 0 90 56 60
        E 0 90 62 60
        E 120 90 4a 00
        E 0 90 56 00
        E 0 90 62 00
        E 0 90 61 60
        E 120 90 61 00
        E 0 90 54 60
        E 0 90 60 60
        E 120 90 54 00
        E 0 90 60 00
        E 0 90 63 60
        E 120 90 63 00
        E 0 90 3e 60
        E 0 90 4a 60
        E 0 90 56 60
        E 0 90 62 60
        E 120 90 3e 00
        E 0 90 4a 00
        E 0 90 56 00
        E 0 90 62 00
        E 0 90 64 60
        E 120 90 64 00
        E 0 90 54 60
        E 0 90 60 60
        E 120 90 54 00
        E 0 90 60 00
        E 0 90 61 60
        E 120 90 61 00
        E 0 90 4a 60
        E 0 90 56 60
        E 0 90 62 60
        E 120 90 4a 00
        E 0 90 56 00
        E 0 90 62 00
        E 0 90 63 60
        E 120 90 63 00
        E 0 90 54 60
        E 0 90 60 60
        E 120 90 54 00
        E 0 90 60 00
        E 0 90 64 60
        E 120 90 64 00
        E 0 90 3e 60
        E 0 90 4a 60
        E 0 90 56 60
        E 0 90 62 60
        E 0 90 74 60
        E 120 90 3e 00
        E 0 90 4a 00
        E 0 90 56 00
        E 0 90 62 00
        E 0 90 61 60
        E 120 90 61 00
        E 0 90 54 60
        E 0 90 60 60
        E 120 90 54 00
        E 0 90 60 00
        E 0 90 63 60
        E 120 90 63 00
        E 0 90 4a 60
        E 0 90 56 60
        E 0 90 62 60
        E 120 90 4a 00
        E 0 90 56 00
        E 0 90 62 00
        E 0 90 64 60
        E 120 90 64 00
        E 0 90 54 60
        E 0 90 60 60
        E 120 90 54 00
        E 0 90 60 00
        E 0 90 61 60
        E 120 90 61 00
        E 0 90 3e 60
        E 0 90 4a 60
        E 0 90 56 60
        E 0 90 62 60
        E 120 90 3e 00
        E 0 90 4a 00
        E 0 90 56 00
        E 0 90 62 00
        E 0 90 63 60
        E 120 90 63 00
        E 0 90 54 60
        E 0 90 60 60
        E 120 90 54 00
        E 0 90 60 00
        E 0 90 64 60
        E 120 90 64 00
        E 0 90 4a 60
        E 0 90 56 60
        E 0 90 62 60
        E 120 90 4a 00
        E 0 90 56 00
        E 0 90 62 00
        E 0 90 61 60
        E 120 90 61 00
        E 0 90 54 60
        E 0 90 60 60
        E 120 90 54 00
        E 0 90 60 00
        E 0 90 64 60
        E 120 90 74 00
        E 0 90 64 00
        E 0 90 3d 60
        E 0 90 49 60
        E 0 90 55 60
        E 0 90 61 60
        E 120 90 3d 00
        E 0 90 49 00
        E 0 90 55 00
        E 0 90 61 00
        E 0 90 62 60
        E 120 90 62 00
        E 0 90 57 60
        E 0 90 63 60
        E 120 90 57 00
        E 0 90 63 00
        E 0 90 60 60
        E 120 90 60 00
        E 0 90 4c 60
        E 0 90 58 60
        E 0 90 64 60
        E 120 90 4c 00
        E 0 90 58 00
        E 0 90 64 00
        E 0 90 62 60
        E 120 90 62 00
        E 0 90 55 60
        E 0 90 61 60
        E 120 90 55 00
        E 0 90 61 00
        E 0 90 60 60
        E 120 90 60 00
        E 0 90 3f 60
        E 0 90 4b 60
        E 0 90 57 60
        E 0 90 63 60
        E 120 90 3f 00
        E 0 90 4b 00
        E 0 90 57 00
        E 0 90 63 00
        E 0 90 62 60
        E 120 90 62 00
        E 0 90 58 60
        E 0 90 64 60
        E 120 90 58 00
        E 0 90 64 00
        E 0 90 60 60
        E 120 90 60 00
        E 0 90 49 60
        E 0 90 55 60
        E 0 90 61 60
        E 120 90 49 00
        E 0 90 55 00
        E 0 90 61 00
        E 0 90 62 60
        E 120 90 62 00
        E 0 90 57 60
        E 0 90 63 60
        E 120 90 57 00
        E 0 90 63 00
        E 0 90 61 60
        E 120 90 61 00
        E 0 90 40 60
        E 0 90 4c 60
        E 0 90 58 60
        E 0 90 64 60
        E 120 90 40 00
        E 0 90 4c 00
        E 0 90 58 00
        E 0 90 64 00
        E 0 90 62 60
        E 120 90 62 00
        E 0 90 54 60
        E 0 90 60 60
        E 120 90 54 00
        E 0 90 60 00
        E 0 90 61 60
        E 120 90 61 00
        E 0 90 4b 60
        E 0 90 57 60
        E 0 90 63 60
        E 120 90 4b 00
        E 0 90 57 00
        E 0 90 63 00
        E 0 90 62 60
        E 120 90 62 00
        E 0 90 58 60
        E 0 90 64 60
        E 120 90 58 00
        E 0 90 64 00
        E 0 90 61 60
        E 120 90 61 00
        E 0 90 3c 60
        E 0 90 48 60
        E 0 90 54 60
        E 0 90 60 60
        E 120 90 3c 00
        E 0 90 48 00
        E 0 90 54 00
        E 0 90 60 00
        E 0 90 62 60
        E 120 90 62 00
        E 0 90 57 60
        E 0 90 63 60
        E 120 90 57 00
        E 0 90 63 00
        E 0 90 61 60
        E 120 90 61 00
        E 0 90 4c 60
        E 0 90 58 60
        E 0 90 64 60
        E 120 90 4c 00
        E 0 90 58 00
        E 0 90 64 00
        E 0 90 62 60
        E 120 90 62 00
        E 0 90 54 60
        E 0 90 60 60
        E 120 90 54 00
        E 0 90 60 00
        E 0 90 62 60
        E 120 90 62 00
        E 0 90 3f 60
        E 0 90 4b 60
        E 0 90 57 60
        E 0 90 63 60
        E 120 90 3f 00
        E 0 90 4b 00
        E 0 90 57 00
        E 0 90 63 00
        E 0 90 61 60
        E 120 90 61 00
        E 0 90 58 60
        E 0 90 64 60
        E 120 90 58 00
        E 0 90 64 00
        E 0 90 62 60
        E 120 90 62 00
        E 0 90 48 60
        E 0 90 54 60
        E 0 90 60 60
        E 120 90 48 00
        E 0 90 54 00
        E 0 90 60 00
        E 0 90 61 60
        E 120 90 61 00
        E 0 90 57 60
        E 0 90 63 60
        E 120 90 57 00
        E 0 90 63 00
        E 0 90 62 60
        E 120 90 62 00
        E 0 90 40 60
        E 0 90 4c 60
        E 0 90 58 60
        E 0 90 64 60
        E 120 90 40 00
        E 0 90 4c 00
        E 0 90 58 00
        E 0 90 64 00
        E 0 90 61 60
        E 120 90 61 00
        E 0 90 54 60
        E 0 90 60 60
        E 120 90 54 00
        E 0 90 60 00
        E 0 90 62 60
        E 120 90 62 00
        E 0 90 4b 60
        E 0 90 57 60
        E 0 90 63 60
        E 120 90 4b 00
        E 0 90 57 00
        E 0 90 63 00
        E 0 90 61 60
        E 120 90 61 00
        E 0 90 58 60
        E 0 90 64 60
        E 120 90 58 00
        E 0 90 64 00
        E 0 90 60 60
        E 120 90 60 00
        E 0 90 3d 60
        E 0 90 49 60
        E 0 90 55 60
        E 0 90 61 60
        E 120 90 3d 00
        E 0 90 49 00
        E 0 90 55 00
        E 0 90 61 00
        E 0 90 62 60
        E 120 90 62 00
        E 0 90 57 60
        E 0 90 63 60
        E 120 90 57 00
        E 0 90 63 00
        E 0 90 60 60
        E 120 90 60 00
        E 0 90 4c 60
        E 0 90 58 60
        E 0 90 64 60
        E 120 90 4c 00
        E 0 90 58 00
        E 0 90 64 00
        E 0 90 62 60
        E 120 90 62 00
        E 0 90 55 60
        E 0 90 61 60
        E 120 90 55 00
        E 0 90 61 00
        E 0 90 60 60
        E 120 90 60 00
        E 0 90 3f 60
        E 0 90 4b 60
        E 0 90 57 60
        E 0 90 63 60
        E 120 90 3f 00
        E 0 90 4b 00
        E 0 90 57 00
        E 0 90 63 00
        E 0 90 62 60
        E 120 90 62 00
        E 0 90 58 60
        E 0 90 64 60
        E 120 90 58 00
        E 0 90 64 00
        E 0 90 60 60
        E 120 90 60 00
        E 0 90 49 60
        E 0 90 55 60
        E 0 90 61 60
        E 120 90 49 00
        E 0 90 55 00
        E 0 90 61 00
        E 0 90 62 60
        E 120 90 62 00
        E 0 90 57 60
        E 0 90 63 60
        E 120 90 57 00
        E 0 90 63 00
        E 0 90 60 60
        E 120 90 60 00
        E 0 90 40 60
        E 0 90 4c 60
        E 0 90 58 60
        E 0 90 64 60
        E 120 90 40 00
        E 0 90 4c 00
        E 0 90 58 00
        E 0 90 64 00
        E 0 90 62 60
        E 120 90 62 00
        E 0 90 55 60
        E 0 90 61 60
        E 120 90 55 00
        E 0 90 61 00
        E 0 90 60 60
        E 120 90 60 00
        E 0 90 4b 60
        E 0 90 57 60
        E 0 90 63 60
        E 120 90 4b 00
        E 0 90 57 00
        E 0 90 63 00
        E 0 90 62 60
        E 120 90 62 00
        E 0 90 58 60
        E 0 90 64 60
        E 120 90 58 00
        E 0 90 64 00
        E 0 90 60 60
        E 120 90 60 00
        E 0 90 3d 60
        E 0 90 49 60
        E 0 90 55 60
        E 0 90 61 60
        E 120 90 3d 00
        E 0 90 49 00
        E 0 90 55 00
        E 0 90 61 00
        E 0 90 62 60
        E 120 90 62 00
        E 0 90 57 60
        E 0 90 63 60
        E 120 90 57 00
        E 0 90 63 00
        E 0 90 60 60
        E 120 90 60 00
        E 0 90 4c 60
        E 0 90 58 60
        E 0 90 64 60
        E 120 90 4c 00
        E 0 90 58 00
        E 0 90 64 00
        E 0 90 62 60
        E 120 90 62 00
        E 0 90 54 60
        E 0 90 60 60
        E 120 90 54 00
        E 0 90 60 00
        E 0 90 61 60
        E 120 90 61 00
        E 0 90 3f 60
        E 0 90 4b 60
        E 0 90 57 60
        E 0 90 63 60
        E 120 90 3f 00
        E 0 90 4b 00
        E 0 90 57 00
        E 0 90 63 00
        E 0 90 62 60
        E 120 90 62 00
        E 0 90 58 60
        E 0 90 64 60
        E 120 90 58 00
        E 0 90 64 00
        E 0 90 61 60
        E 120 90 61 00
        E 0 90 48 60
        E 0 90 54 60
        E 0 90 60 60
        E 120 90 48 00
        E 0 90 54 00
        E 0 90 60 00
        E 0 90 62 60
        E 120 90 62 00
        E 0 90 57 60
        E 0 90 63 60
        E 120 90 57 00
        E 0 90 63 00
        E 0 90 61 60
        E 120 90 61 00
        E 0 90 40 60
        E 0 90 4c 60
        E 0 90 58 60
        E 0 90 64 60
        E 120 90 40 00
        E 0 90 4c 00
        E 0 90 58 00
        E 0 90 64 00
        E 0 90 62 60
        E 120 90 62 00
        E 0 90 54 60
        E 0 90 60 60
        E 120 90 54 00
        E 0 90 60 00
        E 0 90 61 60
        E 120 90 61 00
        E 0 90 4b 60
        E 0 90 57 60
        E 0 90 63 60
        E 120 90 4b 00
        E 0 90 57 00
        E 0 90 63 00
        E 0 90 61 60
        E 120 90 61 00
        E 0 90 58 60
        E 0 90 64 60
        E 120 90 58 00
        E 0 90 64 00
        E 0 90 62 60
        E 120 90 62 00
        E 0 90 3c 60
        E 0 90 48 60
        E 0 90 54 60
        E 0 90 60 60
        E 0 90 74 60
        E 120 90 3c 00
        E 0 90 48 00
        E 0 90 54 00
        E 0 90 60 00
        E 0 90 61 60
        E 120 90 61 00
        E 0 90 57 60
        E 0 90 63 60
        E 120 90 57 00
        E 0 90 63 00
        E 0 90 62 60
        E 120 90 62 00
        E 0 90 4c 60
        E 0 90 58 60
        E 0 90 64 60
        E 120 90 4c 00
        E 0 90 58 00
        E 0 90 64 00
        E 0 90 61 60
        E 120 90 61 00
        E 0 90 54 60
        E 0 90 60 60
        E 120 90 54 00
        E 0 90 60 00
        E 0 90 62 60
        E 120 90 62 00
        E 0 90 3f 60
        E 0 90 4b 60
        E 0 90 57 60
        E 0 90 63 60
        E 120 90 3f 00
        E 0 90 4b 00
        E 0 90 57 00
        E 0 90 63 00
        E 0 90 61 60
        E 120 90 61 00
        E 0 90 58 60
        E 0 90 64 60
        E 120 90 58 00
        E 0 90 64 00
        E 0 90 62 60
        E 120 90 62 00
        E 0 90 49 60
        E 0 90 55 60
        E 0 90 61 60
        E 120 90 49 00
        E 0 90 55 00
        E 0 90 61 00
        E 0 90 62 60
        E 120 90 62 00
        E 0 90 57 60
        E 0 90 63 60
        E 120 90 57 00
        E 0 90 63 00
        E 0 90 60 60
        E 120 90 74 00
        E 0 90 60 00
        E 0 90 40 60
        E 0 90 4c 60
        E 0 90 58 60
        E 0 90 64 60
        E 120 90 40 00
        E 0 90 4c 00
        E 0 90 58 00
        E 0 90 64 00
        E 0 90 62 60
        E 120 90 62 00
        E 0 90 55 60
        E 0 90 61 60
        E 120 90 55 00
        E 0 90 61 00
        E 0 90 60 60
        E 120 90 60 00
        E 0 90 4b 60
        E 0 90 57 60
        E 0 90 63 60
        E 120 90 4b 00
        E 0 90 57 00
        E 0 90 63 00
        E 0 90 62 60
        E 120 90 62 00
        E 0 90 58 60
        E 0 90 64 60
        E 120 90 58 00
        E 0 90 64 00
        E 0 90 60 60
        E 120 90 60 00
        E 0 90 3d 60
        E 0 90 49 60
        E 0 90 55 60
        E 0 90 61 60
        E 120 90 3d 00
        E 0 90 49 00
        E 0 90 55 00
        E 0 90 61 00
        E 0 90 62 60
        E 120 90 62 00
        E 0 90 57 60
        E 0 90 63 60
        E 120 90 57 00
        E 0 90 63 00
        E 0 90 60 60
        E 120 90 60 00
        E 0 90 4c 60
        E 0 90 58 60
        E 0 90 64 60
        E 120 90 4c 00
        E 0 90 58 00
        E 0 90 64 00
        E 0 90 62 60
        E 120 90 62 00
        E 0 90 55 60
        E 0 90 61 60
        E 120 90 55 00
        E 0 90 61 00
        E 0 90 60 60
        E 120 90 60 00
        E 0 90 3d 60
        E 0 90 49 60
        E 0 90 55 60
        E 0 90 61 60
        E 120 90 3d 00
        E 0 90 49 00
        E 0 90 55 00
        E 0 90 61 00
        E 0 90 62 60
        E 120 90 62 00
        E 0 90 57 60
        E 0 90 63 60
        E 120 90 57 00
        E 0 90 63 00
        E 0 90 60 60
        E 120 90 60 00
        E 0 90 4c 60
        E 0 90 58 60
        E 0 90 64 60
        E 120 90 4c 00
        E 0 90 58 00
        E 0 90 64 00
        E 0 90 62 60
        E 120 90 62 00
        E 0 90 55 60
        E 0 90 61 60
        E 120 90 55 00
        E 0 90 61 00
        E 0 90 60 60
        E 120 90 60 00
        E 0 90 3f 60
        E 0 90 4b 60
        E 0 90 57 60
        E 0 90 63 60
        E 120 90 3f 00
        E 0 90 4b 00
        E 0 90 57 00
        E 0 90 63 00
        E 0 90 62 60
        E 120 90 62 00
        E 0 90 58 60
        E 0 90 64 60
        E 120 90 58 00
        E 0 90 64 00
        E 0 90 60 60
        E 120 90 60 00
        E 0 90 49 60
        E 0 90 55 60
        E 0 90 61 60
        E 120 90 49 00
        E 0 90 55 00
        E 0 90 61 00
        E 0 90 62 60
        E 120 90 62 00
        E 0 90 57 60
        E 0 90 63 60
        E 120 90 57 00
        E 0 90 63 00
        E 0 90 62 60
        E 120 90 62 00
        E 0 90 40 60
        E 0 90 4c 60
        E 0 90 58 60
        E 0 90 64 60
        E 120 90 40 00
        E 0 90 4c 00
        E 0 90 58 00
        E 0 90 64 00
        E 0 90 61 60
        E 120 90 61 00
        E 0 90 54 60
        E 0 90 60 60
        E 120 90 54 00
        E 0 90 60 00
        E 0 90 62 60
        E 120 90 62 00
        E 0 90 4b 60
        E 0 90 57 60
        E 0 90 63 60
        E 120 90 4b 00
        E 0 90 57 00
        E 0 90 63 00
        E 0 90 61 60
        E 120 90 61 00
        E 0 90 58 60
        E 0 90 64 60
        E 120 90 58 00
        E 0 90 64 00
        E 0 90 62 60
        E 120 90 62 00
        E 0 90 3c 60
        E 0 90 48 60
        E 0 90 54 60
        E 0 90 60 60
        E 120 90 3c 00
        E 0 90 48 00
        E 0 90 54 00
        E 0 90 60 00
        E 0 90 61 60
        E 120 90 61 00
        E 0 90 57 60
        E 0 90 63 60
        E 120 90 57 00
        E 0 90 63 00
        E 0 90 62 60
        E 120 90 62 00
        E 0 90 4c 60
        E 0 90 58 60
        E 0 90 64 60
        E 120 90 4c 00
        E 0 90 58 00
        E 0 90 64 00
        E 0 90 61 60
        E 120 90 61 00
        E 0 90 54 60
        E 0 90 60 60
        E 120 90 54 00
        E 0 90 60 00
        E 0 90 63 60
        E 120 90 63 00
        E 0 90 3e 60
        E 0 90 4a 60
        E 0 90 56 60
        E 0 90 62 60
        E 120 90 3e 00
        E 0 90 4a 00
        E 0 90 56 00
        E 0 90 62 00
        E 0 90 61 60
        E 120 90 61 00
        E 0 90 58 60
        E 0 90 64 60
        E 120 90 58 00
        E 0 90 64 00
        E 0 90 63 60
        E 120 90 63 00
        E 0 90 48 60
        E 0 90 54 60
        E 0 90 60 60
        E 120 90 48 00
        E 0 90 54 00
        E 0 90 60 00
        E 0 90 61 60
        E 120 90 61 00
        E 0 90 56 60
        E 0 90 62 60
        E 120 90 56 00
        E 0 90 62 00
        E 0 90 63 60
        E 120 90 63 00
        E 0 90 40 60
        E 0 90 4c 60
        E 0 90 58 60
        E 0 90 64 60
        E 120 90 40 00
        E 0 90 4c 00
        E 0 90 58 00
        E 0 90 64 00
        E 0 90 61 60
        E 120 90 61 00
        E 0 90 54 60
        E 0 90 60 60
        E 120 90 54 00
        E 0 90 60 00
        E 0 90 63 60
        E 120 90 63 00
        E 0 90 4a 60
        E 0 90 56 60
        E 0 90 62 60
        E 120 90 4a 00
        E 0 90 56 00
        E 0 90 62 00
        E 0 90 61 60
        E 120 90 61 00
        E 0 90 58 60
        E 0 90 64 60
        E 120 90 58 00
        E 0 90 64 00
        E 0 90 61 60
        E 120 90 61 00
        E 0 90 3e 60
        E 0 90 4a 60
        E 0 90 56 60
        E 0 90 62 60
        E 120 90 3e 00
        E 0 90 4a 00
        E 0 90 56 00
        E 0 90 62 00
        E 0 90 63 60
        E 60 90 28 00
        E 60 90 63 00
        E 0 90 2f 60
        E 0 90 58 60
        E 0 90 64 60
        E 60 90 2f 00
        E 60 90 58 00
        E 0 90 64 00
        E 0 90 28 60
        E 0 90 60 60
        E 120 90 60 00
        E 0 90 49 60
        E 0 90 55 60
        E 0 90 61 60
        E 120 90 49 00
        E 0 90 55 00
        E 0 90 61 00
        E 0 90 63 60
        E 60 90 28 00
        E 60 90 63 00
        E 0 90 2f 60
        E 0 90 58 60
        E 0 90 64 60
        E 60 90 2f 00
        E 60 90 58 00
        E 0 90 64 00
        E 0 90 28 60
        E 0 90 60 60
        E 120 90 60 00
        E 0 90 3d 60
        E 0 90 49 60
        E 0 90 55 60
        E 0 90 61 60
        E 120 90 3d 00
        E 0 90 49 00
        E 0 90 55 00
        E 0 90 61 00
        E 0 90 62 60
        E 120 90 62 00
        E 0 90 58 60
        E 0 90 64 60
        E 120 90 58 00
        E 0 90 64 00
        E 0 90 60 60
        E 120 90 60 00
        E 0 90 49 60
        E 0 90 55 60
        E 0 90 61 60
        E 120 90 49 00
        E 0 90 55 00
        E 0 90 61 00
        E 0 90 62 60
        E 120 90 62 00
        E 0 90 57 60
        E 0 90 63 60
        E 120 90 57 00
        E 0 90 63 00
        E 120 90 3c 60
        E 0 90 48 60
        E 0 90 54 60
        E 0 90 60 60
        E 120 90 3c 00
        E 0 90 48 00
        E 0 90 54 00
        E 0 90 60 00
        E 0 90 61 60
        E 120 90 61 00
        E 0 90 56 60
        E 0 90 62 60
        E 120 90 56 00
        E 0 90 62 00
        E 0 90 61 60
        E 120 90 61 00
        E 0 90 4b 60
        E 0 90 57 60
        E 0 90 63 60
        E 120 90 4b 00
        E 0 90 57 00
        E 0 90 63 00
        E 0 90 61 60
        E 120 90 61 00
        E 0 90 54 60
        E 0 90 60 60
        E 120 90 54 00
        E 0 90 60 00
        E 0 90 61 60
        E 120 90 61 00
        E 0 90 3f 60
        E 0 90 4b 60
        E 0 90 57 60
        E 0 90 63 60
        E 120 90 3f 00
        E 0 90 4b 00
        E 0 90 57 00
        E 0 90 63 00
        E 0 90 62 60
        E 120 90 62 00
        E 0 90 58 60
        E 0 90 64 60
        E 120 90 58 00
        E 0 90 64 00
        E 0 90 60 60
        E 120 90 60 00
        E 0 90 49 60
        E 0 90 55 60
        E 0 90 61 60
        E 120 90 49 00
        E 0 90 55 00
        E 0 90 61 00
        E 0 90 62 60
        E 120 90 62 00
        E 0 90 57 60
        E 0 90 63 60
        E 120 90 57 00
        E 0 90 63 00
        E 0 90 60 60
        E 120 90 60 00
        E 0 90 3d 60
        E 0 90 49 60
        E 0 90 55 60
        E 0 90 61 60
        E 0 90 74 60
        E 120 90 3d 00
        E 0 90 49 00
        E 0 90 55 00
        E 0 90 61 00
        E 0 90 62 60
        E 120 90 62 00
        E 0 90 57 60
        E 0 90 63 60
        E 120 90 57 00
        E 0 90 63 00
        E 0 90 60 60
        E 120 90 60 00
        E 0 90 4c 60
        E 0 90 58 60
        E 0 90 64 60
        E 120 90 4c 00
        E 0 90 58 00
        E 0 90 64 00
        E 0 90 62 60
        E 120 90 62 00
        E 0 90 55 60
        E 0 90 61 60
        E 120 90 55 00
        E 0 90 61 00
        E 0 90 60 60
        E 120 90 60 00
        E 0 90 3f 60
        E 0 90 4b 60
        E 0 90 57 60
        E 0 90 63 60
        E 120 90 3f 00
        E 0 90 4b 00
        E 0 90 57 00
        E 0 90 63 00
        E 0 90 62 60
        E 120 90 62 00
        E 0 90 58 60
        E 0 90 64 60
        E 120 90 58 00
        E 0 90 64 00
        E 0 90 61 60
        E 120 90 61 00
        E 0 90 48 60
        E 0 90 54 60
        E 0 90 60 60
        E 120 90 48 00
        E 0 90 54 00
        E 0 90 60 00
        E 0 90 62 60
        E 120 90 62 00
        E 0 90 57 60
        E 0 90 63 60
        E 120 90 57 00
        E 0 90 63 00
        E 0 90 62 60
        E 120 90 74 00
        E 0 90 62 00
        E 0 90 40 60
        E 0 90 4c 60
        E 0 90 58 60
        E 0 90 64 60
        E 120 90 40 00
        E 0 90 4c 00
        E 0 90 58 00
        E 0 90 64 00
        E 0 90 61 60
        E 120 90 61 00
        E 0 90 54 60
        E 0 90 60 60
        E 120 90 54 00
        E 0 90 60 00
        E 0 90 62 60
        E 120 90 62 00
        E 0 90 4b 60
        E 0 90 57 60
        E 0 90 63 60
        E 120 90 4b 00
        E 0 90 57 00
        E 0 90 63 00
        E 0 90 61 60
        E 120 90 61 00
        E 0 90 58 60
        E 0 90 64 60
        E 120 90 58 00
        E 0 90 64 00
        E 0 90 62 60
        E 120 90 62 00
        E 0 90 3c 60
        E 0 90 48 60
        E 0 90 54 60
        E 0 90 60 60
        E 120 90 3c 00
        E 0 90 48 00
        E 0 90 54 00
        E 0 90 60 00
        E 0 90 61 60
        E 120 90 61 00
        E 0 90 57 60
        E 0 90 63 60
        E 120 90 57 00
        E 0 90 63 00
        E 0 90 62 60
        E 120 90 62 00
        E 0 90 4b 60
        E 0 90 57 60
        E 0 90 63 60
        E 120 90 4b 00
        E 0 90 57 00
        E 0 90 63 00
        E 0 90 62 60
        E 120 90 62 00
        E 0 90 55 60
        E 0 90 61 60
        E 120 90 55 00
        E 0 90 61 00
        E 0 90 60 60
        E 120 90 60 00
        E 0 90 3d 60
        E 0 90 49 60
        E 0 90 55 60
        E 0 90 61 60
        E 120 90 3d 00
        E 0 90 49 00
        E 0 90 55 00
        E 0 90 61 00
        E 0 90 62 60
        E 120 90 62 00
        E 0 90 57 60
        E 0 90 63 60
        E 120 90 57 00
        E 0 90 63 00
        E 0 90 60 60
        E 120 90 60 00
        E 0 90 4b 60
        E 0 90 57 60
        E 0 90 63 60
        E 120 90 4b 00
        E 0 90 57 00
        E 0 90 63 00
        E 0 90 61 60
        E 60 90 28 00
        E 60 90 61 00
        E 0 90 2f 60
        E 0 90 58 60
        E 0 90 64 60
        E 60 90 2f 00
        E 60 90 58 00
        E 0 90 64 00
        E 0 90 28 60
        E 0 90 60 60
        E 120 90 60 00
        E 0 90 3f 60
        E 0 90 4b 60
        E 0 90 57 60
        E 0 90 63 60
        E 120 90 3f 00
        E 0 90 4b 00
        E 0 90 57 00
        E 0 90 63 00
        E 0 90 61 60
        E 120 90 61 00
        E 0 90 56 60
        E 0 90 62 60
        E 120 90 56 00
        E 0 90 62 00
        E 0 90 60 60
        E 120 90 60 00
        E 0 90 4b 60
        E 0 90 57 60
        E 0 90 63 60
        E 120 90 4b 00
        E 0 90 57 00
        E 0 90 63 00
        E 0 90 61 60
        E 120 90 61 00
        E 0 90 56 60
        E 0 90 62 60
        E 120 90 56 00
        E 0 90 62 00
        E 0 90 60 60
        <X 120 0
          /wFbaW50ZW5zZV0=
        >
        E 0 90 60 00
        E 0 90 3f 60
        E 0 90 4b 60
        E 0 90 58 60
        E 0 90 64 60
        E 0 90 74 60
        E 120 90 3f 00
        E 0 90 4b 00
        E 0 90 58 00
        E 0 90 64 00
        E 0 90 63 60
        E 120 90 63 00
        E 0 90 56 60
        E 0 90 61 60
        E 120 90 56 00
        E 0 90 61 00
        E 0 90 60 60
        E 120 90 60 00
        E 0 90 4b 60
        E 0 90 58 60
        E 0 90 64 60
        E 120 90 4b 00
        E 0 90 58 00
        E 0 90 64 00
        E 0 90 62 60
        E 120 90 62 00
        E 0 90 56 60
        E 0 90 61 60
        E 120 90 56 00
        E 0 90 61 00
        E 0 90 60 60
        E 120 90 60 00
        E 0 90 3f 60
        E 0 90 4b 60
        E 0 90 58 60
        E 0 90 64 60
        E 120 90 3f 00
        E 0 90 4b 00
        E 0 90 58 00
        E 0 90 64 00
        E 0 90 63 60
        E 120 90 63 00
        E 0 90 56 60
        E 0 90 61 60
        E 120 90 56 00
        E 0 90 61 00
        E 0 90 60 60
        E 120 90 60 00
        E 0 90 4b 60
        E 0 90 58 60
        E 0 90 64 60
        E 120 90 4b 00
        E 0 90 58 00
        E 0 90 64 00
        E 0 90 62 60
        E 120 90 62 00
        E 0 90 56 60
        E 0 90 61 60
        E 120 90 56 00
        E 0 90 61 00
        E 0 90 60 60
        E 120 90 74 00
        E 0 90 60 00
        E 0 90 40 60
        E 0 90 4c 60
        E 0 90 58 60
        E 0 90 64 60
        E 120 90 40 00
        E 0 90 4c 00
        E 0 90 58 00
        E 0 90 64 00
        E 0 90 63 60
        E 120 90 63 00
        E 0 90 57 60
        E 0 90 62 60
        E 120 90 57 00
        E 0 90 62 00
        E 0 90 61 60
        E 120 90 61 00
        E 0 90 4c 60
        E 0 90 58 60
        E 0 90 64 60
        E 120 90 4c 00
        E 0 90 58 00
        E 0 90 64 00
        E 0 90 63 60
        E 120 90 63 00
        E 0 90 57 60
        E 0 90 62 60
        E 120 90 57 00
        E 0 90 62 00
        E 0 90 60 60
        E 120 90 60 00
        E 0 90 40 60
        E 0 90 4c 60
        E 0 90 58 60
        E 0 90 64 60
        E 120 90 40 00
        E 0 90 4c 00
        E 0 90 58 00
        E 0 90 64 00
        E 0 90 63 60
        E 120 90 63 00
        E 0 90 57 60
        E 0 90 62 60
        E 120 90 57 00
        E 0 90 62 00
        E 0 90 61 60
        E 120 90 61 00
        E 0 90 4c 60
        E 0 90 58 60
        E 0 90 64 60
        E 120 90 4c 00
        E 0 90 58 00
        E 0 90 64 00
        E 0 90 63 60
        E 120 90 63 00
        E 0 90 57 60
        E 0 90 62 60
        E 120 90 57 00
        E 0 90 62 00
        E 0 90 60 60
        E 120 90 60 00
        E 0 90 3e 60
        E 0 90 4a 60
        E 0 90 58 60
        E 0 90 64 60
        E 120 90 3e 00
        E 0 90 4a 00
        E 0 90 58 00
        E 0 90 64 00
        E 0 90 62 60
        E 120 90 62 00
        E 0 90 55 60
        E 0 90 61 60
        E 120 90 55 00
        E 0 90 61 00
        E 0 90 60 60
        E 120 90 60 00
        E 0 90 4a 60
        E 0 90 58 60
        E 0 90 63 60
        E 120 90 4a 00
        E 0 90 58 00
        E 0 90 63 00
        E 0 90 62 60
        E 120 90 62 00
        E 0 90 55 60
        E 0 90 61 60
        E 120 90 55 00
        E 0 90 61 00
        E 0 90 60 60
        E 120 90 60 00
        E 0 90 3e 60
        E 0 90 4a 60
        E 0 90 58 60
        E 0 90 64 60
        E 120 90 3e 00
        E 0 90 4a 00
        E 0 90 58 00
        E 0 90 64 00
        E 0 90 62 60
        E 120 90 62 00
        E 0 90 55 60
        E 0 90 61 60
        E 120 90 55 00
        E 0 90 61 00
        E 0 90 60 60
        E 120 90 60 00
        E 0 90 4a 60
        E 0 90 58 60
        E 0 90 63 60
        E 120 90 4a 00
        E 0 90 58 00
        E 0 90 63 00
        E 0 90 62 60
        E 120 90 62 00
        E 0 90 55 60
        E 0 90 61 60
        E 120 90 55 00
        E 0 90 61 00
        E 0 90 60 60
        E 120 90 60 00
        E 0 90 3f 60
        E 0 90 4b 60
        E 0 90 58 60
        E 0 90 64 60
        E 120 90 3f 00
        E 0 90 4b 00
        E 0 90 58 00
        E 0 90 64 00
        E 0 90 63 60
        E 120 90 63 00
        E 0 90 56 60
        E 0 90 61 60
        E 120 90 56 00
        E 0 90 61 00
        E 0 90 60 60
        E 120 90 60 00
        E 0 90 4b 60
        E 0 90 58 60
        E 0 90 64 60
        E 120 90 4b 00
        E 0 90 58 00
        E 0 90 64 00
        E 0 90 62 60
        E 120 90 62 00
        E 0 90 56 60
        E 0 90 61 60
        E 120 90 56 00
        E 0 90 61 00
        E 0 90 60 60
        E 120 90 60 00
        E 0 90 3f 60
        E 0 90 4b 60
        E 0 90 58 60
        E 0 90 64 60
        E 120 90 3f 00
        E 0 90 4b 00
        E 0 90 58 00
        E 0 90 64 00
        E 0 90 63 60
        E 120 90 63 00
        E 0 90 56 60
        E 0 90 61 60
        E 120 90 56 00
        E 0 90 61 00
        E 0 90 60 60
        E 120 90 60 00
        E 0 90 4b 60
        E 0 90 58 60
        E 0 90 64 60
        E 120 90 4b 00
        E 0 90 58 00
        E 0 90 64 00
        E 0 90 62 60
        E 120 90 62 00
        E 0 90 56 60
        E 0 90 61 60
        E 120 90 56 00
        E 0 90 61 00
        E 0 90 60 60
        E 120 90 60 00
        E 0 90 3f 60
        E 0 90 4b 60
        E 0 90 58 60
        E 0 90 64 60
        E 120 90 3f 00
        E 0 90 4b 00
        E 0 90 58 00
        E 0 90 64 00
        E 0 90 63 60
        E 120 90 63 00
        E 0 90 56 60
        E 0 90 61 60
        E 120 90 56 00
        E 0 90 61 00
        E 0 90 60 60
        E 120 90 60 00
        E 0 90 4b 60
        E 0 90 58 60
        E 0 90 64 60
        E 120 90 4b 00
        E 0 90 58 00
        E 0 90 64 00
        E 0 90 62 60
        E 120 90 62 00
        E 0 90 56 60
        E 0 90 61 60
        E 120 90 56 00
        E 0 90 61 00
        E 0 90 60 60
        E 120 90 60 00
        E 0 90 3f 60
        E 0 90 4b 60
        E 0 90 58 60
        E 0 90 64 60
        E 120 90 3f 00
        E 0 90 4b 00
        E 0 90 58 00
        E 0 90 64 00
        E 0 90 63 60
        E 120 90 63 00
        E 0 90 56 60
        E 0 90 61 60
        E 120 90 56 00
        E 0 90 61 00
        E 0 90 60 60
        E 120 90 60 00
        E 0 90 4b 60
        E 0 90 58 60
        E 0 90 64 60
        E 120 90 4b 00
        E 0 90 58 00
        E 0 90 64 00
        E 0 90 62 60
        E 120 90 62 00
        E 0 90 56 60
        E 0 90 61 60
        E 120 90 56 00
        E 0 90 61 00
        E 0 90 60 60
        E 120 90 60 00
        E 0 90 40 60
        E 0 90 4c 60
        E 0 90 58 60
        E 0 90 64 60
        E 120 90 40 00
        E 0 90 4c 00
        E 0 90 58 00
        E 0 90 64 00
        E 0 90 63 60
        E 120 90 63 00
        E 0 90 57 60
        E 0 90 62 60
        E 120 90 57 00
        E 0 90 62 00
        E 0 90 61 60
        E 120 90 61 00
        E 0 90 4c 60
        E 0 90 58 60
        E 0 90 64 60
        E 120 90 4c 00
        E 0 90 58 00
        E 0 90 64 00
        E 0 90 63 60
        E 120 90 63 00
        E 0 90 57 60
        E 0 90 62 60
        E 120 90 57 00
        E 0 90 62 00
        E 0 90 60 60
        E 120 90 60 00
        E 0 90 40 60
        E 0 90 4c 60
        E 0 90 58 60
        E 0 90 64 60
        E 120 90 40 00
        E 0 90 4c 00
        E 0 90 58 00
        E 0 90 64 00
        E 0 90 63 60
        E 120 90 63 00
        E 0 90 57 60
        E 0 90 62 60
        E 120 90 57 00
        E 0 90 62 00
        E 0 90 61 60
        E 120 90 61 00
        E 0 90 4c 60
        E 0 90 58 60
        E 0 90 64 60
        E 120 90 4c 00
        E 0 90 58 00
        E 0 90 64 00
        E 0 90 63 60
        E 120 90 63 00
        E 0 90 57 60
        E 0 90 62 60
        E 120 90 57 00
        E 0 90 62 00
        E 0 90 60 60
        E 120 90 60 00
        E 0 90 3e 60
        E 0 90 4a 60
        E 0 90 58 60
        E 0 90 64 60
        E 120 90 3e 00
        E 0 90 4a 00
        E 0 90 58 00
        E 0 90 64 00
        E 0 90 62 60
        E 120 90 62 00
        E 0 90 55 60
        E 0 90 61 60
        E 120 90 55 00
        E 0 90 61 00
        E 0 90 60 60
        E 120 90 60 00
        E 0 90 4a 60
        E 0 90 58 60
        E 0 90 63 60
        E 120 90 4a 00
        E 0 90 58 00
        E 0 90 63 00
        E 0 90 62 60
        E 120 90 62 00
        E 0 90 55 60
        E 0 90 61 60
        E 120 90 55 00
        E 0 90 61 00
        E 0 90 60 60
        E 120 90 60 00
        E 0 90 3e 60
        E 0 90 4a 60
        E 0 90 58 60
        E 0 90 64 60
        E 120 90 3e 00
        E 0 90 4a 00
        E 0 90 58 00
        E 0 90 64 00
        E 0 90 62 60
        E 120 90 62 00
        E 0 90 55 60
        E 0 90 61 60
        E 120 90 55 00
        E 0 90 61 00
        E 0 90 60 60
        E 120 90 60 00
        E 0 90 4a 60
        E 0 90 58 60
        E 0 90 63 60
        E 120 90 4a 00
        E 0 90 58 00
        E 0 90 63 00
        E 0 90 62 60
        E 120 90 62 00
        E 0 90 55 60
        E 0 90 61 60
        E 120 90 55 00
        E 0 90 61 00
        E 0 90 60 60
        E 120 90 60 00
        E 0 90 3f 60
        E 0 90 4b 60
        E 0 90 58 60
        E 0 90 64 60
        E 120 90 3f 00
        E 0 90 4b 00
        E 0 90 58 00
        E 0 90 64 00
        E 0 90 63 60
        E 120 90 63 00
        E 0 90 56 60
        E 0 90 61 60
        E 120 90 56 00
        E 0 90 61 00
        E 0 90 60 60
        E 120 90 60 00
        E 0 90 4b 60
        E 0 90 58 60
        E 0 90 64 60
        E 120 90 4b 00
        E 0 90 58 00
        E 0 90 64 00
        E 0 90 62 60
        E 120 90 62 00
        E 0 90 56 60
        E 0 90 61 60
        E 120 90 56 00
        E 0 90 61 00
        E 0 90 60 60
        E 120 90 60 00
        E 0 90 3f 60
        E 0 90 4b 60
        E 0 90 58 60
        E 0 90 64 60
        E 120 90 3f 00
        E 0 90 4b 00
        E 0 90 58 00
        E 0 90 64 00
        E 0 90 63 60
        E 120 90 63 00
        E 0 90 56 60
        E 0 90 61 60
        E 120 90 56 00
        E 0 90 61 00
        E 0 90 60 60
        E 120 90 60 00
        E 0 90 4b 60
        E 0 90 58 60
        E 0 90 64 60
        E 120 90 4b 00
        E 0 90 58 00
        E 0 90 64 00
        E 0 90 62 60
        E 120 90 62 00
        E 0 90 56 60
        E 0 90 61 60
        E 120 90 56 00
        E 0 90 61 00
        E 0 90 60 60
        E 120 90 60 00
        E 0 90 3f 60
        E 0 90 4b 60
        E 0 90 58 60
        E 0 90 64 60
        E 120 90 3f 00
        E 0 90 4b 00
        E 0 90 58 00
        E 0 90 64 00
        <X 359 0
          /wFbaWRsZV9yZWFsdGltZV0=
        >
        E 0 90 28 00
        E 3361 b0 7b 00
        GUID {7687B43B-8AFC-491F-A0DD-024FF866CADF}
        IGNTEMPO 0 120.00000000 4 4
        SRCCOLOR 7
        VELLANE 132 128 60
        COLORMAP "C:\Program Files\REAPER (x64)\Data\color_maps\rockband_guitarbass.png"
        CFGEDITVIEW -4118.682102 17.156936 0 12 0 0 0
        CFGEDIT 1 1 0 1 1 0 1 1 1 1 1 0.25000000 -8 -8 1544 872 0 2 1 1 0.00000000 0 1 0 0 0.500000 0 0 1.000000 64
        KEYSNAP 0 6 "102030050700" 0 "Pentatonic"
        EVTFILTER 0 -1 -1 -1 -1 0 1 0 0 -1.00000000 -1.00000000
      >
    >
  >
  <TRACK '{E6675B76-A183-48B8-9674-D52DE0CEED30}'
    NAME "guitar"
    PEAKCOL 16576
    BEAT -1
    AUTOMODE 0
    VOLPAN 1.00000000000000 0.00000000000000 -1.00000000000000 -1.00000000000000 1.00000000000000
    MUTESOLO 0 0 0
    IPHASE 0
    ISBUS 2 -1
    BUSCOMP 0 0
    SHOWINMIX 1 0.666700 0.500000 1 0.500000 -1 -1 -1
    FREEMODE 0
    SEL 0
    REC 0 0 0 0 0 0 0
    VU 2
    TRACKHEIGHT 0 0
    INQ 0 0 0 0.5000000000 100 0 0 100
    NCHAN 2
    FX 1
    TRACKID {E6675B76-A183-48B8-9674-D52DE0CEED30}
    PERF 0
    MIDIOUT -1
    MAINSEND 1 0
    <ITEM
      POSITION 0.00000000000000
      SNAPOFFS 0.00000000000000
      LENGTH 63.47100000000000
      LOOP 0
      ALLTAKES 0
      SEL 0
      FADEIN 1 0.000000 0.000000 1 0
      FADEOUT 1 0.000000 0.000000 1 0
      MUTE 0
      IGUID {06D1313F-F984-483E-9328-0C6A5CE55043}
      IID 17
      NAME "guitar.wav"
      VOLPAN 1.000000 0.000000 1.000000 -1.000000
      SOFFS 0.00000000000000
      PLAYRATE 1.00000000000000 1 0.00000000000000 -1
      CHANMODE 0
      GUID {B77EC2E5-7739-4BC9-8917-A0F45AB38E8A}
      <SOURCE WAVE
        FILE "wav\guitar.wav"
      >
    >
  >
  <TRACK '{3BA8792C-6F22-453D-976C-4A295B39EB2E}'
    NAME "PART KEYS"
    PEAKCOL 16576
    BEAT -1
    AUTOMODE 0
    VOLPAN 1.00000000000000 0.00000000000000 -1.00000000000000 -1.00000000000000 1.00000000000000
    MUTESOLO 0 0 0
    IPHASE 0
    ISBUS 1 1
    BUSCOMP 0 0
    SHOWINMIX 1 0.666700 0.500000 1 0.500000 -1 -1 -1
    FREEMODE 0
    SEL 0
    REC 0 0 0 0 0 0 0
    VU 2
    TRACKHEIGHT 0 0
    INQ 0 0 0 0.5000000000 100 0 0 100
    NCHAN 2
    FX 1
    TRACKID {3BA8792C-6F22-453D-976C-4A295B39EB2E}
    PERF 0
    MIDIOUT -1
    <MIDINOTENAMES
      0 127 "TRILL MARKER"
      0 125 "---"
      0 124 "BRE"
      0 123 "BRE"
      0 122 "BRE"
      0 121 "BRE"
      0 120 "BRE (use all 5)"
      0 119 "----"
      0 116 "OVERDRIVE"
      0 115 "----"
      0 103 "Solo Marker"
      0 102 "Force HOPO Off"
      0 101 "Force HOPO On"
      0 100 "EXPERT Orange"
      0 99 "EXPERT Blue"
      0 98 "EXPERT Yellow"
      0 97 "EXPERT Red"
      0 96 "EXPERT Green"
      0 95 "----"
      0 90 "Force HOPO Off"
      0 89 "Force HOPO On"
      0 88 "HARD Orange"
      0 87 "HARD Blue"
      0 86 "HARD Yellow"
      0 85 "HARD Red"
      0 84 "HARD Green"
      0 77 "----"
      0 76 "MEDIUM Orange"
      0 75 "MEDIUM Blue"
      0 74 "MEDIUM Yellow"
      0 73 "MEDIUM Red"
      0 72 "MEDIUM Green"
      0 65 "----"
      0 64 "EASY Orange"
      0 63 "EASY Blue"
      0 62 "EASY Yellow"
      0 61 "EASY Red"
      0 60 "EASY Green"
    >
    MAINSEND 1 0
    <FXCHAIN
      WNDRECT 0 43 891 559
      SHOW 0
      LASTSEL 0
      DOCKED 0
      BYPASS 0 0
      <VST "VSTi: RBN Preview (RBN)" "rbprev_vst64.dll" 0 ""
        dnBicu5e7f4AAAAAAgAAAAEAAAAAAAAAAgAAAAAAAAAEAAAAAQAAAA==
        AAAQAAMAqgAAABAAAAA=
      >
      FLOATPOS 0 0 0 0
      FXID {AFAC1B3D-0C6D-4B19-9AC3-E4CB5EE04CD6}
      WAK 0
    >
    <ITEM
      POSITION 0.00000000000000
      SNAPOFFS 0.00000000000000
      LENGTH 63.47100000000000
      LOOP 0
      ALLTAKES 0
      SEL 0
      FADEIN 1 0.000000 0.000000 1 0
      FADEOUT 1 0.000000 0.000000 1 0
      MUTE 0
      IGUID {0F583F0E-9477-425B-B606-5866BFE40BA2}
      IID 6
      NAME "PART KEYS"
      VOLPAN 1.000000 0.000000 1.000000 -1.000000
      SOFFS 0.00000000000000 0.00000000000000
      PLAYRATE 1.00000000000000 1 0.00000000000000 -1
      CHANMODE 0
      GUID {B7E027F0-1249-4879-8DCE-69242CCF20A0}
      <SOURCE MIDI
        HASDATA 1 480 QN
        POOLEDEVTS {2D299025-B212-433D-AB9C-4334560CB80D}
        <X 0 0
          /wNQQVJUIEtFWVM=
        >
        <X 3840 0
          /wFbaWRsZV0=
        >
        <X 38400 0
          /wFbaW50ZW5zZV0=
        >
        E 0 90 3f 60
        E 0 90 4b 60
        E 0 90 58 60
        E 0 90 64 60
        E 0 90 74 60
        E 60 90 3f 00
        E 0 90 4b 00
        E 0 90 58 00
        E 0 80 64 00
        E 60 90 63 60
        E 0 90 65 60
        E 60 80 63 00
        E 60 90 56 60
        E 0 90 61 60
        E 60 90 56 00
        E 0 80 61 00
        E 60 90 60 60
        E 60 80 60 00
        E 60 90 4b 60
        E 0 90 58 60
        E 0 90 64 60
        E 60 90 4b 00
        E 0 90 58 00
        E 0 80 64 00
        E 60 90 62 60
        E 60 80 62 00
        E 60 90 56 60
        E 0 90 61 60
        E 60 90 56 00
        E 0 80 61 00
        E 60 90 60 60
        E 60 80 60 00
        E 60 90 3f 60
        E 0 90 4b 60
        E 0 90 58 60
        E 0 90 64 60
        E 60 90 3f 00
        E 0 90 4b 00
        E 0 90 58 00
        E 0 80 64 00
        E 60 90 63 60
        E 60 80 63 00
        E 60 90 56 60
        E 0 90 61 60
        E 60 90 56 00
        E 0 80 61 00
        E 60 90 60 60
        E 60 80 60 00
        E 60 90 4b 60
        E 0 90 58 60
        E 0 90 64 60
        E 60 90 4b 00
        E 0 90 58 00
        E 0 80 64 00
        E 60 90 62 60
        E 60 80 62 00
        E 60 90 56 60
        E 0 90 61 60
        E 60 90 56 00
        E 0 80 61 00
        E 60 90 60 60
        E 60 80 60 00
        E 60 80 74 00
        E 0 90 40 60
        E 0 90 4c 60
        E 0 90 58 60
        E 0 90 64 60
        E 60 90 40 00
        E 0 90 4c 00
        E 0 90 58 00
        E 0 80 64 00
        E 60 90 63 60
        E 60 80 63 00
        E 60 90 57 60
        E 0 90 62 60
        E 60 90 57 00
        E 0 80 62 00
        E 60 90 61 60
        E 60 80 61 00
        E 60 90 4c 60
        E 0 90 58 60
        E 0 90 64 60
        E 60 90 4c 00
        E 0 90 58 00
        E 0 80 64 00
        E 60 90 63 60
        E 60 80 63 00
        E 60 90 57 60
        E 0 90 62 60
        E 60 90 57 00
        E 0 80 62 00
        E 60 90 60 60
        E 60 80 60 00
        E 60 90 40 60
        E 0 90 4c 60
        E 0 90 58 60
        E 0 90 64 60
        E 60 90 40 00
        E 0 90 4c 00
        E 0 90 58 00
        E 0 80 64 00
        E 60 90 63 60
        E 60 80 63 00
        E 60 90 57 60
        E 0 90 62 60
        E 60 90 57 00
        E 0 80 62 00
        E 60 90 61 60
        E 60 80 61 00
        E 60 90 4c 60
        E 0 90 58 60
        E 0 90 64 60
        E 60 90 4c 00
        E 0 90 58 00
        E 0 80 64 00
        E 60 90 63 60
        E 60 80 63 00
        E 60 90 57 60
        E 0 90 62 60
        E 60 90 57 00
        E 0 80 62 00
        E 60 90 60 60
        E 60 80 60 00
        E 60 90 3e 60
        E 0 90 4a 60
        E 0 90 58 60
        E 0 90 64 60
        E 60 90 3e 00
        E 0 90 4a 00
        E 0 90 58 00
        E 0 80 64 00
        E 60 90 62 60
        E 60 80 62 00
        E 60 90 55 60
        E 0 90 61 60
        E 60 90 55 00
        E 0 80 61 00
        E 60 90 60 60
        E 60 80 60 00
        E 60 90 4a 60
        E 0 90 58 60
        E 0 90 63 60
        E 60 90 4a 00
        E 0 90 58 00
        E 0 80 63 00
        E 60 90 62 60
        E 60 80 62 00
        E 60 90 55 60
        E 0 90 61 60
        E 60 90 55 00
        E 0 80 61 00
        E 60 90 60 60
        E 60 80 60 00
        E 60 90 3e 60
        E 0 90 4a 60
        E 0 90 58 60
        E 0 90 64 60
        E 60 90 3e 00
        E 0 90 4a 00
        E 0 90 58 00
        E 0 80 64 00
        E 60 90 62 60
        E 60 80 62 00
        E 60 90 55 60
        E 0 90 61 60
        E 60 90 55 00
        E 0 80 61 00
        E 60 90 60 60
        E 60 80 60 00
        E 60 90 4a 60
        E 0 90 58 60
        E 0 90 63 60
        E 60 90 4a 00
        E 0 90 58 00
        E 0 80 63 00
        E 60 90 62 60
        E 60 80 62 00
        E 60 90 55 60
        E 0 90 61 60
        E 60 90 55 00
        E 0 80 61 00
        E 60 90 60 60
        E 60 80 60 00
        E 60 90 3f 60
        E 0 90 4b 60
        E 0 90 58 60
        E 0 90 64 60
        E 60 90 3f 00
        E 0 90 4b 00
        E 0 90 58 00
        E 0 80 64 00
        E 60 90 63 60
        E 60 80 63 00
        E 60 90 56 60
        E 0 90 61 60
        E 60 90 56 00
        E 0 80 61 00
        E 60 90 60 60
        E 60 80 60 00
        E 60 90 4b 60
        E 0 90 58 60
        E 0 90 64 60
        E 60 90 4b 00
        E 0 90 58 00
        E 0 80 64 00
        E 60 90 62 60
        E 60 80 62 00
        E 60 90 56 60
        E 0 90 61 60
        E 60 90 56 00
        E 0 80 61 00
        E 60 90 60 60
        E 60 80 60 00
        E 60 90 3f 60
        E 0 90 4b 60
        E 0 90 58 60
        E 0 90 64 60
        E 60 90 3f 00
        E 0 90 4b 00
        E 0 90 58 00
        E 0 80 64 00
        E 60 90 63 60
        E 60 80 63 00
        E 60 90 56 60
        E 0 90 61 60
        E 60 90 56 00
        E 0 80 61 00
        E 60 90 60 60
        E 60 80 60 00
        E 60 90 4b 60
        E 0 90 58 60
        E 0 90 64 60
        E 60 90 4b 00
        E 0 90 58 00
        E 0 80 64 00
        E 60 90 62 60
        E 60 80 62 00
        E 60 90 56 60
        E 0 90 61 60
        E 60 90 56 00
        E 0 80 61 00
        E 60 90 60 60
        E 60 80 60 00
        E 60 90 3f 60
        E 0 90 4b 60
        E 0 90 58 60
        E 0 90 64 60
        E 60 90 3f 00
        E 0 90 4b 00
        E 0 90 58 00
        E 0 80 64 00
        E 60 90 63 60
        E 60 80 63 00
        E 60 90 56 60
        E 0 90 61 60
        E 60 90 56 00
        E 0 80 61 00
        E 60 90 60 60
        E 60 80 60 00
        E 60 90 4b 60
        E 0 90 58 60
        E 0 90 64 60
        E 60 90 4b 00
        E 0 90 58 00
        E 0 80 64 00
        E 60 90 62 60
        E 60 80 62 00
        E 60 90 56 60
        E 0 90 61 60
        E 60 90 56 00
        E 0 80 61 00
        E 60 90 60 60
        E 60 80 60 00
        E 60 90 3f 60
        E 0 90 4b 60
        E 0 90 58 60
        E 0 90 64 60
        E 60 90 3f 00
        E 0 90 4b 00
        E 0 90 58 00
        E 0 80 64 00
        E 60 90 63 60
        E 60 80 63 00
        E 60 90 56 60
        E 0 90 61 60
        E 60 90 56 00
        E 0 80 61 00
        E 60 90 60 60
        E 60 80 60 00
        E 60 90 4b 60
        E 0 90 58 60
        E 0 90 64 60
        E 60 90 4b 00
        E 0 90 58 00
        E 0 80 64 00
        E 60 90 62 60
        E 60 80 62 00
        E 60 90 56 60
        E 0 90 61 60
        E 60 90 56 00
        E 0 80 61 00
        E 60 90 60 60
        E 60 80 60 00
        E 60 90 40 60
        E 0 90 4c 60
        E 0 90 58 60
        E 0 90 64 60
        E 60 90 40 00
        E 0 90 4c 00
        E 0 90 58 00
        E 0 80 64 00
        E 60 90 63 60
        E 60 80 63 00
        E 60 90 57 60
        E 0 90 62 60
        E 60 90 57 00
        E 0 80 62 00
        E 60 90 61 60
        E 60 80 61 00
        E 60 90 4c 60
        E 0 90 58 60
        E 0 90 64 60
        E 60 90 4c 00
        E 0 90 58 00
        E 0 80 64 00
        E 60 90 63 60
        E 60 80 63 00
        E 60 90 57 60
        E 0 90 62 60
        E 60 90 57 00
        E 0 80 62 00
        E 60 90 60 60
        E 60 80 60 00
        E 60 90 40 60
        E 0 90 4c 60
        E 0 90 58 60
        E 0 90 64 60
        E 60 90 40 00
        E 0 90 4c 00
        E 0 90 58 00
        E 0 80 64 00
        E 60 90 63 60
        E 60 80 63 00
        E 60 90 57 60
        E 0 90 62 60
        E 60 90 57 00
        E 0 80 62 00
        E 60 90 61 60
        E 60 80 61 00
        E 60 90 4c 60
        E 0 90 58 60
        E 0 90 64 60
        E 60 90 4c 00
        E 0 90 58 00
        E 0 80 64 00
        E 60 90 63 60
        E 60 80 63 00
        E 60 90 57 60
        E 0 90 62 60
        E 60 90 57 00
        E 0 80 62 00
        E 60 90 60 60
        E 60 80 60 00
        E 60 90 3e 60
        E 0 90 4a 60
        E 0 90 58 60
        E 0 90 64 60
        E 60 90 3e 00
        E 0 90 4a 00
        E 0 90 58 00
        E 0 80 64 00
        E 60 90 62 60
        E 60 80 62 00
        E 60 90 55 60
        E 0 90 61 60
        E 60 90 55 00
        E 0 80 61 00
        E 60 90 60 60
        E 60 80 60 00
        E 60 90 4a 60
        E 0 90 58 60
        E 0 90 63 60
        E 60 90 4a 00
        E 0 90 58 00
        E 0 80 63 00
        E 60 90 62 60
        E 60 80 62 00
        E 60 90 55 60
        E 0 90 61 60
        E 60 90 55 00
        E 0 80 61 00
        E 60 90 60 60
        E 60 80 60 00
        E 60 90 3e 60
        E 0 90 4a 60
        E 0 90 58 60
        E 0 90 64 60
        E 60 90 3e 00
        E 0 90 4a 00
        E 0 90 58 00
        E 0 80 64 00
        E 60 90 62 60
        E 60 80 62 00
        E 60 90 55 60
        E 0 90 61 60
        E 60 90 55 00
        E 0 80 61 00
        E 60 90 60 60
        E 60 80 60 00
        E 60 90 4a 60
        E 0 90 58 60
        E 0 90 63 60
        E 60 90 4a 00
        E 0 90 58 00
        E 0 80 63 00
        E 60 90 62 60
        E 60 80 62 00
        E 60 90 55 60
        E 0 90 61 60
        E 60 90 55 00
        E 0 80 61 00
        E 60 90 60 60
        E 60 80 60 00
        E 60 90 3f 60
        E 0 90 4b 60
        E 0 90 58 60
        E 0 90 64 60
        E 60 90 3f 00
        E 0 90 4b 00
        E 0 90 58 00
        E 0 80 64 00
        E 60 90 63 60
        E 60 80 63 00
        E 60 90 56 60
        E 0 90 61 60
        E 60 90 56 00
        E 0 80 61 00
        E 60 90 60 60
        E 60 80 60 00
        E 60 90 4b 60
        E 0 90 58 60
        E 0 90 64 60
        E 60 90 4b 00
        E 0 90 58 00
        E 0 80 64 00
        E 60 90 62 60
        E 60 80 62 00
        E 60 90 56 60
        E 0 90 61 60
        E 60 90 56 00
        E 0 80 61 00
        E 60 90 60 60
        E 60 80 60 00
        E 60 90 3f 60
        E 0 90 4b 60
        E 0 90 58 60
        E 0 90 64 60
        E 60 90 3f 00
        E 0 90 4b 00
        E 0 90 58 00
        E 0 80 64 00
        E 60 90 63 60
        E 60 80 63 00
        E 60 90 56 60
        E 0 90 61 60
        E 60 90 56 00
        E 0 80 61 00
        E 60 90 60 60
        E 60 80 60 00
        E 60 90 4b 60
        E 0 90 58 60
        E 0 90 64 60
        E 60 90 4b 00
        E 0 90 58 00
        E 0 80 64 00
        E 60 90 62 60
        E 60 80 62 00
        E 60 90 56 60
        E 0 90 61 60
        E 60 80 65 00
        E 0 90 56 00
        E 0 80 61 00
        E 180 90 3f 60
        E 0 90 4b 60
        E 0 90 58 60
        E 0 90 64 60
        <X 1919 0
          /wFbaWRsZV9yZWFsdGltZV0=
        >
        E 0 90 3f 00
        E 0 90 4b 00
        E 0 90 58 00
        E 0 80 64 00
        E 1921 b0 7b 00
        GUID {9ACADE36-C5D7-4DFA-81A3-2AC24D7A2FEA}
        IGNTEMPO 0 120.00000000 4 4
        SRCCOLOR 9
        VELLANE 132 128 60
        COLORMAP "C:\Program Files\REAPER (x64)\Data\color_maps\rockband_guitarbass.png"
        CFGEDITVIEW 0.000000 0.000000 0 14 0 0 0
        CFGEDIT 1 1 0 1 1 0 1 1 1 1 1 0.25000000 -8 -8 1544 872 0 2 1 1 0.00000000 0 1 0 0 0.500000 0 0 1.000000 64
        KEYSNAP 0 6 "102030050700" 0 "Pentatonic"
        EVTFILTER 0 -1 -1 -1 -1 0 1 0 0 -1.00000000 -1.00000000
      >
    >
  >
  <TRACK '{B47864B2-8A1C-45F0-AC9F-151555CB1ED3}'
    NAME "PART REAL_KEYS_X"
    PEAKCOL 16576
    BEAT -1
    AUTOMODE 0
    VOLPAN 1.00000000000000 0.00000000000000 -1.00000000000000 -1.00000000000000 1.00000000000000
    MUTESOLO 0 0 0
    IPHASE 0
    ISBUS 0 0
    BUSCOMP 0 0
    SHOWINMIX 1 0.666700 0.500000 1 0.500000 -1 -1 -1
    FREEMODE 0
    SEL 0
    REC 0 0 0 0 0 0 0
    VU 2
    TRACKHEIGHT 0 0
    INQ 0 0 0 0.5000000000 100 0 0 100
    NCHAN 2
    FX 1
    TRACKID {B47864B2-8A1C-45F0-AC9F-151555CB1ED3}
    PERF 0
    MIDIOUT -1
    <MIDINOTENAMES
      0 127 "TRILL MARKER"
      0 126 "GLISSANDO MARKER"
      0 125 "---"
      0 116 "OVERDRIVE"
      0 115 "SOLO"
      0 114 "---"
      0 72 "Highest playable note B#3"
      0 71 "B3"
      0 70 "A#3"
      0 69 "A3"
      0 68 "G#3"
      0 67 "G3"
      0 66 "F#3"
      0 65 "F3"
      0 64 "E3"
      0 63 "D#3"
      0 62 "D3"
      0 61 "C#3"
      0 60 "C3"
      0 59 "B2"
      0 58 "A#2"
      0 57 "A2"
      0 56 "G#2"
      0 55 "G2"
      0 54 "F#2"
      0 53 "F2"
      0 52 "E2"
      0 51 "D#2"
      0 50 "D2"
      0 49 "C#2"
      0 48 "Lowest playable note C2"
      0 10 "---"
      0 9 "Range A2-C4"
      0 8 "Range"
      0 7 "Range"
      0 6 "Range"
      0 5 "Range F2-A3"
      0 4 "Range"
      0 3 "Range"
      0 2 "Range"
      0 1 "Range"
      0 0 "Range C2-E3"
    >
    MAINSEND 1 0
    <FXCHAIN
      WNDRECT 0 43 655 467
      SHOW 0
      LASTSEL 1
      DOCKED 0
      BYPASS 0 0
      <JS "MIDI/midi_note_filter" ""
        48.000000 72.000000 - - - - - - - - - - - - - - - - - - - - - - - - - - - - - - - - - - - - - - - - - - - - - - - - - - - - - - - - - - - - - - 
      >
      FLOATPOS 0 0 0 0
      FXID {8C74FF86-F079-4069-ACD7-26EA32BACCED}
      WAK 0
      BYPASS 0 0
      <VST "VSTi: ReaSynth (Cockos)" "reasynth.dll" 0 ""
        eXNlcu9e7f4AAAAAAgAAAAEAAAAAAAAAAgAAAAAAAAA4AAAAAAAAAA==
        AAAQAO++rd4N8K3eppvEOxe30ToAAIA/AAAAAAAAAADMm4A+6WeIPQ==
        AAAAAAAAAD8AAIA/AACAPwAAAD8AABAAAAA=
      >
      FLOATPOS 0 0 0 0
      FXID {F2BD833A-2FD9-4F36-9C03-331DFEA52B83}
      WAK 0
    >
    <ITEM
      POSITION 0.00000000000000
      SNAPOFFS 0.00000000000000
      LENGTH 63.47100000000000
      LOOP 0
      ALLTAKES 0
      SEL 0
      FADEIN 1 0.000000 0.000000 1 0
      FADEOUT 1 0.000000 0.000000 1 0
      MUTE 0
      IGUID {0DE5114D-CF7F-4AF9-88CD-DADD91AF85EB}
      IID 7
      NAME "PART REAL_KEYS_X"
      VOLPAN 1.000000 0.000000 1.000000 -1.000000
      SOFFS 0.00000000000000 0.00000000000000
      PLAYRATE 1.00000000000000 1 0.00000000000000 -1
      CHANMODE 0
      GUID {6D6896B4-6B83-4863-B258-FA6BB965F879}
      <SOURCE MIDI
        HASDATA 1 480 QN
        POOLEDEVTS {BB99D990-262B-41E9-964E-E55B57ABEF22}
        <X 0 0
          /wNQQVJUIFJFQUxfS0VZU19Y
        >
        E 0 90 05 60
        E 60 80 05 00
        <X 42180 0
          /wFbYmVnaW5fa2V5IHNvbmdfdHJhaW5lcl9rZXlfMV0=
        >
        E 0 90 44 60
        E 0 90 74 60
        E 58 80 44 40
        E 62 90 3f 60
        E 58 80 3f 40
        E 62 90 3c 60
        E 58 80 3c 40
        E 62 90 3a 60
        E 58 80 3a 40
        E 62 90 44 60
        E 58 80 44 40
        E 62 90 3f 60
        E 58 80 3f 40
        E 62 90 3c 60
        E 58 80 3c 40
        E 62 90 38 60
        E 58 80 38 40
        E 62 90 44 60
        E 58 80 44 40
        E 62 90 3f 60
        E 58 80 3f 40
        E 62 90 3c 60
        E 58 80 3c 40
        E 62 90 3a 60
        E 58 80 3a 40
        E 62 90 44 60
        E 58 80 44 40
        E 62 90 3f 60
        E 58 80 3f 40
        E 62 90 3c 60
        E 58 80 3c 40
        E 62 90 38 60
        E 58 80 38 40
        E 62 80 74 00
        E 0 90 44 60
        E 58 80 44 40
        E 62 90 40 60
        E 58 80 40 40
        E 62 90 3d 60
        E 58 80 3d 40
        E 62 90 3b 60
        E 58 80 3b 40
        E 62 90 44 60
        E 58 80 44 40
        E 62 90 40 60
        E 58 80 40 40
        E 62 90 3d 60
        E 58 80 3d 40
        E 62 90 38 60
        E 58 80 38 40
        E 62 90 44 60
        E 58 80 44 40
        E 62 90 40 60
        E 58 80 40 40
        E 62 90 3d 60
        E 58 80 3d 40
        E 62 90 3b 60
        E 58 80 3b 40
        E 62 90 44 60
        E 58 80 44 40
        E 62 90 40 60
        E 58 80 40 40
        E 62 90 3d 60
        E 58 80 3d 40
        E 62 90 38 60
        E 58 80 38 40
        E 62 90 44 60
        E 58 80 44 40
        E 62 90 3f 60
        E 58 80 3f 40
        E 62 90 3d 60
        E 58 80 3d 40
        E 62 90 3a 60
        E 58 80 3a 40
        E 62 90 44 60
        E 58 80 44 40
        E 62 90 3f 60
        E 58 80 3f 40
        E 62 90 3d 60
        E 58 80 3d 40
        E 62 90 38 60
        E 58 80 38 40
        E 62 90 44 60
        E 58 80 44 40
        E 62 90 3f 60
        E 58 80 3f 40
        E 62 90 3d 60
        E 58 80 3d 40
        E 62 90 3a 60
        E 58 80 3a 40
        E 62 90 44 60
        E 58 80 44 40
        E 62 90 3f 60
        E 58 80 3f 40
        E 62 90 3d 60
        E 58 80 3d 40
        E 62 90 38 60
        E 58 80 38 40
        E 62 90 44 60
        E 58 80 44 40
        E 62 90 3f 60
        E 58 80 3f 40
        E 62 90 3c 60
        E 58 80 3c 40
        E 62 90 3a 60
        E 58 80 3a 40
        E 62 90 44 60
        E 58 80 44 40
        E 62 90 3f 60
        E 58 80 3f 40
        E 62 90 3c 60
        E 58 80 3c 40
        E 62 90 38 60
        E 58 80 38 40
        E 62 90 44 60
        E 58 80 44 40
        E 62 90 3f 60
        E 58 80 3f 40
        E 62 90 3c 60
        E 58 80 3c 40
        E 62 90 3a 60
        E 58 80 3a 40
        E 62 90 44 60
        E 58 80 44 40
        E 62 90 3f 60
        E 58 80 3f 40
        E 62 90 3c 60
        E 58 80 3c 40
        E 62 90 38 60
        E 58 80 38 40
        <X 62 0
          /wFbZW5kX2tleSBzb25nX3RyYWluZXJfa2V5XzFd
        >
        E 0 90 44 60
        E 58 80 44 40
        E 62 90 3f 60
        E 58 80 3f 40
        E 62 90 3c 60
        E 58 80 3c 40
        E 62 90 3a 60
        E 58 80 3a 40
        E 62 90 44 60
        E 58 80 44 40
        E 62 90 3f 60
        E 58 80 3f 40
        E 62 90 3c 60
        E 58 80 3c 40
        E 62 90 38 60
        E 58 80 38 40
        E 62 90 44 60
        E 58 80 44 40
        E 62 90 3f 60
        E 58 80 3f 40
        E 62 90 3c 60
        E 58 80 3c 40
        E 62 90 3a 60
        E 58 80 3a 40
        E 62 90 44 60
        E 58 80 44 40
        E 62 90 3f 60
        E 58 80 3f 40
        E 62 90 3c 60
        E 58 80 3c 40
        E 62 90 38 60
        E 58 80 38 40
        E 62 90 44 60
        E 58 80 44 40
        E 62 90 40 60
        E 58 80 40 40
        E 62 90 3d 60
        E 58 80 3d 40
        E 62 90 3b 60
        E 58 80 3b 40
        E 62 90 44 60
        E 58 80 44 40
        E 62 90 40 60
        E 58 80 40 40
        E 62 90 3d 60
        E 58 80 3d 40
        E 62 90 38 60
        E 58 80 38 40
        E 62 90 44 60
        E 58 80 44 40
        E 62 90 40 60
        E 58 80 40 40
        E 62 90 3d 60
        E 58 80 3d 40
        E 62 90 3b 60
        E 58 80 3b 40
        E 62 90 44 60
        E 58 80 44 40
        E 62 90 40 60
        E 58 80 40 40
        E 62 90 3d 60
        E 58 80 3d 40
        E 62 90 38 60
        E 58 80 38 40
        E 62 90 44 60
        E 58 80 44 40
        E 62 90 3f 60
        E 58 80 3f 40
        E 62 90 3d 60
        E 58 80 3d 40
        E 62 90 3a 60
        E 58 80 3a 40
        E 62 90 44 60
        E 58 80 44 40
        E 62 90 3f 60
        E 58 80 3f 40
        E 62 90 3d 60
        E 58 80 3d 40
        E 62 90 38 60
        E 58 80 38 40
        E 62 90 44 60
        E 58 80 44 40
        E 62 90 3f 60
        E 58 80 3f 40
        E 62 90 3d 60
        E 58 80 3d 40
        E 62 90 3a 60
        E 58 80 3a 40
        E 62 90 44 60
        E 58 80 44 40
        E 62 90 3f 60
        E 58 80 3f 40
        E 62 90 3d 60
        E 58 80 3d 40
        E 62 90 38 60
        E 58 80 38 40
        E 62 90 44 60
        E 58 80 44 40
        E 62 90 3f 60
        E 58 80 3f 40
        E 62 90 3c 60
        E 58 80 3c 40
        E 62 90 3a 60
        E 58 80 3a 40
        E 62 90 44 60
        E 58 80 44 40
        E 62 90 3f 60
        E 58 80 3f 40
        E 62 90 3c 60
        E 58 80 3c 40
        E 62 90 38 60
        E 58 80 38 40
        E 62 90 44 60
        E 58 80 44 40
        E 62 90 3f 60
        E 58 80 3f 40
        E 62 90 3c 60
        E 58 80 3c 40
        E 62 90 3a 60
        E 58 80 3a 40
        E 62 90 44 60
        E 58 80 44 40
        E 62 90 3f 60
        E 58 80 3f 40
        E 62 90 3c 60
        E 58 80 3c 40
        E 182 90 44 60
        E 1919 80 44 00
        E 1921 b0 7b 00
        GUID {5718C8AC-E157-4669-9F80-E71422B5BAE4}
        IGNTEMPO 0 120.00000000 4 4
        SRCCOLOR 10
        VELLANE 132 128 60
        COLORMAP "C:\Program Files\REAPER (x64)\Data\color_maps\rockband_guitarbass.png"
        CFGEDITVIEW -4118.682102 17.156936 0 13 0 0 0
        CFGEDIT 1 1 0 1 1 0 1 1 1 1 1 0.25000000 -8 -8 1544 872 0 2 1 1 0.00000000 0 1 0 0 0.500000 0 0 1.000000 64
        KEYSNAP 0 6 "102030050700" 0 "Pentatonic"
        EVTFILTER 0 -1 -1 -1 -1 0 1 0 0 -1.00000000 -1.00000000
      >
    >
  >
  <TRACK '{18003518-F88A-4E37-9688-2D859DBC3AB7}'
    NAME "PART REAL_KEYS_H"
    PEAKCOL 16576
    BEAT -1
    AUTOMODE 0
    VOLPAN 1.00000000000000 0.00000000000000 -1.00000000000000 -1.00000000000000 1.00000000000000
    MUTESOLO 0 0 0
    IPHASE 0
    ISBUS 0 0
    BUSCOMP 0 0
    SHOWINMIX 1 0.666700 0.500000 1 0.500000 -1 -1 -1
    FREEMODE 0
    SEL 0
    REC 0 0 0 0 0 0 0
    VU 2
    TRACKHEIGHT 0 0
    INQ 0 0 0 0.5000000000 100 0 0 100
    NCHAN 2
    FX 1
    TRACKID {18003518-F88A-4E37-9688-2D859DBC3AB7}
    PERF 0
    MIDIOUT -1
    <MIDINOTENAMES
      0 72 "Highest playable note B#3"
      0 71 "B3"
      0 70 "A#3"
      0 69 "A3"
      0 68 "G#3"
      0 67 "G3"
      0 66 "F#3"
      0 65 "F3"
      0 64 "E3"
      0 63 "D#3"
      0 62 "D3"
      0 61 "C#3"
      0 60 "C3"
      0 59 "B2"
      0 58 "A#2"
      0 57 "A2"
      0 56 "G#2"
      0 55 "G2"
      0 54 "F#2"
      0 53 "F2"
      0 52 "E2"
      0 51 "D#2"
      0 50 "D2"
      0 49 "C#2"
      0 48 "Lowest playable note C2"
      0 10 "---"
      0 9 "Range A2-C4"
      0 8 "Range"
      0 7 "Range"
      0 6 "Range"
      0 5 "Range F2-A3"
      0 4 "Range"
      0 3 "Range"
      0 2 "Range"
      0 1 "Range"
      0 0 "Range C2-E3"
    >
    MAINSEND 1 0
    <FXCHAIN
      SHOW 0
      LASTSEL 0
      DOCKED 0
    >
    <ITEM
      POSITION 0.00000000000000
      SNAPOFFS 0.00000000000000
      LENGTH 63.47100000000000
      LOOP 0
      ALLTAKES 0
      SEL 0
      FADEIN 1 0.000000 0.000000 1 0
      FADEOUT 1 0.000000 0.000000 1 0
      MUTE 0
      IGUID {5E1CEE6D-F79D-438D-926E-27F9A9926D76}
      IID 8
      NAME "PART REAL_KEYS_H"
      VOLPAN 1.000000 0.000000 1.000000 -1.000000
      SOFFS 0.00000000000000 0.00000000000000
      PLAYRATE 1.00000000000000 1 0.00000000000000 -1
      CHANMODE 0
      GUID {242E7CE0-F70E-429E-8539-7453BC44B7C4}
      <SOURCE MIDI
        HASDATA 1 480 QN
        POOLEDEVTS {2088B42E-8F27-4928-8DC9-CFB62389A453}
        <X 0 0
          /wNQQVJUIFJFQUxfS0VZU19I
        >
        E 0 90 05 60
        E 60 80 05 00
        E 42180 90 44 60
        E 58 80 44 00
        E 182 90 3c 60
        E 58 80 3c 00
        E 182 90 44 60
        E 58 80 44 00
        E 182 90 3c 60
        E 58 80 3c 00
        E 182 90 44 60
        E 58 80 44 00
        E 182 90 3c 60
        E 58 80 3c 00
        E 182 90 44 60
        E 58 80 44 00
        E 182 90 3c 60
        E 58 80 3c 00
        E 182 90 44 60
        E 58 80 44 00
        E 182 90 3d 60
        E 58 80 3d 00
        E 182 90 44 60
        E 58 80 44 00
        E 182 90 3d 60
        E 58 80 3d 00
        E 182 90 44 60
        E 58 80 44 00
        E 182 90 3d 60
        E 58 80 3d 00
        E 182 90 44 60
        E 58 80 44 00
        E 182 90 3d 60
        E 58 80 3d 00
        E 182 90 44 60
        E 58 80 44 00
        E 182 90 3d 60
        E 58 80 3d 00
        E 182 90 44 60
        E 58 80 44 00
        E 182 90 3d 60
        E 58 80 3d 00
        E 182 90 44 60
        E 58 80 44 00
        E 182 90 3d 60
        E 58 80 3d 00
        E 182 90 44 60
        E 58 80 44 00
        E 182 90 3d 60
        E 58 80 3d 00
        E 182 90 44 60
        E 58 80 44 00
        E 182 90 3c 60
        E 58 80 3c 00
        E 182 90 44 60
        E 58 80 44 00
        E 182 90 3c 60
        E 58 80 3c 00
        E 182 90 44 60
        E 58 80 44 00
        E 182 90 3c 60
        E 58 80 3c 00
        E 182 90 44 60
        E 58 80 44 00
        E 182 90 3c 60
        E 58 80 3c 00
        E 182 90 44 60
        E 58 80 44 00
        E 182 90 3c 60
        E 58 80 3c 00
        E 182 90 44 60
        E 58 80 44 00
        E 182 90 3c 60
        E 58 80 3c 00
        E 182 90 44 60
        E 58 80 44 00
        E 182 90 3c 60
        E 58 80 3c 00
        E 182 90 44 60
        E 58 80 44 00
        E 182 90 3c 60
        E 58 80 3c 00
        E 182 90 44 60
        E 58 80 44 00
        E 182 90 3d 60
        E 58 80 3d 00
        E 182 90 44 60
        E 58 80 44 00
        E 182 90 3d 60
        E 58 80 3d 00
        E 182 90 44 60
        E 58 80 44 00
        E 182 90 3d 60
        E 58 80 3d 00
        E 182 90 44 60
        E 58 80 44 00
        E 182 90 3d 60
        E 58 80 3d 00
        E 182 90 44 60
        E 58 80 44 00
        E 182 90 3d 60
        E 58 80 3d 00
        E 182 90 44 60
        E 58 80 44 00
        E 182 90 3d 60
        E 58 80 3d 00
        E 182 90 44 60
        E 58 80 44 00
        E 182 90 3d 60
        E 58 80 3d 00
        E 182 90 44 60
        E 58 80 44 00
        E 182 90 3d 60
        E 58 80 3d 00
        E 182 90 44 60
        E 58 80 44 00
        E 182 90 3c 60
        E 58 80 3c 00
        E 182 90 44 60
        E 58 80 44 00
        E 182 90 3c 60
        E 58 80 3c 00
        E 182 90 44 60
        E 58 80 44 00
        E 182 90 3c 60
        E 58 80 3c 00
        E 182 90 44 60
        E 58 80 44 00
        E 182 90 3c 60
        E 58 80 3c 00
        E 182 90 44 60
        E 1919 80 44 00
        E 1921 b0 7b 00
        GUID {49BF0B60-49E9-4FC9-8846-9CA1572D8779}
        IGNTEMPO 0 120.00000000 4 4
        SRCCOLOR 11
        VELLANE 132 128 60
        COLORMAP "C:\Program Files\REAPER (x64)\Data\color_maps\rockband_guitarbass.png"
        CFGEDITVIEW 0.000000 0.000000 4 15 0 0 0
        CFGEDIT 1 1 0 1 1 0 1 1 1 1 1 0.25000000 -8 -8 1544 872 0 2 1 1 0.00000000 0 1 0 0 0.500000 0 0 1.000000 64
        KEYSNAP 0 6 "102030050700" 0 "Pentatonic"
        EVTFILTER 0 -1 -1 -1 -1 0 1 0 0 -1.00000000 -1.00000000
      >
    >
  >
  <TRACK '{CCEF700F-7AA8-45DA-9B97-B5515DBEA1B9}'
    NAME "PART REAL_KEYS_M"
    PEAKCOL 16576
    BEAT -1
    AUTOMODE 0
    VOLPAN 1.00000000000000 0.00000000000000 -1.00000000000000 -1.00000000000000 1.00000000000000
    MUTESOLO 0 0 0
    IPHASE 0
    ISBUS 0 0
    BUSCOMP 0 0
    SHOWINMIX 1 0.666700 0.500000 1 0.500000 -1 -1 -1
    FREEMODE 0
    SEL 0
    REC 0 0 0 0 0 0 0
    VU 2
    TRACKHEIGHT 0 0
    INQ 0 0 0 0.5000000000 100 0 0 100
    NCHAN 2
    FX 1
    TRACKID {CCEF700F-7AA8-45DA-9B97-B5515DBEA1B9}
    PERF 0
    MIDIOUT -1
    <MIDINOTENAMES
      0 72 "Highest playable note B#3"
      0 71 "B3"
      0 70 "A#3"
      0 69 "A3"
      0 68 "G#3"
      0 67 "G3"
      0 66 "F#3"
      0 65 "F3"
      0 64 "E3"
      0 63 "D#3"
      0 62 "D3"
      0 61 "C#3"
      0 60 "C3"
      0 59 "B2"
      0 58 "A#2"
      0 57 "A2"
      0 56 "G#2"
      0 55 "G2"
      0 54 "F#2"
      0 53 "F2"
      0 52 "E2"
      0 51 "D#2"
      0 50 "D2"
      0 49 "C#2"
      0 48 "Lowest playable note C2"
      0 10 "---"
      0 9 "Range A2-C4"
      0 8 "Range"
      0 7 "Range"
      0 6 "Range"
      0 5 "Range F2-A3"
      0 4 "Range"
      0 3 "Range"
      0 2 "Range"
      0 1 "Range"
      0 0 "Range C2-E3"
    >
    MAINSEND 1 0
    <FXCHAIN
      SHOW 0
      LASTSEL 0
      DOCKED 0
    >
    <ITEM
      POSITION 0.00000000000000
      SNAPOFFS 0.00000000000000
      LENGTH 63.47100000000000
      LOOP 0
      ALLTAKES 0
      SEL 0
      FADEIN 1 0.000000 0.000000 1 0
      FADEOUT 1 0.000000 0.000000 1 0
      MUTE 0
      IGUID {978565A7-6B42-447A-822C-96AD485A1658}
      IID 9
      NAME "PART REAL_KEYS_M"
      VOLPAN 1.000000 0.000000 1.000000 -1.000000
      SOFFS 0.00000000000000 0.00000000000000
      PLAYRATE 1.00000000000000 1 0.00000000000000 -1
      CHANMODE 0
      GUID {63402FAC-46AA-4141-A6EC-4EE9A1BEC0A6}
      <SOURCE MIDI
        HASDATA 1 480 QN
        POOLEDEVTS {164625D9-48A4-4694-9BB2-D77D8B95D946}
        <X 0 0
          /wNQQVJUIFJFQUxfS0VZU19N
        >
        E 0 90 05 60
        E 60 80 05 00
        E 42180 90 44 60
        E 58 80 44 00
        E 422 90 44 60
        E 58 80 44 00
        E 422 90 44 60
        E 58 80 44 00
        E 422 90 44 60
        E 58 80 44 00
        E 422 90 44 60
        E 58 80 44 00
        E 422 90 44 60
        E 58 80 44 00
        E 422 90 44 60
        E 58 80 44 00
        E 422 90 44 60
        E 58 80 44 00
        E 422 90 44 60
        E 58 80 44 00
        E 422 90 44 60
        E 58 80 44 00
        E 422 90 44 60
        E 58 80 44 00
        E 422 90 44 60
        E 58 80 44 00
        E 422 90 44 60
        E 58 80 44 00
        E 422 90 44 60
        E 58 80 44 00
        E 422 90 44 60
        E 58 80 44 00
        E 422 90 44 60
        E 58 80 44 00
        E 422 90 44 60
        E 58 80 44 00
        E 422 90 44 60
        E 58 80 44 00
        E 422 90 44 60
        E 58 80 44 00
        E 422 90 44 60
        E 58 80 44 00
        E 422 90 44 60
        E 58 80 44 00
        E 422 90 44 60
        E 58 80 44 00
        E 422 90 44 60
        E 58 80 44 00
        E 422 90 44 60
        E 58 80 44 00
        E 422 90 44 60
        E 58 80 44 00
        E 422 90 44 60
        E 58 80 44 00
        E 422 90 44 60
        E 58 80 44 00
        E 422 90 44 60
        E 58 80 44 00
        E 422 90 44 60
        E 58 80 44 00
        E 422 90 44 60
        E 58 80 44 00
        E 422 90 44 60
        E 58 80 44 00
        E 422 90 44 60
        E 58 80 44 00
        E 422 90 44 60
        E 1919 80 44 00
        E 1921 b0 7b 00
        GUID {67DA396F-CB7C-4D23-A3A0-BBE42EEF78CA}
        IGNTEMPO 0 120.00000000 4 4
        SRCCOLOR 12
        VELLANE 132 128 60
        COLORMAP "C:\Program Files\REAPER (x64)\Data\color_maps\rockband_guitarbass.png"
        CFGEDITVIEW 0.000000 0.000000 0 15 0 0 0
        CFGEDIT 1 1 0 1 1 0 1 1 1 1 1 0.25000000 -8 -8 1544 872 0 2 1 1 0.00000000 0 1 0 0 0.500000 0 0 1.000000 64
        KEYSNAP 0 6 "102030050700" 0 "Pentatonic"
        EVTFILTER 0 -1 -1 -1 -1 0 1 0 0 -1.00000000 -1.00000000
      >
    >
  >
  <TRACK '{BA207A79-3A78-4123-8807-7CEA245CCD40}'
    NAME "PART REAL_KEYS_E"
    PEAKCOL 16576
    BEAT -1
    AUTOMODE 0
    VOLPAN 1.00000000000000 0.00000000000000 -1.00000000000000 -1.00000000000000 1.00000000000000
    MUTESOLO 0 0 0
    IPHASE 0
    ISBUS 0 0
    BUSCOMP 0 0
    SHOWINMIX 1 0.666700 0.500000 1 0.500000 -1 -1 -1
    FREEMODE 0
    SEL 0
    REC 0 0 0 0 0 0 0
    VU 2
    TRACKHEIGHT 0 0
    INQ 0 0 0 0.5000000000 100 0 0 100
    NCHAN 2
    FX 1
    TRACKID {BA207A79-3A78-4123-8807-7CEA245CCD40}
    PERF 0
    MIDIOUT -1
    <MIDINOTENAMES
      0 72 "Highest playable note B#3"
      0 71 "B3"
      0 70 "A#3"
      0 69 "A3"
      0 68 "G#3"
      0 67 "G3"
      0 66 "F#3"
      0 65 "F3"
      0 64 "E3"
      0 63 "D#3"
      0 62 "D3"
      0 61 "C#3"
      0 60 "C3"
      0 59 "B2"
      0 58 "A#2"
      0 57 "A2"
      0 56 "G#2"
      0 55 "G2"
      0 54 "F#2"
      0 53 "F2"
      0 52 "E2"
      0 51 "D#2"
      0 50 "D2"
      0 49 "C#2"
      0 48 "Lowest playable note C2"
      0 10 "---"
      0 9 "Range A2-C4"
      0 8 "Range"
      0 7 "Range"
      0 6 "Range"
      0 5 "Range F2-A3"
      0 4 "Range"
      0 3 "Range"
      0 2 "Range"
      0 1 "Range"
      0 0 "Range C2-E3"
    >
    MAINSEND 1 0
    <FXCHAIN
      SHOW 0
      LASTSEL 0
      DOCKED 0
    >
    <ITEM
      POSITION 0.00000000000000
      SNAPOFFS 0.00000000000000
      LENGTH 63.47100000000000
      LOOP 0
      ALLTAKES 0
      SEL 0
      FADEIN 1 0.000000 0.000000 1 0
      FADEOUT 1 0.000000 0.000000 1 0
      MUTE 0
      IGUID {2B9957C0-5951-47E8-B1FC-AAE58E48AB35}
      IID 10
      NAME "PART REAL_KEYS_E"
      VOLPAN 1.000000 0.000000 1.000000 -1.000000
      SOFFS 0.00000000000000 0.00000000000000
      PLAYRATE 1.00000000000000 1 0.00000000000000 -1
      CHANMODE 0
      GUID {A65A7E56-1208-41C9-9D83-57C4FB00FF89}
      <SOURCE MIDI
        HASDATA 1 480 QN
        POOLEDEVTS {DD8E5A74-FCB0-413B-9C3D-8A217B6A24CE}
        <X 0 0
          /wNQQVJUIFJFQUxfS0VZU19F
        >
        E 0 90 05 60
        E 60 80 05 00
        E 42180 90 44 60
        E 58 80 44 00
        E 902 90 44 60
        E 58 80 44 00
        E 902 90 44 60
        E 58 80 44 00
        E 902 90 44 60
        E 58 80 44 00
        E 902 90 44 60
        E 58 80 44 00
        E 902 90 44 60
        E 58 80 44 00
        E 902 90 44 60
        E 58 80 44 00
        E 902 90 44 60
        E 58 80 44 00
        E 902 90 44 60
        E 58 80 44 00
        E 902 90 44 60
        E 58 80 44 00
        E 902 90 44 60
        E 58 80 44 00
        E 902 90 44 60
        E 58 80 44 00
        E 902 90 44 60
        E 58 80 44 00
        E 902 90 44 60
        E 58 80 44 00
        E 902 90 44 60
        E 58 80 44 00
        E 902 90 44 60
        E 58 80 44 00
        E 902 90 44 60
        E 1919 80 44 00
        E 1921 b0 7b 00
        GUID {50F29A32-9AA1-4FB5-A0DA-D6C7A7D7F6F1}
        IGNTEMPO 0 120.00000000 4 4
        SRCCOLOR 13
        VELLANE 132 128 60
        COLORMAP "C:\Program Files\REAPER (x64)\Data\color_maps\rockband_guitarbass.png"
        CFGEDITVIEW -4118.682102 17.156936 0 15 0 0 0
        CFGEDIT 1 1 0 1 1 0 1 1 1 1 1 0.25000000 -8 -8 1544 872 0 2 1 1 0.00000000 0 1 0 0 0.500000 0 0 1.000000 64
        KEYSNAP 0 6 "102030050700" 0 "Pentatonic"
        EVTFILTER 0 -1 -1 -1 -1 0 1 0 0 -1.00000000 -1.00000000
      >
    >
  >
  <TRACK '{3FAF1F09-ADF1-4AAF-8707-A39E02E731D0}'
    NAME "PART KEYS_ANIM_RH"
    PEAKCOL 16576
    BEAT -1
    AUTOMODE 0
    VOLPAN 1.00000000000000 0.00000000000000 -1.00000000000000 -1.00000000000000 1.00000000000000
    MUTESOLO 0 0 0
    IPHASE 0
    ISBUS 0 0
    BUSCOMP 0 0
    SHOWINMIX 1 0.666700 0.500000 1 0.500000 -1 -1 -1
    FREEMODE 0
    SEL 0
    REC 0 0 0 0 0 0 0
    VU 2
    TRACKHEIGHT 0 0
    INQ 0 0 0 0.5000000000 100 0 0 100
    NCHAN 2
    FX 1
    TRACKID {3FAF1F09-ADF1-4AAF-8707-A39E02E731D0}
    PERF 0
    MIDIOUT -1
    <MIDINOTENAMES
      0 72 "Highest playable note B#3"
      0 71 "B3"
      0 70 "A#3"
      0 69 "A3"
      0 68 "G#3"
      0 67 "G3"
      0 66 "F#3"
      0 65 "F3"
      0 64 "E3"
      0 63 "D#3"
      0 62 "D3"
      0 61 "C#3"
      0 60 "C3"
      0 59 "B2"
      0 58 "A#2"
      0 57 "A2"
      0 56 "G#2"
      0 55 "G2"
      0 54 "F#2"
      0 53 "F2"
      0 52 "E2"
      0 51 "D#2"
      0 50 "D2"
      0 49 "C#2"
      0 48 "Lowest playable note C2"
    >
    MAINSEND 1 0
    <FXCHAIN
      SHOW 0
      LASTSEL 0
      DOCKED 0
    >
    <ITEM
      POSITION 0.00000000000000
      SNAPOFFS 0.00000000000000
      LENGTH 63.47100000000000
      LOOP 0
      ALLTAKES 0
      SEL 0
      FADEIN 1 0.000000 0.000000 1 0
      FADEOUT 1 0.000000 0.000000 1 0
      MUTE 0
      IGUID {BDA03EAB-1DCF-49BC-8C6B-EFA83727ADE0}
      IID 11
      NAME "PART KEYS_ANIM_RH"
      VOLPAN 1.000000 0.000000 1.000000 -1.000000
      SOFFS 0.00000000000000 0.00000000000000
      PLAYRATE 1.00000000000000 1 0.00000000000000 -1
      CHANMODE 0
      GUID {3A33CD33-1B83-4101-8880-F9C3E1ED123B}
      <SOURCE MIDI
        HASDATA 1 480 QN
        POOLEDEVTS {6211F94D-03C5-4818-8A93-8967FB11F9CB}
        <X 0 0
          /wNQQVJUIEtFWVNfQU5JTV9SSA==
        >
        E 42240 90 44 60
        E 58 80 44 40
        E 62 90 3f 60
        E 58 80 3f 40
        E 62 90 3c 60
        E 58 80 3c 40
        E 62 90 3a 60
        E 58 80 3a 40
        E 62 90 44 60
        E 58 80 44 40
        E 62 90 3f 60
        E 58 80 3f 40
        E 62 90 3c 60
        E 58 80 3c 40
        E 62 90 38 60
        E 58 80 38 40
        E 62 90 44 60
        E 58 80 44 40
        E 62 90 3f 60
        E 58 80 3f 40
        E 62 90 3c 60
        E 58 80 3c 40
        E 62 90 3a 60
        E 58 80 3a 40
        E 62 90 44 60
        E 58 80 44 40
        E 62 90 3f 60
        E 58 80 3f 40
        E 62 90 3c 60
        E 58 80 3c 40
        E 62 90 38 60
        E 58 80 38 40
        E 62 90 44 60
        E 58 80 44 40
        E 62 90 40 60
        E 58 80 40 40
        E 62 90 3d 60
        E 58 80 3d 40
        E 62 90 3b 60
        E 58 80 3b 40
        E 62 90 44 60
        E 58 80 44 40
        E 62 90 40 60
        E 58 80 40 40
        E 62 90 3d 60
        E 58 80 3d 40
        E 62 90 38 60
        E 58 80 38 40
        E 62 90 44 60
        E 58 80 44 40
        E 62 90 40 60
        E 58 80 40 40
        E 62 90 3d 60
        E 58 80 3d 40
        E 62 90 3b 60
        E 58 80 3b 40
        E 62 90 44 60
        E 58 80 44 40
        E 62 90 40 60
        E 58 80 40 40
        E 62 90 3d 60
        E 58 80 3d 40
        E 62 90 38 60
        E 58 80 38 40
        E 62 90 44 60
        E 58 80 44 40
        E 62 90 3f 60
        E 58 80 3f 40
        E 62 90 3d 60
        E 58 80 3d 40
        E 62 90 3a 60
        E 58 80 3a 40
        E 62 90 44 60
        E 58 80 44 40
        E 62 90 3f 60
        E 58 80 3f 40
        E 62 90 3d 60
        E 58 80 3d 40
        E 62 90 38 60
        E 58 80 38 40
        E 62 90 44 60
        E 58 80 44 40
        E 62 90 3f 60
        E 58 80 3f 40
        E 62 90 3d 60
        E 58 80 3d 40
        E 62 90 3a 60
        E 58 80 3a 40
        E 62 90 44 60
        E 58 80 44 40
        E 62 90 3f 60
        E 58 80 3f 40
        E 62 90 3d 60
        E 58 80 3d 40
        E 62 90 38 60
        E 58 80 38 40
        E 62 90 44 60
        E 58 80 44 40
        E 62 90 3f 60
        E 58 80 3f 40
        E 62 90 3c 60
        E 58 80 3c 40
        E 62 90 3a 60
        E 58 80 3a 40
        E 62 90 44 60
        E 58 80 44 40
        E 62 90 3f 60
        E 58 80 3f 40
        E 62 90 3c 60
        E 58 80 3c 40
        E 62 90 38 60
        E 58 80 38 40
        E 62 90 44 60
        E 58 80 44 40
        E 62 90 3f 60
        E 58 80 3f 40
        E 62 90 3c 60
        E 58 80 3c 40
        E 62 90 3a 60
        E 58 80 3a 40
        E 62 90 44 60
        E 58 80 44 40
        E 62 90 3f 60
        E 58 80 3f 40
        E 62 90 3c 60
        E 58 80 3c 40
        E 62 90 38 60
        E 58 80 38 40
        E 62 90 44 60
        E 58 80 44 40
        E 62 90 3f 60
        E 58 80 3f 40
        E 62 90 3c 60
        E 58 80 3c 40
        E 62 90 3a 60
        E 58 80 3a 40
        E 62 90 44 60
        E 58 80 44 40
        E 62 90 3f 60
        E 58 80 3f 40
        E 62 90 3c 60
        E 58 80 3c 40
        E 62 90 38 60
        E 58 80 38 40
        E 62 90 44 60
        E 58 80 44 40
        E 62 90 3f 60
        E 58 80 3f 40
        E 62 90 3c 60
        E 58 80 3c 40
        E 62 90 3a 60
        E 58 80 3a 40
        E 62 90 44 60
        E 58 80 44 40
        E 62 90 3f 60
        E 58 80 3f 40
        E 62 90 3c 60
        E 58 80 3c 40
        E 62 90 38 60
        E 58 80 38 40
        E 62 90 44 60
        E 58 80 44 40
        E 62 90 40 60
        E 58 80 40 40
        E 62 90 3d 60
        E 58 80 3d 40
        E 62 90 3b 60
        E 58 80 3b 40
        E 62 90 44 60
        E 58 80 44 40
        E 62 90 40 60
        E 58 80 40 40
        E 62 90 3d 60
        E 58 80 3d 40
        E 62 90 38 60
        E 58 80 38 40
        E 62 90 44 60
        E 58 80 44 40
        E 62 90 40 60
        E 58 80 40 40
        E 62 90 3d 60
        E 58 80 3d 40
        E 62 90 3b 60
        E 58 80 3b 40
        E 62 90 44 60
        E 58 80 44 40
        E 62 90 40 60
        E 58 80 40 40
        E 62 90 3d 60
        E 58 80 3d 40
        E 62 90 38 60
        E 58 80 38 40
        E 62 90 44 60
        E 58 80 44 40
        E 62 90 3f 60
        E 58 80 3f 40
        E 62 90 3d 60
        E 58 80 3d 40
        E 62 90 3a 60
        E 58 80 3a 40
        E 62 90 44 60
        E 58 80 44 40
        E 62 90 3f 60
        E 58 80 3f 40
        E 62 90 3d 60
        E 58 80 3d 40
        E 62 90 38 60
        E 58 80 38 40
        E 62 90 44 60
        E 58 80 44 40
        E 62 90 3f 60
        E 58 80 3f 40
        E 62 90 3d 60
        E 58 80 3d 40
        E 62 90 3a 60
        E 58 80 3a 40
        E 62 90 44 60
        E 58 80 44 40
        E 62 90 3f 60
        E 58 80 3f 40
        E 62 90 3d 60
        E 58 80 3d 40
        E 62 90 38 60
        E 58 80 38 40
        E 62 90 44 60
        E 58 80 44 40
        E 62 90 3f 60
        E 58 80 3f 40
        E 62 90 3c 60
        E 58 80 3c 40
        E 62 90 3a 60
        E 58 80 3a 40
        E 62 90 44 60
        E 58 80 44 40
        E 62 90 3f 60
        E 58 80 3f 40
        E 62 90 3c 60
        E 58 80 3c 40
        E 62 90 38 60
        E 58 80 38 40
        E 62 90 44 60
        E 58 80 44 40
        E 62 90 3f 60
        E 58 80 3f 40
        E 62 90 3c 60
        E 58 80 3c 40
        E 62 90 3a 60
        E 58 80 3a 40
        E 62 90 44 60
        E 58 80 44 40
        E 62 90 3f 60
        E 58 80 3f 40
        E 62 90 3c 60
        E 58 80 3c 40
        E 62 90 38 60
        E 60 80 38 00
        E 60 90 44 60
        E 1919 80 44 00
        E 1921 b0 7b 00
        GUID {1D66485F-F69C-4CA0-918A-0FC7441064CE}
        IGNTEMPO 0 120.00000000 4 4
        SRCCOLOR 14
        VELLANE 132 128 60
        COLORMAP "C:\Program Files\REAPER (x64)\Data\color_maps\rockband_guitarbass.png"
        CFGEDITVIEW 0.000000 0.000000 4 22 0 0 0
        CFGEDIT 1 1 0 1 1 0 1 1 1 1 1 0.25000000 -8 -8 1544 872 0 2 1 1 0.00000000 0 1 0 0 0.500000 0 0 1.000000 64
        KEYSNAP 0 6 "102030050700" 0 "Pentatonic"
        EVTFILTER 0 -1 -1 -1 -1 0 1 0 0 -1.00000000 -1.00000000
      >
    >
  >
  <TRACK '{9CE8134F-2608-414E-85DF-F0EA36AA8FBF}'
    NAME "keys"
    PEAKCOL 16576
    BEAT -1
    AUTOMODE 0
    VOLPAN 1.00000000000000 0.00000000000000 -1.00000000000000 -1.00000000000000 1.00000000000000
    MUTESOLO 0 0 0
    IPHASE 0
    ISBUS 2 -1
    BUSCOMP 0 0
    SHOWINMIX 1 0.666700 0.500000 1 0.500000 -1 -1 -1
    FREEMODE 0
    SEL 0
    REC 0 0 0 0 0 0 0
    VU 2
    TRACKHEIGHT 0 0
    INQ 0 0 0 0.5000000000 100 0 0 100
    NCHAN 2
    FX 1
    TRACKID {9CE8134F-2608-414E-85DF-F0EA36AA8FBF}
    PERF 0
    MIDIOUT -1
    MAINSEND 1 0
    <ITEM
      POSITION 0.00000000000000
      SNAPOFFS 0.00000000000000
      LENGTH 63.47100000000000
      LOOP 0
      ALLTAKES 0
      SEL 0
      FADEIN 1 0.000000 0.000000 1 0
      FADEOUT 1 0.000000 0.000000 1 0
      MUTE 0
      IGUID {87A0D2AA-ADA9-442E-AC1B-4AD9D6FE1907}
      IID 18
      NAME "keys.wav"
      VOLPAN 1.000000 0.000000 1.000000 -1.000000
      SOFFS 0.00000000000000
      PLAYRATE 1.00000000000000 1 0.00000000000000 -1
      CHANMODE 0
      GUID {CCAAB862-ECD3-48B0-BFB3-675BFC2E11CB}
      <SOURCE WAVE
        FILE "wav\keys.wav"
      >
    >
  >
  <TRACK '{3EE9FA9B-F630-493F-91DC-BF2CED097D30}'
    NAME "PART REAL_BASS"
    PEAKCOL 16576
    BEAT -1
    AUTOMODE 0
    VOLPAN 1.00000000000000 0.00000000000000 -1.00000000000000 -1.00000000000000 1.00000000000000
    MUTESOLO 0 0 0
    IPHASE 0
    ISBUS 0 0
    BUSCOMP 0 0
    SHOWINMIX 1 0.666700 0.500000 1 0.500000 -1 -1 -1
    FREEMODE 0
    SEL 0
    REC 0 0 0 0 0 0 0
    VU 2
    TRACKHEIGHT 0 0
    INQ 0 0 0 0.5000000000 100 0 0 100
    NCHAN 2
    FX 0
    TRACKID {3EE9FA9B-F630-493F-91DC-BF2CED097D30}
    PERF 0
    MIDIOUT -1
    <MIDINOTENAMES
      0 127 "Trill Marker"
      0 126 "Tremolo Marker"
      0 125 "BRE"
      0 124 "BRE"
      0 123 "BRE"
      0 122 "BRE"
      0 121 "BRE"
      0 120 "BRE (use all 6)"
      0 119 "-----------"
      0 116 "OVERDRIVE"
      0 115 "Solo Marker"
      0 109 "-----------"
      0 108 "Fret Hand Position"
      0 107 "Force Chord Numbering"
      0 106 "Loose Strumming"
      0 105 "Strum Direction"
      0 104 "Arpeggio Marker"
      0 103 "Slide Marker"
      0 102 "Force HOPO"
      0 101 "EXPERT e String"
      0 100 "EXPERT B String"
      0 99 "EXPERT G String"
      0 98 "EXPERT D String"
      0 97 "EXPERT A String"
      0 96 "EXPERT E String"
      0 95 "-----------"
      0 82 "Loose Strumming"
      0 81 "Strum Direction"
      0 80 "Arpeggio Marker"
      0 79 "Slide Marker"
      0 78 "Force HOPO"
      0 77 "HARD e String"
      0 76 "HARD B String"
      0 75 "HARD G String"
      0 74 "HARD D String"
      0 73 "HARD A String"
      0 72 "HARD E String"
      0 71 "-----------"
      0 58 "Loose Strumming"
      0 56 "Arpeggio Marker"
      0 55 "Slide Marker"
      0 53 "MEDIUM e String"
      0 52 "MEDIUM B String"
      0 51 "MEDIUM G String"
      0 50 "MEDIUM D String"
      0 49 "MEDIUM A String"
      0 48 "MEDIUM E String"
      0 47 "-----------"
      0 32 "Arpeggio Marker"
      0 31 "Slide Marker"
      0 29 "EASY e String"
      0 28 "EASY B String"
      0 27 "EASY G String"
      0 26 "EASY D String"
      0 25 "EASY A String"
      0 24 "EASY E String"
      0 21 "-----------"
      0 18 "Flat/Sharp Swap"
      0 17 "Hide Chord Names"
      0 16 "Slash Chord"
      0 15 "D#"
      0 14 "D"
      0 13 "C#"
      0 12 "C"
      0 11 "B"
      0 10 "A#"
      0 9 "A"
      0 8 "G#"
      0 7 "G"
      0 6 "F#"
      0 5 "F"
      0 4 "E"
    >
    MAINSEND 1 0
    <FXCHAIN
      WNDRECT 0 43 655 467
      SHOW 0
      LASTSEL 2
      DOCKED 0
      BYPASS 0 0
      <JS "c3/progtr" ""
        0.000000 3.000000 0.000000 0.000000 0.000000 0.000000 0.000000 0.000000 0.000000 1.000000 - - - - - - - - - - - - - - - - - - - - - - - - - - - - - - - - - - - - - - - - - - - - - - - - - - - - - - 
      >
      FLOATPOS 0 0 0 0
      FXID {429C12C9-FA00-4694-A02A-B58931BBE02B}
      WAK 0
      BYPASS 0 0
      <JS "MIDI/midi_transpose" ""
        -12.000000 1.000000 0.000000 127.000000 - - - - - - - - - - - - - - - - - - - - - - - - - - - - - - - - - - - - - - - - - - - - - - - - - - - - - - - - - - - - 
      >
      FLOATPOS 0 0 0 0
      FXID {A28BE185-9CE7-4BD1-A9D1-AC0A1FAFA334}
      WAK 0
      BYPASS 0 0
      <VST "VSTi: ReaSynth (Cockos)" "reasynth.dll" 0 ""
        eXNlcu9e7f4AAAAAAgAAAAEAAAAAAAAAAgAAAAAAAAA4AAAAAAAAAA==
        AAAQAO++rd4N8K3eppvEO+gJMjwAAAAAAAAAAAAAgD8AAIA/4jAEPA==
        AAAAAAAAAD+01hM+j8L1PQAAAD8AABAAAAA=
      >
      FLOATPOS 0 0 0 0
      FXID {11BFE81B-9BFE-4ECD-9E16-72C406347E82}
      WAK 0
    >
    <ITEM
      POSITION 0.00000000000000
      SNAPOFFS 0.00000000000000
      LENGTH 63.47100000000000
      LOOP 0
      ALLTAKES 0
      SEL 0
      FADEIN 1 0.000000 0.000000 1 0
      FADEOUT 1 0.000000 0.000000 1 0
      MUTE 0
      IGUID {A048BDF8-1580-4B9B-86C9-2937FC3346EF}
      IID 3
      NAME "PART REAL_BASS"
      VOLPAN 1.000000 0.000000 1.000000 -1.000000
      SOFFS 0.00000000000000 0.00000000000000
      PLAYRATE 1.00000000000000 1 0.00000000000000 -1
      CHANMODE 0
      GUID {A7B95795-C8C0-44EF-9D8B-522B96CB8DD2}
      <SOURCE MIDI
        HASDATA 1 480 QN
        POOLEDEVTS {F49FD174-F28F-4683-ACF4-7CEDF5ADEBD6}
        <X 0 0
          /wNQQVJUIFJFQUxfQkFTUw==
        >
        <X 3840 0
          /wFbYmVnaW5fcGIgc29uZ190cmFpbmVyX3BiXzFd
        >
        E 0 90 18 68
        E 0 90 30 68
        E 0 90 48 68
        E 0 90 60 68
        E 0 90 6c 65
        E 120 80 18 00
        E 0 80 30 00
        E 0 80 48 00
        E 0 80 60 00
        E 0 80 6c 00
        E 0 90 60 68
        E 120 80 60 00
        E 0 90 30 68
        E 0 90 48 68
        E 0 90 60 68
        E 120 80 30 00
        E 0 80 48 00
        E 0 80 60 00
        E 0 90 60 68
        E 120 80 60 00
        E 0 90 18 68
        E 0 90 30 68
        E 0 90 48 68
        E 0 90 60 68
        E 120 80 18 00
        E 0 80 30 00
        E 0 80 48 00
        E 0 80 60 00
        <X 360 0
          /wFbcGJfbm9ybSBzb25nX3RyYWluZXJfcGJfMV0=
        >
        E 240 90 30 68
        E 0 90 48 68
        E 0 90 60 68
        E 120 80 30 00
        E 0 80 48 00
        E 0 80 60 00
        E 240 90 60 68
        E 120 80 60 00
        E 0 90 30 68
        E 0 90 48 68
        E 0 90 60 68
        E 120 80 30 00
        E 0 80 48 00
        E 0 80 60 00
        E 0 90 60 68
        E 120 80 60 00
        E 0 90 18 68
        E 0 90 30 68
        E 0 90 48 68
        E 0 90 60 68
        E 120 80 18 00
        E 0 80 30 00
        E 0 80 48 00
        E 0 80 60 00
        E 0 90 60 68
        E 120 80 60 00
        E 0 90 30 68
        E 0 90 48 68
        E 0 90 60 68
        E 120 80 30 00
        E 0 80 48 00
        E 0 80 60 00
        E 0 90 60 68
        E 120 80 60 00
        E 0 90 18 68
        E 0 90 30 68
        E 0 90 48 68
        E 0 90 60 68
        E 120 80 18 00
        E 0 80 30 00
        E 0 80 48 00
        E 0 80 60 00
        E 600 90 30 68
        E 0 90 48 68
        E 0 90 60 68
        E 120 80 30 00
        E 0 80 48 00
        E 0 80 60 00
        E 240 90 60 68
        E 120 80 60 00
        E 0 90 30 68
        E 0 90 48 68
        E 0 90 60 68
        E 120 80 30 00
        E 0 80 48 00
        E 0 80 60 00
        E 0 90 60 68
        <X 120 0
          /wFbZW5kX3BiIHNvbmdfdHJhaW5lcl9wYl8xXQ==
        >
        E 0 80 60 00
        E 0 90 18 68
        E 0 90 30 68
        E 0 90 48 68
        E 0 90 60 68
        E 120 80 18 00
        E 0 80 30 00
        E 0 80 48 00
        E 0 80 60 00
        E 0 90 60 68
        E 120 80 60 00
        E 0 90 30 68
        E 0 90 48 68
        E 0 90 60 68
        E 120 80 30 00
        E 0 80 48 00
        E 0 80 60 00
        E 0 90 60 68
        E 120 80 60 00
        E 0 90 18 68
        E 0 90 30 68
        E 0 90 48 68
        E 0 90 60 68
        E 120 80 18 00
        E 0 80 30 00
        E 0 80 48 00
        E 0 80 60 00
        E 600 90 30 68
        E 0 90 48 68
        E 0 90 60 68
        E 120 80 30 00
        E 0 80 48 00
        E 0 80 60 00
        E 240 90 60 68
        E 120 80 60 00
        E 0 90 30 68
        E 0 90 48 68
        E 0 90 60 68
        E 120 80 30 00
        E 0 80 48 00
        E 0 80 60 00
        E 0 90 60 68
        E 120 80 60 00
        E 0 90 18 68
        E 0 90 30 68
        E 0 90 48 68
        E 0 90 60 68
        E 0 90 74 64
        E 120 80 18 00
        E 0 80 30 00
        E 0 80 48 00
        E 0 80 60 00
        E 0 90 60 68
        E 120 80 60 00
        E 0 90 30 68
        E 0 90 48 68
        E 0 90 60 68
        E 120 80 30 00
        E 0 80 48 00
        E 0 80 60 00
        E 0 90 60 68
        E 120 80 60 00
        E 0 90 18 68
        E 0 90 30 68
        E 0 90 48 68
        E 0 90 60 68
        E 120 80 18 00
        E 0 80 30 00
        E 0 80 48 00
        E 0 80 60 00
        E 600 90 30 68
        E 0 90 48 68
        E 0 90 60 68
        E 120 80 30 00
        E 0 80 48 00
        E 0 80 60 00
        E 240 90 60 68
        E 120 80 60 00
        E 0 90 30 68
        E 0 90 48 68
        E 0 90 60 68
        E 120 80 30 00
        E 0 80 48 00
        E 0 80 60 00
        E 0 90 60 68
        <X 120 0
          /wFbYmVnaW5fcGIgc29uZ190cmFpbmVyX3BiXzJd
        >
        E 0 80 74 00
        E 0 80 60 00
        E 0 90 18 68
        E 0 90 30 68
        E 0 90 48 68
        E 0 90 60 68
        E 120 80 18 00
        E 0 80 30 00
        E 0 80 48 00
        E 0 80 60 00
        E 0 90 60 68
        E 120 80 60 00
        E 0 90 30 68
        E 0 90 48 68
        E 0 90 60 68
        E 120 80 30 00
        E 0 80 48 00
        E 0 80 60 00
        E 0 90 60 68
        E 120 80 60 00
        E 0 90 18 68
        E 0 90 30 68
        E 0 90 48 68
        E 0 90 60 68
        E 120 80 18 00
        E 0 80 30 00
        E 0 80 48 00
        E 0 80 60 00
        E 600 90 31 65
        E 0 90 49 65
        E 0 90 61 65
        E 120 80 31 00
        E 0 80 49 00
        E 0 80 61 00
        E 240 90 49 66
        E 0 90 61 66
        E 120 80 49 00
        E 0 80 61 00
        E 120 90 60 64
        <X 120 0
          /wFbcGJfbm9ybSBzb25nX3RyYWluZXJfcGJfMl0=
        >
        E 0 80 60 00
        E 0 90 18 64
        E 0 90 30 64
        E 0 90 48 64
        E 0 90 60 64
        E 120 80 18 00
        E 0 80 30 00
        E 0 80 48 00
        E 0 80 60 00
        E 0 90 60 64
        E 120 80 60 00
        E 0 90 30 64
        E 0 90 48 64
        E 0 90 60 64
        E 120 80 30 00
        E 0 80 48 00
        E 0 80 60 00
        E 0 90 60 64
        E 120 80 60 00
        E 0 90 18 64
        E 0 90 30 64
        E 0 90 48 64
        E 0 90 60 64
        E 120 80 18 00
        E 0 80 30 00
        E 0 80 48 00
        E 0 80 60 00
        E 600 90 30 68
        E 0 90 48 68
        E 0 90 60 68
        E 120 80 30 00
        E 0 80 48 00
        E 0 80 60 00
        E 240 90 60 66
        E 120 80 60 00
        E 0 90 30 66
        E 0 90 48 66
        E 0 90 60 66
        E 120 80 30 00
        E 0 80 48 00
        E 0 80 60 00
        E 0 90 60 66
        E 120 80 60 00
        E 0 90 18 66
        E 0 90 30 66
        E 0 90 48 66
        E 0 90 60 66
        E 120 80 18 00
        E 0 80 30 00
        E 0 80 48 00
        E 0 80 60 00
        E 0 90 60 66
        E 120 80 60 00
        E 0 90 30 66
        E 0 90 48 66
        E 0 90 60 66
        E 120 80 30 00
        E 0 80 48 00
        E 0 80 60 00
        E 0 90 60 66
        E 120 80 60 00
        E 0 90 18 66
        E 0 90 30 66
        E 0 90 48 66
        E 0 90 60 66
        E 120 80 18 00
        E 0 80 30 00
        E 0 80 48 00
        E 0 80 60 00
        E 600 90 31 66
        E 0 90 49 66
        E 0 90 61 66
        E 120 80 31 00
        E 0 80 49 00
        E 0 80 61 00
        E 240 90 61 65
        E 120 80 61 00
        E 0 90 49 65
        E 0 90 61 65
        E 120 80 49 00
        E 0 80 61 00
        E 0 90 60 68
        E 120 80 60 00
        E 0 90 18 68
        E 0 90 30 68
        E 0 90 48 68
        E 0 90 60 68
        E 120 80 18 00
        E 0 80 30 00
        E 0 80 48 00
        E 0 80 60 00
        E 0 90 60 68
        E 120 80 60 00
        E 0 90 30 68
        E 0 90 48 68
        E 0 90 60 68
        E 120 80 30 00
        E 0 80 48 00
        E 0 80 60 00
        E 0 90 60 68
        E 120 80 60 00
        E 0 90 18 68
        E 0 90 30 68
        E 0 90 48 68
        E 0 90 60 68
        E 120 80 18 00
        E 0 80 30 00
        E 0 80 48 00
        E 0 80 60 00
        E 600 90 30 64
        E 0 90 48 64
        E 0 90 60 64
        E 120 80 30 00
        E 0 80 48 00
        E 0 80 60 00
        E 240 90 49 66
        E 0 90 61 66
        E 120 80 49 00
        E 180 80 61 00
        <X 60 0
          /wFbZW5kX3BiIHNvbmdfdHJhaW5lcl9wYl8yXQ==
        >
        E 0 90 18 68
        E 0 90 30 68
        E 0 90 48 68
        E 0 90 60 68
        E 0 90 74 64
        E 120 80 18 00
        E 0 80 30 00
        E 0 80 48 00
        E 0 80 60 00
        E 0 90 60 68
        E 120 80 60 00
        E 0 90 30 68
        E 0 90 48 68
        E 0 90 60 68
        E 120 80 30 00
        E 0 80 48 00
        E 0 80 60 00
        E 0 90 60 68
        E 120 80 60 00
        E 0 90 18 68
        E 0 90 30 68
        E 0 90 48 68
        E 0 90 60 68
        E 120 80 18 00
        E 0 80 30 00
        E 0 80 48 00
        E 0 80 60 00
        E 600 90 31 65
        E 0 90 49 65
        E 0 90 61 65
        E 120 80 31 00
        E 0 80 49 00
        E 0 80 61 00
        E 240 90 49 66
        E 0 90 61 66
        E 120 80 49 00
        E 0 80 61 00
        E 240 80 74 00
        E 0 90 18 64
        E 0 90 30 64
        E 0 90 48 64
        E 0 90 60 64
        E 120 80 18 00
        E 0 80 30 00
        E 0 80 48 00
        E 0 80 60 00
        E 0 90 60 64
        E 120 80 60 00
        E 0 90 30 64
        E 0 90 48 64
        E 0 90 60 64
        E 120 80 30 00
        E 0 80 48 00
        E 0 80 60 00
        E 0 90 60 64
        E 120 80 60 00
        E 0 90 18 64
        E 0 90 30 64
        E 0 90 48 64
        E 0 90 60 64
        E 120 80 18 00
        E 0 80 30 00
        E 0 80 48 00
        E 0 80 60 00
        E 600 90 30 68
        E 0 90 48 68
        E 0 90 60 68
        E 120 80 30 00
        E 0 80 48 00
        E 0 80 60 00
        E 240 90 60 66
        E 120 80 60 00
        E 0 90 30 66
        E 0 90 48 66
        E 0 90 60 66
        E 120 80 30 00
        E 0 80 48 00
        E 0 80 60 00
        E 0 90 60 66
        E 120 80 60 00
        E 0 90 18 66
        E 0 90 30 66
        E 0 90 48 66
        E 0 90 60 66
        E 120 80 18 00
        E 0 80 30 00
        E 0 80 48 00
        E 0 80 60 00
        E 0 90 60 66
        E 120 80 60 00
        E 0 90 48 66
        E 0 90 60 66
        E 120 80 48 00
        E 0 80 60 00
        E 0 90 60 66
        E 120 80 60 00
        E 0 90 30 66
        E 0 90 48 66
        E 0 90 60 66
        E 120 80 30 00
        E 0 80 48 00
        E 0 80 60 00
        E 600 90 31 66
        E 0 90 49 66
        E 0 90 61 66
        E 120 80 31 00
        E 0 80 49 00
        E 0 80 61 00
        E 240 90 61 65
        E 120 80 61 00
        E 0 90 49 65
        E 0 90 61 65
        E 120 80 49 00
        E 0 80 61 00
        E 0 90 60 68
        E 120 80 60 00
        E 0 90 18 68
        E 0 90 30 68
        E 0 90 48 68
        E 0 90 60 68
        E 120 80 18 00
        E 0 80 30 00
        E 0 80 48 00
        E 0 80 60 00
        E 0 90 60 68
        E 120 80 60 00
        E 0 90 30 68
        E 0 90 48 68
        E 0 90 60 68
        E 120 80 30 00
        E 0 80 48 00
        E 0 80 60 00
        E 0 90 60 68
        E 120 80 60 00
        E 0 90 18 68
        E 0 90 30 68
        E 0 90 48 68
        E 0 90 60 68
        E 120 80 18 00
        E 0 80 30 00
        E 0 80 48 00
        E 0 80 60 00
        E 600 90 30 64
        E 0 90 48 64
        E 0 90 60 64
        E 120 80 30 00
        E 0 80 48 00
        E 0 80 60 00
        E 240 90 61 66
        E 120 80 61 00
        E 0 90 31 66
        E 0 90 49 66
        E 0 90 61 66
        E 120 80 31 00
        E 0 80 49 00
        E 0 80 61 00
        E 0 90 61 65
        <X 120 0
          /wFbYmVnaW5fcGIgc29uZ190cmFpbmVyX3BiXzNd
        >
        E 0 80 61 00
        E 0 90 19 66
        E 0 90 31 66
        E 0 90 49 66
        E 0 90 61 66
        E 120 80 19 00
        E 0 80 31 00
        E 0 80 49 00
        E 0 80 61 00
        E 0 90 61 66
        E 120 80 61 00
        E 0 90 31 66
        E 0 90 49 66
        E 0 90 61 66
        E 120 80 31 00
        E 0 80 49 00
        E 0 80 61 00
        E 0 90 61 66
        E 120 80 61 00
        E 0 90 19 66
        E 0 90 31 66
        E 0 90 49 66
        E 0 90 61 66
        E 120 80 19 00
        E 0 80 31 00
        E 0 80 49 00
        E 0 80 61 00
        E 600 90 31 68
        E 0 90 49 68
        E 0 90 61 68
        E 0 90 6c 68
        E 120 80 31 00
        E 0 80 49 00
        E 0 80 61 00
        E 0 80 6c 00
        E 240 90 49 6a
        E 0 90 61 6a
        E 120 80 49 00
        E 0 80 61 00
        E 120 90 60 68
        <X 120 0
          /wFbcGJfbm9ybSBzb25nX3RyYWluZXJfcGJfM10=
        >
        E 0 80 60 00
        E 0 90 18 68
        E 0 90 30 68
        E 0 90 48 68
        E 0 90 60 68
        E 120 80 18 00
        E 0 80 30 00
        E 0 80 48 00
        E 0 80 60 00
        E 0 90 60 68
        E 120 80 60 00
        E 0 90 30 68
        E 0 90 48 68
        E 0 90 60 68
        E 120 80 30 00
        E 0 80 48 00
        E 0 80 60 00
        E 0 90 60 68
        E 120 80 60 00
        E 0 90 18 68
        E 0 90 30 68
        E 0 90 48 68
        E 0 90 60 68
        E 120 80 18 00
        E 0 80 30 00
        E 0 80 48 00
        E 0 80 60 00
        E 600 90 31 66
        E 0 90 49 66
        E 0 90 61 66
        E 0 90 6c 65
        E 120 80 31 00
        E 0 80 49 00
        E 0 80 61 00
        E 0 80 6c 00
        E 240 90 49 65
        E 0 90 61 65
        E 120 80 49 00
        E 0 80 61 00
        E 120 90 60 66
        E 120 80 60 00
        E 0 90 18 66
        E 0 90 30 66
        E 0 90 48 66
        E 0 90 60 66
        E 120 80 18 00
        E 0 80 30 00
        E 0 80 48 00
        E 0 80 60 00
        E 0 90 60 66
        E 120 80 60 00
        E 0 90 30 66
        E 0 90 48 66
        E 0 90 60 66
        E 120 80 30 00
        E 0 80 48 00
        E 0 80 60 00
        E 0 90 60 66
        E 120 80 60 00
        E 0 90 18 66
        E 0 90 30 66
        E 0 90 48 66
        E 0 90 60 66
        E 120 80 18 00
        E 0 80 30 00
        E 0 80 48 00
        E 0 80 60 00
        E 600 90 61 66
        E 0 90 31 66
        E 0 90 49 66
        E 120 80 61 00
        E 0 80 31 00
        E 0 80 49 00
        E 240 90 49 65
        E 0 90 61 65
        E 120 80 49 00
        E 0 80 61 00
        E 120 90 60 68
        E 120 80 60 00
        E 0 90 18 68
        E 0 90 30 68
        E 0 90 48 68
        E 0 90 60 68
        E 120 80 18 00
        E 0 80 30 00
        E 0 80 48 00
        E 0 80 60 00
        E 0 90 60 68
        E 120 80 60 00
        E 0 90 48 68
        E 0 90 60 68
        E 120 80 48 00
        E 0 80 60 00
        E 0 90 60 68
        E 120 80 60 00
        E 0 90 31 65
        E 0 90 49 65
        E 0 90 61 65
        E 120 80 31 00
        E 240 80 49 00
        E 0 80 61 00
        E 120 90 19 66
        E 0 90 31 66
        E 0 90 49 66
        E 0 90 61 66
        E 120 80 19 00
        E 0 80 31 00
        E 240 80 49 00
        E 0 80 61 00
        E 120 90 31 68
        E 0 90 49 68
        E 0 90 61 68
        E 120 80 31 00
        E 0 80 49 00
        E 120 80 61 00
        E 120 90 61 66
        <X 120 0
          /wFbZW5kX3BiIHNvbmdfdHJhaW5lcl9wYl8zXQ==
        >
        E 0 80 61 00
        E 0 90 19 66
        E 0 90 31 66
        E 0 90 49 66
        E 0 90 61 66
        E 0 90 74 64
        E 120 80 19 00
        E 0 80 31 00
        E 0 80 49 00
        E 0 80 61 00
        E 0 90 61 66
        E 120 80 61 00
        E 0 90 31 66
        E 0 90 49 66
        E 0 90 61 66
        E 120 80 31 00
        E 0 80 49 00
        E 0 80 61 00
        E 0 90 61 66
        E 120 80 61 00
        E 0 90 19 66
        E 0 90 31 66
        E 0 90 49 66
        E 0 90 61 66
        E 120 80 19 00
        E 0 80 31 00
        E 0 80 49 00
        E 0 80 61 00
        E 600 90 31 68
        E 0 90 49 68
        E 0 90 61 68
        E 0 90 6c 68
        E 120 80 31 00
        E 0 80 49 00
        E 0 80 61 00
        E 0 80 6c 00
        E 240 90 49 6a
        E 0 90 61 6a
        E 120 80 49 00
        E 0 80 61 00
        E 120 90 60 68
        E 120 80 74 00
        E 0 80 60 00
        E 0 90 18 68
        E 0 90 30 68
        E 0 90 48 68
        E 0 90 60 68
        E 120 80 18 00
        E 0 80 30 00
        E 0 80 48 00
        E 0 80 60 00
        E 0 90 60 68
        E 120 80 60 00
        E 0 90 30 68
        E 0 90 48 68
        E 0 90 60 68
        E 120 80 30 00
        E 0 80 48 00
        E 0 80 60 00
        E 0 90 60 68
        E 120 80 60 00
        E 0 90 18 68
        E 0 90 30 68
        E 0 90 48 68
        E 0 90 60 68
        E 120 80 18 00
        E 0 80 30 00
        E 0 80 48 00
        E 0 80 60 00
        E 600 90 31 66
        E 0 90 49 66
        E 0 90 61 66
        E 0 90 6c 65
        E 120 80 31 00
        E 0 80 49 00
        E 0 80 61 00
        E 0 80 6c 00
        E 240 90 49 65
        E 0 90 61 65
        E 120 80 49 00
        E 0 80 61 00
        E 120 90 60 66
        E 120 80 60 00
        E 0 90 18 66
        E 0 90 30 66
        E 0 90 48 66
        E 0 90 60 66
        E 120 80 18 00
        E 0 80 30 00
        E 0 80 48 00
        E 0 80 60 00
        E 0 90 60 66
        E 120 80 60 00
        E 0 90 30 66
        E 0 90 48 66
        E 0 90 60 66
        E 120 80 30 00
        E 0 80 48 00
        E 0 80 60 00
        E 0 90 60 66
        E 120 80 60 00
        E 0 90 18 66
        E 0 90 30 66
        E 0 90 48 66
        E 0 90 60 66
        E 120 80 18 00
        E 0 80 30 00
        E 0 80 48 00
        E 0 80 60 00
        E 600 90 31 66
        E 0 90 49 66
        E 0 90 61 66
        E 120 80 31 00
        E 0 80 49 00
        E 0 80 61 00
        E 240 90 49 65
        E 0 90 61 65
        E 120 80 49 00
        E 0 80 61 00
        E 120 90 60 68
        E 120 80 60 00
        E 0 90 18 68
        E 0 90 30 68
        E 0 90 48 68
        E 0 90 60 68
        E 120 80 18 00
        E 0 80 30 00
        E 0 80 48 00
        E 0 80 60 00
        E 0 90 60 68
        E 120 80 60 00
        E 0 90 48 68
        E 0 90 60 68
        E 120 80 48 00
        E 0 80 60 00
        E 0 90 60 68
        E 120 80 60 00
        E 0 90 30 66
        E 0 90 48 66
        E 0 90 60 66
        E 120 80 30 00
        E 240 80 48 00
        E 0 80 60 00
        E 120 90 18 64
        E 0 90 30 64
        E 0 90 48 64
        E 0 90 60 64
        E 120 80 18 00
        E 0 80 30 00
        E 240 80 48 00
        E 0 80 60 00
        E 120 90 31 65
        E 0 90 49 65
        E 0 90 61 65
        E 120 80 31 00
        E 0 80 49 00
        E 120 80 61 00
        E 120 90 60 68
        E 120 80 60 00
        E 0 90 18 68
        E 0 90 30 68
        E 0 90 48 68
        E 0 90 60 68
        E 0 90 74 64
        E 120 80 18 00
        E 0 80 30 00
        E 0 80 48 00
        E 0 80 60 00
        E 0 90 60 68
        E 120 80 60 00
        E 0 90 30 68
        E 0 90 48 68
        E 0 90 60 68
        E 120 80 30 00
        E 0 80 48 00
        E 0 80 60 00
        E 0 90 60 68
        E 120 80 60 00
        E 0 90 18 68
        E 0 90 30 68
        E 0 90 48 68
        E 0 90 60 68
        E 120 80 18 00
        E 0 80 30 00
        E 0 80 48 00
        E 0 80 60 00
        E 600 90 31 65
        E 0 90 49 65
        E 0 90 61 65
        E 120 80 31 00
        E 0 80 49 00
        E 0 80 61 00
        E 240 90 49 66
        E 0 90 61 66
        E 120 80 49 00
        E 0 80 61 00
        E 120 90 60 64
        E 120 80 74 00
        E 0 80 60 00
        E 0 90 18 64
        E 0 90 30 64
        E 0 90 48 64
        E 0 90 60 64
        E 120 80 18 00
        E 0 80 30 00
        E 0 80 48 00
        E 0 80 60 00
        E 0 90 60 64
        E 120 80 60 00
        E 0 90 30 64
        E 0 90 48 64
        E 0 90 60 64
        E 120 80 30 00
        E 0 80 48 00
        E 0 80 60 00
        E 0 90 60 64
        E 120 80 60 00
        E 0 90 18 64
        E 0 90 30 64
        E 0 90 48 64
        E 0 90 60 64
        E 120 80 18 00
        E 0 80 30 00
        E 0 80 48 00
        E 0 80 60 00
        E 600 90 30 68
        E 0 90 48 68
        E 0 90 60 68
        E 120 80 30 00
        E 0 80 48 00
        E 0 80 60 00
        E 240 90 60 66
        E 120 80 60 00
        E 0 90 30 66
        E 0 90 48 66
        E 0 90 60 66
        E 120 80 30 00
        E 0 80 48 00
        E 0 80 60 00
        E 0 90 60 66
        E 120 80 60 00
        E 0 90 18 66
        E 0 90 30 66
        E 0 90 48 66
        E 0 90 60 66
        E 120 80 18 00
        E 0 80 30 00
        E 0 80 48 00
        E 0 80 60 00
        E 0 90 60 66
        E 120 80 60 00
        E 0 90 30 66
        E 0 90 48 66
        E 0 90 60 66
        E 120 80 30 00
        E 0 80 48 00
        E 0 80 60 00
        E 0 90 60 66
        E 120 80 60 00
        E 0 90 18 66
        E 0 90 30 66
        E 0 90 48 66
        E 0 90 60 66
        E 120 80 18 00
        E 0 80 30 00
        E 0 80 48 00
        E 0 80 60 00
        E 600 90 31 66
        E 0 90 49 66
        E 0 90 61 66
        E 120 80 31 00
        E 0 80 49 00
        E 0 80 61 00
        E 240 90 61 65
        E 120 80 61 00
        E 0 90 49 65
        E 0 90 61 65
        E 120 80 49 00
        E 0 80 61 00
        E 0 90 60 68
        E 120 80 60 00
        E 0 90 18 68
        E 0 90 30 68
        E 0 90 48 68
        E 0 90 60 68
        E 120 80 18 00
        E 0 80 30 00
        E 0 80 48 00
        E 0 80 60 00
        E 0 90 60 68
        E 120 80 60 00
        E 0 90 30 68
        E 0 90 48 68
        E 0 90 60 68
        E 120 80 30 00
        E 0 80 48 00
        E 0 80 60 00
        E 0 90 60 68
        E 120 80 60 00
        E 0 90 18 68
        E 0 90 30 68
        E 0 90 48 68
        E 0 90 60 68
        E 120 80 18 00
        E 0 80 30 00
        E 0 80 48 00
        E 0 80 60 00
        E 600 90 30 64
        E 0 90 48 64
        E 0 90 60 64
        E 120 80 30 00
        E 0 80 48 00
        E 0 80 60 00
        E 240 90 49 66
        E 0 90 61 66
        E 120 80 49 00
        E 120 80 61 00
        E 120 90 18 68
        E 0 90 30 68
        E 0 90 48 68
        E 0 90 60 68
        E 120 80 18 00
        E 0 80 30 00
        E 0 80 48 00
        E 0 80 60 00
        E 0 90 60 68
        E 120 80 60 00
        E 0 90 30 68
        E 0 90 48 68
        E 0 90 60 68
        E 120 80 30 00
        E 0 80 48 00
        E 0 80 60 00
        E 0 90 60 68
        E 120 80 60 00
        E 0 90 18 68
        E 0 90 30 68
        E 0 90 48 68
        E 0 90 60 68
        E 120 80 18 00
        E 0 80 30 00
        E 0 80 48 00
        E 0 80 60 00
        E 600 90 31 65
        E 0 90 49 65
        E 0 90 61 65
        E 120 80 31 00
        E 0 80 49 00
        E 0 80 61 00
        E 240 90 49 66
        E 0 90 61 66
        E 120 80 49 00
        E 0 80 61 00
        E 240 90 18 64
        E 0 90 30 64
        E 0 90 48 64
        E 0 90 60 64
        E 120 80 18 00
        E 0 80 30 00
        E 0 80 48 00
        E 0 80 60 00
        E 0 90 60 64
        E 120 80 60 00
        E 0 90 30 64
        E 0 90 48 64
        E 0 90 60 64
        E 120 80 30 00
        E 0 80 48 00
        E 0 80 60 00
        E 0 90 60 64
        E 120 80 60 00
        E 0 90 18 64
        E 0 90 30 64
        E 0 90 48 64
        E 0 90 60 64
        E 120 80 18 00
        E 0 80 30 00
        E 0 80 48 00
        E 0 80 60 00
        E 600 90 30 68
        E 0 90 48 68
        E 0 90 60 68
        E 120 80 30 00
        E 0 80 48 00
        E 0 80 60 00
        E 240 90 60 66
        E 120 80 60 00
        E 0 90 30 66
        E 0 90 48 66
        E 0 90 60 66
        E 120 80 30 00
        E 0 80 48 00
        E 0 80 60 00
        E 0 90 60 66
        E 120 80 60 00
        E 0 90 18 66
        E 0 90 30 66
        E 0 90 48 66
        E 0 90 60 66
        E 120 80 18 00
        E 0 80 30 00
        E 0 80 48 00
        E 0 80 60 00
        E 0 90 60 66
        E 120 80 60 00
        E 0 90 30 66
        E 0 90 48 66
        E 0 90 60 66
        E 120 80 30 00
        E 0 80 48 00
        E 0 80 60 00
        E 0 90 60 66
        E 120 80 60 00
        E 0 90 18 66
        E 0 90 30 66
        E 0 90 48 66
        E 0 90 60 66
        E 120 80 18 00
        E 0 80 30 00
        E 0 80 48 00
        E 0 80 60 00
        E 600 90 31 66
        E 0 90 49 66
        E 0 90 61 66
        E 120 80 31 00
        E 0 80 49 00
        E 0 80 61 00
        E 240 90 61 65
        E 120 80 61 00
        E 0 90 49 65
        E 0 90 61 65
        E 120 80 49 00
        E 0 80 61 00
        E 0 90 60 68
        E 120 80 60 00
        E 0 90 18 68
        E 0 90 30 68
        E 0 90 48 68
        E 0 90 60 68
        E 120 80 18 00
        E 0 80 30 00
        E 0 80 48 00
        E 0 80 60 00
        E 0 90 60 68
        E 120 80 60 00
        E 0 90 30 68
        E 0 90 48 68
        E 0 90 60 68
        E 120 80 30 00
        E 0 80 48 00
        E 0 80 60 00
        E 0 90 60 68
        E 120 80 60 00
        E 0 90 18 68
        E 0 90 30 68
        E 0 90 48 68
        E 0 90 60 68
        E 120 80 18 00
        E 0 80 30 00
        E 0 80 48 00
        E 0 80 60 00
        E 600 90 30 64
        E 0 90 48 64
        E 0 90 60 64
        E 120 80 30 00
        E 0 80 48 00
        E 0 80 60 00
        E 240 90 61 66
        E 120 80 61 00
        E 0 90 49 66
        E 0 90 61 66
        E 120 80 49 00
        E 0 80 61 00
        E 0 90 61 65
        E 120 80 61 00
        E 0 90 18 68
        E 0 90 30 68
        E 0 90 48 68
        E 0 90 60 68
        E 1919 80 18 00
        E 0 80 30 00
        E 0 80 48 00
        E 0 80 60 00
        E 1921 b0 7b 00
        GUID {505214BB-3E23-433C-B522-3EB0E47D60B3}
        IGNTEMPO 0 120.00000000 4 4
        SRCCOLOR 6
        VELLANE 132 128 60
        COLORMAP "C:\Program Files\REAPER (x64)\Data\color_maps\rockband_guitarbass.png"
        CFGEDITVIEW -4118.682102 17.156936 7 12 0 0 0
        CFGEDIT 1 1 0 1 1 0 1 1 1 1 1 0.25000000 -8 -8 1544 872 0 2 1 1 0.00000000 0 1 0 0 0.500000 0 0 1.000000 64
        KEYSNAP 0 6 "102030050700" 0 "Pentatonic"
        EVTFILTER 0 -1 -1 -1 -1 0 1 0 0 -1.00000000 -1.00000000
      >
    >
  >
  <TRACK '{B89C287A-0554-49A2-9921-BF5DDBDE1067}'
    NAME "PART REAL_GUITAR"
    PEAKCOL 16576
    BEAT -1
    AUTOMODE 0
    VOLPAN 1.00000000000000 0.00000000000000 -1.00000000000000 -1.00000000000000 1.00000000000000
    MUTESOLO 0 0 0
    IPHASE 0
    ISBUS 0 0
    BUSCOMP 0 0
    SHOWINMIX 1 0.666700 0.500000 1 0.500000 -1 -1 -1
    FREEMODE 0
    SEL 0
    REC 0 0 0 0 0 0 0
    VU 2
    TRACKHEIGHT 0 0
    INQ 0 0 0 0.5000000000 100 0 0 100
    NCHAN 2
    FX 0
    TRACKID {B89C287A-0554-49A2-9921-BF5DDBDE1067}
    PERF 0
    MIDIOUT -1
    <MIDINOTENAMES
      0 127 "Trill Marker"
      0 126 "Tremolo Marker"
      0 125 "BRE"
      0 124 "BRE"
      0 123 "BRE"
      0 122 "BRE"
      0 121 "BRE"
      0 120 "BRE (use all 6)"
      0 119 "-----------"
      0 116 "OVERDRIVE"
      0 115 "Solo Marker"
      0 109 "-----------"
      0 108 "Fret Hand Position"
      0 107 "Force Chord Numbering"
      0 106 "Loose Strumming"
      0 105 "Strum Direction"
      0 104 "Arpeggio Marker"
      0 103 "Slide Marker"
      0 102 "Force HOPO"
      0 101 "EXPERT e String"
      0 100 "EXPERT B String"
      0 99 "EXPERT G String"
      0 98 "EXPERT D String"
      0 97 "EXPERT A String"
      0 96 "EXPERT E String"
      0 95 "-----------"
      0 82 "Loose Strumming"
      0 81 "Strum Direction"
      0 80 "Arpeggio Marker"
      0 79 "Slide Marker"
      0 78 "Force HOPO"
      0 77 "HARD e String"
      0 76 "HARD B String"
      0 75 "HARD G String"
      0 74 "HARD D String"
      0 73 "HARD A String"
      0 72 "HARD E String"
      0 71 "-----------"
      0 58 "Loose Strumming"
      0 56 "Arpeggio Marker"
      0 55 "Slide Marker"
      0 53 "MEDIUM e String"
      0 52 "MEDIUM B String"
      0 51 "MEDIUM G String"
      0 50 "MEDIUM D String"
      0 49 "MEDIUM A String"
      0 48 "MEDIUM E String"
      0 47 "-----------"
      0 32 "Arpeggio Marker"
      0 31 "Slide Marker"
      0 29 "EASY e String"
      0 28 "EASY B String"
      0 27 "EASY G String"
      0 26 "EASY D String"
      0 25 "EASY A String"
      0 24 "EASY E String"
      0 21 "-----------"
      0 18 "Flat/Sharp Swap"
      0 17 "Hide Chord Names"
      0 16 "Slash Chord"
      0 15 "D#"
      0 14 "D"
      0 13 "C#"
      0 12 "C"
      0 11 "B"
      0 10 "A#"
      0 9 "A"
      0 8 "G#"
      0 7 "G"
      0 6 "F#"
      0 5 "F"
      0 4 "E"
    >
    MAINSEND 1 0
    <FXCHAIN
      WNDRECT 0 43 655 467
      SHOW 0
      LASTSEL 1
      DOCKED 0
      BYPASS 0 0
      <JS "c3/progtr" ""
        0.000000 3.000000 0.000000 0.000000 0.000000 0.000000 0.000000 0.000000 0.000000 1.000000 - - - - - - - - - - - - - - - - - - - - - - - - - - - - - - - - - - - - - - - - - - - - - - - - - - - - - - 
      >
      FLOATPOS 0 0 0 0
      FXID {5E9A4A39-465C-48FE-A23E-2E5B6371DC3B}
      WAK 0
      BYPASS 0 0
      <VST "VSTi: ReaSynth (Cockos)" "reasynth.dll" 0 ""
        eXNlcu9e7f4AAAAAAgAAAAEAAAAAAAAAAgAAAAAAAAA4AAAAAAAAAA==
        AAAQAO++rd4N8K3eppvEO+gJMjyHFlk/AAAAAAAAAADMm4A+4jAEPA==
        AAAAAAAAAD+01hM+j8L1PQAAAD8AABAAAAA=
      >
      FLOATPOS 0 0 0 0
      FXID {209F33A5-8DEF-4D3F-AF8E-F09F0FB5D3D9}
      WAK 0
    >
    <ITEM
      POSITION 0.00000000000000
      SNAPOFFS 0.00000000000000
      LENGTH 63.47100000000000
      LOOP 0
      ALLTAKES 0
      SEL 0
      FADEIN 1 0.000000 0.000000 1 0
      FADEOUT 1 0.000000 0.000000 1 0
      MUTE 0
      IGUID {2647EE5C-7A7C-4937-BFBF-716806C8EB0E}
      IID 5
      NAME "PART REAL_GUITAR"
      VOLPAN 1.000000 0.000000 1.000000 -1.000000
      SOFFS 0.00000000000000 0.00000000000000
      PLAYRATE 1.00000000000000 1 0.00000000000000 -1
      CHANMODE 0
      GUID {424382FC-48D7-4509-BB84-87885A67290A}
      <SOURCE MIDI
        HASDATA 1 480 QN
        POOLEDEVTS {019CE4A7-90E6-4664-B873-00B09F6CBCB1}
        <X 0 0
          /wNQQVJUIFJFQUxfR1VJVEFS
        >
        <X 3840 0
          /wFbYmVnaW5fcGcgc29uZ190cmFpbmVyX3BnXzFd
        >
        E 0 90 1b 68
        E 0 90 33 68
        E 0 90 4b 68
        E 0 90 63 68
        E 0 90 6c 65
        E 120 80 1b 00
        E 0 80 33 00
        E 0 80 4b 00
        E 0 80 63 00
        E 0 80 6c 00
        E 0 90 63 67
        E 120 80 63 00
        E 0 90 4b 65
        E 0 90 63 65
        E 120 80 4b 00
        E 0 80 63 00
        E 0 90 64 66
        E 120 80 64 00
        E 0 90 33 68
        E 0 90 4b 68
        E 0 90 63 68
        E 120 80 33 00
        E 0 80 4b 00
        E 0 80 63 00
        E 0 90 64 68
        E 120 80 64 00
        E 0 90 4b 65
        E 0 90 63 65
        E 120 80 4b 00
        E 0 80 63 00
        E 0 90 63 67
        E 120 80 63 00
        E 0 90 1b 68
        E 0 90 33 68
        E 0 90 4b 68
        E 0 90 63 68
        E 120 80 1b 00
        E 0 80 33 00
        E 0 80 4b 00
        E 0 80 63 00
        E 0 90 64 66
        E 120 80 64 00
        E 0 90 4b 65
        E 0 90 63 65
        E 120 80 4b 00
        E 0 80 63 00
        E 0 90 64 68
        E 120 80 64 00
        E 0 90 33 68
        E 0 90 4b 68
        E 0 90 63 68
        E 120 80 33 00
        E 0 80 4b 00
        E 0 80 63 00
        E 0 90 63 67
        E 120 80 63 00
        E 0 90 4b 65
        E 0 90 63 65
        E 120 80 4b 00
        E 0 80 63 00
        E 0 90 64 66
        E 120 80 64 00
        E 0 90 1b 68
        E 0 90 33 68
        E 0 90 4b 68
        E 0 90 63 68
        E 120 80 1b 00
        E 0 80 33 00
        E 0 80 4b 00
        E 0 80 63 00
        E 0 90 64 68
        E 120 80 64 00
        E 0 90 4b 65
        E 0 90 63 65
        E 120 80 4b 00
        E 0 80 63 00
        E 0 90 63 67
        E 120 80 63 00
        E 0 90 33 68
        E 0 90 4b 68
        E 0 90 63 68
        E 120 80 33 00
        E 0 80 4b 00
        E 0 80 63 00
        E 0 90 64 66
        E 120 80 64 00
        E 0 90 4b 65
        E 0 90 63 65
        E 120 80 4b 00
        E 0 80 63 00
        E 0 90 64 68
        E 120 80 64 00
        E 0 90 1b 68
        E 0 90 33 68
        E 0 90 4b 68
        E 0 90 63 68
        E 120 80 1b 00
        E 0 80 33 00
        E 0 80 4b 00
        E 0 80 63 00
        E 0 90 63 67
        E 120 80 63 00
        E 0 90 4b 65
        E 0 90 63 65
        E 120 80 4b 00
        E 0 80 63 00
        E 0 90 64 66
        E 120 80 64 00
        E 0 90 33 68
        E 0 90 4b 68
        E 0 90 63 68
        E 120 80 33 00
        E 0 80 4b 00
        E 0 80 63 00
        E 0 90 64 68
        E 120 80 64 00
        E 0 90 4b 65
        E 0 90 63 65
        E 120 80 4b 00
        E 0 80 63 00
        E 0 90 63 67
        E 120 80 63 00
        E 0 90 1b 68
        E 0 90 33 68
        E 0 90 4b 68
        E 0 90 63 68
        E 120 80 1b 00
        E 0 80 33 00
        E 0 80 4b 00
        E 0 80 63 00
        E 0 90 64 66
        E 120 80 64 00
        E 0 90 4b 65
        E 0 90 63 65
        E 120 80 4b 00
        E 0 80 63 00
        E 0 90 64 68
        E 120 80 64 00
        E 0 90 33 68
        E 0 90 4b 68
        E 0 90 63 68
        E 120 80 33 00
        E 0 80 4b 00
        E 0 80 63 00
        E 0 90 63 67
        E 120 80 63 00
        E 0 90 4b 65
        E 0 90 63 65
        E 120 80 4b 00
        E 0 80 63 00
        E 0 90 64 66
        E 120 80 64 00
        E 0 90 1b 68
        E 0 90 33 68
        E 0 90 4b 68
        E 0 90 63 68
        E 120 80 1b 00
        E 0 80 33 00
        E 0 80 4b 00
        E 0 80 63 00
        E 0 90 64 68
        E 120 80 64 00
        E 0 90 4b 65
        E 0 90 63 65
        E 120 80 4b 00
        E 0 80 63 00
        E 0 90 63 67
        E 120 80 63 00
        E 0 90 33 68
        E 0 90 4b 68
        E 0 90 63 68
        E 120 80 33 00
        E 0 80 4b 00
        E 0 80 63 00
        E 0 90 64 66
        E 120 80 64 00
        E 0 90 4b 65
        E 0 90 63 65
        E 120 80 4b 00
        E 0 80 63 00
        E 0 90 64 68
        <X 120 0
          /wFbZW5kX3BnIHNvbmdfdHJhaW5lcl9wZ18xXQ==
        >
        E 0 80 64 00
        E 0 90 1b 68
        E 0 90 33 68
        E 0 90 4b 68
        E 0 90 63 68
        E 0 90 74 64
        E 120 80 1b 00
        E 0 80 33 00
        E 0 80 4b 00
        E 0 80 63 00
        E 0 90 63 67
        E 120 80 63 00
        E 0 90 4b 65
        E 0 90 63 65
        E 120 80 4b 00
        E 0 80 63 00
        E 0 90 64 66
        E 120 80 64 00
        E 0 90 33 68
        E 0 90 4b 68
        E 0 90 63 68
        E 120 80 33 00
        E 0 80 4b 00
        E 0 80 63 00
        E 0 90 64 68
        E 120 80 64 00
        E 0 90 4b 65
        E 0 90 63 65
        E 120 80 4b 00
        E 0 80 63 00
        E 0 90 63 67
        E 120 80 63 00
        E 0 90 1b 68
        E 0 90 33 68
        E 0 90 4b 68
        E 0 90 63 68
        E 120 80 1b 00
        E 0 80 33 00
        E 0 80 4b 00
        E 0 80 63 00
        E 0 90 64 66
        E 120 80 64 00
        E 0 90 4b 65
        E 0 90 63 65
        E 120 80 4b 00
        E 0 80 63 00
        E 0 90 64 68
        E 120 80 64 00
        E 0 90 33 68
        E 0 90 4b 68
        E 0 90 63 68
        E 120 80 33 00
        E 0 80 4b 00
        E 0 80 63 00
        E 0 90 63 67
        E 120 80 63 00
        E 0 90 4b 65
        E 0 90 63 65
        E 120 80 4b 00
        E 0 80 63 00
        E 0 90 64 68
        <X 120 0
          /wFbYmVnaW5fcGcgc29uZ190cmFpbmVyX3BnXzJd
        >
        E 0 80 74 00
        E 0 80 64 00
        E 0 90 1b 67
        E 0 90 33 67
        E 0 90 4b 67
        E 0 90 63 67
        E 120 80 1b 00
        E 0 80 33 00
        E 0 80 4b 00
        E 0 80 63 00
        E 0 90 63 68
        E 120 80 63 00
        E 0 90 4c 66
        E 0 90 64 66
        E 120 80 4c 00
        E 0 80 64 00
        E 0 90 63 65
        E 120 80 63 00
        E 0 90 4c 68
        E 0 90 64 68
        E 120 80 4c 00
        E 0 80 64 00
        E 0 90 63 68
        E 120 80 63 00
        E 0 90 4b 67
        E 0 90 63 67
        E 120 80 4b 00
        E 0 80 63 00
        E 0 90 63 65
        E 120 80 63 00
        E 0 90 34 66
        E 0 90 4c 66
        E 0 90 64 66
        E 120 80 34 00
        E 0 80 4c 00
        E 0 80 64 00
        E 0 90 63 68
        E 120 80 63 00
        E 0 90 4c 68
        E 0 90 64 68
        E 120 80 4c 00
        E 0 80 64 00
        E 0 90 63 65
        E 120 80 63 00
        E 0 90 33 67
        E 0 90 4b 67
        E 0 90 63 67
        E 120 80 33 00
        E 0 80 4b 00
        E 0 80 63 00
        E 0 90 63 68
        E 120 80 63 00
        E 0 90 4c 66
        E 0 90 64 66
        E 120 80 4c 00
        E 0 80 64 00
        E 0 90 62 66
        <X 120 0
          /wFbcGdfbm9ybSBzb25nX3RyYWluZXJfcGdfMl0=
        >
        E 0 80 62 00
        E 0 90 4c 68
        E 0 90 64 68
        E 120 80 4c 00
        E 0 80 64 00
        E 0 90 63 68
        E 120 80 63 00
        E 0 90 4b 67
        E 0 90 63 67
        E 120 80 4b 00
        E 0 80 63 00
        E 0 90 62 66
        E 120 80 62 00
        E 0 90 34 66
        E 0 90 4c 66
        E 0 90 64 66
        E 120 80 34 00
        E 0 80 4c 00
        E 0 80 64 00
        E 0 90 63 68
        E 120 80 63 00
        E 0 90 4c 68
        E 0 90 64 68
        E 120 80 4c 00
        E 0 80 64 00
        E 0 90 62 66
        E 120 80 62 00
        E 0 90 1b 67
        E 0 90 33 67
        E 0 90 4b 67
        E 0 90 63 67
        E 120 80 1b 00
        E 0 80 33 00
        E 0 80 4b 00
        E 0 80 63 00
        E 0 90 63 68
        E 120 80 63 00
        E 0 90 4c 66
        E 0 90 64 66
        E 120 80 4c 00
        E 0 80 64 00
        E 0 90 62 66
        E 120 80 62 00
        E 0 90 4c 68
        E 0 90 64 68
        E 120 80 4c 00
        E 0 80 64 00
        E 0 90 63 68
        E 120 80 63 00
        E 0 90 4b 67
        E 0 90 63 67
        E 120 80 4b 00
        E 0 80 63 00
        E 0 90 62 68
        E 120 80 62 00
        E 0 90 34 66
        E 0 90 4c 66
        E 0 90 64 66
        E 120 80 34 00
        E 0 80 4c 00
        E 0 80 64 00
        E 0 90 63 68
        E 120 80 63 00
        E 0 90 4c 68
        E 0 90 64 68
        E 120 80 4c 00
        E 0 80 64 00
        E 0 90 62 68
        E 120 80 62 00
        E 0 90 33 67
        E 0 90 4b 67
        E 0 90 63 67
        E 120 80 33 00
        E 0 80 4b 00
        E 0 80 63 00
        E 0 90 63 68
        E 120 80 63 00
        E 0 90 4c 66
        E 0 90 64 66
        E 120 80 4c 00
        E 0 80 64 00
        E 0 90 62 68
        E 120 80 62 00
        E 0 90 4c 68
        E 0 90 64 68
        E 120 80 4c 00
        E 0 80 64 00
        E 0 90 63 68
        E 120 80 63 00
        E 0 90 4b 67
        E 0 90 63 67
        E 120 80 4b 00
        E 0 80 63 00
        E 0 90 62 68
        E 120 80 62 00
        E 0 90 34 66
        E 0 90 4c 66
        E 0 90 64 66
        E 120 80 34 00
        E 0 80 4c 00
        E 0 80 64 00
        E 0 90 63 68
        E 120 80 63 00
        E 0 90 4c 68
        E 0 90 64 68
        E 120 80 4c 00
        E 0 80 64 00
        E 0 90 63 65
        E 120 80 63 00
        E 0 90 1b 67
        E 0 90 33 67
        E 0 90 4b 67
        E 0 90 63 67
        E 120 80 1b 00
        E 0 80 33 00
        E 0 80 4b 00
        E 0 80 63 00
        E 0 90 63 68
        E 120 80 63 00
        E 0 90 4c 66
        E 0 90 64 66
        E 120 80 4c 00
        E 0 80 64 00
        E 0 90 63 65
        E 120 80 63 00
        E 0 90 4c 68
        E 0 90 64 68
        E 120 80 4c 00
        E 0 80 64 00
        E 0 90 63 68
        E 120 80 63 00
        E 0 90 4b 67
        E 0 90 63 67
        E 120 80 4b 00
        E 0 80 63 00
        E 0 90 63 65
        E 120 80 63 00
        E 0 90 34 66
        E 0 90 4c 66
        E 0 90 64 66
        E 120 80 34 00
        E 0 80 4c 00
        E 0 80 64 00
        E 0 90 63 68
        E 120 80 63 00
        E 0 90 4c 68
        E 0 90 64 68
        E 120 80 4c 00
        E 0 80 64 00
        E 0 90 63 65
        E 120 80 63 00
        E 0 90 33 67
        E 0 90 4b 67
        E 0 90 63 67
        E 120 80 33 00
        E 0 80 4b 00
        E 0 80 63 00
        E 0 90 63 68
        E 120 80 63 00
        E 0 90 4c 66
        E 0 90 64 66
        E 120 80 4c 00
        E 0 80 64 00
        E 0 90 63 65
        <X 120 0
          /wFbZW5kX3BnIHNvbmdfdHJhaW5lcl9wZ18yXQ==
        >
        E 0 80 63 00
        E 0 90 4c 68
        E 0 90 64 68
        E 120 80 4c 00
        E 0 80 64 00
        E 0 90 63 68
        E 120 80 63 00
        E 0 90 4b 67
        E 0 90 63 67
        E 120 80 4b 00
        E 0 80 63 00
        E 0 90 63 65
        E 120 80 63 00
        E 0 90 34 66
        E 0 90 4c 66
        E 0 90 64 66
        E 120 80 34 00
        E 0 80 4c 00
        E 0 80 64 00
        E 0 90 63 68
        E 120 80 63 00
        E 0 90 4c 68
        E 0 90 64 68
        E 120 80 4c 00
        E 0 80 64 00
        E 0 90 63 65
        E 120 80 63 00
        E 0 90 1b 67
        E 0 90 33 67
        E 0 90 4b 67
        E 0 90 63 67
        E 120 80 1b 00
        E 0 80 33 00
        E 0 80 4b 00
        E 0 80 63 00
        E 0 90 63 68
        E 120 80 63 00
        E 0 90 4c 66
        E 0 90 64 66
        E 120 80 4c 00
        E 0 80 64 00
        E 0 90 63 65
        E 120 80 63 00
        E 0 90 4c 68
        E 0 90 64 68
        E 120 80 4c 00
        E 0 80 64 00
        E 0 90 63 68
        E 120 80 63 00
        E 0 90 4b 67
        E 0 90 63 67
        E 120 80 4b 00
        E 0 80 63 00
        E 0 90 62 66
        E 120 80 62 00
        E 0 90 34 66
        E 0 90 4c 66
        E 0 90 64 66
        E 120 80 34 00
        E 0 80 4c 00
        E 0 80 64 00
        E 0 90 63 68
        E 120 80 63 00
        E 0 90 4c 68
        E 0 90 64 68
        E 120 80 4c 00
        E 0 80 64 00
        E 0 90 62 66
        E 120 80 62 00
        E 0 90 33 67
        E 0 90 4b 67
        E 0 90 63 67
        E 120 80 33 00
        E 0 80 4b 00
        E 0 80 63 00
        E 0 90 63 68
        E 120 80 63 00
        E 0 90 4c 66
        E 0 90 64 66
        E 120 80 4c 00
        E 0 80 64 00
        E 0 90 62 66
        E 120 80 62 00
        E 0 90 4c 68
        E 0 90 64 68
        E 120 80 4c 00
        E 0 80 64 00
        E 0 90 63 68
        E 120 80 63 00
        E 0 90 4b 67
        E 0 90 63 67
        E 120 80 4b 00
        E 0 80 63 00
        E 0 90 62 66
        E 120 80 62 00
        E 0 90 34 66
        E 0 90 4c 66
        E 0 90 64 66
        E 120 80 34 00
        E 0 80 4c 00
        E 0 80 64 00
        E 0 90 63 68
        E 120 80 63 00
        E 0 90 4c 68
        E 0 90 64 68
        E 120 80 4c 00
        E 0 80 64 00
        E 0 90 62 68
        E 120 80 62 00
        E 0 90 1b 67
        E 0 90 33 67
        E 0 90 4b 67
        E 0 90 63 67
        E 0 90 74 64
        E 120 80 1b 00
        E 0 80 33 00
        E 0 80 4b 00
        E 0 80 63 00
        E 0 90 63 68
        E 120 80 63 00
        E 0 90 4c 66
        E 0 90 64 66
        E 120 80 4c 00
        E 0 80 64 00
        E 0 90 62 68
        E 120 80 62 00
        E 0 90 4c 68
        E 0 90 64 68
        E 120 80 4c 00
        E 0 80 64 00
        E 0 90 63 68
        E 120 80 63 00
        E 0 90 4b 67
        E 0 90 63 67
        E 120 80 4b 00
        E 0 80 63 00
        E 0 90 62 68
        E 120 80 62 00
        E 0 90 34 66
        E 0 90 4c 66
        E 0 90 64 66
        E 120 80 34 00
        E 0 80 4c 00
        E 0 80 64 00
        E 0 90 63 68
        E 120 80 63 00
        E 0 90 4c 68
        E 0 90 64 68
        E 120 80 4c 00
        E 0 80 64 00
        E 0 90 62 68
        E 120 80 62 00
        E 0 90 33 67
        E 0 90 4b 67
        E 0 90 63 67
        E 120 80 33 00
        E 0 80 4b 00
        E 0 80 63 00
        E 0 90 63 68
        E 120 80 63 00
        E 0 90 4c 66
        E 0 90 64 66
        E 120 80 4c 00
        E 0 80 64 00
        E 0 90 63 65
        E 120 80 74 00
        E 0 80 63 00
        E 0 90 4c 68
        E 0 90 64 68
        E 120 80 4c 00
        E 0 80 64 00
        E 0 90 63 68
        E 120 80 63 00
        E 0 90 4b 67
        E 0 90 63 67
        E 120 80 4b 00
        E 0 80 63 00
        E 0 90 63 65
        E 120 80 63 00
        E 0 90 34 66
        E 0 90 4c 66
        E 0 90 64 66
        E 120 80 34 00
        E 0 80 4c 00
        E 0 80 64 00
        E 0 90 63 68
        E 120 80 63 00
        E 0 90 4c 68
        E 0 90 64 68
        E 120 80 4c 00
        E 0 80 64 00
        E 0 90 63 65
        E 120 80 63 00
        E 0 90 1b 67
        E 0 90 33 67
        E 0 90 4b 67
        E 0 90 63 67
        E 120 80 1b 00
        E 0 80 33 00
        E 0 80 4b 00
        E 0 80 63 00
        E 0 90 63 68
        E 120 80 63 00
        E 0 90 4c 66
        E 0 90 64 66
        E 120 80 4c 00
        E 0 80 64 00
        E 0 90 63 65
        E 120 80 63 00
        E 0 90 4c 68
        E 0 90 64 68
        E 120 80 4c 00
        E 0 80 64 00
        E 0 90 63 68
        E 120 80 63 00
        E 0 90 4b 67
        E 0 90 63 67
        E 120 80 4b 00
        E 0 80 63 00
        E 0 90 63 65
        <X 120 0
          /wFbYmVnaW5fcGcgc29uZ190cmFpbmVyX3BnXzNd
        >
        E 0 80 63 00
        E 0 90 1b 68
        E 0 90 33 68
        E 0 90 4b 68
        E 0 90 63 68
        E 120 80 1b 00
        E 0 80 33 00
        E 0 80 4b 00
        E 0 80 63 00
        E 0 90 64 66
        E 120 80 64 00
        E 0 90 4c 68
        E 0 90 64 68
        E 120 80 4c 00
        E 0 80 64 00
        E 0 90 63 67
        E 120 80 63 00
        E 0 90 4d 66
        E 0 90 65 66
        E 120 80 4d 00
        E 0 80 65 00
        E 0 90 64 66
        E 120 80 64 00
        E 0 90 4b 68
        E 0 90 63 68
        E 120 80 4b 00
        E 0 80 63 00
        E 0 90 63 67
        E 120 80 63 00
        E 0 90 34 68
        E 0 90 4c 68
        E 0 90 64 68
        E 120 80 34 00
        E 0 80 4c 00
        E 0 80 64 00
        E 0 90 64 66
        E 120 80 64 00
        E 0 90 4d 66
        E 0 90 65 66
        E 120 80 4d 00
        E 0 80 65 00
        E 0 90 63 67
        E 120 80 63 00
        E 0 90 33 68
        E 0 90 4b 68
        E 0 90 63 68
        E 120 80 33 00
        E 0 80 4b 00
        E 0 80 63 00
        E 0 90 64 66
        E 120 80 64 00
        E 0 90 4c 68
        E 0 90 64 68
        E 120 80 4c 00
        E 0 80 64 00
        E 0 90 63 65
        <X 120 0
          /wFbcGdfbm9ybSBzb25nX3RyYWluZXJfcGdfM10=
        >
        E 0 80 63 00
        E 0 90 4d 66
        E 0 90 65 66
        E 120 80 4d 00
        E 0 80 65 00
        E 0 90 64 66
        E 120 80 64 00
        E 0 90 4b 68
        E 0 90 63 68
        E 120 80 4b 00
        E 0 80 63 00
        E 0 90 63 65
        E 120 80 63 00
        E 0 90 34 68
        E 0 90 4c 68
        E 0 90 64 68
        E 120 80 34 00
        E 0 80 4c 00
        E 0 80 64 00
        E 0 90 64 66
        E 120 80 64 00
        E 0 90 4d 66
        E 0 90 65 66
        E 120 80 4d 00
        E 0 80 65 00
        E 0 90 63 65
        E 120 80 63 00
        E 0 90 1b 68
        E 0 90 33 68
        E 0 90 4b 68
        E 0 90 63 68
        E 120 80 1b 00
        E 0 80 33 00
        E 0 80 4b 00
        E 0 80 63 00
        E 0 90 64 66
        E 120 80 64 00
        E 0 90 4c 68
        E 0 90 64 68
        E 120 80 4c 00
        E 0 80 64 00
        E 0 90 63 65
        E 120 80 63 00
        E 0 90 4d 66
        E 0 90 65 66
        E 120 80 4d 00
        E 0 80 65 00
        E 0 90 64 66
        E 120 80 64 00
        E 0 90 4b 68
        E 0 90 63 68
        E 120 80 4b 00
        E 0 80 63 00
        E 0 90 62 68
        E 120 80 62 00
        E 0 90 1c 68
        E 0 90 34 68
        E 0 90 4c 68
        E 0 90 64 68
        E 120 80 1c 00
        E 0 80 34 00
        E 0 80 4c 00
        E 0 80 64 00
        E 0 90 64 66
        E 120 80 64 00
        E 0 90 4d 66
        E 0 90 65 66
        E 120 80 4d 00
        E 0 80 65 00
        E 0 90 62 68
        E 120 80 62 00
        E 0 90 33 68
        E 0 90 4b 68
        E 0 90 63 68
        E 120 80 33 00
        E 0 80 4b 00
        E 0 80 63 00
        E 0 90 64 66
        E 120 80 64 00
        E 0 90 4c 68
        E 0 90 64 68
        E 120 80 4c 00
        E 0 80 64 00
        E 0 90 62 68
        E 120 80 62 00
        E 0 90 4d 66
        E 0 90 65 66
        E 120 80 4d 00
        E 0 80 65 00
        E 0 90 64 66
        E 120 80 64 00
        E 0 90 4b 68
        E 0 90 63 68
        E 120 80 4b 00
        E 0 80 63 00
        E 0 90 62 68
        E 120 80 62 00
        E 0 90 34 68
        E 0 90 4c 68
        E 0 90 64 68
        E 120 80 34 00
        E 0 80 4c 00
        E 0 80 64 00
        E 0 90 64 66
        E 120 80 64 00
        E 0 90 4d 66
        E 0 90 65 66
        E 120 80 4d 00
        E 0 80 65 00
        E 0 90 62 65
        E 120 80 62 00
        E 0 90 1b 68
        E 0 90 33 68
        E 0 90 4b 68
        E 0 90 63 68
        E 120 80 1b 00
        E 0 80 33 00
        E 0 80 4b 00
        E 0 80 63 00
        E 0 90 64 66
        E 120 80 64 00
        E 0 90 4d 6b
        E 0 90 65 6b
        E 0 90 6c 68
        E 120 80 4d 00
        E 0 80 65 00
        E 0 80 6c 00
        E 0 90 62 65
        E 0 90 6c 65
        E 120 80 62 00
        E 0 80 6c 00
        E 0 90 33 68
        E 0 90 4b 68
        E 0 90 63 68
        E 120 80 33 00
        E 0 80 4b 00
        E 0 80 63 00
        E 0 90 64 66
        E 120 80 64 00
        E 0 90 4d 6a
        E 0 90 65 6a
        E 0 90 6c 68
        E 120 80 4d 00
        E 0 80 65 00
        E 0 80 6c 00
        E 0 90 62 65
        E 0 90 6c 65
        E 120 80 62 00
        E 0 80 6c 00
        E 0 90 1b 68
        E 0 90 33 68
        E 0 90 4b 68
        E 0 90 63 68
        E 120 80 1b 00
        E 0 80 33 00
        E 0 80 4b 00
        E 0 80 63 00
        E 0 90 64 66
        E 120 80 64 00
        E 0 90 4d 68
        E 0 90 65 68
        E 120 80 4d 00
        E 0 80 65 00
        E 0 90 62 65
        E 120 80 62 00
        E 0 90 33 68
        E 0 90 4b 68
        E 0 90 63 68
        E 120 80 33 00
        E 0 80 4b 00
        E 0 80 63 00
        E 0 90 64 66
        E 120 80 64 00
        E 0 90 4d 66
        E 0 90 65 66
        E 120 80 4d 00
        E 0 80 65 00
        <X 120 0
          /wFbYmVnaW5fcGcgc29uZ190cmFpbmVyX3BnXzRd
        >
        <X 0 0
          /wFbZW5kX3BnIHNvbmdfdHJhaW5lcl9wZ18zXQ==
        >
        E 0 90 1b 68
        E 0 90 33 68
        E 0 90 4b 68
        E 0 90 63 68
        E 120 80 1b 00
        E 0 80 33 00
        E 0 80 4b 00
        E 0 80 63 00
        E 0 90 64 66
        E 120 80 64 00
        E 0 90 4c 68
        E 0 90 64 68
        E 120 80 4c 00
        E 0 80 64 00
        E 0 90 63 67
        E 120 80 63 00
        E 0 90 35 66
        E 0 90 4d 66
        E 0 90 65 66
        E 120 80 35 00
        E 0 80 4d 00
        E 0 80 65 00
        E 0 90 64 66
        E 120 80 64 00
        E 0 90 4b 68
        E 0 90 63 68
        E 120 80 4b 00
        E 0 80 63 00
        E 0 90 63 67
        E 120 80 63 00
        E 0 90 34 68
        E 0 90 4c 68
        E 0 90 64 68
        E 120 80 34 00
        E 0 80 4c 00
        E 0 80 64 00
        E 0 90 64 66
        E 120 80 64 00
        E 0 90 4d 66
        E 0 90 65 66
        E 120 80 4d 00
        E 0 80 65 00
        E 0 90 63 65
        E 120 80 63 00
        E 0 90 33 68
        E 0 90 4b 68
        E 0 90 63 68
        E 120 80 33 00
        E 0 80 4b 00
        E 0 80 63 00
        E 0 90 64 66
        E 120 80 64 00
        E 0 90 4c 68
        E 0 90 64 68
        E 120 80 4c 00
        E 0 80 64 00
        E 0 90 63 65
        <X 120 0
          /wFbcGdfbm9ybSBzb25nX3RyYWluZXJfcGdfNF0=
        >
        E 0 80 63 00
        E 0 90 1b 68
        E 0 90 33 68
        E 0 90 4b 68
        E 0 90 63 68
        E 0 90 74 64
        E 120 80 1b 00
        E 0 80 33 00
        E 0 80 4b 00
        E 0 80 63 00
        E 0 90 64 66
        E 120 80 64 00
        E 0 90 4c 68
        E 0 90 64 68
        E 120 80 4c 00
        E 0 80 64 00
        E 0 90 63 65
        E 120 80 63 00
        E 0 90 4d 66
        E 0 90 65 66
        E 120 80 4d 00
        E 0 80 65 00
        E 0 90 64 66
        E 120 80 64 00
        E 0 90 4b 68
        E 0 90 63 68
        E 120 80 4b 00
        E 0 80 63 00
        E 0 90 63 65
        E 120 80 63 00
        E 0 90 34 68
        E 0 90 4c 68
        E 0 90 64 68
        E 120 80 34 00
        E 0 80 4c 00
        E 0 80 64 00
        E 0 90 64 66
        E 120 80 64 00
        E 0 90 4d 66
        E 0 90 65 66
        E 120 80 4d 00
        E 0 80 65 00
        E 0 90 63 65
        E 120 80 63 00
        E 0 90 33 68
        E 0 90 4b 68
        E 0 90 63 68
        E 120 80 33 00
        E 0 80 4b 00
        E 0 80 63 00
        E 0 90 64 66
        E 120 80 64 00
        E 0 90 4c 68
        E 0 90 64 68
        E 120 80 4c 00
        E 0 80 64 00
        E 0 90 62 68
        E 120 80 74 00
        E 0 80 62 00
        E 0 90 4d 66
        E 0 90 65 66
        E 120 80 4d 00
        E 0 80 65 00
        E 0 90 64 66
        E 120 80 64 00
        E 0 90 4b 68
        E 0 90 63 68
        E 120 80 4b 00
        E 0 80 63 00
        E 0 90 62 68
        E 120 80 62 00
        E 0 90 34 68
        E 0 90 4c 68
        E 0 90 64 68
        E 120 80 34 00
        E 0 80 4c 00
        E 0 80 64 00
        E 0 90 64 66
        E 120 80 64 00
        E 0 90 4d 66
        E 0 90 65 66
        E 120 80 4d 00
        E 0 80 65 00
        E 0 90 62 68
        E 120 80 62 00
        E 0 90 1b 68
        E 0 90 33 68
        E 0 90 4b 68
        E 0 90 63 68
        E 120 80 1b 00
        E 0 80 33 00
        E 0 80 4b 00
        E 0 80 63 00
        E 0 90 64 66
        E 120 80 64 00
        E 0 90 4c 68
        E 0 90 64 68
        E 120 80 4c 00
        E 0 80 64 00
        E 0 90 62 68
        E 120 80 62 00
        E 0 90 35 66
        E 0 90 4d 66
        E 0 90 65 66
        E 120 80 35 00
        E 0 80 4d 00
        E 0 80 65 00
        E 0 90 64 66
        E 120 80 64 00
        E 0 90 4b 68
        E 0 90 63 68
        E 120 80 4b 00
        E 0 80 63 00
        E 0 90 62 65
        E 120 80 62 00
        E 0 90 1c 68
        E 0 90 34 68
        E 0 90 4c 68
        E 0 90 64 68
        E 120 80 1c 00
        E 0 80 34 00
        E 0 80 4c 00
        E 0 80 64 00
        E 0 90 64 66
        E 120 80 64 00
        E 0 90 4d 66
        E 0 90 65 66
        E 120 80 4d 00
        E 0 80 65 00
        E 0 90 62 65
        E 120 80 62 00
        E 0 90 35 68
        E 0 90 4d 68
        E 0 90 65 68
        E 120 80 35 00
        E 0 80 4d 00
        E 0 80 65 00
        E 0 90 64 66
        E 120 80 64 00
        E 0 90 4d 6a
        E 0 90 65 6a
        E 120 80 4d 00
        E 0 80 65 00
        E 0 90 62 65
        E 120 80 62 00
        E 0 90 35 68
        E 0 90 4d 68
        E 0 90 65 68
        E 120 80 35 00
        E 0 80 4d 00
        E 0 80 65 00
        E 0 90 64 66
        E 120 80 64 00
        E 0 90 4d 66
        E 0 90 65 66
        E 120 80 4d 00
        E 0 80 65 00
        E 0 90 62 65
        E 120 80 62 00
        E 0 90 34 69
        E 0 90 4c 69
        E 0 90 64 69
        E 120 80 34 00
        E 0 80 4c 00
        E 0 80 64 00
        E 0 90 64 66
        E 120 80 64 00
        E 0 90 4c 68
        E 0 90 64 68
        E 120 80 4c 00
        E 0 80 64 00
        E 0 90 62 65
        <X 120 0
          /wFbZW5kX3BnIHNvbmdfdHJhaW5lcl9wZ180XQ==
        >
        <X 0 0
          /wFbYmVnaW5fcGcgc29uZ190cmFpbmVyX3BnXzVd
        >
        E 0 80 62 00
        E 0 90 1d 68
        E 0 90 35 68
        E 0 90 4d 68
        E 0 90 65 68
        E 0 90 74 64
        E 120 80 1d 00
        E 0 80 35 00
        E 0 80 4d 00
        E 0 80 65 00
        E 0 90 64 68
        E 120 80 64 00
        E 0 90 4b 69
        E 0 90 63 69
        E 120 80 4b 00
        E 0 80 63 00
        E 0 90 63 67
        E 120 80 63 00
        E 0 90 35 68
        E 0 90 4d 68
        E 0 90 65 68
        E 120 80 35 00
        E 0 80 4d 00
        E 0 80 65 00
        E 0 90 64 68
        E 120 80 64 00
        E 0 90 4b 69
        E 0 90 63 69
        E 120 80 4b 00
        E 0 80 63 00
        E 0 90 63 65
        E 120 80 63 00
        E 0 90 35 68
        E 0 90 4d 68
        E 0 90 65 68
        E 120 80 35 00
        E 0 80 4d 00
        E 0 80 65 00
        E 0 90 64 68
        E 120 80 64 00
        E 0 90 4b 69
        E 0 90 63 69
        E 120 80 4b 00
        E 0 80 63 00
        E 0 90 63 67
        E 120 80 63 00
        E 0 90 35 68
        E 0 90 4d 68
        E 0 90 65 68
        E 120 80 35 00
        E 0 80 4d 00
        E 0 80 65 00
        E 0 90 64 68
        E 120 80 64 00
        E 0 90 4b 69
        E 0 90 63 69
        E 120 80 4b 00
        E 0 80 63 00
        E 0 90 63 65
        <X 120 0
          /wFbcGdfbm9ybSBzb25nX3RyYWluZXJfcGdfNV0=
        >
        E 0 80 74 00
        E 0 80 63 00
        E 0 90 4d 68
        E 0 90 65 68
        E 120 80 4d 00
        E 0 80 65 00
        E 0 90 64 69
        E 120 80 64 00
        E 0 90 4c 66
        E 0 90 64 66
        E 120 80 4c 00
        E 0 80 64 00
        E 0 90 63 68
        E 120 80 63 00
        E 0 90 4d 68
        E 0 90 65 68
        E 120 80 4d 00
        E 0 80 65 00
        E 0 90 64 69
        E 120 80 64 00
        E 0 90 4c 66
        E 0 90 64 66
        E 120 80 4c 00
        E 0 80 64 00
        E 0 90 63 65
        E 120 80 63 00
        E 0 90 4d 68
        E 0 90 65 68
        E 120 80 4d 00
        E 0 80 65 00
        E 0 90 64 69
        E 120 80 64 00
        E 0 90 4c 66
        E 0 90 64 66
        E 120 80 4c 00
        E 0 80 64 00
        E 0 90 63 68
        E 120 80 63 00
        E 0 90 4d 68
        E 0 90 65 68
        E 120 80 4d 00
        E 0 80 65 00
        E 0 90 64 69
        E 120 80 64 00
        E 0 90 4c 66
        E 0 90 64 66
        E 120 80 4c 00
        E 0 80 64 00
        E 0 90 63 65
        E 120 80 63 00
        E 0 90 1d 68
        E 0 90 35 68
        E 0 90 4d 68
        E 0 90 65 68
        E 120 80 1d 00
        E 0 80 35 00
        E 0 80 4d 00
        E 0 80 65 00
        E 0 90 64 68
        E 120 80 64 00
        E 0 90 4c 66
        E 0 90 64 66
        E 120 80 4c 00
        E 0 80 64 00
        E 0 90 63 67
        E 120 80 63 00
        E 0 90 35 68
        E 0 90 4d 68
        E 0 90 65 68
        E 120 80 35 00
        E 0 80 4d 00
        E 0 80 65 00
        E 0 90 64 68
        E 120 80 64 00
        E 0 90 4c 66
        E 0 90 64 66
        E 120 80 4c 00
        E 0 80 64 00
        E 0 90 63 65
        E 120 80 63 00
        E 0 90 1d 68
        E 0 90 35 68
        E 0 90 4d 68
        E 0 90 65 68
        E 120 80 1d 00
        E 0 80 35 00
        E 0 80 4d 00
        E 0 80 65 00
        E 0 90 64 68
        E 120 80 64 00
        E 0 90 4c 66
        E 0 90 64 66
        E 120 80 4c 00
        E 0 80 64 00
        E 0 90 63 67
        E 120 80 63 00
        E 0 90 35 68
        E 0 90 4d 68
        E 0 90 65 68
        E 120 80 35 00
        E 0 80 4d 00
        E 0 80 65 00
        E 0 90 64 68
        E 120 80 64 00
        E 0 90 4c 66
        E 0 90 64 66
        E 120 80 4c 00
        E 0 80 64 00
        E 0 90 63 65
        E 120 80 63 00
        E 0 90 35 68
        E 0 90 4d 68
        E 0 90 65 68
        E 120 80 35 00
        E 0 80 4d 00
        E 0 80 65 00
        E 0 90 64 68
        E 120 80 64 00
        E 0 90 4b 69
        E 0 90 63 69
        E 120 80 4b 00
        E 0 80 63 00
        E 0 90 63 67
        E 120 80 63 00
        E 0 90 35 68
        E 0 90 4d 68
        E 0 90 65 68
        E 120 80 35 00
        E 0 80 4d 00
        E 0 80 65 00
        E 0 90 64 68
        E 120 80 64 00
        E 0 90 4b 69
        E 0 90 63 69
        E 120 80 4b 00
        E 0 80 63 00
        E 0 90 63 65
        E 120 80 63 00
        E 0 90 35 68
        E 0 90 4d 68
        E 0 90 65 68
        E 120 80 35 00
        E 0 80 4d 00
        E 0 80 65 00
        E 0 90 64 68
        E 120 80 64 00
        E 0 90 4b 69
        E 0 90 63 69
        E 120 80 4b 00
        E 0 80 63 00
        E 0 90 63 67
        E 120 80 63 00
        E 0 90 35 68
        E 0 90 4d 68
        E 0 90 65 68
        E 120 80 35 00
        E 0 80 4d 00
        E 0 80 65 00
        E 0 90 64 68
        E 120 80 64 00
        E 0 90 4b 69
        E 0 90 63 69
        E 120 80 4b 00
        E 0 80 63 00
        E 0 90 63 65
        <X 120 0
          /wFbZW5kX3BnIHNvbmdfdHJhaW5lcl9wZ181XQ==
        >
        E 0 80 63 00
        E 0 90 35 68
        E 0 90 4d 68
        E 0 90 65 68
        E 120 80 35 00
        E 0 80 4d 00
        E 0 80 65 00
        E 0 90 64 68
        E 120 80 64 00
        E 0 90 4b 69
        E 0 90 63 69
        E 120 80 4b 00
        E 0 80 63 00
        E 0 90 63 67
        E 120 80 63 00
        E 0 90 35 68
        E 0 90 4d 68
        E 0 90 65 68
        E 120 80 35 00
        E 0 80 4d 00
        E 0 80 65 00
        E 0 90 64 68
        E 120 80 64 00
        E 0 90 4b 69
        E 0 90 63 69
        E 120 80 4b 00
        E 0 80 63 00
        E 0 90 63 65
        E 120 80 63 00
        E 0 90 35 68
        E 0 90 4d 68
        E 0 90 65 68
        E 120 80 35 00
        E 0 80 4d 00
        E 0 80 65 00
        E 0 90 64 68
        E 120 80 64 00
        E 0 90 4b 69
        E 0 90 63 69
        E 120 80 4b 00
        E 0 80 63 00
        E 0 90 63 67
        E 120 80 63 00
        E 0 90 35 68
        E 0 90 4d 68
        E 0 90 65 68
        E 120 80 35 00
        E 0 80 4d 00
        E 0 80 65 00
        E 0 90 64 68
        E 120 80 64 00
        E 0 90 4b 69
        E 0 90 63 69
        E 120 80 4b 00
        E 0 80 63 00
        E 0 90 63 65
        E 120 80 63 00
        E 0 90 4d 68
        E 0 90 65 68
        E 120 80 4d 00
        E 0 80 65 00
        E 0 90 64 69
        E 120 80 64 00
        E 0 90 4c 66
        E 0 90 64 66
        E 120 80 4c 00
        E 0 80 64 00
        E 0 90 63 68
        E 120 80 63 00
        E 0 90 4d 68
        E 0 90 65 68
        E 120 80 4d 00
        E 0 80 65 00
        E 0 90 64 69
        E 120 80 64 00
        E 0 90 4c 66
        E 0 90 64 66
        E 120 80 4c 00
        E 0 80 64 00
        E 0 90 63 65
        E 120 80 63 00
        E 0 90 4d 68
        E 0 90 65 68
        E 120 80 4d 00
        E 0 80 65 00
        E 0 90 64 69
        E 120 80 64 00
        E 0 90 4c 66
        E 0 90 64 66
        E 120 80 4c 00
        E 0 80 64 00
        E 0 90 63 68
        E 120 80 63 00
        E 0 90 4d 68
        E 0 90 65 68
        E 120 80 4d 00
        E 0 80 65 00
        E 0 90 64 69
        E 120 80 64 00
        E 0 90 4c 66
        E 0 90 64 66
        E 120 80 4c 00
        E 0 80 64 00
        E 0 90 63 65
        E 120 80 63 00
        E 0 90 1d 68
        E 0 90 35 68
        E 0 90 4d 68
        E 0 90 65 68
        E 120 80 1d 00
        E 0 80 35 00
        E 0 80 4d 00
        E 0 80 65 00
        E 0 90 64 68
        E 120 80 64 00
        E 0 90 4c 66
        E 0 90 64 66
        E 120 80 4c 00
        E 0 80 64 00
        E 0 90 63 67
        E 120 80 63 00
        E 0 90 35 68
        E 0 90 4d 68
        E 0 90 65 68
        E 120 80 35 00
        E 0 80 4d 00
        E 0 80 65 00
        E 0 90 64 68
        E 120 80 64 00
        E 0 90 4c 66
        E 0 90 64 66
        E 120 80 4c 00
        E 0 80 64 00
        E 0 90 63 65
        E 120 80 63 00
        E 0 90 1d 68
        E 0 90 35 68
        E 0 90 4d 68
        E 0 90 65 68
        E 120 80 1d 00
        E 0 80 35 00
        E 0 80 4d 00
        E 0 80 65 00
        E 0 90 64 68
        E 120 80 64 00
        E 0 90 4c 66
        E 0 90 64 66
        E 120 80 4c 00
        E 0 80 64 00
        E 0 90 63 67
        E 120 80 63 00
        E 0 90 35 68
        E 0 90 4d 68
        E 0 90 65 68
        E 120 80 35 00
        E 0 80 4d 00
        E 0 80 65 00
        E 0 90 64 68
        E 120 80 64 00
        E 0 90 4c 66
        E 0 90 64 66
        E 120 80 4c 00
        E 0 80 64 00
        E 0 90 63 65
        E 120 80 63 00
        E 0 90 35 68
        E 0 90 4d 68
        E 0 90 65 68
        E 120 80 35 00
        E 0 80 4d 00
        E 0 80 65 00
        E 0 90 64 68
        E 120 80 64 00
        E 0 90 4b 69
        E 0 90 63 69
        E 120 80 4b 00
        E 0 80 63 00
        E 0 90 63 67
        E 120 80 63 00
        E 0 90 35 68
        E 0 90 4d 68
        E 0 90 65 68
        E 120 80 35 00
        E 0 80 4d 00
        E 0 80 65 00
        E 0 90 64 68
        E 120 80 64 00
        E 0 90 4b 69
        E 0 90 63 69
        E 120 80 4b 00
        E 0 80 63 00
        E 0 90 63 65
        E 120 80 63 00
        E 0 90 35 68
        E 0 90 4d 68
        E 0 90 65 68
        E 120 80 35 00
        E 0 80 4d 00
        E 0 80 65 00
        E 0 90 64 68
        E 120 80 64 00
        E 0 90 4b 69
        E 0 90 63 69
        E 120 80 4b 00
        E 0 80 63 00
        E 0 90 63 67
        E 120 80 63 00
        E 0 90 35 68
        E 0 90 4d 68
        E 0 90 65 68
        E 120 80 35 00
        E 0 80 4d 00
        E 0 80 65 00
        E 0 90 64 68
        E 120 80 64 00
        E 0 90 4b 69
        E 0 90 63 69
        E 120 80 4b 00
        E 0 80 63 00
        E 3960 b0 7b 00
        GUID {17EA7FB2-1911-4B2D-8194-27EE3E8AC422}
        IGNTEMPO 0 120.00000000 4 4
        SRCCOLOR 8
        VELLANE 132 128 60
        COLORMAP "C:\Program Files\REAPER (x64)\Data\color_maps\rockband_guitarbass.png"
        CFGEDITVIEW -4118.682102 17.156936 7 12 0 0 0
        CFGEDIT 1 1 0 1 1 0 1 1 1 1 1 0.25000000 -8 -8 1544 872 0 2 1 1 0.00000000 0 1 0 0 0.500000 0 0 1.000000 64
        KEYSNAP 0 6 "102030050700" 0 "Pentatonic"
        EVTFILTER 0 -1 -1 -1 -1 0 1 0 0 -1.00000000 -1.00000000
      >
    >
  >
  <TRACK '{AEF33FB5-02FF-4B31-A2C2-7507870F4949}'
    NAME "EVENTS"
    PEAKCOL 16576
    BEAT -1
    AUTOMODE 0
    VOLPAN 1.00000000000000 0.00000000000000 -1.00000000000000 -1.00000000000000 1.00000000000000
    MUTESOLO 0 0 0
    IPHASE 0
    ISBUS 0 0
    BUSCOMP 0 0
    SHOWINMIX 1 0.666700 0.500000 1 0.500000 -1 -1 -1
    FREEMODE 0
    SEL 0
    REC 0 0 0 0 0 0 0
    VU 2
    TRACKHEIGHT 0 0
    INQ 0 0 0 0.5000000000 100 0 0 100
    NCHAN 2
    FX 1
    TRACKID {AEF33FB5-02FF-4B31-A2C2-7507870F4949}
    PERF 0
    MIDIOUT -1
    <MIDINOTENAMES
      0 26 "Hi-Hat"
      0 25 "Snare"
      0 24 "Kick"
    >
    MAINSEND 1 0
    <FXCHAIN
      SHOW 0
      LASTSEL 0
      DOCKED 0
    >
    <ITEM
      POSITION 0.00000000000000
      SNAPOFFS 0.00000000000000
      LENGTH 63.47100000000000
      LOOP 0
      ALLTAKES 0
      SEL 0
      FADEIN 1 0.000000 0.000000 1 0
      FADEOUT 1 0.000000 0.000000 1 0
      MUTE 0
      IGUID {E79D43DB-674F-4E9F-AAD6-11B982EF68F9}
      IID 13
      NAME "EVENTS"
      VOLPAN 1.000000 0.000000 1.000000 -1.000000
      SOFFS 0.00000000000000 0.00000000000000
      PLAYRATE 1.00000000000000 1 0.00000000000000 -1
      CHANMODE 0
      GUID {B2521A1A-52E7-4362-B07B-513CD3F923B6}
      <SOURCE MIDI
        HASDATA 1 480 QN
        POOLEDEVTS {7242BFB6-9A68-4845-B273-54A1279A53E8}
        <X 0 0
          /wNFVkVOVFM=
        >
        <X 3840 0
          /wFbcHJjX2ludHJvXQ==
        >
        <X 0 0
          /wFbY3Jvd2Rfbm9ybWFsXQ==
        >
        <X 0 0
          /wFbbXVzaWNfc3RhcnRd
        >
        E 0 90 18 60
        E 0 90 1a 60
        E 120 80 18 00
        E 0 80 1a 00
        E 0 90 18 60
        E 120 80 18 00
        E 0 90 1a 60
        E 120 80 1a 00
        E 120 90 18 60
        E 0 90 1a 60
        E 120 80 18 00
        E 0 80 1a 00
        E 120 90 1a 60
        E 120 80 1a 00
        E 120 90 19 60
        E 0 90 1a 60
        E 120 80 19 7d
        E 0 80 1a 00
        E 120 90 18 60
        E 0 90 1a 60
        E 120 80 18 00
        E 0 80 1a 00
        E 120 90 1a 60
        E 120 80 1a 00
        E 120 90 1a 60
        E 120 80 1a 00
        E 120 90 18 60
        E 0 90 1a 60
        E 120 80 18 00
        E 0 80 1a 00
        E 0 90 18 60
        E 120 80 18 00
        E 0 90 1a 60
        E 120 80 1a 00
        E 120 90 18 60
        E 0 90 1a 60
        E 120 80 18 00
        E 0 80 1a 00
        E 120 90 1a 60
        E 120 80 1a 00
        E 120 90 19 60
        E 0 90 1a 60
        E 120 80 19 7f
        E 0 80 1a 00
        E 120 90 18 60
        E 0 90 1a 60
        E 120 80 18 00
        E 0 80 1a 00
        E 120 90 1a 60
        E 120 80 1a 00
        E 120 90 1a 60
        E 120 80 1a 00
        E 120 90 18 60
        E 0 90 1a 60
        E 120 80 18 00
        E 0 80 1a 00
        E 0 90 18 60
        E 120 80 18 00
        E 0 90 1a 60
        E 120 80 1a 00
        E 120 90 18 60
        E 0 90 1a 60
        E 120 80 18 00
        E 0 80 1a 00
        E 120 90 1a 60
        E 120 80 1a 00
        E 120 90 19 60
        E 0 90 1a 60
        E 120 80 19 7d
        E 0 80 1a 00
        E 120 90 18 60
        E 0 90 1a 60
        E 120 80 18 00
        E 0 80 1a 00
        E 120 90 1a 60
        E 120 80 1a 00
        E 120 90 1a 60
        E 120 80 1a 00
        E 120 90 18 60
        E 0 90 1a 60
        E 120 80 18 00
        E 0 80 1a 00
        E 0 90 18 60
        E 120 80 18 00
        E 0 90 1a 60
        E 120 80 1a 00
        E 120 90 18 60
        E 0 90 1a 60
        E 120 80 18 00
        E 0 80 1a 00
        E 120 90 1a 60
        E 120 80 1a 00
        E 120 90 19 60
        E 0 90 1a 60
        E 120 80 19 7f
        E 0 80 1a 00
        E 120 90 18 60
        E 0 90 1a 60
        E 120 80 18 00
        E 0 80 1a 00
        E 120 90 1a 60
        E 120 80 1a 00
        E 120 90 1a 60
        E 120 80 1a 00
        E 120 90 18 60
        E 0 90 1a 60
        E 120 80 18 00
        E 0 80 1a 00
        E 0 90 18 60
        E 120 80 18 00
        E 0 90 1a 60
        E 120 80 1a 00
        E 120 90 18 60
        E 0 90 1a 60
        E 120 80 18 00
        E 0 80 1a 00
        E 120 90 1a 60
        E 120 80 1a 00
        E 120 90 19 60
        E 0 90 1a 60
        E 120 80 19 7d
        E 0 80 1a 00
        E 120 90 18 60
        E 0 90 1a 60
        E 120 80 18 00
        E 0 80 1a 00
        E 120 90 1a 60
        E 120 80 1a 00
        E 120 90 1a 60
        E 120 80 1a 00
        E 120 90 18 60
        E 0 90 1a 60
        E 120 80 18 00
        E 0 80 1a 00
        E 0 90 18 60
        E 120 80 18 00
        E 0 90 1a 60
        E 120 80 1a 00
        E 120 90 18 60
        E 0 90 1a 60
        E 120 80 18 00
        E 0 80 1a 00
        E 120 90 1a 60
        E 120 80 1a 00
        E 120 90 19 60
        E 0 90 1a 60
        E 120 80 19 7f
        E 0 80 1a 00
        E 120 90 18 60
        E 0 90 1a 60
        E 120 80 18 00
        E 0 80 1a 00
        E 120 90 1a 60
        E 120 80 1a 00
        E 120 90 1a 60
        E 120 80 1a 00
        E 120 90 18 60
        E 0 90 1a 60
        E 120 80 18 00
        E 0 80 1a 00
        E 0 90 18 60
        E 120 80 18 00
        E 0 90 1a 60
        E 120 80 1a 00
        E 120 90 18 60
        E 0 90 1a 60
        E 120 80 18 00
        E 0 80 1a 00
        E 120 90 1a 60
        E 120 80 1a 00
        E 120 90 19 60
        E 0 90 1a 60
        E 120 80 19 7d
        E 0 80 1a 00
        E 120 90 18 60
        E 0 90 1a 60
        E 120 80 18 00
        E 0 80 1a 00
        E 120 90 1a 60
        E 120 80 1a 00
        E 120 90 1a 60
        E 120 80 1a 00
        E 120 90 18 60
        E 0 90 1a 60
        E 120 80 18 00
        E 0 80 1a 00
        E 0 90 18 60
        E 120 80 18 00
        E 0 90 1a 60
        E 120 80 1a 00
        E 120 90 18 60
        E 0 90 1a 60
        E 120 80 18 00
        E 0 80 1a 00
        E 120 90 1a 60
        E 120 80 1a 00
        E 0 90 19 60
        E 120 80 19 40
        E 0 90 19 60
        E 0 90 1a 60
        E 120 80 19 40
        E 0 80 1a 00
        E 120 90 18 60
        E 0 90 19 60
        E 0 90 1a 60
        E 120 80 18 00
        E 0 80 19 40
        E 0 80 1a 00
        E 120 90 1a 60
        E 120 80 1a 00
        E 120 90 1a 60
        E 120 80 1a 00
        <X 120 0
          /wFbcHJjX2Fd
        >
        E 0 90 18 60
        E 0 90 1a 60
        E 120 80 18 00
        E 0 80 1a 00
        E 0 90 18 60
        E 120 80 18 00
        E 0 90 1a 60
        E 120 80 1a 00
        E 120 90 18 60
        E 0 90 1a 60
        E 120 80 18 00
        E 0 80 1a 00
        E 120 90 1a 60
        E 120 80 1a 00
        E 120 90 19 60
        E 0 90 1a 60
        E 120 80 19 7d
        E 0 80 1a 00
        E 120 90 18 60
        E 0 90 1a 60
        E 120 80 18 00
        E 0 80 1a 00
        E 120 90 1a 60
        E 120 80 1a 00
        E 120 90 1a 60
        E 120 80 1a 00
        E 120 90 18 60
        E 0 90 1a 60
        E 120 80 18 00
        E 0 80 1a 00
        E 0 90 18 60
        E 120 80 18 00
        E 0 90 1a 60
        E 120 80 1a 00
        E 0 90 18 60
        E 120 80 18 00
        E 0 90 18 60
        E 0 90 1a 60
        E 120 80 18 00
        E 0 80 1a 00
        E 120 90 1a 60
        E 120 80 1a 00
        E 120 90 19 60
        E 0 90 1a 60
        E 120 80 19 7f
        E 0 80 1a 00
        E 120 90 18 60
        E 0 90 1a 60
        E 120 80 18 00
        E 0 80 1a 00
        E 120 90 1a 60
        E 120 80 1a 00
        E 120 90 1a 60
        E 120 80 1a 00
        E 120 90 18 60
        E 0 90 1a 60
        E 120 80 18 00
        E 0 80 1a 00
        E 0 90 18 60
        E 120 80 18 00
        E 0 90 1a 60
        E 120 80 1a 00
        E 120 90 18 60
        E 0 90 1a 60
        E 120 80 18 00
        E 0 80 1a 00
        E 120 90 1a 60
        E 120 80 1a 00
        E 120 90 19 60
        E 0 90 1a 60
        E 120 80 19 7d
        E 0 80 1a 00
        E 120 90 18 60
        E 0 90 1a 60
        E 120 80 18 00
        E 0 80 1a 00
        E 120 90 1a 60
        E 120 80 1a 00
        E 120 90 1a 60
        E 120 80 1a 00
        E 120 90 18 60
        E 0 90 1a 60
        E 120 80 18 00
        E 0 80 1a 00
        E 0 90 18 60
        E 120 80 18 00
        E 0 90 1a 60
        E 120 80 1a 00
        E 0 90 18 60
        E 120 80 18 00
        E 0 90 18 60
        E 0 90 19 60
        E 0 90 1a 60
        E 120 80 18 00
        E 0 80 19 40
        E 0 80 1a 00
        E 120 90 1a 60
        E 120 80 1a 00
        E 120 90 1a 60
        E 120 80 1a 00
        E 120 90 18 60
        E 0 90 1a 60
        E 120 80 18 00
        E 0 80 1a 00
        E 120 90 19 60
        E 0 90 1a 60
        E 120 80 19 40
        E 0 80 1a 00
        E 0 90 18 60
        E 120 80 18 00
        E 0 90 1a 60
        E 120 80 1a 00
        E 120 90 18 60
        E 0 90 1a 60
        E 120 80 18 00
        E 0 80 1a 00
        E 0 90 18 60
        E 120 80 18 00
        E 0 90 1a 60
        E 120 80 1a 00
        E 0 90 18 60
        E 120 80 18 00
        E 0 90 18 60
        E 0 90 1a 60
        E 120 80 18 00
        E 0 80 1a 00
        E 120 90 1a 60
        E 120 80 1a 00
        E 120 90 19 60
        E 0 90 1a 60
        E 120 80 19 7d
        E 0 80 1a 00
        E 120 90 18 60
        E 0 90 1a 60
        E 120 80 18 00
        E 0 80 1a 00
        E 120 90 1a 60
        E 120 80 1a 00
        E 0 90 18 60
        E 120 80 18 00
        E 0 90 1a 60
        E 120 80 1a 00
        E 120 90 18 60
        E 0 90 1a 60
        E 120 80 18 00
        E 0 80 1a 00
        E 0 90 18 60
        E 120 80 18 00
        E 0 90 1a 60
        E 120 80 1a 00
        E 0 90 18 60
        E 120 80 18 00
        E 0 90 18 60
        E 0 90 1a 60
        E 120 80 18 00
        E 0 80 1a 00
        E 120 90 1a 60
        E 120 80 1a 00
        E 120 90 19 60
        E 0 90 1a 60
        E 120 80 19 7f
        E 0 80 1a 00
        E 120 90 18 60
        E 0 90 1a 60
        E 120 80 18 00
        E 0 80 1a 00
        E 120 90 1a 60
        E 120 80 1a 00
        E 0 90 18 60
        E 120 80 18 00
        E 0 90 1a 60
        E 120 80 1a 00
        E 120 90 18 60
        E 0 90 1a 60
        E 120 80 18 00
        E 0 80 1a 00
        E 0 90 18 60
        E 120 80 18 00
        E 0 90 1a 60
        E 120 80 1a 00
        E 0 90 18 60
        E 120 80 18 00
        E 0 90 18 60
        E 0 90 1a 60
        E 120 80 18 00
        E 0 80 1a 00
        E 120 90 1a 60
        E 120 80 1a 00
        E 120 90 19 60
        E 0 90 1a 60
        E 120 80 19 7d
        E 0 80 1a 00
        E 120 90 18 60
        E 0 90 1a 60
        E 120 80 18 00
        E 0 80 1a 00
        E 120 90 1a 60
        E 120 80 1a 00
        E 0 90 18 60
        E 120 80 18 00
        E 0 90 1a 60
        E 120 80 1a 00
        E 120 90 18 60
        E 0 90 1a 60
        E 120 80 18 00
        E 0 80 1a 00
        E 0 90 18 60
        E 120 80 18 00
        E 0 90 1a 60
        E 120 80 1a 00
        E 0 90 18 60
        E 120 80 18 00
        E 0 90 18 60
        E 0 90 1a 60
        E 120 80 18 00
        E 0 80 1a 00
        E 120 90 1a 60
        E 120 80 1a 00
        E 120 90 18 60
        E 0 90 1a 60
        E 120 80 18 00
        E 0 80 1a 00
        E 120 90 19 60
        E 0 90 1a 60
        E 120 80 19 40
        E 0 80 1a 00
        E 120 90 18 60
        E 0 90 1a 60
        E 120 80 18 00
        E 0 80 1a 00
        E 120 90 1a 60
        E 120 80 1a 00
        <X 120 0
          /wFbcHJjX2Jd
        >
        E 0 90 18 60
        E 0 90 1a 60
        E 120 80 18 00
        E 0 80 1a 00
        E 0 90 18 60
        E 120 80 18 00
        E 0 90 1a 60
        E 120 80 1a 00
        E 0 90 18 60
        E 120 80 18 00
        E 0 90 18 60
        E 0 90 1a 60
        E 120 80 18 00
        E 0 80 1a 00
        E 120 90 1a 60
        E 120 80 1a 00
        E 120 90 19 60
        E 0 90 1a 60
        E 120 80 19 7d
        E 0 80 1a 00
        E 120 90 18 60
        E 0 90 1a 60
        E 120 80 18 00
        E 0 80 1a 00
        E 120 90 1a 60
        E 120 80 1a 00
        E 0 90 18 60
        E 120 80 18 00
        E 0 90 1a 60
        E 120 80 1a 00
        E 120 90 18 60
        E 0 90 1a 60
        E 120 80 18 00
        E 0 80 1a 00
        E 0 90 18 60
        E 120 80 18 00
        E 0 90 1a 60
        E 120 80 1a 00
        E 0 90 18 60
        E 120 80 18 00
        E 0 90 18 60
        E 0 90 1a 60
        E 120 80 18 00
        E 0 80 1a 00
        E 120 90 1a 60
        E 120 80 1a 00
        E 120 90 19 60
        E 0 90 1a 60
        E 120 80 19 7f
        E 0 80 1a 00
        E 120 90 18 60
        E 0 90 1a 60
        E 120 80 18 00
        E 0 80 1a 00
        E 120 90 1a 60
        E 120 80 1a 00
        E 0 90 18 60
        E 120 80 18 00
        E 0 90 1a 60
        E 120 80 1a 00
        E 120 90 18 60
        E 0 90 1a 60
        E 120 80 18 00
        E 0 80 1a 00
        E 0 90 18 60
        E 120 80 18 00
        E 0 90 1a 60
        E 120 80 1a 00
        E 0 90 18 60
        E 120 80 18 00
        E 0 90 18 60
        E 0 90 1a 60
        E 120 80 18 00
        E 0 80 1a 00
        E 120 90 1a 60
        E 120 80 1a 00
        E 120 90 19 60
        E 0 90 1a 60
        E 120 80 19 7d
        E 0 80 1a 00
        E 120 90 18 60
        E 0 90 1a 60
        E 120 80 18 00
        E 0 80 1a 00
        E 120 90 1a 60
        E 120 80 1a 00
        E 0 90 18 60
        E 120 80 18 00
        E 0 90 1a 60
        E 120 80 1a 00
        E 120 90 18 60
        E 0 90 1a 60
        E 120 80 18 00
        E 0 80 1a 00
        E 0 90 18 60
        E 120 80 18 00
        E 0 90 1a 60
        E 120 80 1a 00
        E 0 90 18 60
        E 120 80 18 00
        E 0 90 18 60
        E 0 90 1a 60
        E 120 80 18 00
        E 0 80 1a 00
        E 120 90 1a 60
        E 120 80 1a 00
        E 120 90 18 60
        E 0 90 1a 60
        E 120 80 18 00
        E 0 80 1a 00
        E 120 90 19 60
        E 0 90 1a 60
        E 120 80 19 40
        E 0 80 1a 00
        E 120 90 18 60
        E 0 90 1a 60
        E 120 80 18 00
        E 0 80 1a 00
        E 120 90 1a 60
        E 120 80 1a 00
        E 0 90 18 60
        <X 120 0
          /wFbcHJjX291dHJvXQ==
        >
        <X 0 0
          /wFbY3Jvd2RfY2xhcF0=
        >
        <X 0 0
          /wFbY3Jvd2RfaW50ZW5zZV0=
        >
        E 0 80 18 00
        E 0 90 18 60
        E 0 90 1a 60
        E 120 80 18 00
        E 0 80 1a 00
        E 120 90 1a 60
        E 120 80 1a 00
        E 120 90 18 60
        E 0 90 19 60
        E 0 90 1a 60
        E 120 80 18 00
        E 0 80 19 40
        E 0 80 1a 00
        E 120 90 1a 60
        E 120 80 1a 00
        E 120 90 1a 60
        E 120 80 1a 00
        E 120 90 18 60
        E 0 90 1a 60
        E 120 80 18 00
        E 0 80 1a 00
        E 120 90 19 60
        E 0 90 1a 60
        E 120 80 19 40
        E 0 80 1a 00
        E 120 90 1a 60
        E 120 80 1a 00
        E 120 90 18 60
        E 0 90 1a 60
        E 120 80 18 00
        E 0 80 1a 00
        E 0 90 18 60
        E 120 80 18 00
        E 0 90 1a 60
        E 120 80 1a 00
        E 120 90 18 60
        E 0 90 19 60
        E 0 90 1a 60
        E 120 80 18 00
        E 0 80 19 40
        E 0 80 1a 00
        E 120 90 1a 60
        E 120 80 1a 00
        E 120 90 1a 60
        E 120 80 1a 00
        E 120 90 18 60
        E 0 90 1a 60
        E 120 80 18 00
        E 0 80 1a 00
        E 120 90 19 60
        E 0 90 1a 60
        E 120 80 19 40
        E 0 80 1a 00
        E 120 90 1a 60
        E 120 80 1a 00
        E 120 90 18 60
        E 0 90 1a 60
        E 120 80 18 00
        E 0 80 1a 00
        E 0 90 18 60
        E 120 80 18 00
        E 0 90 1a 60
        E 120 80 1a 00
        E 120 90 18 60
        E 0 90 19 60
        E 0 90 1a 60
        E 120 80 18 00
        E 0 80 19 40
        E 0 80 1a 00
        E 120 90 1a 60
        E 120 80 1a 00
        E 120 90 1a 60
        E 120 80 1a 00
        E 120 90 18 60
        E 0 90 1a 60
        E 120 80 18 00
        E 0 80 1a 00
        E 120 90 19 60
        E 0 90 1a 60
        E 120 80 19 40
        E 0 80 1a 00
        E 120 90 1a 60
        E 120 80 1a 00
        E 120 90 18 60
        E 0 90 1a 60
        E 120 80 18 00
        E 0 80 1a 00
        E 0 90 18 60
        E 120 80 18 00
        E 0 90 1a 60
        E 120 80 1a 00
        E 120 90 18 60
        E 0 90 19 60
        E 0 90 1a 60
        E 120 80 18 00
        E 0 80 19 40
        E 0 80 1a 00
        E 120 90 1a 60
        E 120 80 1a 00
        E 0 90 19 60
        E 120 80 19 40
        E 0 90 1a 60
        E 120 80 1a 00
        E 120 90 18 60
        E 0 90 19 60
        E 0 90 1a 60
        E 120 80 18 00
        E 0 80 19 40
        E 0 80 1a 00
        E 120 90 1a 60
        E 120 80 1a 00
        E 120 90 1a 60
        E 120 80 1a 00
        E 120 90 18 60
        E 0 90 1a 60
        E 120 80 18 00
        E 0 80 1a 00
        E 0 90 18 60
        E 120 80 18 00
        E 0 90 1a 60
        E 120 80 1a 00
        E 120 90 18 60
        E 0 90 19 60
        E 0 90 1a 60
        E 120 80 18 00
        E 0 80 19 40
        E 0 80 1a 00
        E 120 90 1a 60
        E 120 80 1a 00
        E 120 90 1a 60
        E 120 80 1a 00
        E 120 90 18 60
        E 0 90 1a 60
        E 120 80 18 00
        E 0 80 1a 00
        E 120 90 19 60
        E 0 90 1a 60
        E 120 80 19 40
        E 0 80 1a 00
        E 120 90 1a 60
        E 120 80 1a 00
        E 120 90 18 60
        E 0 90 1a 60
        E 120 80 18 00
        E 0 80 1a 00
        E 0 90 18 60
        E 120 80 18 00
        E 0 90 1a 60
        E 120 80 1a 00
        E 0 90 18 60
        E 120 80 18 00
        E 0 90 18 60
        E 0 90 19 60
        E 0 90 1a 60
        E 120 80 18 00
        E 0 80 19 40
        E 0 80 1a 00
        E 120 90 1a 60
        E 120 80 1a 00
        E 0 90 19 60
        E 120 80 19 40
        E 0 90 1a 60
        E 120 80 1a 00
        E 120 90 18 60
        E 0 90 19 60
        E 0 90 1a 60
        E 120 80 18 00
        E 0 80 19 40
        E 0 80 1a 00
        E 120 90 1a 60
        E 120 80 1a 00
        E 120 90 1a 60
        E 120 80 1a 00
        E 120 90 18 60
        E 0 90 1a 60
        E 120 80 18 00
        E 0 80 1a 00
        E 0 90 18 60
        E 120 80 18 00
        E 0 90 1a 60
        E 120 80 1a 00
        E 120 90 18 60
        E 0 90 19 60
        E 0 90 1a 60
        E 120 80 18 00
        E 0 80 19 40
        E 0 80 1a 00
        E 120 90 1a 60
        E 120 80 1a 00
        E 120 90 1a 60
        E 120 80 1a 00
        E 120 90 18 60
        E 0 90 1a 60
        E 120 80 18 00
        E 0 80 1a 00
        E 120 90 19 60
        E 0 90 1a 60
        E 120 80 19 40
        E 0 80 1a 00
        E 120 90 1a 60
        E 120 80 1a 00
        E 120 90 18 60
        E 0 90 1a 60
        E 120 80 18 00
        E 0 80 1a 00
        E 0 90 18 60
        E 120 80 18 00
        E 0 90 1a 60
        E 120 80 1a 00
        E 0 90 18 60
        E 120 80 18 00
        E 0 90 18 60
        E 0 90 1a 60
        E 120 80 18 00
        E 0 80 1a 00
        E 120 90 1a 60
        E 120 80 1a 00
        E 120 90 1a 60
        E 120 80 1a 00
        E 120 90 18 60
        E 0 90 1a 60
        E 120 80 18 00
        E 0 80 1a 00
        E 120 90 1a 60
        E 120 80 1a 00
        E 0 90 18 60
        E 120 80 18 00
        E 0 90 1a 60
        E 120 80 1a 00
        <X 120 0
          /wFbY3Jvd2Rfbm9jbGFwXQ==
        >
        E 0 90 18 60
        E 0 90 1a 60
        E 120 80 18 00
        E 0 80 1a 00
        <X 120 0
          /wFbbXVzaWNfZW5kXQ==
        >
        <X 240 0
          /wFbY3Jvd2RfcmVhbHRpbWVd
        >
        <X 3355 0
          /wFbZW5kXQ==
        >
        E 5 b0 7b 00
        GUID {EC17A62E-EF02-4330-AA58-70DD73D10B77}
        IGNTEMPO 0 120.00000000 4 4
        SRCCOLOR 16
        VELLANE 132 128 60
        COLORMAP "C:\Program Files\REAPER (x64)\Data\color_maps\rockband_guitarbass.png"
        CFGEDITVIEW 49302.641364 67.344028 0 48 0 0 0
        CFGEDIT 1 1 0 1 1 0 1 1 1 1 1 0.25000000 -8 -8 1544 872 0 2 1 1 0.00000000 0 1 0 0 0.500000 0 0 1.000000 64
        KEYSNAP 0 6 "102030050700" 0 "Pentatonic"
        EVTFILTER 0 -1 -1 -1 -1 0 1 0 0 -1.00000000 -1.00000000
      >
    >
  >
  <TRACK '{1EF29478-48EA-4C93-9168-916280A5614E}'
    NAME "BEAT"
    PEAKCOL 16576
    BEAT -1
    AUTOMODE 0
    VOLPAN 1.00000000000000 0.00000000000000 -1.00000000000000 -1.00000000000000 1.00000000000000
    MUTESOLO 0 0 0
    IPHASE 0
    ISBUS 0 0
    BUSCOMP 0 0
    SHOWINMIX 1 0.666700 0.500000 1 0.500000 -1 -1 -1
    FREEMODE 0
    SEL 0
    REC 0 0 0 0 0 0 0
    VU 2
    TRACKHEIGHT 0 0
    INQ 0 0 0 0.5000000000 100 0 0 100
    NCHAN 2
    FX 1
    TRACKID {1EF29478-48EA-4C93-9168-916280A5614E}
    PERF 0
    MIDIOUT -1
    <MIDINOTENAMES
      0 13 "Up Beats"
      0 12 "Downbeat"
    >
    MAINSEND 1 0
    <FXCHAIN
      SHOW 0
      LASTSEL 0
      DOCKED 0
    >
    <ITEM
      POSITION 0.00000000000000
      SNAPOFFS 0.00000000000000
      LENGTH 63.47100000000000
      LOOP 0
      ALLTAKES 0
      SEL 0
      FADEIN 1 0.000000 0.000000 1 0
      FADEOUT 1 0.000000 0.000000 1 0
      MUTE 0
      IGUID {0FE09BFA-3566-4971-B3C5-422DCF0B0771}
      IID 14
      NAME "BEAT"
      VOLPAN 1.000000 0.000000 1.000000 -1.000000
      SOFFS 0.00000000000000 0.00000000000000
      PLAYRATE 1.00000000000000 1 0.00000000000000 -1
      CHANMODE 0
      GUID {E9CBCD21-5A3F-4F4F-B101-CE390504959E}
      <SOURCE MIDI
        HASDATA 1 480 QN
        POOLEDEVTS {BEFD1739-0D62-4D93-825B-6856F3E59C6D}
        <X 0 0
          /wNCRUFU
        >
        E 0 96 0c 64
        E 120 86 0c 00
        E 360 96 0d 64
        E 120 86 0d 00
        E 360 96 0d 64
        E 120 86 0d 00
        E 360 96 0d 64
        E 120 86 0d 00
        E 360 96 0c 64
        E 120 86 0c 00
        E 360 96 0d 64
        E 120 86 0d 00
        E 360 96 0d 64
        E 120 86 0d 00
        E 360 96 0d 64
        E 120 86 0d 00
        E 360 96 0c 64
        E 120 86 0c 00
        E 360 96 0d 64
        E 120 86 0d 00
        E 360 96 0d 64
        E 120 86 0d 00
        E 360 96 0d 64
        E 120 86 0d 00
        E 360 96 0c 64
        E 120 86 0c 00
        E 360 96 0d 64
        E 120 86 0d 00
        E 360 96 0d 64
        E 120 86 0d 00
        E 360 96 0d 64
        E 120 86 0d 00
        E 360 96 0c 64
        E 120 86 0c 00
        E 360 96 0d 64
        E 120 86 0d 00
        E 360 96 0d 64
        E 120 86 0d 00
        E 360 96 0d 64
        E 120 86 0d 00
        E 360 96 0c 64
        E 120 86 0c 00
        E 360 96 0d 64
        E 120 86 0d 00
        E 360 96 0d 64
        E 120 86 0d 00
        E 360 96 0d 64
        E 120 86 0d 00
        E 360 96 0c 64
        E 120 86 0c 00
        E 360 96 0d 64
        E 120 86 0d 00
        E 360 96 0d 64
        E 120 86 0d 00
        E 360 96 0d 64
        E 120 86 0d 00
        E 360 96 0c 64
        E 120 86 0c 00
        E 360 96 0d 64
        E 120 86 0d 00
        E 360 96 0d 64
        E 120 86 0d 00
        E 360 96 0d 64
        E 120 86 0d 00
        E 360 96 0c 64
        E 120 86 0c 00
        E 360 96 0d 64
        E 120 86 0d 00
        E 360 96 0d 64
        E 120 86 0d 00
        E 360 96 0d 64
        E 120 86 0d 00
        E 360 96 0c 64
        E 120 86 0c 00
        E 360 96 0d 64
        E 120 86 0d 00
        E 360 96 0d 64
        E 120 86 0d 00
        E 360 96 0d 64
        E 120 86 0d 00
        E 360 96 0c 64
        E 120 86 0c 00
        E 360 96 0d 64
        E 120 86 0d 00
        E 360 96 0d 64
        E 120 86 0d 00
        E 360 96 0d 64
        E 120 86 0d 00
        E 360 96 0c 64
        E 120 86 0c 00
        E 360 96 0d 64
        E 120 86 0d 00
        E 360 96 0d 64
        E 120 86 0d 00
        E 360 96 0d 64
        E 120 86 0d 00
        E 360 96 0c 64
        E 120 86 0c 00
        E 360 96 0d 64
        E 120 86 0d 00
        E 360 96 0d 64
        E 120 86 0d 00
        E 360 96 0d 64
        E 120 86 0d 00
        E 360 96 0c 64
        E 120 86 0c 00
        E 360 96 0d 64
        E 120 86 0d 00
        E 360 96 0d 64
        E 120 86 0d 00
        E 360 96 0d 64
        E 120 86 0d 00
        E 360 96 0c 64
        E 120 86 0c 00
        E 360 96 0d 64
        E 120 86 0d 00
        E 360 96 0d 64
        E 120 86 0d 00
        E 360 96 0d 64
        E 120 86 0d 00
        E 360 96 0c 64
        E 120 86 0c 00
        E 360 96 0d 64
        E 120 86 0d 00
        E 360 96 0d 64
        E 120 86 0d 00
        E 360 96 0d 64
        E 120 86 0d 00
        E 360 96 0c 64
        E 120 86 0c 00
        E 360 96 0d 64
        E 120 86 0d 00
        E 360 96 0d 64
        E 120 86 0d 00
        E 360 96 0d 64
        E 120 86 0d 00
        E 360 96 0c 64
        E 120 86 0c 00
        E 360 96 0d 64
        E 120 86 0d 00
        E 360 96 0d 64
        E 120 86 0d 00
        E 360 96 0d 64
        E 120 86 0d 00
        E 360 96 0c 64
        E 120 86 0c 00
        E 360 96 0d 64
        E 120 86 0d 00
        E 360 96 0d 64
        E 120 86 0d 00
        E 360 96 0d 64
        E 120 86 0d 00
        E 360 96 0c 64
        E 120 86 0c 00
        E 360 96 0d 64
        E 120 86 0d 00
        E 360 96 0d 64
        E 120 86 0d 00
        E 360 96 0d 64
        E 120 86 0d 00
        E 360 96 0c 64
        E 120 86 0c 00
        E 360 96 0d 64
        E 120 86 0d 00
        E 360 96 0d 64
        E 120 86 0d 00
        E 360 96 0d 64
        E 120 86 0d 00
        E 360 96 0c 64
        E 120 86 0c 00
        E 360 96 0d 64
        E 120 86 0d 00
        E 360 96 0d 64
        E 120 86 0d 00
        E 360 96 0d 64
        E 120 86 0d 00
        E 360 96 0c 64
        E 120 86 0c 00
        E 360 96 0d 64
        E 120 86 0d 00
        E 360 96 0d 64
        E 120 86 0d 00
        E 360 96 0d 64
        E 120 86 0d 00
        E 360 96 0c 64
        E 120 86 0c 00
        E 360 96 0d 64
        E 120 86 0d 00
        E 360 96 0d 64
        E 120 86 0d 00
        E 360 96 0d 64
        E 120 86 0d 00
        E 360 96 0c 64
        E 120 86 0c 00
        E 360 96 0d 64
        E 120 86 0d 00
        E 360 96 0d 64
        E 120 86 0d 00
        E 360 96 0d 64
        E 120 86 0d 00
        E 360 96 0c 64
        E 120 86 0c 00
        E 360 96 0d 64
        E 120 86 0d 00
        E 360 96 0d 64
        E 120 86 0d 00
        E 360 96 0d 64
        E 120 86 0d 00
        E 360 96 0c 64
        E 120 86 0c 00
        E 360 96 0d 64
        E 120 86 0d 00
        E 360 96 0d 64
        E 120 86 0d 00
        E 360 96 0d 64
        E 120 86 0d 00
        E 360 96 0c 64
        E 120 86 0c 00
        E 360 96 0d 64
        E 120 86 0d 00
        E 360 96 0d 64
        E 120 86 0d 00
        E 360 96 0d 64
        E 120 86 0d 00
        E 360 96 0c 64
        E 120 86 0c 00
        E 360 96 0d 64
        E 120 86 0d 00
        E 360 96 0d 64
        E 120 86 0d 00
        E 360 96 0d 64
        E 120 86 0d 00
        E 360 96 0c 64
        E 120 86 0c 00
        E 360 96 0d 64
        E 120 86 0d 00
        E 360 96 0d 64
        E 120 86 0d 00
        E 360 96 0d 64
        E 120 86 0d 00
        E 360 96 0c 64
        E 120 86 0c 00
        E 360 96 0d 64
        E 120 86 0d 00
        E 360 96 0d 64
        E 120 86 0d 00
        E 360 96 0d 64
        E 120 86 0d 00
        E 360 96 0c 64
        E 120 86 0c 00
        E 360 96 0d 64
        E 120 86 0d 00
        E 360 96 0d 64
        E 120 86 0d 00
        E 360 96 0d 64
        E 120 86 0d 00
        E 360 b0 7b 00
        GUID {896AEB0E-E194-4373-AA94-BE70FA846F53}
        IGNTEMPO 0 120.00000000 4 4
        SRCCOLOR 17
        VELLANE 132 128 60
        COLORMAP "C:\Program Files\REAPER (x64)\Data\color_maps\rockband_guitarbass.png"
        CFGEDITVIEW 49302.641364 67.344028 0 48 0 0 0
        CFGEDIT 1 1 0 1 1 0 1 1 1 1 1 0.25000000 -8 -8 1544 872 0 2 1 1 0.00000000 0 1 0 0 0.500000 0 0 1.000000 64
        KEYSNAP 0 6 "102030050700" 0 "Pentatonic"
        EVTFILTER 0 -1 -1 -1 -1 0 1 0 0 -1.00000000 -1.00000000
      >
    >
  >
  <TRACK '{BBDDC159-2E5B-4857-9538-4173C8039781}'
    NAME "backing"
    PEAKCOL 16576
    BEAT -1
    AUTOMODE 0
    VOLPAN 1.00000000000000 0.00000000000000 -1.00000000000000 -1.00000000000000 1.00000000000000
    MUTESOLO 0 0 0
    IPHASE 0
    ISBUS 0 0
    BUSCOMP 0 0
    SHOWINMIX 1 0.666700 0.500000 1 0.500000 -1 -1 -1
    FREEMODE 0
    SEL 0
    REC 0 0 0 0 0 0 0
    VU 2
    TRACKHEIGHT 0 0
    INQ 0 0 0 0.5000000000 100 0 0 100
    NCHAN 2
    FX 1
    TRACKID {BBDDC159-2E5B-4857-9538-4173C8039781}
    PERF 0
    MIDIOUT -1
    MAINSEND 1 0
    <ITEM
      POSITION 0.00000000000000
      SNAPOFFS 0.00000000000000
      LENGTH 63.47100000000000
      LOOP 0
      ALLTAKES 0
      SEL 0
      FADEIN 1 0.000000 0.000000 1 0
      FADEOUT 1 0.000000 0.000000 1 0
      MUTE 0
      IGUID {75A3DFCF-243A-4CED-A226-7A2FD122E51C}
      IID 15
      NAME "backing.wav"
      VOLPAN 1.000000 0.000000 1.000000 -1.000000
      SOFFS 0.00000000000000
      PLAYRATE 1.00000000000000 1 0.00000000000000 -1
      CHANMODE 0
      GUID {301F7E81-F4D6-4F06-80CD-F59222E6DA1C}
      <SOURCE WAVE
        FILE "wav\backing.wav"
      >
    >
  >
  <EXTENSIONS
  >
>
