<REAPER_PROJECT 0.1 "4.22/x64"
  RIPPLE 0
  GROUPOVERRIDE 0 0 0
  AUTOXFADE 1
  ENVATTACH 1
  MIXERUIFLAGS 11 48
  PEAKGAIN 1.00000000000000
  FEEDBACK 0
  PANLAW 1.00000000000000
  PROJOFFS 0.00000000000000 0
  MAXPROJLEN 0 600.00000000000000
  GRID 3199 8 1.00000000000000 8 1.00000000000000 0
  TIMEMODE 1 0 -1
  PANMODE 3
  CURSOR 0.00000000000000
  ZOOM 3.92096489798103 0 0
  VZOOMEX 6
  USE_REC_CFG 0
  RECMODE 1
  SMPTESYNC 0 23.976024 100 40 1000 300 0 0.000000 1
  LOOP 1
  LOOPGRAN 0 4.00000000000000
  RECORD_PATH "" ""
  <RECORD_CFG
    ZXZhdxAD
  >
  <APPLYFX_CFG
  >
  RENDER_FILE ""
  RENDER_PATTERN ""
  RENDER_FMT 0 2 0
  RENDER_1X 0
  RENDER_RANGE 1 0.00000000000000 0.00000000000000
  RENDER_RESAMPLE 3 0 1
  RENDER_ADDTOPROJ 0
  RENDER_STEMS 0
  RENDER_DITHER 0
  TIMELOCKMODE 0
  ITEMMIX 0
  DEFPITCHMODE 393216
  TAKELANE 1
  SAMPLERATE 44100 0 0
  <RENDER_CFG
  >
  LOCK 1
  <METRONOME 6 2.000000
    VOL 0.250000 0.125000
    FREQ 800 1600 1
    BEATLEN 4
    SAMPLES "" ""
  >
  GLOBAL_AUTO -1
  TEMPO 120.00000000000000 4 4
  PLAYRATE 1.00000000000000 0 0.25000 4.00000
  SELECTION 286.40908800000000 0.00000000000000
  SELECTION2 286.40908800000000 0.00000000000000
  MASTERAUTOMODE 0
  MASTERTRACKHEIGHT 0
  MASTERPEAKCOL 16576
  MASTERMUTESOLO 0
  MASTERTRACKVIEW 0 0.666700 0.500000 0.500000 -1 -1 -1
  MASTERHWOUT 0 0 1.00000000000000 0.00000000000000 0 0 0 -1.00000000000000
  MASTER_NCH 2 2
  MASTER_VOLUME 1.00000000000000 0.00000000000000 -1.00000000000000 -1.00000000000000 1.00000000000000
  MASTER_PANMODE -1
  MASTER_FX 1
  MASTER_SEL 0
  <MASTERPLAYSPEEDENV
    ACT 0
    VIS 0 1 1.000000
    LANEHEIGHT 0 0
    ARM 0
    DEFSHAPE 0 -1 -1
  >
  <TEMPOENVEX
    ACT 1
    VIS 1 0 1.000000
    LANEHEIGHT 0 0
    ARM 0
    DEFSHAPE 1 -1 -1
    PT 0.000000000000 180.9998431335 1
  >
  <PROJBAY
  >
  <TRACK '{A5E6CFD5-07AA-4640-9465-DE32BF84D8A0}'
    NAME "PART DRUMS"
    PEAKCOL 16576
    BEAT -1
    AUTOMODE 0
    VOLPAN 1.00000000000000 0.00000000000000 -1.00000000000000 -1.00000000000000 1.00000000000000
    MUTESOLO 0 0 0
    IPHASE 0
    ISBUS 1 1
    BUSCOMP 0 0
    SHOWINMIX 1 0.666700 0.500000 1 0.500000 -1 -1 -1
    FREEMODE 0
    SEL 0
    REC 0 0 0 0 0 0 0
    VU 2
    TRACKHEIGHT 0 0
    INQ 0 0 0 0.5000000000 100 0 0 100
    NCHAN 2
    FX 1
    TRACKID {A5E6CFD5-07AA-4640-9465-DE32BF84D8A0}
    PERF 0
    MIDIOUT -1
    <MIDINOTENAMES
      0 127 "CYMBAL SWELLS"
      0 126 "DRUM ROLL"
      0 125 "---"
      0 124 "DRUM FILL"
      0 123 "DRUM FILL"
      0 122 "DRUM FILL"
      0 121 "DRUM FILL"
      0 120 "DRUM FILL (use all 5)"
      0 118 "----"
      0 116 "OVERDRIVE"
      0 114 "----"
      0 112 "TOM GEMS PAD 4"
      0 111 "TOM GEMS PAD 3"
      0 110 "TOM GEMS PAD 2"
      0 103 "Solo Marker"
      0 102 "----"
      0 100 "EXPERT Green"
      0 99 "EXPERT Blue"
      0 98 "EXPERT Yellow"
      0 97 "EXPERT Red"
      0 96 "EXPERT Kick"
      0 92 "----"
      0 88 "HARD Green"
      0 87 "HARD Blue"
      0 86 "HARD Yellow"
      0 85 "HARD Red"
      0 84 "HARD Kick"
      0 80 "----"
      0 76 "MEDIUM Green"
      0 75 "MEDIUM Blue"
      0 74 "MEDIUM Yellow"
      0 73 "MEDIUM Red"
      0 72 "MEDIUM Kick"
      0 68 "----"
      0 64 "EASY Green"
      0 63 "EASY Blue"
      0 62 "EASY Yellow"
      0 61 "EASY Red"
      0 60 "EASY Kick"
      0 56 "----"
      0 52 "-- DRUM ANIMATION --"
      0 51 "FLOOR TOM RH"
      0 50 "FLOOR TOM LH"
      0 49 "TOM2 RH"
      0 48 "TOM2 LH"
      0 47 "TOM1 RH"
      0 46 "TOM1 LH"
      0 45 "SOFT CRASH 2 LH"
      0 44 "CRASH 2 LH"
      0 43 "RIDE LH"
      0 42 "RIDE CYM RH"
      0 41 "CRASH2 CHOKE"
      0 40 "CRASH1 CHOKE"
      0 39 "CRASH2 SOFT RH"
      0 38 "CRASH2 HARD RH"
      0 37 "CRASH1 SOFT RH"
      0 36 "CRASH1 HARD RH"
      0 35 "CRASH1 SOFT LH"
      0 34 "CRASH1 HARD LH"
      0 32 "PERCUSSION RH"
      0 31 "HI-HAT RH"
      0 30 "HI-HAT LH"
      0 29 "SOFT SNARE RH"
      0 28 "SOFT SNARE LH"
      0 27 "SNARE RH"
      0 26 "SNARE LH"
      0 25 "HI-HAT OPEN"
      0 24 "KICK RF"
    >
    MAINSEND 1 0
    <FXCHAIN
      WNDRECT 0 43 891 559
      SHOW 0
      LASTSEL 0
      DOCKED 0
      BYPASS 0 0
      <VST "VSTi: RBN Preview (RBN)" "rbprev_vst64.dll" 0 ""
        dnBicu5e7f4AAAAAAgAAAAEAAAAAAAAAAgAAAAAAAAAEAAAAAQAAAA==
        AAAQAAMBqgAAABAAAAA=
      >
      FLOATPOS 0 0 0 0
      FXID {706B2F63-AFCF-4CB9-A97D-E3FED3F34B06}
      WAK 0
    >
    <ITEM
      POSITION 0.00000000000000
      SNAPOFFS 0.00000000000000
      LENGTH 286.40908800000000
      LOOP 0
      ALLTAKES 0
      SEL 0
      FADEIN 1 0.000000 0.000000 1 0
      FADEOUT 1 0.000000 0.000000 1 0
      MUTE 0
      IGUID {E28D828A-B579-49F2-BC0C-1F12F3E46853}
      IID 1
      NAME "PART DRUMS"
      VOLPAN 1.000000 0.000000 1.000000 -1.000000
      SOFFS 0.00000000000000 0.00000000000000
      PLAYRATE 1.00000000000000 1 0.00000000000000 -1
      CHANMODE 0
      GUID {60109D1B-02EF-4097-9CC6-38E32459641D}
      <SOURCE MIDI
        HASDATA 1 480 QN
        POOLEDEVTS {F12C0D9D-DC74-4209-9991-28958E162CE2}
        <X 0 0
          /wNQQVJUIERSVU1T
        >
        E 0 90 19 60
        <X 120 0
          /wFbbWl4IDEgZHJ1bXMwXQ==
        >
        <X 0 0
          /wFbbWl4IDAgZHJ1bXMwXQ==
        >
        <X 120 0
          /wFbbWl4IDIgZHJ1bXMwXQ==
        >
        <X 120 0
          /wFbbWl4IDMgZHJ1bXMwXQ==
        >
        E 1560 80 19 00
        E 480 90 19 60
        <X 3360 0
          /wFbaWRsZV0=
        >
        E 1920 80 19 00
        E 59040 90 31 60
        E 0 90 4b 60
        E 0 90 57 60
        E 0 90 63 60
        E 0 90 6f 60
        E 120 80 31 00
        E 0 80 4b 00
        E 0 80 57 00
        E 0 80 63 00
        E 120 90 30 60
        E 0 90 57 60
        E 0 90 63 60
        E 120 80 6f 00
        E 0 80 30 00
        E 0 80 57 00
        E 0 80 63 00
        <X 120 0
          /wFbcGxheV0=
        >
        E 0 90 18 60
        E 0 90 19 60
        E 0 90 24 60
        E 0 90 40 60
        E 0 90 48 60
        E 0 90 4c 60
        E 0 90 54 60
        E 0 90 58 60
        E 0 90 60 60
        E 0 90 64 60
        E 0 90 74 60
        E 120 80 18 00
        E 0 80 24 00
        E 0 80 40 00
        E 0 80 48 00
        E 0 80 4c 00
        E 0 80 54 00
        E 0 80 58 00
        E 0 80 60 00
        E 0 80 64 00
        E 360 90 1f 60
        E 0 90 4a 60
        E 0 90 56 60
        E 0 90 62 60
        E 120 80 1f 00
        E 0 80 4a 00
        E 0 80 56 00
        E 0 80 62 00
        E 360 90 1a 60
        E 0 90 1f 60
        E 0 90 3d 60
        E 0 90 3e 60
        E 0 90 49 60
        E 0 90 4a 60
        E 0 90 55 60
        E 0 90 56 60
        E 0 90 61 60
        E 0 90 62 60
        E 120 80 1a 00
        E 0 80 1f 00
        E 0 80 3d 00
        E 0 80 3e 00
        E 0 80 49 00
        E 0 80 4a 00
        E 0 80 55 00
        E 0 80 56 00
        E 0 80 61 00
        E 0 80 62 00
        E 360 90 1f 60
        E 0 90 4a 60
        E 0 90 56 60
        E 0 90 62 60
        E 120 80 1f 00
        E 0 80 4a 00
        E 0 80 56 00
        E 0 80 62 00
        E 360 90 18 60
        E 0 90 1f 60
        E 0 90 3e 60
        E 0 90 48 60
        E 0 90 4a 60
        E 0 90 54 60
        E 0 90 56 60
        E 0 90 60 60
        E 0 90 62 60
        E 120 80 18 00
        E 0 80 1f 00
        E 0 80 3e 00
        E 0 80 48 00
        E 0 80 4a 00
        E 0 80 54 00
        E 0 80 56 00
        E 0 80 60 00
        E 0 80 62 00
        E 120 90 18 60
        E 0 90 54 60
        E 0 90 60 60
        E 120 80 18 00
        E 0 80 54 00
        E 0 80 60 00
        E 120 90 1f 60
        E 0 90 4a 60
        E 0 90 56 60
        E 0 90 62 60
        E 120 80 1f 00
        E 0 80 4a 00
        E 0 80 56 00
        E 0 80 62 00
        E 120 90 1a 60
        E 0 90 55 60
        E 0 90 61 60
        E 120 80 1a 00
        E 0 80 55 00
        E 0 80 61 00
        E 120 90 1f 60
        E 0 90 3e 60
        E 0 90 4a 60
        E 0 90 56 60
        E 0 90 62 60
        E 120 80 1f 00
        E 0 80 3e 00
        E 0 80 4a 00
        E 0 80 56 00
        E 0 80 62 00
        E 120 90 1a 60
        E 0 90 55 60
        E 0 90 61 60
        E 120 80 1a 00
        E 0 80 55 00
        E 0 80 61 00
        E 120 90 1f 60
        E 0 90 4a 60
        E 0 90 56 60
        E 0 90 62 60
        E 120 80 1f 00
        E 0 80 4a 00
        E 0 80 56 00
        E 0 80 62 00
        E 120 90 18 60
        E 0 90 54 60
        E 0 90 60 60
        E 120 80 18 00
        E 0 80 54 00
        E 0 80 60 00
        E 120 80 74 00
        E 0 90 18 60
        E 0 90 1f 60
        E 0 90 3e 60
        E 0 90 48 60
        E 0 90 4a 60
        E 0 90 54 60
        E 0 90 56 60
        E 0 90 60 60
        E 0 90 62 60
        E 120 80 18 00
        E 0 80 1f 00
        E 0 80 3e 00
        E 0 80 48 00
        E 0 80 4a 00
        E 0 80 54 00
        E 0 80 56 00
        E 0 80 60 00
        E 0 80 62 00
        E 360 90 18 60
        E 0 90 1f 60
        E 0 90 48 60
        E 0 90 4a 60
        E 0 90 54 60
        E 0 90 56 60
        E 0 90 60 60
        E 0 90 62 60
        E 120 80 18 00
        E 0 80 1f 00
        E 0 80 48 00
        E 0 80 4a 00
        E 0 80 54 00
        E 0 80 56 00
        E 0 80 60 00
        E 0 80 62 00
        E 360 90 1a 60
        E 0 90 1f 60
        E 0 90 3d 60
        E 0 90 3e 60
        E 0 90 49 60
        E 0 90 4a 60
        E 0 90 55 60
        E 0 90 56 60
        E 0 90 61 60
        E 0 90 62 60
        E 120 80 1a 00
        E 0 80 1f 00
        E 0 80 3d 00
        E 0 80 3e 00
        E 0 80 49 00
        E 0 80 4a 00
        E 0 80 55 00
        E 0 80 56 00
        E 0 80 61 00
        E 0 80 62 00
        E 360 90 1f 60
        E 0 90 4a 60
        E 0 90 56 60
        E 0 90 62 60
        E 120 80 1f 00
        E 0 80 4a 00
        E 0 80 56 00
        E 0 80 62 00
        E 360 90 18 60
        E 0 90 1f 60
        E 0 90 3e 60
        E 0 90 48 60
        E 0 90 4a 60
        E 0 90 54 60
        E 0 90 56 60
        E 0 90 60 60
        E 0 90 62 60
        E 120 80 18 00
        E 0 80 1f 00
        E 0 80 3e 00
        E 0 80 48 00
        E 0 80 4a 00
        E 0 80 54 00
        E 0 80 56 00
        E 0 80 60 00
        E 0 80 62 00
        E 120 90 18 60
        E 0 90 54 60
        E 0 90 60 60
        E 120 80 18 00
        E 0 80 54 00
        E 0 80 60 00
        E 120 90 1f 60
        E 0 90 4a 60
        E 0 90 56 60
        E 0 90 62 60
        E 120 80 1f 00
        E 0 80 4a 00
        E 0 80 56 00
        E 0 80 62 00
        E 120 90 1a 60
        E 0 90 55 60
        E 0 90 61 60
        E 120 80 1a 00
        E 0 80 55 00
        E 0 80 61 00
        E 120 90 1f 60
        E 0 90 3e 60
        E 0 90 4a 60
        E 0 90 56 60
        E 0 90 62 60
        E 120 80 1f 00
        E 0 80 3e 00
        E 0 80 4a 00
        E 0 80 56 00
        E 0 80 62 00
        E 120 90 1a 60
        E 0 90 55 60
        E 0 90 61 60
        E 120 80 1a 00
        E 0 80 55 00
        E 0 80 61 00
        E 120 90 1f 60
        E 0 90 4a 60
        E 0 90 56 60
        E 0 90 62 60
        E 120 80 1f 00
        E 0 80 4a 00
        E 0 80 56 00
        E 0 80 62 00
        E 120 90 18 60
        E 0 90 54 60
        E 0 90 60 60
        E 120 80 18 00
        E 0 80 54 00
        E 0 80 60 00
        E 120 90 18 60
        E 0 90 1f 60
        E 0 90 3e 60
        E 0 90 48 60
        E 0 90 4a 60
        E 0 90 54 60
        E 0 90 56 60
        E 0 90 60 60
        E 0 90 62 60
        E 120 80 18 00
        E 0 80 1f 00
        E 0 80 3e 00
        E 0 80 48 00
        E 0 80 4a 00
        E 0 80 54 00
        E 0 80 56 00
        E 0 80 60 00
        E 0 80 62 00
        E 360 90 1f 60
        E 0 90 4a 60
        E 0 90 56 60
        E 0 90 62 60
        E 120 80 1f 00
        E 0 80 4a 00
        E 0 80 56 00
        E 0 80 62 00
        E 360 90 1a 60
        E 0 90 1f 60
        E 0 90 3d 60
        E 0 90 3e 60
        E 0 90 49 60
        E 0 90 4a 60
        E 0 90 55 60
        E 0 90 56 60
        E 0 90 61 60
        E 0 90 62 60
        E 120 80 1a 00
        E 0 80 1f 00
        E 0 80 3d 00
        E 0 80 3e 00
        E 0 80 49 00
        E 0 80 4a 00
        E 0 80 55 00
        E 0 80 56 00
        E 0 80 61 00
        E 0 80 62 00
        E 360 90 1f 60
        E 0 90 4a 60
        E 0 90 56 60
        E 0 90 62 60
        E 120 80 1f 00
        E 0 80 4a 00
        E 0 80 56 00
        E 0 80 62 00
        E 360 90 18 60
        E 0 90 1f 60
        E 0 90 3e 60
        E 0 90 48 60
        E 0 90 4a 60
        E 0 90 54 60
        E 0 90 56 60
        E 0 90 60 60
        E 0 90 62 60
        E 120 80 18 00
        E 0 80 1f 00
        E 0 80 3e 00
        E 0 80 48 00
        E 0 80 4a 00
        E 0 80 54 00
        E 0 80 56 00
        E 0 80 60 00
        E 0 80 62 00
        E 120 90 18 60
        E 0 90 54 60
        E 0 90 60 60
        E 120 80 18 00
        E 0 80 54 00
        E 0 80 60 00
        E 120 90 1f 60
        E 0 90 4a 60
        E 0 90 56 60
        E 0 90 62 60
        E 120 80 1f 00
        E 0 80 4a 00
        E 0 80 56 00
        E 0 80 62 00
        E 120 90 1a 60
        E 0 90 55 60
        E 0 90 61 60
        E 120 80 1a 00
        E 0 80 55 00
        E 0 80 61 00
        E 120 90 1f 60
        E 0 90 3e 60
        E 0 90 4a 60
        E 0 90 56 60
        E 0 90 62 60
        E 120 80 1f 00
        E 0 80 3e 00
        E 0 80 4a 00
        E 0 80 56 00
        E 0 80 62 00
        E 120 90 1a 60
        E 0 90 55 60
        E 0 90 61 60
        E 120 80 1a 00
        E 0 80 55 00
        E 0 80 61 00
        E 120 90 1f 60
        E 0 90 4a 60
        E 0 90 56 60
        E 0 90 62 60
        E 120 80 1f 00
        E 0 80 4a 00
        E 0 80 56 00
        E 0 80 62 00
        E 120 90 18 60
        E 0 90 54 60
        E 0 90 60 60
        E 120 80 18 00
        E 0 80 54 00
        E 0 80 60 00
        E 120 90 18 60
        E 0 90 1f 60
        E 0 90 3e 60
        E 0 90 48 60
        E 0 90 4a 60
        E 0 90 54 60
        E 0 90 56 60
        E 0 90 60 60
        E 0 90 62 60
        E 120 80 18 00
        E 0 80 1f 00
        E 0 80 3e 00
        E 0 80 48 00
        E 0 80 4a 00
        E 0 80 54 00
        E 0 80 56 00
        E 0 80 60 00
        E 0 80 62 00
        E 360 90 18 60
        E 0 90 1f 60
        E 0 90 48 60
        E 0 90 4a 60
        E 0 90 54 60
        E 0 90 56 60
        E 0 90 60 60
        E 0 90 62 60
        E 120 80 18 00
        E 0 80 1f 00
        E 0 80 48 00
        E 0 80 4a 00
        E 0 80 54 00
        E 0 80 56 00
        E 0 80 60 00
        E 0 80 62 00
        E 360 90 1a 60
        E 0 90 1f 60
        E 0 90 3d 60
        E 0 90 3e 60
        E 0 90 49 60
        E 0 90 4a 60
        E 0 90 55 60
        E 0 90 56 60
        E 0 90 61 60
        E 0 90 62 60
        E 120 80 1a 00
        E 0 80 1f 00
        E 0 80 3d 00
        E 0 80 3e 00
        E 0 80 49 00
        E 0 80 4a 00
        E 0 80 55 00
        E 0 80 56 00
        E 0 80 61 00
        E 0 80 62 00
        E 360 90 1f 60
        E 0 90 4a 60
        E 0 90 56 60
        E 0 90 62 60
        E 120 80 1f 00
        E 0 80 4a 00
        E 0 80 56 00
        E 0 80 62 00
        E 360 90 18 60
        E 0 90 1f 60
        E 0 90 3e 60
        E 0 90 48 60
        E 0 90 4a 60
        E 0 90 54 60
        E 0 90 56 60
        E 0 90 60 60
        E 0 90 62 60
        E 120 80 18 00
        E 0 80 1f 00
        E 0 80 3e 00
        E 0 80 48 00
        E 0 80 4a 00
        E 0 80 54 00
        E 0 80 56 00
        E 0 80 60 00
        E 0 80 62 00
        E 120 90 18 60
        E 0 90 54 60
        E 0 90 60 60
        E 120 80 18 00
        E 0 80 54 00
        E 0 80 60 00
        E 120 90 1f 60
        E 0 90 4a 60
        E 0 90 56 60
        E 0 90 62 60
        E 120 80 1f 00
        E 0 80 4a 00
        E 0 80 56 00
        E 0 80 62 00
        E 120 90 1a 60
        E 0 90 55 60
        E 0 90 61 60
        E 120 80 1a 00
        E 0 80 55 00
        E 0 80 61 00
        E 120 90 1f 60
        E 0 90 3e 60
        E 0 90 4a 60
        E 0 90 56 60
        E 0 90 62 60
        E 120 80 1f 00
        E 0 80 3e 00
        E 0 80 4a 00
        E 0 80 56 00
        E 0 80 62 00
        E 120 90 1a 60
        E 0 90 55 60
        E 0 90 61 60
        E 120 80 1a 00
        E 0 80 55 00
        E 0 80 61 00
        E 120 90 1f 60
        E 0 90 4a 60
        E 0 90 56 60
        E 0 90 62 60
        E 120 80 1f 00
        E 0 80 4a 00
        E 0 80 56 00
        E 0 80 62 00
        E 120 90 18 60
        E 0 90 54 60
        E 0 90 60 60
        E 120 80 18 00
        E 0 80 54 00
        E 0 80 60 00
        E 120 90 18 60
        E 0 90 24 60
        E 0 90 40 60
        E 0 90 48 60
        E 0 90 4c 60
        E 0 90 54 60
        E 0 90 58 60
        E 0 90 60 60
        E 0 90 64 60
        E 120 80 18 00
        E 0 80 24 00
        E 0 80 40 00
        E 0 80 48 00
        E 0 80 4c 00
        E 0 80 54 00
        E 0 80 58 00
        E 0 80 60 00
        E 0 80 64 00
        E 360 90 1f 60
        E 0 90 4a 60
        E 0 90 56 60
        E 0 90 62 60
        E 120 80 1f 00
        E 0 80 4a 00
        E 0 80 56 00
        E 0 80 62 00
        E 360 90 1a 60
        E 0 90 1f 60
        E 0 90 3d 60
        E 0 90 3e 60
        E 0 90 49 60
        E 0 90 4a 60
        E 0 90 55 60
        E 0 90 56 60
        E 0 90 61 60
        E 0 90 62 60
        E 120 80 1a 00
        E 0 80 1f 00
        E 0 80 3d 00
        E 0 80 3e 00
        E 0 80 49 00
        E 0 80 4a 00
        E 0 80 55 00
        E 0 80 56 00
        E 0 80 61 00
        E 0 80 62 00
        E 360 90 1f 60
        E 0 90 4a 60
        E 0 90 56 60
        E 0 90 62 60
        E 120 80 1f 00
        E 0 80 4a 00
        E 0 80 56 00
        E 0 80 62 00
        E 360 90 18 60
        E 0 90 1f 60
        E 0 90 3e 60
        E 0 90 48 60
        E 0 90 4a 60
        E 0 90 54 60
        E 0 90 56 60
        E 0 90 60 60
        E 0 90 62 60
        E 120 80 18 00
        E 0 80 1f 00
        E 0 80 3e 00
        E 0 80 48 00
        E 0 80 4a 00
        E 0 80 54 00
        E 0 80 56 00
        E 0 80 60 00
        E 0 80 62 00
        E 120 90 18 60
        E 0 90 54 60
        E 0 90 60 60
        E 120 80 18 00
        E 0 80 54 00
        E 0 80 60 00
        E 120 90 1f 60
        E 0 90 4a 60
        E 0 90 56 60
        E 0 90 62 60
        E 120 80 1f 00
        E 0 80 4a 00
        E 0 80 56 00
        E 0 80 62 00
        E 120 90 1a 60
        E 0 90 55 60
        E 0 90 61 60
        E 120 80 1a 00
        E 0 80 55 00
        E 0 80 61 00
        E 120 90 1f 60
        E 0 90 3e 60
        E 0 90 4a 60
        E 0 90 56 60
        E 0 90 62 60
        E 120 80 1f 00
        E 0 80 3e 00
        E 0 80 4a 00
        E 0 80 56 00
        E 0 80 62 00
        E 120 90 1a 60
        E 0 90 55 60
        E 0 90 61 60
        E 120 80 1a 00
        E 0 80 55 00
        E 0 80 61 00
        E 120 90 1f 60
        E 0 90 4a 60
        E 0 90 56 60
        E 0 90 62 60
        E 120 80 1f 00
        E 0 80 4a 00
        E 0 80 56 00
        E 0 80 62 00
        E 120 90 18 60
        E 0 90 54 60
        E 0 90 60 60
        E 120 80 18 00
        E 0 80 54 00
        E 0 80 60 00
        E 120 90 18 60
        E 0 90 1f 60
        E 0 90 3e 60
        E 0 90 48 60
        E 0 90 4a 60
        E 0 90 54 60
        E 0 90 56 60
        E 0 90 60 60
        E 0 90 62 60
        E 120 80 18 00
        E 0 80 1f 00
        E 0 80 3e 00
        E 0 80 48 00
        E 0 80 4a 00
        E 0 80 54 00
        E 0 80 56 00
        E 0 80 60 00
        E 0 80 62 00
        E 360 90 18 60
        E 0 90 1f 60
        E 0 90 48 60
        E 0 90 4a 60
        E 0 90 54 60
        E 0 90 56 60
        E 0 90 60 60
        E 0 90 62 60
        E 120 80 18 00
        E 0 80 1f 00
        E 0 80 48 00
        E 0 80 4a 00
        E 0 80 54 00
        E 0 80 56 00
        E 0 80 60 00
        E 0 80 62 00
        E 360 90 1a 60
        E 0 90 1f 60
        E 0 90 3d 60
        E 0 90 3e 60
        E 0 90 49 60
        E 0 90 4a 60
        E 0 90 55 60
        E 0 90 56 60
        E 0 90 61 60
        E 0 90 62 60
        E 120 80 1a 00
        E 0 80 1f 00
        E 0 80 3d 00
        E 0 80 3e 00
        E 0 80 49 00
        E 0 80 4a 00
        E 0 80 55 00
        E 0 80 56 00
        E 0 80 61 00
        E 0 80 62 00
        E 360 90 1f 60
        E 0 90 4a 60
        E 0 90 56 60
        E 0 90 62 60
        E 120 80 1f 00
        E 0 80 4a 00
        E 0 80 56 00
        E 0 80 62 00
        E 360 90 18 60
        E 0 90 1f 60
        E 0 90 3e 60
        E 0 90 48 60
        E 0 90 4a 60
        E 0 90 54 60
        E 0 90 56 60
        E 0 90 60 60
        E 0 90 62 60
        E 120 80 18 00
        E 0 80 1f 00
        E 0 80 3e 00
        E 0 80 48 00
        E 0 80 4a 00
        E 0 80 54 00
        E 0 80 56 00
        E 0 80 60 00
        E 0 80 62 00
        E 120 90 18 60
        E 0 90 54 60
        E 0 90 60 60
        E 120 80 18 00
        E 0 80 54 00
        E 0 80 60 00
        E 120 90 1f 60
        E 0 90 4a 60
        E 0 90 56 60
        E 0 90 62 60
        E 120 80 1f 00
        E 0 80 4a 00
        E 0 80 56 00
        E 0 80 62 00
        E 120 90 1a 60
        E 0 90 55 60
        E 0 90 61 60
        E 120 80 1a 00
        E 0 80 55 00
        E 0 80 61 00
        E 120 90 1f 60
        E 0 90 3e 60
        E 0 90 4a 60
        E 0 90 56 60
        E 0 90 62 60
        E 120 80 1f 00
        E 0 80 3e 00
        E 0 80 4a 00
        E 0 80 56 00
        E 0 80 62 00
        E 120 90 1a 60
        E 0 90 55 60
        E 0 90 61 60
        E 120 80 1a 00
        E 0 80 55 00
        E 0 80 61 00
        E 120 90 1f 60
        E 0 90 4a 60
        E 0 90 56 60
        E 0 90 62 60
        E 120 80 1f 00
        E 0 80 4a 00
        E 0 80 56 00
        E 0 80 62 00
        E 120 90 18 60
        E 0 90 54 60
        E 0 90 60 60
        E 120 80 18 00
        E 0 80 54 00
        E 0 80 60 00
        E 120 90 18 60
        E 0 90 1f 60
        E 0 90 3e 60
        E 0 90 48 60
        E 0 90 4a 60
        E 0 90 54 60
        E 0 90 56 60
        E 0 90 60 60
        E 0 90 62 60
        E 0 90 74 60
        E 120 80 18 00
        E 0 80 1f 00
        E 0 80 3e 00
        E 0 80 48 00
        E 0 80 4a 00
        E 0 80 54 00
        E 0 80 56 00
        E 0 80 60 00
        E 0 80 62 00
        E 360 90 1f 60
        E 0 90 4a 60
        E 0 90 56 60
        E 0 90 62 60
        E 120 80 1f 00
        E 0 80 4a 00
        E 0 80 56 00
        E 0 80 62 00
        E 360 90 1a 60
        E 0 90 1f 60
        E 0 90 3d 60
        E 0 90 3e 60
        E 0 90 49 60
        E 0 90 4a 60
        E 0 90 55 60
        E 0 90 56 60
        E 0 90 61 60
        E 0 90 62 60
        E 120 80 1a 00
        E 0 80 1f 00
        E 0 80 3d 00
        E 0 80 3e 00
        E 0 80 49 00
        E 0 80 4a 00
        E 0 80 55 00
        E 0 80 56 00
        E 0 80 61 00
        E 0 80 62 00
        E 360 90 1f 60
        E 0 90 4a 60
        E 0 90 56 60
        E 0 90 62 60
        E 120 80 1f 00
        E 0 80 4a 00
        E 0 80 56 00
        E 0 80 62 00
        E 360 90 18 60
        E 0 90 1f 60
        E 0 90 3e 60
        E 0 90 48 60
        E 0 90 4a 60
        E 0 90 54 60
        E 0 90 56 60
        E 0 90 60 60
        E 0 90 62 60
        E 120 80 18 00
        E 0 80 1f 00
        E 0 80 3e 00
        E 0 80 48 00
        E 0 80 4a 00
        E 0 80 54 00
        E 0 80 56 00
        E 0 80 60 00
        E 0 80 62 00
        E 120 90 18 60
        E 0 90 54 60
        E 0 90 60 60
        E 120 80 18 00
        E 0 80 54 00
        E 0 80 60 00
        E 120 90 1f 60
        E 0 90 4a 60
        E 0 90 56 60
        E 0 90 62 60
        E 120 80 1f 00
        E 0 80 4a 00
        E 0 80 56 00
        E 0 80 62 00
        E 120 90 1a 60
        E 0 90 55 60
        E 0 90 61 60
        E 120 80 1a 00
        E 0 80 55 00
        E 0 80 61 00
        E 120 90 1f 60
        E 0 90 3e 60
        E 0 90 4a 60
        E 0 90 56 60
        E 0 90 62 60
        E 120 80 1f 00
        E 0 80 3e 00
        E 0 80 4a 00
        E 0 80 56 00
        E 0 80 62 00
        E 120 90 1a 60
        E 0 90 55 60
        E 0 90 61 60
        E 120 80 1a 00
        E 0 80 55 00
        E 0 80 61 00
        E 120 90 1f 60
        E 0 90 4a 60
        E 0 90 56 60
        E 0 90 62 60
        E 120 80 1f 00
        E 0 80 4a 00
        E 0 80 56 00
        E 0 80 62 00
        E 120 90 18 60
        E 0 90 54 60
        E 0 90 60 60
        E 120 80 18 00
        E 0 80 54 00
        E 0 80 60 00
        E 120 80 74 00
        E 0 90 18 60
        E 0 90 1f 60
        E 0 90 3e 60
        E 0 90 48 60
        E 0 90 4a 60
        E 0 90 54 60
        E 0 90 56 60
        E 0 90 60 60
        E 0 90 62 60
        E 120 80 18 00
        E 0 80 1f 00
        E 0 80 3e 00
        E 0 80 48 00
        E 0 80 4a 00
        E 0 80 54 00
        E 0 80 56 00
        E 0 80 60 00
        E 0 80 62 00
        E 360 90 18 60
        E 0 90 1f 60
        E 0 90 48 60
        E 0 90 4a 60
        E 0 90 54 60
        E 0 90 56 60
        E 0 90 60 60
        E 0 90 62 60
        E 120 80 18 00
        E 0 80 1f 00
        E 0 80 48 00
        E 0 80 4a 00
        E 0 80 54 00
        E 0 80 56 00
        E 0 80 60 00
        E 0 80 62 00
        E 360 90 1a 60
        E 0 90 1f 60
        E 0 90 3d 60
        E 0 90 3e 60
        E 0 90 49 60
        E 0 90 4a 60
        E 0 90 55 60
        E 0 90 56 60
        E 0 90 61 60
        E 0 90 62 60
        E 120 80 1a 00
        E 0 80 1f 00
        E 0 80 3d 00
        E 0 80 3e 00
        E 0 80 49 00
        E 0 80 4a 00
        E 0 80 55 00
        E 0 80 56 00
        E 0 80 61 00
        E 0 80 62 00
        E 360 90 1f 60
        E 0 90 4a 60
        E 0 90 56 60
        E 0 90 62 60
        E 120 80 1f 00
        E 0 80 4a 00
        E 0 80 56 00
        E 0 80 62 00
        E 360 90 18 60
        E 0 90 1f 60
        E 0 90 3e 60
        E 0 90 48 60
        E 0 90 4a 60
        E 0 90 54 60
        E 0 90 56 60
        E 0 90 60 60
        E 0 90 62 60
        E 0 90 78 60
        E 0 90 79 60
        E 0 90 7a 60
        E 0 90 7b 60
        E 0 90 7c 60
        E 120 80 18 00
        E 0 80 1f 00
        E 0 80 3e 00
        E 0 80 48 00
        E 0 80 4a 00
        E 0 80 54 00
        E 0 80 56 00
        E 0 80 60 00
        E 0 80 62 00
        E 120 90 18 60
        E 0 90 54 60
        E 0 90 60 60
        E 120 80 18 00
        E 0 80 54 00
        E 0 80 60 00
        E 120 90 1a 60
        E 0 90 1d 60
        E 0 90 49 60
        E 0 90 4a 60
        E 0 90 55 60
        E 0 90 56 60
        E 0 90 61 60
        E 0 90 62 60
        E 0 90 6e 60
        E 0 90 6f 60
        E 120 80 1a 00
        E 0 80 1d 00
        E 0 80 49 00
        E 0 80 4a 00
        E 0 80 55 00
        E 0 80 56 00
        E 0 80 61 00
        E 0 80 62 00
        E 120 90 18 60
        E 0 90 31 60
        E 0 90 54 60
        E 0 90 57 60
        E 0 90 60 60
        E 0 90 63 60
        E 120 80 18 00
        E 0 80 31 00
        E 0 80 54 00
        E 0 80 57 00
        E 0 80 60 00
        E 0 80 63 00
        E 120 90 2e 60
        E 0 90 3e 60
        E 0 90 4a 60
        E 0 90 56 60
        E 0 90 62 60
        E 120 80 2e 00
        E 0 80 3e 00
        E 0 80 4a 00
        E 0 80 56 00
        E 0 80 62 00
        E 120 90 18 60
        E 0 90 31 60
        E 0 90 54 60
        E 0 90 57 60
        E 0 90 60 60
        E 0 90 63 60
        E 120 80 18 00
        E 0 80 31 00
        E 0 80 54 00
        E 0 80 57 00
        E 0 80 60 00
        E 0 80 63 00
        E 120 90 2e 60
        E 0 90 4a 60
        E 0 90 56 60
        E 0 90 62 60
        E 120 80 2e 00
        E 0 80 4a 00
        E 0 80 56 00
        E 0 80 62 00
        E 120 90 2e 60
        E 0 90 56 60
        E 0 90 62 60
        E 120 80 6e 00
        E 0 80 6f 00
        E 0 80 2e 00
        E 0 80 56 00
        E 0 80 62 00
        E 120 80 19 00
        E 0 80 78 00
        E 0 80 79 00
        E 0 80 7a 00
        E 0 80 7b 00
        E 0 80 7c 00
        E 0 90 18 60
        E 0 90 26 60
        E 0 90 40 60
        E 0 90 48 60
        E 0 90 4c 60
        E 0 90 54 60
        E 0 90 58 60
        E 0 90 60 60
        E 0 90 64 60
        E 120 80 18 00
        E 0 80 26 00
        E 0 80 40 00
        E 0 80 48 00
        E 0 80 4c 00
        E 0 80 54 00
        E 0 80 58 00
        E 0 80 60 00
        E 0 80 64 00
        E 840 90 1a 60
        E 0 90 1f 60
        E 0 90 3d 60
        E 0 90 3e 60
        E 0 90 49 60
        E 0 90 4a 60
        E 0 90 55 60
        E 0 90 56 60
        E 0 90 61 60
        E 0 90 62 60
        E 120 80 1a 00
        E 0 80 1f 00
        E 0 80 3d 00
        E 0 80 3e 00
        E 0 80 49 00
        E 0 80 4a 00
        E 0 80 55 00
        E 0 80 56 00
        E 0 80 61 00
        E 0 80 62 00
        E 840 90 18 60
        E 0 90 1f 60
        E 0 90 3e 60
        E 0 90 48 60
        E 0 90 4a 60
        E 0 90 54 60
        E 0 90 56 60
        E 0 90 60 60
        E 0 90 62 60
        E 120 80 18 00
        E 0 80 1f 00
        E 0 80 3e 00
        E 0 80 48 00
        E 0 80 4a 00
        E 0 80 54 00
        E 0 80 56 00
        E 0 80 60 00
        E 0 80 62 00
        E 840 90 1a 60
        E 0 90 1f 60
        E 0 90 3d 60
        E 0 90 3e 60
        E 0 90 49 60
        E 0 90 4a 60
        E 0 90 55 60
        E 0 90 56 60
        E 0 90 61 60
        E 0 90 62 60
        E 120 80 1a 00
        E 0 80 1f 00
        E 0 80 3d 00
        E 0 80 3e 00
        E 0 80 49 00
        E 0 80 4a 00
        E 0 80 55 00
        E 0 80 56 00
        E 0 80 61 00
        E 0 80 62 00
        E 840 90 18 60
        E 0 90 1f 60
        E 0 90 3e 60
        E 0 90 48 60
        E 0 90 4a 60
        E 0 90 54 60
        E 0 90 56 60
        E 0 90 60 60
        E 0 90 62 60
        E 120 80 18 00
        E 0 80 1f 00
        E 0 80 3e 00
        E 0 80 48 00
        E 0 80 4a 00
        E 0 80 54 00
        E 0 80 56 00
        E 0 80 60 00
        E 0 80 62 00
        E 840 90 1a 60
        E 0 90 1f 60
        E 0 90 3d 60
        E 0 90 3e 60
        E 0 90 49 60
        E 0 90 4a 60
        E 0 90 55 60
        E 0 90 56 60
        E 0 90 61 60
        E 0 90 62 60
        E 120 80 1a 00
        E 0 80 1f 00
        E 0 80 3d 00
        E 0 80 3e 00
        E 0 80 49 00
        E 0 80 4a 00
        E 0 80 55 00
        E 0 80 56 00
        E 0 80 61 00
        E 0 80 62 00
        E 840 90 18 60
        E 0 90 1f 60
        E 0 90 3e 60
        E 0 90 48 60
        E 0 90 4a 60
        E 0 90 54 60
        E 0 90 56 60
        E 0 90 60 60
        E 0 90 62 60
        E 120 80 18 00
        E 0 80 1f 00
        E 0 80 3e 00
        E 0 80 48 00
        E 0 80 4a 00
        E 0 80 54 00
        E 0 80 56 00
        E 0 80 60 00
        E 0 80 62 00
        E 840 90 1a 60
        E 0 90 1f 60
        E 0 90 3d 60
        E 0 90 3e 60
        E 0 90 49 60
        E 0 90 4a 60
        E 0 90 55 60
        E 0 90 56 60
        E 0 90 61 60
        E 0 90 62 60
        E 120 80 1a 00
        E 0 80 1f 00
        E 0 80 3d 00
        E 0 80 3e 00
        E 0 80 49 00
        E 0 80 4a 00
        E 0 80 55 00
        E 0 80 56 00
        E 0 80 61 00
        E 0 80 62 00
        E 840 90 18 60
        E 0 90 1f 60
        E 0 90 3e 60
        E 0 90 48 60
        E 0 90 4a 60
        E 0 90 54 60
        E 0 90 56 60
        E 0 90 60 60
        E 0 90 62 60
        E 120 80 18 00
        E 0 80 1f 00
        E 0 80 3e 00
        E 0 80 48 00
        E 0 80 4a 00
        E 0 80 54 00
        E 0 80 56 00
        E 0 80 60 00
        E 0 80 62 00
        E 840 90 1a 60
        E 0 90 1f 60
        E 0 90 3d 60
        E 0 90 3e 60
        E 0 90 49 60
        E 0 90 4a 60
        E 0 90 55 60
        E 0 90 56 60
        E 0 90 61 60
        E 0 90 62 60
        E 120 80 1a 00
        E 0 80 1f 00
        E 0 80 3d 00
        E 0 80 3e 00
        E 0 80 49 00
        E 0 80 4a 00
        E 0 80 55 00
        E 0 80 56 00
        E 0 80 61 00
        E 0 80 62 00
        E 840 90 18 60
        E 0 90 1f 60
        E 0 90 3e 60
        E 0 90 48 60
        E 0 90 4a 60
        E 0 90 54 60
        E 0 90 56 60
        E 0 90 60 60
        E 0 90 62 60
        E 120 80 18 00
        E 0 80 1f 00
        E 0 80 3e 00
        E 0 80 48 00
        E 0 80 4a 00
        E 0 80 54 00
        E 0 80 56 00
        E 0 80 60 00
        E 0 80 62 00
        E 840 90 1a 60
        E 0 90 1f 60
        E 0 90 3d 60
        E 0 90 3e 60
        E 0 90 49 60
        E 0 90 4a 60
        E 0 90 55 60
        E 0 90 56 60
        E 0 90 61 60
        E 0 90 62 60
        E 120 80 1a 00
        E 0 80 1f 00
        E 0 80 3d 00
        E 0 80 3e 00
        E 0 80 49 00
        E 0 80 4a 00
        E 0 80 55 00
        E 0 80 56 00
        E 0 80 61 00
        E 0 80 62 00
        E 840 90 18 60
        E 0 90 1f 60
        E 0 90 3e 60
        E 0 90 48 60
        E 0 90 4a 60
        E 0 90 54 60
        E 0 90 56 60
        E 0 90 60 60
        E 0 90 62 60
        E 120 80 18 00
        E 0 80 1f 00
        E 0 80 3e 00
        E 0 80 48 00
        E 0 80 4a 00
        E 0 80 54 00
        E 0 80 56 00
        E 0 80 60 00
        E 0 80 62 00
        E 840 90 1a 60
        E 0 90 1f 60
        E 0 90 3d 60
        E 0 90 3e 60
        E 0 90 49 60
        E 0 90 4a 60
        E 0 90 55 60
        E 0 90 56 60
        E 0 90 61 60
        E 0 90 62 60
        E 120 80 1a 00
        E 0 80 1f 00
        E 0 80 3d 00
        E 0 80 3e 00
        E 0 80 49 00
        E 0 80 4a 00
        E 0 80 55 00
        E 0 80 56 00
        E 0 80 61 00
        E 0 80 62 00
        E 840 90 18 60
        E 0 90 1f 60
        E 0 90 3e 60
        E 0 90 48 60
        E 0 90 4a 60
        E 0 90 54 60
        E 0 90 56 60
        E 0 90 60 60
        E 0 90 62 60
        E 0 90 78 60
        E 0 90 79 60
        E 0 90 7a 60
        E 0 90 7b 60
        E 0 90 7c 60
        E 120 80 18 00
        E 0 80 1f 00
        E 0 80 3e 00
        E 0 80 48 00
        E 0 80 4a 00
        E 0 80 54 00
        E 0 80 56 00
        E 0 80 60 00
        E 0 80 62 00
        E 840 90 1a 60
        E 0 90 1f 60
        E 0 90 3d 60
        E 0 90 3e 60
        E 0 90 49 60
        E 0 90 4a 60
        E 0 90 55 60
        E 0 90 56 60
        E 0 90 61 60
        E 0 90 62 60
        E 120 80 1a 00
        E 0 80 1f 00
        E 0 80 3d 00
        E 0 80 3e 00
        E 0 80 49 00
        E 0 80 4a 00
        E 0 80 55 00
        E 0 80 56 00
        E 0 80 61 00
        E 0 80 62 00
        E 840 80 78 00
        E 0 80 79 00
        E 0 80 7a 00
        E 0 80 7b 00
        E 0 80 7c 00
        E 0 90 18 60
        E 0 90 1f 60
        E 0 90 3e 60
        E 0 90 48 60
        E 0 90 4a 60
        E 0 90 54 60
        E 0 90 56 60
        E 0 90 60 60
        E 0 90 62 60
        E 0 90 74 60
        E 120 80 18 00
        E 0 80 1f 00
        E 0 80 3e 00
        E 0 80 48 00
        E 0 80 4a 00
        E 0 80 54 00
        E 0 80 56 00
        E 0 80 60 00
        E 0 80 62 00
        E 840 90 1a 60
        E 0 90 1f 60
        E 0 90 3d 60
        E 0 90 3e 60
        E 0 90 49 60
        E 0 90 4a 60
        E 0 90 55 60
        E 0 90 56 60
        E 0 90 61 60
        E 0 90 62 60
        E 120 80 1a 00
        E 0 80 1f 00
        E 0 80 3d 00
        E 0 80 3e 00
        E 0 80 49 00
        E 0 80 4a 00
        E 0 80 55 00
        E 0 80 56 00
        E 0 80 61 00
        E 0 80 62 00
        E 840 90 18 60
        E 0 90 1f 60
        E 0 90 3e 60
        E 0 90 48 60
        E 0 90 4a 60
        E 0 90 54 60
        E 0 90 56 60
        E 0 90 60 60
        E 0 90 62 60
        E 120 80 18 00
        E 0 80 1f 00
        E 0 80 3e 00
        E 0 80 48 00
        E 0 80 4a 00
        E 0 80 54 00
        E 0 80 56 00
        E 0 80 60 00
        E 0 80 62 00
        E 840 90 1a 60
        E 0 90 1f 60
        E 0 90 3d 60
        E 0 90 3e 60
        E 0 90 49 60
        E 0 90 4a 60
        E 0 90 55 60
        E 0 90 56 60
        E 0 90 61 60
        E 0 90 62 60
        E 120 80 1a 00
        E 0 80 1f 00
        E 0 80 3d 00
        E 0 80 3e 00
        E 0 80 49 00
        E 0 80 4a 00
        E 0 80 55 00
        E 0 80 56 00
        E 0 80 61 00
        E 0 80 62 00
        E 840 90 18 60
        E 0 90 1f 60
        E 0 90 3e 60
        E 0 90 48 60
        E 0 90 4a 60
        E 0 90 54 60
        E 0 90 56 60
        E 0 90 60 60
        E 0 90 62 60
        E 120 80 18 00
        E 0 80 1f 00
        E 0 80 3e 00
        E 0 80 48 00
        E 0 80 4a 00
        E 0 80 54 00
        E 0 80 56 00
        E 0 80 60 00
        E 0 80 62 00
        E 840 90 1a 60
        E 0 90 1f 60
        E 0 90 3d 60
        E 0 90 3e 60
        E 0 90 49 60
        E 0 90 4a 60
        E 0 90 55 60
        E 0 90 56 60
        E 0 90 61 60
        E 0 90 62 60
        E 120 80 1a 00
        E 0 80 1f 00
        E 0 80 3d 00
        E 0 80 3e 00
        E 0 80 49 00
        E 0 80 4a 00
        E 0 80 55 00
        E 0 80 56 00
        E 0 80 61 00
        E 0 80 62 00
        E 840 90 18 60
        E 0 90 1f 60
        E 0 90 3e 60
        E 0 90 48 60
        E 0 90 4a 60
        E 0 90 54 60
        E 0 90 56 60
        E 0 90 60 60
        E 0 90 62 60
        E 120 80 18 00
        E 0 80 1f 00
        E 0 80 3e 00
        E 0 80 48 00
        E 0 80 4a 00
        E 0 80 54 00
        E 0 80 56 00
        E 0 80 60 00
        E 0 80 62 00
        E 840 90 1a 60
        E 0 90 1f 60
        E 0 90 3d 60
        E 0 90 3e 60
        E 0 90 49 60
        E 0 90 4a 60
        E 0 90 55 60
        E 0 90 56 60
        E 0 90 61 60
        E 0 90 62 60
        E 120 80 1a 00
        E 0 80 1f 00
        E 0 80 3d 00
        E 0 80 3e 00
        E 0 80 49 00
        E 0 80 4a 00
        E 0 80 55 00
        E 0 80 56 00
        E 0 80 61 00
        E 0 80 62 00
        E 840 80 74 00
        E 0 90 18 60
        E 0 90 1f 60
        E 0 90 3e 60
        E 0 90 48 60
        E 0 90 4a 60
        E 0 90 54 60
        E 0 90 56 60
        E 0 90 60 60
        E 0 90 62 60
        E 120 80 18 00
        E 0 80 1f 00
        E 0 80 3e 00
        E 0 80 48 00
        E 0 80 4a 00
        E 0 80 54 00
        E 0 80 56 00
        E 0 80 60 00
        E 0 80 62 00
        E 840 90 1a 60
        E 0 90 1f 60
        E 0 90 3d 60
        E 0 90 3e 60
        E 0 90 49 60
        E 0 90 4a 60
        E 0 90 55 60
        E 0 90 56 60
        E 0 90 61 60
        E 0 90 62 60
        E 120 80 1a 00
        E 0 80 1f 00
        E 0 80 3d 00
        E 0 80 3e 00
        E 0 80 49 00
        E 0 80 4a 00
        E 0 80 55 00
        E 0 80 56 00
        E 0 80 61 00
        E 0 80 62 00
        E 840 90 18 60
        E 0 90 1f 60
        E 0 90 3e 60
        E 0 90 48 60
        E 0 90 4a 60
        E 0 90 54 60
        E 0 90 56 60
        E 0 90 60 60
        E 0 90 62 60
        E 120 80 18 00
        E 0 80 1f 00
        E 0 80 3e 00
        E 0 80 48 00
        E 0 80 4a 00
        E 0 80 54 00
        E 0 80 56 00
        E 0 80 60 00
        E 0 80 62 00
        E 840 90 1a 60
        E 0 90 1f 60
        E 0 90 3d 60
        E 0 90 3e 60
        E 0 90 49 60
        E 0 90 4a 60
        E 0 90 55 60
        E 0 90 56 60
        E 0 90 61 60
        E 0 90 62 60
        E 120 80 1a 00
        E 0 80 1f 00
        E 0 80 3d 00
        E 0 80 3e 00
        E 0 80 49 00
        E 0 80 4a 00
        E 0 80 55 00
        E 0 80 56 00
        E 0 80 61 00
        E 0 80 62 00
        E 840 90 18 60
        E 0 90 1f 60
        E 0 90 3e 60
        E 0 90 48 60
        E 0 90 4a 60
        E 0 90 54 60
        E 0 90 56 60
        E 0 90 60 60
        E 0 90 62 60
        E 120 80 18 00
        E 0 80 1f 00
        E 0 80 3e 00
        E 0 80 48 00
        E 0 80 4a 00
        E 0 80 54 00
        E 0 80 56 00
        E 0 80 60 00
        E 0 80 62 00
        E 840 90 1a 60
        E 0 90 1f 60
        E 0 90 3d 60
        E 0 90 3e 60
        E 0 90 49 60
        E 0 90 4a 60
        E 0 90 55 60
        E 0 90 56 60
        E 0 90 61 60
        E 0 90 62 60
        E 120 80 1a 00
        E 0 80 1f 00
        E 0 80 3d 00
        E 0 80 3e 00
        E 0 80 49 00
        E 0 80 4a 00
        E 0 80 55 00
        E 0 80 56 00
        E 0 80 61 00
        E 0 80 62 00
        E 840 90 18 60
        E 0 90 1f 60
        E 0 90 3e 60
        E 0 90 48 60
        E 0 90 4a 60
        E 0 90 54 60
        E 0 90 56 60
        E 0 90 60 60
        E 0 90 62 60
        E 0 90 78 60
        E 0 90 79 60
        E 0 90 7a 60
        E 0 90 7b 60
        E 0 90 7c 60
        E 120 80 18 00
        E 0 80 1f 00
        E 0 80 3e 00
        E 0 80 48 00
        E 0 80 4a 00
        E 0 80 54 00
        E 0 80 56 00
        E 0 80 60 00
        E 0 80 62 00
        E 840 90 1a 60
        E 0 90 1f 60
        E 0 90 3d 60
        E 0 90 3e 60
        E 0 90 49 60
        E 0 90 4a 60
        E 0 90 55 60
        E 0 90 56 60
        E 0 90 61 60
        E 0 90 62 60
        E 120 80 1a 00
        E 0 80 1f 00
        E 0 80 3d 00
        E 0 80 3e 00
        E 0 80 49 00
        E 0 80 4a 00
        E 0 80 55 00
        E 0 80 56 00
        E 0 80 61 00
        E 0 80 62 00
        E 360 90 19 60
        E 0 90 1f 60
        E 0 90 4b 60
        E 0 90 57 60
        E 0 90 63 60
        E 120 80 1f 00
        E 0 80 4b 00
        E 0 80 57 00
        E 0 80 63 00
        E 360 80 78 00
        E 0 80 79 00
        E 0 80 7a 00
        E 0 80 7b 00
        E 0 80 7c 00
        E 0 80 19 00
        E 0 90 18 60
        E 0 90 24 60
        E 0 90 40 60
        E 0 90 48 60
        E 0 90 4c 60
        E 0 90 54 60
        E 0 90 58 60
        E 0 90 60 60
        E 0 90 64 60
        E 120 80 18 00
        E 0 80 24 00
        E 0 80 40 00
        E 0 80 48 00
        E 0 80 4c 00
        E 0 80 54 00
        E 0 80 58 00
        E 0 80 60 00
        E 0 80 64 00
        E 840 90 18 60
        E 0 90 3c 60
        E 0 90 48 60
        E 0 90 54 60
        E 0 90 60 60
        E 120 80 18 00
        E 0 80 3c 00
        E 0 80 48 00
        E 0 80 54 00
        E 0 80 60 00
        E 840 90 18 60
        E 0 90 3c 60
        E 0 90 48 60
        E 0 90 54 60
        E 0 90 60 60
        E 120 80 18 00
        E 0 80 3c 00
        E 0 80 48 00
        E 0 80 54 00
        E 0 80 60 00
        E 840 90 18 60
        E 0 90 3c 60
        E 0 90 48 60
        E 0 90 54 60
        E 0 90 60 60
        E 120 80 18 00
        E 0 80 3c 00
        E 0 80 48 00
        E 0 80 54 00
        E 0 80 60 00
        E 840 90 18 60
        E 0 90 3c 60
        E 0 90 48 60
        E 0 90 54 60
        E 0 90 60 60
        E 120 80 18 00
        E 0 80 3c 00
        E 0 80 48 00
        E 0 80 54 00
        E 0 80 60 00
        E 840 90 18 60
        E 0 90 3c 60
        E 0 90 48 60
        E 0 90 54 60
        E 0 90 60 60
        E 120 80 18 00
        E 0 80 3c 00
        E 0 80 48 00
        E 0 80 54 00
        E 0 80 60 00
        E 840 90 18 60
        E 0 90 3c 60
        E 0 90 48 60
        E 0 90 54 60
        E 0 90 60 60
        E 120 80 18 00
        E 0 80 3c 00
        E 0 80 48 00
        E 0 80 54 00
        E 0 80 60 00
        E 840 90 18 60
        E 0 90 3c 60
        E 0 90 48 60
        E 0 90 54 60
        E 0 90 60 60
        E 120 80 18 00
        E 0 80 3c 00
        E 0 80 48 00
        E 0 80 54 00
        E 0 80 60 00
        E 840 90 18 60
        E 0 90 3c 60
        E 0 90 48 60
        E 0 90 54 60
        E 0 90 60 60
        E 120 80 18 00
        E 0 80 3c 00
        E 0 80 48 00
        E 0 80 54 00
        E 0 80 60 00
        E 840 90 18 60
        E 0 90 3c 60
        E 0 90 48 60
        E 0 90 54 60
        E 0 90 60 60
        E 120 80 18 00
        E 0 80 3c 00
        E 0 80 48 00
        E 0 80 54 00
        E 0 80 60 00
        E 840 90 18 60
        E 0 90 3c 60
        E 0 90 48 60
        E 0 90 54 60
        E 0 90 60 60
        E 120 80 18 00
        E 0 80 3c 00
        E 0 80 48 00
        E 0 80 54 00
        E 0 80 60 00
        E 840 90 18 60
        E 0 90 3c 60
        E 0 90 48 60
        E 0 90 54 60
        E 0 90 60 60
        E 120 80 18 00
        E 0 80 3c 00
        E 0 80 48 00
        E 0 80 54 00
        E 0 80 60 00
        E 840 90 18 60
        E 0 90 33 60
        E 0 90 3f 60
        E 0 90 4b 60
        E 0 90 54 60
        E 0 90 57 60
        E 0 90 60 60
        E 0 90 63 60
        E 0 90 6f 60
        E 0 90 74 60
        E 120 80 18 00
        E 0 80 33 00
        E 0 80 3f 00
        E 0 80 4b 00
        E 0 80 54 00
        E 0 80 57 00
        E 0 80 60 00
        E 0 80 63 00
        E 360 90 18 60
        E 0 90 33 60
        E 0 90 48 60
        E 0 90 4b 60
        E 0 90 54 60
        E 0 90 57 60
        E 0 90 60 60
        E 0 90 63 60
        E 120 80 18 00
        E 0 80 33 00
        E 0 80 48 00
        E 0 80 4b 00
        E 0 80 54 00
        E 0 80 57 00
        E 0 80 60 00
        E 0 80 63 00
        E 360 90 18 60
        E 0 90 33 60
        E 0 90 3f 60
        E 0 90 48 60
        E 0 90 4b 60
        E 0 90 54 60
        E 0 90 57 60
        E 0 90 60 60
        E 0 90 63 60
        E 120 80 18 00
        E 0 80 33 00
        E 0 80 3f 00
        E 0 80 48 00
        E 0 80 4b 00
        E 0 80 54 00
        E 0 80 57 00
        E 0 80 60 00
        E 0 80 63 00
        E 360 90 18 60
        E 0 90 33 60
        E 0 90 48 60
        E 0 90 4b 60
        E 0 90 54 60
        E 0 90 57 60
        E 0 90 60 60
        E 0 90 63 60
        E 120 80 18 00
        E 0 80 33 00
        E 0 80 48 00
        E 0 80 4b 00
        E 0 80 54 00
        E 0 80 57 00
        E 0 80 60 00
        E 0 80 63 00
        <X 360 0
          /wFbbWl4IDMgZHJ1bXMwZF0=
        >
        E 0 80 74 00
        E 0 90 18 60
        E 0 90 33 60
        E 0 90 3f 60
        E 0 90 48 60
        E 0 90 4b 60
        E 0 90 54 60
        E 0 90 57 60
        E 0 90 60 60
        E 0 90 63 60
        E 0 90 78 60
        E 0 90 79 60
        E 0 90 7a 60
        E 0 90 7b 60
        E 0 90 7c 60
        E 120 80 18 00
        E 0 80 33 00
        E 0 80 3f 00
        E 0 80 48 00
        E 0 80 4b 00
        E 0 80 54 00
        E 0 80 57 00
        E 0 80 60 00
        E 0 80 63 00
        E 360 90 18 60
        E 0 90 33 60
        E 0 90 48 60
        E 0 90 4b 60
        E 0 90 54 60
        E 0 90 57 60
        E 0 90 60 60
        E 0 90 63 60
        E 120 80 18 00
        E 0 80 33 00
        E 0 80 48 00
        E 0 80 4b 00
        E 0 80 54 00
        E 0 80 57 00
        E 0 80 60 00
        E 0 80 63 00
        E 360 90 18 60
        E 0 90 1a 60
        E 0 90 3d 60
        E 0 90 3e 60
        E 0 90 49 60
        E 0 90 4a 60
        E 0 90 54 60
        E 0 90 55 60
        E 0 90 56 60
        E 0 90 60 60
        E 0 90 62 60
        E 120 80 18 00
        E 0 80 1a 00
        E 0 80 3d 00
        E 0 80 3e 00
        E 0 80 49 00
        E 0 80 4a 00
        E 0 80 54 00
        E 0 80 55 00
        E 0 80 56 00
        E 0 80 60 00
        E 0 80 62 00
        E 120 90 18 60
        E 0 90 33 60
        E 0 90 54 60
        E 0 90 57 60
        E 0 90 60 60
        E 0 90 63 60
        E 120 80 18 00
        E 0 80 33 00
        E 0 80 54 00
        E 0 80 57 00
        E 0 80 60 00
        E 0 80 63 00
        E 120 90 18 60
        E 0 90 33 60
        E 0 90 48 60
        E 0 90 4b 60
        E 0 90 54 60
        E 0 90 57 60
        E 0 90 60 60
        E 0 90 63 60
        E 120 80 18 00
        E 0 80 33 00
        E 0 80 48 00
        E 0 80 4b 00
        E 0 80 54 00
        E 0 80 57 00
        E 0 80 60 00
        E 0 80 63 00
        E 120 90 1a 60
        E 0 90 55 60
        E 0 90 56 60
        E 0 90 62 60
        E 120 80 6f 00
        E 0 80 1a 00
        E 0 80 55 00
        E 0 80 56 00
        E 0 80 62 00
        <X 120 0
          /wFbaW50ZW5zZV0=
        >
        E 0 80 78 00
        E 0 80 79 00
        E 0 80 7a 00
        E 0 80 7b 00
        E 0 80 7c 00
        E 0 90 18 60
        E 0 90 26 60
        E 0 90 40 60
        E 0 90 48 60
        E 0 90 4c 60
        E 0 90 54 60
        E 0 90 58 60
        E 0 90 60 60
        E 0 90 64 60
        E 120 80 18 00
        E 0 80 26 00
        E 0 80 40 00
        E 0 80 48 00
        E 0 80 4c 00
        E 0 80 54 00
        E 0 80 58 00
        E 0 80 60 00
        E 0 80 64 00
        E 0 90 1e 60
        E 0 90 61 60
        E 120 80 1e 00
        E 0 80 61 00
        E 0 90 1f 60
        E 0 90 56 60
        E 0 90 61 60
        E 120 80 1f 00
        E 0 80 56 00
        E 0 80 61 00
        E 0 90 1e 60
        E 0 90 61 60
        E 120 80 1e 00
        E 0 80 61 00
        E 0 90 1b 60
        E 0 90 49 60
        E 0 90 4a 60
        E 0 90 55 60
        E 0 90 56 60
        E 0 90 62 60
        E 120 80 1b 00
        E 0 80 49 00
        E 0 80 4a 00
        E 0 80 55 00
        E 0 80 56 00
        E 0 80 62 00
        E 0 90 1e 60
        E 0 90 61 60
        E 120 80 1e 00
        E 0 80 61 00
        E 0 90 1f 60
        E 0 90 56 60
        E 0 90 61 60
        E 120 80 1f 00
        E 0 80 56 00
        E 0 80 61 00
        E 0 90 1e 60
        E 0 90 61 60
        E 120 80 1e 00
        E 0 80 61 00
        E 0 90 1f 60
        E 0 90 3e 60
        E 0 90 4a 60
        E 0 90 56 60
        E 0 90 61 60
        E 120 80 1f 00
        E 0 80 3e 00
        E 0 80 4a 00
        E 0 80 56 00
        E 0 80 61 00
        E 0 90 1e 60
        E 0 90 61 60
        E 120 80 1e 00
        E 0 80 61 00
        E 0 90 18 60
        E 0 90 1f 60
        E 0 90 54 60
        E 0 90 56 60
        E 0 90 60 60
        E 0 90 61 60
        E 120 80 18 00
        E 0 80 1f 00
        E 0 80 54 00
        E 0 80 56 00
        E 0 80 60 00
        E 0 80 61 00
        E 0 90 1e 60
        E 0 90 61 60
        E 120 80 1e 00
        E 0 80 61 00
        E 0 90 1b 60
        E 0 90 49 60
        E 0 90 4a 60
        E 0 90 55 60
        E 0 90 56 60
        E 0 90 62 60
        E 120 80 1b 00
        E 0 80 49 00
        E 0 80 4a 00
        E 0 80 55 00
        E 0 80 56 00
        E 0 80 62 00
        E 0 90 1e 60
        E 0 90 61 60
        E 120 80 1e 00
        E 0 80 61 00
        E 0 90 1f 60
        E 0 90 56 60
        E 0 90 61 60
        E 120 80 1f 00
        E 0 80 56 00
        E 0 80 61 00
        E 0 90 1e 60
        E 0 90 61 60
        E 120 80 1e 00
        E 0 80 61 00
        E 0 90 18 60
        E 0 90 1f 60
        E 0 90 3e 60
        E 0 90 48 60
        E 0 90 4a 60
        E 0 90 54 60
        E 0 90 56 60
        E 0 90 60 60
        E 0 90 61 60
        E 120 80 18 00
        E 0 80 1f 00
        E 0 80 3e 00
        E 0 80 48 00
        E 0 80 4a 00
        E 0 80 54 00
        E 0 80 56 00
        E 0 80 60 00
        E 0 80 61 00
        E 0 90 1e 60
        E 0 90 61 60
        E 120 80 1e 00
        E 0 80 61 00
        E 0 90 1f 60
        E 0 90 56 60
        E 0 90 61 60
        E 120 80 1f 00
        E 0 80 56 00
        E 0 80 61 00
        E 0 90 1e 60
        E 0 90 61 60
        E 120 80 1e 00
        E 0 80 61 00
        E 0 90 1b 60
        E 0 90 49 60
        E 0 90 4a 60
        E 0 90 55 60
        E 0 90 56 60
        E 0 90 62 60
        E 120 80 1b 00
        E 0 80 49 00
        E 0 80 4a 00
        E 0 80 55 00
        E 0 80 56 00
        E 0 80 62 00
        E 0 90 1e 60
        E 0 90 61 60
        E 120 80 1e 00
        E 0 80 61 00
        E 0 90 1f 60
        E 0 90 56 60
        E 0 90 61 60
        E 120 80 1f 00
        E 0 80 56 00
        E 0 80 61 00
        E 0 90 1e 60
        E 0 90 61 60
        E 120 80 1e 00
        E 0 80 61 00
        E 0 90 1f 60
        E 0 90 3e 60
        E 0 90 4a 60
        E 0 90 56 60
        E 0 90 61 60
        E 120 80 1f 00
        E 0 80 3e 00
        E 0 80 4a 00
        E 0 80 56 00
        E 0 80 61 00
        E 0 90 1e 60
        E 0 90 61 60
        E 120 80 1e 00
        E 0 80 61 00
        E 0 90 18 60
        E 0 90 1f 60
        E 0 90 54 60
        E 0 90 56 60
        E 0 90 60 60
        E 0 90 61 60
        E 120 80 18 00
        E 0 80 1f 00
        E 0 80 54 00
        E 0 80 56 00
        E 0 80 60 00
        E 0 80 61 00
        E 0 90 1e 60
        E 0 90 61 60
        E 120 80 1e 00
        E 0 80 61 00
        E 0 90 1b 60
        E 0 90 49 60
        E 0 90 4a 60
        E 0 90 55 60
        E 0 90 56 60
        E 0 90 62 60
        E 120 80 1b 00
        E 0 80 49 00
        E 0 80 4a 00
        E 0 80 55 00
        E 0 80 56 00
        E 0 80 62 00
        E 0 90 1e 60
        E 0 90 61 60
        E 120 80 1e 00
        E 0 80 61 00
        E 0 90 1f 60
        E 0 90 56 60
        E 0 90 61 60
        E 120 80 1f 00
        E 0 80 56 00
        E 0 80 61 00
        E 0 90 1e 60
        E 0 90 61 60
        E 120 80 1e 00
        E 0 80 61 00
        E 0 90 18 60
        E 0 90 1f 60
        E 0 90 3e 60
        E 0 90 48 60
        E 0 90 4a 60
        E 0 90 54 60
        E 0 90 56 60
        E 0 90 60 60
        E 0 90 61 60
        E 120 80 18 00
        E 0 80 1f 00
        E 0 80 3e 00
        E 0 80 48 00
        E 0 80 4a 00
        E 0 80 54 00
        E 0 80 56 00
        E 0 80 60 00
        E 0 80 61 00
        E 0 90 1e 60
        E 0 90 61 60
        E 120 80 1e 00
        E 0 80 61 00
        E 0 90 1f 60
        E 0 90 56 60
        E 0 90 61 60
        E 120 80 1f 00
        E 0 80 56 00
        E 0 80 61 00
        E 0 90 1e 60
        E 0 90 61 60
        E 120 80 1e 00
        E 0 80 61 00
        E 0 90 1b 60
        E 0 90 49 60
        E 0 90 4a 60
        E 0 90 55 60
        E 0 90 56 60
        E 0 90 62 60
        E 120 80 1b 00
        E 0 80 49 00
        E 0 80 4a 00
        E 0 80 55 00
        E 0 80 56 00
        E 0 80 62 00
        E 0 90 1e 60
        E 0 90 61 60
        E 120 80 1e 00
        E 0 80 61 00
        E 0 90 1f 60
        E 0 90 56 60
        E 0 90 61 60
        E 120 80 1f 00
        E 0 80 56 00
        E 0 80 61 00
        E 0 90 1e 60
        E 0 90 61 60
        E 120 80 1e 00
        E 0 80 61 00
        E 0 90 1f 60
        E 0 90 3e 60
        E 0 90 4a 60
        E 0 90 56 60
        E 0 90 61 60
        E 120 80 1f 00
        E 0 80 3e 00
        E 0 80 4a 00
        E 0 80 56 00
        E 0 80 61 00
        E 0 90 1e 60
        E 0 90 61 60
        E 120 80 1e 00
        E 0 80 61 00
        E 0 90 18 60
        E 0 90 1f 60
        E 0 90 54 60
        E 0 90 56 60
        E 0 90 60 60
        E 0 90 61 60
        E 120 80 18 00
        E 0 80 1f 00
        E 0 80 54 00
        E 0 80 56 00
        E 0 80 60 00
        E 0 80 61 00
        E 0 90 1e 60
        E 0 90 61 60
        E 120 80 1e 00
        E 0 80 61 00
        E 0 90 1b 60
        E 0 90 49 60
        E 0 90 4a 60
        E 0 90 55 60
        E 0 90 56 60
        E 0 90 62 60
        E 120 80 1b 00
        E 0 80 49 00
        E 0 80 4a 00
        E 0 80 55 00
        E 0 80 56 00
        E 0 80 62 00
        E 0 90 1e 60
        E 0 90 61 60
        E 120 80 1e 00
        E 0 80 61 00
        E 0 90 1f 60
        E 0 90 56 60
        E 0 90 61 60
        E 120 80 1f 00
        E 0 80 56 00
        E 0 80 61 00
        E 0 90 1e 60
        E 0 90 61 60
        E 120 80 1e 00
        E 0 80 61 00
        E 0 90 18 60
        E 0 90 1f 60
        E 0 90 3e 60
        E 0 90 48 60
        E 0 90 4a 60
        E 0 90 54 60
        E 0 90 56 60
        E 0 90 60 60
        E 0 90 61 60
        E 120 80 18 00
        E 0 80 1f 00
        E 0 80 3e 00
        E 0 80 48 00
        E 0 80 4a 00
        E 0 80 54 00
        E 0 80 56 00
        E 0 80 60 00
        E 0 80 61 00
        E 0 90 1e 60
        E 0 90 61 60
        E 120 80 1e 00
        E 0 80 61 00
        E 0 90 1f 60
        E 0 90 56 60
        E 0 90 61 60
        E 120 80 1f 00
        E 0 80 56 00
        E 0 80 61 00
        E 0 90 1e 60
        E 0 90 61 60
        E 120 80 1e 00
        E 0 80 61 00
        E 0 90 1b 60
        E 0 90 49 60
        E 0 90 4a 60
        E 0 90 55 60
        E 0 90 56 60
        E 0 90 62 60
        E 120 80 1b 00
        E 0 80 49 00
        E 0 80 4a 00
        E 0 80 55 00
        E 0 80 56 00
        E 0 80 62 00
        E 0 90 1e 60
        E 0 90 61 60
        E 120 80 1e 00
        E 0 80 61 00
        E 0 90 1f 60
        E 0 90 56 60
        E 0 90 61 60
        E 120 80 1f 00
        E 0 80 56 00
        E 0 80 61 00
        E 0 90 1e 60
        E 0 90 61 60
        E 120 80 1e 00
        E 0 80 61 00
        E 0 90 1f 60
        E 0 90 3e 60
        E 0 90 4a 60
        E 0 90 56 60
        E 0 90 61 60
        E 120 80 1f 00
        E 0 80 3e 00
        E 0 80 4a 00
        E 0 80 56 00
        E 0 80 61 00
        E 0 90 1e 60
        E 0 90 61 60
        E 120 80 1e 00
        E 0 80 61 00
        E 0 90 18 60
        E 0 90 1f 60
        E 0 90 54 60
        E 0 90 56 60
        E 0 90 60 60
        E 0 90 61 60
        E 120 80 18 00
        E 0 80 1f 00
        E 0 80 54 00
        E 0 80 56 00
        E 0 80 60 00
        E 0 80 61 00
        E 0 90 1e 60
        E 0 90 61 60
        E 120 80 1e 00
        E 0 80 61 00
        E 0 90 1b 60
        E 0 90 49 60
        E 0 90 4a 60
        E 0 90 55 60
        E 0 90 56 60
        E 0 90 62 60
        E 120 80 1b 00
        E 0 80 49 00
        E 0 80 4a 00
        E 0 80 55 00
        E 0 80 56 00
        E 0 80 62 00
        E 0 90 1e 60
        E 0 90 61 60
        E 120 80 1e 00
        E 0 80 61 00
        E 0 90 1f 60
        E 0 90 56 60
        E 0 90 61 60
        E 120 80 1f 00
        E 0 80 56 00
        E 0 80 61 00
        E 0 90 1e 60
        E 0 90 61 60
        E 120 80 1e 00
        E 0 80 61 00
        E 0 90 18 60
        E 0 90 1f 60
        E 0 90 3e 60
        E 0 90 48 60
        E 0 90 4a 60
        E 0 90 54 60
        E 0 90 56 60
        E 0 90 60 60
        E 0 90 61 60
        E 120 80 18 00
        E 0 80 1f 00
        E 0 80 3e 00
        E 0 80 48 00
        E 0 80 4a 00
        E 0 80 54 00
        E 0 80 56 00
        E 0 80 60 00
        E 0 80 61 00
        E 0 90 1e 60
        E 0 90 61 60
        E 120 80 1e 00
        E 0 80 61 00
        E 0 90 1f 60
        E 0 90 56 60
        E 0 90 61 60
        E 120 80 1f 00
        E 0 80 56 00
        E 0 80 61 00
        E 0 90 1e 60
        E 0 90 61 60
        E 120 80 1e 00
        E 0 80 61 00
        E 0 90 1b 60
        E 0 90 49 60
        E 0 90 4a 60
        E 0 90 55 60
        E 0 90 56 60
        E 0 90 62 60
        E 120 80 1b 00
        E 0 80 49 00
        E 0 80 4a 00
        E 0 80 55 00
        E 0 80 56 00
        E 0 80 62 00
        E 0 90 1e 60
        E 0 90 61 60
        E 120 80 1e 00
        E 0 80 61 00
        E 0 90 1f 60
        E 0 90 56 60
        E 0 90 61 60
        E 120 80 1f 00
        E 0 80 56 00
        E 0 80 61 00
        E 0 90 1e 60
        E 0 90 61 60
        E 120 80 1e 00
        E 0 80 61 00
        E 0 90 1f 60
        E 0 90 3e 60
        E 0 90 4a 60
        E 0 90 56 60
        E 0 90 61 60
        E 120 80 1f 00
        E 0 80 3e 00
        E 0 80 4a 00
        E 0 80 56 00
        E 0 80 61 00
        E 0 90 1e 60
        E 0 90 61 60
        E 120 80 1e 00
        E 0 80 61 00
        E 0 90 18 60
        E 0 90 1f 60
        E 0 90 54 60
        E 0 90 56 60
        E 0 90 60 60
        E 0 90 61 60
        E 120 80 18 00
        E 0 80 1f 00
        E 0 80 54 00
        E 0 80 56 00
        E 0 80 60 00
        E 0 80 61 00
        E 0 90 1e 60
        E 0 90 61 60
        E 120 80 1e 00
        E 0 80 61 00
        E 0 90 1b 60
        E 0 90 49 60
        E 0 90 4a 60
        E 0 90 55 60
        E 0 90 56 60
        E 0 90 62 60
        E 120 80 1b 00
        E 0 80 49 00
        E 0 80 4a 00
        E 0 80 55 00
        E 0 80 56 00
        E 0 80 62 00
        E 0 90 1e 60
        E 0 90 61 60
        E 120 80 1e 00
        E 0 80 61 00
        E 0 90 1f 60
        E 0 90 56 60
        E 0 90 61 60
        E 120 80 1f 00
        E 0 80 56 00
        E 0 80 61 00
        E 0 90 1e 60
        E 0 90 61 60
        E 120 80 1e 00
        E 0 80 61 00
        E 0 90 18 60
        E 0 90 1f 60
        E 0 90 3e 60
        E 0 90 48 60
        E 0 90 4a 60
        E 0 90 54 60
        E 0 90 56 60
        E 0 90 60 60
        E 0 90 61 60
        E 120 80 18 00
        E 0 80 1f 00
        E 0 80 3e 00
        E 0 80 48 00
        E 0 80 4a 00
        E 0 80 54 00
        E 0 80 56 00
        E 0 80 60 00
        E 0 80 61 00
        E 0 90 1e 60
        E 0 90 61 60
        E 120 80 1e 00
        E 0 80 61 00
        E 0 90 1f 60
        E 0 90 56 60
        E 0 90 61 60
        E 120 80 1f 00
        E 0 80 56 00
        E 0 80 61 00
        E 0 90 1e 60
        E 0 90 61 60
        E 120 80 1e 00
        E 0 80 61 00
        E 0 90 1b 60
        E 0 90 49 60
        E 0 90 4a 60
        E 0 90 55 60
        E 0 90 56 60
        E 0 90 62 60
        E 120 80 1b 00
        E 0 80 49 00
        E 0 80 4a 00
        E 0 80 55 00
        E 0 80 56 00
        E 0 80 62 00
        E 0 90 1e 60
        E 0 90 61 60
        E 120 80 1e 00
        E 0 80 61 00
        E 0 90 1f 60
        E 0 90 56 60
        E 0 90 61 60
        E 120 80 1f 00
        E 0 80 56 00
        E 0 80 61 00
        E 0 90 1e 60
        E 0 90 61 60
        E 120 80 1e 00
        E 0 80 61 00
        E 0 90 1f 60
        E 0 90 3e 60
        E 0 90 4a 60
        E 0 90 56 60
        E 0 90 61 60
        E 120 80 1f 00
        E 0 80 3e 00
        E 0 80 4a 00
        E 0 80 56 00
        E 0 80 61 00
        E 0 90 1e 60
        E 0 90 61 60
        E 120 80 1e 00
        E 0 80 61 00
        E 0 90 18 60
        E 0 90 1f 60
        E 0 90 54 60
        E 0 90 56 60
        E 0 90 60 60
        E 0 90 61 60
        E 120 80 18 00
        E 0 80 1f 00
        E 0 80 54 00
        E 0 80 56 00
        E 0 80 60 00
        E 0 80 61 00
        E 0 90 1e 60
        E 0 90 61 60
        E 120 80 1e 00
        E 0 80 61 00
        E 0 90 1b 60
        E 0 90 49 60
        E 0 90 4a 60
        E 0 90 55 60
        E 0 90 56 60
        E 0 90 62 60
        E 120 80 1b 00
        E 0 80 49 00
        E 0 80 4a 00
        E 0 80 55 00
        E 0 80 56 00
        E 0 80 62 00
        E 0 90 1e 60
        E 0 90 61 60
        E 120 80 1e 00
        E 0 80 61 00
        E 0 90 1f 60
        E 0 90 56 60
        E 0 90 61 60
        E 120 80 1f 00
        E 0 80 56 00
        E 0 80 61 00
        E 0 90 1e 60
        E 0 90 61 60
        E 120 80 1e 00
        E 0 80 61 00
        E 0 90 18 60
        E 0 90 1f 60
        E 0 90 3e 60
        E 0 90 48 60
        E 0 90 4a 60
        E 0 90 54 60
        E 0 90 56 60
        E 0 90 60 60
        E 0 90 61 60
        E 120 80 18 00
        E 0 80 1f 00
        E 0 80 3e 00
        E 0 80 48 00
        E 0 80 4a 00
        E 0 80 54 00
        E 0 80 56 00
        E 0 80 60 00
        E 0 80 61 00
        E 0 90 1e 60
        E 0 90 61 60
        E 120 80 1e 00
        E 0 80 61 00
        E 0 90 1f 60
        E 0 90 56 60
        E 0 90 61 60
        E 120 80 1f 00
        E 0 80 56 00
        E 0 80 61 00
        E 0 90 1e 60
        E 0 90 61 60
        E 120 80 1e 00
        E 0 80 61 00
        E 0 90 1b 60
        E 0 90 49 60
        E 0 90 4a 60
        E 0 90 55 60
        E 0 90 56 60
        E 0 90 62 60
        E 120 80 1b 00
        E 0 80 49 00
        E 0 80 4a 00
        E 0 80 55 00
        E 0 80 56 00
        E 0 80 62 00
        E 0 90 1e 60
        E 0 90 61 60
        E 120 80 1e 00
        E 0 80 61 00
        E 0 90 1f 60
        E 0 90 56 60
        E 0 90 61 60
        E 120 80 1f 00
        E 0 80 56 00
        E 0 80 61 00
        E 0 90 1e 60
        E 0 90 61 60
        E 120 80 1e 00
        E 0 80 61 00
        E 0 90 1f 60
        E 0 90 3e 60
        E 0 90 4a 60
        E 0 90 56 60
        E 0 90 61 60
        E 120 80 1f 00
        E 0 80 3e 00
        E 0 80 4a 00
        E 0 80 56 00
        E 0 80 61 00
        E 0 90 1e 60
        E 0 90 61 60
        E 120 80 1e 00
        E 0 80 61 00
        E 0 90 18 60
        E 0 90 1f 60
        E 0 90 54 60
        E 0 90 56 60
        E 0 90 60 60
        E 0 90 61 60
        E 120 80 18 00
        E 0 80 1f 00
        E 0 80 54 00
        E 0 80 56 00
        E 0 80 60 00
        E 0 80 61 00
        E 0 90 1e 60
        E 0 90 61 60
        E 120 80 1e 00
        E 0 80 61 00
        E 0 90 1b 60
        E 0 90 49 60
        E 0 90 4a 60
        E 0 90 55 60
        E 0 90 56 60
        E 0 90 62 60
        E 120 80 1b 00
        E 0 80 49 00
        E 0 80 4a 00
        E 0 80 55 00
        E 0 80 56 00
        E 0 80 62 00
        E 0 90 1e 60
        E 0 90 61 60
        E 120 80 1e 00
        E 0 80 61 00
        E 0 90 1f 60
        E 0 90 56 60
        E 0 90 61 60
        E 120 80 1f 00
        E 0 80 56 00
        E 0 80 61 00
        E 0 90 1e 60
        E 0 90 61 60
        E 120 80 1e 00
        E 0 80 61 00
        E 0 90 18 60
        E 0 90 1f 60
        E 0 90 3e 60
        E 0 90 48 60
        E 0 90 4a 60
        E 0 90 54 60
        E 0 90 56 60
        E 0 90 60 60
        E 0 90 61 60
        E 0 90 78 60
        E 0 90 79 60
        E 0 90 7a 60
        E 0 90 7b 60
        E 0 90 7c 60
        E 120 80 18 00
        E 0 80 1f 00
        E 0 80 3e 00
        E 0 80 48 00
        E 0 80 4a 00
        E 0 80 54 00
        E 0 80 56 00
        E 0 80 60 00
        E 0 80 61 00
        E 0 90 1e 60
        E 0 90 61 60
        E 120 80 1e 00
        E 0 80 61 00
        E 0 90 1f 60
        E 0 90 56 60
        E 0 90 61 60
        E 120 80 1f 00
        E 0 80 56 00
        E 0 80 61 00
        E 0 90 1e 60
        E 0 90 61 60
        E 120 80 1e 00
        E 0 80 61 00
        E 0 90 1b 60
        E 0 90 49 60
        E 0 90 4a 60
        E 0 90 55 60
        E 0 90 56 60
        E 0 90 62 60
        E 120 80 1b 00
        E 0 80 49 00
        E 0 80 4a 00
        E 0 80 55 00
        E 0 80 56 00
        E 0 80 62 00
        E 0 90 1e 60
        E 0 90 61 60
        E 120 80 1e 00
        E 0 80 61 00
        E 0 90 1f 60
        E 0 90 56 60
        E 0 90 61 60
        E 120 80 1f 00
        E 0 80 56 00
        E 0 80 61 00
        E 0 90 1e 60
        E 0 90 61 60
        E 120 80 1e 00
        E 0 80 61 00
        E 0 90 1f 60
        E 0 90 3e 60
        E 0 90 4a 60
        E 0 90 56 60
        E 0 90 61 60
        E 120 80 1f 00
        E 0 80 3e 00
        E 0 80 4a 00
        E 0 80 56 00
        E 0 80 61 00
        E 0 90 1e 60
        E 0 90 61 60
        E 120 80 1e 00
        E 0 80 61 00
        E 0 90 18 60
        E 0 90 1f 60
        E 0 90 54 60
        E 0 90 56 60
        E 0 90 60 60
        E 0 90 61 60
        E 120 80 18 00
        E 0 80 1f 00
        E 0 80 54 00
        E 0 80 56 00
        E 0 80 60 00
        E 0 80 61 00
        E 0 90 1e 60
        E 0 90 61 60
        E 120 80 1e 00
        E 0 80 61 00
        E 0 90 1b 60
        E 0 90 49 60
        E 0 90 4a 60
        E 0 90 55 60
        E 0 90 56 60
        E 0 90 62 60
        E 120 80 1b 00
        E 0 80 49 00
        E 0 80 4a 00
        E 0 80 55 00
        E 0 80 56 00
        E 0 80 62 00
        E 0 90 1e 60
        E 0 90 61 60
        E 120 80 1e 00
        E 0 80 61 00
        E 0 90 1f 60
        E 0 90 56 60
        E 0 90 61 60
        E 120 80 1f 00
        E 0 80 56 00
        E 0 80 61 00
        E 0 90 1e 60
        E 0 90 61 60
        E 120 80 78 00
        E 0 80 79 00
        E 0 80 7a 00
        E 0 80 7b 00
        E 0 80 7c 00
        E 0 80 1e 00
        E 0 80 61 00
        E 0 90 18 60
        E 0 90 24 60
        E 0 90 40 60
        E 0 90 48 60
        E 0 90 4c 60
        E 0 90 54 60
        E 0 90 58 60
        E 0 90 60 60
        E 0 90 64 60
        E 120 80 18 00
        E 0 80 24 00
        E 0 80 40 00
        E 0 80 48 00
        E 0 80 4c 00
        E 0 80 54 00
        E 0 80 58 00
        E 0 80 60 00
        E 0 80 64 00
        E 0 90 1e 60
        E 0 90 61 60
        E 120 80 1e 00
        E 0 80 61 00
        E 0 90 1f 60
        E 0 90 56 60
        E 0 90 61 60
        E 120 80 1f 00
        E 0 80 56 00
        E 0 80 61 00
        E 0 90 1e 60
        E 0 90 61 60
        E 120 80 1e 00
        E 0 80 61 00
        E 0 90 1b 60
        E 0 90 49 60
        E 0 90 4a 60
        E 0 90 55 60
        E 0 90 56 60
        E 0 90 62 60
        E 120 80 1b 00
        E 0 80 49 00
        E 0 80 4a 00
        E 0 80 55 00
        E 0 80 56 00
        E 0 80 62 00
        E 0 90 1e 60
        E 0 90 61 60
        E 120 80 1e 00
        E 0 80 61 00
        E 0 90 1f 60
        E 0 90 56 60
        E 0 90 61 60
        E 120 80 1f 00
        E 0 80 56 00
        E 0 80 61 00
        E 0 90 1e 60
        E 0 90 61 60
        E 120 80 1e 00
        E 0 80 61 00
        E 0 90 1f 60
        E 0 90 3e 60
        E 0 90 4a 60
        E 0 90 56 60
        E 0 90 61 60
        E 120 80 1f 00
        E 0 80 3e 00
        E 0 80 4a 00
        E 0 80 56 00
        E 0 80 61 00
        E 0 90 1e 60
        E 0 90 61 60
        E 120 80 1e 00
        E 0 80 61 00
        E 0 90 18 60
        E 0 90 1f 60
        E 0 90 54 60
        E 0 90 56 60
        E 0 90 60 60
        E 0 90 61 60
        E 120 80 18 00
        E 0 80 1f 00
        E 0 80 54 00
        E 0 80 56 00
        E 0 80 60 00
        E 0 80 61 00
        E 0 90 1e 60
        E 0 90 61 60
        E 120 80 1e 00
        E 0 80 61 00
        E 0 90 1b 60
        E 0 90 49 60
        E 0 90 4a 60
        E 0 90 55 60
        E 0 90 56 60
        E 0 90 62 60
        E 120 80 1b 00
        E 0 80 49 00
        E 0 80 4a 00
        E 0 80 55 00
        E 0 80 56 00
        E 0 80 62 00
        E 0 90 1e 60
        E 0 90 61 60
        E 120 80 1e 00
        E 0 80 61 00
        E 0 90 1f 60
        E 0 90 56 60
        E 0 90 61 60
        E 120 80 1f 00
        E 0 80 56 00
        E 0 80 61 00
        E 0 90 1e 60
        E 0 90 61 60
        E 120 80 1e 00
        E 0 80 61 00
        E 0 90 18 60
        E 0 90 1f 60
        E 0 90 3e 60
        E 0 90 48 60
        E 0 90 4a 60
        E 0 90 54 60
        E 0 90 56 60
        E 0 90 60 60
        E 0 90 61 60
        E 120 80 18 00
        E 0 80 1f 00
        E 0 80 3e 00
        E 0 80 48 00
        E 0 80 4a 00
        E 0 80 54 00
        E 0 80 56 00
        E 0 80 60 00
        E 0 80 61 00
        E 0 90 1e 60
        E 0 90 61 60
        E 120 80 1e 00
        E 0 80 61 00
        E 0 90 1f 60
        E 0 90 56 60
        E 0 90 61 60
        E 120 80 1f 00
        E 0 80 56 00
        E 0 80 61 00
        E 0 90 1e 60
        E 0 90 61 60
        E 120 80 1e 00
        E 0 80 61 00
        E 0 90 1b 60
        E 0 90 49 60
        E 0 90 4a 60
        E 0 90 55 60
        E 0 90 56 60
        E 0 90 62 60
        E 120 80 1b 00
        E 0 80 49 00
        E 0 80 4a 00
        E 0 80 55 00
        E 0 80 56 00
        E 0 80 62 00
        E 0 90 1e 60
        E 0 90 61 60
        E 120 80 1e 00
        E 0 80 61 00
        E 0 90 1f 60
        E 0 90 56 60
        E 0 90 61 60
        E 120 80 1f 00
        E 0 80 56 00
        E 0 80 61 00
        E 0 90 1e 60
        E 0 90 61 60
        E 120 80 1e 00
        E 0 80 61 00
        E 0 90 1f 60
        E 0 90 3e 60
        E 0 90 4a 60
        E 0 90 56 60
        E 0 90 61 60
        E 120 80 1f 00
        E 0 80 3e 00
        E 0 80 4a 00
        E 0 80 56 00
        E 0 80 61 00
        E 0 90 1e 60
        E 0 90 61 60
        E 120 80 1e 00
        E 0 80 61 00
        E 0 90 18 60
        E 0 90 1f 60
        E 0 90 54 60
        E 0 90 56 60
        E 0 90 60 60
        E 0 90 61 60
        E 120 80 18 00
        E 0 80 1f 00
        E 0 80 54 00
        E 0 80 56 00
        E 0 80 60 00
        E 0 80 61 00
        E 0 90 1e 60
        E 0 90 61 60
        E 120 80 1e 00
        E 0 80 61 00
        E 0 90 1b 60
        E 0 90 49 60
        E 0 90 4a 60
        E 0 90 55 60
        E 0 90 56 60
        E 0 90 62 60
        E 120 80 1b 00
        E 0 80 49 00
        E 0 80 4a 00
        E 0 80 55 00
        E 0 80 56 00
        E 0 80 62 00
        E 0 90 1e 60
        E 0 90 61 60
        E 120 80 1e 00
        E 0 80 61 00
        E 0 90 1f 60
        E 0 90 56 60
        E 0 90 61 60
        E 120 80 1f 00
        E 0 80 56 00
        E 0 80 61 00
        E 0 90 1e 60
        E 0 90 61 60
        E 120 80 1e 00
        E 0 80 61 00
        E 0 90 18 60
        E 0 90 1f 60
        E 0 90 3e 60
        E 0 90 48 60
        E 0 90 4a 60
        E 0 90 54 60
        E 0 90 56 60
        E 0 90 60 60
        E 0 90 61 60
        E 120 80 18 00
        E 0 80 1f 00
        E 0 80 3e 00
        E 0 80 48 00
        E 0 80 4a 00
        E 0 80 54 00
        E 0 80 56 00
        E 0 80 60 00
        E 0 80 61 00
        E 0 90 1e 60
        E 0 90 61 60
        E 120 80 1e 00
        E 0 80 61 00
        E 0 90 1f 60
        E 0 90 56 60
        E 0 90 61 60
        E 120 80 1f 00
        E 0 80 56 00
        E 0 80 61 00
        E 0 90 1e 60
        E 0 90 61 60
        E 120 80 1e 00
        E 0 80 61 00
        E 0 90 1b 60
        E 0 90 49 60
        E 0 90 4a 60
        E 0 90 55 60
        E 0 90 56 60
        E 0 90 62 60
        E 120 80 1b 00
        E 0 80 49 00
        E 0 80 4a 00
        E 0 80 55 00
        E 0 80 56 00
        E 0 80 62 00
        E 0 90 1e 60
        E 0 90 61 60
        E 120 80 1e 00
        E 0 80 61 00
        E 0 90 1f 60
        E 0 90 56 60
        E 0 90 61 60
        E 120 80 1f 00
        E 0 80 56 00
        E 0 80 61 00
        E 0 90 1e 60
        E 0 90 61 60
        E 120 80 1e 00
        E 0 80 61 00
        E 0 90 1f 60
        E 0 90 3e 60
        E 0 90 4a 60
        E 0 90 56 60
        E 0 90 61 60
        E 120 80 1f 00
        E 0 80 3e 00
        E 0 80 4a 00
        E 0 80 56 00
        E 0 80 61 00
        E 0 90 1e 60
        E 0 90 61 60
        E 120 80 1e 00
        E 0 80 61 00
        E 0 90 18 60
        E 0 90 1f 60
        E 0 90 54 60
        E 0 90 56 60
        E 0 90 60 60
        E 0 90 61 60
        E 120 80 18 00
        E 0 80 1f 00
        E 0 80 54 00
        E 0 80 56 00
        E 0 80 60 00
        E 0 80 61 00
        E 0 90 1e 60
        E 0 90 61 60
        E 120 80 1e 00
        E 0 80 61 00
        E 0 90 1b 60
        E 0 90 49 60
        E 0 90 4a 60
        E 0 90 55 60
        E 0 90 56 60
        E 0 90 62 60
        E 120 80 1b 00
        E 0 80 49 00
        E 0 80 4a 00
        E 0 80 55 00
        E 0 80 56 00
        E 0 80 62 00
        E 0 90 1e 60
        E 0 90 61 60
        E 120 80 1e 00
        E 0 80 61 00
        E 0 90 1f 60
        E 0 90 56 60
        E 0 90 61 60
        E 120 80 1f 00
        E 0 80 56 00
        E 0 80 61 00
        E 0 90 1e 60
        E 0 90 61 60
        E 120 80 1e 00
        E 0 80 61 00
        E 0 90 18 60
        E 0 90 1f 60
        E 0 90 3e 60
        E 0 90 48 60
        E 0 90 4a 60
        E 0 90 54 60
        E 0 90 56 60
        E 0 90 60 60
        E 0 90 61 60
        E 120 80 18 00
        E 0 80 1f 00
        E 0 80 3e 00
        E 0 80 48 00
        E 0 80 4a 00
        E 0 80 54 00
        E 0 80 56 00
        E 0 80 60 00
        E 0 80 61 00
        E 0 90 1e 60
        E 0 90 61 60
        E 120 80 1e 00
        E 0 80 61 00
        E 0 90 1f 60
        E 0 90 56 60
        E 0 90 61 60
        E 120 80 1f 00
        E 0 80 56 00
        E 0 80 61 00
        E 0 90 1e 60
        E 0 90 61 60
        E 120 80 1e 00
        E 0 80 61 00
        E 0 90 1b 60
        E 0 90 49 60
        E 0 90 4a 60
        E 0 90 55 60
        E 0 90 56 60
        E 0 90 62 60
        E 120 80 1b 00
        E 0 80 49 00
        E 0 80 4a 00
        E 0 80 55 00
        E 0 80 56 00
        E 0 80 62 00
        E 0 90 1e 60
        E 0 90 61 60
        E 120 80 1e 00
        E 0 80 61 00
        E 0 90 1f 60
        E 0 90 56 60
        E 0 90 61 60
        E 120 80 1f 00
        E 0 80 56 00
        E 0 80 61 00
        E 0 90 1e 60
        E 0 90 61 60
        E 120 80 1e 00
        E 0 80 61 00
        E 0 90 1f 60
        E 0 90 3e 60
        E 0 90 4a 60
        E 0 90 56 60
        E 0 90 61 60
        E 120 80 1f 00
        E 0 80 3e 00
        E 0 80 4a 00
        E 0 80 56 00
        E 0 80 61 00
        E 0 90 1e 60
        E 0 90 61 60
        E 120 80 1e 00
        E 0 80 61 00
        E 0 90 18 60
        E 0 90 1f 60
        E 0 90 54 60
        E 0 90 56 60
        E 0 90 60 60
        E 0 90 61 60
        E 120 80 18 00
        E 0 80 1f 00
        E 0 80 54 00
        E 0 80 56 00
        E 0 80 60 00
        E 0 80 61 00
        E 0 90 1e 60
        E 0 90 61 60
        E 120 80 1e 00
        E 0 80 61 00
        E 0 90 1b 60
        E 0 90 49 60
        E 0 90 4a 60
        E 0 90 55 60
        E 0 90 56 60
        E 0 90 62 60
        E 120 80 1b 00
        E 0 80 49 00
        E 0 80 4a 00
        E 0 80 55 00
        E 0 80 56 00
        E 0 80 62 00
        E 0 90 1e 60
        E 0 90 61 60
        E 120 80 1e 00
        E 0 80 61 00
        E 0 90 1f 60
        E 0 90 56 60
        E 0 90 61 60
        E 120 80 1f 00
        E 0 80 56 00
        E 0 80 61 00
        E 0 90 1e 60
        E 0 90 61 60
        E 120 80 1e 00
        E 0 80 61 00
        E 0 90 18 60
        E 0 90 1f 60
        E 0 90 3e 60
        E 0 90 48 60
        E 0 90 4a 60
        E 0 90 54 60
        E 0 90 56 60
        E 0 90 60 60
        E 0 90 61 60
        E 0 90 74 60
        E 120 80 18 00
        E 0 80 1f 00
        E 0 80 3e 00
        E 0 80 48 00
        E 0 80 4a 00
        E 0 80 54 00
        E 0 80 56 00
        E 0 80 60 00
        E 0 80 61 00
        E 0 90 1e 60
        E 0 90 61 60
        E 120 80 1e 00
        E 0 80 61 00
        E 0 90 1f 60
        E 0 90 56 60
        E 0 90 61 60
        E 120 80 1f 00
        E 0 80 56 00
        E 0 80 61 00
        E 0 90 1e 60
        E 0 90 61 60
        E 120 80 1e 00
        E 0 80 61 00
        E 0 90 1b 60
        E 0 90 49 60
        E 0 90 4a 60
        E 0 90 55 60
        E 0 90 56 60
        E 0 90 62 60
        E 120 80 1b 00
        E 0 80 49 00
        E 0 80 4a 00
        E 0 80 55 00
        E 0 80 56 00
        E 0 80 62 00
        E 0 90 1e 60
        E 0 90 61 60
        E 120 80 1e 00
        E 0 80 61 00
        E 0 90 1f 60
        E 0 90 56 60
        E 0 90 61 60
        E 120 80 1f 00
        E 0 80 56 00
        E 0 80 61 00
        E 0 90 1e 60
        E 0 90 61 60
        E 120 80 1e 00
        E 0 80 61 00
        E 0 90 1f 60
        E 0 90 3e 60
        E 0 90 4a 60
        E 0 90 56 60
        E 0 90 61 60
        E 120 80 1f 00
        E 0 80 3e 00
        E 0 80 4a 00
        E 0 80 56 00
        E 0 80 61 00
        E 0 90 1e 60
        E 0 90 61 60
        E 120 80 1e 00
        E 0 80 61 00
        E 0 90 18 60
        E 0 90 1f 60
        E 0 90 54 60
        E 0 90 56 60
        E 0 90 60 60
        E 0 90 61 60
        E 120 80 18 00
        E 0 80 1f 00
        E 0 80 54 00
        E 0 80 56 00
        E 0 80 60 00
        E 0 80 61 00
        E 0 90 1e 60
        E 0 90 61 60
        E 120 80 1e 00
        E 0 80 61 00
        E 0 90 1b 60
        E 0 90 49 60
        E 0 90 4a 60
        E 0 90 55 60
        E 0 90 56 60
        E 0 90 62 60
        E 120 80 1b 00
        E 0 80 49 00
        E 0 80 4a 00
        E 0 80 55 00
        E 0 80 56 00
        E 0 80 62 00
        E 0 90 1e 60
        E 0 90 61 60
        E 120 80 1e 00
        E 0 80 61 00
        E 0 90 1f 60
        E 0 90 56 60
        E 0 90 61 60
        E 120 80 1f 00
        E 0 80 56 00
        E 0 80 61 00
        E 0 90 1e 60
        E 0 90 61 60
        E 120 80 1e 00
        E 0 80 61 00
        E 0 90 18 60
        E 0 90 1f 60
        E 0 90 3e 60
        E 0 90 48 60
        E 0 90 4a 60
        E 0 90 54 60
        E 0 90 56 60
        E 0 90 60 60
        E 0 90 61 60
        E 120 80 18 00
        E 0 80 1f 00
        E 0 80 3e 00
        E 0 80 48 00
        E 0 80 4a 00
        E 0 80 54 00
        E 0 80 56 00
        E 0 80 60 00
        E 0 80 61 00
        E 0 90 1e 60
        E 0 90 61 60
        E 120 80 1e 00
        E 0 80 61 00
        E 0 90 1f 60
        E 0 90 56 60
        E 0 90 61 60
        E 120 80 1f 00
        E 0 80 56 00
        E 0 80 61 00
        E 0 90 1e 60
        E 0 90 61 60
        E 120 80 1e 00
        E 0 80 61 00
        E 0 90 1b 60
        E 0 90 49 60
        E 0 90 4a 60
        E 0 90 55 60
        E 0 90 56 60
        E 0 90 62 60
        E 120 80 1b 00
        E 0 80 49 00
        E 0 80 4a 00
        E 0 80 55 00
        E 0 80 56 00
        E 0 80 62 00
        E 0 90 1e 60
        E 0 90 61 60
        E 120 80 1e 00
        E 0 80 61 00
        E 0 90 1f 60
        E 0 90 56 60
        E 0 90 61 60
        E 120 80 1f 00
        E 0 80 56 00
        E 0 80 61 00
        E 0 90 1e 60
        E 0 90 61 60
        E 120 80 1e 00
        E 0 80 61 00
        E 0 90 1f 60
        E 0 90 3e 60
        E 0 90 4a 60
        E 0 90 56 60
        E 0 90 61 60
        E 120 80 1f 00
        E 0 80 3e 00
        E 0 80 4a 00
        E 0 80 56 00
        E 0 80 61 00
        E 0 90 1e 60
        E 0 90 61 60
        E 120 80 1e 00
        E 0 80 61 00
        E 0 90 18 60
        E 0 90 1f 60
        E 0 90 54 60
        E 0 90 56 60
        E 0 90 60 60
        E 0 90 61 60
        E 120 80 18 00
        E 0 80 1f 00
        E 0 80 54 00
        E 0 80 56 00
        E 0 80 60 00
        E 0 80 61 00
        E 0 90 1e 60
        E 0 90 61 60
        E 120 80 1e 00
        E 0 80 61 00
        E 0 90 1b 60
        E 0 90 49 60
        E 0 90 4a 60
        E 0 90 55 60
        E 0 90 56 60
        E 0 90 62 60
        E 120 80 1b 00
        E 0 80 49 00
        E 0 80 4a 00
        E 0 80 55 00
        E 0 80 56 00
        E 0 80 62 00
        E 0 90 1e 60
        E 0 90 61 60
        E 120 80 1e 00
        E 0 80 61 00
        E 0 90 1f 60
        E 0 90 56 60
        E 0 90 61 60
        E 120 80 1f 00
        E 0 80 56 00
        E 0 80 61 00
        E 0 90 1e 60
        E 0 90 61 60
        E 120 80 74 00
        E 0 80 1e 00
        E 0 80 61 00
        E 0 90 18 60
        E 0 90 1f 60
        E 0 90 3e 60
        E 0 90 48 60
        E 0 90 4a 60
        E 0 90 54 60
        E 0 90 56 60
        E 0 90 60 60
        E 0 90 61 60
        E 120 80 18 00
        E 0 80 1f 00
        E 0 80 3e 00
        E 0 80 48 00
        E 0 80 4a 00
        E 0 80 54 00
        E 0 80 56 00
        E 0 80 60 00
        E 0 80 61 00
        E 0 90 1e 60
        E 0 90 61 60
        E 120 80 1e 00
        E 0 80 61 00
        E 0 90 1f 60
        E 0 90 56 60
        E 0 90 61 60
        E 120 80 1f 00
        E 0 80 56 00
        E 0 80 61 00
        E 0 90 1e 60
        E 0 90 61 60
        E 120 80 1e 00
        E 0 80 61 00
        E 0 90 1b 60
        E 0 90 49 60
        E 0 90 4a 60
        E 0 90 55 60
        E 0 90 56 60
        E 0 90 62 60
        E 120 80 1b 00
        E 0 80 49 00
        E 0 80 4a 00
        E 0 80 55 00
        E 0 80 56 00
        E 0 80 62 00
        E 0 90 1e 60
        E 0 90 61 60
        E 120 80 1e 00
        E 0 80 61 00
        E 0 90 1f 60
        E 0 90 56 60
        E 0 90 61 60
        E 120 80 1f 00
        E 0 80 56 00
        E 0 80 61 00
        E 0 90 1e 60
        E 0 90 61 60
        E 120 80 1e 00
        E 0 80 61 00
        E 0 90 1f 60
        E 0 90 3e 60
        E 0 90 4a 60
        E 0 90 56 60
        E 0 90 61 60
        E 120 80 1f 00
        E 0 80 3e 00
        E 0 80 4a 00
        E 0 80 56 00
        E 0 80 61 00
        E 0 90 1e 60
        E 0 90 61 60
        E 120 80 1e 00
        E 0 80 61 00
        E 0 90 18 60
        E 0 90 1f 60
        E 0 90 54 60
        E 0 90 56 60
        E 0 90 60 60
        E 0 90 61 60
        E 120 80 18 00
        E 0 80 1f 00
        E 0 80 54 00
        E 0 80 56 00
        E 0 80 60 00
        E 0 80 61 00
        E 0 90 1e 60
        E 0 90 61 60
        E 120 80 1e 00
        E 0 80 61 00
        E 0 90 1b 60
        E 0 90 49 60
        E 0 90 4a 60
        E 0 90 55 60
        E 0 90 56 60
        E 0 90 62 60
        E 120 80 1b 00
        E 0 80 49 00
        E 0 80 4a 00
        E 0 80 55 00
        E 0 80 56 00
        E 0 80 62 00
        E 0 90 1e 60
        E 0 90 61 60
        E 120 80 1e 00
        E 0 80 61 00
        E 0 90 1f 60
        E 0 90 56 60
        E 0 90 61 60
        E 120 80 1f 00
        E 0 80 56 00
        E 0 80 61 00
        E 0 90 1e 60
        E 0 90 61 60
        E 120 80 1e 00
        E 0 80 61 00
        E 0 90 18 60
        E 0 90 1f 60
        E 0 90 3e 60
        E 0 90 48 60
        E 0 90 4a 60
        E 0 90 54 60
        E 0 90 56 60
        E 0 90 60 60
        E 0 90 61 60
        E 0 90 78 60
        E 0 90 79 60
        E 0 90 7a 60
        E 0 90 7b 60
        E 0 90 7c 60
        E 120 80 18 00
        E 0 80 1f 00
        E 0 80 3e 00
        E 0 80 48 00
        E 0 80 4a 00
        E 0 80 54 00
        E 0 80 56 00
        E 0 80 60 00
        E 0 80 61 00
        E 0 90 1e 60
        E 0 90 61 60
        E 120 80 1e 00
        E 0 80 61 00
        E 0 90 1f 60
        E 0 90 56 60
        E 0 90 61 60
        E 120 80 1f 00
        E 0 80 56 00
        E 0 80 61 00
        E 0 90 1e 60
        E 0 90 61 60
        E 120 80 1e 00
        E 0 80 61 00
        E 0 90 1b 60
        E 0 90 49 60
        E 0 90 4a 60
        E 0 90 55 60
        E 0 90 56 60
        E 0 90 62 60
        E 120 80 1b 00
        E 0 80 49 00
        E 0 80 4a 00
        E 0 80 55 00
        E 0 80 56 00
        E 0 80 62 00
        E 0 90 1e 60
        E 0 90 61 60
        E 120 80 1e 00
        E 0 80 61 00
        E 0 90 1f 60
        E 0 90 56 60
        E 0 90 61 60
        E 120 80 1f 00
        E 0 80 56 00
        E 0 80 61 00
        E 0 90 1e 60
        E 0 90 61 60
        E 120 80 1e 00
        E 0 80 61 00
        E 0 90 1f 60
        E 0 90 3e 60
        E 0 90 4a 60
        E 0 90 56 60
        E 0 90 61 60
        E 120 80 1f 00
        E 0 80 3e 00
        E 0 80 4a 00
        E 0 80 56 00
        E 0 80 61 00
        E 0 90 1e 60
        E 0 90 61 60
        E 120 80 1e 00
        E 0 80 61 00
        E 0 90 18 60
        E 0 90 1f 60
        E 0 90 54 60
        E 0 90 56 60
        E 0 90 60 60
        E 0 90 61 60
        E 120 80 18 00
        E 0 80 1f 00
        E 0 80 54 00
        E 0 80 56 00
        E 0 80 60 00
        E 0 80 61 00
        E 0 90 1e 60
        E 0 90 61 60
        E 120 80 1e 00
        E 0 80 61 00
        E 0 90 1b 60
        E 0 90 49 60
        E 0 90 4a 60
        E 0 90 55 60
        E 0 90 56 60
        E 0 90 62 60
        E 120 80 1b 00
        E 0 80 49 00
        E 0 80 4a 00
        E 0 80 55 00
        E 0 80 56 00
        E 0 80 62 00
        E 0 90 1e 60
        E 0 90 61 60
        E 120 80 1e 00
        E 0 80 61 00
        E 0 90 1f 60
        E 0 90 56 60
        E 0 90 61 60
        E 120 80 1f 00
        E 0 80 56 00
        E 0 80 61 00
        E 0 90 1e 60
        E 0 90 61 60
        E 120 80 78 00
        E 0 80 79 00
        E 0 80 7a 00
        E 0 80 7b 00
        E 0 80 7c 00
        E 0 80 1e 00
        E 0 80 61 00
        E 0 90 18 60
        E 0 90 25 60
        E 0 90 3f 60
        E 0 90 48 60
        E 0 90 4b 60
        E 0 90 54 60
        E 0 90 57 60
        E 0 90 60 60
        E 0 90 63 60
        E 120 80 18 00
        E 0 80 25 00
        E 0 80 3f 00
        E 0 80 48 00
        E 0 80 4b 00
        E 0 80 54 00
        E 0 80 57 00
        E 0 80 60 00
        E 0 80 63 00
        E 0 90 1e 60
        E 0 90 61 60
        E 120 80 1e 00
        E 0 80 61 00
        E 0 90 1f 60
        E 0 90 56 60
        E 0 90 61 60
        E 120 80 1f 00
        E 0 80 56 00
        E 0 80 61 00
        E 0 90 1e 60
        E 0 90 61 60
        E 120 80 1e 00
        E 0 80 61 00
        E 0 90 1b 60
        E 0 90 49 60
        E 0 90 4a 60
        E 0 90 55 60
        E 0 90 56 60
        E 0 90 62 60
        E 120 80 1b 00
        E 0 80 49 00
        E 0 80 4a 00
        E 0 80 55 00
        E 0 80 56 00
        E 0 80 62 00
        E 0 90 1e 60
        E 0 90 61 60
        E 120 80 1e 00
        E 0 80 61 00
        E 0 90 1f 60
        E 0 90 56 60
        E 0 90 61 60
        E 120 80 1f 00
        E 0 80 56 00
        E 0 80 61 00
        E 0 90 1e 60
        E 0 90 61 60
        E 120 80 1e 00
        E 0 80 61 00
        E 0 90 1f 60
        E 0 90 3e 60
        E 0 90 4a 60
        E 0 90 56 60
        E 0 90 61 60
        E 120 80 1f 00
        E 0 80 3e 00
        E 0 80 4a 00
        E 0 80 56 00
        E 0 80 61 00
        E 0 90 1e 60
        E 0 90 61 60
        E 120 80 1e 00
        E 0 80 61 00
        E 0 90 18 60
        E 0 90 1f 60
        E 0 90 54 60
        E 0 90 56 60
        E 0 90 60 60
        E 0 90 61 60
        E 120 80 18 00
        E 0 80 1f 00
        E 0 80 54 00
        E 0 80 56 00
        E 0 80 60 00
        E 0 80 61 00
        E 0 90 1e 60
        E 0 90 61 60
        E 120 80 1e 00
        E 0 80 61 00
        E 0 90 1b 60
        E 0 90 49 60
        E 0 90 4a 60
        E 0 90 55 60
        E 0 90 56 60
        E 0 90 62 60
        E 120 80 1b 00
        E 0 80 49 00
        E 0 80 4a 00
        E 0 80 55 00
        E 0 80 56 00
        E 0 80 62 00
        E 0 90 1e 60
        E 0 90 61 60
        E 120 80 1e 00
        E 0 80 61 00
        E 0 90 1f 60
        E 0 90 56 60
        E 0 90 61 60
        E 120 80 1f 00
        E 0 80 56 00
        E 0 80 61 00
        E 0 90 1e 60
        E 0 90 61 60
        E 120 80 1e 00
        E 0 80 61 00
        E 0 90 18 60
        E 0 90 1f 60
        E 0 90 3e 60
        E 0 90 48 60
        E 0 90 4a 60
        E 0 90 54 60
        E 0 90 56 60
        E 0 90 60 60
        E 0 90 61 60
        E 120 80 18 00
        E 0 80 1f 00
        E 0 80 3e 00
        E 0 80 48 00
        E 0 80 4a 00
        E 0 80 54 00
        E 0 80 56 00
        E 0 80 60 00
        E 0 80 61 00
        E 0 90 1e 60
        E 0 90 61 60
        E 120 80 1e 00
        E 0 80 61 00
        E 0 90 1f 60
        E 0 90 56 60
        E 0 90 61 60
        E 120 80 1f 00
        E 0 80 56 00
        E 0 80 61 00
        E 0 90 1e 60
        E 0 90 61 60
        E 120 80 1e 00
        E 0 80 61 00
        E 0 90 1b 60
        E 0 90 49 60
        E 0 90 4a 60
        E 0 90 55 60
        E 0 90 56 60
        E 0 90 62 60
        E 120 80 1b 00
        E 0 80 49 00
        E 0 80 4a 00
        E 0 80 55 00
        E 0 80 56 00
        E 0 80 62 00
        E 0 90 1e 60
        E 0 90 61 60
        E 120 80 1e 00
        E 0 80 61 00
        E 0 90 1f 60
        E 0 90 56 60
        E 0 90 61 60
        E 120 80 1f 00
        E 0 80 56 00
        E 0 80 61 00
        E 0 90 1e 60
        E 0 90 61 60
        E 120 80 1e 00
        E 0 80 61 00
        E 0 90 1f 60
        E 0 90 3e 60
        E 0 90 4a 60
        E 0 90 56 60
        E 0 90 61 60
        E 120 80 1f 00
        E 0 80 3e 00
        E 0 80 4a 00
        E 0 80 56 00
        E 0 80 61 00
        E 0 90 1e 60
        E 0 90 61 60
        E 120 80 1e 00
        E 0 80 61 00
        E 0 90 18 60
        E 0 90 1f 60
        E 0 90 54 60
        E 0 90 56 60
        E 0 90 60 60
        E 0 90 61 60
        E 120 80 18 00
        E 0 80 1f 00
        E 0 80 54 00
        E 0 80 56 00
        E 0 80 60 00
        E 0 80 61 00
        E 0 90 1e 60
        E 0 90 61 60
        E 120 80 1e 00
        E 0 80 61 00
        E 0 90 1b 60
        E 0 90 49 60
        E 0 90 4a 60
        E 0 90 55 60
        E 0 90 56 60
        E 0 90 62 60
        E 120 80 1b 00
        E 0 80 49 00
        E 0 80 4a 00
        E 0 80 55 00
        E 0 80 56 00
        E 0 80 62 00
        E 0 90 1e 60
        E 0 90 61 60
        E 120 80 1e 00
        E 0 80 61 00
        E 0 90 1f 60
        E 0 90 56 60
        E 0 90 61 60
        E 120 80 1f 00
        E 0 80 56 00
        E 0 80 61 00
        E 0 90 1e 60
        E 0 90 61 60
        E 120 80 1e 00
        E 0 80 61 00
        E 0 90 18 60
        E 0 90 1f 60
        E 0 90 3e 60
        E 0 90 48 60
        E 0 90 4a 60
        E 0 90 54 60
        E 0 90 56 60
        E 0 90 60 60
        E 0 90 61 60
        E 120 80 18 00
        E 0 80 1f 00
        E 0 80 3e 00
        E 0 80 48 00
        E 0 80 4a 00
        E 0 80 54 00
        E 0 80 56 00
        E 0 80 60 00
        E 0 80 61 00
        E 0 90 1e 60
        E 0 90 61 60
        E 120 80 1e 00
        E 0 80 61 00
        E 0 90 1f 60
        E 0 90 56 60
        E 0 90 61 60
        E 120 80 1f 00
        E 0 80 56 00
        E 0 80 61 00
        E 0 90 1e 60
        E 0 90 61 60
        E 120 80 1e 00
        E 0 80 61 00
        E 0 90 1b 60
        E 0 90 49 60
        E 0 90 4a 60
        E 0 90 55 60
        E 0 90 56 60
        E 0 90 62 60
        E 120 80 1b 00
        E 0 80 49 00
        E 0 80 4a 00
        E 0 80 55 00
        E 0 80 56 00
        E 0 80 62 00
        E 0 90 1e 60
        E 0 90 61 60
        E 120 80 1e 00
        E 0 80 61 00
        E 0 90 1f 60
        E 0 90 56 60
        E 0 90 61 60
        E 120 80 1f 00
        E 0 80 56 00
        E 0 80 61 00
        E 0 90 1e 60
        E 0 90 61 60
        E 120 80 1e 00
        E 0 80 61 00
        E 0 90 1f 60
        E 0 90 3e 60
        E 0 90 4a 60
        E 0 90 56 60
        E 0 90 61 60
        E 120 80 1f 00
        E 0 80 3e 00
        E 0 80 4a 00
        E 0 80 56 00
        E 0 80 61 00
        E 0 90 1e 60
        E 0 90 61 60
        E 120 80 1e 00
        E 0 80 61 00
        E 0 90 18 60
        E 0 90 1f 60
        E 0 90 54 60
        E 0 90 56 60
        E 0 90 60 60
        E 0 90 61 60
        E 120 80 18 00
        E 0 80 1f 00
        E 0 80 54 00
        E 0 80 56 00
        E 0 80 60 00
        E 0 80 61 00
        E 0 90 1e 60
        E 0 90 61 60
        E 120 80 1e 00
        E 0 80 61 00
        E 0 90 1b 60
        E 0 90 49 60
        E 0 90 4a 60
        E 0 90 55 60
        E 0 90 56 60
        E 0 90 62 60
        E 120 80 1b 00
        E 0 80 49 00
        E 0 80 4a 00
        E 0 80 55 00
        E 0 80 56 00
        E 0 80 62 00
        E 0 90 1e 60
        E 0 90 61 60
        E 120 80 1e 00
        E 0 80 61 00
        E 0 90 1f 60
        E 0 90 56 60
        E 0 90 61 60
        E 120 80 1f 00
        E 0 80 56 00
        E 0 80 61 00
        E 0 90 1e 60
        E 0 90 61 60
        E 120 80 1e 00
        E 0 80 61 00
        E 0 90 18 60
        E 0 90 1f 60
        E 0 90 3e 60
        E 0 90 48 60
        E 0 90 4a 60
        E 0 90 54 60
        E 0 90 56 60
        E 0 90 60 60
        E 0 90 61 60
        E 120 80 18 00
        E 0 80 1f 00
        E 0 80 3e 00
        E 0 80 48 00
        E 0 80 4a 00
        E 0 80 54 00
        E 0 80 56 00
        E 0 80 60 00
        E 0 80 61 00
        E 0 90 1e 60
        E 0 90 61 60
        E 120 80 1e 00
        E 0 80 61 00
        E 0 90 1f 60
        E 0 90 56 60
        E 0 90 61 60
        E 120 80 1f 00
        E 0 80 56 00
        E 0 80 61 00
        E 0 90 1e 60
        E 0 90 61 60
        E 120 80 1e 00
        E 0 80 61 00
        E 0 90 1b 60
        E 0 90 49 60
        E 0 90 4a 60
        E 0 90 55 60
        E 0 90 56 60
        E 0 90 62 60
        E 120 80 1b 00
        E 0 80 49 00
        E 0 80 4a 00
        E 0 80 55 00
        E 0 80 56 00
        E 0 80 62 00
        E 0 90 1e 60
        E 0 90 61 60
        E 120 80 1e 00
        E 0 80 61 00
        E 0 90 1f 60
        E 0 90 56 60
        E 0 90 61 60
        E 120 80 1f 00
        E 0 80 56 00
        E 0 80 61 00
        E 0 90 1e 60
        E 0 90 61 60
        E 120 80 1e 00
        E 0 80 61 00
        E 0 90 1f 60
        E 0 90 3e 60
        E 0 90 4a 60
        E 0 90 56 60
        E 0 90 61 60
        E 120 80 1f 00
        E 0 80 3e 00
        E 0 80 4a 00
        E 0 80 56 00
        E 0 80 61 00
        E 0 90 1e 60
        E 0 90 61 60
        E 120 80 1e 00
        E 0 80 61 00
        E 0 90 18 60
        E 0 90 1f 60
        E 0 90 54 60
        E 0 90 56 60
        E 0 90 60 60
        E 0 90 61 60
        E 120 80 18 00
        E 0 80 1f 00
        E 0 80 54 00
        E 0 80 56 00
        E 0 80 60 00
        E 0 80 61 00
        E 0 90 1e 60
        E 0 90 61 60
        E 120 80 1e 00
        E 0 80 61 00
        E 0 90 1b 60
        E 0 90 49 60
        E 0 90 4a 60
        E 0 90 55 60
        E 0 90 56 60
        E 0 90 62 60
        E 120 80 1b 00
        E 0 80 49 00
        E 0 80 4a 00
        E 0 80 55 00
        E 0 80 56 00
        E 0 80 62 00
        E 0 90 1e 60
        E 0 90 61 60
        E 120 80 1e 00
        E 0 80 61 00
        E 0 90 1f 60
        E 0 90 56 60
        E 0 90 61 60
        E 120 80 1f 00
        E 0 80 56 00
        E 0 80 61 00
        E 0 90 1e 60
        E 0 90 61 60
        E 120 80 1e 00
        E 0 80 61 00
        E 0 90 18 60
        E 0 90 1f 60
        E 0 90 3e 60
        E 0 90 48 60
        E 0 90 4a 60
        E 0 90 54 60
        E 0 90 56 60
        E 0 90 60 60
        E 0 90 61 60
        E 120 80 18 00
        E 0 80 1f 00
        E 0 80 3e 00
        E 0 80 48 00
        E 0 80 4a 00
        E 0 80 54 00
        E 0 80 56 00
        E 0 80 60 00
        E 0 80 61 00
        E 0 90 1e 60
        E 0 90 61 60
        E 120 80 1e 00
        E 0 80 61 00
        E 0 90 1f 60
        E 0 90 56 60
        E 0 90 61 60
        E 120 80 1f 00
        E 0 80 56 00
        E 0 80 61 00
        E 0 90 1e 60
        E 0 90 61 60
        E 120 80 1e 00
        E 0 80 61 00
        E 0 90 1b 60
        E 0 90 49 60
        E 0 90 4a 60
        E 0 90 55 60
        E 0 90 56 60
        E 0 90 62 60
        E 120 80 1b 00
        E 0 80 49 00
        E 0 80 4a 00
        E 0 80 55 00
        E 0 80 56 00
        E 0 80 62 00
        E 0 90 1e 60
        E 0 90 61 60
        E 120 80 1e 00
        E 0 80 61 00
        E 0 90 1f 60
        E 0 90 56 60
        E 0 90 61 60
        E 120 80 1f 00
        E 0 80 56 00
        E 0 80 61 00
        E 0 90 1e 60
        E 0 90 61 60
        E 120 80 1e 00
        E 0 80 61 00
        E 0 90 1f 60
        E 0 90 3e 60
        E 0 90 4a 60
        E 0 90 56 60
        E 0 90 61 60
        E 120 80 1f 00
        E 0 80 3e 00
        E 0 80 4a 00
        E 0 80 56 00
        E 0 80 61 00
        E 0 90 1e 60
        E 0 90 61 60
        E 120 80 1e 00
        E 0 80 61 00
        E 0 90 18 60
        E 0 90 1f 60
        E 0 90 54 60
        E 0 90 56 60
        E 0 90 60 60
        E 0 90 61 60
        E 120 80 18 00
        E 0 80 1f 00
        E 0 80 54 00
        E 0 80 56 00
        E 0 80 60 00
        E 0 80 61 00
        E 0 90 1e 60
        E 0 90 61 60
        E 120 80 1e 00
        E 0 80 61 00
        E 0 90 1b 60
        E 0 90 49 60
        E 0 90 4a 60
        E 0 90 55 60
        E 0 90 56 60
        E 0 90 62 60
        E 120 80 1b 00
        E 0 80 49 00
        E 0 80 4a 00
        E 0 80 55 00
        E 0 80 56 00
        E 0 80 62 00
        E 0 90 1e 60
        E 0 90 61 60
        E 120 80 1e 00
        E 0 80 61 00
        E 0 90 1f 60
        E 0 90 56 60
        E 0 90 61 60
        E 120 80 1f 00
        E 0 80 56 00
        E 0 80 61 00
        E 0 90 1e 60
        E 0 90 61 60
        E 120 80 1e 00
        E 0 80 61 00
        E 0 90 18 60
        E 0 90 1f 60
        E 0 90 3e 60
        E 0 90 48 60
        E 0 90 4a 60
        E 0 90 54 60
        E 0 90 56 60
        E 0 90 60 60
        E 0 90 61 60
        E 120 80 18 00
        E 0 80 1f 00
        E 0 80 3e 00
        E 0 80 48 00
        E 0 80 4a 00
        E 0 80 54 00
        E 0 80 56 00
        E 0 80 60 00
        E 0 80 61 00
        E 0 90 1e 60
        E 0 90 61 60
        E 120 80 1e 00
        E 0 80 61 00
        E 0 90 1f 60
        E 0 90 56 60
        E 0 90 61 60
        E 120 80 1f 00
        E 0 80 56 00
        E 0 80 61 00
        E 0 90 1e 60
        E 0 90 61 60
        E 120 80 1e 00
        E 0 80 61 00
        E 0 90 1b 60
        E 0 90 49 60
        E 0 90 4a 60
        E 0 90 55 60
        E 0 90 56 60
        E 0 90 62 60
        E 120 80 1b 00
        E 0 80 49 00
        E 0 80 4a 00
        E 0 80 55 00
        E 0 80 56 00
        E 0 80 62 00
        E 0 90 1e 60
        E 0 90 61 60
        E 120 80 1e 00
        E 0 80 61 00
        E 0 90 1f 60
        E 0 90 56 60
        E 0 90 61 60
        E 120 80 1f 00
        E 0 80 56 00
        E 0 80 61 00
        E 0 90 1e 60
        E 0 90 61 60
        E 120 80 1e 00
        E 0 80 61 00
        E 0 90 1f 60
        E 0 90 3e 60
        E 0 90 4a 60
        E 0 90 56 60
        E 0 90 61 60
        E 120 80 1f 00
        E 0 80 3e 00
        E 0 80 4a 00
        E 0 80 56 00
        E 0 80 61 00
        E 0 90 1e 60
        E 0 90 61 60
        E 120 80 1e 00
        E 0 80 61 00
        E 0 90 18 60
        E 0 90 1f 60
        E 0 90 54 60
        E 0 90 56 60
        E 0 90 60 60
        E 0 90 61 60
        E 120 80 18 00
        E 0 80 1f 00
        E 0 80 54 00
        E 0 80 56 00
        E 0 80 60 00
        E 0 80 61 00
        E 0 90 1e 60
        E 0 90 61 60
        E 120 80 1e 00
        E 0 80 61 00
        E 0 90 1b 60
        E 0 90 49 60
        E 0 90 4a 60
        E 0 90 55 60
        E 0 90 56 60
        E 0 90 62 60
        E 120 80 1b 00
        E 0 80 49 00
        E 0 80 4a 00
        E 0 80 55 00
        E 0 80 56 00
        E 0 80 62 00
        E 0 90 1e 60
        E 0 90 61 60
        E 120 80 1e 00
        E 0 80 61 00
        E 0 90 1f 60
        E 0 90 56 60
        E 0 90 61 60
        E 120 80 1f 00
        E 0 80 56 00
        E 0 80 61 00
        E 0 90 1e 60
        E 0 90 61 60
        E 120 80 1e 00
        E 0 80 61 00
        E 0 90 18 60
        E 0 90 1f 60
        E 0 90 3e 60
        E 0 90 48 60
        E 0 90 4a 60
        E 0 90 54 60
        E 0 90 56 60
        E 0 90 60 60
        E 0 90 61 60
        E 120 80 18 00
        E 0 80 1f 00
        E 0 80 3e 00
        E 0 80 48 00
        E 0 80 4a 00
        E 0 80 54 00
        E 0 80 56 00
        E 0 80 60 00
        E 0 80 61 00
        E 0 90 1e 60
        E 0 90 61 60
        E 120 80 1e 00
        E 0 80 61 00
        E 0 90 1f 60
        E 0 90 56 60
        E 0 90 61 60
        E 120 80 1f 00
        E 0 80 56 00
        E 0 80 61 00
        E 0 90 1e 60
        E 0 90 61 60
        E 120 80 1e 00
        E 0 80 61 00
        E 0 90 1b 60
        E 0 90 49 60
        E 0 90 4a 60
        E 0 90 55 60
        E 0 90 56 60
        E 0 90 62 60
        E 120 80 1b 00
        E 0 80 49 00
        E 0 80 4a 00
        E 0 80 55 00
        E 0 80 56 00
        E 0 80 62 00
        E 0 90 1e 60
        E 0 90 61 60
        E 120 80 1e 00
        E 0 80 61 00
        E 0 90 1f 60
        E 0 90 56 60
        E 0 90 61 60
        E 120 80 1f 00
        E 0 80 56 00
        E 0 80 61 00
        E 0 90 1e 60
        E 0 90 61 60
        E 120 80 1e 00
        E 0 80 61 00
        E 0 90 1f 60
        E 0 90 3e 60
        E 0 90 4a 60
        E 0 90 56 60
        E 0 90 61 60
        E 120 80 1f 00
        E 0 80 3e 00
        E 0 80 4a 00
        E 0 80 56 00
        E 0 80 61 00
        E 0 90 1e 60
        E 0 90 61 60
        E 120 80 1e 00
        E 0 80 61 00
        E 0 90 18 60
        E 0 90 1f 60
        E 0 90 54 60
        E 0 90 56 60
        E 0 90 60 60
        E 0 90 61 60
        E 120 80 18 00
        E 0 80 1f 00
        E 0 80 54 00
        E 0 80 56 00
        E 0 80 60 00
        E 0 80 61 00
        E 0 90 1e 60
        E 0 90 61 60
        E 120 80 1e 00
        E 0 80 61 00
        E 0 90 1b 60
        E 0 90 49 60
        E 0 90 4a 60
        E 0 90 55 60
        E 0 90 56 60
        E 0 90 62 60
        E 120 80 1b 00
        E 0 80 49 00
        E 0 80 4a 00
        E 0 80 55 00
        E 0 80 56 00
        E 0 80 62 00
        E 0 90 1e 60
        E 0 90 61 60
        E 120 80 1e 00
        E 0 80 61 00
        E 0 90 1f 60
        E 0 90 56 60
        E 0 90 61 60
        E 120 80 1f 00
        E 0 80 56 00
        E 0 80 61 00
        E 0 90 1e 60
        E 0 90 61 60
        E 120 80 1e 00
        E 0 80 61 00
        E 0 90 18 60
        E 0 90 1f 60
        E 0 90 3e 60
        E 0 90 48 60
        E 0 90 4a 60
        E 0 90 54 60
        E 0 90 56 60
        E 0 90 60 60
        E 0 90 61 60
        E 0 90 78 60
        E 0 90 79 60
        E 0 90 7a 60
        E 0 90 7b 60
        E 0 90 7c 60
        E 120 80 18 00
        E 0 80 1f 00
        E 0 80 3e 00
        E 0 80 48 00
        E 0 80 4a 00
        E 0 80 54 00
        E 0 80 56 00
        E 0 80 60 00
        E 0 80 61 00
        E 0 90 1e 60
        E 0 90 61 60
        E 120 80 1e 00
        E 0 80 61 00
        E 0 90 1f 60
        E 0 90 56 60
        E 0 90 61 60
        E 120 80 1f 00
        E 0 80 56 00
        E 0 80 61 00
        E 0 90 1e 60
        E 0 90 61 60
        E 120 80 1e 00
        E 0 80 61 00
        E 0 90 1b 60
        E 0 90 49 60
        E 0 90 4a 60
        E 0 90 55 60
        E 0 90 56 60
        E 0 90 62 60
        E 120 80 1b 00
        E 0 80 49 00
        E 0 80 4a 00
        E 0 80 55 00
        E 0 80 56 00
        E 0 80 62 00
        E 0 90 1e 60
        E 0 90 61 60
        E 120 80 1e 00
        E 0 80 61 00
        E 0 90 1f 60
        E 0 90 56 60
        E 0 90 61 60
        E 120 80 1f 00
        E 0 80 56 00
        E 0 80 61 00
        E 0 90 1e 60
        E 0 90 61 60
        E 120 80 1e 00
        E 0 80 61 00
        E 0 90 1f 60
        E 0 90 3e 60
        E 0 90 4a 60
        E 0 90 56 60
        E 0 90 61 60
        E 120 80 1f 00
        E 0 80 3e 00
        E 0 80 4a 00
        E 0 80 56 00
        E 0 80 61 00
        E 0 90 1e 60
        E 0 90 61 60
        E 120 80 1e 00
        E 0 80 61 00
        E 0 90 18 60
        E 0 90 1f 60
        E 0 90 54 60
        E 0 90 56 60
        E 0 90 60 60
        E 0 90 61 60
        E 120 80 18 00
        E 0 80 1f 00
        E 0 80 54 00
        E 0 80 56 00
        E 0 80 60 00
        E 0 80 61 00
        E 0 90 1e 60
        E 0 90 61 60
        E 120 80 1e 00
        E 0 80 61 00
        E 0 90 1b 60
        E 0 90 49 60
        E 0 90 4a 60
        E 0 90 55 60
        E 0 90 56 60
        E 0 90 62 60
        E 120 80 1b 00
        E 0 80 49 00
        E 0 80 4a 00
        E 0 80 55 00
        E 0 80 56 00
        E 0 80 62 00
        E 0 90 1e 60
        E 0 90 61 60
        E 120 80 1e 00
        E 0 80 61 00
        E 0 90 1f 60
        E 0 90 56 60
        E 0 90 61 60
        E 120 80 1f 00
        E 0 80 56 00
        E 0 80 61 00
        E 0 90 1e 60
        E 0 90 61 60
        E 120 80 78 00
        E 0 80 79 00
        E 0 80 7a 00
        E 0 80 7b 00
        E 0 80 7c 00
        E 0 80 1e 00
        E 0 80 61 00
        E 0 90 18 60
        E 0 90 24 60
        E 0 90 3f 60
        E 0 90 48 60
        E 0 90 4b 60
        E 0 90 54 60
        E 0 90 57 60
        E 0 90 60 60
        E 0 90 63 60
        E 120 80 18 00
        E 0 80 24 00
        E 0 80 3f 00
        E 0 80 48 00
        E 0 80 4b 00
        E 0 80 54 00
        E 0 80 57 00
        E 0 80 60 00
        E 0 80 63 00
        E 0 90 1e 60
        E 0 90 61 60
        E 120 80 1e 00
        E 0 80 61 00
        E 0 90 1f 60
        E 0 90 56 60
        E 0 90 61 60
        E 120 80 1f 00
        E 0 80 56 00
        E 0 80 61 00
        E 0 90 1e 60
        E 0 90 61 60
        E 120 80 1e 00
        E 0 80 61 00
        E 0 90 1b 60
        E 0 90 49 60
        E 0 90 4a 60
        E 0 90 55 60
        E 0 90 56 60
        E 0 90 62 60
        E 120 80 1b 00
        E 0 80 49 00
        E 0 80 4a 00
        E 0 80 55 00
        E 0 80 56 00
        E 0 80 62 00
        E 0 90 1e 60
        E 0 90 61 60
        E 120 80 1e 00
        E 0 80 61 00
        E 0 90 1f 60
        E 0 90 56 60
        E 0 90 61 60
        E 120 80 1f 00
        E 0 80 56 00
        E 0 80 61 00
        E 0 90 1e 60
        E 0 90 61 60
        E 120 80 1e 00
        E 0 80 61 00
        E 0 90 1f 60
        E 0 90 3e 60
        E 0 90 4a 60
        E 0 90 56 60
        E 0 90 61 60
        E 120 80 1f 00
        E 0 80 3e 00
        E 0 80 4a 00
        E 0 80 56 00
        E 0 80 61 00
        E 0 90 1e 60
        E 0 90 61 60
        E 120 80 1e 00
        E 0 80 61 00
        E 0 90 18 60
        E 0 90 1f 60
        E 0 90 54 60
        E 0 90 56 60
        E 0 90 60 60
        E 0 90 61 60
        E 120 80 18 00
        E 0 80 1f 00
        E 0 80 54 00
        E 0 80 56 00
        E 0 80 60 00
        E 0 80 61 00
        E 0 90 1e 60
        E 0 90 61 60
        E 120 80 1e 00
        E 0 80 61 00
        E 0 90 1b 60
        E 0 90 49 60
        E 0 90 4a 60
        E 0 90 55 60
        E 0 90 56 60
        E 0 90 62 60
        E 120 80 1b 00
        E 0 80 49 00
        E 0 80 4a 00
        E 0 80 55 00
        E 0 80 56 00
        E 0 80 62 00
        E 0 90 1e 60
        E 0 90 61 60
        E 120 80 1e 00
        E 0 80 61 00
        E 0 90 1f 60
        E 0 90 56 60
        E 0 90 61 60
        E 120 80 1f 00
        E 0 80 56 00
        E 0 80 61 00
        E 0 90 1e 60
        E 0 90 61 60
        E 120 80 1e 00
        E 0 80 61 00
        E 0 90 18 60
        E 0 90 1f 60
        E 0 90 3e 60
        E 0 90 48 60
        E 0 90 4a 60
        E 0 90 54 60
        E 0 90 56 60
        E 0 90 60 60
        E 0 90 61 60
        E 120 80 18 00
        E 0 80 1f 00
        E 0 80 3e 00
        E 0 80 48 00
        E 0 80 4a 00
        E 0 80 54 00
        E 0 80 56 00
        E 0 80 60 00
        E 0 80 61 00
        E 0 90 1e 60
        E 0 90 61 60
        E 120 80 1e 00
        E 0 80 61 00
        E 0 90 1f 60
        E 0 90 56 60
        E 0 90 61 60
        E 120 80 1f 00
        E 0 80 56 00
        E 0 80 61 00
        E 0 90 1e 60
        E 0 90 61 60
        E 120 80 1e 00
        E 0 80 61 00
        E 0 90 1b 60
        E 0 90 49 60
        E 0 90 4a 60
        E 0 90 55 60
        E 0 90 56 60
        E 0 90 62 60
        E 120 80 1b 00
        E 0 80 49 00
        E 0 80 4a 00
        E 0 80 55 00
        E 0 80 56 00
        E 0 80 62 00
        E 0 90 1e 60
        E 0 90 61 60
        E 120 80 1e 00
        E 0 80 61 00
        E 0 90 1f 60
        E 0 90 56 60
        E 0 90 61 60
        E 120 80 1f 00
        E 0 80 56 00
        E 0 80 61 00
        E 0 90 1e 60
        E 0 90 61 60
        E 120 80 1e 00
        E 0 80 61 00
        E 0 90 1f 60
        E 0 90 3e 60
        E 0 90 4a 60
        E 0 90 56 60
        E 0 90 61 60
        E 120 80 1f 00
        E 0 80 3e 00
        E 0 80 4a 00
        E 0 80 56 00
        E 0 80 61 00
        E 0 90 1e 60
        E 0 90 61 60
        E 120 80 1e 00
        E 0 80 61 00
        E 0 90 18 60
        E 0 90 1f 60
        E 0 90 54 60
        E 0 90 56 60
        E 0 90 60 60
        E 0 90 61 60
        E 120 80 18 00
        E 0 80 1f 00
        E 0 80 54 00
        E 0 80 56 00
        E 0 80 60 00
        E 0 80 61 00
        E 0 90 1e 60
        E 0 90 61 60
        E 120 80 1e 00
        E 0 80 61 00
        E 0 90 1b 60
        E 0 90 49 60
        E 0 90 4a 60
        E 0 90 55 60
        E 0 90 56 60
        E 0 90 62 60
        E 120 80 1b 00
        E 0 80 49 00
        E 0 80 4a 00
        E 0 80 55 00
        E 0 80 56 00
        E 0 80 62 00
        E 0 90 1e 60
        E 0 90 61 60
        E 120 80 1e 00
        E 0 80 61 00
        E 0 90 1f 60
        E 0 90 56 60
        E 0 90 61 60
        E 120 80 1f 00
        E 0 80 56 00
        E 0 80 61 00
        E 0 90 1e 60
        E 0 90 61 60
        E 120 80 1e 00
        E 0 80 61 00
        E 0 90 18 60
        E 0 90 1f 60
        E 0 90 3e 60
        E 0 90 48 60
        E 0 90 4a 60
        E 0 90 54 60
        E 0 90 56 60
        E 0 90 60 60
        E 0 90 61 60
        E 0 90 74 60
        E 120 80 18 00
        E 0 80 1f 00
        E 0 80 3e 00
        E 0 80 48 00
        E 0 80 4a 00
        E 0 80 54 00
        E 0 80 56 00
        E 0 80 60 00
        E 0 80 61 00
        E 0 90 1e 60
        E 0 90 61 60
        E 120 80 1e 00
        E 0 80 61 00
        E 0 90 1f 60
        E 0 90 56 60
        E 0 90 61 60
        E 120 80 1f 00
        E 0 80 56 00
        E 0 80 61 00
        E 0 90 1e 60
        E 0 90 61 60
        E 120 80 1e 00
        E 0 80 61 00
        E 0 90 1b 60
        E 0 90 49 60
        E 0 90 4a 60
        E 0 90 55 60
        E 0 90 56 60
        E 0 90 62 60
        E 120 80 1b 00
        E 0 80 49 00
        E 0 80 4a 00
        E 0 80 55 00
        E 0 80 56 00
        E 0 80 62 00
        E 0 90 1e 60
        E 0 90 61 60
        E 120 80 1e 00
        E 0 80 61 00
        E 0 90 1f 60
        E 0 90 56 60
        E 0 90 61 60
        E 120 80 1f 00
        E 0 80 56 00
        E 0 80 61 00
        E 0 90 1e 60
        E 0 90 61 60
        E 120 80 1e 00
        E 0 80 61 00
        E 0 90 1f 60
        E 0 90 3e 60
        E 0 90 4a 60
        E 0 90 56 60
        E 0 90 61 60
        E 120 80 1f 00
        E 0 80 3e 00
        E 0 80 4a 00
        E 0 80 56 00
        E 0 80 61 00
        E 0 90 1e 60
        E 0 90 61 60
        E 120 80 1e 00
        E 0 80 61 00
        E 0 90 18 60
        E 0 90 1f 60
        E 0 90 54 60
        E 0 90 56 60
        E 0 90 60 60
        E 0 90 61 60
        E 120 80 18 00
        E 0 80 1f 00
        E 0 80 54 00
        E 0 80 56 00
        E 0 80 60 00
        E 0 80 61 00
        E 0 90 1e 60
        E 0 90 61 60
        E 120 80 1e 00
        E 0 80 61 00
        E 0 90 1b 60
        E 0 90 49 60
        E 0 90 4a 60
        E 0 90 55 60
        E 0 90 56 60
        E 0 90 62 60
        E 120 80 1b 00
        E 0 80 49 00
        E 0 80 4a 00
        E 0 80 55 00
        E 0 80 56 00
        E 0 80 62 00
        E 0 90 1e 60
        E 0 90 61 60
        E 120 80 1e 00
        E 0 80 61 00
        E 0 90 1f 60
        E 0 90 56 60
        E 0 90 61 60
        E 120 80 1f 00
        E 0 80 56 00
        E 0 80 61 00
        E 0 90 1e 60
        E 0 90 61 60
        E 120 80 74 00
        E 0 80 1e 00
        E 0 80 61 00
        E 0 90 18 60
        E 0 90 1f 60
        E 0 90 3e 60
        E 0 90 48 60
        E 0 90 4a 60
        E 0 90 54 60
        E 0 90 56 60
        E 0 90 60 60
        E 0 90 61 60
        E 120 80 18 00
        E 0 80 1f 00
        E 0 80 3e 00
        E 0 80 48 00
        E 0 80 4a 00
        E 0 80 54 00
        E 0 80 56 00
        E 0 80 60 00
        E 0 80 61 00
        E 0 90 1e 60
        E 0 90 61 60
        E 120 80 1e 00
        E 0 80 61 00
        E 0 90 1f 60
        E 0 90 56 60
        E 0 90 61 60
        E 120 80 1f 00
        E 0 80 56 00
        E 0 80 61 00
        E 0 90 1e 60
        E 0 90 61 60
        E 120 80 1e 00
        E 0 80 61 00
        E 0 90 1b 60
        E 0 90 49 60
        E 0 90 4a 60
        E 0 90 55 60
        E 0 90 56 60
        E 0 90 62 60
        E 120 80 1b 00
        E 0 80 49 00
        E 0 80 4a 00
        E 0 80 55 00
        E 0 80 56 00
        E 0 80 62 00
        E 0 90 1e 60
        E 0 90 61 60
        E 120 80 1e 00
        E 0 80 61 00
        E 0 90 1f 60
        E 0 90 56 60
        E 0 90 61 60
        E 120 80 1f 00
        E 0 80 56 00
        E 0 80 61 00
        E 0 90 1e 60
        E 0 90 61 60
        E 120 80 1e 00
        E 0 80 61 00
        E 0 90 1f 60
        E 0 90 3e 60
        E 0 90 4a 60
        E 0 90 56 60
        E 0 90 61 60
        E 120 80 1f 00
        E 0 80 3e 00
        E 0 80 4a 00
        E 0 80 56 00
        E 0 80 61 00
        E 0 90 1e 60
        E 0 90 61 60
        E 120 80 1e 00
        E 0 80 61 00
        E 0 90 18 60
        E 0 90 1f 60
        E 0 90 54 60
        E 0 90 56 60
        E 0 90 60 60
        E 0 90 61 60
        E 120 80 18 00
        E 0 80 1f 00
        E 0 80 54 00
        E 0 80 56 00
        E 0 80 60 00
        E 0 80 61 00
        E 0 90 1e 60
        E 0 90 61 60
        E 120 80 1e 00
        E 0 80 61 00
        E 0 90 1b 60
        E 0 90 49 60
        E 0 90 4a 60
        E 0 90 55 60
        E 0 90 56 60
        E 0 90 62 60
        E 120 80 1b 00
        E 0 80 49 00
        E 0 80 4a 00
        E 0 80 55 00
        E 0 80 56 00
        E 0 80 62 00
        E 0 90 1e 60
        E 0 90 61 60
        E 120 80 1e 00
        E 0 80 61 00
        E 0 90 1f 60
        E 0 90 56 60
        E 0 90 61 60
        E 120 80 1f 00
        E 0 80 56 00
        E 0 80 61 00
        E 0 90 1e 60
        E 0 90 61 60
        E 120 80 1e 00
        E 0 80 61 00
        E 0 90 18 60
        E 0 90 1f 60
        E 0 90 3e 60
        E 0 90 48 60
        E 0 90 4a 60
        E 0 90 54 60
        E 0 90 56 60
        E 0 90 60 60
        E 0 90 61 60
        E 120 80 18 00
        E 0 80 1f 00
        E 0 80 3e 00
        E 0 80 48 00
        E 0 80 4a 00
        E 0 80 54 00
        E 0 80 56 00
        E 0 80 60 00
        E 0 80 61 00
        E 0 90 1e 60
        E 0 90 61 60
        E 120 80 1e 00
        E 0 80 61 00
        E 0 90 1f 60
        E 0 90 56 60
        E 0 90 61 60
        E 120 80 1f 00
        E 0 80 56 00
        E 0 80 61 00
        E 0 90 1e 60
        E 0 90 61 60
        E 120 80 1e 00
        E 0 80 61 00
        E 0 90 1b 60
        E 0 90 49 60
        E 0 90 4a 60
        E 0 90 55 60
        E 0 90 56 60
        E 0 90 62 60
        E 120 80 1b 00
        E 0 80 49 00
        E 0 80 4a 00
        E 0 80 55 00
        E 0 80 56 00
        E 0 80 62 00
        E 0 90 1e 60
        E 0 90 61 60
        E 120 80 1e 00
        E 0 80 61 00
        E 0 90 1f 60
        E 0 90 56 60
        E 0 90 61 60
        E 120 80 1f 00
        E 0 80 56 00
        E 0 80 61 00
        E 0 90 1e 60
        E 0 90 61 60
        E 120 80 1e 00
        E 0 80 61 00
        E 0 90 1f 60
        E 0 90 3e 60
        E 0 90 4a 60
        E 0 90 56 60
        E 0 90 61 60
        E 120 80 1f 00
        E 0 80 3e 00
        E 0 80 4a 00
        E 0 80 56 00
        E 0 80 61 00
        E 0 90 1e 60
        E 0 90 61 60
        E 120 80 1e 00
        E 0 80 61 00
        E 0 90 18 60
        E 0 90 1f 60
        E 0 90 54 60
        E 0 90 56 60
        E 0 90 60 60
        E 0 90 61 60
        E 120 80 18 00
        E 0 80 1f 00
        E 0 80 54 00
        E 0 80 56 00
        E 0 80 60 00
        E 0 80 61 00
        E 0 90 1e 60
        E 0 90 61 60
        E 120 80 1e 00
        E 0 80 61 00
        E 0 90 1b 60
        E 0 90 49 60
        E 0 90 4a 60
        E 0 90 55 60
        E 0 90 56 60
        E 0 90 62 60
        E 120 80 1b 00
        E 0 80 49 00
        E 0 80 4a 00
        E 0 80 55 00
        E 0 80 56 00
        E 0 80 62 00
        E 0 90 1e 60
        E 0 90 61 60
        E 120 80 1e 00
        E 0 80 61 00
        E 0 90 1f 60
        E 0 90 56 60
        E 0 90 61 60
        E 120 80 1f 00
        E 0 80 56 00
        E 0 80 61 00
        E 0 90 1e 60
        E 0 90 61 60
        E 120 80 1e 00
        E 0 80 61 00
        E 0 90 18 60
        E 0 90 1f 60
        E 0 90 3e 60
        E 0 90 48 60
        E 0 90 4a 60
        E 0 90 54 60
        E 0 90 56 60
        E 0 90 60 60
        E 0 90 61 60
        E 120 80 18 00
        E 0 80 1f 00
        E 0 80 3e 00
        E 0 80 48 00
        E 0 80 4a 00
        E 0 80 54 00
        E 0 80 56 00
        E 0 80 60 00
        E 0 80 61 00
        E 0 90 1e 60
        E 0 90 61 60
        E 120 80 1e 00
        E 0 80 61 00
        E 0 90 1f 60
        E 0 90 56 60
        E 0 90 61 60
        E 120 80 1f 00
        E 0 80 56 00
        E 0 80 61 00
        E 0 90 1e 60
        E 0 90 61 60
        E 120 80 1e 00
        E 0 80 61 00
        E 0 90 1b 60
        E 0 90 49 60
        E 0 90 4a 60
        E 0 90 55 60
        E 0 90 56 60
        E 0 90 62 60
        E 120 80 1b 00
        E 0 80 49 00
        E 0 80 4a 00
        E 0 80 55 00
        E 0 80 56 00
        E 0 80 62 00
        E 0 90 1e 60
        E 0 90 61 60
        E 120 80 1e 00
        E 0 80 61 00
        E 0 90 1f 60
        E 0 90 56 60
        E 0 90 61 60
        E 120 80 1f 00
        E 0 80 56 00
        E 0 80 61 00
        E 0 90 1e 60
        E 0 90 61 60
        E 120 80 1e 00
        E 0 80 61 00
        E 0 90 1f 60
        E 0 90 3e 60
        E 0 90 4a 60
        E 0 90 56 60
        E 0 90 61 60
        E 120 80 1f 00
        E 0 80 3e 00
        E 0 80 4a 00
        E 0 80 56 00
        E 0 80 61 00
        E 0 90 1e 60
        E 0 90 61 60
        E 120 80 1e 00
        E 0 80 61 00
        E 0 90 18 60
        E 0 90 1f 60
        E 0 90 54 60
        E 0 90 56 60
        E 0 90 60 60
        E 0 90 61 60
        E 120 80 18 00
        E 0 80 1f 00
        E 0 80 54 00
        E 0 80 56 00
        E 0 80 60 00
        E 0 80 61 00
        E 0 90 1e 60
        E 0 90 61 60
        E 120 80 1e 00
        E 0 80 61 00
        E 0 90 1b 60
        E 0 90 49 60
        E 0 90 4a 60
        E 0 90 55 60
        E 0 90 56 60
        E 0 90 62 60
        E 120 80 1b 00
        E 0 80 49 00
        E 0 80 4a 00
        E 0 80 55 00
        E 0 80 56 00
        E 0 80 62 00
        E 0 90 1e 60
        E 0 90 61 60
        E 120 80 1e 00
        E 0 80 61 00
        E 0 90 1f 60
        E 0 90 56 60
        E 0 90 61 60
        E 120 80 1f 00
        E 0 80 56 00
        E 0 80 61 00
        E 0 90 1e 60
        E 0 90 61 60
        E 120 80 1e 00
        E 0 80 61 00
        E 0 90 18 60
        E 0 90 1f 60
        E 0 90 3e 60
        E 0 90 48 60
        E 0 90 4a 60
        E 0 90 54 60
        E 0 90 56 60
        E 0 90 60 60
        E 0 90 61 60
        E 120 80 18 00
        E 0 80 1f 00
        E 0 80 3e 00
        E 0 80 48 00
        E 0 80 4a 00
        E 0 80 54 00
        E 0 80 56 00
        E 0 80 60 00
        E 0 80 61 00
        E 0 90 1e 60
        E 0 90 61 60
        E 120 80 1e 00
        E 0 80 61 00
        E 0 90 1f 60
        E 0 90 56 60
        E 0 90 61 60
        E 120 80 1f 00
        E 0 80 56 00
        E 0 80 61 00
        E 0 90 1e 60
        E 0 90 61 60
        E 120 80 1e 00
        E 0 80 61 00
        E 0 90 1b 60
        E 0 90 49 60
        E 0 90 4a 60
        E 0 90 55 60
        E 0 90 56 60
        E 0 90 62 60
        E 120 80 1b 00
        E 0 80 49 00
        E 0 80 4a 00
        E 0 80 55 00
        E 0 80 56 00
        E 0 80 62 00
        E 0 90 1e 60
        E 0 90 61 60
        E 120 80 1e 00
        E 0 80 61 00
        E 0 90 1f 60
        E 0 90 56 60
        E 0 90 61 60
        E 120 80 1f 00
        E 0 80 56 00
        E 0 80 61 00
        E 0 90 1e 60
        E 0 90 61 60
        E 120 80 1e 00
        E 0 80 61 00
        E 0 90 1f 60
        E 0 90 3e 60
        E 0 90 4a 60
        E 0 90 56 60
        E 0 90 61 60
        E 120 80 1f 00
        E 0 80 3e 00
        E 0 80 4a 00
        E 0 80 56 00
        E 0 80 61 00
        E 0 90 1e 60
        E 0 90 61 60
        E 120 80 1e 00
        E 0 80 61 00
        E 0 90 18 60
        E 0 90 1f 60
        E 0 90 54 60
        E 0 90 56 60
        E 0 90 60 60
        E 0 90 61 60
        E 120 80 18 00
        E 0 80 1f 00
        E 0 80 54 00
        E 0 80 56 00
        E 0 80 60 00
        E 0 80 61 00
        E 0 90 1e 60
        E 0 90 61 60
        E 120 80 1e 00
        E 0 80 61 00
        E 0 90 1b 60
        E 0 90 49 60
        E 0 90 4a 60
        E 0 90 55 60
        E 0 90 56 60
        E 0 90 62 60
        E 120 80 1b 00
        E 0 80 49 00
        E 0 80 4a 00
        E 0 80 55 00
        E 0 80 56 00
        E 0 80 62 00
        E 0 90 1e 60
        E 0 90 61 60
        E 120 80 1e 00
        E 0 80 61 00
        E 0 90 1f 60
        E 0 90 56 60
        E 0 90 61 60
        E 120 80 1f 00
        E 0 80 56 00
        E 0 80 61 00
        E 0 90 1e 60
        E 0 90 61 60
        E 120 80 1e 00
        E 0 80 61 00
        E 0 90 18 60
        E 0 90 1f 60
        E 0 90 3e 60
        E 0 90 48 60
        E 0 90 4a 60
        E 0 90 54 60
        E 0 90 56 60
        E 0 90 60 60
        E 0 90 61 60
        E 0 90 78 60
        E 0 90 79 60
        E 0 90 7a 60
        E 0 90 7b 60
        E 0 90 7c 60
        E 120 80 18 00
        E 0 80 1f 00
        E 0 80 3e 00
        E 0 80 48 00
        E 0 80 4a 00
        E 0 80 54 00
        E 0 80 56 00
        E 0 80 60 00
        E 0 80 61 00
        E 0 90 1e 60
        E 0 90 61 60
        E 120 80 1e 00
        E 0 80 61 00
        E 0 90 1f 60
        E 0 90 56 60
        E 0 90 61 60
        E 120 80 1f 00
        E 0 80 56 00
        E 0 80 61 00
        E 0 90 1e 60
        E 0 90 61 60
        E 120 80 1e 00
        E 0 80 61 00
        E 0 90 1b 60
        E 0 90 49 60
        E 0 90 4a 60
        E 0 90 55 60
        E 0 90 56 60
        E 0 90 62 60
        E 120 80 1b 00
        E 0 80 49 00
        E 0 80 4a 00
        E 0 80 55 00
        E 0 80 56 00
        E 0 80 62 00
        E 0 90 1e 60
        E 0 90 61 60
        E 120 80 1e 00
        E 0 80 61 00
        E 0 90 1f 60
        E 0 90 56 60
        E 0 90 61 60
        E 120 80 1f 00
        E 0 80 56 00
        E 0 80 61 00
        E 0 90 1e 60
        E 0 90 61 60
        E 120 80 1e 00
        E 0 80 61 00
        E 0 90 1f 60
        E 0 90 3e 60
        E 0 90 4a 60
        E 0 90 56 60
        E 0 90 61 60
        E 120 80 1f 00
        E 0 80 3e 00
        E 0 80 4a 00
        E 0 80 56 00
        E 0 80 61 00
        E 0 90 1e 60
        E 0 90 61 60
        E 120 80 1e 00
        E 0 80 61 00
        E 0 90 18 60
        E 0 90 1f 60
        E 0 90 54 60
        E 0 90 56 60
        E 0 90 60 60
        E 0 90 61 60
        E 120 80 18 00
        E 0 80 1f 00
        E 0 80 54 00
        E 0 80 56 00
        E 0 80 60 00
        E 0 80 61 00
        E 0 90 1e 60
        E 0 90 61 60
        E 120 80 1e 00
        E 0 80 61 00
        E 0 90 1b 60
        E 0 90 49 60
        E 0 90 4a 60
        E 0 90 55 60
        E 0 90 56 60
        E 0 90 62 60
        E 120 80 1b 00
        E 0 80 49 00
        E 0 80 4a 00
        E 0 80 55 00
        E 0 80 56 00
        E 0 80 62 00
        E 0 90 1e 60
        E 0 90 61 60
        E 120 80 1e 00
        E 0 80 61 00
        E 0 90 1f 60
        E 0 90 56 60
        E 0 90 61 60
        E 120 80 1f 00
        E 0 80 56 00
        E 0 80 61 00
        E 0 90 1e 60
        E 0 90 61 60
        <X 120 0
          /wFbbWl4IDMgZHJ1bXMwXQ==
        >
        E 0 80 78 00
        E 0 80 79 00
        E 0 80 7a 00
        E 0 80 7b 00
        E 0 80 7c 00
        E 0 80 1e 00
        E 0 80 61 00
        E 0 90 18 60
        E 0 90 3c 60
        E 0 90 48 60
        E 0 90 54 60
        E 0 90 60 60
        E 120 80 18 00
        E 0 80 3c 00
        E 0 80 48 00
        E 0 80 54 00
        E 0 80 60 00
        E 600 90 18 60
        E 0 90 54 60
        E 0 90 60 60
        E 120 80 18 00
        E 0 80 54 00
        E 0 80 60 00
        E 120 90 18 60
        E 0 90 3c 60
        E 0 90 48 60
        E 0 90 54 60
        E 0 90 60 60
        E 120 80 18 00
        E 0 80 3c 00
        E 0 80 48 00
        E 0 80 54 00
        E 0 80 60 00
        E 840 90 18 60
        E 0 90 3c 60
        E 0 90 48 60
        E 0 90 54 60
        E 0 90 60 60
        E 120 80 18 00
        E 0 80 3c 00
        E 0 80 48 00
        E 0 80 54 00
        E 0 80 60 00
        E 600 90 18 60
        E 0 90 54 60
        E 0 90 60 60
        E 120 80 18 00
        E 0 80 54 00
        E 0 80 60 00
        E 120 90 18 60
        E 0 90 3c 60
        E 0 90 48 60
        E 0 90 54 60
        E 0 90 60 60
        E 120 80 18 00
        E 0 80 3c 00
        E 0 80 48 00
        E 0 80 54 00
        E 0 80 60 00
        E 360 90 1a 60
        E 0 90 49 60
        E 0 90 55 60
        E 0 90 61 60
        E 120 80 1a 00
        E 0 80 49 00
        E 0 80 55 00
        E 0 80 61 00
        E 360 90 18 60
        E 0 90 26 60
        E 0 90 40 60
        E 0 90 48 60
        E 0 90 4c 60
        E 0 90 54 60
        E 0 90 58 60
        E 0 90 60 60
        E 0 90 64 60
        E 120 80 18 00
        E 0 80 26 00
        E 0 80 40 00
        E 0 80 48 00
        E 0 80 4c 00
        E 0 80 54 00
        E 0 80 58 00
        E 0 80 60 00
        E 0 80 64 00
        E 1800 90 78 60
        E 0 90 79 60
        E 0 90 7a 60
        E 0 90 7b 60
        E 0 90 7c 60
        <X 1920 0
          /wFbcGxheV0=
        >
        E 0 80 78 00
        E 0 80 79 00
        E 0 80 7a 00
        E 0 80 7b 00
        E 0 80 7c 00
        E 0 90 18 60
        E 0 90 24 60
        E 0 90 40 60
        E 0 90 48 60
        E 0 90 4c 60
        E 0 90 54 60
        E 0 90 58 60
        E 0 90 60 60
        E 0 90 64 60
        E 120 80 18 00
        E 0 80 24 00
        E 0 80 40 00
        E 0 80 48 00
        E 0 80 4c 00
        E 0 80 54 00
        E 0 80 58 00
        E 0 80 60 00
        E 0 80 64 00
        E 120 90 1f 60
        E 0 90 56 60
        E 0 90 62 60
        E 120 80 1f 00
        E 0 80 56 00
        E 0 80 62 00
        E 120 90 1f 60
        E 0 90 4a 60
        E 0 90 56 60
        E 0 90 62 60
        E 120 80 1f 00
        E 0 80 4a 00
        E 0 80 56 00
        E 0 80 62 00
        E 120 90 1f 60
        E 0 90 56 60
        E 0 90 62 60
        E 120 80 1f 00
        E 0 80 56 00
        E 0 80 62 00
        E 120 90 1a 60
        E 0 90 1f 60
        E 0 90 3d 60
        E 0 90 3e 60
        E 0 90 49 60
        E 0 90 4a 60
        E 0 90 55 60
        E 0 90 56 60
        E 0 90 61 60
        E 0 90 62 60
        E 120 80 1a 00
        E 0 80 1f 00
        E 0 80 3d 00
        E 0 80 3e 00
        E 0 80 49 00
        E 0 80 4a 00
        E 0 80 55 00
        E 0 80 56 00
        E 0 80 61 00
        E 0 80 62 00
        E 120 90 1f 60
        E 0 90 56 60
        E 0 90 62 60
        E 120 80 1f 00
        E 0 80 56 00
        E 0 80 62 00
        E 120 90 1f 60
        E 0 90 4a 60
        E 0 90 56 60
        E 0 90 62 60
        E 120 80 1f 00
        E 0 80 4a 00
        E 0 80 56 00
        E 0 80 62 00
        E 120 90 1f 60
        E 0 90 56 60
        E 0 90 62 60
        E 120 80 1f 00
        E 0 80 56 00
        E 0 80 62 00
        E 120 90 18 60
        E 0 90 1f 60
        E 0 90 3e 60
        E 0 90 48 60
        E 0 90 4a 60
        E 0 90 54 60
        E 0 90 56 60
        E 0 90 60 60
        E 0 90 62 60
        E 120 80 18 00
        E 0 80 1f 00
        E 0 80 3e 00
        E 0 80 48 00
        E 0 80 4a 00
        E 0 80 54 00
        E 0 80 56 00
        E 0 80 60 00
        E 0 80 62 00
        E 120 90 1f 60
        E 0 90 56 60
        E 0 90 62 60
        E 120 80 1f 00
        E 0 80 56 00
        E 0 80 62 00
        E 120 90 1f 60
        E 0 90 4a 60
        E 0 90 56 60
        E 0 90 62 60
        E 120 80 1f 00
        E 0 80 4a 00
        E 0 80 56 00
        E 0 80 62 00
        E 120 90 1a 60
        E 0 90 1f 60
        E 0 90 55 60
        E 0 90 56 60
        E 0 90 61 60
        E 0 90 62 60
        E 120 80 1a 00
        E 0 80 1f 00
        E 0 80 55 00
        E 0 80 56 00
        E 0 80 61 00
        E 0 80 62 00
        E 120 90 1f 60
        E 0 90 3e 60
        E 0 90 4a 60
        E 0 90 56 60
        E 0 90 62 60
        E 120 80 1f 00
        E 0 80 3e 00
        E 0 80 4a 00
        E 0 80 56 00
        E 0 80 62 00
        E 120 90 1a 60
        E 0 90 1f 60
        E 0 90 55 60
        E 0 90 56 60
        E 0 90 61 60
        E 0 90 62 60
        E 120 80 1a 00
        E 0 80 1f 00
        E 0 80 55 00
        E 0 80 56 00
        E 0 80 61 00
        E 0 80 62 00
        E 120 90 1f 60
        E 0 90 4a 60
        E 0 90 56 60
        E 0 90 62 60
        E 120 80 1f 00
        E 0 80 4a 00
        E 0 80 56 00
        E 0 80 62 00
        E 120 90 1f 60
        E 0 90 56 60
        E 0 90 62 60
        E 120 80 1f 00
        E 0 80 56 00
        E 0 80 62 00
        E 120 90 18 60
        E 0 90 1f 60
        E 0 90 3e 60
        E 0 90 48 60
        E 0 90 4a 60
        E 0 90 54 60
        E 0 90 56 60
        E 0 90 60 60
        E 0 90 62 60
        E 120 80 18 00
        E 0 80 1f 00
        E 0 80 3e 00
        E 0 80 48 00
        E 0 80 4a 00
        E 0 80 54 00
        E 0 80 56 00
        E 0 80 60 00
        E 0 80 62 00
        E 120 90 1f 60
        E 0 90 56 60
        E 0 90 62 60
        E 120 80 1f 00
        E 0 80 56 00
        E 0 80 62 00
        E 120 90 1f 60
        E 0 90 4a 60
        E 0 90 56 60
        E 0 90 62 60
        E 120 80 1f 00
        E 0 80 4a 00
        E 0 80 56 00
        E 0 80 62 00
        E 120 90 1f 60
        E 0 90 56 60
        E 0 90 62 60
        E 120 80 1f 00
        E 0 80 56 00
        E 0 80 62 00
        E 120 90 1a 60
        E 0 90 1f 60
        E 0 90 3d 60
        E 0 90 3e 60
        E 0 90 49 60
        E 0 90 4a 60
        E 0 90 55 60
        E 0 90 56 60
        E 0 90 61 60
        E 0 90 62 60
        E 120 80 1a 00
        E 0 80 1f 00
        E 0 80 3d 00
        E 0 80 3e 00
        E 0 80 49 00
        E 0 80 4a 00
        E 0 80 55 00
        E 0 80 56 00
        E 0 80 61 00
        E 0 80 62 00
        E 120 90 1f 60
        E 0 90 56 60
        E 0 90 62 60
        E 120 80 1f 00
        E 0 80 56 00
        E 0 80 62 00
        E 120 90 1f 60
        E 0 90 4a 60
        E 0 90 56 60
        E 0 90 62 60
        E 120 80 1f 00
        E 0 80 4a 00
        E 0 80 56 00
        E 0 80 62 00
        E 120 90 1f 60
        E 0 90 56 60
        E 0 90 62 60
        E 120 80 1f 00
        E 0 80 56 00
        E 0 80 62 00
        E 120 90 18 60
        E 0 90 1f 60
        E 0 90 3e 60
        E 0 90 48 60
        E 0 90 4a 60
        E 0 90 54 60
        E 0 90 56 60
        E 0 90 60 60
        E 0 90 62 60
        E 120 80 18 00
        E 0 80 1f 00
        E 0 80 3e 00
        E 0 80 48 00
        E 0 80 4a 00
        E 0 80 54 00
        E 0 80 56 00
        E 0 80 60 00
        E 0 80 62 00
        E 120 90 1f 60
        E 0 90 56 60
        E 0 90 62 60
        E 120 80 1f 00
        E 0 80 56 00
        E 0 80 62 00
        E 120 90 1f 60
        E 0 90 4a 60
        E 0 90 56 60
        E 0 90 62 60
        E 120 80 1f 00
        E 0 80 4a 00
        E 0 80 56 00
        E 0 80 62 00
        E 120 90 1a 60
        E 0 90 1f 60
        E 0 90 55 60
        E 0 90 56 60
        E 0 90 61 60
        E 0 90 62 60
        E 120 80 1a 00
        E 0 80 1f 00
        E 0 80 55 00
        E 0 80 56 00
        E 0 80 61 00
        E 0 80 62 00
        E 120 90 1f 60
        E 0 90 3e 60
        E 0 90 4a 60
        E 0 90 56 60
        E 0 90 62 60
        E 120 80 1f 00
        E 0 80 3e 00
        E 0 80 4a 00
        E 0 80 56 00
        E 0 80 62 00
        E 120 90 1a 60
        E 0 90 1f 60
        E 0 90 55 60
        E 0 90 56 60
        E 0 90 61 60
        E 0 90 62 60
        E 120 80 1a 00
        E 0 80 1f 00
        E 0 80 55 00
        E 0 80 56 00
        E 0 80 61 00
        E 0 80 62 00
        E 120 90 1f 60
        E 0 90 4a 60
        E 0 90 56 60
        E 0 90 62 60
        E 120 80 1f 00
        E 0 80 4a 00
        E 0 80 56 00
        E 0 80 62 00
        E 120 90 1f 60
        E 0 90 56 60
        E 0 90 62 60
        E 120 80 1f 00
        E 0 80 56 00
        E 0 80 62 00
        E 120 90 18 60
        E 0 90 1f 60
        E 0 90 3e 60
        E 0 90 48 60
        E 0 90 4a 60
        E 0 90 54 60
        E 0 90 56 60
        E 0 90 60 60
        E 0 90 62 60
        E 0 90 74 60
        E 120 80 18 00
        E 0 80 1f 00
        E 0 80 3e 00
        E 0 80 48 00
        E 0 80 4a 00
        E 0 80 54 00
        E 0 80 56 00
        E 0 80 60 00
        E 0 80 62 00
        E 120 90 1f 60
        E 0 90 56 60
        E 0 90 62 60
        E 120 80 1f 00
        E 0 80 56 00
        E 0 80 62 00
        E 120 90 1f 60
        E 0 90 4a 60
        E 0 90 56 60
        E 0 90 62 60
        E 120 80 1f 00
        E 0 80 4a 00
        E 0 80 56 00
        E 0 80 62 00
        E 120 90 1f 60
        E 0 90 56 60
        E 0 90 62 60
        E 120 80 1f 00
        E 0 80 56 00
        E 0 80 62 00
        E 120 90 1a 60
        E 0 90 1f 60
        E 0 90 3d 60
        E 0 90 3e 60
        E 0 90 49 60
        E 0 90 4a 60
        E 0 90 55 60
        E 0 90 56 60
        E 0 90 61 60
        E 0 90 62 60
        E 120 80 1a 00
        E 0 80 1f 00
        E 0 80 3d 00
        E 0 80 3e 00
        E 0 80 49 00
        E 0 80 4a 00
        E 0 80 55 00
        E 0 80 56 00
        E 0 80 61 00
        E 0 80 62 00
        E 120 90 1f 60
        E 0 90 56 60
        E 0 90 62 60
        E 120 80 1f 00
        E 0 80 56 00
        E 0 80 62 00
        E 120 90 1f 60
        E 0 90 4a 60
        E 0 90 56 60
        E 0 90 62 60
        E 120 80 1f 00
        E 0 80 4a 00
        E 0 80 56 00
        E 0 80 62 00
        E 120 90 1f 60
        E 0 90 56 60
        E 0 90 62 60
        E 120 80 1f 00
        E 0 80 56 00
        E 0 80 62 00
        E 120 90 18 60
        E 0 90 1f 60
        E 0 90 3e 60
        E 0 90 48 60
        E 0 90 4a 60
        E 0 90 54 60
        E 0 90 56 60
        E 0 90 60 60
        E 0 90 62 60
        E 120 80 18 00
        E 0 80 1f 00
        E 0 80 3e 00
        E 0 80 48 00
        E 0 80 4a 00
        E 0 80 54 00
        E 0 80 56 00
        E 0 80 60 00
        E 0 80 62 00
        E 120 90 1f 60
        E 0 90 56 60
        E 0 90 62 60
        E 120 80 1f 00
        E 0 80 56 00
        E 0 80 62 00
        E 120 90 1f 60
        E 0 90 4a 60
        E 0 90 56 60
        E 0 90 62 60
        E 120 80 1f 00
        E 0 80 4a 00
        E 0 80 56 00
        E 0 80 62 00
        E 120 90 1a 60
        E 0 90 1f 60
        E 0 90 55 60
        E 0 90 56 60
        E 0 90 61 60
        E 0 90 62 60
        E 120 80 1a 00
        E 0 80 1f 00
        E 0 80 55 00
        E 0 80 56 00
        E 0 80 61 00
        E 0 80 62 00
        E 120 90 1f 60
        E 0 90 3e 60
        E 0 90 4a 60
        E 0 90 56 60
        E 0 90 62 60
        E 120 80 1f 00
        E 0 80 3e 00
        E 0 80 4a 00
        E 0 80 56 00
        E 0 80 62 00
        E 120 90 1a 60
        E 0 90 1f 60
        E 0 90 55 60
        E 0 90 56 60
        E 0 90 61 60
        E 0 90 62 60
        E 120 80 1a 00
        E 0 80 1f 00
        E 0 80 55 00
        E 0 80 56 00
        E 0 80 61 00
        E 0 80 62 00
        E 120 90 1f 60
        E 0 90 4a 60
        E 0 90 56 60
        E 0 90 62 60
        E 120 80 1f 00
        E 0 80 4a 00
        E 0 80 56 00
        E 0 80 62 00
        E 120 90 1f 60
        E 0 90 56 60
        E 0 90 62 60
        E 120 80 1f 00
        E 0 80 56 00
        E 0 80 62 00
        E 120 90 18 60
        E 0 90 1f 60
        E 0 90 3e 60
        E 0 90 48 60
        E 0 90 4a 60
        E 0 90 54 60
        E 0 90 56 60
        E 0 90 60 60
        E 0 90 62 60
        E 120 80 74 00
        E 0 80 18 00
        E 0 80 1f 00
        E 0 80 3e 00
        E 0 80 48 00
        E 0 80 4a 00
        E 0 80 54 00
        E 0 80 56 00
        E 0 80 60 00
        E 0 80 62 00
        E 120 90 1f 60
        E 0 90 56 60
        E 0 90 62 60
        E 120 80 1f 00
        E 0 80 56 00
        E 0 80 62 00
        E 120 90 1f 60
        E 0 90 4a 60
        E 0 90 56 60
        E 0 90 62 60
        E 120 80 1f 00
        E 0 80 4a 00
        E 0 80 56 00
        E 0 80 62 00
        E 120 90 1f 60
        E 0 90 56 60
        E 0 90 62 60
        E 120 80 1f 00
        E 0 80 56 00
        E 0 80 62 00
        E 120 90 1a 60
        E 0 90 1f 60
        E 0 90 3d 60
        E 0 90 3e 60
        E 0 90 49 60
        E 0 90 4a 60
        E 0 90 55 60
        E 0 90 56 60
        E 0 90 61 60
        E 0 90 62 60
        E 120 80 1a 00
        E 0 80 1f 00
        E 0 80 3d 00
        E 0 80 3e 00
        E 0 80 49 00
        E 0 80 4a 00
        E 0 80 55 00
        E 0 80 56 00
        E 0 80 61 00
        E 0 80 62 00
        E 120 90 1f 60
        E 0 90 56 60
        E 0 90 62 60
        E 120 80 1f 00
        E 0 80 56 00
        E 0 80 62 00
        E 120 90 1f 60
        E 0 90 4a 60
        E 0 90 56 60
        E 0 90 62 60
        E 120 80 1f 00
        E 0 80 4a 00
        E 0 80 56 00
        E 0 80 62 00
        E 120 90 1f 60
        E 0 90 56 60
        E 0 90 62 60
        E 120 80 1f 00
        E 0 80 56 00
        E 0 80 62 00
        E 120 90 18 60
        E 0 90 1f 60
        E 0 90 3e 60
        E 0 90 48 60
        E 0 90 4a 60
        E 0 90 54 60
        E 0 90 56 60
        E 0 90 60 60
        E 0 90 62 60
        E 0 90 78 60
        E 0 90 79 60
        E 0 90 7a 60
        E 0 90 7b 60
        E 0 90 7c 60
        E 120 80 18 00
        E 0 80 1f 00
        E 0 80 3e 00
        E 0 80 48 00
        E 0 80 4a 00
        E 0 80 54 00
        E 0 80 56 00
        E 0 80 60 00
        E 0 80 62 00
        E 120 90 1f 60
        E 0 90 56 60
        E 0 90 62 60
        E 120 80 1f 00
        E 0 80 56 00
        E 0 80 62 00
        E 120 90 1f 60
        E 0 90 4a 60
        E 0 90 56 60
        E 0 90 62 60
        E 120 80 1f 00
        E 0 80 4a 00
        E 0 80 56 00
        E 0 80 62 00
        E 120 90 1a 60
        E 0 90 1f 60
        E 0 90 55 60
        E 0 90 56 60
        E 0 90 61 60
        E 0 90 62 60
        E 120 80 1a 00
        E 0 80 1f 00
        E 0 80 55 00
        E 0 80 56 00
        E 0 80 61 00
        E 0 80 62 00
        E 120 90 1f 60
        E 0 90 3e 60
        E 0 90 4a 60
        E 0 90 56 60
        E 0 90 62 60
        E 120 80 1f 00
        E 0 80 3e 00
        E 0 80 4a 00
        E 0 80 56 00
        E 0 80 62 00
        E 120 90 1a 60
        E 0 90 55 60
        E 0 90 61 60
        E 120 80 1a 00
        E 0 80 55 00
        E 0 80 61 00
        E 120 90 1b 60
        E 0 90 49 60
        E 0 90 55 60
        E 0 90 61 60
        E 120 80 1b 00
        E 0 80 49 00
        E 0 80 55 00
        E 0 80 61 00
        E 120 90 1a 60
        E 0 90 55 60
        E 0 90 61 60
        E 120 80 1a 00
        E 0 80 55 00
        E 0 80 61 00
        E 120 80 78 00
        E 0 80 79 00
        E 0 80 7a 00
        E 0 80 7b 00
        E 0 80 7c 00
        E 0 90 18 60
        E 0 90 24 60
        E 0 90 40 60
        E 0 90 48 60
        E 0 90 4c 60
        E 0 90 54 60
        E 0 90 58 60
        E 0 90 60 60
        E 0 90 64 60
        E 120 80 18 00
        E 0 80 24 00
        E 0 80 40 00
        E 0 80 48 00
        E 0 80 4c 00
        E 0 80 54 00
        E 0 80 58 00
        E 0 80 60 00
        E 0 80 64 00
        E 120 90 1f 60
        E 0 90 56 60
        E 0 90 62 60
        E 120 80 1f 00
        E 0 80 56 00
        E 0 80 62 00
        E 120 90 1f 60
        E 0 90 4a 60
        E 0 90 56 60
        E 0 90 62 60
        E 120 80 1f 00
        E 0 80 4a 00
        E 0 80 56 00
        E 0 80 62 00
        E 120 90 1f 60
        E 0 90 56 60
        E 0 90 62 60
        E 120 80 1f 00
        E 0 80 56 00
        E 0 80 62 00
        E 120 90 1a 60
        E 0 90 1f 60
        E 0 90 3d 60
        E 0 90 3e 60
        E 0 90 49 60
        E 0 90 4a 60
        E 0 90 55 60
        E 0 90 56 60
        E 0 90 61 60
        E 0 90 62 60
        E 120 80 1a 00
        E 0 80 1f 00
        E 0 80 3d 00
        E 0 80 3e 00
        E 0 80 49 00
        E 0 80 4a 00
        E 0 80 55 00
        E 0 80 56 00
        E 0 80 61 00
        E 0 80 62 00
        E 120 90 1f 60
        E 0 90 56 60
        E 0 90 62 60
        E 120 80 1f 00
        E 0 80 56 00
        E 0 80 62 00
        E 120 90 1f 60
        E 0 90 4a 60
        E 0 90 56 60
        E 0 90 62 60
        E 120 80 1f 00
        E 0 80 4a 00
        E 0 80 56 00
        E 0 80 62 00
        E 120 90 1f 60
        E 0 90 56 60
        E 0 90 62 60
        E 120 80 1f 00
        E 0 80 56 00
        E 0 80 62 00
        E 120 90 18 60
        E 0 90 1f 60
        E 0 90 3e 60
        E 0 90 48 60
        E 0 90 4a 60
        E 0 90 54 60
        E 0 90 56 60
        E 0 90 60 60
        E 0 90 62 60
        E 120 80 18 00
        E 0 80 1f 00
        E 0 80 3e 00
        E 0 80 48 00
        E 0 80 4a 00
        E 0 80 54 00
        E 0 80 56 00
        E 0 80 60 00
        E 0 80 62 00
        E 120 90 1f 60
        E 0 90 56 60
        E 0 90 62 60
        E 120 80 1f 00
        E 0 80 56 00
        E 0 80 62 00
        E 120 90 1f 60
        E 0 90 4a 60
        E 0 90 56 60
        E 0 90 62 60
        E 120 80 1f 00
        E 0 80 4a 00
        E 0 80 56 00
        E 0 80 62 00
        E 120 90 1a 60
        E 0 90 1f 60
        E 0 90 55 60
        E 0 90 56 60
        E 0 90 61 60
        E 0 90 62 60
        E 120 80 1a 00
        E 0 80 1f 00
        E 0 80 55 00
        E 0 80 56 00
        E 0 80 61 00
        E 0 80 62 00
        E 120 90 1f 60
        E 0 90 3e 60
        E 0 90 4a 60
        E 0 90 56 60
        E 0 90 62 60
        E 120 80 1f 00
        E 0 80 3e 00
        E 0 80 4a 00
        E 0 80 56 00
        E 0 80 62 00
        E 120 90 1a 60
        E 0 90 1f 60
        E 0 90 55 60
        E 0 90 56 60
        E 0 90 61 60
        E 0 90 62 60
        E 120 80 1a 00
        E 0 80 1f 00
        E 0 80 55 00
        E 0 80 56 00
        E 0 80 61 00
        E 0 80 62 00
        E 120 90 1f 60
        E 0 90 4a 60
        E 0 90 56 60
        E 0 90 62 60
        E 120 80 1f 00
        E 0 80 4a 00
        E 0 80 56 00
        E 0 80 62 00
        E 120 90 1f 60
        E 0 90 56 60
        E 0 90 62 60
        E 120 80 1f 00
        E 0 80 56 00
        E 0 80 62 00
        E 120 90 18 60
        E 0 90 1f 60
        E 0 90 3e 60
        E 0 90 48 60
        E 0 90 4a 60
        E 0 90 54 60
        E 0 90 56 60
        E 0 90 60 60
        E 0 90 62 60
        E 120 80 18 00
        E 0 80 1f 00
        E 0 80 3e 00
        E 0 80 48 00
        E 0 80 4a 00
        E 0 80 54 00
        E 0 80 56 00
        E 0 80 60 00
        E 0 80 62 00
        E 120 90 1f 60
        E 0 90 56 60
        E 0 90 62 60
        E 120 80 1f 00
        E 0 80 56 00
        E 0 80 62 00
        E 120 90 1f 60
        E 0 90 4a 60
        E 0 90 56 60
        E 0 90 62 60
        E 120 80 1f 00
        E 0 80 4a 00
        E 0 80 56 00
        E 0 80 62 00
        E 120 90 1f 60
        E 0 90 56 60
        E 0 90 62 60
        E 120 80 1f 00
        E 0 80 56 00
        E 0 80 62 00
        E 120 90 1a 60
        E 0 90 1f 60
        E 0 90 3d 60
        E 0 90 3e 60
        E 0 90 49 60
        E 0 90 4a 60
        E 0 90 55 60
        E 0 90 56 60
        E 0 90 61 60
        E 0 90 62 60
        E 120 80 1a 00
        E 0 80 1f 00
        E 0 80 3d 00
        E 0 80 3e 00
        E 0 80 49 00
        E 0 80 4a 00
        E 0 80 55 00
        E 0 80 56 00
        E 0 80 61 00
        E 0 80 62 00
        E 120 90 1f 60
        E 0 90 56 60
        E 0 90 62 60
        E 120 80 1f 00
        E 0 80 56 00
        E 0 80 62 00
        E 120 90 1f 60
        E 0 90 4a 60
        E 0 90 56 60
        E 0 90 62 60
        E 120 80 1f 00
        E 0 80 4a 00
        E 0 80 56 00
        E 0 80 62 00
        E 120 90 1f 60
        E 0 90 56 60
        E 0 90 62 60
        E 120 80 1f 00
        E 0 80 56 00
        E 0 80 62 00
        E 120 90 18 60
        E 0 90 1f 60
        E 0 90 3e 60
        E 0 90 48 60
        E 0 90 4a 60
        E 0 90 54 60
        E 0 90 56 60
        E 0 90 60 60
        E 0 90 62 60
        E 120 80 18 00
        E 0 80 1f 00
        E 0 80 3e 00
        E 0 80 48 00
        E 0 80 4a 00
        E 0 80 54 00
        E 0 80 56 00
        E 0 80 60 00
        E 0 80 62 00
        E 120 90 1f 60
        E 0 90 56 60
        E 0 90 62 60
        E 120 80 1f 00
        E 0 80 56 00
        E 0 80 62 00
        E 120 90 1f 60
        E 0 90 4a 60
        E 0 90 56 60
        E 0 90 62 60
        E 120 80 1f 00
        E 0 80 4a 00
        E 0 80 56 00
        E 0 80 62 00
        E 120 90 1a 60
        E 0 90 1f 60
        E 0 90 55 60
        E 0 90 56 60
        E 0 90 61 60
        E 0 90 62 60
        E 120 80 1a 00
        E 0 80 1f 00
        E 0 80 55 00
        E 0 80 56 00
        E 0 80 61 00
        E 0 80 62 00
        E 120 90 1f 60
        E 0 90 3e 60
        E 0 90 4a 60
        E 0 90 56 60
        E 0 90 62 60
        E 120 80 1f 00
        E 0 80 3e 00
        E 0 80 4a 00
        E 0 80 56 00
        E 0 80 62 00
        E 120 90 1a 60
        E 0 90 1f 60
        E 0 90 55 60
        E 0 90 56 60
        E 0 90 61 60
        E 0 90 62 60
        E 120 80 1a 00
        E 0 80 1f 00
        E 0 80 55 00
        E 0 80 56 00
        E 0 80 61 00
        E 0 80 62 00
        E 120 90 1f 60
        E 0 90 4a 60
        E 0 90 56 60
        E 0 90 62 60
        E 120 80 1f 00
        E 0 80 4a 00
        E 0 80 56 00
        E 0 80 62 00
        E 120 90 1f 60
        E 0 90 56 60
        E 0 90 62 60
        E 120 80 1f 00
        E 0 80 56 00
        E 0 80 62 00
        E 120 90 18 60
        E 0 90 1f 60
        E 0 90 3e 60
        E 0 90 48 60
        E 0 90 4a 60
        E 0 90 54 60
        E 0 90 56 60
        E 0 90 60 60
        E 0 90 62 60
        E 120 80 18 00
        E 0 80 1f 00
        E 0 80 3e 00
        E 0 80 48 00
        E 0 80 4a 00
        E 0 80 54 00
        E 0 80 56 00
        E 0 80 60 00
        E 0 80 62 00
        E 120 90 1f 60
        E 0 90 56 60
        E 0 90 62 60
        E 120 80 1f 00
        E 0 80 56 00
        E 0 80 62 00
        E 120 90 1f 60
        E 0 90 4a 60
        E 0 90 56 60
        E 0 90 62 60
        E 120 80 1f 00
        E 0 80 4a 00
        E 0 80 56 00
        E 0 80 62 00
        E 120 90 1f 60
        E 0 90 56 60
        E 0 90 62 60
        E 120 80 1f 00
        E 0 80 56 00
        E 0 80 62 00
        E 120 90 1a 60
        E 0 90 1f 60
        E 0 90 3d 60
        E 0 90 3e 60
        E 0 90 49 60
        E 0 90 4a 60
        E 0 90 55 60
        E 0 90 56 60
        E 0 90 61 60
        E 0 90 62 60
        E 120 80 1a 00
        E 0 80 1f 00
        E 0 80 3d 00
        E 0 80 3e 00
        E 0 80 49 00
        E 0 80 4a 00
        E 0 80 55 00
        E 0 80 56 00
        E 0 80 61 00
        E 0 80 62 00
        E 120 90 1f 60
        E 0 90 56 60
        E 0 90 62 60
        E 120 80 1f 00
        E 0 80 56 00
        E 0 80 62 00
        E 120 90 1f 60
        E 0 90 4a 60
        E 0 90 56 60
        E 0 90 62 60
        E 120 80 1f 00
        E 0 80 4a 00
        E 0 80 56 00
        E 0 80 62 00
        E 120 90 1f 60
        E 0 90 56 60
        E 0 90 62 60
        E 120 80 1f 00
        E 0 80 56 00
        E 0 80 62 00
        E 120 90 18 60
        E 0 90 1f 60
        E 0 90 3e 60
        E 0 90 48 60
        E 0 90 4a 60
        E 0 90 54 60
        E 0 90 56 60
        E 0 90 60 60
        E 0 90 62 60
        E 120 80 18 00
        E 0 80 1f 00
        E 0 80 3e 00
        E 0 80 48 00
        E 0 80 4a 00
        E 0 80 54 00
        E 0 80 56 00
        E 0 80 60 00
        E 0 80 62 00
        E 120 90 1f 60
        E 0 90 56 60
        E 0 90 62 60
        E 120 80 1f 00
        E 0 80 56 00
        E 0 80 62 00
        E 120 90 1f 60
        E 0 90 4a 60
        E 0 90 56 60
        E 0 90 62 60
        E 120 80 1f 00
        E 0 80 4a 00
        E 0 80 56 00
        E 0 80 62 00
        E 120 90 1a 60
        E 0 90 1f 60
        E 0 90 55 60
        E 0 90 56 60
        E 0 90 61 60
        E 0 90 62 60
        E 120 80 1a 00
        E 0 80 1f 00
        E 0 80 55 00
        E 0 80 56 00
        E 0 80 61 00
        E 0 80 62 00
        E 120 90 1f 60
        E 0 90 3e 60
        E 0 90 4a 60
        E 0 90 56 60
        E 0 90 62 60
        E 120 80 1f 00
        E 0 80 3e 00
        E 0 80 4a 00
        E 0 80 56 00
        E 0 80 62 00
        E 120 90 1a 60
        E 0 90 1f 60
        E 0 90 55 60
        E 0 90 56 60
        E 0 90 61 60
        E 0 90 62 60
        E 120 80 1a 00
        E 0 80 1f 00
        E 0 80 55 00
        E 0 80 56 00
        E 0 80 61 00
        E 0 80 62 00
        E 120 90 1f 60
        E 0 90 4a 60
        E 0 90 56 60
        E 0 90 62 60
        E 120 80 1f 00
        E 0 80 4a 00
        E 0 80 56 00
        E 0 80 62 00
        E 120 90 1f 60
        E 0 90 56 60
        E 0 90 62 60
        E 120 80 1f 00
        E 0 80 56 00
        E 0 80 62 00
        E 120 90 18 60
        E 0 90 1f 60
        E 0 90 3e 60
        E 0 90 48 60
        E 0 90 4a 60
        E 0 90 54 60
        E 0 90 56 60
        E 0 90 60 60
        E 0 90 62 60
        E 120 80 18 00
        E 0 80 1f 00
        E 0 80 3e 00
        E 0 80 48 00
        E 0 80 4a 00
        E 0 80 54 00
        E 0 80 56 00
        E 0 80 60 00
        E 0 80 62 00
        E 120 90 1f 60
        E 0 90 56 60
        E 0 90 62 60
        E 120 80 1f 00
        E 0 80 56 00
        E 0 80 62 00
        E 120 90 1f 60
        E 0 90 4a 60
        E 0 90 56 60
        E 0 90 62 60
        E 120 80 1f 00
        E 0 80 4a 00
        E 0 80 56 00
        E 0 80 62 00
        E 120 90 1f 60
        E 0 90 56 60
        E 0 90 62 60
        E 120 80 1f 00
        E 0 80 56 00
        E 0 80 62 00
        E 120 90 1a 60
        E 0 90 1f 60
        E 0 90 3d 60
        E 0 90 3e 60
        E 0 90 49 60
        E 0 90 4a 60
        E 0 90 55 60
        E 0 90 56 60
        E 0 90 61 60
        E 0 90 62 60
        E 120 80 1a 00
        E 0 80 1f 00
        E 0 80 3d 00
        E 0 80 3e 00
        E 0 80 49 00
        E 0 80 4a 00
        E 0 80 55 00
        E 0 80 56 00
        E 0 80 61 00
        E 0 80 62 00
        E 120 90 1f 60
        E 0 90 56 60
        E 0 90 62 60
        E 120 80 1f 00
        E 0 80 56 00
        E 0 80 62 00
        E 120 90 1f 60
        E 0 90 4a 60
        E 0 90 56 60
        E 0 90 62 60
        E 120 80 1f 00
        E 0 80 4a 00
        E 0 80 56 00
        E 0 80 62 00
        E 120 90 1f 60
        E 0 90 56 60
        E 0 90 62 60
        E 120 80 1f 00
        E 0 80 56 00
        E 0 80 62 00
        E 120 90 18 60
        E 0 90 1f 60
        E 0 90 3e 60
        E 0 90 48 60
        E 0 90 4a 60
        E 0 90 54 60
        E 0 90 56 60
        E 0 90 60 60
        E 0 90 62 60
        E 0 90 78 60
        E 0 90 79 60
        E 0 90 7a 60
        E 0 90 7b 60
        E 0 90 7c 60
        E 120 80 18 00
        E 0 80 1f 00
        E 0 80 3e 00
        E 0 80 48 00
        E 0 80 4a 00
        E 0 80 54 00
        E 0 80 56 00
        E 0 80 60 00
        E 0 80 62 00
        E 120 90 1f 60
        E 0 90 56 60
        E 0 90 62 60
        E 120 80 1f 00
        E 0 80 56 00
        E 0 80 62 00
        E 120 90 1f 60
        E 0 90 4a 60
        E 0 90 56 60
        E 0 90 62 60
        E 120 80 1f 00
        E 0 80 4a 00
        E 0 80 56 00
        E 0 80 62 00
        E 120 90 1a 60
        E 0 90 1f 60
        E 0 90 55 60
        E 0 90 56 60
        E 0 90 61 60
        E 0 90 62 60
        E 120 80 1a 00
        E 0 80 1f 00
        E 0 80 55 00
        E 0 80 56 00
        E 0 80 61 00
        E 0 80 62 00
        E 120 90 19 60
        E 0 90 1f 60
        E 0 90 3f 60
        E 0 90 4b 60
        E 0 90 57 60
        E 0 90 63 60
        E 120 80 1f 00
        E 0 80 3f 00
        E 0 80 4b 00
        E 0 80 57 00
        E 0 80 63 00
        E 120 90 1a 60
        E 0 90 55 60
        E 0 90 61 60
        E 120 80 1a 00
        E 0 80 55 00
        E 0 80 61 00
        E 120 90 1b 60
        E 0 90 49 60
        E 0 90 55 60
        E 0 90 61 60
        E 120 80 1b 00
        E 0 80 49 00
        E 0 80 55 00
        E 0 80 61 00
        E 120 90 1a 60
        E 0 90 55 60
        E 0 90 61 60
        E 120 80 1a 00
        E 0 80 55 00
        E 0 80 61 00
        E 120 80 78 00
        E 0 80 79 00
        E 0 80 7a 00
        E 0 80 7b 00
        E 0 80 7c 00
        E 0 80 19 00
        E 0 90 18 60
        E 0 90 24 60
        E 0 90 40 60
        E 0 90 48 60
        E 0 90 4c 60
        E 0 90 54 60
        E 0 90 58 60
        E 0 90 60 60
        E 0 90 64 60
        E 120 80 18 00
        E 0 80 24 00
        E 0 80 40 00
        E 0 80 48 00
        E 0 80 4c 00
        E 0 80 54 00
        E 0 80 58 00
        E 0 80 60 00
        E 0 80 64 00
        E 360 90 25 60
        E 0 90 4c 60
        E 0 90 58 60
        E 0 90 64 60
        E 120 80 25 00
        E 0 80 4c 00
        E 0 80 58 00
        E 0 80 64 00
        E 360 90 1a 60
        E 0 90 24 60
        E 0 90 3d 60
        E 0 90 40 60
        E 0 90 49 60
        E 0 90 4c 60
        E 0 90 55 60
        E 0 90 58 60
        E 0 90 61 60
        E 0 90 64 60
        E 120 80 1a 00
        E 0 80 24 00
        E 0 80 3d 00
        E 0 80 40 00
        E 0 80 49 00
        E 0 80 4c 00
        E 0 80 55 00
        E 0 80 58 00
        E 0 80 61 00
        E 0 80 64 00
        E 360 90 25 60
        E 0 90 4c 60
        E 0 90 58 60
        E 0 90 64 60
        E 120 80 25 00
        E 0 80 4c 00
        E 0 80 58 00
        E 0 80 64 00
        E 360 90 18 60
        E 0 90 24 60
        E 0 90 40 60
        E 0 90 48 60
        E 0 90 4c 60
        E 0 90 54 60
        E 0 90 58 60
        E 0 90 60 60
        E 0 90 64 60
        E 120 80 18 00
        E 0 80 24 00
        E 0 80 40 00
        E 0 80 48 00
        E 0 80 4c 00
        E 0 80 54 00
        E 0 80 58 00
        E 0 80 60 00
        E 0 80 64 00
        E 361 90 25 60
        E 0 90 4c 60
        E 0 90 58 60
        E 0 90 64 60
        E 120 80 25 00
        E 0 80 4c 00
        E 0 80 58 00
        E 0 80 64 00
        E 119 90 1a 60
        E 0 90 55 60
        E 0 90 61 60
        E 120 80 1a 00
        E 0 80 55 00
        E 0 80 61 00
        E 121 90 24 60
        E 0 90 40 60
        E 0 90 4c 60
        E 0 90 58 60
        E 0 90 64 60
        E 120 80 24 00
        E 0 80 40 00
        E 0 80 4c 00
        E 0 80 58 00
        E 0 80 64 00
        E 119 90 1a 60
        E 0 90 55 60
        E 0 90 61 60
        E 120 80 1a 00
        E 0 80 55 00
        E 0 80 61 00
        E 121 90 25 60
        E 0 90 4c 60
        E 0 90 58 60
        E 0 90 64 60
        E 120 80 25 00
        E 0 80 4c 00
        E 0 80 58 00
        E 0 80 64 00
        E 359 90 18 60
        E 0 90 24 60
        E 0 90 40 60
        E 0 90 48 60
        E 0 90 4c 60
        E 0 90 54 60
        E 0 90 58 60
        E 0 90 60 60
        E 0 90 64 60
        E 0 90 74 60
        E 120 80 18 00
        E 0 80 24 00
        E 0 80 40 00
        E 0 80 48 00
        E 0 80 4c 00
        E 0 80 54 00
        E 0 80 58 00
        E 0 80 60 00
        E 0 80 64 00
        E 361 90 25 60
        E 0 90 4c 60
        E 0 90 58 60
        E 0 90 64 60
        E 120 80 25 00
        E 0 80 4c 00
        E 0 80 58 00
        E 0 80 64 00
        E 359 90 1a 60
        E 0 90 24 60
        E 0 90 3d 60
        E 0 90 40 60
        E 0 90 49 60
        E 0 90 4c 60
        E 0 90 55 60
        E 0 90 58 60
        E 0 90 61 60
        E 0 90 64 60
        E 120 80 1a 00
        E 0 80 24 00
        E 0 80 3d 00
        E 0 80 40 00
        E 0 80 49 00
        E 0 80 4c 00
        E 0 80 55 00
        E 0 80 58 00
        E 0 80 61 00
        E 0 80 64 00
        E 360 90 25 60
        E 0 90 4c 60
        E 0 90 58 60
        E 0 90 64 60
        E 120 80 25 00
        E 0 80 4c 00
        E 0 80 58 00
        E 0 80 64 00
        E 360 90 18 60
        E 0 90 24 60
        E 0 90 40 60
        E 0 90 48 60
        E 0 90 4c 60
        E 0 90 54 60
        E 0 90 58 60
        E 0 90 60 60
        E 0 90 64 60
        E 120 80 18 00
        E 0 80 24 00
        E 0 80 40 00
        E 0 80 48 00
        E 0 80 4c 00
        E 0 80 54 00
        E 0 80 58 00
        E 0 80 60 00
        E 0 80 64 00
        E 361 90 25 60
        E 0 90 4c 60
        E 0 90 58 60
        E 0 90 64 60
        E 120 80 25 00
        E 0 80 4c 00
        E 0 80 58 00
        E 0 80 64 00
        E 119 90 1a 60
        E 0 90 55 60
        E 0 90 61 60
        E 120 80 1a 00
        E 0 80 55 00
        E 0 80 61 00
        E 121 90 24 60
        E 0 90 40 60
        E 0 90 4c 60
        E 0 90 58 60
        E 0 90 64 60
        E 120 80 24 00
        E 0 80 40 00
        E 0 80 4c 00
        E 0 80 58 00
        E 0 80 64 00
        E 119 90 1a 60
        E 0 90 55 60
        E 0 90 61 60
        E 120 80 1a 00
        E 0 80 55 00
        E 0 80 61 00
        E 121 90 25 60
        E 0 90 4c 60
        E 0 90 58 60
        E 0 90 64 60
        E 120 80 25 00
        E 0 80 4c 00
        E 0 80 58 00
        E 0 80 64 00
        E 359 80 74 00
        E 0 90 18 60
        E 0 90 24 60
        E 0 90 40 60
        E 0 90 48 60
        E 0 90 4c 60
        E 0 90 54 60
        E 0 90 58 60
        E 0 90 60 60
        E 0 90 64 60
        E 120 80 18 00
        E 0 80 24 00
        E 0 80 40 00
        E 0 80 48 00
        E 0 80 4c 00
        E 0 80 54 00
        E 0 80 58 00
        E 0 80 60 00
        E 0 80 64 00
        E 360 90 25 60
        E 0 90 4c 60
        E 0 90 58 60
        E 0 90 64 60
        E 120 80 25 00
        E 0 80 4c 00
        E 0 80 58 00
        E 0 80 64 00
        E 360 90 1a 60
        E 0 90 24 60
        E 0 90 3d 60
        E 0 90 40 60
        E 0 90 49 60
        E 0 90 4c 60
        E 0 90 55 60
        E 0 90 58 60
        E 0 90 61 60
        E 0 90 64 60
        E 120 80 1a 00
        E 0 80 24 00
        E 0 80 3d 00
        E 0 80 40 00
        E 0 80 49 00
        E 0 80 4c 00
        E 0 80 55 00
        E 0 80 58 00
        E 0 80 61 00
        E 0 80 64 00
        E 360 90 25 60
        E 0 90 4c 60
        E 0 90 58 60
        E 0 90 64 60
        E 120 80 25 00
        E 0 80 4c 00
        E 0 80 58 00
        E 0 80 64 00
        E 360 90 18 60
        E 0 90 24 60
        E 0 90 40 60
        E 0 90 48 60
        E 0 90 4c 60
        E 0 90 54 60
        E 0 90 58 60
        E 0 90 60 60
        E 0 90 64 60
        E 120 80 18 00
        E 0 80 24 00
        E 0 80 40 00
        E 0 80 48 00
        E 0 80 4c 00
        E 0 80 54 00
        E 0 80 58 00
        E 0 80 60 00
        E 0 80 64 00
        E 361 90 25 60
        E 0 90 4c 60
        E 0 90 58 60
        E 0 90 64 60
        E 120 80 25 00
        E 0 80 4c 00
        E 0 80 58 00
        E 0 80 64 00
        E 119 90 1a 60
        E 0 90 55 60
        E 0 90 61 60
        E 120 80 1a 00
        E 0 80 55 00
        E 0 80 61 00
        E 121 90 24 60
        E 0 90 40 60
        E 0 90 4c 60
        E 0 90 58 60
        E 0 90 64 60
        E 120 80 24 00
        E 0 80 40 00
        E 0 80 4c 00
        E 0 80 58 00
        E 0 80 64 00
        E 119 90 1a 60
        E 0 90 55 60
        E 0 90 61 60
        E 120 80 1a 00
        E 0 80 55 00
        E 0 80 61 00
        E 120 90 25 60
        E 0 90 4c 60
        E 0 90 58 60
        E 0 90 64 60
        E 120 80 25 00
        E 0 80 4c 00
        E 0 80 58 00
        E 0 80 64 00
        E 360 90 18 60
        E 0 90 24 60
        E 0 90 40 60
        E 0 90 48 60
        E 0 90 4c 60
        E 0 90 54 60
        E 0 90 58 60
        E 0 90 60 60
        E 0 90 64 60
        E 120 80 18 00
        E 0 80 24 00
        E 0 80 40 00
        E 0 80 48 00
        E 0 80 4c 00
        E 0 80 54 00
        E 0 80 58 00
        E 0 80 60 00
        E 0 80 64 00
        E 361 90 25 60
        E 0 90 4c 60
        E 0 90 58 60
        E 0 90 64 60
        E 120 80 25 00
        E 0 80 4c 00
        E 0 80 58 00
        E 0 80 64 00
        E 359 90 1a 60
        E 0 90 24 60
        E 0 90 3d 60
        E 0 90 40 60
        E 0 90 49 60
        E 0 90 4c 60
        E 0 90 55 60
        E 0 90 58 60
        E 0 90 61 60
        E 0 90 64 60
        E 120 80 1a 00
        E 0 80 24 00
        E 0 80 3d 00
        E 0 80 40 00
        E 0 80 49 00
        E 0 80 4c 00
        E 0 80 55 00
        E 0 80 58 00
        E 0 80 61 00
        E 0 80 64 00
        E 361 90 25 60
        E 0 90 4c 60
        E 0 90 58 60
        E 0 90 64 60
        E 120 80 25 00
        E 0 80 4c 00
        E 0 80 58 00
        E 0 80 64 00
        E 359 90 18 60
        E 0 90 24 60
        E 0 90 40 60
        E 0 90 48 60
        E 0 90 4c 60
        E 0 90 54 60
        E 0 90 58 60
        E 0 90 60 60
        E 0 90 64 60
        E 0 90 78 60
        E 0 90 79 60
        E 0 90 7a 60
        E 0 90 7b 60
        E 0 90 7c 60
        E 120 80 18 00
        E 0 80 24 00
        E 0 80 40 00
        E 0 80 48 00
        E 0 80 4c 00
        E 0 80 54 00
        E 0 80 58 00
        E 0 80 60 00
        E 0 80 64 00
        E 361 90 25 60
        E 0 90 4c 60
        E 0 90 58 60
        E 0 90 64 60
        E 120 80 25 00
        E 0 80 4c 00
        E 0 80 58 00
        E 0 80 64 00
        E 119 90 1a 60
        E 0 90 55 60
        E 0 90 61 60
        E 120 80 1a 00
        E 0 80 55 00
        E 0 80 61 00
        E 121 90 24 60
        E 0 90 40 60
        E 0 90 4c 60
        E 0 90 58 60
        E 0 90 64 60
        E 120 80 24 00
        E 0 80 40 00
        E 0 80 4c 00
        E 0 80 58 00
        E 0 80 64 00
        E 119 90 1a 60
        E 0 90 55 60
        E 0 90 61 60
        E 120 80 1a 00
        E 0 80 55 00
        E 0 80 61 00
        E 121 90 25 60
        E 0 90 4c 60
        E 0 90 58 60
        E 0 90 64 60
        E 120 80 25 00
        E 0 80 4c 00
        E 0 80 58 00
        E 0 80 64 00
        E 359 80 78 00
        E 0 80 79 00
        E 0 80 7a 00
        E 0 80 7b 00
        E 0 80 7c 00
        E 0 90 18 60
        E 0 90 24 60
        E 0 90 40 60
        E 0 90 48 60
        E 0 90 4c 60
        E 0 90 54 60
        E 0 90 58 60
        E 0 90 60 60
        E 0 90 64 60
        E 120 80 18 00
        E 0 80 24 00
        E 0 80 40 00
        E 0 80 48 00
        E 0 80 4c 00
        E 0 80 54 00
        E 0 80 58 00
        E 0 80 60 00
        E 0 80 64 00
        E 360 90 25 60
        E 0 90 4c 60
        E 0 90 58 60
        E 0 90 64 60
        E 120 80 25 00
        E 0 80 4c 00
        E 0 80 58 00
        E 0 80 64 00
        E 360 90 1a 60
        E 0 90 24 60
        E 0 90 3d 60
        E 0 90 40 60
        E 0 90 49 60
        E 0 90 4c 60
        E 0 90 55 60
        E 0 90 58 60
        E 0 90 61 60
        E 0 90 64 60
        E 120 80 1a 00
        E 0 80 24 00
        E 0 80 3d 00
        E 0 80 40 00
        E 0 80 49 00
        E 0 80 4c 00
        E 0 80 55 00
        E 0 80 58 00
        E 0 80 61 00
        E 0 80 64 00
        E 360 90 25 60
        E 0 90 4c 60
        E 0 90 58 60
        E 0 90 64 60
        E 120 80 25 00
        E 0 80 4c 00
        E 0 80 58 00
        E 0 80 64 00
        E 360 90 18 60
        E 0 90 24 60
        E 0 90 40 60
        E 0 90 48 60
        E 0 90 4c 60
        E 0 90 54 60
        E 0 90 58 60
        E 0 90 60 60
        E 0 90 64 60
        E 120 80 18 00
        E 0 80 24 00
        E 0 80 40 00
        E 0 80 48 00
        E 0 80 4c 00
        E 0 80 54 00
        E 0 80 58 00
        E 0 80 60 00
        E 0 80 64 00
        E 361 90 25 60
        E 0 90 4c 60
        E 0 90 58 60
        E 0 90 64 60
        E 120 80 25 00
        E 0 80 4c 00
        E 0 80 58 00
        E 0 80 64 00
        E 119 90 1a 60
        E 0 90 55 60
        E 0 90 61 60
        E 120 80 1a 00
        E 0 80 55 00
        E 0 80 61 00
        E 121 90 24 60
        E 0 90 40 60
        E 0 90 4c 60
        E 0 90 58 60
        E 0 90 64 60
        E 120 80 24 00
        E 0 80 40 00
        E 0 80 4c 00
        E 0 80 58 00
        E 0 80 64 00
        E 119 90 1a 60
        E 0 90 55 60
        E 0 90 61 60
        E 120 80 1a 00
        E 0 80 55 00
        E 0 80 61 00
        E 121 90 25 60
        E 0 90 4c 60
        E 0 90 58 60
        E 0 90 64 60
        E 120 80 25 00
        E 0 80 4c 00
        E 0 80 58 00
        E 0 80 64 00
        E 359 90 18 60
        E 0 90 24 60
        E 0 90 40 60
        E 0 90 48 60
        E 0 90 4c 60
        E 0 90 54 60
        E 0 90 58 60
        E 0 90 60 60
        E 0 90 64 60
        E 120 80 18 00
        E 0 80 24 00
        E 0 80 40 00
        E 0 80 48 00
        E 0 80 4c 00
        E 0 80 54 00
        E 0 80 58 00
        E 0 80 60 00
        E 0 80 64 00
        E 361 90 25 60
        E 0 90 4c 60
        E 0 90 58 60
        E 0 90 64 60
        E 120 80 25 00
        E 0 80 4c 00
        E 0 80 58 00
        E 0 80 64 00
        E 359 90 1a 60
        E 0 90 24 60
        E 0 90 3d 60
        E 0 90 40 60
        E 0 90 49 60
        E 0 90 4c 60
        E 0 90 55 60
        E 0 90 58 60
        E 0 90 61 60
        E 0 90 64 60
        E 120 80 1a 00
        E 0 80 24 00
        E 0 80 3d 00
        E 0 80 40 00
        E 0 80 49 00
        E 0 80 4c 00
        E 0 80 55 00
        E 0 80 58 00
        E 0 80 61 00
        E 0 80 64 00
        E 361 90 25 60
        E 0 90 4c 60
        E 0 90 58 60
        E 0 90 64 60
        E 120 80 25 00
        E 0 80 4c 00
        E 0 80 58 00
        E 0 80 64 00
        E 359 90 18 60
        E 0 90 24 60
        E 0 90 40 60
        E 0 90 48 60
        E 0 90 4c 60
        E 0 90 54 60
        E 0 90 58 60
        E 0 90 60 60
        E 0 90 64 60
        E 120 80 18 00
        E 0 80 24 00
        E 0 80 40 00
        E 0 80 48 00
        E 0 80 4c 00
        E 0 80 54 00
        E 0 80 58 00
        E 0 80 60 00
        E 0 80 64 00
        E 361 90 25 60
        E 0 90 4c 60
        E 0 90 58 60
        E 0 90 64 60
        E 120 80 25 00
        E 0 80 4c 00
        E 0 80 58 00
        E 0 80 64 00
        E 119 90 1a 60
        E 0 90 55 60
        E 0 90 61 60
        E 120 80 1a 00
        E 0 80 55 00
        E 0 80 61 00
        E 121 90 24 60
        E 0 90 40 60
        E 0 90 4c 60
        E 0 90 58 60
        E 0 90 64 60
        E 120 80 24 00
        E 0 80 40 00
        E 0 80 4c 00
        E 0 80 58 00
        E 0 80 64 00
        E 119 90 1a 60
        E 0 90 55 60
        E 0 90 61 60
        E 120 80 1a 00
        E 0 80 55 00
        E 0 80 61 00
        E 121 90 25 60
        E 0 90 4c 60
        E 0 90 58 60
        E 0 90 64 60
        E 120 80 25 00
        E 0 80 4c 00
        E 0 80 58 00
        E 0 80 64 00
        E 359 90 18 60
        E 0 90 24 60
        E 0 90 40 60
        E 0 90 48 60
        E 0 90 4c 60
        E 0 90 54 60
        E 0 90 58 60
        E 0 90 60 60
        E 0 90 64 60
        E 0 90 74 60
        E 120 80 18 00
        E 0 80 24 00
        E 0 80 40 00
        E 0 80 48 00
        E 0 80 4c 00
        E 0 80 54 00
        E 0 80 58 00
        E 0 80 60 00
        E 0 80 64 00
        E 360 90 25 60
        E 0 90 4c 60
        E 0 90 58 60
        E 0 90 64 60
        E 120 80 25 00
        E 0 80 4c 00
        E 0 80 58 00
        E 0 80 64 00
        E 360 90 1a 60
        E 0 90 24 60
        E 0 90 3d 60
        E 0 90 40 60
        E 0 90 49 60
        E 0 90 4c 60
        E 0 90 55 60
        E 0 90 58 60
        E 0 90 61 60
        E 0 90 64 60
        E 120 80 1a 00
        E 0 80 24 00
        E 0 80 3d 00
        E 0 80 40 00
        E 0 80 49 00
        E 0 80 4c 00
        E 0 80 55 00
        E 0 80 58 00
        E 0 80 61 00
        E 0 80 64 00
        E 360 90 25 60
        E 0 90 4c 60
        E 0 90 58 60
        E 0 90 64 60
        E 120 80 25 00
        E 0 80 4c 00
        E 0 80 58 00
        E 0 80 64 00
        E 360 90 18 60
        E 0 90 24 60
        E 0 90 40 60
        E 0 90 48 60
        E 0 90 4c 60
        E 0 90 54 60
        E 0 90 58 60
        E 0 90 60 60
        E 0 90 64 60
        E 120 80 18 00
        E 0 80 24 00
        E 0 80 40 00
        E 0 80 48 00
        E 0 80 4c 00
        E 0 80 54 00
        E 0 80 58 00
        E 0 80 60 00
        E 0 80 64 00
        E 361 90 25 60
        E 0 90 4c 60
        E 0 90 58 60
        E 0 90 64 60
        E 120 80 25 00
        E 0 80 4c 00
        E 0 80 58 00
        E 0 80 64 00
        E 119 90 1a 60
        E 0 90 55 60
        E 0 90 61 60
        E 120 80 1a 00
        E 0 80 55 00
        E 0 80 61 00
        E 121 90 24 60
        E 0 90 40 60
        E 0 90 4c 60
        E 0 90 58 60
        E 0 90 64 60
        E 120 80 24 00
        E 0 80 40 00
        E 0 80 4c 00
        E 0 80 58 00
        E 0 80 64 00
        E 119 90 1a 60
        E 0 90 55 60
        E 0 90 61 60
        E 120 80 1a 00
        E 0 80 55 00
        E 0 80 61 00
        E 121 90 25 60
        E 0 90 4c 60
        E 0 90 58 60
        E 0 90 64 60
        E 120 80 25 00
        E 0 80 4c 00
        E 0 80 58 00
        E 0 80 64 00
        E 359 80 74 00
        E 0 90 18 60
        E 0 90 24 60
        E 0 90 40 60
        E 0 90 48 60
        E 0 90 4c 60
        E 0 90 54 60
        E 0 90 58 60
        E 0 90 60 60
        E 0 90 64 60
        E 120 80 18 00
        E 0 80 24 00
        E 0 80 40 00
        E 0 80 48 00
        E 0 80 4c 00
        E 0 80 54 00
        E 0 80 58 00
        E 0 80 60 00
        E 0 80 64 00
        E 361 90 25 60
        E 0 90 4c 60
        E 0 90 58 60
        E 0 90 64 60
        E 120 80 25 00
        E 0 80 4c 00
        E 0 80 58 00
        E 0 80 64 00
        E 359 90 1a 60
        E 0 90 24 60
        E 0 90 3d 60
        E 0 90 40 60
        E 0 90 49 60
        E 0 90 4c 60
        E 0 90 55 60
        E 0 90 58 60
        E 0 90 61 60
        E 0 90 64 60
        E 120 80 1a 00
        E 0 80 24 00
        E 0 80 3d 00
        E 0 80 40 00
        E 0 80 49 00
        E 0 80 4c 00
        E 0 80 55 00
        E 0 80 58 00
        E 0 80 61 00
        E 0 80 64 00
        E 361 90 25 60
        E 0 90 4c 60
        E 0 90 58 60
        E 0 90 64 60
        E 120 80 25 00
        E 0 80 4c 00
        E 0 80 58 00
        E 0 80 64 00
        E 359 90 18 60
        E 0 90 24 60
        E 0 90 40 60
        E 0 90 48 60
        E 0 90 4c 60
        E 0 90 54 60
        E 0 90 58 60
        E 0 90 60 60
        E 0 90 64 60
        E 0 90 78 60
        E 0 90 79 60
        E 0 90 7a 60
        E 0 90 7b 60
        E 0 90 7c 60
        E 120 80 18 00
        E 0 80 24 00
        E 0 80 40 00
        E 0 80 48 00
        E 0 80 4c 00
        E 0 80 54 00
        E 0 80 58 00
        E 0 80 60 00
        E 0 80 64 00
        E 361 90 25 60
        E 0 90 4c 60
        E 0 90 58 60
        E 0 90 64 60
        E 120 80 25 00
        E 0 80 4c 00
        E 0 80 58 00
        E 0 80 64 00
        E 119 90 1a 60
        E 0 90 55 60
        E 0 90 61 60
        E 120 80 1a 00
        E 0 80 55 00
        E 0 80 61 00
        E 120 90 1b 60
        E 0 90 3d 60
        E 0 90 49 60
        E 0 90 55 60
        E 0 90 61 60
        E 120 80 1b 00
        E 0 80 3d 00
        E 0 80 49 00
        E 0 80 55 00
        E 0 80 61 00
        E 120 90 1a 60
        E 0 90 55 60
        E 0 90 61 60
        E 120 80 1a 00
        E 0 80 55 00
        E 0 80 61 00
        E 120 90 1b 60
        E 0 90 49 60
        E 0 90 55 60
        E 0 90 61 60
        E 120 80 1b 00
        E 0 80 49 00
        E 0 80 55 00
        E 0 80 61 00
        E 120 90 1a 60
        E 0 90 55 60
        E 0 90 61 60
        E 120 80 1a 00
        E 0 80 55 00
        E 0 80 61 00
        <X 120 0
          /wFbaWRsZV0=
        >
        E 0 80 78 00
        E 0 80 79 00
        E 0 80 7a 00
        E 0 80 7b 00
        E 0 80 7c 00
        E 24960 90 78 60
        E 0 90 79 60
        E 0 90 7a 60
        E 0 90 7b 60
        E 0 90 7c 60
        <X 1920 0
          /wFbcGxheV0=
        >
        E 0 80 78 00
        E 0 80 79 00
        E 0 80 7a 00
        E 0 80 7b 00
        E 0 80 7c 00
        E 0 90 18 60
        E 0 90 3c 60
        E 0 90 48 60
        E 0 90 54 60
        E 0 90 60 60
        E 120 80 18 00
        E 0 80 3c 00
        E 0 80 48 00
        E 0 80 54 00
        E 0 80 60 00
        E 840 90 18 60
        E 0 90 3c 60
        E 0 90 48 60
        E 0 90 54 60
        E 0 90 60 60
        E 120 80 18 00
        E 0 80 3c 00
        E 0 80 48 00
        E 0 80 54 00
        E 0 80 60 00
        E 840 90 18 60
        E 0 90 3c 60
        E 0 90 48 60
        E 0 90 54 60
        E 0 90 60 60
        E 120 80 18 00
        E 0 80 3c 00
        E 0 80 48 00
        E 0 80 54 00
        E 0 80 60 00
        E 840 90 18 60
        E 0 90 3c 60
        E 0 90 48 60
        E 0 90 54 60
        E 0 90 60 60
        E 120 80 18 00
        E 0 80 3c 00
        E 0 80 48 00
        E 0 80 54 00
        E 0 80 60 00
        E 840 90 18 60
        E 0 90 3c 60
        E 0 90 48 60
        E 0 90 54 60
        E 0 90 60 60
        E 120 80 18 00
        E 0 80 3c 00
        E 0 80 48 00
        E 0 80 54 00
        E 0 80 60 00
        E 840 90 18 60
        E 0 90 3c 60
        E 0 90 48 60
        E 0 90 54 60
        E 0 90 60 60
        E 120 80 18 00
        E 0 80 3c 00
        E 0 80 48 00
        E 0 80 54 00
        E 0 80 60 00
        E 840 90 18 60
        E 0 90 3c 60
        E 0 90 48 60
        E 0 90 54 60
        E 0 90 60 60
        E 120 80 18 00
        E 0 80 3c 00
        E 0 80 48 00
        E 0 80 54 00
        E 0 80 60 00
        E 840 90 18 60
        E 0 90 3c 60
        E 0 90 48 60
        E 0 90 54 60
        E 0 90 60 60
        E 120 80 18 00
        E 0 80 3c 00
        E 0 80 48 00
        E 0 80 54 00
        E 0 80 60 00
        E 840 90 18 60
        E 0 90 3c 60
        E 0 90 48 60
        E 0 90 54 60
        E 0 90 60 60
        E 120 80 18 00
        E 0 80 3c 00
        E 0 80 48 00
        E 0 80 54 00
        E 0 80 60 00
        E 360 90 18 60
        E 0 90 48 60
        E 0 90 54 60
        E 0 90 60 60
        E 120 80 18 00
        E 0 80 48 00
        E 0 80 54 00
        E 0 80 60 00
        E 360 90 18 60
        E 0 90 3c 60
        E 0 90 48 60
        E 0 90 54 60
        E 0 90 60 60
        E 120 80 18 00
        E 0 80 3c 00
        E 0 80 48 00
        E 0 80 54 00
        E 0 80 60 00
        E 360 90 18 60
        E 0 90 48 60
        E 0 90 54 60
        E 0 90 60 60
        E 120 80 18 00
        E 0 80 48 00
        E 0 80 54 00
        E 0 80 60 00
        E 360 90 18 60
        E 0 90 3c 60
        E 0 90 48 60
        E 0 90 54 60
        E 0 90 60 60
        E 120 80 18 00
        E 0 80 3c 00
        E 0 80 48 00
        E 0 80 54 00
        E 0 80 60 00
        E 360 90 18 60
        E 0 90 48 60
        E 0 90 54 60
        E 0 90 60 60
        E 120 80 18 00
        E 0 80 48 00
        E 0 80 54 00
        E 0 80 60 00
        E 360 90 18 60
        E 0 90 3c 60
        E 0 90 48 60
        E 0 90 54 60
        E 0 90 60 60
        E 120 80 18 00
        E 0 80 3c 00
        E 0 80 48 00
        E 0 80 54 00
        E 0 80 60 00
        E 360 90 18 60
        E 0 90 48 60
        E 0 90 54 60
        E 0 90 60 60
        E 120 80 18 00
        E 0 80 48 00
        E 0 80 54 00
        E 0 80 60 00
        E 360 90 18 60
        E 0 90 3c 60
        E 0 90 48 60
        E 0 90 54 60
        E 0 90 60 60
        E 0 90 74 60
        E 120 80 18 00
        E 0 80 3c 00
        E 0 80 48 00
        E 0 80 54 00
        E 0 80 60 00
        E 360 90 18 60
        E 0 90 48 60
        E 0 90 54 60
        E 0 90 60 60
        E 120 80 18 00
        E 0 80 48 00
        E 0 80 54 00
        E 0 80 60 00
        E 360 90 18 60
        E 0 90 3c 60
        E 0 90 48 60
        E 0 90 54 60
        E 0 90 60 60
        E 120 80 18 00
        E 0 80 3c 00
        E 0 80 48 00
        E 0 80 54 00
        E 0 80 60 00
        E 360 90 18 60
        E 0 90 48 60
        E 0 90 54 60
        E 0 90 60 60
        E 120 80 18 00
        E 0 80 48 00
        E 0 80 54 00
        E 0 80 60 00
        E 360 90 18 60
        E 0 90 3c 60
        E 0 90 48 60
        E 0 90 54 60
        E 0 90 60 60
        E 120 80 18 00
        E 0 80 3c 00
        E 0 80 48 00
        E 0 80 54 00
        E 0 80 60 00
        E 360 90 18 60
        E 0 90 48 60
        E 0 90 54 60
        E 0 90 60 60
        E 120 80 18 00
        E 0 80 48 00
        E 0 80 54 00
        E 0 80 60 00
        E 360 90 18 60
        E 0 90 3c 60
        E 0 90 48 60
        E 0 90 54 60
        E 0 90 60 60
        E 120 80 18 00
        E 0 80 3c 00
        E 0 80 48 00
        E 0 80 54 00
        E 0 80 60 00
        E 360 90 18 60
        E 0 90 48 60
        E 0 90 54 60
        E 0 90 60 60
        E 120 80 74 00
        E 0 80 18 00
        E 0 80 48 00
        E 0 80 54 00
        E 0 80 60 00
        E 360 90 26 60
        E 0 90 3f 60
        E 0 90 4b 60
        E 0 90 57 60
        E 0 90 63 60
        E 0 90 78 60
        E 0 90 79 60
        E 0 90 7a 60
        E 0 90 7b 60
        E 0 90 7c 60
        E 120 80 26 00
        E 0 80 3f 00
        E 0 80 4b 00
        E 0 80 57 00
        E 0 80 63 00
        E 120 90 1a 60
        E 0 90 55 60
        E 0 90 61 60
        E 120 80 1a 00
        E 0 80 55 00
        E 0 80 61 00
        E 120 90 24 60
        E 0 90 4c 60
        E 0 90 58 60
        E 0 90 64 60
        E 120 80 24 00
        E 0 80 4c 00
        E 0 80 58 00
        E 0 80 64 00
        E 360 90 1a 60
        E 0 90 25 60
        E 0 90 3d 60
        E 0 90 40 60
        E 0 90 49 60
        E 0 90 4c 60
        E 0 90 55 60
        E 0 90 58 60
        E 0 90 61 60
        E 0 90 64 60
        E 120 80 1a 00
        E 0 80 25 00
        E 0 80 3d 00
        E 0 80 40 00
        E 0 80 49 00
        E 0 80 4c 00
        E 0 80 55 00
        E 0 80 58 00
        E 0 80 61 00
        E 0 80 64 00
        E 120 90 1a 60
        E 0 90 55 60
        E 0 90 61 60
        E 120 80 1a 00
        E 0 80 55 00
        E 0 80 61 00
        E 120 90 18 60
        E 0 90 24 60
        E 0 90 48 60
        E 0 90 4c 60
        E 0 90 54 60
        E 0 90 58 60
        E 0 90 60 60
        E 0 90 64 60
        E 120 80 18 00
        E 0 80 24 00
        E 0 80 48 00
        E 0 80 4c 00
        E 0 80 54 00
        E 0 80 58 00
        E 0 80 60 00
        E 0 80 64 00
        E 120 90 1a 60
        E 0 90 55 60
        E 0 90 61 60
        E 120 80 1a 00
        E 0 80 55 00
        E 0 80 61 00
        <X 120 0
          /wFbaW50ZW5zZV0=
        >
        <X 0 0
          /wFbbWl4IDMgZHJ1bXMwZF0=
        >
        E 0 80 78 00
        E 0 80 79 00
        E 0 80 7a 00
        E 0 80 7b 00
        E 0 80 7c 00
        E 0 90 18 60
        E 0 90 24 60
        E 0 90 40 60
        E 0 90 48 60
        E 0 90 4c 60
        E 0 90 54 60
        E 0 90 58 60
        E 0 90 60 60
        E 0 90 64 60
        E 120 80 18 00
        E 0 80 24 00
        E 0 80 40 00
        E 0 80 48 00
        E 0 80 4c 00
        E 0 80 54 00
        E 0 80 58 00
        E 0 80 60 00
        E 0 80 64 00
        E 0 90 1e 60
        E 0 90 61 60
        E 120 80 1e 00
        E 0 80 61 00
        E 0 90 1f 60
        E 0 90 56 60
        E 0 90 61 60
        E 120 80 1f 00
        E 0 80 56 00
        E 0 80 61 00
        E 0 90 1e 60
        E 0 90 61 60
        E 120 80 1e 00
        E 0 80 61 00
        E 0 90 1b 60
        E 0 90 49 60
        E 0 90 4a 60
        E 0 90 55 60
        E 0 90 56 60
        E 0 90 62 60
        E 120 80 1b 00
        E 0 80 49 00
        E 0 80 4a 00
        E 0 80 55 00
        E 0 80 56 00
        E 0 80 62 00
        E 0 90 1e 60
        E 0 90 61 60
        E 120 80 1e 00
        E 0 80 61 00
        E 0 90 1f 60
        E 0 90 56 60
        E 0 90 61 60
        E 120 80 1f 00
        E 0 80 56 00
        E 0 80 61 00
        E 0 90 1e 60
        E 0 90 61 60
        E 120 80 1e 00
        E 0 80 61 00
        E 0 90 1f 60
        E 0 90 3e 60
        E 0 90 4a 60
        E 0 90 56 60
        E 0 90 61 60
        E 120 80 1f 00
        E 0 80 3e 00
        E 0 80 4a 00
        E 0 80 56 00
        E 0 80 61 00
        E 0 90 1e 60
        E 0 90 61 60
        E 120 80 1e 00
        E 0 80 61 00
        E 0 90 18 60
        E 0 90 1f 60
        E 0 90 54 60
        E 0 90 56 60
        E 0 90 60 60
        E 0 90 61 60
        E 120 80 18 00
        E 0 80 1f 00
        E 0 80 54 00
        E 0 80 56 00
        E 0 80 60 00
        E 0 80 61 00
        E 0 90 1e 60
        E 0 90 61 60
        E 120 80 1e 00
        E 0 80 61 00
        E 0 90 1b 60
        E 0 90 49 60
        E 0 90 4a 60
        E 0 90 55 60
        E 0 90 56 60
        E 0 90 62 60
        E 120 80 1b 00
        E 0 80 49 00
        E 0 80 4a 00
        E 0 80 55 00
        E 0 80 56 00
        E 0 80 62 00
        E 0 90 1e 60
        E 0 90 61 60
        E 120 80 1e 00
        E 0 80 61 00
        E 0 90 1f 60
        E 0 90 56 60
        E 0 90 61 60
        E 120 80 1f 00
        E 0 80 56 00
        E 0 80 61 00
        E 0 90 1e 60
        E 0 90 61 60
        E 120 80 1e 00
        E 0 80 61 00
        E 0 90 18 60
        E 0 90 1f 60
        E 0 90 3e 60
        E 0 90 48 60
        E 0 90 4a 60
        E 0 90 54 60
        E 0 90 56 60
        E 0 90 60 60
        E 0 90 61 60
        E 120 80 18 00
        E 0 80 1f 00
        E 0 80 3e 00
        E 0 80 48 00
        E 0 80 4a 00
        E 0 80 54 00
        E 0 80 56 00
        E 0 80 60 00
        E 0 80 61 00
        E 0 90 1e 60
        E 0 90 61 60
        E 120 80 1e 00
        E 0 80 61 00
        E 0 90 1f 60
        E 0 90 56 60
        E 0 90 61 60
        E 120 80 1f 00
        E 0 80 56 00
        E 0 80 61 00
        E 0 90 1e 60
        E 0 90 61 60
        E 120 80 1e 00
        E 0 80 61 00
        E 0 90 1b 60
        E 0 90 49 60
        E 0 90 4a 60
        E 0 90 55 60
        E 0 90 56 60
        E 0 90 62 60
        E 120 80 1b 00
        E 0 80 49 00
        E 0 80 4a 00
        E 0 80 55 00
        E 0 80 56 00
        E 0 80 62 00
        E 0 90 1e 60
        E 0 90 61 60
        E 120 80 1e 00
        E 0 80 61 00
        E 0 90 1f 60
        E 0 90 56 60
        E 0 90 61 60
        E 120 80 1f 00
        E 0 80 56 00
        E 0 80 61 00
        E 0 90 1e 60
        E 0 90 61 60
        E 120 80 1e 00
        E 0 80 61 00
        E 0 90 1f 60
        E 0 90 3e 60
        E 0 90 4a 60
        E 0 90 56 60
        E 0 90 61 60
        E 120 80 1f 00
        E 0 80 3e 00
        E 0 80 4a 00
        E 0 80 56 00
        E 0 80 61 00
        E 0 90 1e 60
        E 0 90 61 60
        E 120 80 1e 00
        E 0 80 61 00
        E 0 90 18 60
        E 0 90 1f 60
        E 0 90 54 60
        E 0 90 56 60
        E 0 90 60 60
        E 0 90 61 60
        E 120 80 18 00
        E 0 80 1f 00
        E 0 80 54 00
        E 0 80 56 00
        E 0 80 60 00
        E 0 80 61 00
        E 0 90 1e 60
        E 0 90 61 60
        E 120 80 1e 00
        E 0 80 61 00
        E 0 90 1b 60
        E 0 90 49 60
        E 0 90 4a 60
        E 0 90 55 60
        E 0 90 56 60
        E 0 90 62 60
        E 120 80 1b 00
        E 0 80 49 00
        E 0 80 4a 00
        E 0 80 55 00
        E 0 80 56 00
        E 0 80 62 00
        E 0 90 1e 60
        E 0 90 61 60
        E 120 80 1e 00
        E 0 80 61 00
        E 0 90 1f 60
        E 0 90 56 60
        E 0 90 61 60
        E 120 80 1f 00
        E 0 80 56 00
        E 0 80 61 00
        E 0 90 1e 60
        E 0 90 61 60
        E 120 80 1e 00
        E 0 80 61 00
        E 0 90 18 60
        E 0 90 1f 60
        E 0 90 3e 60
        E 0 90 48 60
        E 0 90 4a 60
        E 0 90 54 60
        E 0 90 56 60
        E 0 90 60 60
        E 0 90 61 60
        E 120 80 18 00
        E 0 80 1f 00
        E 0 80 3e 00
        E 0 80 48 00
        E 0 80 4a 00
        E 0 80 54 00
        E 0 80 56 00
        E 0 80 60 00
        E 0 80 61 00
        E 0 90 1e 60
        E 0 90 61 60
        E 120 80 1e 00
        E 0 80 61 00
        E 0 90 1f 60
        E 0 90 56 60
        E 0 90 61 60
        E 120 80 1f 00
        E 0 80 56 00
        E 0 80 61 00
        E 0 90 1e 60
        E 0 90 61 60
        E 120 80 1e 00
        E 0 80 61 00
        E 0 90 1b 60
        E 0 90 49 60
        E 0 90 4a 60
        E 0 90 55 60
        E 0 90 56 60
        E 0 90 62 60
        E 120 80 1b 00
        E 0 80 49 00
        E 0 80 4a 00
        E 0 80 55 00
        E 0 80 56 00
        E 0 80 62 00
        E 0 90 1e 60
        E 0 90 61 60
        E 120 80 1e 00
        E 0 80 61 00
        E 0 90 1f 60
        E 0 90 56 60
        E 0 90 61 60
        E 120 80 1f 00
        E 0 80 56 00
        E 0 80 61 00
        E 0 90 1e 60
        E 0 90 61 60
        E 120 80 1e 00
        E 0 80 61 00
        E 0 90 1f 60
        E 0 90 3e 60
        E 0 90 4a 60
        E 0 90 56 60
        E 0 90 61 60
        E 120 80 1f 00
        E 0 80 3e 00
        E 0 80 4a 00
        E 0 80 56 00
        E 0 80 61 00
        E 0 90 1e 60
        E 0 90 61 60
        E 120 80 1e 00
        E 0 80 61 00
        E 0 90 18 60
        E 0 90 1f 60
        E 0 90 54 60
        E 0 90 56 60
        E 0 90 60 60
        E 0 90 61 60
        E 120 80 18 00
        E 0 80 1f 00
        E 0 80 54 00
        E 0 80 56 00
        E 0 80 60 00
        E 0 80 61 00
        E 0 90 1e 60
        E 0 90 61 60
        E 120 80 1e 00
        E 0 80 61 00
        E 0 90 1b 60
        E 0 90 49 60
        E 0 90 4a 60
        E 0 90 55 60
        E 0 90 56 60
        E 0 90 62 60
        E 120 80 1b 00
        E 0 80 49 00
        E 0 80 4a 00
        E 0 80 55 00
        E 0 80 56 00
        E 0 80 62 00
        E 0 90 1e 60
        E 0 90 61 60
        E 120 80 1e 00
        E 0 80 61 00
        E 0 90 1f 60
        E 0 90 56 60
        E 0 90 61 60
        E 120 80 1f 00
        E 0 80 56 00
        E 0 80 61 00
        E 0 90 1e 60
        E 0 90 61 60
        E 120 80 1e 00
        E 0 80 61 00
        E 0 90 18 60
        E 0 90 1f 60
        E 0 90 3e 60
        E 0 90 48 60
        E 0 90 4a 60
        E 0 90 54 60
        E 0 90 56 60
        E 0 90 60 60
        E 0 90 61 60
        E 120 80 18 00
        E 0 80 1f 00
        E 0 80 3e 00
        E 0 80 48 00
        E 0 80 4a 00
        E 0 80 54 00
        E 0 80 56 00
        E 0 80 60 00
        E 0 80 61 00
        E 0 90 1e 60
        E 0 90 61 60
        E 120 80 1e 00
        E 0 80 61 00
        E 0 90 1f 60
        E 0 90 56 60
        E 0 90 61 60
        E 120 80 1f 00
        E 0 80 56 00
        E 0 80 61 00
        E 0 90 1e 60
        E 0 90 61 60
        E 120 80 1e 00
        E 0 80 61 00
        E 0 90 1b 60
        E 0 90 49 60
        E 0 90 4a 60
        E 0 90 55 60
        E 0 90 56 60
        E 0 90 62 60
        E 120 80 1b 00
        E 0 80 49 00
        E 0 80 4a 00
        E 0 80 55 00
        E 0 80 56 00
        E 0 80 62 00
        E 0 90 1e 60
        E 0 90 61 60
        E 120 80 1e 00
        E 0 80 61 00
        E 0 90 1f 60
        E 0 90 56 60
        E 0 90 61 60
        E 120 80 1f 00
        E 0 80 56 00
        E 0 80 61 00
        E 0 90 1e 60
        E 0 90 61 60
        E 120 80 1e 00
        E 0 80 61 00
        E 0 90 1f 60
        E 0 90 3e 60
        E 0 90 4a 60
        E 0 90 56 60
        E 0 90 61 60
        E 120 80 1f 00
        E 0 80 3e 00
        E 0 80 4a 00
        E 0 80 56 00
        E 0 80 61 00
        E 0 90 1e 60
        E 0 90 61 60
        E 120 80 1e 00
        E 0 80 61 00
        E 0 90 18 60
        E 0 90 1f 60
        E 0 90 54 60
        E 0 90 56 60
        E 0 90 60 60
        E 0 90 61 60
        E 120 80 18 00
        E 0 80 1f 00
        E 0 80 54 00
        E 0 80 56 00
        E 0 80 60 00
        E 0 80 61 00
        E 0 90 1e 60
        E 0 90 61 60
        E 120 80 1e 00
        E 0 80 61 00
        E 0 90 1b 60
        E 0 90 49 60
        E 0 90 4a 60
        E 0 90 55 60
        E 0 90 56 60
        E 0 90 62 60
        E 120 80 1b 00
        E 0 80 49 00
        E 0 80 4a 00
        E 0 80 55 00
        E 0 80 56 00
        E 0 80 62 00
        E 0 90 1e 60
        E 0 90 61 60
        E 120 80 1e 00
        E 0 80 61 00
        E 0 90 1f 60
        E 0 90 56 60
        E 0 90 61 60
        E 120 80 1f 00
        E 0 80 56 00
        E 0 80 61 00
        E 0 90 1e 60
        E 0 90 61 60
        E 120 80 1e 00
        E 0 80 61 00
        E 0 90 18 60
        E 0 90 1f 60
        E 0 90 3e 60
        E 0 90 48 60
        E 0 90 4a 60
        E 0 90 54 60
        E 0 90 56 60
        E 0 90 60 60
        E 0 90 61 60
        E 120 80 18 00
        E 0 80 1f 00
        E 0 80 3e 00
        E 0 80 48 00
        E 0 80 4a 00
        E 0 80 54 00
        E 0 80 56 00
        E 0 80 60 00
        E 0 80 61 00
        E 0 90 1e 60
        E 0 90 61 60
        E 120 80 1e 00
        E 0 80 61 00
        E 0 90 1f 60
        E 0 90 56 60
        E 0 90 61 60
        E 120 80 1f 00
        E 0 80 56 00
        E 0 80 61 00
        E 0 90 1e 60
        E 0 90 61 60
        E 120 80 1e 00
        E 0 80 61 00
        E 0 90 1b 60
        E 0 90 49 60
        E 0 90 4a 60
        E 0 90 55 60
        E 0 90 56 60
        E 0 90 62 60
        E 120 80 1b 00
        E 0 80 49 00
        E 0 80 4a 00
        E 0 80 55 00
        E 0 80 56 00
        E 0 80 62 00
        E 0 90 1e 60
        E 0 90 61 60
        E 120 80 1e 00
        E 0 80 61 00
        E 0 90 1f 60
        E 0 90 56 60
        E 0 90 61 60
        E 120 80 1f 00
        E 0 80 56 00
        E 0 80 61 00
        E 0 90 1e 60
        E 0 90 61 60
        E 120 80 1e 00
        E 0 80 61 00
        E 0 90 1f 60
        E 0 90 3e 60
        E 0 90 4a 60
        E 0 90 56 60
        E 0 90 61 60
        E 120 80 1f 00
        E 0 80 3e 00
        E 0 80 4a 00
        E 0 80 56 00
        E 0 80 61 00
        E 0 90 1e 60
        E 0 90 61 60
        E 120 80 1e 00
        E 0 80 61 00
        E 0 90 18 60
        E 0 90 1f 60
        E 0 90 54 60
        E 0 90 56 60
        E 0 90 60 60
        E 0 90 61 60
        E 120 80 18 00
        E 0 80 1f 00
        E 0 80 54 00
        E 0 80 56 00
        E 0 80 60 00
        E 0 80 61 00
        E 0 90 1e 60
        E 0 90 61 60
        E 120 80 1e 00
        E 0 80 61 00
        E 0 90 1b 60
        E 0 90 49 60
        E 0 90 4a 60
        E 0 90 55 60
        E 0 90 56 60
        E 0 90 62 60
        E 120 80 1b 00
        E 0 80 49 00
        E 0 80 4a 00
        E 0 80 55 00
        E 0 80 56 00
        E 0 80 62 00
        E 0 90 1e 60
        E 0 90 61 60
        E 120 80 1e 00
        E 0 80 61 00
        E 0 90 1f 60
        E 0 90 56 60
        E 0 90 61 60
        E 120 80 1f 00
        E 0 80 56 00
        E 0 80 61 00
        E 0 90 1e 60
        E 0 90 61 60
        E 120 80 1e 00
        E 0 80 61 00
        E 0 90 18 60
        E 0 90 1f 60
        E 0 90 3e 60
        E 0 90 48 60
        E 0 90 4a 60
        E 0 90 54 60
        E 0 90 56 60
        E 0 90 60 60
        E 0 90 61 60
        E 120 80 18 00
        E 0 80 1f 00
        E 0 80 3e 00
        E 0 80 48 00
        E 0 80 4a 00
        E 0 80 54 00
        E 0 80 56 00
        E 0 80 60 00
        E 0 80 61 00
        E 0 90 1e 60
        E 0 90 61 60
        E 120 80 1e 00
        E 0 80 61 00
        E 0 90 1f 60
        E 0 90 56 60
        E 0 90 61 60
        E 120 80 1f 00
        E 0 80 56 00
        E 0 80 61 00
        E 0 90 1e 60
        E 0 90 61 60
        E 120 80 1e 00
        E 0 80 61 00
        E 0 90 1b 60
        E 0 90 49 60
        E 0 90 4a 60
        E 0 90 55 60
        E 0 90 56 60
        E 0 90 62 60
        E 120 80 1b 00
        E 0 80 49 00
        E 0 80 4a 00
        E 0 80 55 00
        E 0 80 56 00
        E 0 80 62 00
        E 0 90 1e 60
        E 0 90 61 60
        E 120 80 1e 00
        E 0 80 61 00
        E 0 90 1f 60
        E 0 90 56 60
        E 0 90 61 60
        E 120 80 1f 00
        E 0 80 56 00
        E 0 80 61 00
        E 0 90 1e 60
        E 0 90 61 60
        E 120 80 1e 00
        E 0 80 61 00
        E 0 90 1f 60
        E 0 90 3e 60
        E 0 90 4a 60
        E 0 90 56 60
        E 0 90 61 60
        E 120 80 1f 00
        E 0 80 3e 00
        E 0 80 4a 00
        E 0 80 56 00
        E 0 80 61 00
        E 0 90 1e 60
        E 0 90 61 60
        E 120 80 1e 00
        E 0 80 61 00
        E 0 90 18 60
        E 0 90 1f 60
        E 0 90 54 60
        E 0 90 56 60
        E 0 90 60 60
        E 0 90 61 60
        E 120 80 18 00
        E 0 80 1f 00
        E 0 80 54 00
        E 0 80 56 00
        E 0 80 60 00
        E 0 80 61 00
        E 0 90 1e 60
        E 0 90 61 60
        E 120 80 1e 00
        E 0 80 61 00
        E 0 90 1b 60
        E 0 90 49 60
        E 0 90 4a 60
        E 0 90 55 60
        E 0 90 56 60
        E 0 90 62 60
        E 120 80 1b 00
        E 0 80 49 00
        E 0 80 4a 00
        E 0 80 55 00
        E 0 80 56 00
        E 0 80 62 00
        E 0 90 1e 60
        E 0 90 61 60
        E 120 80 1e 00
        E 0 80 61 00
        E 0 90 1f 60
        E 0 90 56 60
        E 0 90 61 60
        E 120 80 1f 00
        E 0 80 56 00
        E 0 80 61 00
        E 0 90 1e 60
        E 0 90 61 60
        E 120 80 1e 00
        E 0 80 61 00
        E 0 90 18 60
        E 0 90 1f 60
        E 0 90 3e 60
        E 0 90 48 60
        E 0 90 4a 60
        E 0 90 54 60
        E 0 90 56 60
        E 0 90 60 60
        E 0 90 61 60
        E 120 80 18 00
        E 0 80 1f 00
        E 0 80 3e 00
        E 0 80 48 00
        E 0 80 4a 00
        E 0 80 54 00
        E 0 80 56 00
        E 0 80 60 00
        E 0 80 61 00
        E 0 90 1e 60
        E 0 90 61 60
        E 120 80 1e 00
        E 0 80 61 00
        E 0 90 1f 60
        E 0 90 56 60
        E 0 90 61 60
        E 120 80 1f 00
        E 0 80 56 00
        E 0 80 61 00
        E 0 90 1e 60
        E 0 90 61 60
        E 120 80 1e 00
        E 0 80 61 00
        E 0 90 1b 60
        E 0 90 49 60
        E 0 90 4a 60
        E 0 90 55 60
        E 0 90 56 60
        E 0 90 62 60
        E 120 80 1b 00
        E 0 80 49 00
        E 0 80 4a 00
        E 0 80 55 00
        E 0 80 56 00
        E 0 80 62 00
        E 0 90 1e 60
        E 0 90 61 60
        E 120 80 1e 00
        E 0 80 61 00
        E 0 90 1f 60
        E 0 90 56 60
        E 0 90 61 60
        E 120 80 1f 00
        E 0 80 56 00
        E 0 80 61 00
        E 0 90 1e 60
        E 0 90 61 60
        E 120 80 1e 00
        E 0 80 61 00
        E 0 90 1f 60
        E 0 90 3e 60
        E 0 90 4a 60
        E 0 90 56 60
        E 0 90 61 60
        E 120 80 1f 00
        E 0 80 3e 00
        E 0 80 4a 00
        E 0 80 56 00
        E 0 80 61 00
        E 0 90 1e 60
        E 0 90 61 60
        E 120 80 1e 00
        E 0 80 61 00
        E 0 90 18 60
        E 0 90 1f 60
        E 0 90 54 60
        E 0 90 56 60
        E 0 90 60 60
        E 0 90 61 60
        E 120 80 18 00
        E 0 80 1f 00
        E 0 80 54 00
        E 0 80 56 00
        E 0 80 60 00
        E 0 80 61 00
        E 0 90 1e 60
        E 0 90 61 60
        E 120 80 1e 00
        E 0 80 61 00
        E 0 90 1b 60
        E 0 90 49 60
        E 0 90 4a 60
        E 0 90 55 60
        E 0 90 56 60
        E 0 90 62 60
        E 120 80 1b 00
        E 0 80 49 00
        E 0 80 4a 00
        E 0 80 55 00
        E 0 80 56 00
        E 0 80 62 00
        E 0 90 1e 60
        E 0 90 61 60
        E 120 80 1e 00
        E 0 80 61 00
        E 0 90 1f 60
        E 0 90 56 60
        E 0 90 61 60
        E 120 80 1f 00
        E 0 80 56 00
        E 0 80 61 00
        E 0 90 1e 60
        E 0 90 61 60
        E 120 80 1e 00
        E 0 80 61 00
        E 0 90 18 60
        E 0 90 1f 60
        E 0 90 3e 60
        E 0 90 48 60
        E 0 90 4a 60
        E 0 90 54 60
        E 0 90 56 60
        E 0 90 60 60
        E 0 90 61 60
        E 0 90 78 60
        E 0 90 79 60
        E 0 90 7a 60
        E 0 90 7b 60
        E 0 90 7c 60
        E 120 80 18 00
        E 0 80 1f 00
        E 0 80 3e 00
        E 0 80 48 00
        E 0 80 4a 00
        E 0 80 54 00
        E 0 80 56 00
        E 0 80 60 00
        E 0 80 61 00
        E 0 90 1e 60
        E 0 90 61 60
        E 120 80 1e 00
        E 0 80 61 00
        E 0 90 1f 60
        E 0 90 56 60
        E 0 90 61 60
        E 120 80 1f 00
        E 0 80 56 00
        E 0 80 61 00
        E 0 90 1e 60
        E 0 90 61 60
        E 120 80 1e 00
        E 0 80 61 00
        E 0 90 1b 60
        E 0 90 49 60
        E 0 90 4a 60
        E 0 90 55 60
        E 0 90 56 60
        E 0 90 62 60
        E 120 80 1b 00
        E 0 80 49 00
        E 0 80 4a 00
        E 0 80 55 00
        E 0 80 56 00
        E 0 80 62 00
        E 0 90 1e 60
        E 0 90 61 60
        E 120 80 1e 00
        E 0 80 61 00
        E 0 90 1f 60
        E 0 90 56 60
        E 0 90 61 60
        E 120 80 1f 00
        E 0 80 56 00
        E 0 80 61 00
        E 0 90 1e 60
        E 0 90 61 60
        E 120 80 1e 00
        E 0 80 61 00
        E 0 90 1f 60
        E 0 90 3e 60
        E 0 90 4a 60
        E 0 90 56 60
        E 0 90 61 60
        E 120 80 1f 00
        E 0 80 3e 00
        E 0 80 4a 00
        E 0 80 56 00
        E 0 80 61 00
        E 0 90 1e 60
        E 0 90 61 60
        E 120 80 1e 00
        E 0 80 61 00
        E 0 90 18 60
        E 0 90 1f 60
        E 0 90 54 60
        E 0 90 56 60
        E 0 90 60 60
        E 0 90 61 60
        E 120 80 18 00
        E 0 80 1f 00
        E 0 80 54 00
        E 0 80 56 00
        E 0 80 60 00
        E 0 80 61 00
        E 0 90 1e 60
        E 0 90 61 60
        E 120 80 1e 00
        E 0 80 61 00
        E 0 90 1b 60
        E 0 90 49 60
        E 0 90 4a 60
        E 0 90 55 60
        E 0 90 56 60
        E 0 90 62 60
        E 120 80 1b 00
        E 0 80 49 00
        E 0 80 4a 00
        E 0 80 55 00
        E 0 80 56 00
        E 0 80 62 00
        E 0 90 1e 60
        E 0 90 61 60
        E 120 80 1e 00
        E 0 80 61 00
        E 0 90 1f 60
        E 0 90 56 60
        E 0 90 61 60
        E 120 80 1f 00
        E 0 80 56 00
        E 0 80 61 00
        E 0 90 1e 60
        E 0 90 61 60
        E 120 80 78 00
        E 0 80 79 00
        E 0 80 7a 00
        E 0 80 7b 00
        E 0 80 7c 00
        E 0 80 1e 00
        E 0 80 61 00
        E 0 90 18 60
        E 0 90 25 60
        E 0 90 40 60
        E 0 90 48 60
        E 0 90 4c 60
        E 0 90 54 60
        E 0 90 58 60
        E 0 90 60 60
        E 0 90 64 60
        E 120 80 18 00
        E 0 80 25 00
        E 0 80 40 00
        E 0 80 48 00
        E 0 80 4c 00
        E 0 80 54 00
        E 0 80 58 00
        E 0 80 60 00
        E 0 80 64 00
        E 0 90 1e 60
        E 0 90 61 60
        E 120 80 1e 00
        E 0 80 61 00
        E 0 90 1f 60
        E 0 90 56 60
        E 0 90 61 60
        E 120 80 1f 00
        E 0 80 56 00
        E 0 80 61 00
        E 0 90 1e 60
        E 0 90 61 60
        E 120 80 1e 00
        E 0 80 61 00
        E 0 90 1b 60
        E 0 90 49 60
        E 0 90 4a 60
        E 0 90 55 60
        E 0 90 56 60
        E 0 90 62 60
        E 120 80 1b 00
        E 0 80 49 00
        E 0 80 4a 00
        E 0 80 55 00
        E 0 80 56 00
        E 0 80 62 00
        E 0 90 1e 60
        E 0 90 61 60
        E 120 80 1e 00
        E 0 80 61 00
        E 0 90 1f 60
        E 0 90 56 60
        E 0 90 61 60
        E 120 80 1f 00
        E 0 80 56 00
        E 0 80 61 00
        E 0 90 1e 60
        E 0 90 61 60
        E 120 80 1e 00
        E 0 80 61 00
        E 0 90 1f 60
        E 0 90 3e 60
        E 0 90 4a 60
        E 0 90 56 60
        E 0 90 61 60
        E 120 80 1f 00
        E 0 80 3e 00
        E 0 80 4a 00
        E 0 80 56 00
        E 0 80 61 00
        E 0 90 1e 60
        E 0 90 61 60
        E 120 80 1e 00
        E 0 80 61 00
        E 0 90 18 60
        E 0 90 1f 60
        E 0 90 54 60
        E 0 90 56 60
        E 0 90 60 60
        E 0 90 61 60
        E 120 80 18 00
        E 0 80 1f 00
        E 0 80 54 00
        E 0 80 56 00
        E 0 80 60 00
        E 0 80 61 00
        E 0 90 1e 60
        E 0 90 61 60
        E 120 80 1e 00
        E 0 80 61 00
        E 0 90 1b 60
        E 0 90 49 60
        E 0 90 4a 60
        E 0 90 55 60
        E 0 90 56 60
        E 0 90 62 60
        E 120 80 1b 00
        E 0 80 49 00
        E 0 80 4a 00
        E 0 80 55 00
        E 0 80 56 00
        E 0 80 62 00
        E 0 90 1e 60
        E 0 90 61 60
        E 120 80 1e 00
        E 0 80 61 00
        E 0 90 1f 60
        E 0 90 56 60
        E 0 90 61 60
        E 120 80 1f 00
        E 0 80 56 00
        E 0 80 61 00
        E 0 90 1e 60
        E 0 90 61 60
        E 120 80 1e 00
        E 0 80 61 00
        E 0 90 18 60
        E 0 90 1f 60
        E 0 90 3e 60
        E 0 90 48 60
        E 0 90 4a 60
        E 0 90 54 60
        E 0 90 56 60
        E 0 90 60 60
        E 0 90 61 60
        E 120 80 18 00
        E 0 80 1f 00
        E 0 80 3e 00
        E 0 80 48 00
        E 0 80 4a 00
        E 0 80 54 00
        E 0 80 56 00
        E 0 80 60 00
        E 0 80 61 00
        E 0 90 1e 60
        E 0 90 61 60
        E 120 80 1e 00
        E 0 80 61 00
        E 0 90 1f 60
        E 0 90 56 60
        E 0 90 61 60
        E 120 80 1f 00
        E 0 80 56 00
        E 0 80 61 00
        E 0 90 1e 60
        E 0 90 61 60
        E 120 80 1e 00
        E 0 80 61 00
        E 0 90 1b 60
        E 0 90 49 60
        E 0 90 4a 60
        E 0 90 55 60
        E 0 90 56 60
        E 0 90 62 60
        E 120 80 1b 00
        E 0 80 49 00
        E 0 80 4a 00
        E 0 80 55 00
        E 0 80 56 00
        E 0 80 62 00
        E 0 90 1e 60
        E 0 90 61 60
        E 120 80 1e 00
        E 0 80 61 00
        E 0 90 1f 60
        E 0 90 56 60
        E 0 90 61 60
        E 120 80 1f 00
        E 0 80 56 00
        E 0 80 61 00
        E 0 90 1e 60
        E 0 90 61 60
        E 120 80 1e 00
        E 0 80 61 00
        E 0 90 1f 60
        E 0 90 3e 60
        E 0 90 4a 60
        E 0 90 56 60
        E 0 90 61 60
        E 120 80 1f 00
        E 0 80 3e 00
        E 0 80 4a 00
        E 0 80 56 00
        E 0 80 61 00
        E 0 90 1e 60
        E 0 90 61 60
        E 120 80 1e 00
        E 0 80 61 00
        E 0 90 18 60
        E 0 90 1f 60
        E 0 90 54 60
        E 0 90 56 60
        E 0 90 60 60
        E 0 90 61 60
        E 120 80 18 00
        E 0 80 1f 00
        E 0 80 54 00
        E 0 80 56 00
        E 0 80 60 00
        E 0 80 61 00
        E 0 90 1e 60
        E 0 90 61 60
        E 120 80 1e 00
        E 0 80 61 00
        E 0 90 1b 60
        E 0 90 49 60
        E 0 90 4a 60
        E 0 90 55 60
        E 0 90 56 60
        E 0 90 62 60
        E 120 80 1b 00
        E 0 80 49 00
        E 0 80 4a 00
        E 0 80 55 00
        E 0 80 56 00
        E 0 80 62 00
        E 0 90 1e 60
        E 0 90 61 60
        E 120 80 1e 00
        E 0 80 61 00
        E 0 90 1f 60
        E 0 90 56 60
        E 0 90 61 60
        E 120 80 1f 00
        E 0 80 56 00
        E 0 80 61 00
        E 0 90 1e 60
        E 0 90 61 60
        E 120 80 1e 00
        E 0 80 61 00
        E 0 90 18 60
        E 0 90 1f 60
        E 0 90 3e 60
        E 0 90 48 60
        E 0 90 4a 60
        E 0 90 54 60
        E 0 90 56 60
        E 0 90 60 60
        E 0 90 61 60
        E 0 90 74 60
        E 120 80 18 00
        E 0 80 1f 00
        E 0 80 3e 00
        E 0 80 48 00
        E 0 80 4a 00
        E 0 80 54 00
        E 0 80 56 00
        E 0 80 60 00
        E 0 80 61 00
        E 0 90 1e 60
        E 0 90 61 60
        E 120 80 1e 00
        E 0 80 61 00
        E 0 90 1f 60
        E 0 90 56 60
        E 0 90 61 60
        E 120 80 1f 00
        E 0 80 56 00
        E 0 80 61 00
        E 0 90 1e 60
        E 0 90 61 60
        E 120 80 1e 00
        E 0 80 61 00
        E 0 90 1b 60
        E 0 90 49 60
        E 0 90 4a 60
        E 0 90 55 60
        E 0 90 56 60
        E 0 90 62 60
        E 120 80 1b 00
        E 0 80 49 00
        E 0 80 4a 00
        E 0 80 55 00
        E 0 80 56 00
        E 0 80 62 00
        E 0 90 1e 60
        E 0 90 61 60
        E 120 80 1e 00
        E 0 80 61 00
        E 0 90 1f 60
        E 0 90 56 60
        E 0 90 61 60
        E 120 80 1f 00
        E 0 80 56 00
        E 0 80 61 00
        E 0 90 1e 60
        E 0 90 61 60
        E 120 80 1e 00
        E 0 80 61 00
        E 0 90 1f 60
        E 0 90 3e 60
        E 0 90 4a 60
        E 0 90 56 60
        E 0 90 61 60
        E 120 80 1f 00
        E 0 80 3e 00
        E 0 80 4a 00
        E 0 80 56 00
        E 0 80 61 00
        E 0 90 1e 60
        E 0 90 61 60
        E 120 80 1e 00
        E 0 80 61 00
        E 0 90 18 60
        E 0 90 1f 60
        E 0 90 54 60
        E 0 90 56 60
        E 0 90 60 60
        E 0 90 61 60
        E 120 80 18 00
        E 0 80 1f 00
        E 0 80 54 00
        E 0 80 56 00
        E 0 80 60 00
        E 0 80 61 00
        E 0 90 1e 60
        E 0 90 61 60
        E 120 80 1e 00
        E 0 80 61 00
        E 0 90 1b 60
        E 0 90 49 60
        E 0 90 4a 60
        E 0 90 55 60
        E 0 90 56 60
        E 0 90 62 60
        E 120 80 1b 00
        E 0 80 49 00
        E 0 80 4a 00
        E 0 80 55 00
        E 0 80 56 00
        E 0 80 62 00
        E 0 90 1e 60
        E 0 90 61 60
        E 120 80 1e 00
        E 0 80 61 00
        E 0 90 1f 60
        E 0 90 56 60
        E 0 90 61 60
        E 120 80 1f 00
        E 0 80 56 00
        E 0 80 61 00
        E 0 90 1e 60
        E 0 90 61 60
        E 120 80 74 00
        E 0 80 1e 00
        E 0 80 61 00
        E 0 90 18 60
        E 0 90 1f 60
        E 0 90 3e 60
        E 0 90 48 60
        E 0 90 4a 60
        E 0 90 54 60
        E 0 90 56 60
        E 0 90 60 60
        E 0 90 61 60
        E 120 80 18 00
        E 0 80 1f 00
        E 0 80 3e 00
        E 0 80 48 00
        E 0 80 4a 00
        E 0 80 54 00
        E 0 80 56 00
        E 0 80 60 00
        E 0 80 61 00
        E 0 90 1e 60
        E 0 90 61 60
        E 120 80 1e 00
        E 0 80 61 00
        E 0 90 1f 60
        E 0 90 56 60
        E 0 90 61 60
        E 120 80 1f 00
        E 0 80 56 00
        E 0 80 61 00
        E 0 90 1e 60
        E 0 90 61 60
        E 120 80 1e 00
        E 0 80 61 00
        E 0 90 1b 60
        E 0 90 49 60
        E 0 90 4a 60
        E 0 90 55 60
        E 0 90 56 60
        E 0 90 62 60
        E 120 80 1b 00
        E 0 80 49 00
        E 0 80 4a 00
        E 0 80 55 00
        E 0 80 56 00
        E 0 80 62 00
        E 0 90 1e 60
        E 0 90 61 60
        E 120 80 1e 00
        E 0 80 61 00
        E 0 90 1f 60
        E 0 90 56 60
        E 0 90 61 60
        E 120 80 1f 00
        E 0 80 56 00
        E 0 80 61 00
        E 0 90 1e 60
        E 0 90 61 60
        E 120 80 1e 00
        E 0 80 61 00
        E 0 90 1f 60
        E 0 90 3e 60
        E 0 90 4a 60
        E 0 90 56 60
        E 0 90 61 60
        E 120 80 1f 00
        E 0 80 3e 00
        E 0 80 4a 00
        E 0 80 56 00
        E 0 80 61 00
        E 0 90 1e 60
        E 0 90 61 60
        E 120 80 1e 00
        E 0 80 61 00
        E 0 90 18 60
        E 0 90 1f 60
        E 0 90 54 60
        E 0 90 56 60
        E 0 90 60 60
        E 0 90 61 60
        E 120 80 18 00
        E 0 80 1f 00
        E 0 80 54 00
        E 0 80 56 00
        E 0 80 60 00
        E 0 80 61 00
        E 0 90 1e 60
        E 0 90 61 60
        E 120 80 1e 00
        E 0 80 61 00
        E 0 90 1b 60
        E 0 90 49 60
        E 0 90 4a 60
        E 0 90 55 60
        E 0 90 56 60
        E 0 90 62 60
        E 120 80 1b 00
        E 0 80 49 00
        E 0 80 4a 00
        E 0 80 55 00
        E 0 80 56 00
        E 0 80 62 00
        E 0 90 1e 60
        E 0 90 61 60
        E 120 80 1e 00
        E 0 80 61 00
        E 0 90 1f 60
        E 0 90 56 60
        E 0 90 61 60
        E 120 80 1f 00
        E 0 80 56 00
        E 0 80 61 00
        E 0 90 1e 60
        E 0 90 61 60
        E 120 80 1e 00
        E 0 80 61 00
        E 0 90 18 60
        E 0 90 1f 60
        E 0 90 3e 60
        E 0 90 48 60
        E 0 90 4a 60
        E 0 90 54 60
        E 0 90 56 60
        E 0 90 60 60
        E 0 90 61 60
        E 120 80 18 00
        E 0 80 1f 00
        E 0 80 3e 00
        E 0 80 48 00
        E 0 80 4a 00
        E 0 80 54 00
        E 0 80 56 00
        E 0 80 60 00
        E 0 80 61 00
        E 0 90 1e 60
        E 0 90 61 60
        E 120 80 1e 00
        E 0 80 61 00
        E 0 90 1f 60
        E 0 90 56 60
        E 0 90 61 60
        E 120 80 1f 00
        E 0 80 56 00
        E 0 80 61 00
        E 0 90 1e 60
        E 0 90 61 60
        E 120 80 1e 00
        E 0 80 61 00
        E 0 90 1b 60
        E 0 90 49 60
        E 0 90 4a 60
        E 0 90 55 60
        E 0 90 56 60
        E 0 90 62 60
        E 120 80 1b 00
        E 0 80 49 00
        E 0 80 4a 00
        E 0 80 55 00
        E 0 80 56 00
        E 0 80 62 00
        E 0 90 1e 60
        E 0 90 61 60
        E 120 80 1e 00
        E 0 80 61 00
        E 0 90 1f 60
        E 0 90 56 60
        E 0 90 61 60
        E 120 80 1f 00
        E 0 80 56 00
        E 0 80 61 00
        E 0 90 1e 60
        E 0 90 61 60
        E 120 80 1e 00
        E 0 80 61 00
        E 0 90 1f 60
        E 0 90 3e 60
        E 0 90 4a 60
        E 0 90 56 60
        E 0 90 61 60
        E 120 80 1f 00
        E 0 80 3e 00
        E 0 80 4a 00
        E 0 80 56 00
        E 0 80 61 00
        E 0 90 1e 60
        E 0 90 61 60
        E 120 80 1e 00
        E 0 80 61 00
        E 0 90 18 60
        E 0 90 1f 60
        E 0 90 54 60
        E 0 90 56 60
        E 0 90 60 60
        E 0 90 61 60
        E 120 80 18 00
        E 0 80 1f 00
        E 0 80 54 00
        E 0 80 56 00
        E 0 80 60 00
        E 0 80 61 00
        E 0 90 1e 60
        E 0 90 61 60
        E 120 80 1e 00
        E 0 80 61 00
        E 0 90 1b 60
        E 0 90 49 60
        E 0 90 4a 60
        E 0 90 55 60
        E 0 90 56 60
        E 0 90 62 60
        E 120 80 1b 00
        E 0 80 49 00
        E 0 80 4a 00
        E 0 80 55 00
        E 0 80 56 00
        E 0 80 62 00
        E 0 90 1e 60
        E 0 90 61 60
        E 120 80 1e 00
        E 0 80 61 00
        E 0 90 1f 60
        E 0 90 56 60
        E 0 90 61 60
        E 120 80 1f 00
        E 0 80 56 00
        E 0 80 61 00
        E 0 90 1e 60
        E 0 90 61 60
        E 120 80 1e 00
        E 0 80 61 00
        E 0 90 18 60
        E 0 90 1f 60
        E 0 90 3e 60
        E 0 90 48 60
        E 0 90 4a 60
        E 0 90 54 60
        E 0 90 56 60
        E 0 90 60 60
        E 0 90 61 60
        E 120 80 18 00
        E 0 80 1f 00
        E 0 80 3e 00
        E 0 80 48 00
        E 0 80 4a 00
        E 0 80 54 00
        E 0 80 56 00
        E 0 80 60 00
        E 0 80 61 00
        E 0 90 1e 60
        E 0 90 61 60
        E 120 80 1e 00
        E 0 80 61 00
        E 0 90 1f 60
        E 0 90 56 60
        E 0 90 61 60
        E 120 80 1f 00
        E 0 80 56 00
        E 0 80 61 00
        E 0 90 1e 60
        E 0 90 61 60
        E 120 80 1e 00
        E 0 80 61 00
        E 0 90 1b 60
        E 0 90 49 60
        E 0 90 4a 60
        E 0 90 55 60
        E 0 90 56 60
        E 0 90 62 60
        E 120 80 1b 00
        E 0 80 49 00
        E 0 80 4a 00
        E 0 80 55 00
        E 0 80 56 00
        E 0 80 62 00
        E 0 90 1e 60
        E 0 90 61 60
        E 120 80 1e 00
        E 0 80 61 00
        E 0 90 1f 60
        E 0 90 56 60
        E 0 90 61 60
        E 120 80 1f 00
        E 0 80 56 00
        E 0 80 61 00
        E 0 90 1e 60
        E 0 90 61 60
        E 120 80 1e 00
        E 0 80 61 00
        E 0 90 1f 60
        E 0 90 3e 60
        E 0 90 4a 60
        E 0 90 56 60
        E 0 90 61 60
        E 120 80 1f 00
        E 0 80 3e 00
        E 0 80 4a 00
        E 0 80 56 00
        E 0 80 61 00
        E 0 90 1e 60
        E 0 90 61 60
        E 120 80 1e 00
        E 0 80 61 00
        E 0 90 18 60
        E 0 90 1f 60
        E 0 90 54 60
        E 0 90 56 60
        E 0 90 60 60
        E 0 90 61 60
        E 120 80 18 00
        E 0 80 1f 00
        E 0 80 54 00
        E 0 80 56 00
        E 0 80 60 00
        E 0 80 61 00
        E 0 90 1e 60
        E 0 90 61 60
        E 120 80 1e 00
        E 0 80 61 00
        E 0 90 1b 60
        E 0 90 49 60
        E 0 90 4a 60
        E 0 90 55 60
        E 0 90 56 60
        E 0 90 62 60
        E 120 80 1b 00
        E 0 80 49 00
        E 0 80 4a 00
        E 0 80 55 00
        E 0 80 56 00
        E 0 80 62 00
        E 0 90 1e 60
        E 0 90 61 60
        E 120 80 1e 00
        E 0 80 61 00
        E 0 90 1f 60
        E 0 90 56 60
        E 0 90 61 60
        E 120 80 1f 00
        E 0 80 56 00
        E 0 80 61 00
        E 0 90 1e 60
        E 0 90 61 60
        E 120 80 1e 00
        E 0 80 61 00
        E 0 90 18 60
        E 0 90 1f 60
        E 0 90 3e 60
        E 0 90 48 60
        E 0 90 4a 60
        E 0 90 54 60
        E 0 90 56 60
        E 0 90 60 60
        E 0 90 61 60
        E 120 80 18 00
        E 0 80 1f 00
        E 0 80 3e 00
        E 0 80 48 00
        E 0 80 4a 00
        E 0 80 54 00
        E 0 80 56 00
        E 0 80 60 00
        E 0 80 61 00
        E 0 90 1e 60
        E 0 90 61 60
        E 120 80 1e 00
        E 0 80 61 00
        E 0 90 1f 60
        E 0 90 56 60
        E 0 90 61 60
        E 120 80 1f 00
        E 0 80 56 00
        E 0 80 61 00
        E 0 90 1e 60
        E 0 90 61 60
        E 120 80 1e 00
        E 0 80 61 00
        E 0 90 1b 60
        E 0 90 49 60
        E 0 90 4a 60
        E 0 90 55 60
        E 0 90 56 60
        E 0 90 62 60
        E 120 80 1b 00
        E 0 80 49 00
        E 0 80 4a 00
        E 0 80 55 00
        E 0 80 56 00
        E 0 80 62 00
        E 0 90 1e 60
        E 0 90 61 60
        E 120 80 1e 00
        E 0 80 61 00
        E 0 90 1f 60
        E 0 90 56 60
        E 0 90 61 60
        E 120 80 1f 00
        E 0 80 56 00
        E 0 80 61 00
        E 0 90 1e 60
        E 0 90 61 60
        E 120 80 1e 00
        E 0 80 61 00
        E 0 90 1f 60
        E 0 90 3e 60
        E 0 90 4a 60
        E 0 90 56 60
        E 0 90 61 60
        E 120 80 1f 00
        E 0 80 3e 00
        E 0 80 4a 00
        E 0 80 56 00
        E 0 80 61 00
        E 0 90 1e 60
        E 0 90 61 60
        E 120 80 1e 00
        E 0 80 61 00
        E 0 90 18 60
        E 0 90 1f 60
        E 0 90 54 60
        E 0 90 56 60
        E 0 90 60 60
        E 0 90 61 60
        E 120 80 18 00
        E 0 80 1f 00
        E 0 80 54 00
        E 0 80 56 00
        E 0 80 60 00
        E 0 80 61 00
        E 0 90 1e 60
        E 0 90 61 60
        E 120 80 1e 00
        E 0 80 61 00
        E 0 90 1b 60
        E 0 90 49 60
        E 0 90 4a 60
        E 0 90 55 60
        E 0 90 56 60
        E 0 90 62 60
        E 120 80 1b 00
        E 0 80 49 00
        E 0 80 4a 00
        E 0 80 55 00
        E 0 80 56 00
        E 0 80 62 00
        E 0 90 1e 60
        E 0 90 61 60
        E 120 80 1e 00
        E 0 80 61 00
        E 0 90 1f 60
        E 0 90 56 60
        E 0 90 61 60
        E 120 80 1f 00
        E 0 80 56 00
        E 0 80 61 00
        E 0 90 1e 60
        E 0 90 61 60
        E 120 80 1e 00
        E 0 80 61 00
        E 0 90 18 60
        E 0 90 1f 60
        E 0 90 3e 60
        E 0 90 48 60
        E 0 90 4a 60
        E 0 90 54 60
        E 0 90 56 60
        E 0 90 60 60
        E 0 90 61 60
        E 0 90 78 60
        E 0 90 79 60
        E 0 90 7a 60
        E 0 90 7b 60
        E 0 90 7c 60
        E 120 80 18 00
        E 0 80 1f 00
        E 0 80 3e 00
        E 0 80 48 00
        E 0 80 4a 00
        E 0 80 54 00
        E 0 80 56 00
        E 0 80 60 00
        E 0 80 61 00
        E 0 90 1e 60
        E 0 90 61 60
        E 120 80 1e 00
        E 0 80 61 00
        E 0 90 1f 60
        E 0 90 56 60
        E 0 90 61 60
        E 120 80 1f 00
        E 0 80 56 00
        E 0 80 61 00
        E 0 90 1e 60
        E 0 90 61 60
        E 120 80 1e 00
        E 0 80 61 00
        E 0 90 1b 60
        E 0 90 49 60
        E 0 90 4a 60
        E 0 90 55 60
        E 0 90 56 60
        E 0 90 62 60
        E 120 80 1b 00
        E 0 80 49 00
        E 0 80 4a 00
        E 0 80 55 00
        E 0 80 56 00
        E 0 80 62 00
        E 0 90 1e 60
        E 0 90 61 60
        E 120 80 1e 00
        E 0 80 61 00
        E 0 90 1f 60
        E 0 90 56 60
        E 0 90 61 60
        E 120 80 1f 00
        E 0 80 56 00
        E 0 80 61 00
        E 0 90 1e 60
        E 0 90 61 60
        E 120 80 1e 00
        E 0 80 61 00
        E 0 90 1f 60
        E 0 90 3e 60
        E 0 90 4a 60
        E 0 90 56 60
        E 0 90 61 60
        E 120 80 1f 00
        E 0 80 3e 00
        E 0 80 4a 00
        E 0 80 56 00
        E 0 80 61 00
        E 0 90 1e 60
        E 0 90 61 60
        E 120 80 1e 00
        E 0 80 61 00
        E 0 90 18 60
        E 0 90 1f 60
        E 0 90 54 60
        E 0 90 56 60
        E 0 90 60 60
        E 0 90 61 60
        E 120 80 18 00
        E 0 80 1f 00
        E 0 80 54 00
        E 0 80 56 00
        E 0 80 60 00
        E 0 80 61 00
        E 0 90 1e 60
        E 0 90 61 60
        E 120 80 1e 00
        E 0 80 61 00
        E 0 90 1b 60
        E 0 90 49 60
        E 0 90 4a 60
        E 0 90 55 60
        E 0 90 56 60
        E 0 90 62 60
        E 120 80 1b 00
        E 0 80 49 00
        E 0 80 4a 00
        E 0 80 55 00
        E 0 80 56 00
        E 0 80 62 00
        E 0 90 1e 60
        E 0 90 61 60
        E 120 80 1e 00
        E 0 80 61 00
        E 0 90 1f 60
        E 0 90 56 60
        E 0 90 61 60
        E 120 80 1f 00
        E 0 80 56 00
        E 0 80 61 00
        E 0 90 1e 60
        E 0 90 61 60
        E 120 80 78 00
        E 0 80 79 00
        E 0 80 7a 00
        E 0 80 7b 00
        E 0 80 7c 00
        E 0 80 1e 00
        E 0 80 61 00
        E 0 90 18 60
        E 0 90 24 60
        E 0 90 40 60
        E 0 90 48 60
        E 0 90 4c 60
        E 0 90 54 60
        E 0 90 58 60
        E 0 90 60 60
        E 0 90 64 60
        E 120 80 18 00
        E 0 80 24 00
        E 0 80 40 00
        E 0 80 48 00
        E 0 80 4c 00
        E 0 80 54 00
        E 0 80 58 00
        E 0 80 60 00
        E 0 80 64 00
        E 0 90 1e 60
        E 0 90 61 60
        E 120 80 1e 00
        E 0 80 61 00
        E 0 90 1f 60
        E 0 90 56 60
        E 0 90 61 60
        E 120 80 1f 00
        E 0 80 56 00
        E 0 80 61 00
        E 0 90 1e 60
        E 0 90 61 60
        E 120 80 1e 00
        E 0 80 61 00
        E 0 90 1b 60
        E 0 90 49 60
        E 0 90 4a 60
        E 0 90 55 60
        E 0 90 56 60
        E 0 90 62 60
        E 120 80 1b 00
        E 0 80 49 00
        E 0 80 4a 00
        E 0 80 55 00
        E 0 80 56 00
        E 0 80 62 00
        E 0 90 1e 60
        E 0 90 61 60
        E 120 80 1e 00
        E 0 80 61 00
        E 0 90 1f 60
        E 0 90 56 60
        E 0 90 61 60
        E 120 80 1f 00
        E 0 80 56 00
        E 0 80 61 00
        E 0 90 1e 60
        E 0 90 61 60
        E 120 80 1e 00
        E 0 80 61 00
        E 0 90 1f 60
        E 0 90 3e 60
        E 0 90 4a 60
        E 0 90 56 60
        E 0 90 61 60
        E 120 80 1f 00
        E 0 80 3e 00
        E 0 80 4a 00
        E 0 80 56 00
        E 0 80 61 00
        E 0 90 1e 60
        E 0 90 61 60
        E 120 80 1e 00
        E 0 80 61 00
        E 0 90 18 60
        E 0 90 1f 60
        E 0 90 54 60
        E 0 90 56 60
        E 0 90 60 60
        E 0 90 61 60
        E 120 80 18 00
        E 0 80 1f 00
        E 0 80 54 00
        E 0 80 56 00
        E 0 80 60 00
        E 0 80 61 00
        E 0 90 1e 60
        E 0 90 61 60
        E 120 80 1e 00
        E 0 80 61 00
        E 0 90 1b 60
        E 0 90 49 60
        E 0 90 4a 60
        E 0 90 55 60
        E 0 90 56 60
        E 0 90 62 60
        E 120 80 1b 00
        E 0 80 49 00
        E 0 80 4a 00
        E 0 80 55 00
        E 0 80 56 00
        E 0 80 62 00
        E 0 90 1e 60
        E 0 90 61 60
        E 120 80 1e 00
        E 0 80 61 00
        E 0 90 1f 60
        E 0 90 56 60
        E 0 90 61 60
        E 120 80 1f 00
        E 0 80 56 00
        E 0 80 61 00
        E 0 90 1e 60
        E 0 90 61 60
        E 120 80 1e 00
        E 0 80 61 00
        E 0 90 18 60
        E 0 90 1f 60
        E 0 90 3e 60
        E 0 90 48 60
        E 0 90 4a 60
        E 0 90 54 60
        E 0 90 56 60
        E 0 90 60 60
        E 0 90 61 60
        E 120 80 18 00
        E 0 80 1f 00
        E 0 80 3e 00
        E 0 80 48 00
        E 0 80 4a 00
        E 0 80 54 00
        E 0 80 56 00
        E 0 80 60 00
        E 0 80 61 00
        E 0 90 1e 60
        E 0 90 61 60
        E 120 80 1e 00
        E 0 80 61 00
        E 0 90 1f 60
        E 0 90 56 60
        E 0 90 61 60
        E 120 80 1f 00
        E 0 80 56 00
        E 0 80 61 00
        E 0 90 1e 60
        E 0 90 61 60
        E 120 80 1e 00
        E 0 80 61 00
        E 0 90 1b 60
        E 0 90 49 60
        E 0 90 4a 60
        E 0 90 55 60
        E 0 90 56 60
        E 0 90 62 60
        E 120 80 1b 00
        E 0 80 49 00
        E 0 80 4a 00
        E 0 80 55 00
        E 0 80 56 00
        E 0 80 62 00
        E 0 90 1e 60
        E 0 90 61 60
        E 120 80 1e 00
        E 0 80 61 00
        E 0 90 1f 60
        E 0 90 56 60
        E 0 90 61 60
        E 120 80 1f 00
        E 0 80 56 00
        E 0 80 61 00
        E 0 90 1e 60
        E 0 90 61 60
        E 120 80 1e 00
        E 0 80 61 00
        E 0 90 1f 60
        E 0 90 3e 60
        E 0 90 4a 60
        E 0 90 56 60
        E 0 90 61 60
        E 120 80 1f 00
        E 0 80 3e 00
        E 0 80 4a 00
        E 0 80 56 00
        E 0 80 61 00
        E 0 90 1e 60
        E 0 90 61 60
        E 120 80 1e 00
        E 0 80 61 00
        E 0 90 18 60
        E 0 90 1f 60
        E 0 90 54 60
        E 0 90 56 60
        E 0 90 60 60
        E 0 90 61 60
        E 120 80 18 00
        E 0 80 1f 00
        E 0 80 54 00
        E 0 80 56 00
        E 0 80 60 00
        E 0 80 61 00
        E 0 90 1e 60
        E 0 90 61 60
        E 120 80 1e 00
        E 0 80 61 00
        E 0 90 1b 60
        E 0 90 49 60
        E 0 90 4a 60
        E 0 90 55 60
        E 0 90 56 60
        E 0 90 62 60
        E 120 80 1b 00
        E 0 80 49 00
        E 0 80 4a 00
        E 0 80 55 00
        E 0 80 56 00
        E 0 80 62 00
        E 0 90 1e 60
        E 0 90 61 60
        E 120 80 1e 00
        E 0 80 61 00
        E 0 90 1f 60
        E 0 90 56 60
        E 0 90 61 60
        E 120 80 1f 00
        E 0 80 56 00
        E 0 80 61 00
        E 0 90 1e 60
        E 0 90 61 60
        E 120 80 1e 00
        E 0 80 61 00
        E 0 90 18 60
        E 0 90 1f 60
        E 0 90 3e 60
        E 0 90 48 60
        E 0 90 4a 60
        E 0 90 54 60
        E 0 90 56 60
        E 0 90 60 60
        E 0 90 61 60
        E 120 80 18 00
        E 0 80 1f 00
        E 0 80 3e 00
        E 0 80 48 00
        E 0 80 4a 00
        E 0 80 54 00
        E 0 80 56 00
        E 0 80 60 00
        E 0 80 61 00
        E 0 90 1e 60
        E 0 90 61 60
        E 120 80 1e 00
        E 0 80 61 00
        E 0 90 1f 60
        E 0 90 56 60
        E 0 90 61 60
        E 120 80 1f 00
        E 0 80 56 00
        E 0 80 61 00
        E 0 90 1e 60
        E 0 90 61 60
        E 120 80 1e 00
        E 0 80 61 00
        E 0 90 1b 60
        E 0 90 49 60
        E 0 90 4a 60
        E 0 90 55 60
        E 0 90 56 60
        E 0 90 62 60
        E 120 80 1b 00
        E 0 80 49 00
        E 0 80 4a 00
        E 0 80 55 00
        E 0 80 56 00
        E 0 80 62 00
        E 0 90 1e 60
        E 0 90 61 60
        E 120 80 1e 00
        E 0 80 61 00
        E 0 90 1f 60
        E 0 90 56 60
        E 0 90 61 60
        E 120 80 1f 00
        E 0 80 56 00
        E 0 80 61 00
        E 0 90 1e 60
        E 0 90 61 60
        E 120 80 1e 00
        E 0 80 61 00
        E 0 90 1f 60
        E 0 90 3e 60
        E 0 90 4a 60
        E 0 90 56 60
        E 0 90 61 60
        E 120 80 1f 00
        E 0 80 3e 00
        E 0 80 4a 00
        E 0 80 56 00
        E 0 80 61 00
        E 0 90 1e 60
        E 0 90 61 60
        E 120 80 1e 00
        E 0 80 61 00
        E 0 90 18 60
        E 0 90 1f 60
        E 0 90 54 60
        E 0 90 56 60
        E 0 90 60 60
        E 0 90 61 60
        E 120 80 18 00
        E 0 80 1f 00
        E 0 80 54 00
        E 0 80 56 00
        E 0 80 60 00
        E 0 80 61 00
        E 0 90 1e 60
        E 0 90 61 60
        E 120 80 1e 00
        E 0 80 61 00
        E 0 90 1b 60
        E 0 90 49 60
        E 0 90 4a 60
        E 0 90 55 60
        E 0 90 56 60
        E 0 90 62 60
        E 120 80 1b 00
        E 0 80 49 00
        E 0 80 4a 00
        E 0 80 55 00
        E 0 80 56 00
        E 0 80 62 00
        E 0 90 1e 60
        E 0 90 61 60
        E 120 80 1e 00
        E 0 80 61 00
        E 0 90 1f 60
        E 0 90 56 60
        E 0 90 61 60
        E 120 80 1f 00
        E 0 80 56 00
        E 0 80 61 00
        E 0 90 1e 60
        E 0 90 61 60
        E 120 80 1e 00
        E 0 80 61 00
        E 0 90 18 60
        E 0 90 1f 60
        E 0 90 3e 60
        E 0 90 48 60
        E 0 90 4a 60
        E 0 90 54 60
        E 0 90 56 60
        E 0 90 60 60
        E 0 90 61 60
        E 120 80 18 00
        E 0 80 1f 00
        E 0 80 3e 00
        E 0 80 48 00
        E 0 80 4a 00
        E 0 80 54 00
        E 0 80 56 00
        E 0 80 60 00
        E 0 80 61 00
        E 0 90 1e 60
        E 0 90 61 60
        E 120 80 1e 00
        E 0 80 61 00
        E 0 90 1f 60
        E 0 90 56 60
        E 0 90 61 60
        E 120 80 1f 00
        E 0 80 56 00
        E 0 80 61 00
        E 0 90 1e 60
        E 0 90 61 60
        E 120 80 1e 00
        E 0 80 61 00
        E 0 90 1b 60
        E 0 90 49 60
        E 0 90 4a 60
        E 0 90 55 60
        E 0 90 56 60
        E 0 90 62 60
        E 120 80 1b 00
        E 0 80 49 00
        E 0 80 4a 00
        E 0 80 55 00
        E 0 80 56 00
        E 0 80 62 00
        E 0 90 1e 60
        E 0 90 61 60
        E 120 80 1e 00
        E 0 80 61 00
        E 0 90 1f 60
        E 0 90 56 60
        E 0 90 61 60
        E 120 80 1f 00
        E 0 80 56 00
        E 0 80 61 00
        E 0 90 1e 60
        E 0 90 61 60
        E 120 80 1e 00
        E 0 80 61 00
        E 0 90 1f 60
        E 0 90 3e 60
        E 0 90 4a 60
        E 0 90 56 60
        E 0 90 61 60
        E 120 80 1f 00
        E 0 80 3e 00
        E 0 80 4a 00
        E 0 80 56 00
        E 0 80 61 00
        E 0 90 1e 60
        E 0 90 61 60
        E 120 80 1e 00
        E 0 80 61 00
        E 0 90 18 60
        E 0 90 1f 60
        E 0 90 54 60
        E 0 90 56 60
        E 0 90 60 60
        E 0 90 61 60
        E 120 80 18 00
        E 0 80 1f 00
        E 0 80 54 00
        E 0 80 56 00
        E 0 80 60 00
        E 0 80 61 00
        E 0 90 1e 60
        E 0 90 61 60
        E 120 80 1e 00
        E 0 80 61 00
        E 0 90 1b 60
        E 0 90 49 60
        E 0 90 4a 60
        E 0 90 55 60
        E 0 90 56 60
        E 0 90 62 60
        E 120 80 1b 00
        E 0 80 49 00
        E 0 80 4a 00
        E 0 80 55 00
        E 0 80 56 00
        E 0 80 62 00
        E 0 90 1e 60
        E 0 90 61 60
        E 120 80 1e 00
        E 0 80 61 00
        E 0 90 1f 60
        E 0 90 56 60
        E 0 90 61 60
        E 120 80 1f 00
        E 0 80 56 00
        E 0 80 61 00
        E 0 90 1e 60
        E 0 90 61 60
        E 120 80 1e 00
        E 0 80 61 00
        E 0 90 18 60
        E 0 90 1f 60
        E 0 90 3e 60
        E 0 90 48 60
        E 0 90 4a 60
        E 0 90 54 60
        E 0 90 56 60
        E 0 90 60 60
        E 0 90 61 60
        E 0 90 74 60
        E 120 80 18 00
        E 0 80 1f 00
        E 0 80 3e 00
        E 0 80 48 00
        E 0 80 4a 00
        E 0 80 54 00
        E 0 80 56 00
        E 0 80 60 00
        E 0 80 61 00
        E 0 90 1e 60
        E 0 90 61 60
        E 120 80 1e 00
        E 0 80 61 00
        E 0 90 1f 60
        E 0 90 56 60
        E 0 90 61 60
        E 120 80 1f 00
        E 0 80 56 00
        E 0 80 61 00
        E 0 90 1e 60
        E 0 90 61 60
        E 120 80 1e 00
        E 0 80 61 00
        E 0 90 1b 60
        E 0 90 49 60
        E 0 90 4a 60
        E 0 90 55 60
        E 0 90 56 60
        E 0 90 62 60
        E 120 80 1b 00
        E 0 80 49 00
        E 0 80 4a 00
        E 0 80 55 00
        E 0 80 56 00
        E 0 80 62 00
        E 0 90 1e 60
        E 0 90 61 60
        E 120 80 1e 00
        E 0 80 61 00
        E 0 90 1f 60
        E 0 90 56 60
        E 0 90 61 60
        E 120 80 1f 00
        E 0 80 56 00
        E 0 80 61 00
        E 0 90 1e 60
        E 0 90 61 60
        E 120 80 1e 00
        E 0 80 61 00
        E 0 90 1f 60
        E 0 90 3e 60
        E 0 90 4a 60
        E 0 90 56 60
        E 0 90 61 60
        E 120 80 1f 00
        E 0 80 3e 00
        E 0 80 4a 00
        E 0 80 56 00
        E 0 80 61 00
        E 0 90 1e 60
        E 0 90 61 60
        E 120 80 1e 00
        E 0 80 61 00
        E 0 90 18 60
        E 0 90 1f 60
        E 0 90 54 60
        E 0 90 56 60
        E 0 90 60 60
        E 0 90 61 60
        E 120 80 18 00
        E 0 80 1f 00
        E 0 80 54 00
        E 0 80 56 00
        E 0 80 60 00
        E 0 80 61 00
        E 0 90 1e 60
        E 0 90 61 60
        E 120 80 1e 00
        E 0 80 61 00
        E 0 90 1b 60
        E 0 90 49 60
        E 0 90 4a 60
        E 0 90 55 60
        E 0 90 56 60
        E 0 90 62 60
        E 120 80 1b 00
        E 0 80 49 00
        E 0 80 4a 00
        E 0 80 55 00
        E 0 80 56 00
        E 0 80 62 00
        E 0 90 1e 60
        E 0 90 61 60
        E 120 80 1e 00
        E 0 80 61 00
        E 0 90 1f 60
        E 0 90 56 60
        E 0 90 61 60
        E 120 80 1f 00
        E 0 80 56 00
        E 0 80 61 00
        E 0 90 1e 60
        E 0 90 61 60
        E 120 80 1e 00
        E 0 80 61 00
        E 0 90 18 60
        E 0 90 1f 60
        E 0 90 3e 60
        E 0 90 48 60
        E 0 90 4a 60
        E 0 90 54 60
        E 0 90 56 60
        E 0 90 60 60
        E 0 90 61 60
        E 120 80 18 00
        E 0 80 1f 00
        E 0 80 3e 00
        E 0 80 48 00
        E 0 80 4a 00
        E 0 80 54 00
        E 0 80 56 00
        E 0 80 60 00
        E 0 80 61 00
        E 0 90 1e 60
        E 0 90 61 60
        E 120 80 1e 00
        E 0 80 61 00
        E 0 90 1f 60
        E 0 90 56 60
        E 0 90 61 60
        E 120 80 1f 00
        E 0 80 56 00
        E 0 80 61 00
        E 0 90 1e 60
        E 0 90 61 60
        E 120 80 1e 00
        E 0 80 61 00
        E 0 90 1b 60
        E 0 90 49 60
        E 0 90 4a 60
        E 0 90 55 60
        E 0 90 56 60
        E 0 90 62 60
        E 120 80 1b 00
        E 0 80 49 00
        E 0 80 4a 00
        E 0 80 55 00
        E 0 80 56 00
        E 0 80 62 00
        E 0 90 1e 60
        E 0 90 61 60
        E 120 80 1e 00
        E 0 80 61 00
        E 0 90 1f 60
        E 0 90 56 60
        E 0 90 61 60
        E 120 80 1f 00
        E 0 80 56 00
        E 0 80 61 00
        E 0 90 1e 60
        E 0 90 61 60
        E 120 80 1e 00
        E 0 80 61 00
        E 0 90 1f 60
        E 0 90 3e 60
        E 0 90 4a 60
        E 0 90 56 60
        E 0 90 61 60
        E 120 80 1f 00
        E 0 80 3e 00
        E 0 80 4a 00
        E 0 80 56 00
        E 0 80 61 00
        E 0 90 1e 60
        E 0 90 61 60
        E 120 80 1e 00
        E 0 80 61 00
        E 0 90 18 60
        E 0 90 1f 60
        E 0 90 54 60
        E 0 90 56 60
        E 0 90 60 60
        E 0 90 61 60
        E 120 80 18 00
        E 0 80 1f 00
        E 0 80 54 00
        E 0 80 56 00
        E 0 80 60 00
        E 0 80 61 00
        E 0 90 1e 60
        E 0 90 61 60
        E 120 80 1e 00
        E 0 80 61 00
        E 0 90 1b 60
        E 0 90 49 60
        E 0 90 4a 60
        E 0 90 55 60
        E 0 90 56 60
        E 0 90 62 60
        E 120 80 1b 00
        E 0 80 49 00
        E 0 80 4a 00
        E 0 80 55 00
        E 0 80 56 00
        E 0 80 62 00
        E 0 90 1e 60
        E 0 90 61 60
        E 120 80 1e 00
        E 0 80 61 00
        E 0 90 1f 60
        E 0 90 56 60
        E 0 90 61 60
        E 120 80 1f 00
        E 0 80 56 00
        E 0 80 61 00
        E 0 90 1e 60
        E 0 90 61 60
        E 120 80 74 00
        E 0 80 1e 00
        E 0 80 61 00
        E 0 90 18 60
        E 0 90 1f 60
        E 0 90 3e 60
        E 0 90 48 60
        E 0 90 4a 60
        E 0 90 54 60
        E 0 90 56 60
        E 0 90 60 60
        E 0 90 61 60
        E 120 80 18 00
        E 0 80 1f 00
        E 0 80 3e 00
        E 0 80 48 00
        E 0 80 4a 00
        E 0 80 54 00
        E 0 80 56 00
        E 0 80 60 00
        E 0 80 61 00
        E 0 90 1e 60
        E 0 90 61 60
        E 120 80 1e 00
        E 0 80 61 00
        E 0 90 1f 60
        E 0 90 56 60
        E 0 90 61 60
        E 120 80 1f 00
        E 0 80 56 00
        E 0 80 61 00
        E 0 90 1e 60
        E 0 90 61 60
        E 120 80 1e 00
        E 0 80 61 00
        E 0 90 1b 60
        E 0 90 49 60
        E 0 90 4a 60
        E 0 90 55 60
        E 0 90 56 60
        E 0 90 62 60
        E 120 80 1b 00
        E 0 80 49 00
        E 0 80 4a 00
        E 0 80 55 00
        E 0 80 56 00
        E 0 80 62 00
        E 0 90 1e 60
        E 0 90 61 60
        E 120 80 1e 00
        E 0 80 61 00
        E 0 90 1f 60
        E 0 90 56 60
        E 0 90 61 60
        E 120 80 1f 00
        E 0 80 56 00
        E 0 80 61 00
        E 0 90 1e 60
        E 0 90 61 60
        E 120 80 1e 00
        E 0 80 61 00
        E 0 90 1f 60
        E 0 90 3e 60
        E 0 90 4a 60
        E 0 90 56 60
        E 0 90 61 60
        E 120 80 1f 00
        E 0 80 3e 00
        E 0 80 4a 00
        E 0 80 56 00
        E 0 80 61 00
        E 0 90 1e 60
        E 0 90 61 60
        E 120 80 1e 00
        E 0 80 61 00
        E 0 90 18 60
        E 0 90 1f 60
        E 0 90 54 60
        E 0 90 56 60
        E 0 90 60 60
        E 0 90 61 60
        E 120 80 18 00
        E 0 80 1f 00
        E 0 80 54 00
        E 0 80 56 00
        E 0 80 60 00
        E 0 80 61 00
        E 0 90 1e 60
        E 0 90 61 60
        E 120 80 1e 00
        E 0 80 61 00
        E 0 90 1b 60
        E 0 90 49 60
        E 0 90 4a 60
        E 0 90 55 60
        E 0 90 56 60
        E 0 90 62 60
        E 120 80 1b 00
        E 0 80 49 00
        E 0 80 4a 00
        E 0 80 55 00
        E 0 80 56 00
        E 0 80 62 00
        E 0 90 1e 60
        E 0 90 61 60
        E 120 80 1e 00
        E 0 80 61 00
        E 0 90 1f 60
        E 0 90 56 60
        E 0 90 61 60
        E 120 80 1f 00
        E 0 80 56 00
        E 0 80 61 00
        E 0 90 1e 60
        E 0 90 61 60
        E 120 80 1e 00
        E 0 80 61 00
        E 0 90 18 60
        E 0 90 1f 60
        E 0 90 3e 60
        E 0 90 48 60
        E 0 90 4a 60
        E 0 90 54 60
        E 0 90 56 60
        E 0 90 60 60
        E 0 90 61 60
        E 0 90 78 60
        E 0 90 79 60
        E 0 90 7a 60
        E 0 90 7b 60
        E 0 90 7c 60
        E 120 80 18 00
        E 0 80 1f 00
        E 0 80 3e 00
        E 0 80 48 00
        E 0 80 4a 00
        E 0 80 54 00
        E 0 80 56 00
        E 0 80 60 00
        E 0 80 61 00
        E 0 90 1e 60
        E 0 90 61 60
        E 120 80 1e 00
        E 0 80 61 00
        E 0 90 1f 60
        E 0 90 56 60
        E 0 90 61 60
        E 120 80 1f 00
        E 0 80 56 00
        E 0 80 61 00
        E 0 90 1e 60
        E 0 90 61 60
        E 120 80 1e 00
        E 0 80 61 00
        E 0 90 1b 60
        E 0 90 49 60
        E 0 90 4a 60
        E 0 90 55 60
        E 0 90 56 60
        E 0 90 62 60
        E 120 80 1b 00
        E 0 80 49 00
        E 0 80 4a 00
        E 0 80 55 00
        E 0 80 56 00
        E 0 80 62 00
        E 0 90 1e 60
        E 0 90 61 60
        E 120 80 1e 00
        E 0 80 61 00
        E 0 90 1f 60
        E 0 90 56 60
        E 0 90 61 60
        E 120 80 1f 00
        E 0 80 56 00
        E 0 80 61 00
        E 0 90 1e 60
        E 0 90 61 60
        E 120 80 1e 00
        E 0 80 61 00
        E 0 90 1f 60
        E 0 90 3e 60
        E 0 90 4a 60
        E 0 90 56 60
        E 0 90 61 60
        E 120 80 1f 00
        E 0 80 3e 00
        E 0 80 4a 00
        E 0 80 56 00
        E 0 80 61 00
        E 0 90 1e 60
        E 0 90 61 60
        E 120 80 1e 00
        E 0 80 61 00
        E 0 90 18 60
        E 0 90 1f 60
        E 0 90 54 60
        E 0 90 56 60
        E 0 90 60 60
        E 0 90 61 60
        E 120 80 18 00
        E 0 80 1f 00
        E 0 80 54 00
        E 0 80 56 00
        E 0 80 60 00
        E 0 80 61 00
        E 0 90 1e 60
        E 0 90 61 60
        E 120 80 1e 00
        E 0 80 61 00
        E 0 90 1b 60
        E 0 90 49 60
        E 0 90 4a 60
        E 0 90 55 60
        E 0 90 56 60
        E 0 90 62 60
        E 120 80 1b 00
        E 0 80 49 00
        E 0 80 4a 00
        E 0 80 55 00
        E 0 80 56 00
        E 0 80 62 00
        E 0 90 1e 60
        E 0 90 61 60
        E 120 80 1e 00
        E 0 80 61 00
        E 0 90 1f 60
        E 0 90 56 60
        E 0 90 61 60
        E 120 80 1f 00
        E 0 80 56 00
        E 0 80 61 00
        E 0 90 1e 60
        E 0 90 61 60
        E 120 80 78 00
        E 0 80 79 00
        E 0 80 7a 00
        E 0 80 7b 00
        E 0 80 7c 00
        E 0 80 1e 00
        E 0 80 61 00
        E 0 90 18 60
        E 0 90 24 60
        E 0 90 40 60
        E 0 90 48 60
        E 0 90 4c 60
        E 0 90 54 60
        E 0 90 58 60
        E 0 90 60 60
        E 0 90 64 60
        E 120 80 18 00
        E 0 80 24 00
        E 0 80 40 00
        E 0 80 48 00
        E 0 80 4c 00
        E 0 80 54 00
        E 0 80 58 00
        E 0 80 60 00
        E 0 80 64 00
        E 0 90 1e 60
        E 0 90 61 60
        E 120 80 1e 00
        E 0 80 61 00
        E 0 90 1f 60
        E 0 90 56 60
        E 0 90 61 60
        E 120 80 1f 00
        E 0 80 56 00
        E 0 80 61 00
        E 0 90 1e 60
        E 0 90 61 60
        E 120 80 1e 00
        E 0 80 61 00
        E 0 90 1b 60
        E 0 90 49 60
        E 0 90 4a 60
        E 0 90 55 60
        E 0 90 56 60
        E 0 90 62 60
        E 120 80 1b 00
        E 0 80 49 00
        E 0 80 4a 00
        E 0 80 55 00
        E 0 80 56 00
        E 0 80 62 00
        E 0 90 1e 60
        E 0 90 61 60
        E 120 80 1e 00
        E 0 80 61 00
        E 0 90 1f 60
        E 0 90 56 60
        E 0 90 61 60
        E 120 80 1f 00
        E 0 80 56 00
        E 0 80 61 00
        E 0 90 1e 60
        E 0 90 61 60
        E 120 80 1e 00
        E 0 80 61 00
        E 0 90 1f 60
        E 0 90 3e 60
        E 0 90 4a 60
        E 0 90 56 60
        E 0 90 61 60
        E 120 80 1f 00
        E 0 80 3e 00
        E 0 80 4a 00
        E 0 80 56 00
        E 0 80 61 00
        E 0 90 1e 60
        E 0 90 61 60
        E 120 80 1e 00
        E 0 80 61 00
        E 0 90 18 60
        E 0 90 1f 60
        E 0 90 54 60
        E 0 90 56 60
        E 0 90 60 60
        E 0 90 61 60
        E 120 80 18 00
        E 0 80 1f 00
        E 0 80 54 00
        E 0 80 56 00
        E 0 80 60 00
        E 0 80 61 00
        E 0 90 1e 60
        E 0 90 61 60
        E 120 80 1e 00
        E 0 80 61 00
        E 0 90 1b 60
        E 0 90 49 60
        E 0 90 4a 60
        E 0 90 55 60
        E 0 90 56 60
        E 0 90 62 60
        E 120 80 1b 00
        E 0 80 49 00
        E 0 80 4a 00
        E 0 80 55 00
        E 0 80 56 00
        E 0 80 62 00
        E 0 90 1e 60
        E 0 90 61 60
        E 120 80 1e 00
        E 0 80 61 00
        E 0 90 1f 60
        E 0 90 56 60
        E 0 90 61 60
        E 120 80 1f 00
        E 0 80 56 00
        E 0 80 61 00
        E 0 90 1e 60
        E 0 90 61 60
        E 120 80 1e 00
        E 0 80 61 00
        E 0 90 18 60
        E 0 90 1f 60
        E 0 90 3e 60
        E 0 90 48 60
        E 0 90 4a 60
        E 0 90 54 60
        E 0 90 56 60
        E 0 90 60 60
        E 0 90 61 60
        E 120 80 18 00
        E 0 80 1f 00
        E 0 80 3e 00
        E 0 80 48 00
        E 0 80 4a 00
        E 0 80 54 00
        E 0 80 56 00
        E 0 80 60 00
        E 0 80 61 00
        E 0 90 1e 60
        E 0 90 61 60
        E 120 80 1e 00
        E 0 80 61 00
        E 0 90 1f 60
        E 0 90 56 60
        E 0 90 61 60
        E 120 80 1f 00
        E 0 80 56 00
        E 0 80 61 00
        E 0 90 1e 60
        E 0 90 61 60
        E 120 80 1e 00
        E 0 80 61 00
        E 0 90 1b 60
        E 0 90 49 60
        E 0 90 4a 60
        E 0 90 55 60
        E 0 90 56 60
        E 0 90 62 60
        E 120 80 1b 00
        E 0 80 49 00
        E 0 80 4a 00
        E 0 80 55 00
        E 0 80 56 00
        E 0 80 62 00
        E 0 90 1e 60
        E 0 90 61 60
        E 120 80 1e 00
        E 0 80 61 00
        E 0 90 1f 60
        E 0 90 56 60
        E 0 90 61 60
        E 120 80 1f 00
        E 0 80 56 00
        E 0 80 61 00
        E 0 90 1e 60
        E 0 90 61 60
        E 120 80 1e 00
        E 0 80 61 00
        E 0 90 1f 60
        E 0 90 3e 60
        E 0 90 4a 60
        E 0 90 56 60
        E 0 90 61 60
        E 120 80 1f 00
        E 0 80 3e 00
        E 0 80 4a 00
        E 0 80 56 00
        E 0 80 61 00
        E 0 90 1e 60
        E 0 90 61 60
        E 120 80 1e 00
        E 0 80 61 00
        E 0 90 18 60
        E 0 90 1f 60
        E 0 90 54 60
        E 0 90 56 60
        E 0 90 60 60
        E 0 90 61 60
        E 120 80 18 00
        E 0 80 1f 00
        E 0 80 54 00
        E 0 80 56 00
        E 0 80 60 00
        E 0 80 61 00
        E 0 90 1e 60
        E 0 90 61 60
        E 120 80 1e 00
        E 0 80 61 00
        E 0 90 1b 60
        E 0 90 49 60
        E 0 90 4a 60
        E 0 90 55 60
        E 0 90 56 60
        E 0 90 62 60
        E 120 80 1b 00
        E 0 80 49 00
        E 0 80 4a 00
        E 0 80 55 00
        E 0 80 56 00
        E 0 80 62 00
        E 0 90 1e 60
        E 0 90 61 60
        E 120 80 1e 00
        E 0 80 61 00
        E 0 90 1f 60
        E 0 90 56 60
        E 0 90 61 60
        E 120 80 1f 00
        E 0 80 56 00
        E 0 80 61 00
        E 0 90 1e 60
        E 0 90 61 60
        E 120 80 1e 00
        E 0 80 61 00
        E 0 90 18 60
        E 0 90 1f 60
        E 0 90 3e 60
        E 0 90 48 60
        E 0 90 4a 60
        E 0 90 54 60
        E 0 90 56 60
        E 0 90 60 60
        E 0 90 61 60
        E 120 80 18 00
        E 0 80 1f 00
        E 0 80 3e 00
        E 0 80 48 00
        E 0 80 4a 00
        E 0 80 54 00
        E 0 80 56 00
        E 0 80 60 00
        E 0 80 61 00
        E 0 90 1e 60
        E 0 90 61 60
        E 120 80 1e 00
        E 0 80 61 00
        E 0 90 1f 60
        E 0 90 56 60
        E 0 90 61 60
        E 120 80 1f 00
        E 0 80 56 00
        E 0 80 61 00
        E 0 90 1e 60
        E 0 90 61 60
        E 120 80 1e 00
        E 0 80 61 00
        E 0 90 1b 60
        E 0 90 49 60
        E 0 90 4a 60
        E 0 90 55 60
        E 0 90 56 60
        E 0 90 62 60
        E 120 80 1b 00
        E 0 80 49 00
        E 0 80 4a 00
        E 0 80 55 00
        E 0 80 56 00
        E 0 80 62 00
        E 0 90 1e 60
        E 0 90 61 60
        E 120 80 1e 00
        E 0 80 61 00
        E 0 90 1f 60
        E 0 90 56 60
        E 0 90 61 60
        E 120 80 1f 00
        E 0 80 56 00
        E 0 80 61 00
        E 0 90 1e 60
        E 0 90 61 60
        E 120 80 1e 00
        E 0 80 61 00
        E 0 90 1f 60
        E 0 90 3e 60
        E 0 90 4a 60
        E 0 90 56 60
        E 0 90 61 60
        E 120 80 1f 00
        E 0 80 3e 00
        E 0 80 4a 00
        E 0 80 56 00
        E 0 80 61 00
        E 0 90 1e 60
        E 0 90 61 60
        E 120 80 1e 00
        E 0 80 61 00
        E 0 90 18 60
        E 0 90 1f 60
        E 0 90 54 60
        E 0 90 56 60
        E 0 90 60 60
        E 0 90 61 60
        E 120 80 18 00
        E 0 80 1f 00
        E 0 80 54 00
        E 0 80 56 00
        E 0 80 60 00
        E 0 80 61 00
        E 0 90 1e 60
        E 0 90 61 60
        E 120 80 1e 00
        E 0 80 61 00
        E 0 90 1b 60
        E 0 90 49 60
        E 0 90 4a 60
        E 0 90 55 60
        E 0 90 56 60
        E 0 90 62 60
        E 120 80 1b 00
        E 0 80 49 00
        E 0 80 4a 00
        E 0 80 55 00
        E 0 80 56 00
        E 0 80 62 00
        E 0 90 1e 60
        E 0 90 61 60
        E 120 80 1e 00
        E 0 80 61 00
        E 0 90 1f 60
        E 0 90 56 60
        E 0 90 61 60
        E 120 80 1f 00
        E 0 80 56 00
        E 0 80 61 00
        E 0 90 1e 60
        E 0 90 61 60
        E 120 80 1e 00
        E 0 80 61 00
        E 0 90 18 60
        E 0 90 1f 60
        E 0 90 3e 60
        E 0 90 48 60
        E 0 90 4a 60
        E 0 90 54 60
        E 0 90 56 60
        E 0 90 60 60
        E 0 90 61 60
        E 120 80 18 00
        E 0 80 1f 00
        E 0 80 3e 00
        E 0 80 48 00
        E 0 80 4a 00
        E 0 80 54 00
        E 0 80 56 00
        E 0 80 60 00
        E 0 80 61 00
        E 0 90 1e 60
        E 0 90 61 60
        E 120 80 1e 00
        E 0 80 61 00
        E 0 90 1f 60
        E 0 90 56 60
        E 0 90 61 60
        E 120 80 1f 00
        E 0 80 56 00
        E 0 80 61 00
        E 0 90 1e 60
        E 0 90 61 60
        E 120 80 1e 00
        E 0 80 61 00
        E 0 90 1b 60
        E 0 90 49 60
        E 0 90 4a 60
        E 0 90 55 60
        E 0 90 56 60
        E 0 90 62 60
        E 120 80 1b 00
        E 0 80 49 00
        E 0 80 4a 00
        E 0 80 55 00
        E 0 80 56 00
        E 0 80 62 00
        E 0 90 1e 60
        E 0 90 61 60
        E 120 80 1e 00
        E 0 80 61 00
        E 0 90 1f 60
        E 0 90 56 60
        E 0 90 61 60
        E 120 80 1f 00
        E 0 80 56 00
        E 0 80 61 00
        E 0 90 1e 60
        E 0 90 61 60
        E 120 80 1e 00
        E 0 80 61 00
        E 0 90 1f 60
        E 0 90 3e 60
        E 0 90 4a 60
        E 0 90 56 60
        E 0 90 61 60
        E 120 80 1f 00
        E 0 80 3e 00
        E 0 80 4a 00
        E 0 80 56 00
        E 0 80 61 00
        E 0 90 1e 60
        E 0 90 61 60
        E 120 80 1e 00
        E 0 80 61 00
        E 0 90 18 60
        E 0 90 1f 60
        E 0 90 54 60
        E 0 90 56 60
        E 0 90 60 60
        E 0 90 61 60
        E 120 80 18 00
        E 0 80 1f 00
        E 0 80 54 00
        E 0 80 56 00
        E 0 80 60 00
        E 0 80 61 00
        E 0 90 1e 60
        E 0 90 61 60
        E 120 80 1e 00
        E 0 80 61 00
        E 0 90 1b 60
        E 0 90 49 60
        E 0 90 4a 60
        E 0 90 55 60
        E 0 90 56 60
        E 0 90 62 60
        E 120 80 1b 00
        E 0 80 49 00
        E 0 80 4a 00
        E 0 80 55 00
        E 0 80 56 00
        E 0 80 62 00
        E 0 90 1e 60
        E 0 90 61 60
        E 120 80 1e 00
        E 0 80 61 00
        E 0 90 1f 60
        E 0 90 56 60
        E 0 90 61 60
        E 120 80 1f 00
        E 0 80 56 00
        E 0 80 61 00
        E 0 90 1e 60
        E 0 90 61 60
        E 120 80 1e 00
        E 0 80 61 00
        E 0 90 18 60
        E 0 90 1f 60
        E 0 90 3e 60
        E 0 90 48 60
        E 0 90 4a 60
        E 0 90 54 60
        E 0 90 56 60
        E 0 90 60 60
        E 0 90 61 60
        E 120 80 18 00
        E 0 80 1f 00
        E 0 80 3e 00
        E 0 80 48 00
        E 0 80 4a 00
        E 0 80 54 00
        E 0 80 56 00
        E 0 80 60 00
        E 0 80 61 00
        E 0 90 1e 60
        E 0 90 61 60
        E 120 80 1e 00
        E 0 80 61 00
        E 0 90 1f 60
        E 0 90 56 60
        E 0 90 61 60
        E 120 80 1f 00
        E 0 80 56 00
        E 0 80 61 00
        E 0 90 1e 60
        E 0 90 61 60
        E 120 80 1e 00
        E 0 80 61 00
        E 0 90 1b 60
        E 0 90 49 60
        E 0 90 4a 60
        E 0 90 55 60
        E 0 90 56 60
        E 0 90 62 60
        E 120 80 1b 00
        E 0 80 49 00
        E 0 80 4a 00
        E 0 80 55 00
        E 0 80 56 00
        E 0 80 62 00
        E 0 90 1e 60
        E 0 90 61 60
        E 120 80 1e 00
        E 0 80 61 00
        E 0 90 1f 60
        E 0 90 56 60
        E 0 90 61 60
        E 120 80 1f 00
        E 0 80 56 00
        E 0 80 61 00
        E 0 90 1e 60
        E 0 90 61 60
        E 120 80 1e 00
        E 0 80 61 00
        E 0 90 1f 60
        E 0 90 3e 60
        E 0 90 4a 60
        E 0 90 56 60
        E 0 90 61 60
        E 120 80 1f 00
        E 0 80 3e 00
        E 0 80 4a 00
        E 0 80 56 00
        E 0 80 61 00
        E 0 90 1e 60
        E 0 90 61 60
        E 120 80 1e 00
        E 0 80 61 00
        E 0 90 18 60
        E 0 90 1f 60
        E 0 90 54 60
        E 0 90 56 60
        E 0 90 60 60
        E 0 90 61 60
        E 120 80 18 00
        E 0 80 1f 00
        E 0 80 54 00
        E 0 80 56 00
        E 0 80 60 00
        E 0 80 61 00
        E 0 90 1e 60
        E 0 90 61 60
        E 120 80 1e 00
        E 0 80 61 00
        E 0 90 1b 60
        E 0 90 49 60
        E 0 90 4a 60
        E 0 90 55 60
        E 0 90 56 60
        E 0 90 62 60
        E 120 80 1b 00
        E 0 80 49 00
        E 0 80 4a 00
        E 0 80 55 00
        E 0 80 56 00
        E 0 80 62 00
        E 0 90 1e 60
        E 0 90 61 60
        E 120 80 1e 00
        E 0 80 61 00
        E 0 90 1f 60
        E 0 90 56 60
        E 0 90 61 60
        E 120 80 1f 00
        E 0 80 56 00
        E 0 80 61 00
        E 0 90 1e 60
        E 0 90 61 60
        E 120 80 1e 00
        E 0 80 61 00
        E 0 90 18 60
        E 0 90 1f 60
        E 0 90 3e 60
        E 0 90 48 60
        E 0 90 4a 60
        E 0 90 54 60
        E 0 90 56 60
        E 0 90 60 60
        E 0 90 61 60
        E 120 80 18 00
        E 0 80 1f 00
        E 0 80 3e 00
        E 0 80 48 00
        E 0 80 4a 00
        E 0 80 54 00
        E 0 80 56 00
        E 0 80 60 00
        E 0 80 61 00
        E 0 90 1e 60
        E 0 90 61 60
        E 120 80 1e 00
        E 0 80 61 00
        E 0 90 1f 60
        E 0 90 56 60
        E 0 90 61 60
        E 120 80 1f 00
        E 0 80 56 00
        E 0 80 61 00
        E 0 90 1e 60
        E 0 90 61 60
        E 120 80 1e 00
        E 0 80 61 00
        E 0 90 1b 60
        E 0 90 49 60
        E 0 90 4a 60
        E 0 90 55 60
        E 0 90 56 60
        E 0 90 62 60
        E 120 80 1b 00
        E 0 80 49 00
        E 0 80 4a 00
        E 0 80 55 00
        E 0 80 56 00
        E 0 80 62 00
        E 0 90 1e 60
        E 0 90 61 60
        E 120 80 1e 00
        E 0 80 61 00
        E 0 90 1f 60
        E 0 90 56 60
        E 0 90 61 60
        E 120 80 1f 00
        E 0 80 56 00
        E 0 80 61 00
        E 0 90 1e 60
        E 0 90 61 60
        E 120 80 1e 00
        E 0 80 61 00
        E 0 90 1f 60
        E 0 90 3e 60
        E 0 90 4a 60
        E 0 90 56 60
        E 0 90 61 60
        E 120 80 1f 00
        E 0 80 3e 00
        E 0 80 4a 00
        E 0 80 56 00
        E 0 80 61 00
        E 0 90 1e 60
        E 0 90 61 60
        E 120 80 1e 00
        E 0 80 61 00
        E 0 90 18 60
        E 0 90 1f 60
        E 0 90 54 60
        E 0 90 56 60
        E 0 90 60 60
        E 0 90 61 60
        E 120 80 18 00
        E 0 80 1f 00
        E 0 80 54 00
        E 0 80 56 00
        E 0 80 60 00
        E 0 80 61 00
        E 0 90 1e 60
        E 0 90 61 60
        E 120 80 1e 00
        E 0 80 61 00
        E 0 90 1b 60
        E 0 90 49 60
        E 0 90 4a 60
        E 0 90 55 60
        E 0 90 56 60
        E 0 90 62 60
        E 120 80 1b 00
        E 0 80 49 00
        E 0 80 4a 00
        E 0 80 55 00
        E 0 80 56 00
        E 0 80 62 00
        E 0 90 1e 60
        E 0 90 61 60
        E 120 80 1e 00
        E 0 80 61 00
        E 0 90 1f 60
        E 0 90 56 60
        E 0 90 61 60
        E 120 80 1f 00
        E 0 80 56 00
        E 0 80 61 00
        E 0 90 1e 60
        E 0 90 61 60
        E 120 80 1e 00
        E 0 80 61 00
        E 0 90 18 60
        E 0 90 1f 60
        E 0 90 3e 60
        E 0 90 48 60
        E 0 90 4a 60
        E 0 90 54 60
        E 0 90 56 60
        E 0 90 60 60
        E 0 90 61 60
        E 120 80 18 00
        E 0 80 1f 00
        E 0 80 3e 00
        E 0 80 48 00
        E 0 80 4a 00
        E 0 80 54 00
        E 0 80 56 00
        E 0 80 60 00
        E 0 80 61 00
        E 0 90 1e 60
        E 0 90 61 60
        E 120 80 1e 00
        E 0 80 61 00
        E 0 90 1f 60
        E 0 90 56 60
        E 0 90 61 60
        E 120 80 1f 00
        E 0 80 56 00
        E 0 80 61 00
        E 0 90 1e 60
        E 0 90 61 60
        E 120 80 1e 00
        E 0 80 61 00
        E 0 90 1b 60
        E 0 90 49 60
        E 0 90 4a 60
        E 0 90 55 60
        E 0 90 56 60
        E 0 90 62 60
        E 120 80 1b 00
        E 0 80 49 00
        E 0 80 4a 00
        E 0 80 55 00
        E 0 80 56 00
        E 0 80 62 00
        E 0 90 1e 60
        E 0 90 61 60
        E 120 80 1e 00
        E 0 80 61 00
        E 0 90 1f 60
        E 0 90 56 60
        E 0 90 61 60
        E 120 80 1f 00
        E 0 80 56 00
        E 0 80 61 00
        E 0 90 1e 60
        E 0 90 61 60
        E 120 80 1e 00
        E 0 80 61 00
        E 0 90 1f 60
        E 0 90 3e 60
        E 0 90 4a 60
        E 0 90 56 60
        E 0 90 61 60
        E 120 80 1f 00
        E 0 80 3e 00
        E 0 80 4a 00
        E 0 80 56 00
        E 0 80 61 00
        E 0 90 1e 60
        E 0 90 61 60
        E 120 80 1e 00
        E 0 80 61 00
        E 0 90 18 60
        E 0 90 1f 60
        E 0 90 54 60
        E 0 90 56 60
        E 0 90 60 60
        E 0 90 61 60
        E 120 80 18 00
        E 0 80 1f 00
        E 0 80 54 00
        E 0 80 56 00
        E 0 80 60 00
        E 0 80 61 00
        E 0 90 1e 60
        E 0 90 61 60
        E 120 80 1e 00
        E 0 80 61 00
        E 0 90 1b 60
        E 0 90 49 60
        E 0 90 4a 60
        E 0 90 55 60
        E 0 90 56 60
        E 0 90 62 60
        E 120 80 1b 00
        E 0 80 49 00
        E 0 80 4a 00
        E 0 80 55 00
        E 0 80 56 00
        E 0 80 62 00
        E 0 90 1e 60
        E 0 90 61 60
        E 120 80 1e 00
        E 0 80 61 00
        E 0 90 1f 60
        E 0 90 56 60
        E 0 90 61 60
        E 120 80 1f 00
        E 0 80 56 00
        E 0 80 61 00
        E 0 90 1e 60
        E 0 90 61 60
        E 120 80 1e 00
        E 0 80 61 00
        E 0 90 18 60
        E 0 90 1f 60
        E 0 90 3e 60
        E 0 90 48 60
        E 0 90 4a 60
        E 0 90 54 60
        E 0 90 56 60
        E 0 90 60 60
        E 0 90 61 60
        E 0 90 78 60
        E 0 90 79 60
        E 0 90 7a 60
        E 0 90 7b 60
        E 0 90 7c 60
        E 120 80 18 00
        E 0 80 1f 00
        E 0 80 3e 00
        E 0 80 48 00
        E 0 80 4a 00
        E 0 80 54 00
        E 0 80 56 00
        E 0 80 60 00
        E 0 80 61 00
        E 0 90 1e 60
        E 0 90 61 60
        E 120 80 1e 00
        E 0 80 61 00
        E 0 90 1f 60
        E 0 90 56 60
        E 0 90 61 60
        E 120 80 1f 00
        E 0 80 56 00
        E 0 80 61 00
        E 0 90 1e 60
        E 0 90 61 60
        E 120 80 1e 00
        E 0 80 61 00
        E 0 90 1b 60
        E 0 90 49 60
        E 0 90 4a 60
        E 0 90 55 60
        E 0 90 56 60
        E 0 90 62 60
        E 120 80 1b 00
        E 0 80 49 00
        E 0 80 4a 00
        E 0 80 55 00
        E 0 80 56 00
        E 0 80 62 00
        E 0 90 1e 60
        E 0 90 61 60
        E 120 80 1e 00
        E 0 80 61 00
        E 0 90 1f 60
        E 0 90 56 60
        E 0 90 61 60
        E 120 80 1f 00
        E 0 80 56 00
        E 0 80 61 00
        E 0 90 1e 60
        E 0 90 61 60
        E 120 80 1e 00
        E 0 80 61 00
        E 0 90 1f 60
        E 0 90 3e 60
        E 0 90 4a 60
        E 0 90 56 60
        E 0 90 61 60
        E 120 80 1f 00
        E 0 80 3e 00
        E 0 80 4a 00
        E 0 80 56 00
        E 0 80 61 00
        E 0 90 1e 60
        E 0 90 61 60
        E 120 80 1e 00
        E 0 80 61 00
        E 0 90 18 60
        E 0 90 1f 60
        E 0 90 54 60
        E 0 90 56 60
        E 0 90 60 60
        E 0 90 61 60
        E 120 80 18 00
        E 0 80 1f 00
        E 0 80 54 00
        E 0 80 56 00
        E 0 80 60 00
        E 0 80 61 00
        E 0 90 1e 60
        E 0 90 61 60
        E 120 80 1e 00
        E 0 80 61 00
        E 0 90 1f 60
        E 0 90 4a 60
        E 0 90 56 60
        E 0 90 61 60
        E 120 80 1f 00
        E 0 80 4a 00
        E 0 80 56 00
        E 0 80 61 00
        E 0 90 1e 60
        E 0 90 61 60
        E 120 80 1e 00
        E 0 80 61 00
        E 0 90 1b 60
        E 0 90 55 60
        E 0 90 56 60
        E 0 90 62 60
        E 120 80 1b 00
        E 0 80 55 00
        E 0 80 56 00
        E 0 80 62 00
        E 0 90 1e 60
        E 0 90 61 60
        E 120 80 78 00
        E 0 80 79 00
        E 0 80 7a 00
        E 0 80 7b 00
        E 0 80 7c 00
        E 0 80 1e 00
        E 0 80 61 00
        E 0 90 18 60
        E 0 90 1f 60
        E 0 90 3e 60
        E 0 90 48 60
        E 0 90 4a 60
        E 0 90 54 60
        E 0 90 56 60
        E 0 90 60 60
        E 0 90 61 60
        E 120 80 18 00
        E 0 80 1f 00
        E 0 80 3e 00
        E 0 80 48 00
        E 0 80 4a 00
        E 0 80 54 00
        E 0 80 56 00
        E 0 80 60 00
        E 0 80 61 00
        E 0 90 1e 60
        E 0 90 61 60
        E 120 80 1e 00
        E 0 80 61 00
        E 0 90 1f 60
        E 0 90 56 60
        E 0 90 61 60
        E 120 80 1f 00
        E 0 80 56 00
        E 0 80 61 00
        E 0 90 1e 60
        E 0 90 61 60
        E 120 80 1e 00
        E 0 80 61 00
        E 0 90 1f 60
        E 0 90 4a 60
        E 0 90 56 60
        E 0 90 61 60
        E 120 80 1f 00
        E 0 80 4a 00
        E 0 80 56 00
        E 0 80 61 00
        E 0 90 1e 60
        E 0 90 61 60
        E 120 80 1e 00
        E 0 80 61 00
        E 0 90 18 60
        E 0 90 1f 60
        E 0 90 54 60
        E 0 90 56 60
        E 0 90 60 60
        E 0 90 61 60
        E 120 80 18 00
        E 0 80 1f 00
        E 0 80 54 00
        E 0 80 56 00
        E 0 80 60 00
        E 0 80 61 00
        E 0 90 1e 60
        E 0 90 61 60
        E 120 80 1e 00
        E 0 80 61 00
        E 0 90 18 60
        E 0 90 1f 60
        E 0 90 3e 60
        E 0 90 48 60
        E 0 90 4a 60
        E 0 90 54 60
        E 0 90 56 60
        E 0 90 60 60
        E 0 90 61 60
        E 120 80 18 00
        E 0 80 1f 00
        E 0 80 3e 00
        E 0 80 48 00
        E 0 80 4a 00
        E 0 80 54 00
        E 0 80 56 00
        E 0 80 60 00
        E 0 80 61 00
        E 0 90 1e 60
        E 0 90 61 60
        E 120 80 1e 00
        E 0 80 61 00
        E 0 90 1f 60
        E 0 90 56 60
        E 0 90 61 60
        E 120 80 1f 00
        E 0 80 56 00
        E 0 80 61 00
        E 0 90 1e 60
        E 0 90 61 60
        E 120 80 1e 00
        E 0 80 61 00
        E 0 90 1f 60
        E 0 90 4a 60
        E 0 90 56 60
        E 0 90 61 60
        E 120 80 1f 00
        E 0 80 4a 00
        E 0 80 56 00
        E 0 80 61 00
        E 0 90 1e 60
        E 0 90 61 60
        E 120 80 1e 00
        E 0 80 61 00
        E 0 90 1f 60
        E 0 90 56 60
        E 0 90 61 60
        E 120 80 1f 00
        E 0 80 56 00
        E 0 80 61 00
        E 0 90 1e 60
        E 0 90 61 60
        E 120 80 1e 00
        E 0 80 61 00
        E 0 90 18 60
        E 0 90 1f 60
        E 0 90 3e 60
        E 0 90 48 60
        E 0 90 4a 60
        E 0 90 54 60
        E 0 90 56 60
        E 0 90 60 60
        E 0 90 61 60
        E 120 80 18 00
        E 0 80 1f 00
        E 0 80 3e 00
        E 0 80 48 00
        E 0 80 4a 00
        E 0 80 54 00
        E 0 80 56 00
        E 0 80 60 00
        E 0 80 61 00
        E 0 90 1e 60
        E 0 90 61 60
        E 120 80 1e 00
        E 0 80 61 00
        E 0 90 1f 60
        E 0 90 56 60
        E 0 90 61 60
        E 120 80 1f 00
        E 0 80 56 00
        E 0 80 61 00
        E 0 90 1e 60
        E 0 90 61 60
        E 120 80 1e 00
        E 0 80 61 00
        E 0 90 1f 60
        E 0 90 4a 60
        E 0 90 56 60
        E 0 90 61 60
        E 120 80 1f 00
        E 0 80 4a 00
        E 0 80 56 00
        E 0 80 61 00
        E 0 90 1e 60
        E 0 90 61 60
        E 120 80 1e 00
        E 0 80 61 00
        E 0 90 18 60
        E 0 90 1f 60
        E 0 90 54 60
        E 0 90 56 60
        E 0 90 60 60
        E 0 90 61 60
        E 120 80 18 00
        E 0 80 1f 00
        E 0 80 54 00
        E 0 80 56 00
        E 0 80 60 00
        E 0 80 61 00
        E 0 90 1e 60
        E 0 90 61 60
        E 120 80 1e 00
        E 0 80 61 00
        E 0 90 18 60
        E 0 90 1f 60
        E 0 90 3e 60
        E 0 90 48 60
        E 0 90 4a 60
        E 0 90 54 60
        E 0 90 56 60
        E 0 90 60 60
        E 0 90 61 60
        E 120 80 18 00
        E 0 80 1f 00
        E 0 80 3e 00
        E 0 80 48 00
        E 0 80 4a 00
        E 0 80 54 00
        E 0 80 56 00
        E 0 80 60 00
        E 0 80 61 00
        E 0 90 1e 60
        E 0 90 61 60
        E 120 80 1e 00
        E 0 80 61 00
        E 0 90 1f 60
        E 0 90 56 60
        E 0 90 61 60
        E 120 80 1f 00
        E 0 80 56 00
        E 0 80 61 00
        E 0 90 1e 60
        E 0 90 61 60
        E 120 80 1e 00
        E 0 80 61 00
        E 0 90 1b 60
        E 0 90 49 60
        E 0 90 4a 60
        E 0 90 55 60
        E 0 90 56 60
        E 0 90 62 60
        E 120 80 1b 00
        E 0 80 49 00
        E 0 80 4a 00
        E 0 80 55 00
        E 0 80 56 00
        E 0 80 62 00
        E 0 90 1e 60
        E 0 90 61 60
        E 120 80 1e 00
        E 0 80 61 00
        E 0 90 1f 60
        E 0 90 56 60
        E 0 90 61 60
        E 120 80 1f 00
        E 0 80 56 00
        E 0 80 61 00
        E 0 90 1e 60
        E 0 90 61 60
        E 120 80 1e 00
        E 0 80 61 00
        E 0 90 18 60
        E 0 90 25 60
        E 0 90 40 60
        E 0 90 48 60
        E 0 90 4c 60
        E 0 90 54 60
        E 0 90 58 60
        E 0 90 60 60
        E 0 90 64 60
        E 120 80 18 00
        E 0 80 25 00
        E 0 80 40 00
        E 0 80 48 00
        E 0 80 4c 00
        E 0 80 54 00
        E 0 80 58 00
        E 0 80 60 00
        E 0 80 64 00
        <X 360 0
          /wFbbWl4IDMgZHJ1bXMwXQ==
        >
        E 1440 90 18 60
        E 0 90 25 60
        E 0 90 40 60
        E 0 90 48 60
        E 0 90 4c 60
        E 0 90 54 60
        E 0 90 58 60
        E 0 90 60 60
        E 0 90 64 60
        E 120 80 18 00
        E 0 80 25 00
        E 0 80 40 00
        E 0 80 48 00
        E 0 80 4c 00
        E 0 80 54 00
        E 0 80 58 00
        E 0 80 60 00
        E 0 80 64 00
        E 840 90 18 60
        E 0 90 2e 60
        E 0 90 3e 60
        E 0 90 4a 60
        E 0 90 54 60
        E 0 90 56 60
        E 0 90 60 60
        E 0 90 62 60
        E 0 90 6e 60
        E 0 90 6f 60
        E 120 80 18 00
        E 0 80 2e 00
        E 0 80 3e 00
        E 0 80 4a 00
        E 0 80 54 00
        E 0 80 56 00
        E 0 80 60 00
        E 0 80 62 00
        E 120 90 31 60
        E 0 90 57 60
        E 0 90 63 60
        E 120 80 31 00
        E 0 80 57 00
        E 0 80 63 00
        E 120 90 2e 60
        E 0 90 4a 60
        E 0 90 56 60
        E 0 90 62 60
        E 120 80 2e 00
        E 0 80 4a 00
        E 0 80 56 00
        E 0 80 62 00
        E 120 90 2e 60
        E 0 90 56 60
        E 0 90 62 60
        E 120 80 6e 00
        E 0 80 6f 00
        E 0 80 2e 00
        E 0 80 56 00
        E 0 80 62 00
        E 120 90 18 60
        E 0 90 24 60
        E 0 90 40 60
        E 0 90 48 60
        E 0 90 4c 60
        E 0 90 54 60
        E 0 90 58 60
        E 0 90 60 60
        E 0 90 64 60
        E 120 80 18 00
        E 0 80 24 00
        E 0 80 40 00
        E 0 80 48 00
        E 0 80 4c 00
        E 0 80 54 00
        E 0 80 58 00
        E 0 80 60 00
        E 0 80 64 00
        <X 359 0
          /wFbaWRsZV9yZWFsdGltZV0=
        >
        E 26401 b0 7b 00
        GUID {64356A2B-8A0D-43F4-AD91-83B009D358FC}
        IGNTEMPO 0 120.00000000 4 4
        SRCCOLOR 1
        VELLANE 132 128 60
        COLORMAP "C:\Program Files\REAPER (x64)\Data\color_maps\rockband_guitarbass.png"
        CFGEDITVIEW 46301.048814 30.491723 7 12 0 0 0
        CFGEDIT 1 1 0 1 1 0 1 1 1 1 1 0.25000000 -8 -8 1544 872 0 2 1 1 0.00000000 0 1 1 0 0.500000 0 0 1.000000 64
        KEYSNAP 0 7 "102030050700" 0 "Pentatonic"
        EVTFILTER 0 -1 -1 -1 -1 0 1 0 0 -1.00000000 -1.00000000
      >
    >
  >
  <TRACK '{041C66E3-DFCA-48A5-A74F-C2092A37BED9}'
    NAME "drums"
    PEAKCOL 16576
    BEAT -1
    AUTOMODE 0
    VOLPAN 1.00000000000000 0.00000000000000 -1.00000000000000 -1.00000000000000 1.00000000000000
    MUTESOLO 0 0 0
    IPHASE 0
    ISBUS 2 -1
    BUSCOMP 0 0
    SHOWINMIX 1 0.666700 0.500000 1 0.500000 -1 -1 -1
    FREEMODE 0
    SEL 0
    REC 0 0 0 0 0 0 0
    VU 2
    TRACKHEIGHT 0 0
    INQ 0 0 0 0.5000000000 100 0 0 100
    NCHAN 2
    FX 1
    TRACKID {041C66E3-DFCA-48A5-A74F-C2092A37BED9}
    PERF 0
    MIDIOUT -1
    MAINSEND 1 0
    <ITEM
      POSITION 0.00000000000000
      SNAPOFFS 0.00000000000000
      LENGTH 286.40909297052156
      LOOP 0
      ALLTAKES 0
      SEL 0
      FADEIN 1 0.000000 0.000000 1 0
      FADEOUT 1 0.000000 0.000000 1 0
      MUTE 0
      IGUID {520E9203-739D-4EEE-B71F-18DEC3C60914}
      IID 16
      NAME "drums.wav"
      VOLPAN 1.000000 0.000000 1.000000 -1.000000
      SOFFS 0.00000000000000
      PLAYRATE 1.00000000000000 1 0.00000000000000 -1
      CHANMODE 0
      GUID {BE2FF703-C11A-4247-A625-EB69C081E094}
      <SOURCE WAVE
        FILE "C:\Users\Ruggery\Documents\Visual Studio Code\Projects\ruggy-customs-projects\songs\itstimetojump\wav\drums.wav"
      >
    >
  >
  <TRACK '{0635A94F-41FC-4D20-A922-7B66F01679FD}'
    NAME "PART BASS"
    PEAKCOL 16576
    BEAT -1
    AUTOMODE 0
    VOLPAN 1.00000000000000 0.00000000000000 -1.00000000000000 -1.00000000000000 1.00000000000000
    MUTESOLO 0 0 0
    IPHASE 0
    ISBUS 1 1
    BUSCOMP 0 0
    SHOWINMIX 1 0.666700 0.500000 1 0.500000 -1 -1 -1
    FREEMODE 0
    SEL 0
    REC 0 0 0 0 0 0 0
    VU 2
    TRACKHEIGHT 0 0
    INQ 0 0 0 0.5000000000 100 0 0 100
    NCHAN 2
    FX 1
    TRACKID {0635A94F-41FC-4D20-A922-7B66F01679FD}
    PERF 0
    MIDIOUT -1
    <MIDINOTENAMES
      0 127 "TRILL MARKER"
      0 126 "TREMOLO MARKER"
      0 125 "---"
      0 124 "BRE"
      0 123 "BRE"
      0 122 "BRE"
      0 121 "BRE"
      0 120 "BRE (use all 5)"
      0 119 "----"
      0 116 "OVERDRIVE"
      0 115 "----"
      0 103 "Solo Marker"
      0 102 "Force HOPO Off"
      0 101 "Force HOPO On"
      0 100 "EXPERT Orange"
      0 99 "EXPERT Blue"
      0 98 "EXPERT Yellow"
      0 97 "EXPERT Red"
      0 96 "EXPERT Green"
      0 95 "----"
      0 90 "Force HOPO Off"
      0 89 "Force HOPO On"
      0 88 "HARD Orange"
      0 87 "HARD Blue"
      0 86 "HARD Yellow"
      0 85 "HARD Red"
      0 84 "HARD Green"
      0 77 "----"
      0 76 "MEDIUM Orange"
      0 75 "MEDIUM Blue"
      0 74 "MEDIUM Yellow"
      0 73 "MEDIUM Red"
      0 72 "MEDIUM Green"
      0 65 "----"
      0 64 "EASY Orange"
      0 63 "EASY Blue"
      0 62 "EASY Yellow"
      0 61 "EASY Red"
      0 60 "EASY Green"
      0 59 "Fret 12"
      0 57 "Fret 11"
      0 56 "Fret 10"
      0 55 "Fret 9"
      0 53 "Fret 8"
      0 52 "Fret 7"
      0 50 "Fret 6"
      0 49 "Fret 5"
      0 47 "Fret 4"
      0 45 "Fret 3"
      0 43 "Fret 2"
      0 40 "Fret 1"
    >
    MAINSEND 1 0
    <FXCHAIN
      WNDRECT 0 43 891 559
      SHOW 0
      LASTSEL 0
      DOCKED 0
      BYPASS 0 0
      <VST "VSTi: RBN Preview (RBN)" "rbprev_vst64.dll" 0 ""
        dnBicu5e7f4AAAAAAgAAAAEAAAAAAAAAAgAAAAAAAAAEAAAAAQAAAA==
        AAAQAAMAqgAAABAAAAA=
      >
      FLOATPOS 0 0 0 0
      FXID {B06B8281-CC56-4946-92E0-F02079D7F9AC}
      WAK 0
    >
    <ITEM
      POSITION 0.00000000000000
      SNAPOFFS 0.00000000000000
      LENGTH 286.40908800000000
      LOOP 0
      ALLTAKES 0
      SEL 0
      FADEIN 1 0.000000 0.000000 1 0
      FADEOUT 1 0.000000 0.000000 1 0
      MUTE 0
      IGUID {B1A41153-3FCF-4BFC-BC61-C81655A90A74}
      IID 2
      NAME "PART BASS"
      VOLPAN 1.000000 0.000000 1.000000 -1.000000
      SOFFS 0.00000000000000 0.00000000000000
      PLAYRATE 1.00000000000000 1 0.00000000000000 -1
      CHANMODE 0
      GUID {FCC96F57-FCF2-465D-99A6-18B9C62209E9}
      <SOURCE MIDI
        HASDATA 1 480 QN
        POOLEDEVTS {932AF969-2978-4BB8-96D7-BD06A3A53169}
        <X 0 0
          /wNQQVJUIEJBU1M=
        >
        <X 5760 0
          /wFbcGxheV0=
        >
        E 0 90 2d 67
        E 0 90 3c 60
        E 0 90 48 60
        E 0 90 54 60
        E 0 90 60 60
        E 3360 80 3c 00
        E 120 80 48 00
        E 120 80 54 00
        E 0 80 60 00
        E 240 90 3c 60
        E 0 90 49 60
        E 0 90 55 60
        E 0 90 61 60
        E 2400 80 3c 00
        E 120 80 49 00
        E 120 80 55 00
        E 0 80 61 00
        E 240 90 3e 60
        E 0 90 4b 60
        E 0 90 57 60
        E 0 90 63 60
        E 120 80 3e 00
        E 480 80 4b 00
        E 120 80 57 00
        E 0 80 63 00
        E 240 90 3d 60
        E 0 90 4a 60
        E 0 90 56 60
        E 0 90 62 60
        E 2400 80 3d 00
        E 120 80 4a 00
        E 120 80 56 00
        E 0 80 62 00
        E 240 90 3e 60
        E 0 90 4b 60
        E 0 90 58 60
        E 0 90 64 60
        E 120 80 3e 00
        E 480 80 4b 00
        E 120 80 58 00
        E 0 80 64 00
        E 240 90 3e 60
        E 0 90 4b 60
        E 0 90 57 60
        E 0 90 63 60
        E 3360 80 3e 00
        E 120 80 4b 00
        E 120 80 57 00
        E 0 80 63 00
        E 240 90 3c 60
        E 0 90 48 60
        E 0 90 54 60
        E 0 90 60 60
        E 3360 80 3c 00
        E 120 80 48 00
        E 120 80 54 00
        E 0 80 60 00
        E 240 90 3c 60
        E 0 90 49 60
        E 0 90 55 60
        E 0 90 61 60
        E 2400 80 3c 00
        E 120 80 49 00
        E 120 80 55 00
        E 0 80 61 00
        E 240 90 3e 60
        E 0 90 4b 60
        E 0 90 57 60
        E 0 90 63 60
        E 0 90 74 60
        E 120 80 3e 00
        E 480 80 4b 00
        E 120 80 57 00
        E 0 80 63 00
        E 240 90 3d 60
        E 0 90 4a 60
        E 0 90 56 60
        E 0 90 62 60
        E 2400 80 3d 00
        E 120 80 4a 00
        E 120 80 56 00
        E 0 80 62 00
        E 240 90 3e 60
        E 0 90 4b 60
        E 0 90 58 60
        E 0 90 64 60
        E 120 80 3e 00
        E 480 80 4b 00
        E 120 80 58 00
        E 0 80 64 00
        E 240 90 3e 60
        E 0 90 4b 60
        E 0 90 57 60
        E 0 90 63 60
        E 240 80 74 00
        E 3120 80 3e 00
        E 120 80 4b 00
        E 120 80 57 00
        E 0 80 63 00
        E 240 90 3c 60
        E 0 90 48 60
        E 0 90 54 60
        E 0 90 60 60
        E 3360 80 3c 00
        E 120 80 48 00
        E 120 80 54 00
        E 0 80 60 00
        E 240 90 3c 60
        E 0 90 49 60
        E 0 90 55 60
        E 0 90 61 60
        E 2400 80 3c 00
        E 120 80 49 00
        E 120 80 55 00
        E 0 80 61 00
        E 240 90 3e 60
        E 0 90 4b 60
        E 0 90 57 60
        E 0 90 63 60
        E 120 80 3e 00
        E 480 80 4b 00
        E 120 80 57 00
        E 0 80 63 00
        E 240 90 3d 60
        E 0 90 4a 60
        E 0 90 56 60
        E 0 90 62 60
        E 2400 80 3d 00
        E 120 80 4a 00
        E 120 80 56 00
        E 0 80 62 00
        E 240 90 3e 60
        E 0 90 4b 60
        E 0 90 58 60
        E 0 90 64 60
        E 120 80 3e 00
        E 480 80 4b 00
        E 120 80 58 00
        E 0 80 64 00
        E 240 90 3e 60
        E 0 90 4b 60
        E 0 90 57 60
        E 0 90 63 60
        E 3360 80 3e 00
        E 120 80 4b 00
        E 120 80 57 00
        E 0 80 63 00
        E 240 90 3c 60
        E 0 90 48 60
        E 0 90 54 60
        E 0 90 60 60
        E 3360 80 3c 00
        E 120 80 48 00
        E 120 80 54 00
        E 0 80 60 00
        E 240 90 3c 60
        E 0 90 49 60
        E 0 90 55 60
        E 0 90 61 60
        E 2400 80 3c 00
        E 120 80 49 00
        E 120 80 55 00
        E 0 80 61 00
        E 240 90 3e 60
        E 0 90 4b 60
        E 0 90 57 60
        E 0 90 63 60
        E 120 80 3e 00
        E 480 80 4b 00
        E 120 80 57 00
        E 0 80 63 00
        E 240 90 3d 60
        E 0 90 4a 60
        E 0 90 56 60
        E 0 90 62 60
        E 2400 80 3d 00
        E 120 80 4a 00
        E 120 80 56 00
        E 0 80 62 00
        E 240 90 3e 60
        E 0 90 4b 60
        E 0 90 58 60
        E 0 90 64 60
        E 0 90 74 60
        E 120 80 3e 00
        E 480 80 4b 00
        E 120 80 58 00
        E 0 80 64 00
        E 240 90 3e 60
        E 0 90 4b 60
        E 0 90 57 60
        E 0 90 63 60
        E 3360 80 3e 00
        E 120 80 4b 00
        E 120 80 57 00
        E 0 80 63 00
        E 121 80 2d 00
        E 119 80 74 00
        E 0 90 28 65
        E 0 90 3e 60
        E 0 90 4b 60
        E 0 90 58 60
        E 0 90 64 60
        E 120 80 3e 00
        E 0 80 4b 00
        E 0 80 58 00
        E 0 80 64 00
        E 360 90 4b 60
        E 0 90 58 60
        E 0 90 64 60
        E 120 80 4b 00
        E 0 80 58 00
        E 0 80 64 00
        E 360 90 3e 60
        E 0 90 4b 60
        E 0 90 58 60
        E 0 90 64 60
        E 120 80 3e 00
        E 0 80 4b 00
        E 0 80 58 00
        E 0 80 64 00
        E 360 90 4b 60
        E 0 90 58 60
        E 0 90 64 60
        E 120 80 4b 00
        E 0 80 58 00
        E 0 80 64 00
        E 360 90 3e 60
        E 0 90 4b 60
        E 0 90 58 60
        E 0 90 64 60
        E 120 80 3e 00
        E 0 80 4b 00
        E 0 80 58 00
        E 0 80 64 00
        E 360 90 4b 60
        E 0 90 58 60
        E 0 90 64 60
        E 120 80 4b 00
        E 0 80 58 00
        E 0 80 64 00
        E 360 90 3e 60
        E 0 90 4b 60
        E 0 90 58 60
        E 0 90 64 60
        E 120 80 3e 00
        E 0 80 4b 00
        E 0 80 58 00
        E 0 80 64 00
        E 360 90 4b 60
        E 0 90 58 60
        E 0 90 64 60
        E 120 80 4b 00
        E 0 80 58 00
        E 0 80 64 00
        E 360 90 3c 60
        E 0 90 48 60
        E 0 90 54 60
        E 0 90 60 60
        E 120 80 3c 00
        E 0 80 48 00
        E 0 80 54 00
        E 0 80 60 00
        E 360 90 48 60
        E 0 90 54 60
        E 0 90 60 60
        E 120 80 48 00
        E 0 80 54 00
        E 0 80 60 00
        E 360 90 3c 60
        E 0 90 48 60
        E 0 90 54 60
        E 0 90 60 60
        E 120 80 3c 00
        E 0 80 48 00
        E 0 80 54 00
        E 0 80 60 00
        E 360 90 48 60
        E 0 90 54 60
        E 0 90 60 60
        E 120 80 48 00
        E 0 80 54 00
        E 0 80 60 00
        E 360 90 3c 60
        E 0 90 48 60
        E 0 90 54 60
        E 0 90 60 60
        E 120 80 3c 00
        E 0 80 48 00
        E 0 80 54 00
        E 0 80 60 00
        E 360 90 48 60
        E 0 90 54 60
        E 0 90 60 60
        E 120 80 48 00
        E 0 80 54 00
        E 0 80 60 00
        E 360 90 3c 60
        E 0 90 48 60
        E 0 90 54 60
        E 0 90 60 60
        E 120 80 3c 00
        E 0 80 48 00
        E 0 80 54 00
        E 0 80 60 00
        E 360 90 48 60
        E 0 90 54 60
        E 0 90 60 60
        E 120 80 48 00
        E 0 80 54 00
        E 0 80 60 00
        E 360 90 3d 60
        E 0 90 4a 60
        E 0 90 56 60
        E 0 90 62 60
        E 120 80 3d 00
        E 0 80 4a 00
        E 0 80 56 00
        E 0 80 62 00
        E 360 90 4a 60
        E 0 90 56 60
        E 0 90 62 60
        E 120 80 4a 00
        E 0 80 56 00
        E 0 80 62 00
        E 360 90 3d 60
        E 0 90 4a 60
        E 0 90 56 60
        E 0 90 62 60
        E 120 80 3d 00
        E 0 80 4a 00
        E 0 80 56 00
        E 0 80 62 00
        E 360 90 4a 60
        E 0 90 56 60
        E 0 90 62 60
        E 120 80 4a 00
        E 0 80 56 00
        E 0 80 62 00
        E 360 90 3d 60
        E 0 90 4a 60
        E 0 90 56 60
        E 0 90 62 60
        E 120 80 3d 00
        E 0 80 4a 00
        E 0 80 56 00
        E 0 80 62 00
        E 360 90 4a 60
        E 0 90 56 60
        E 0 90 62 60
        E 120 80 4a 00
        E 0 80 56 00
        E 0 80 62 00
        E 360 90 3d 60
        E 0 90 4a 60
        E 0 90 56 60
        E 0 90 62 60
        E 120 80 3d 00
        E 0 80 4a 00
        E 0 80 56 00
        E 0 80 62 00
        E 360 90 4a 60
        E 0 90 56 60
        E 0 90 62 60
        E 120 80 4a 00
        E 0 80 56 00
        E 0 80 62 00
        E 360 90 3c 60
        E 0 90 49 60
        E 0 90 55 60
        E 0 90 61 60
        E 120 80 3c 00
        E 0 80 49 00
        E 0 80 55 00
        E 0 80 61 00
        E 360 90 49 60
        E 0 90 55 60
        E 0 90 61 60
        E 120 80 49 00
        E 0 80 55 00
        E 0 80 61 00
        E 360 90 3c 60
        E 0 90 49 60
        E 0 90 55 60
        E 0 90 61 60
        E 120 80 3c 00
        E 0 80 49 00
        E 0 80 55 00
        E 0 80 61 00
        E 360 90 49 60
        E 0 90 55 60
        E 0 90 61 60
        E 120 80 49 00
        E 0 80 55 00
        E 0 80 61 00
        E 360 90 3c 60
        E 0 90 49 60
        E 0 90 55 60
        E 0 90 61 60
        E 120 80 3c 00
        E 0 80 49 00
        E 0 80 55 00
        E 0 80 61 00
        E 360 90 49 60
        E 0 90 55 60
        E 0 90 61 60
        E 120 80 49 00
        E 0 80 55 00
        E 0 80 61 00
        E 360 90 3c 60
        E 0 90 49 60
        E 0 90 55 60
        E 0 90 61 60
        E 120 80 3c 00
        E 0 80 49 00
        E 0 80 55 00
        E 0 80 61 00
        E 360 90 49 60
        E 0 90 55 60
        E 0 90 61 60
        E 120 80 49 00
        E 0 80 55 00
        E 0 80 61 00
        E 360 90 3e 60
        E 0 90 4b 60
        E 0 90 58 60
        E 0 90 64 60
        E 120 80 3e 00
        E 0 80 4b 00
        E 0 80 58 00
        E 0 80 64 00
        E 360 90 4b 60
        E 0 90 58 60
        E 0 90 64 60
        E 120 80 4b 00
        E 0 80 58 00
        E 0 80 64 00
        E 360 90 3e 60
        E 0 90 4b 60
        E 0 90 58 60
        E 0 90 64 60
        E 120 80 3e 00
        E 0 80 4b 00
        E 0 80 58 00
        E 0 80 64 00
        E 360 90 4b 60
        E 0 90 58 60
        E 0 90 64 60
        E 120 80 4b 00
        E 0 80 58 00
        E 0 80 64 00
        E 360 90 3e 60
        E 0 90 4b 60
        E 0 90 58 60
        E 0 90 64 60
        E 120 80 3e 00
        E 0 80 4b 00
        E 0 80 58 00
        E 0 80 64 00
        E 360 90 4b 60
        E 0 90 58 60
        E 0 90 64 60
        E 120 80 4b 00
        E 0 80 58 00
        E 0 80 64 00
        E 360 90 3e 60
        E 0 90 4b 60
        E 0 90 58 60
        E 0 90 64 60
        E 120 80 3e 00
        E 0 80 4b 00
        E 0 80 58 00
        E 0 80 64 00
        E 360 90 4b 60
        E 0 90 58 60
        E 0 90 64 60
        E 120 80 4b 00
        E 0 80 58 00
        E 0 80 64 00
        E 360 90 3c 60
        E 0 90 48 60
        E 0 90 54 60
        E 0 90 60 60
        E 120 80 3c 00
        E 0 80 48 00
        E 0 80 54 00
        E 0 80 60 00
        E 360 90 48 60
        E 0 90 54 60
        E 0 90 60 60
        E 120 80 48 00
        E 0 80 54 00
        E 0 80 60 00
        E 360 90 3c 60
        E 0 90 48 60
        E 0 90 54 60
        E 0 90 60 60
        E 120 80 3c 00
        E 0 80 48 00
        E 0 80 54 00
        E 0 80 60 00
        E 360 90 48 60
        E 0 90 54 60
        E 0 90 60 60
        E 120 80 48 00
        E 0 80 54 00
        E 0 80 60 00
        E 360 90 3c 60
        E 0 90 48 60
        E 0 90 54 60
        E 0 90 60 60
        E 120 80 3c 00
        E 0 80 48 00
        E 0 80 54 00
        E 0 80 60 00
        E 360 90 48 60
        E 0 90 54 60
        E 0 90 60 60
        E 120 80 48 00
        E 0 80 54 00
        E 0 80 60 00
        E 360 90 3c 60
        E 0 90 48 60
        E 0 90 54 60
        E 0 90 60 60
        E 120 80 3c 00
        E 0 80 48 00
        E 0 80 54 00
        E 0 80 60 00
        E 360 90 48 60
        E 0 90 54 60
        E 0 90 60 60
        E 120 80 48 00
        E 0 80 54 00
        E 0 80 60 00
        E 360 90 3d 60
        E 0 90 4a 60
        E 0 90 56 60
        E 0 90 62 60
        E 120 80 3d 00
        E 0 80 4a 00
        E 0 80 56 00
        E 0 80 62 00
        E 360 90 4a 60
        E 0 90 56 60
        E 0 90 62 60
        E 120 80 4a 00
        E 0 80 56 00
        E 0 80 62 00
        E 360 90 3d 60
        E 0 90 4a 60
        E 0 90 56 60
        E 0 90 62 60
        E 120 80 3d 00
        E 0 80 4a 00
        E 0 80 56 00
        E 0 80 62 00
        E 360 90 4a 60
        E 0 90 56 60
        E 0 90 62 60
        E 120 80 4a 00
        E 0 80 56 00
        E 0 80 62 00
        E 360 90 3d 60
        E 0 90 4a 60
        E 0 90 56 60
        E 0 90 62 60
        E 120 80 3d 00
        E 0 80 4a 00
        E 0 80 56 00
        E 0 80 62 00
        E 360 90 4a 60
        E 0 90 56 60
        E 0 90 62 60
        E 120 80 4a 00
        E 0 80 56 00
        E 0 80 62 00
        E 360 90 3d 60
        E 0 90 4a 60
        E 0 90 56 60
        E 0 90 62 60
        E 120 80 3d 00
        E 0 80 4a 00
        E 0 80 56 00
        E 0 80 62 00
        E 360 90 4a 60
        E 0 90 56 60
        E 0 90 62 60
        E 120 80 4a 00
        E 0 80 56 00
        E 0 80 62 00
        E 360 90 3c 60
        E 0 90 49 60
        E 0 90 55 60
        E 0 90 61 60
        E 120 80 3c 00
        E 0 80 49 00
        E 0 80 55 00
        E 0 80 61 00
        E 360 90 49 60
        E 0 90 55 60
        E 0 90 61 60
        E 120 80 49 00
        E 0 80 55 00
        E 0 80 61 00
        E 360 90 3c 60
        E 0 90 49 60
        E 0 90 55 60
        E 0 90 61 60
        E 120 80 3c 00
        E 0 80 49 00
        E 0 80 55 00
        E 0 80 61 00
        E 360 90 49 60
        E 0 90 55 60
        E 0 90 61 60
        E 120 80 49 00
        E 0 80 55 00
        E 0 80 61 00
        E 360 90 3c 60
        E 0 90 49 60
        E 0 90 55 60
        E 0 90 61 60
        E 120 80 3c 00
        E 0 80 49 00
        E 0 80 55 00
        E 0 80 61 00
        E 360 90 49 60
        E 0 90 55 60
        E 0 90 61 60
        E 120 80 49 00
        E 0 80 55 00
        E 0 80 61 00
        E 360 90 3c 60
        E 0 90 49 60
        E 0 90 55 60
        E 0 90 61 60
        E 120 80 3c 00
        E 0 80 49 00
        E 0 80 55 00
        E 0 80 61 00
        E 360 90 49 60
        E 0 90 55 60
        E 0 90 61 60
        E 120 80 49 00
        E 0 80 55 00
        E 0 80 61 00
        E 360 90 3e 60
        E 0 90 4b 60
        E 0 90 58 60
        E 0 90 64 60
        E 120 80 3e 00
        E 0 80 4b 00
        E 0 80 58 00
        E 0 80 64 00
        E 360 90 4b 60
        E 0 90 58 60
        E 0 90 64 60
        E 120 80 4b 00
        E 0 80 58 00
        E 0 80 64 00
        E 360 90 3e 60
        E 0 90 4b 60
        E 0 90 58 60
        E 0 90 64 60
        E 120 80 3e 00
        E 0 80 4b 00
        E 0 80 58 00
        E 0 80 64 00
        E 360 90 4b 60
        E 0 90 58 60
        E 0 90 64 60
        E 120 80 4b 00
        E 0 80 58 00
        E 0 80 64 00
        E 360 90 3e 60
        E 0 90 4b 60
        E 0 90 58 60
        E 0 90 64 60
        E 120 80 3e 00
        E 0 80 4b 00
        E 0 80 58 00
        E 0 80 64 00
        E 360 90 4b 60
        E 0 90 58 60
        E 0 90 64 60
        E 120 80 4b 00
        E 0 80 58 00
        E 0 80 64 00
        E 360 90 3e 60
        E 0 90 4b 60
        E 0 90 58 60
        E 0 90 64 60
        E 120 80 3e 00
        E 0 80 4b 00
        E 0 80 58 00
        E 0 80 64 00
        E 360 90 4b 60
        E 0 90 58 60
        E 0 90 64 60
        E 120 80 4b 00
        E 0 80 58 00
        E 0 80 64 00
        E 360 90 3c 60
        E 0 90 48 60
        E 0 90 54 60
        E 0 90 60 60
        E 120 80 3c 00
        E 0 80 48 00
        E 0 80 54 00
        E 0 80 60 00
        E 360 90 48 60
        E 0 90 54 60
        E 0 90 60 60
        E 120 80 48 00
        E 0 80 54 00
        E 0 80 60 00
        E 360 90 3c 60
        E 0 90 48 60
        E 0 90 54 60
        E 0 90 60 60
        E 120 80 3c 00
        E 0 80 48 00
        E 0 80 54 00
        E 0 80 60 00
        E 360 90 48 60
        E 0 90 54 60
        E 0 90 60 60
        E 120 80 48 00
        E 0 80 54 00
        E 0 80 60 00
        E 360 90 3c 60
        E 0 90 48 60
        E 0 90 54 60
        E 0 90 60 60
        E 120 80 3c 00
        E 0 80 48 00
        E 0 80 54 00
        E 0 80 60 00
        E 360 90 48 60
        E 0 90 54 60
        E 0 90 60 60
        E 120 80 48 00
        E 0 80 54 00
        E 0 80 60 00
        E 360 90 3c 60
        E 0 90 48 60
        E 0 90 54 60
        E 0 90 60 60
        E 120 80 3c 00
        E 0 80 48 00
        E 0 80 54 00
        E 0 80 60 00
        E 360 90 48 60
        E 0 90 54 60
        E 0 90 60 60
        E 120 80 48 00
        E 0 80 54 00
        E 0 80 60 00
        E 360 90 3d 60
        E 0 90 4a 60
        E 0 90 56 60
        E 0 90 62 60
        E 120 80 3d 00
        E 0 80 4a 00
        E 0 80 56 00
        E 0 80 62 00
        E 360 90 4a 60
        E 0 90 56 60
        E 0 90 62 60
        E 120 80 4a 00
        E 0 80 56 00
        E 0 80 62 00
        E 360 90 3d 60
        E 0 90 4a 60
        E 0 90 56 60
        E 0 90 62 60
        E 120 80 3d 00
        E 0 80 4a 00
        E 0 80 56 00
        E 0 80 62 00
        E 360 90 4a 60
        E 0 90 56 60
        E 0 90 62 60
        E 120 80 4a 00
        E 0 80 56 00
        E 0 80 62 00
        E 360 90 3d 60
        E 0 90 4a 60
        E 0 90 56 60
        E 0 90 62 60
        E 120 80 3d 00
        E 0 80 4a 00
        E 0 80 56 00
        E 0 80 62 00
        E 360 90 4a 60
        E 0 90 56 60
        E 0 90 62 60
        E 120 80 4a 00
        E 0 80 56 00
        E 0 80 62 00
        E 360 90 3d 60
        E 0 90 4a 60
        E 0 90 56 60
        E 0 90 62 60
        E 120 80 3d 00
        E 0 80 4a 00
        E 0 80 56 00
        E 0 80 62 00
        E 360 90 4a 60
        E 0 90 56 60
        E 0 90 62 60
        E 120 80 4a 00
        E 0 80 56 00
        E 0 80 62 00
        E 360 90 3c 60
        E 0 90 49 60
        E 0 90 55 60
        E 0 90 61 60
        E 120 80 3c 00
        E 0 80 49 00
        E 0 80 55 00
        E 0 80 61 00
        E 360 90 49 60
        E 0 90 55 60
        E 0 90 61 60
        E 120 80 49 00
        E 0 80 55 00
        E 0 80 61 00
        E 360 90 3c 60
        E 0 90 49 60
        E 0 90 55 60
        E 0 90 61 60
        E 120 80 3c 00
        E 0 80 49 00
        E 0 80 55 00
        E 0 80 61 00
        E 360 90 49 60
        E 0 90 55 60
        E 0 90 61 60
        E 120 80 49 00
        E 0 80 55 00
        E 0 80 61 00
        E 360 90 3c 60
        E 0 90 49 60
        E 0 90 55 60
        E 0 90 61 60
        E 120 80 3c 00
        E 0 80 49 00
        E 0 80 55 00
        E 0 80 61 00
        E 360 90 49 60
        E 0 90 55 60
        E 0 90 61 60
        E 120 80 49 00
        E 0 80 55 00
        E 0 80 61 00
        E 360 90 3c 60
        E 0 90 49 60
        E 0 90 55 60
        E 0 90 61 60
        E 120 80 3c 00
        E 0 80 49 00
        E 0 80 55 00
        E 0 80 61 00
        E 360 90 49 60
        E 0 90 55 60
        E 0 90 61 60
        E 120 80 49 00
        E 0 80 55 00
        E 0 80 61 00
        E 360 90 3e 60
        E 0 90 4b 60
        E 0 90 58 60
        E 0 90 64 60
        E 0 90 74 60
        E 120 80 3e 00
        E 0 80 4b 00
        E 0 80 58 00
        E 0 80 64 00
        E 360 90 4b 60
        E 0 90 58 60
        E 0 90 64 60
        E 120 80 4b 00
        E 0 80 58 00
        E 0 80 64 00
        E 360 90 3e 60
        E 0 90 4b 60
        E 0 90 58 60
        E 0 90 64 60
        E 120 80 3e 00
        E 0 80 4b 00
        E 0 80 58 00
        E 0 80 64 00
        E 360 90 4b 60
        E 0 90 58 60
        E 0 90 64 60
        E 120 80 4b 00
        E 0 80 58 00
        E 0 80 64 00
        E 360 90 3e 60
        E 0 90 4b 60
        E 0 90 58 60
        E 0 90 64 60
        E 120 80 3e 00
        E 0 80 4b 00
        E 0 80 58 00
        E 0 80 64 00
        E 360 90 4b 60
        E 0 90 58 60
        E 0 90 64 60
        E 120 80 4b 00
        E 0 80 58 00
        E 0 80 64 00
        E 360 90 3e 60
        E 0 90 4b 60
        E 0 90 58 60
        E 0 90 64 60
        E 120 80 3e 00
        E 0 80 4b 00
        E 0 80 58 00
        E 0 80 64 00
        E 360 90 4b 60
        E 0 90 58 60
        E 0 90 64 60
        E 120 80 4b 00
        E 0 80 58 00
        E 0 80 64 00
        E 360 90 3c 60
        E 0 90 48 60
        E 0 90 54 60
        E 0 90 60 60
        E 120 80 3c 00
        E 0 80 48 00
        E 0 80 54 00
        E 0 80 60 00
        E 360 90 48 60
        E 0 90 54 60
        E 0 90 60 60
        E 120 80 48 00
        E 0 80 54 00
        E 0 80 60 00
        E 360 90 3c 60
        E 0 90 48 60
        E 0 90 54 60
        E 0 90 60 60
        E 120 80 3c 00
        E 0 80 48 00
        E 0 80 54 00
        E 0 80 60 00
        E 360 90 48 60
        E 0 90 54 60
        E 0 90 60 60
        E 120 80 48 00
        E 0 80 54 00
        E 0 80 60 00
        E 360 90 3c 60
        E 0 90 48 60
        E 0 90 54 60
        E 0 90 60 60
        E 120 80 3c 00
        E 0 80 48 00
        E 0 80 54 00
        E 0 80 60 00
        E 360 90 48 60
        E 0 90 54 60
        E 0 90 60 60
        E 120 80 48 00
        E 0 80 54 00
        E 0 80 60 00
        E 360 90 3c 60
        E 0 90 48 60
        E 0 90 54 60
        E 0 90 60 60
        E 120 80 3c 00
        E 0 80 48 00
        E 0 80 54 00
        E 0 80 60 00
        E 360 90 48 60
        E 0 90 54 60
        E 0 90 60 60
        E 120 80 48 00
        E 0 80 54 00
        E 0 80 60 00
        E 360 80 74 00
        E 0 90 3d 60
        E 0 90 4a 60
        E 0 90 56 60
        E 0 90 62 60
        E 120 80 3d 00
        E 0 80 4a 00
        E 0 80 56 00
        E 0 80 62 00
        E 360 90 4a 60
        E 0 90 56 60
        E 0 90 62 60
        E 120 80 4a 00
        E 0 80 56 00
        E 0 80 62 00
        E 360 90 3d 60
        E 0 90 4a 60
        E 0 90 56 60
        E 0 90 62 60
        E 120 80 3d 00
        E 0 80 4a 00
        E 0 80 56 00
        E 0 80 62 00
        E 360 90 4a 60
        E 0 90 56 60
        E 0 90 62 60
        E 120 80 4a 00
        E 0 80 56 00
        E 0 80 62 00
        E 360 90 3d 60
        E 0 90 4a 60
        E 0 90 56 60
        E 0 90 62 60
        E 120 80 3d 00
        E 0 80 4a 00
        E 0 80 56 00
        E 0 80 62 00
        E 360 90 4a 60
        E 0 90 56 60
        E 0 90 62 60
        E 120 80 4a 00
        E 0 80 56 00
        E 0 80 62 00
        E 360 90 3d 60
        E 0 90 4a 60
        E 0 90 56 60
        E 0 90 62 60
        E 120 80 3d 00
        E 0 80 4a 00
        E 0 80 56 00
        E 0 80 62 00
        E 360 90 4a 60
        E 0 90 56 60
        E 0 90 62 60
        E 120 80 4a 00
        E 0 80 56 00
        E 0 80 62 00
        E 360 90 3c 60
        E 0 90 49 60
        E 0 90 55 60
        E 0 90 61 60
        E 120 80 3c 00
        E 0 80 49 00
        E 0 80 55 00
        E 0 80 61 00
        E 360 90 49 60
        E 0 90 55 60
        E 0 90 61 60
        E 120 80 49 00
        E 0 80 55 00
        E 0 80 61 00
        E 360 90 3c 60
        E 0 90 49 60
        E 0 90 55 60
        E 0 90 61 60
        E 120 80 3c 00
        E 0 80 49 00
        E 0 80 55 00
        E 0 80 61 00
        E 360 90 49 60
        E 0 90 55 60
        E 0 90 61 60
        E 120 80 49 00
        E 0 80 55 00
        E 0 80 61 00
        E 360 90 3c 60
        E 0 90 49 60
        E 0 90 55 60
        E 0 90 61 60
        E 120 80 3c 00
        E 0 80 49 00
        E 0 80 55 00
        E 0 80 61 00
        E 360 90 49 60
        E 0 90 55 60
        E 0 90 61 60
        E 120 80 49 00
        E 0 80 55 00
        E 0 80 61 00
        E 360 90 3c 60
        E 0 90 49 60
        E 0 90 55 60
        E 0 90 61 60
        E 120 80 3c 00
        E 0 80 49 00
        E 0 80 55 00
        E 0 80 61 00
        E 360 90 49 60
        E 0 90 55 60
        E 0 90 61 60
        E 120 80 49 00
        E 0 80 55 00
        E 0 80 61 00
        E 241 80 28 00
        E 119 90 31 69
        E 0 90 3d 60
        E 0 90 4a 60
        E 0 90 56 60
        E 0 90 62 60
        E 0 90 74 60
        E 3000 80 3d 00
        E 0 80 4a 00
        E 120 80 56 00
        E 0 80 62 00
        E 240 90 48 60
        E 0 90 54 60
        E 0 90 60 60
        E 120 80 48 00
        E 0 80 54 00
        E 0 80 60 00
        E 360 90 3e 60
        E 0 90 4b 60
        E 0 90 57 60
        E 0 90 63 60
        E 2400 80 3e 00
        E 120 80 4b 00
        E 120 80 57 00
        E 0 80 63 00
        E 240 80 74 00
        E 0 90 3e 60
        E 0 90 4b 60
        E 0 90 58 60
        E 0 90 64 60
        E 120 80 3e 00
        E 480 80 4b 00
        E 120 80 58 00
        E 0 80 64 00
        E 240 90 3c 60
        E 0 90 48 60
        E 0 90 54 60
        E 0 90 60 60
        E 3000 80 3c 00
        E 0 80 48 00
        E 120 80 54 00
        E 0 80 60 00
        E 121 80 31 00
        E 119 90 35 6c
        E 0 90 49 60
        E 0 90 55 60
        E 0 90 61 60
        E 120 80 49 00
        E 0 80 55 00
        E 0 80 61 00
        E 360 90 3c 60
        E 0 90 49 60
        E 0 90 55 60
        E 0 90 61 60
        E 120 80 3c 00
        E 0 80 49 00
        E 0 80 55 00
        E 0 80 61 00
        E 360 90 49 60
        E 0 90 55 60
        E 0 90 61 60
        E 120 80 49 00
        E 0 80 55 00
        E 0 80 61 00
        E 360 90 3c 60
        E 0 90 49 60
        E 0 90 55 60
        E 0 90 61 60
        E 120 80 3c 00
        E 0 80 49 00
        E 0 80 55 00
        E 0 80 61 00
        E 360 90 49 60
        E 0 90 55 60
        E 0 90 61 60
        E 120 80 49 00
        E 0 80 55 00
        E 0 80 61 00
        E 120 90 57 60
        E 0 90 59 60
        E 0 90 63 60
        E 0 90 65 60
        E 120 80 57 00
        E 0 80 59 00
        E 0 80 63 00
        E 120 90 3e 60
        E 0 90 4b 60
        E 0 90 58 60
        E 0 90 59 60
        E 0 90 64 60
        E 120 80 65 00
        E 0 80 3e 00
        E 0 80 4b 00
        E 0 80 58 00
        E 0 80 59 00
        E 0 80 64 00
        E 360 90 4b 60
        E 0 90 58 60
        E 0 90 64 60
        E 120 80 4b 00
        E 0 80 58 00
        E 0 80 64 00
        E 360 90 3e 60
        E 0 90 4b 60
        E 0 90 58 60
        E 0 90 64 60
        E 120 80 3e 00
        E 0 80 4b 00
        E 0 80 58 00
        E 0 80 64 00
        E 360 90 4b 60
        E 0 90 58 60
        E 0 90 64 60
        E 120 80 4b 00
        E 0 80 58 00
        E 0 80 64 00
        E 241 80 35 00
        <X 119 0
          /wFbaW50ZW5zZV0=
        >
        E 0 90 28 65
        E 0 90 3c 60
        E 0 90 49 60
        E 0 90 55 60
        E 0 90 61 60
        E 3360 80 3c 00
        E 120 80 49 00
        E 120 80 55 00
        E 0 80 61 00
        E 240 90 3c 60
        E 0 90 48 60
        E 0 90 54 60
        E 0 90 60 60
        E 3360 80 3c 00
        E 120 80 48 00
        E 120 80 54 00
        E 0 80 60 00
        E 240 90 3e 60
        E 0 90 4b 60
        E 0 90 58 60
        E 0 90 64 60
        E 3360 80 3e 00
        E 120 80 4b 00
        E 120 80 58 00
        E 0 80 64 00
        E 240 90 3e 60
        E 0 90 4b 60
        E 0 90 57 60
        E 0 90 63 60
        E 1440 80 3e 00
        E 120 80 4b 00
        E 120 80 57 00
        E 0 80 63 00
        E 240 90 3d 60
        E 0 90 4a 60
        E 0 90 56 60
        E 0 90 62 60
        E 1440 80 3d 00
        E 120 80 4a 00
        E 120 80 56 00
        E 0 80 62 00
        E 240 90 3c 60
        E 0 90 49 60
        E 0 90 55 60
        E 0 90 61 60
        E 0 90 74 60
        E 3360 80 3c 00
        E 120 80 49 00
        E 120 80 55 00
        E 0 80 61 00
        E 240 90 3d 60
        E 0 90 4a 60
        E 0 90 56 60
        E 0 90 62 60
        E 3360 80 3d 00
        E 120 80 4a 00
        E 120 80 56 00
        E 0 80 62 00
        E 240 80 74 00
        E 0 90 3e 60
        E 0 90 4b 60
        E 0 90 58 60
        E 0 90 64 60
        E 3360 80 3e 00
        E 120 80 4b 00
        E 120 80 58 00
        E 0 80 64 00
        E 240 90 3e 60
        E 0 90 4b 60
        E 0 90 57 60
        E 0 90 63 60
        E 1440 80 3e 00
        E 120 80 4b 00
        E 120 80 57 00
        E 0 80 63 00
        E 240 90 3d 60
        E 0 90 4a 60
        E 0 90 56 60
        E 0 90 62 60
        E 1440 80 3d 00
        E 120 80 4a 00
        E 120 80 56 00
        E 0 80 62 00
        E 240 90 3c 60
        E 0 90 49 60
        E 0 90 55 60
        E 0 90 61 60
        E 3360 80 3c 00
        E 120 80 49 00
        E 120 80 55 00
        E 0 80 61 00
        E 240 90 3c 60
        E 0 90 48 60
        E 0 90 54 60
        E 0 90 60 60
        E 3360 80 3c 00
        E 120 80 48 00
        E 120 80 54 00
        E 0 80 60 00
        E 240 90 3e 60
        E 0 90 4b 60
        E 0 90 58 60
        E 0 90 64 60
        E 3360 80 3e 00
        E 120 80 4b 00
        E 120 80 58 00
        E 0 80 64 00
        E 240 90 3e 60
        E 0 90 4b 60
        E 0 90 57 60
        E 0 90 63 60
        E 1440 80 3e 00
        E 120 80 4b 00
        E 120 80 57 00
        E 0 80 63 00
        E 240 90 3d 60
        E 0 90 4a 60
        E 0 90 56 60
        E 0 90 62 60
        E 1440 80 3d 00
        E 120 80 4a 00
        E 120 80 56 00
        E 0 80 62 00
        E 240 90 3c 60
        E 0 90 49 60
        E 0 90 55 60
        E 0 90 61 60
        E 3360 80 3c 00
        E 120 80 49 00
        E 120 80 55 00
        E 0 80 61 00
        E 240 90 3d 60
        E 0 90 4a 60
        E 0 90 56 60
        E 0 90 62 60
        E 3360 80 3d 00
        E 120 80 4a 00
        E 120 80 56 00
        E 0 80 62 00
        E 240 90 3e 60
        E 0 90 4b 60
        E 0 90 58 60
        E 0 90 64 60
        E 3360 80 3e 00
        E 120 80 4b 00
        E 120 80 58 00
        E 0 80 64 00
        E 240 90 3e 60
        E 0 90 4b 60
        E 0 90 57 60
        E 0 90 63 60
        E 1440 80 3e 00
        E 120 80 4b 00
        E 120 80 57 00
        E 0 80 63 00
        E 240 90 3d 60
        E 0 90 4a 60
        E 0 90 56 60
        E 0 90 62 60
        E 0 90 74 60
        E 1440 80 3d 00
        E 120 80 4a 00
        E 120 80 56 00
        E 0 80 62 00
        E 240 90 3c 60
        E 0 90 49 60
        E 0 90 55 60
        E 0 90 61 60
        E 240 80 74 00
        E 6960 80 3c 00
        E 120 80 49 00
        E 120 80 55 00
        E 0 80 61 00
        <X 240 0
          /wFbcGxheV0=
        >
        E 0 90 3d 60
        E 0 90 4a 60
        E 0 90 56 60
        E 0 90 62 60
        E 3360 80 3d 00
        E 120 80 4a 00
        E 120 80 56 00
        E 0 80 62 00
        E 240 90 3c 60
        E 0 90 48 60
        E 0 90 54 60
        E 0 90 60 60
        E 2400 80 3c 00
        E 120 80 48 00
        E 120 80 54 00
        E 0 80 60 00
        E 240 90 3d 60
        E 0 90 4a 60
        E 0 90 56 60
        E 0 90 62 60
        E 120 80 3d 00
        E 480 80 4a 00
        E 120 80 56 00
        E 0 80 62 00
        E 240 90 3e 60
        E 0 90 4b 60
        E 0 90 57 60
        E 0 90 63 60
        E 3360 80 3e 00
        E 120 80 4b 00
        E 120 80 57 00
        E 0 80 63 00
        E 240 90 3c 60
        E 0 90 48 60
        E 0 90 54 60
        E 0 90 60 60
        E 1440 80 3c 00
        E 120 80 48 00
        E 120 80 54 00
        E 0 80 60 00
        E 240 90 3c 60
        E 0 90 49 60
        E 0 90 55 60
        E 0 90 61 60
        E 1440 80 3c 00
        E 120 80 49 00
        E 120 80 55 00
        E 0 80 61 00
        E 240 90 3d 60
        E 0 90 4a 60
        E 0 90 56 60
        E 0 90 62 60
        E 3360 80 3d 00
        E 120 80 4a 00
        E 120 80 56 00
        E 0 80 62 00
        E 240 90 3c 60
        E 0 90 48 60
        E 0 90 54 60
        E 0 90 60 60
        E 2400 80 3c 00
        E 120 80 48 00
        E 120 80 54 00
        E 0 80 60 00
        E 240 90 3d 60
        E 0 90 4a 60
        E 0 90 56 60
        E 0 90 62 60
        E 120 80 3d 00
        E 480 80 4a 00
        E 120 80 56 00
        E 0 80 62 00
        E 240 90 3e 60
        E 0 90 4b 60
        E 0 90 57 60
        E 0 90 63 60
        E 3359 80 3e 00
        E 120 80 4b 00
        E 120 80 57 00
        E 1 80 63 00
        E 239 90 3c 60
        E 0 90 48 60
        E 0 90 54 60
        E 0 90 60 60
        E 1441 80 3c 00
        E 120 80 48 00
        E 120 80 54 00
        E 0 80 60 00
        E 240 90 3c 60
        E 0 90 49 60
        E 0 90 55 60
        E 0 90 61 60
        E 1440 80 3c 00
        E 120 80 49 00
        E 120 80 55 00
        E 0 80 61 00
        E 240 90 3d 60
        E 0 90 4a 60
        E 0 90 56 60
        E 0 90 62 60
        E 3360 80 3d 00
        E 120 80 4a 00
        E 120 80 56 00
        E 0 80 62 00
        E 240 90 3c 60
        E 0 90 48 60
        E 0 90 54 60
        E 0 90 60 60
        E 2400 80 3c 00
        E 120 80 48 00
        E 120 80 54 00
        E 0 80 60 00
        E 240 90 3d 60
        E 0 90 4a 60
        E 0 90 56 60
        E 0 90 62 60
        E 120 80 3d 00
        E 480 80 4a 00
        E 120 80 56 00
        E 0 80 62 00
        E 240 90 3e 60
        E 0 90 4b 60
        E 0 90 57 60
        E 0 90 63 60
        E 3359 80 3e 00
        E 120 80 4b 00
        E 120 80 57 00
        E 1 80 63 00
        E 239 90 3c 60
        E 0 90 48 60
        E 0 90 54 60
        E 0 90 60 60
        E 1 90 74 60
        E 1440 80 3c 00
        E 120 80 48 00
        E 120 80 54 00
        E 0 80 60 00
        E 240 90 3c 60
        E 0 90 49 60
        E 0 90 55 60
        E 0 90 61 60
        E 1440 80 3c 00
        E 120 80 49 00
        E 120 80 55 00
        E 0 80 61 00
        E 240 90 3d 60
        E 0 90 4a 60
        E 0 90 56 60
        E 0 90 62 60
        E 240 80 74 00
        E 3120 80 3d 00
        E 120 80 4a 00
        E 120 80 56 00
        E 0 80 62 00
        E 240 90 3c 60
        E 0 90 48 60
        E 0 90 54 60
        E 0 90 60 60
        E 2400 80 3c 00
        E 120 80 48 00
        E 120 80 54 00
        E 0 80 60 00
        E 240 90 3d 60
        E 0 90 4a 60
        E 0 90 56 60
        E 0 90 62 60
        E 120 80 3d 00
        E 480 80 4a 00
        E 120 80 56 00
        E 0 80 62 00
        E 240 90 3e 60
        E 0 90 4b 60
        E 0 90 57 60
        E 0 90 63 60
        E 3359 80 3e 00
        E 120 80 4b 00
        E 120 80 57 00
        E 1 80 63 00
        E 239 90 3c 60
        E 0 90 48 60
        E 0 90 54 60
        E 0 90 60 60
        E 1441 80 3c 00
        E 120 80 48 00
        E 120 80 54 00
        E 0 80 60 00
        E 240 90 3c 60
        E 0 90 49 60
        E 0 90 55 60
        E 0 90 61 60
        E 1440 80 3c 00
        E 120 80 49 00
        E 120 80 55 00
        E 0 80 61 00
        E 240 90 3d 60
        E 0 90 4a 60
        E 0 90 56 60
        E 0 90 62 60
        E 3360 80 3d 00
        E 120 80 4a 00
        E 120 80 56 00
        E 0 80 62 00
        E 240 90 3e 60
        E 0 90 4b 60
        E 0 90 57 60
        E 0 90 63 60
        E 2400 80 3e 00
        E 120 80 4b 00
        E 120 80 57 00
        E 0 80 63 00
        E 240 90 3e 60
        E 0 90 4b 60
        E 0 90 58 60
        E 0 90 64 60
        E 120 80 3e 00
        E 480 80 4b 00
        E 120 80 58 00
        E 0 80 64 00
        E 240 90 3c 60
        E 0 90 48 60
        E 0 90 54 60
        E 0 90 60 60
        E 3360 80 3c 00
        E 120 80 48 00
        E 120 80 54 00
        E 0 80 60 00
        E 240 90 3c 60
        E 0 90 49 60
        E 0 90 55 60
        E 0 90 61 60
        E 3360 80 3c 00
        E 120 80 49 00
        E 120 80 55 00
        E 0 80 61 00
        E 240 90 3d 60
        E 0 90 4a 60
        E 0 90 56 60
        E 0 90 62 60
        E 3000 80 3d 00
        E 0 80 4a 00
        E 120 80 56 00
        E 0 80 62 00
        E 240 90 48 60
        E 0 90 54 60
        E 0 90 60 60
        E 120 80 48 00
        E 0 80 54 00
        E 0 80 60 00
        E 360 90 3e 60
        E 0 90 4b 60
        E 0 90 57 60
        E 0 90 63 60
        E 2400 80 3e 00
        E 120 80 4b 00
        E 120 80 57 00
        E 0 80 63 00
        E 240 90 3e 60
        E 0 90 4b 60
        E 0 90 58 60
        E 0 90 64 60
        E 120 80 3e 00
        E 480 80 4b 00
        E 120 80 58 00
        E 0 80 64 00
        E 240 90 3c 60
        E 0 90 48 60
        E 0 90 54 60
        E 0 90 60 60
        E 3360 80 3c 00
        E 120 80 48 00
        E 120 80 54 00
        E 0 80 60 00
        E 121 80 28 00
        E 119 90 2d 67
        E 0 90 3c 60
        E 0 90 49 60
        E 0 90 55 60
        E 0 90 61 60
        E 120 80 3c 00
        E 0 80 49 00
        E 0 80 55 00
        E 0 80 61 00
        E 360 90 49 60
        E 0 90 55 60
        E 0 90 61 60
        E 120 80 49 00
        E 0 80 55 00
        E 0 80 61 00
        E 360 90 3c 60
        E 0 90 49 60
        E 0 90 55 60
        E 0 90 61 60
        E 120 80 3c 00
        E 0 80 49 00
        E 0 80 55 00
        E 0 80 61 00
        E 360 90 49 60
        E 0 90 55 60
        E 0 90 61 60
        E 120 80 49 00
        E 0 80 55 00
        E 0 80 61 00
        E 360 90 3c 60
        E 0 90 49 60
        E 0 90 55 60
        E 0 90 61 60
        E 120 80 3c 00
        E 0 80 49 00
        E 0 80 55 00
        E 0 80 61 00
        E 360 90 49 60
        E 0 90 55 60
        E 0 90 61 60
        E 120 80 49 00
        E 0 80 55 00
        E 0 80 61 00
        E 360 90 3c 60
        E 0 90 49 60
        E 0 90 55 60
        E 0 90 61 60
        E 120 80 3c 00
        E 0 80 49 00
        E 0 80 55 00
        E 0 80 61 00
        E 360 90 49 60
        E 0 90 55 60
        E 0 90 61 60
        E 120 80 49 00
        E 0 80 55 00
        E 0 80 61 00
        E 360 90 3c 60
        E 0 90 49 60
        E 0 90 55 60
        E 0 90 61 60
        E 120 80 3c 00
        E 0 80 49 00
        E 0 80 55 00
        E 0 80 61 00
        E 360 90 49 60
        E 0 90 55 60
        E 0 90 61 60
        E 120 80 49 00
        E 0 80 55 00
        E 0 80 61 00
        E 360 90 3c 60
        E 0 90 49 60
        E 0 90 55 60
        E 0 90 61 60
        E 120 80 3c 00
        E 0 80 49 00
        E 0 80 55 00
        E 0 80 61 00
        E 360 90 49 60
        E 0 90 55 60
        E 0 90 61 60
        E 120 80 49 00
        E 0 80 55 00
        E 0 80 61 00
        E 360 90 3c 60
        E 0 90 49 60
        E 0 90 55 60
        E 0 90 61 60
        E 120 80 3c 00
        E 0 80 49 00
        E 0 80 55 00
        E 0 80 61 00
        E 360 90 49 60
        E 0 90 55 60
        E 0 90 61 60
        E 120 80 49 00
        E 0 80 55 00
        E 0 80 61 00
        E 360 90 3c 60
        E 0 90 49 60
        E 0 90 55 60
        E 0 90 61 60
        E 120 80 3c 00
        E 0 80 49 00
        E 0 80 55 00
        E 0 80 61 00
        E 360 90 49 60
        E 0 90 55 60
        E 0 90 61 60
        E 120 80 49 00
        E 0 80 55 00
        E 0 80 61 00
        E 360 90 3c 60
        E 0 90 49 60
        E 0 90 55 60
        E 0 90 61 60
        E 120 80 3c 00
        E 0 80 49 00
        E 0 80 55 00
        E 0 80 61 00
        E 360 90 49 60
        E 0 90 55 60
        E 0 90 61 60
        E 120 80 49 00
        E 0 80 55 00
        E 0 80 61 00
        E 360 90 3c 60
        E 0 90 49 60
        E 0 90 55 60
        E 0 90 61 60
        E 120 80 3c 00
        E 0 80 49 00
        E 0 80 55 00
        E 0 80 61 00
        E 360 90 49 60
        E 0 90 55 60
        E 0 90 61 60
        E 120 80 49 00
        E 0 80 55 00
        E 0 80 61 00
        E 360 90 3c 60
        E 0 90 49 60
        E 0 90 55 60
        E 0 90 61 60
        E 120 80 3c 00
        E 0 80 49 00
        E 0 80 55 00
        E 0 80 61 00
        E 360 90 49 60
        E 0 90 55 60
        E 0 90 61 60
        E 120 80 49 00
        E 0 80 55 00
        E 0 80 61 00
        E 360 90 3c 60
        E 0 90 49 60
        E 0 90 55 60
        E 0 90 61 60
        E 120 80 3c 00
        E 0 80 49 00
        E 0 80 55 00
        E 0 80 61 00
        E 360 90 49 60
        E 0 90 55 60
        E 0 90 61 60
        E 120 80 49 00
        E 0 80 55 00
        E 0 80 61 00
        E 120 90 58 60
        E 0 90 59 60
        E 0 90 64 60
        E 0 90 65 60
        E 120 80 58 00
        E 0 80 59 00
        E 0 80 64 00
        E 0 80 65 00
        E 1 80 2d 00
        E 119 90 3b 73
        E 0 90 3e 60
        E 0 90 4b 60
        E 0 90 58 60
        E 0 90 59 60
        E 0 90 64 60
        E 0 90 65 60
        E 0 90 74 60
        E 120 80 3e 00
        E 0 80 4b 00
        E 0 80 58 00
        E 0 80 59 00
        E 0 80 64 00
        E 0 80 65 00
        E 360 90 4b 60
        E 0 90 58 60
        E 0 90 64 60
        E 120 80 4b 00
        E 0 80 58 00
        E 0 80 64 00
        E 360 90 3e 60
        E 0 90 4b 60
        E 0 90 58 60
        E 0 90 64 60
        E 120 80 3e 00
        E 0 80 4b 00
        E 0 80 58 00
        E 0 80 64 00
        E 360 90 4b 60
        E 0 90 58 60
        E 0 90 64 60
        E 120 80 4b 00
        E 0 80 58 00
        E 0 80 64 00
        E 360 90 3e 60
        E 0 90 4b 60
        E 0 90 58 60
        E 0 90 64 60
        E 120 80 3e 00
        E 0 80 4b 00
        E 0 80 58 00
        E 0 80 64 00
        E 360 90 4b 60
        E 0 90 58 60
        E 0 90 64 60
        E 120 80 4b 00
        E 0 80 58 00
        E 0 80 64 00
        E 360 90 3e 60
        E 0 90 4b 60
        E 0 90 58 60
        E 0 90 64 60
        E 120 80 3e 00
        E 0 80 4b 00
        E 0 80 58 00
        E 0 80 64 00
        E 360 90 4b 60
        E 0 90 58 60
        E 0 90 64 60
        E 120 80 74 00
        E 0 80 4b 00
        E 0 80 58 00
        E 0 80 64 00
        E 2161 80 3b 00
        <X 119 0
          /wFbaW50ZW5zZV0=
        >
        E 0 90 28 65
        E 0 90 3c 60
        E 0 90 49 60
        E 0 90 55 60
        E 0 90 61 60
        E 3360 80 3c 00
        E 120 80 49 00
        E 120 80 55 00
        E 0 80 61 00
        E 240 90 3c 60
        E 0 90 48 60
        E 0 90 54 60
        E 0 90 60 60
        E 3360 80 3c 00
        E 120 80 48 00
        E 120 80 54 00
        E 0 80 60 00
        E 240 90 3e 60
        E 0 90 4b 60
        E 0 90 58 60
        E 0 90 64 60
        E 3360 80 3e 00
        E 120 80 4b 00
        E 120 80 58 00
        E 0 80 64 00
        E 240 90 3e 60
        E 0 90 4b 60
        E 0 90 57 60
        E 0 90 63 60
        E 1440 80 3e 00
        E 120 80 4b 00
        E 120 80 57 00
        E 0 80 63 00
        E 240 90 3d 60
        E 0 90 4a 60
        E 0 90 56 60
        E 0 90 62 60
        E 1440 80 3d 00
        E 120 80 4a 00
        E 120 80 56 00
        E 0 80 62 00
        E 240 90 3c 60
        E 0 90 49 60
        E 0 90 55 60
        E 0 90 61 60
        E 3360 80 3c 00
        E 120 80 49 00
        E 120 80 55 00
        E 0 80 61 00
        E 240 90 3d 60
        E 0 90 4a 60
        E 0 90 56 60
        E 0 90 62 60
        E 3360 80 3d 00
        E 120 80 4a 00
        E 120 80 56 00
        E 0 80 62 00
        E 240 90 3e 60
        E 0 90 4b 60
        E 0 90 58 60
        E 0 90 64 60
        E 3360 80 3e 00
        E 120 80 4b 00
        E 120 80 58 00
        E 0 80 64 00
        E 240 90 3e 60
        E 0 90 4b 60
        E 0 90 57 60
        E 0 90 63 60
        E 1440 80 3e 00
        E 120 80 4b 00
        E 120 80 57 00
        E 0 80 63 00
        E 240 90 3d 60
        E 0 90 4a 60
        E 0 90 56 60
        E 0 90 62 60
        E 1440 80 3d 00
        E 120 80 4a 00
        E 120 80 56 00
        E 0 80 62 00
        E 240 90 3c 60
        E 0 90 49 60
        E 0 90 55 60
        E 0 90 61 60
        E 0 90 74 60
        E 3360 80 3c 00
        E 120 80 49 00
        E 120 80 55 00
        E 0 80 61 00
        E 240 90 3c 60
        E 0 90 48 60
        E 0 90 54 60
        E 0 90 60 60
        E 120 80 74 00
        E 3240 80 3c 00
        E 120 80 48 00
        E 120 80 54 00
        E 0 80 60 00
        E 240 90 3e 60
        E 0 90 4b 60
        E 0 90 58 60
        E 0 90 64 60
        E 3360 80 3e 00
        E 120 80 4b 00
        E 120 80 58 00
        E 0 80 64 00
        E 240 90 3e 60
        E 0 90 4b 60
        E 0 90 57 60
        E 0 90 63 60
        E 1440 80 3e 00
        E 120 80 4b 00
        E 120 80 57 00
        E 0 80 63 00
        E 240 90 3d 60
        E 0 90 4a 60
        E 0 90 56 60
        E 0 90 62 60
        E 1440 80 3d 00
        E 120 80 4a 00
        E 120 80 56 00
        E 0 80 62 00
        E 240 90 3c 60
        E 0 90 49 60
        E 0 90 55 60
        E 0 90 61 60
        E 3360 80 3c 00
        E 120 80 49 00
        E 120 80 55 00
        E 0 80 61 00
        E 240 90 3d 60
        E 0 90 4a 60
        E 0 90 56 60
        E 0 90 62 60
        E 3360 80 3d 00
        E 120 80 4a 00
        E 120 80 56 00
        E 0 80 62 00
        E 240 90 3e 60
        E 0 90 4b 60
        E 0 90 58 60
        E 0 90 64 60
        E 3360 80 3e 00
        E 120 80 4b 00
        E 120 80 58 00
        E 0 80 64 00
        E 240 90 3e 60
        E 0 90 4b 60
        E 0 90 57 60
        E 0 90 63 60
        E 1440 80 3e 00
        E 120 80 4b 00
        E 120 80 57 00
        E 0 80 63 00
        E 240 90 3d 60
        E 0 90 4a 60
        E 0 90 56 60
        E 0 90 62 60
        E 1440 80 3d 00
        E 120 80 4a 00
        E 120 80 56 00
        E 0 80 62 00
        E 240 90 3c 60
        E 0 90 49 60
        E 0 90 55 60
        E 0 90 61 60
        E 5280 80 3c 00
        E 120 80 49 00
        E 120 80 55 00
        E 0 80 61 00
        E 240 90 3d 60
        E 0 90 4a 60
        E 0 90 56 60
        E 0 90 62 60
        E 120 80 3d 00
        E 480 80 4a 00
        E 120 80 56 00
        E 0 80 62 00
        E 240 90 3e 60
        E 0 90 4b 60
        E 0 90 57 60
        E 0 90 63 60
        E 120 80 3e 00
        E 480 80 4b 00
        E 120 80 57 00
        E 0 80 63 00
        E 121 80 28 00
        E 119 90 2d 67
        E 0 90 3e 60
        E 0 90 4b 60
        E 0 90 58 60
        E 0 90 64 60
        <X 21119 0
          /wFbaWRsZV9yZWFsdGltZV0=
        >
        E 0 80 3e 00
        E 0 80 4b 00
        E 0 80 58 00
        E 0 80 64 00
        E 0 80 2d 00
        E 5761 b0 7b 00
        GUID {2A1A7510-2E8C-40B6-A30A-FD23A33D7B04}
        IGNTEMPO 0 120.00000000 4 4
        SRCCOLOR 2
        VELLANE 132 128 60
        COLORMAP "C:\Program Files\REAPER (x64)\Data\color_maps\rockband_guitarbass.png"
        CFGEDITVIEW -4879.484042 21.662927 0 12 0 0 0
        CFGEDIT 1 1 0 1 1 0 1 1 1 1 1 0.25000000 -8 -8 1544 872 0 2 1 1 0.00000000 0 1 1 0 0.500000 0 0 1.000000 64
        KEYSNAP 0 7 "102030050700" 0 "Pentatonic"
        EVTFILTER 0 -1 -1 -1 -1 0 1 0 0 -1.00000000 -1.00000000
      >
    >
  >
  <TRACK '{E63831E9-A0C9-4540-8CBF-416F9CEE5FDA}'
    NAME "bass"
    PEAKCOL 16576
    BEAT -1
    AUTOMODE 0
    VOLPAN 1.00000000000000 0.00000000000000 -1.00000000000000 -1.00000000000000 1.00000000000000
    MUTESOLO 0 0 0
    IPHASE 0
    ISBUS 2 -1
    BUSCOMP 0 0
    SHOWINMIX 1 0.666700 0.500000 1 0.500000 -1 -1 -1
    FREEMODE 0
    SEL 0
    REC 0 0 0 0 0 0 0
    VU 2
    TRACKHEIGHT 0 0
    INQ 0 0 0 0.5000000000 100 0 0 100
    NCHAN 2
    FX 1
    TRACKID {E63831E9-A0C9-4540-8CBF-416F9CEE5FDA}
    PERF 0
    MIDIOUT -1
    MAINSEND 1 0
    <ITEM
      POSITION 0.00000000000000
      SNAPOFFS 0.00000000000000
      LENGTH 286.40909297052156
      LOOP 0
      ALLTAKES 0
      SEL 0
      FADEIN 1 0.000000 0.000000 1 0
      FADEOUT 1 0.000000 0.000000 1 0
      MUTE 0
      IGUID {A639DF74-3500-4257-919D-640D00E0BFEB}
      IID 15
      NAME "bass.wav"
      VOLPAN 1.000000 0.000000 1.000000 -1.000000
      SOFFS 0.00000000000000
      PLAYRATE 1.00000000000000 1 0.00000000000000 -1
      CHANMODE 0
      GUID {5842E75B-73B0-4CC7-B915-25109FBA132B}
      <SOURCE WAVE
        FILE "C:\Users\Ruggery\Documents\Visual Studio Code\Projects\ruggy-customs-projects\songs\itstimetojump\wav\bass.wav"
      >
    >
  >
  <TRACK '{3C09867B-6B32-4B22-BE41-1747F4DFD6F2}'
    NAME "PART GUITAR"
    PEAKCOL 16576
    BEAT -1
    AUTOMODE 0
    VOLPAN 1.00000000000000 0.00000000000000 -1.00000000000000 -1.00000000000000 1.00000000000000
    MUTESOLO 0 0 0
    IPHASE 0
    ISBUS 1 1
    BUSCOMP 0 0
    SHOWINMIX 1 0.666700 0.500000 1 0.500000 -1 -1 -1
    FREEMODE 0
    SEL 0
    REC 0 0 0 0 0 0 0
    VU 2
    TRACKHEIGHT 0 0
    INQ 0 0 0 0.5000000000 100 0 0 100
    NCHAN 2
    FX 1
    TRACKID {3C09867B-6B32-4B22-BE41-1747F4DFD6F2}
    PERF 0
    MIDIOUT -1
    <MIDINOTENAMES
      0 127 "TRILL MARKER"
      0 126 "TREMOLO MARKER"
      0 125 "---"
      0 124 "BRE"
      0 123 "BRE"
      0 122 "BRE"
      0 121 "BRE"
      0 120 "BRE (use all 5)"
      0 119 "----"
      0 116 "OVERDRIVE"
      0 115 "----"
      0 103 "Solo Marker"
      0 102 "Force HOPO Off"
      0 101 "Force HOPO On"
      0 100 "EXPERT Orange"
      0 99 "EXPERT Blue"
      0 98 "EXPERT Yellow"
      0 97 "EXPERT Red"
      0 96 "EXPERT Green"
      0 95 "----"
      0 90 "Force HOPO Off"
      0 89 "Force HOPO On"
      0 88 "HARD Orange"
      0 87 "HARD Blue"
      0 86 "HARD Yellow"
      0 85 "HARD Red"
      0 84 "HARD Green"
      0 77 "----"
      0 76 "MEDIUM Orange"
      0 75 "MEDIUM Blue"
      0 74 "MEDIUM Yellow"
      0 73 "MEDIUM Red"
      0 72 "MEDIUM Green"
      0 65 "----"
      0 64 "EASY Orange"
      0 63 "EASY Blue"
      0 62 "EASY Yellow"
      0 61 "EASY Red"
      0 60 "EASY Green"
      0 59 "Fret 12"
      0 57 "Fret 11"
      0 56 "Fret 10"
      0 55 "Fret 9"
      0 53 "Fret 8"
      0 52 "Fret 7"
      0 50 "Fret 6"
      0 49 "Fret 5"
      0 47 "Fret 4"
      0 45 "Fret 3"
      0 43 "Fret 2"
      0 40 "Fret 1"
    >
    MAINSEND 1 0
    <FXCHAIN
      WNDRECT 0 43 891 559
      SHOW 0
      LASTSEL 0
      DOCKED 0
      BYPASS 0 0
      <VST "VSTi: RBN Preview (RBN)" "rbprev_vst64.dll" 0 ""
        dnBicu5e7f4AAAAAAgAAAAEAAAAAAAAAAgAAAAAAAAAEAAAAAQAAAA==
        AAAQAAMAqgAAABAAAAA=
      >
      FLOATPOS 0 0 0 0
      FXID {6D53D97D-03D8-486A-92CF-09F4162055CA}
      WAK 0
    >
    <ITEM
      POSITION 0.00000000000000
      SNAPOFFS 0.00000000000000
      LENGTH 286.40908800000000
      LOOP 0
      ALLTAKES 0
      SEL 0
      FADEIN 1 0.000000 0.000000 1 0
      FADEOUT 1 0.000000 0.000000 1 0
      MUTE 0
      IGUID {AE60EB04-47EE-48D1-ADCA-067788828918}
      IID 3
      NAME "PART GUITAR"
      VOLPAN 1.000000 0.000000 1.000000 -1.000000
      SOFFS 0.00000000000000 0.00000000000000
      PLAYRATE 1.00000000000000 1 0.00000000000000 -1
      CHANMODE 0
      GUID {178C3AC7-F236-408A-935A-66EB3BF7C577}
      <SOURCE MIDI
        HASDATA 1 480 QN
        POOLEDEVTS {4E6785FD-EA65-4FD4-98EC-5AEE0587AB49}
        <X 0 0
          /wNQQVJUIEdVSVRBUg==
        >
        <X 5760 0
          /wFbaWRsZV0=
        >
        <X 30720 0
          /wFbcGxheV0=
        >
        E 0 90 32 6a
        E 0 90 3c 60
        E 0 90 49 60
        E 0 90 55 60
        E 0 90 61 60
        E 120 80 3c 00
        E 0 80 49 00
        E 0 80 55 00
        E 0 80 61 00
        E 360 90 4a 60
        E 0 90 56 60
        E 0 90 62 60
        E 120 80 4a 00
        E 0 80 56 00
        E 0 80 62 00
        E 360 90 3e 60
        E 0 90 4b 60
        E 0 90 57 60
        E 0 90 63 60
        E 120 80 3e 00
        E 0 80 4b 00
        E 0 80 57 00
        E 0 80 63 00
        E 360 90 4a 60
        E 0 90 56 60
        E 0 90 62 60
        E 120 80 4a 00
        E 0 80 56 00
        E 0 80 62 00
        E 360 90 3e 60
        E 0 90 4b 60
        E 0 90 58 60
        E 0 90 64 60
        E 120 80 3e 00
        E 480 80 4b 00
        E 120 80 58 00
        E 0 80 64 00
        E 240 90 3e 60
        E 0 90 4b 60
        E 0 90 57 60
        E 0 90 63 60
        E 120 80 3e 00
        E 480 80 4b 00
        E 120 80 57 00
        E 0 80 63 00
        E 240 90 3c 60
        E 0 90 49 60
        E 0 90 55 60
        E 0 90 61 60
        E 120 80 3c 00
        E 0 80 49 00
        E 0 80 55 00
        E 0 80 61 00
        E 360 90 4a 60
        E 0 90 56 60
        E 0 90 62 60
        E 120 80 4a 00
        E 0 80 56 00
        E 0 80 62 00
        E 360 90 3e 60
        E 0 90 4b 60
        E 0 90 57 60
        E 0 90 63 60
        E 120 80 3e 00
        E 0 80 4b 00
        E 0 80 57 00
        E 0 80 63 00
        E 360 90 4a 60
        E 0 90 56 60
        E 0 90 62 60
        E 120 80 4a 00
        E 0 80 56 00
        E 0 80 62 00
        E 241 80 32 00
        E 119 90 38 6e
        E 0 90 3d 60
        E 0 90 4a 60
        E 0 90 56 60
        E 0 90 61 60
        E 120 80 3d 00
        E 0 80 61 00
        E 0 90 62 60
        E 0 90 65 60
        E 480 80 4a 00
        E 120 80 56 00
        E 0 80 62 00
        E 0 80 65 00
        E 240 90 3c 60
        E 0 90 49 60
        E 0 90 55 60
        E 0 90 61 60
        E 120 80 3c 00
        E 480 80 49 00
        E 120 80 55 00
        E 0 80 61 00
        E 121 80 38 00
        E 119 90 35 6c
        E 0 90 3c 60
        E 0 90 48 60
        E 0 90 54 60
        E 0 90 60 60
        E 0 90 74 60
        E 120 80 3c 00
        E 0 80 48 00
        E 0 80 54 00
        E 0 80 60 00
        E 360 90 49 60
        E 0 90 55 60
        E 0 90 61 60
        E 120 80 49 00
        E 0 80 55 00
        E 0 80 61 00
        E 360 90 3d 60
        E 0 90 4a 60
        E 0 90 56 60
        E 0 90 62 60
        E 120 80 3d 00
        E 0 80 4a 00
        E 0 80 56 00
        E 0 80 62 00
        E 360 90 49 60
        E 0 90 55 60
        E 0 90 61 60
        E 120 80 49 00
        E 0 80 55 00
        E 0 80 61 00
        E 241 80 35 00
        E 119 90 32 6a
        E 0 90 3d 60
        E 0 90 4a 60
        E 0 90 56 60
        E 0 90 62 60
        E 120 80 3d 00
        E 0 80 4a 00
        E 0 80 56 00
        E 0 80 62 00
        E 120 90 55 60
        E 0 90 61 60
        E 0 90 65 60
        E 120 80 55 00
        E 0 80 61 00
        E 120 90 4a 60
        E 0 90 56 60
        E 0 90 62 60
        E 120 80 4a 00
        E 0 80 56 00
        E 0 80 62 00
        E 120 90 58 60
        E 0 90 64 60
        E 120 80 58 00
        E 0 80 64 00
        E 120 90 3e 60
        E 0 90 4b 60
        E 0 90 57 60
        E 0 90 63 60
        E 120 80 65 00
        E 0 80 3e 00
        E 0 80 4b 00
        E 0 80 57 00
        E 0 80 63 00
        E 360 90 4a 60
        E 0 90 56 60
        E 0 90 62 60
        E 120 80 4a 00
        E 0 80 56 00
        E 0 80 62 00
        E 360 80 74 00
        E 0 90 3c 60
        E 0 90 49 60
        E 0 90 55 60
        E 0 90 61 60
        E 120 80 3c 00
        E 0 80 49 00
        E 0 80 55 00
        E 0 80 61 00
        E 360 90 4a 60
        E 0 90 56 60
        E 0 90 62 60
        E 120 80 4a 00
        E 0 80 56 00
        E 0 80 62 00
        E 360 90 3e 60
        E 0 90 4b 60
        E 0 90 57 60
        E 0 90 63 60
        E 120 80 3e 00
        E 0 80 4b 00
        E 0 80 57 00
        E 0 80 63 00
        E 360 90 49 60
        E 0 90 55 60
        E 0 90 61 60
        E 120 80 49 00
        E 0 80 55 00
        E 0 80 61 00
        E 360 90 3e 60
        E 0 90 4b 60
        E 0 90 57 60
        E 0 90 63 60
        E 120 80 3e 00
        E 0 80 4b 00
        E 0 80 57 00
        E 0 80 63 00
        E 360 90 3e 60
        E 0 90 4b 60
        E 0 90 58 60
        E 0 90 64 60
        E 120 80 3e 00
        E 0 80 4b 00
        E 0 80 58 00
        E 0 80 64 00
        E 360 90 3e 60
        E 0 90 4b 60
        E 0 90 57 60
        E 0 90 63 60
        E 120 80 3e 00
        E 0 80 4b 00
        E 0 80 57 00
        E 0 80 63 00
        E 360 90 4a 60
        E 0 90 56 60
        E 0 90 62 60
        E 120 80 4a 00
        E 0 80 56 00
        E 0 80 62 00
        E 360 90 3c 60
        E 0 90 49 60
        E 0 90 55 60
        E 0 90 61 60
        E 120 80 3c 00
        E 0 80 49 00
        E 0 80 55 00
        E 0 80 61 00
        E 360 90 4a 60
        E 0 90 56 60
        E 0 90 62 60
        E 120 80 4a 00
        E 0 80 56 00
        E 0 80 62 00
        E 360 90 3e 60
        E 0 90 4b 60
        E 0 90 57 60
        E 0 90 63 60
        E 120 80 3e 00
        E 0 80 4b 00
        E 0 80 57 00
        E 0 80 63 00
        E 360 90 4a 60
        E 0 90 56 60
        E 0 90 62 60
        E 120 80 4a 00
        E 0 80 56 00
        E 0 80 62 00
        E 360 90 3e 60
        E 0 90 4b 60
        E 0 90 58 60
        E 0 90 64 60
        E 120 80 3e 00
        E 480 80 4b 00
        E 120 80 58 00
        E 0 80 64 00
        E 240 90 3e 60
        E 0 90 4b 60
        E 0 90 57 60
        E 0 90 63 60
        E 120 80 3e 00
        E 480 80 4b 00
        E 120 80 57 00
        E 0 80 63 00
        E 240 90 3c 60
        E 0 90 49 60
        E 0 90 55 60
        E 0 90 61 60
        E 120 80 3c 00
        E 0 80 49 00
        E 0 80 55 00
        E 0 80 61 00
        E 360 90 4a 60
        E 0 90 56 60
        E 0 90 62 60
        E 120 80 4a 00
        E 0 80 56 00
        E 0 80 62 00
        E 360 90 3e 60
        E 0 90 4b 60
        E 0 90 57 60
        E 0 90 63 60
        E 120 80 3e 00
        E 0 80 4b 00
        E 0 80 57 00
        E 0 80 63 00
        E 360 90 4a 60
        E 0 90 56 60
        E 0 90 62 60
        E 120 80 4a 00
        E 0 80 56 00
        E 0 80 62 00
        E 241 80 32 00
        E 119 90 38 6e
        E 0 90 3d 60
        E 0 90 4a 60
        E 0 90 56 60
        E 0 90 61 60
        E 120 80 3d 00
        E 0 80 61 00
        E 0 90 62 60
        E 0 90 65 60
        E 480 80 4a 00
        E 120 80 56 00
        E 0 80 62 00
        E 0 80 65 00
        E 240 90 3c 60
        E 0 90 49 60
        E 0 90 55 60
        E 0 90 61 60
        E 120 80 3c 00
        E 480 80 49 00
        E 120 80 55 00
        E 0 80 61 00
        E 121 80 38 00
        E 119 90 35 6c
        E 0 90 3c 60
        E 0 90 48 60
        E 0 90 54 60
        E 0 90 60 60
        E 120 80 3c 00
        E 0 80 48 00
        E 0 80 54 00
        E 0 80 60 00
        E 360 90 49 60
        E 0 90 55 60
        E 0 90 61 60
        E 120 80 49 00
        E 0 80 55 00
        E 0 80 61 00
        E 360 90 3d 60
        E 0 90 4a 60
        E 0 90 56 60
        E 0 90 62 60
        E 120 80 3d 00
        E 0 80 4a 00
        E 0 80 56 00
        E 0 80 62 00
        E 360 90 49 60
        E 0 90 55 60
        E 0 90 61 60
        E 120 80 49 00
        E 0 80 55 00
        E 0 80 61 00
        E 241 80 35 00
        E 119 90 32 6a
        E 0 90 3d 60
        E 0 90 4a 60
        E 0 90 56 60
        E 0 90 62 60
        E 120 80 3d 00
        E 0 80 4a 00
        E 0 80 56 00
        E 0 80 62 00
        E 120 90 55 60
        E 0 90 61 60
        E 0 90 65 60
        E 120 80 55 00
        E 0 80 61 00
        E 120 90 4a 60
        E 0 90 56 60
        E 0 90 62 60
        E 120 80 4a 00
        E 0 80 56 00
        E 0 80 62 00
        E 120 90 58 60
        E 0 90 64 60
        E 120 80 58 00
        E 0 80 64 00
        E 120 90 3e 60
        E 0 90 4b 60
        E 0 90 57 60
        E 0 90 63 60
        E 0 90 74 60
        E 120 80 65 00
        E 0 80 3e 00
        E 0 80 4b 00
        E 0 80 57 00
        E 0 80 63 00
        E 360 90 4a 60
        E 0 90 56 60
        E 0 90 62 60
        E 120 80 4a 00
        E 0 80 56 00
        E 0 80 62 00
        E 360 90 3c 60
        E 0 90 49 60
        E 0 90 55 60
        E 0 90 61 60
        E 120 80 3c 00
        E 0 80 49 00
        E 0 80 55 00
        E 0 80 61 00
        E 359 90 4a 60
        E 0 90 56 60
        E 0 90 62 60
        E 120 80 4a 00
        E 0 80 56 00
        E 0 80 62 00
        E 361 90 3e 60
        E 0 90 4b 60
        E 0 90 57 60
        E 0 90 63 60
        E 120 80 3e 00
        E 0 80 4b 00
        E 0 80 57 00
        E 0 80 63 00
        E 360 90 49 60
        E 0 90 55 60
        E 0 90 61 60
        E 120 80 49 00
        E 0 80 55 00
        E 0 80 61 00
        E 360 90 3e 60
        E 0 90 4b 60
        E 0 90 57 60
        E 0 90 63 60
        E 120 80 3e 00
        E 0 80 4b 00
        E 0 80 57 00
        E 0 80 63 00
        E 360 90 3e 60
        E 0 90 4b 60
        E 0 90 58 60
        E 0 90 64 60
        E 120 80 3e 00
        E 0 80 4b 00
        E 0 80 58 00
        E 0 80 64 00
        E 360 90 3e 60
        E 0 90 4b 60
        E 0 90 57 60
        E 0 90 63 60
        E 120 80 3e 00
        E 0 80 4b 00
        E 0 80 57 00
        E 0 80 63 00
        E 360 90 4a 60
        E 0 90 56 60
        E 0 90 62 60
        E 120 80 4a 00
        E 0 80 56 00
        E 0 80 62 00
        E 241 80 32 00
        E 119 80 74 00
        E 0 90 2d 67
        E 0 90 3c 60
        E 0 90 48 60
        E 0 90 54 60
        E 0 90 60 60
        E 3360 80 3c 00
        E 120 80 48 00
        E 120 80 54 00
        E 0 80 60 00
        E 240 90 3c 60
        E 0 90 49 60
        E 0 90 55 60
        E 0 90 61 60
        E 3360 80 3c 00
        E 120 80 49 00
        E 120 80 55 00
        E 0 80 61 00
        E 240 90 3e 60
        E 0 90 4b 60
        E 0 90 57 60
        E 0 90 63 60
        E 3360 80 3e 00
        E 120 80 4b 00
        E 120 80 57 00
        E 0 80 63 00
        E 240 90 3d 60
        E 0 90 4a 60
        E 0 90 56 60
        E 0 90 62 60
        E 3360 80 3d 00
        E 120 80 4a 00
        E 120 80 56 00
        E 0 80 62 00
        E 240 90 3c 60
        E 0 90 48 60
        E 0 90 54 60
        E 0 90 60 60
        E 3360 80 3c 00
        E 120 80 48 00
        E 120 80 54 00
        E 0 80 60 00
        E 240 90 3c 60
        E 0 90 49 60
        E 0 90 55 60
        E 0 90 61 60
        E 3360 80 3c 00
        E 120 80 49 00
        E 120 80 55 00
        E 0 80 61 00
        E 240 90 3e 60
        E 0 90 4b 60
        E 0 90 57 60
        E 0 90 63 60
        E 3360 80 3e 00
        E 120 80 4b 00
        E 120 80 57 00
        E 0 80 63 00
        E 240 90 3d 60
        E 0 90 4a 60
        E 0 90 56 60
        E 0 90 62 60
        E 3360 80 3d 00
        E 120 80 4a 00
        E 120 80 56 00
        E 0 80 62 00
        E 240 90 3c 60
        E 0 90 48 60
        E 0 90 54 60
        E 0 90 60 60
        E 120 80 3c 00
        E 0 80 48 00
        E 0 80 54 00
        E 360 80 60 00
        E 240 90 49 60
        E 0 90 55 60
        E 0 90 61 60
        E 120 80 49 00
        E 0 80 55 00
        E 360 80 61 00
        E 121 80 2d 00
        E 119 90 2f 68
        E 0 90 3e 60
        E 0 90 4b 60
        E 0 90 57 60
        E 0 90 63 60
        E 120 80 3e 00
        E 0 80 4b 00
        E 0 80 57 00
        E 360 80 63 00
        E 240 90 4a 60
        E 0 90 56 60
        E 0 90 62 60
        E 120 80 4a 00
        E 0 80 56 00
        E 360 80 62 00
        E 240 90 3e 60
        E 0 90 4b 60
        E 0 90 57 60
        E 0 90 63 60
        E 120 80 3e 00
        E 0 80 4b 00
        E 0 80 57 00
        E 0 80 63 00
        E 360 90 4a 60
        E 0 90 56 60
        E 0 90 62 60
        E 120 80 4a 00
        E 0 80 56 00
        E 0 80 62 00
        E 241 80 2f 00
        E 119 90 2d 67
        E 0 90 3c 60
        E 0 90 48 60
        E 0 90 54 60
        E 0 90 60 60
        E 120 80 3c 00
        E 0 80 48 00
        E 0 80 54 00
        E 360 80 60 00
        E 240 90 49 60
        E 0 90 55 60
        E 0 90 61 60
        E 120 80 49 00
        E 0 80 55 00
        E 360 80 61 00
        E 121 80 2d 00
        E 119 90 2f 68
        E 0 90 3e 60
        E 0 90 4b 60
        E 0 90 57 60
        E 0 90 63 60
        E 120 80 3e 00
        E 0 80 4b 00
        E 0 80 57 00
        E 360 80 63 00
        E 240 90 4a 60
        E 0 90 56 60
        E 0 90 62 60
        E 120 80 4a 00
        E 0 80 56 00
        E 360 80 62 00
        E 240 90 3e 60
        E 0 90 4b 60
        E 0 90 57 60
        E 0 90 63 60
        E 120 80 3e 00
        E 0 80 4b 00
        E 0 80 57 00
        E 0 80 63 00
        E 360 90 4a 60
        E 0 90 56 60
        E 0 90 62 60
        E 120 80 4a 00
        E 0 80 56 00
        E 0 80 62 00
        E 241 80 2f 00
        E 119 90 2d 67
        E 0 90 3c 60
        E 0 90 48 60
        E 0 90 54 60
        E 0 90 60 60
        E 120 80 3c 00
        E 0 80 48 00
        E 0 80 54 00
        E 360 80 60 00
        E 240 90 49 60
        E 0 90 55 60
        E 0 90 61 60
        E 120 80 49 00
        E 0 80 55 00
        E 360 80 61 00
        E 121 80 2d 00
        E 119 90 2f 68
        E 0 90 3e 60
        E 0 90 4b 60
        E 0 90 57 60
        E 0 90 63 60
        E 120 80 3e 00
        E 0 80 4b 00
        E 0 80 57 00
        E 360 80 63 00
        E 240 90 4a 60
        E 0 90 56 60
        E 0 90 62 60
        E 120 80 4a 00
        E 0 80 56 00
        E 360 80 62 00
        E 240 90 3e 60
        E 0 90 4b 60
        E 0 90 57 60
        E 0 90 63 60
        E 120 80 3e 00
        E 0 80 4b 00
        E 0 80 57 00
        E 0 80 63 00
        E 360 90 4a 60
        E 0 90 56 60
        E 0 90 62 60
        E 120 80 4a 00
        E 0 80 56 00
        E 0 80 62 00
        E 241 80 2f 00
        E 119 90 2d 67
        E 0 90 3c 60
        E 0 90 48 60
        E 0 90 54 60
        E 0 90 60 60
        E 120 80 3c 00
        E 0 80 48 00
        E 0 80 54 00
        E 360 80 60 00
        E 240 90 49 60
        E 0 90 55 60
        E 0 90 61 60
        E 120 80 49 00
        E 0 80 55 00
        E 360 80 61 00
        E 121 80 2d 00
        E 119 90 2f 68
        E 0 90 3e 60
        E 0 90 4b 60
        E 0 90 57 60
        E 0 90 63 60
        E 120 80 3e 00
        E 0 80 4b 00
        E 0 80 57 00
        E 360 80 63 00
        E 240 90 4a 60
        E 0 90 56 60
        E 0 90 62 60
        E 120 80 4a 00
        E 0 80 56 00
        E 360 80 62 00
        E 240 90 3e 60
        E 0 90 4b 60
        E 0 90 57 60
        E 0 90 63 60
        E 120 80 3e 00
        E 0 80 4b 00
        E 0 80 57 00
        E 0 80 63 00
        E 360 90 4b 60
        E 0 90 58 60
        E 0 90 64 60
        E 120 80 4b 00
        E 0 80 58 00
        E 0 80 64 00
        E 241 80 2f 00
        E 119 90 2d 67
        E 0 90 3c 60
        E 0 90 48 60
        E 0 90 54 60
        E 0 90 60 60
        E 0 90 74 60
        E 120 80 3c 00
        E 0 80 48 00
        E 0 80 54 00
        E 360 80 60 00
        E 240 90 49 60
        E 0 90 55 60
        E 0 90 61 60
        E 120 80 49 00
        E 0 80 55 00
        E 360 80 61 00
        E 121 80 2d 00
        E 119 90 2f 68
        E 0 90 3e 60
        E 0 90 4b 60
        E 0 90 57 60
        E 0 90 63 60
        E 120 80 3e 00
        E 0 80 4b 00
        E 0 80 57 00
        E 360 80 63 00
        E 240 90 4a 60
        E 0 90 56 60
        E 0 90 62 60
        E 120 80 4a 00
        E 0 80 56 00
        E 360 80 62 00
        E 240 90 3e 60
        E 0 90 4b 60
        E 0 90 57 60
        E 0 90 63 60
        E 120 80 3e 00
        E 0 80 4b 00
        E 0 80 57 00
        E 0 80 63 00
        E 360 90 4a 60
        E 0 90 56 60
        E 0 90 62 60
        E 120 80 4a 00
        E 0 80 56 00
        E 0 80 62 00
        E 241 80 2f 00
        E 119 90 2d 67
        E 0 90 3c 60
        E 0 90 48 60
        E 0 90 54 60
        E 0 90 60 60
        E 120 80 3c 00
        E 0 80 48 00
        E 0 80 54 00
        E 360 80 60 00
        E 240 90 49 60
        E 0 90 55 60
        E 0 90 61 60
        E 120 80 49 00
        E 0 80 55 00
        E 360 80 61 00
        E 121 80 2d 00
        E 119 90 2f 68
        E 0 90 3e 60
        E 0 90 4b 60
        E 0 90 57 60
        E 0 90 63 60
        E 120 80 3e 00
        E 0 80 4b 00
        E 0 80 57 00
        E 360 80 63 00
        E 240 90 4a 60
        E 0 90 56 60
        E 0 90 62 60
        E 120 80 4a 00
        E 0 80 56 00
        E 360 80 62 00
        E 240 90 3e 60
        E 0 90 4b 60
        E 0 90 57 60
        E 0 90 63 60
        E 120 80 3e 00
        E 0 80 4b 00
        E 0 80 57 00
        E 0 80 63 00
        E 360 90 4a 60
        E 0 90 56 60
        E 0 90 62 60
        E 120 80 4a 00
        E 0 80 56 00
        E 0 80 62 00
        E 241 80 2f 00
        E 119 80 74 00
        E 0 90 2d 67
        E 0 90 3c 60
        E 0 90 48 60
        E 0 90 54 60
        E 0 90 60 60
        E 120 80 3c 00
        E 0 80 48 00
        E 0 80 54 00
        E 360 80 60 00
        E 240 90 49 60
        E 0 90 55 60
        E 0 90 61 60
        E 120 80 49 00
        E 0 80 55 00
        E 360 80 61 00
        E 121 80 2d 00
        E 119 90 2f 68
        E 0 90 3e 60
        E 0 90 4b 60
        E 0 90 57 60
        E 0 90 63 60
        E 120 80 3e 00
        E 0 80 4b 00
        E 0 80 57 00
        E 360 80 63 00
        E 240 90 4a 60
        E 0 90 56 60
        E 0 90 62 60
        E 120 80 4a 00
        E 0 80 56 00
        E 360 80 62 00
        E 240 90 3e 60
        E 0 90 4b 60
        E 0 90 57 60
        E 0 90 63 60
        E 120 80 3e 00
        E 0 80 4b 00
        E 0 80 57 00
        E 0 80 63 00
        E 360 90 4a 60
        E 0 90 56 60
        E 0 90 62 60
        E 120 80 4a 00
        E 0 80 56 00
        E 0 80 62 00
        E 241 80 2f 00
        E 119 90 2d 67
        E 0 90 3c 60
        E 0 90 48 60
        E 0 90 54 60
        E 0 90 60 60
        E 120 80 3c 00
        E 0 80 48 00
        E 0 80 54 00
        E 360 80 60 00
        E 240 90 49 60
        E 0 90 55 60
        E 0 90 61 60
        E 120 80 49 00
        E 0 80 55 00
        E 360 80 61 00
        E 121 80 2d 00
        E 119 90 2f 68
        E 0 90 3e 60
        E 0 90 4b 60
        E 0 90 57 60
        E 0 90 63 60
        E 120 80 3e 00
        E 0 80 4b 00
        E 0 80 57 00
        E 360 80 63 00
        E 240 90 4a 60
        E 0 90 56 60
        E 0 90 62 60
        E 120 80 4a 00
        E 0 80 56 00
        E 360 80 62 00
        E 240 90 3e 60
        E 0 90 4b 60
        E 0 90 57 60
        E 0 90 63 60
        E 120 80 3e 00
        E 0 80 4b 00
        E 0 80 57 00
        E 0 80 63 00
        E 241 80 2f 00
        E 119 90 2d 67
        E 0 90 3e 60
        E 0 90 4b 60
        E 0 90 58 60
        E 0 90 64 60
        E 120 80 3e 00
        E 0 80 4b 00
        E 0 80 58 00
        E 0 80 64 00
        E 360 90 3e 60
        E 0 90 4b 60
        E 0 90 58 60
        E 0 90 64 60
        E 2880 80 3e 00
        E 120 80 4b 00
        E 120 80 58 00
        E 0 80 64 00
        E 240 90 3e 60
        E 0 90 4b 60
        E 0 90 57 60
        E 0 90 63 60
        E 3840 80 3e 00
        E 120 80 4b 00
        E 120 80 57 00
        E 0 80 63 00
        E 240 90 3e 60
        E 0 90 4b 60
        E 0 90 58 60
        E 0 90 64 60
        E 2880 80 3e 00
        E 120 80 4b 00
        E 120 80 58 00
        E 0 80 64 00
        E 121 80 2d 00
        E 119 90 28 65
        E 0 90 3d 60
        E 0 90 4a 60
        E 0 90 56 60
        E 0 90 62 60
        E 2880 80 3d 00
        E 120 80 4a 00
        E 120 80 56 00
        E 0 80 62 00
        E 240 90 3c 60
        E 0 90 48 60
        E 0 90 54 60
        E 0 90 60 60
        E 120 80 3c 00
        E 0 80 48 00
        E 0 80 54 00
        E 0 80 60 00
        E 120 90 48 60
        E 0 90 54 60
        E 0 90 60 60
        E 120 80 48 00
        E 0 80 54 00
        E 0 80 60 00
        E 120 90 48 60
        E 0 90 54 60
        E 0 90 60 60
        E 120 80 48 00
        E 0 80 54 00
        E 0 80 60 00
        E 120 90 54 60
        E 0 90 60 60
        E 120 80 54 00
        E 0 80 60 00
        E 1 80 28 00
        <X 119 0
          /wFbaW50ZW5zZV0=
        >
        E 0 90 32 6a
        E 0 90 3c 60
        E 0 90 48 60
        E 0 90 49 60
        E 0 90 54 60
        E 0 90 55 60
        E 0 90 60 60
        E 0 90 61 60
        E 0 90 62 60
        E 0 90 74 60
        E 3360 80 3c 00
        E 120 80 48 00
        E 0 80 49 00
        E 120 80 54 00
        E 0 80 55 00
        E 0 80 60 00
        E 0 80 61 00
        E 0 80 62 00
        E 121 80 32 00
        E 119 80 74 00
        E 0 90 2d 67
        E 0 90 3e 60
        E 0 90 4b 60
        E 0 90 57 60
        E 0 90 63 60
        E 960 80 3e 00
        E 120 80 4b 00
        E 120 80 57 00
        E 0 80 63 00
        E 240 90 3d 60
        E 0 90 4a 60
        E 0 90 56 60
        E 0 90 62 60
        E 960 80 3d 00
        E 120 80 4a 00
        E 120 80 56 00
        E 0 80 62 00
        E 240 90 3c 60
        E 0 90 49 60
        E 0 90 55 60
        E 0 90 61 60
        E 120 80 3c 00
        E 0 80 49 00
        E 0 80 55 00
        E 360 80 61 00
        E 361 80 2d 00
        E 119 90 3b 71
        E 0 90 3e 60
        E 0 90 49 60
        E 0 90 4b 60
        E 0 90 55 60
        E 0 90 57 60
        E 0 90 61 60
        E 0 90 62 60
        E 0 90 63 60
        E 3360 80 3e 00
        E 120 80 49 00
        E 0 80 4b 00
        E 120 80 55 00
        E 0 80 57 00
        E 0 80 61 00
        E 0 80 62 00
        E 0 80 63 00
        E 121 80 3b 00
        E 119 90 35 6c
        E 0 90 3c 60
        E 0 90 48 60
        E 0 90 54 60
        E 0 90 60 60
        E 2400 80 3c 00
        E 120 80 48 00
        E 120 80 54 00
        E 0 80 60 00
        E 240 90 3d 60
        E 0 90 4a 60
        E 0 90 56 60
        E 0 90 62 60
        E 120 80 3d 00
        E 480 80 4a 00
        E 120 80 56 00
        E 0 80 62 00
        E 121 80 35 00
        E 119 90 2d 67
        E 0 90 3c 60
        E 0 90 49 60
        E 0 90 55 60
        E 0 90 61 60
        E 120 80 3c 00
        E 480 80 49 00
        E 120 80 55 00
        E 0 80 61 00
        E 240 90 3e 60
        E 0 90 4b 60
        E 0 90 58 60
        E 0 90 64 60
        E 0 90 65 60
        E 120 80 3e 00
        E 480 80 4b 00
        E 120 80 58 00
        E 0 80 64 00
        E 0 80 65 00
        E 240 90 3c 60
        E 0 90 49 60
        E 0 90 55 60
        E 0 90 61 60
        E 0 90 65 60
        E 120 80 3c 00
        E 480 80 49 00
        E 120 80 55 00
        E 0 80 61 00
        E 0 80 65 00
        E 240 90 3e 60
        E 0 90 4b 60
        E 0 90 58 60
        E 0 90 64 60
        E 0 90 65 60
        E 120 80 3e 00
        E 480 80 4b 00
        E 120 80 58 00
        E 0 80 64 00
        E 0 80 65 00
        E 121 80 2d 00
        E 119 90 35 6c
        E 0 90 3e 60
        E 0 90 4b 60
        E 0 90 57 60
        E 0 90 63 60
        E 0 90 65 60
        E 960 80 3e 00
        E 120 80 4b 00
        E 120 80 57 00
        E 0 80 63 00
        E 0 80 65 00
        E 240 90 3d 60
        E 0 90 4a 60
        E 0 90 56 60
        E 0 90 62 60
        E 960 80 3d 00
        E 120 80 4a 00
        E 120 80 56 00
        E 0 80 62 00
        E 240 90 3c 60
        E 0 90 48 60
        E 0 90 54 60
        E 0 90 60 60
        E 120 80 3c 00
        E 480 80 48 00
        E 120 80 54 00
        E 0 80 60 00
        E 121 80 35 00
        E 119 90 3b 71
        E 0 90 3e 60
        E 0 90 49 60
        E 0 90 4b 60
        E 0 90 55 60
        E 0 90 57 60
        E 0 90 61 60
        E 0 90 62 60
        E 0 90 63 60
        E 3360 80 3e 00
        E 120 80 49 00
        E 0 80 4b 00
        E 120 80 55 00
        E 0 80 57 00
        E 0 80 61 00
        E 0 80 62 00
        E 0 80 63 00
        E 121 80 3b 00
        E 119 90 32 6a
        E 0 90 3e 60
        E 0 90 4b 60
        E 0 90 58 60
        E 0 90 64 60
        E 0 90 74 60
        E 1440 80 3e 00
        E 120 80 4b 00
        E 120 80 58 00
        E 0 80 64 00
        E 240 90 3e 60
        E 0 90 4b 60
        E 0 90 57 60
        E 0 90 63 60
        E 1440 80 3e 00
        E 120 80 4b 00
        E 120 80 57 00
        E 0 80 63 00
        E 121 80 32 00
        E 119 80 74 00
        E 0 90 32 6a
        E 0 90 3c 60
        E 0 90 48 60
        E 0 90 49 60
        E 0 90 54 60
        E 0 90 55 60
        E 0 90 60 60
        E 0 90 61 60
        E 0 90 62 60
        E 3360 80 3c 00
        E 120 80 48 00
        E 0 80 49 00
        E 120 80 54 00
        E 0 80 55 00
        E 0 80 60 00
        E 0 80 61 00
        E 0 80 62 00
        E 121 80 32 00
        E 119 90 2d 67
        E 0 90 3e 60
        E 0 90 4b 60
        E 0 90 57 60
        E 0 90 63 60
        E 960 80 3e 00
        E 120 80 4b 00
        E 120 80 57 00
        E 0 80 63 00
        E 240 90 3d 60
        E 0 90 4a 60
        E 0 90 56 60
        E 0 90 62 60
        E 960 80 3d 00
        E 120 80 4a 00
        E 120 80 56 00
        E 0 80 62 00
        E 240 90 3c 60
        E 0 90 49 60
        E 0 90 55 60
        E 0 90 61 60
        E 120 80 3c 00
        E 0 80 49 00
        E 0 80 55 00
        E 360 80 61 00
        E 361 80 2d 00
        E 119 90 3b 71
        E 0 90 3e 60
        E 0 90 49 60
        E 0 90 4b 60
        E 0 90 55 60
        E 0 90 57 60
        E 0 90 61 60
        E 0 90 62 60
        E 0 90 63 60
        E 3360 80 3e 00
        E 120 80 49 00
        E 0 80 4b 00
        E 120 80 55 00
        E 0 80 57 00
        E 0 80 61 00
        E 0 80 62 00
        E 0 80 63 00
        E 121 80 3b 00
        E 119 90 35 6c
        E 0 90 3c 60
        E 0 90 48 60
        E 0 90 54 60
        E 0 90 60 60
        E 2400 80 3c 00
        E 120 80 48 00
        E 120 80 54 00
        E 0 80 60 00
        E 240 90 3d 60
        E 0 90 4a 60
        E 0 90 56 60
        E 0 90 62 60
        E 120 80 3d 00
        E 480 80 4a 00
        E 120 80 56 00
        E 0 80 62 00
        E 121 80 35 00
        E 119 90 2d 67
        E 0 90 3c 60
        E 0 90 49 60
        E 0 90 55 60
        E 0 90 61 60
        E 120 80 3c 00
        E 480 80 49 00
        E 120 80 55 00
        E 0 80 61 00
        E 240 90 3e 60
        E 0 90 4b 60
        E 0 90 58 60
        E 0 90 64 60
        E 0 90 65 60
        E 0 90 74 60
        E 120 80 3e 00
        E 480 80 4b 00
        E 120 80 58 00
        E 0 80 64 00
        E 0 80 65 00
        E 240 90 3c 60
        E 0 90 49 60
        E 0 90 55 60
        E 0 90 61 60
        E 0 90 65 60
        E 120 80 3c 00
        E 480 80 49 00
        E 120 80 55 00
        E 0 80 61 00
        E 0 80 65 00
        E 240 90 3e 60
        E 0 90 4b 60
        E 0 90 58 60
        E 0 90 64 60
        E 0 90 65 60
        E 120 80 3e 00
        E 480 80 4b 00
        E 120 80 58 00
        E 0 80 64 00
        E 0 80 65 00
        E 121 80 2d 00
        E 119 80 74 00
        E 0 90 35 6c
        E 0 90 3e 60
        E 0 90 4b 60
        E 0 90 57 60
        E 0 90 63 60
        E 0 90 65 60
        E 960 80 3e 00
        E 120 80 4b 00
        E 120 80 57 00
        E 0 80 63 00
        E 0 80 65 00
        E 240 90 3d 60
        E 0 90 4a 60
        E 0 90 56 60
        E 0 90 62 60
        E 960 80 3d 00
        E 120 80 4a 00
        E 120 80 56 00
        E 0 80 62 00
        E 240 90 3c 60
        E 0 90 48 60
        E 0 90 54 60
        E 0 90 60 60
        E 120 80 3c 00
        E 480 80 48 00
        E 120 80 54 00
        E 0 80 60 00
        E 121 80 35 00
        E 119 90 3b 71
        E 0 90 3e 60
        E 0 90 49 60
        E 0 90 4b 60
        E 0 90 55 60
        E 0 90 57 60
        E 0 90 61 60
        E 0 90 62 60
        E 0 90 63 60
        E 3360 80 3e 00
        E 120 80 49 00
        E 0 80 4b 00
        E 120 80 55 00
        E 0 80 57 00
        E 0 80 61 00
        E 0 80 62 00
        E 0 80 63 00
        E 121 80 3b 00
        E 119 90 32 6a
        E 0 90 3e 60
        E 0 90 4b 60
        E 0 90 58 60
        E 0 90 64 60
        E 1440 80 3e 00
        E 120 80 4b 00
        E 120 80 58 00
        E 0 80 64 00
        E 240 90 3e 60
        E 0 90 4b 60
        E 0 90 57 60
        E 0 90 63 60
        E 1440 80 3e 00
        E 120 80 4b 00
        E 120 80 57 00
        E 0 80 63 00
        E 240 90 3d 60
        E 0 90 4a 60
        E 0 90 56 60
        E 0 90 62 60
        E 7200 80 3d 00
        E 120 80 4a 00
        E 120 80 56 00
        E 0 80 62 00
        E 121 80 32 00
        <X 119 0
          /wFbcGxheV0=
        >
        E 0 90 28 65
        E 0 90 3e 60
        E 0 90 4b 60
        E 0 90 57 60
        E 0 90 63 60
        E 3360 80 3e 00
        E 120 80 4b 00
        E 120 80 57 00
        E 0 80 63 00
        E 240 90 3d 60
        E 0 90 4a 60
        E 0 90 56 60
        E 0 90 62 60
        E 7200 80 3d 00
        E 120 80 4a 00
        E 120 80 56 00
        E 0 80 62 00
        E 240 90 3c 60
        E 0 90 49 60
        E 0 90 55 60
        E 0 90 61 60
        E 1440 80 3c 00
        E 120 80 49 00
        E 120 80 55 00
        E 0 80 61 00
        E 240 90 3d 60
        E 0 90 4a 60
        E 0 90 56 60
        E 0 90 62 60
        E 1440 80 3d 00
        E 120 80 4a 00
        E 120 80 56 00
        E 0 80 62 00
        E 240 90 3e 60
        E 0 90 4b 60
        E 0 90 57 60
        E 0 90 63 60
        E 3360 80 3e 00
        E 120 80 4b 00
        E 120 80 57 00
        E 0 80 63 00
        E 240 90 3d 60
        E 0 90 4a 60
        E 0 90 56 60
        E 0 90 62 60
        E 7200 80 3d 00
        E 120 80 4a 00
        E 120 80 56 00
        E 0 80 62 00
        E 240 90 3c 60
        E 0 90 49 60
        E 0 90 55 60
        E 0 90 61 60
        E 0 90 74 60
        E 1440 80 3c 00
        E 120 80 49 00
        E 120 80 55 00
        E 0 80 61 00
        E 240 90 3d 60
        E 0 90 4a 60
        E 0 90 56 60
        E 0 90 62 60
        E 1440 80 3d 00
        E 120 80 4a 00
        E 120 80 56 00
        E 0 80 62 00
        E 240 80 74 00
        E 0 90 3e 60
        E 0 90 4b 60
        E 0 90 57 60
        E 0 90 63 60
        E 3360 80 3e 00
        E 120 80 4b 00
        E 120 80 57 00
        E 0 80 63 00
        E 240 90 3d 60
        E 0 90 4a 60
        E 0 90 56 60
        E 0 90 62 60
        E 7199 80 3d 00
        E 120 80 4a 00
        E 120 80 56 00
        E 1 80 62 00
        E 239 90 3c 60
        E 0 90 49 60
        E 0 90 55 60
        E 0 90 61 60
        E 1441 80 3c 00
        E 120 80 49 00
        E 120 80 55 00
        E 0 80 61 00
        E 240 90 3d 60
        E 0 90 4a 60
        E 0 90 56 60
        E 0 90 62 60
        E 1440 80 3d 00
        E 120 80 4a 00
        E 120 80 56 00
        E 0 80 62 00
        E 240 90 3e 60
        E 0 90 4b 60
        E 0 90 57 60
        E 0 90 63 60
        E 3360 80 3e 00
        E 120 80 4b 00
        E 120 80 57 00
        E 0 80 63 00
        E 240 90 3d 60
        E 0 90 4a 60
        E 0 90 56 60
        E 0 90 62 60
        E 7199 80 3d 00
        E 120 80 4a 00
        E 120 80 56 00
        E 1 80 62 00
        E 239 90 3c 60
        E 0 90 49 60
        E 0 90 55 60
        E 0 90 61 60
        E 1441 80 3c 00
        E 120 80 49 00
        E 120 80 55 00
        E 0 80 61 00
        E 240 90 3d 60
        E 0 90 4a 60
        E 0 90 56 60
        E 0 90 62 60
        <X 1920 0
          /wFbaWRsZV0=
        >
        E 0 80 3d 00
        E 0 80 4a 00
        E 0 80 56 00
        E 0 80 62 00
        <X 26880 0
          /wFbcGxheV0=
        >
        E 0 90 3c 60
        E 0 90 48 60
        E 0 90 54 60
        E 0 90 60 60
        E 3360 80 3c 00
        E 120 80 48 00
        E 120 80 54 00
        E 0 80 60 00
        E 240 90 3c 60
        E 0 90 48 60
        E 0 90 54 60
        E 0 90 60 60
        E 3360 80 3c 00
        E 120 80 48 00
        E 120 80 54 00
        E 0 80 60 00
        E 240 90 3c 60
        E 0 90 48 60
        E 0 90 54 60
        E 0 90 60 60
        E 3360 80 3c 00
        E 120 80 48 00
        E 120 80 54 00
        E 0 80 60 00
        E 240 90 3c 60
        E 0 90 48 60
        E 0 90 54 60
        E 0 90 60 60
        E 0 90 74 60
        E 3480 80 74 00
        E 120 80 3c 00
        E 0 80 48 00
        E 0 80 54 00
        E 0 80 60 00
        E 2041 80 28 00
        <X 119 0
          /wFbaW50ZW5zZV0=
        >
        E 0 90 32 6a
        E 0 90 3c 60
        E 0 90 48 60
        E 0 90 49 60
        E 0 90 54 60
        E 0 90 55 60
        E 0 90 60 60
        E 0 90 61 60
        E 0 90 62 60
        E 3360 80 3c 00
        E 120 80 48 00
        E 0 80 49 00
        E 120 80 54 00
        E 0 80 55 00
        E 0 80 60 00
        E 0 80 61 00
        E 0 80 62 00
        E 121 80 32 00
        E 119 90 2d 67
        E 0 90 3e 60
        E 0 90 4b 60
        E 0 90 57 60
        E 0 90 63 60
        E 960 80 3e 00
        E 120 80 4b 00
        E 120 80 57 00
        E 0 80 63 00
        E 240 90 3d 60
        E 0 90 4a 60
        E 0 90 56 60
        E 0 90 62 60
        E 960 80 3d 00
        E 120 80 4a 00
        E 120 80 56 00
        E 0 80 62 00
        E 240 90 3c 60
        E 0 90 49 60
        E 0 90 55 60
        E 0 90 61 60
        E 120 80 3c 00
        E 0 80 49 00
        E 0 80 55 00
        E 360 80 61 00
        E 361 80 2d 00
        E 119 90 3b 71
        E 0 90 3e 60
        E 0 90 49 60
        E 0 90 4b 60
        E 0 90 55 60
        E 0 90 57 60
        E 0 90 61 60
        E 0 90 62 60
        E 0 90 63 60
        E 3360 80 3e 00
        E 120 80 49 00
        E 0 80 4b 00
        E 120 80 55 00
        E 0 80 57 00
        E 0 80 61 00
        E 0 80 62 00
        E 0 80 63 00
        E 121 80 3b 00
        E 119 90 35 6c
        E 0 90 3c 60
        E 0 90 48 60
        E 0 90 54 60
        E 0 90 60 60
        E 2400 80 3c 00
        E 120 80 48 00
        E 120 80 54 00
        E 0 80 60 00
        E 240 90 3d 60
        E 0 90 4a 60
        E 0 90 56 60
        E 0 90 62 60
        E 120 80 3d 00
        E 480 80 4a 00
        E 120 80 56 00
        E 0 80 62 00
        E 121 80 35 00
        E 119 90 2d 67
        E 0 90 3c 60
        E 0 90 49 60
        E 0 90 55 60
        E 0 90 61 60
        E 120 80 3c 00
        E 480 80 49 00
        E 120 80 55 00
        E 0 80 61 00
        E 240 90 3e 60
        E 0 90 4b 60
        E 0 90 58 60
        E 0 90 64 60
        E 0 90 65 60
        E 120 80 3e 00
        E 480 80 4b 00
        E 120 80 58 00
        E 0 80 64 00
        E 0 80 65 00
        E 240 90 3c 60
        E 0 90 49 60
        E 0 90 55 60
        E 0 90 61 60
        E 0 90 65 60
        E 120 80 3c 00
        E 480 80 49 00
        E 120 80 55 00
        E 0 80 61 00
        E 0 80 65 00
        E 240 90 3e 60
        E 0 90 4b 60
        E 0 90 58 60
        E 0 90 64 60
        E 0 90 65 60
        E 120 80 3e 00
        E 480 80 4b 00
        E 120 80 58 00
        E 0 80 64 00
        E 0 80 65 00
        E 121 80 2d 00
        E 119 90 35 6c
        E 0 90 3e 60
        E 0 90 4b 60
        E 0 90 57 60
        E 0 90 63 60
        E 0 90 65 60
        E 960 80 3e 00
        E 120 80 4b 00
        E 120 80 57 00
        E 0 80 63 00
        E 0 80 65 00
        E 240 90 3d 60
        E 0 90 4a 60
        E 0 90 56 60
        E 0 90 62 60
        E 960 80 3d 00
        E 120 80 4a 00
        E 120 80 56 00
        E 0 80 62 00
        E 240 90 3c 60
        E 0 90 48 60
        E 0 90 54 60
        E 0 90 60 60
        E 120 80 3c 00
        E 480 80 48 00
        E 120 80 54 00
        E 0 80 60 00
        E 121 80 35 00
        E 119 90 3b 71
        E 0 90 3e 60
        E 0 90 49 60
        E 0 90 4b 60
        E 0 90 55 60
        E 0 90 57 60
        E 0 90 61 60
        E 0 90 62 60
        E 0 90 63 60
        E 0 90 74 60
        E 3360 80 3e 00
        E 120 80 49 00
        E 0 80 4b 00
        E 120 80 55 00
        E 0 80 57 00
        E 0 80 61 00
        E 0 80 62 00
        E 0 80 63 00
        E 121 80 3b 00
        E 119 90 32 6a
        E 0 90 3e 60
        E 0 90 4b 60
        E 0 90 58 60
        E 0 90 64 60
        E 1440 80 3e 00
        E 120 80 4b 00
        E 120 80 58 00
        E 0 80 64 00
        E 240 90 3e 60
        E 0 90 4b 60
        E 0 90 57 60
        E 0 90 63 60
        E 1440 80 3e 00
        E 120 80 4b 00
        E 120 80 57 00
        E 0 80 63 00
        E 240 80 74 00
        E 0 90 3c 60
        E 0 90 48 60
        E 0 90 49 60
        E 0 90 54 60
        E 0 90 55 60
        E 0 90 60 60
        E 0 90 61 60
        E 0 90 62 60
        E 3360 80 3c 00
        E 120 80 48 00
        E 0 80 49 00
        E 120 80 54 00
        E 0 80 55 00
        E 0 80 60 00
        E 0 80 61 00
        E 0 80 62 00
        E 121 80 32 00
        E 119 90 2d 67
        E 0 90 3e 60
        E 0 90 4b 60
        E 0 90 57 60
        E 0 90 63 60
        E 960 80 3e 00
        E 120 80 4b 00
        E 120 80 57 00
        E 0 80 63 00
        E 240 90 3d 60
        E 0 90 4a 60
        E 0 90 56 60
        E 0 90 62 60
        E 960 80 3d 00
        E 120 80 4a 00
        E 120 80 56 00
        E 0 80 62 00
        E 121 80 2d 00
        E 119 90 3c 60
        E 0 90 49 60
        E 0 90 55 60
        E 0 90 61 60
        E 120 80 3c 00
        E 0 80 49 00
        E 0 80 55 00
        E 360 80 61 00
        E 480 90 3b 71
        E 0 90 3e 60
        E 0 90 49 60
        E 0 90 4b 60
        E 0 90 55 60
        E 0 90 57 60
        E 0 90 61 60
        E 0 90 62 60
        E 0 90 63 60
        E 3360 80 3e 00
        E 120 80 49 00
        E 0 80 4b 00
        E 120 80 55 00
        E 0 80 57 00
        E 0 80 61 00
        E 0 80 62 00
        E 0 80 63 00
        E 121 80 3b 00
        E 119 90 35 6c
        E 0 90 3c 60
        E 0 90 48 60
        E 0 90 54 60
        E 0 90 60 60
        E 2400 80 3c 00
        E 120 80 48 00
        E 120 80 54 00
        E 0 80 60 00
        E 240 90 3d 60
        E 0 90 4a 60
        E 0 90 56 60
        E 0 90 62 60
        E 120 80 3d 00
        E 480 80 4a 00
        E 120 80 56 00
        E 0 80 62 00
        E 121 80 35 00
        E 119 90 2d 67
        E 0 90 3c 60
        E 0 90 49 60
        E 0 90 55 60
        E 0 90 61 60
        E 120 80 3c 00
        E 480 80 49 00
        E 120 80 55 00
        E 0 80 61 00
        E 240 90 3e 60
        E 0 90 4b 60
        E 0 90 58 60
        E 0 90 64 60
        E 0 90 65 60
        E 0 90 74 60
        E 120 80 3e 00
        E 480 80 4b 00
        E 120 80 58 00
        E 0 80 64 00
        E 0 80 65 00
        E 240 90 3c 60
        E 0 90 49 60
        E 0 90 55 60
        E 0 90 61 60
        E 0 90 65 60
        E 120 80 3c 00
        E 480 80 49 00
        E 120 80 55 00
        E 0 80 61 00
        E 0 80 65 00
        E 240 90 3e 60
        E 0 90 4b 60
        E 0 90 58 60
        E 0 90 64 60
        E 0 90 65 60
        E 120 80 3e 00
        E 480 80 4b 00
        E 120 80 58 00
        E 0 80 64 00
        E 0 80 65 00
        E 121 80 2d 00
        E 119 90 35 6c
        E 0 90 3e 60
        E 0 90 4b 60
        E 0 90 57 60
        E 0 90 63 60
        E 0 90 65 60
        E 960 80 3e 00
        E 120 80 4b 00
        E 120 80 57 00
        E 0 80 63 00
        E 0 80 65 00
        E 240 80 74 00
        E 0 90 3d 60
        E 0 90 4a 60
        E 0 90 56 60
        E 0 90 62 60
        E 960 80 3d 00
        E 120 80 4a 00
        E 120 80 56 00
        E 0 80 62 00
        E 240 90 3c 60
        E 0 90 48 60
        E 0 90 54 60
        E 0 90 60 60
        E 120 80 3c 00
        E 480 80 48 00
        E 120 80 54 00
        E 0 80 60 00
        E 121 80 35 00
        E 119 90 3b 71
        E 0 90 3e 60
        E 0 90 49 60
        E 0 90 4b 60
        E 0 90 55 60
        E 0 90 57 60
        E 0 90 61 60
        E 0 90 62 60
        E 0 90 63 60
        E 3360 80 3e 00
        E 120 80 49 00
        E 0 80 4b 00
        E 120 80 55 00
        E 0 80 57 00
        E 0 80 61 00
        E 0 80 62 00
        E 0 80 63 00
        E 121 80 3b 00
        E 119 90 32 6a
        E 0 90 3e 60
        E 0 90 4b 60
        E 0 90 58 60
        E 0 90 64 60
        E 1440 80 3e 00
        E 120 80 4b 00
        E 120 80 58 00
        E 0 80 64 00
        E 240 90 3e 60
        E 0 90 4b 60
        E 0 90 57 60
        E 0 90 63 60
        E 1440 80 3e 00
        E 120 80 4b 00
        E 120 80 57 00
        E 0 80 63 00
        E 240 90 3e 60
        E 0 90 4b 60
        E 0 90 58 60
        E 0 90 64 60
        E 5280 80 3e 00
        E 120 80 4b 00
        E 120 80 58 00
        E 0 80 64 00
        E 240 90 3e 60
        E 0 90 4b 60
        E 0 90 57 60
        E 0 90 63 60
        E 120 80 3e 00
        E 480 80 4b 00
        E 120 80 57 00
        E 0 80 63 00
        E 240 90 3e 60
        E 0 90 4b 60
        E 0 90 58 60
        E 0 90 64 60
        E 120 80 3e 00
        E 480 80 4b 00
        E 120 80 58 00
        E 0 80 64 00
        E 121 80 32 00
        E 119 90 2d 67
        E 0 90 3c 60
        E 0 90 49 60
        E 0 90 55 60
        E 0 90 61 60
        E 1440 80 3c 00
        E 120 80 49 00
        E 120 80 55 00
        E 0 80 61 00
        E 121 80 2d 00
        E 119 90 38 6e
        E 0 90 3e 60
        E 0 90 4b 60
        E 0 90 58 60
        E 0 90 64 60
        E 0 90 65 60
        <X 19199 0
          /wFbaWRsZV9yZWFsdGltZV0=
        >
        E 0 80 3e 00
        E 0 80 4b 00
        E 0 80 58 00
        E 0 80 64 00
        E 0 80 65 00
        E 0 80 38 00
        E 5761 b0 7b 00
        GUID {2CCE316C-34EB-4240-A30D-BCA54C71CF4E}
        IGNTEMPO 0 120.00000000 4 4
        SRCCOLOR 3
        VELLANE 132 128 60
        COLORMAP "C:\Program Files\REAPER (x64)\Data\color_maps\rockband_guitarbass.png"
        CFGEDITVIEW -26958.646950 3.920965 4 12 0 0 0
        CFGEDIT 1 1 0 1 1 0 1 1 1 1 1 0.25000000 -8 -8 1544 872 0 2 1 1 0.00000000 0 1 1 0 0.500000 0 0 1.000000 64
        KEYSNAP 0 7 "102030050700" 0 "Pentatonic"
        EVTFILTER 0 -1 -1 -1 -1 0 1 0 0 -1.00000000 -1.00000000
      >
    >
  >
  <TRACK '{4205B731-A644-4DAB-846F-F749A62248FE}'
    NAME "guitar"
    PEAKCOL 16576
    BEAT -1
    AUTOMODE 0
    VOLPAN 1.00000000000000 0.00000000000000 -1.00000000000000 -1.00000000000000 1.00000000000000
    MUTESOLO 0 0 0
    IPHASE 0
    ISBUS 2 -1
    BUSCOMP 0 0
    SHOWINMIX 1 0.666700 0.500000 1 0.500000 -1 -1 -1
    FREEMODE 0
    SEL 0
    REC 0 0 0 0 0 0 0
    VU 2
    TRACKHEIGHT 0 0
    INQ 0 0 0 0.5000000000 100 0 0 100
    NCHAN 2
    FX 1
    TRACKID {4205B731-A644-4DAB-846F-F749A62248FE}
    PERF 0
    MIDIOUT -1
    MAINSEND 1 0
    <ITEM
      POSITION 0.00000000000000
      SNAPOFFS 0.00000000000000
      LENGTH 286.40909297052156
      LOOP 0
      ALLTAKES 0
      SEL 0
      FADEIN 1 0.000000 0.000000 1 0
      FADEOUT 1 0.000000 0.000000 1 0
      MUTE 0
      IGUID {E57C416D-6ECB-4DBA-90C1-D2F209189373}
      IID 17
      NAME "guitar.wav"
      VOLPAN 1.000000 0.000000 1.000000 -1.000000
      SOFFS 0.00000000000000
      PLAYRATE 1.00000000000000 1 0.00000000000000 -1
      CHANMODE 0
      GUID {A8E2A581-4D25-457F-A4E5-198B04E4A9A3}
      <SOURCE WAVE
        FILE "C:\Users\Ruggery\Documents\Visual Studio Code\Projects\ruggy-customs-projects\songs\itstimetojump\wav\guitar.wav"
      >
    >
  >
  <TRACK '{255FD006-A515-4D5C-85FC-522062BD861F}'
    NAME "PART KEYS"
    PEAKCOL 16576
    BEAT -1
    AUTOMODE 0
    VOLPAN 1.00000000000000 0.00000000000000 -1.00000000000000 -1.00000000000000 1.00000000000000
    MUTESOLO 0 0 0
    IPHASE 0
    ISBUS 1 1
    BUSCOMP 0 0
    SHOWINMIX 1 0.666700 0.500000 1 0.500000 -1 -1 -1
    FREEMODE 0
    SEL 0
    REC 0 0 0 0 0 0 0
    VU 2
    TRACKHEIGHT 0 0
    INQ 0 0 0 0.5000000000 100 0 0 100
    NCHAN 2
    FX 1
    TRACKID {255FD006-A515-4D5C-85FC-522062BD861F}
    PERF 0
    MIDIOUT -1
    <MIDINOTENAMES
      0 127 "TRILL MARKER"
      0 125 "---"
      0 124 "BRE"
      0 123 "BRE"
      0 122 "BRE"
      0 121 "BRE"
      0 120 "BRE (use all 5)"
      0 119 "----"
      0 116 "OVERDRIVE"
      0 115 "----"
      0 103 "Solo Marker"
      0 102 "Force HOPO Off"
      0 101 "Force HOPO On"
      0 100 "EXPERT Orange"
      0 99 "EXPERT Blue"
      0 98 "EXPERT Yellow"
      0 97 "EXPERT Red"
      0 96 "EXPERT Green"
      0 95 "----"
      0 90 "Force HOPO Off"
      0 89 "Force HOPO On"
      0 88 "HARD Orange"
      0 87 "HARD Blue"
      0 86 "HARD Yellow"
      0 85 "HARD Red"
      0 84 "HARD Green"
      0 77 "----"
      0 76 "MEDIUM Orange"
      0 75 "MEDIUM Blue"
      0 74 "MEDIUM Yellow"
      0 73 "MEDIUM Red"
      0 72 "MEDIUM Green"
      0 65 "----"
      0 64 "EASY Orange"
      0 63 "EASY Blue"
      0 62 "EASY Yellow"
      0 61 "EASY Red"
      0 60 "EASY Green"
    >
    MAINSEND 1 0
    <FXCHAIN
      WNDRECT 0 43 891 559
      SHOW 0
      LASTSEL 0
      DOCKED 0
      BYPASS 0 0
      <VST "VSTi: RBN Preview (RBN)" "rbprev_vst64.dll" 0 ""
        dnBicu5e7f4AAAAAAgAAAAEAAAAAAAAAAgAAAAAAAAAEAAAAAQAAAA==
        AAAQAAMAqgAAABAAAAA=
      >
      FLOATPOS 0 0 0 0
      FXID {90D8C546-5DFB-446E-B668-9850CF6B1A61}
      WAK 0
    >
    <ITEM
      POSITION 0.00000000000000
      SNAPOFFS 0.00000000000000
      LENGTH 286.40908800000000
      LOOP 0
      ALLTAKES 0
      SEL 0
      FADEIN 1 0.000000 0.000000 1 0
      FADEOUT 1 0.000000 0.000000 1 0
      MUTE 0
      IGUID {498A2864-BFBC-4209-AFE1-3CA4C44F44E9}
      IID 4
      NAME "PART KEYS"
      VOLPAN 1.000000 0.000000 1.000000 -1.000000
      SOFFS 0.00000000000000 0.00000000000000
      PLAYRATE 1.00000000000000 1 0.00000000000000 -1
      CHANMODE 0
      GUID {EE9A6CFA-8A20-4589-9087-F6A01B1E12B1}
      <SOURCE MIDI
        HASDATA 1 480 QN
        POOLEDEVTS {4A65449A-8ACC-432C-B6B7-94908F5539FF}
        <X 0 0
          /wNQQVJUIEtFWVM=
        >
        <X 5760 0
          /wFbcGxheV0=
        >
        E 0 90 61 60
        E 0 90 62 60
        E 0 90 63 60
        E 0 90 55 60
        E 0 90 57 60
        E 0 90 49 60
        E 0 90 4b 60
        E 0 90 3e 60
        E 3360 80 3e 00
        E 120 80 49 00
        E 0 80 4b 00
        E 120 80 61 00
        E 0 80 62 00
        E 0 80 63 00
        E 0 80 55 00
        E 0 80 57 00
        E 240 90 60 60
        E 0 90 62 60
        E 0 90 64 60
        E 0 90 55 60
        E 0 90 58 60
        E 0 90 4a 60
        E 0 90 4c 60
        E 0 90 3e 60
        E 3360 80 3e 00
        E 120 80 4a 00
        E 0 80 4c 00
        E 120 80 60 00
        E 0 80 62 00
        E 0 80 64 00
        E 0 80 55 00
        E 0 80 58 00
        E 240 90 60 60
        E 0 90 61 60
        E 0 90 62 60
        E 0 90 54 60
        E 0 90 55 60
        E 0 90 48 60
        E 0 90 49 60
        E 0 90 3c 60
        E 3360 80 3c 00
        E 120 80 48 00
        E 0 80 49 00
        E 120 80 60 00
        E 0 80 61 00
        E 0 80 62 00
        E 0 80 54 00
        E 0 80 55 00
        E 240 90 60 60
        E 0 90 62 60
        E 0 90 63 60
        E 0 90 54 60
        E 0 90 57 60
        E 0 90 48 60
        E 0 90 4a 60
        E 0 90 3d 60
        E 3360 80 3d 00
        E 120 80 48 00
        E 0 80 4a 00
        E 120 80 60 00
        E 0 80 62 00
        E 0 80 63 00
        E 0 80 54 00
        E 0 80 57 00
        E 240 90 61 60
        E 0 90 62 60
        E 0 90 63 60
        E 0 90 74 60
        E 0 90 55 60
        E 0 90 57 60
        E 0 90 49 60
        E 0 90 4b 60
        E 0 90 3e 60
        E 3360 80 3e 00
        E 120 80 49 00
        E 0 80 4b 00
        E 120 80 61 00
        E 0 80 62 00
        E 0 80 63 00
        E 0 80 55 00
        E 0 80 57 00
        E 240 90 60 60
        E 0 90 62 60
        E 0 90 64 60
        E 0 90 55 60
        E 0 90 58 60
        E 0 90 4a 60
        E 0 90 4c 60
        E 0 90 3e 60
        E 960 80 74 00
        E 2400 80 3e 00
        E 120 80 4a 00
        E 0 80 4c 00
        E 120 80 60 00
        E 0 80 62 00
        E 0 80 64 00
        E 0 80 55 00
        E 0 80 58 00
        E 240 90 60 60
        E 0 90 61 60
        E 0 90 62 60
        E 0 90 54 60
        E 0 90 55 60
        E 0 90 48 60
        E 0 90 49 60
        E 0 90 3c 60
        E 3360 80 3c 00
        E 120 80 48 00
        E 0 80 49 00
        E 120 80 60 00
        E 0 80 61 00
        E 0 80 62 00
        E 0 80 54 00
        E 0 80 55 00
        E 240 90 60 60
        E 0 90 62 60
        E 0 90 63 60
        E 0 90 54 60
        E 0 90 57 60
        E 0 90 48 60
        E 0 90 4a 60
        E 0 90 3d 60
        E 3360 80 3d 00
        E 120 80 48 00
        E 0 80 4a 00
        E 120 80 60 00
        E 0 80 62 00
        E 0 80 63 00
        E 0 80 54 00
        E 0 80 57 00
        E 240 90 61 60
        E 0 90 55 60
        E 0 90 48 60
        E 0 90 3c 60
        E 120 80 61 00
        E 0 80 55 00
        E 0 80 48 00
        E 0 80 3c 00
        E 360 90 62 60
        E 0 90 56 60
        E 0 90 49 60
        E 120 80 62 00
        E 0 80 56 00
        E 0 80 49 00
        E 360 90 63 60
        E 0 90 57 60
        E 0 90 4a 60
        E 0 90 3e 60
        E 120 80 63 00
        E 0 80 57 00
        E 0 80 4a 00
        E 0 80 3e 00
        E 360 90 62 60
        E 0 90 56 60
        E 0 90 49 60
        E 120 80 62 00
        E 0 80 56 00
        E 0 80 49 00
        E 360 90 64 60
        E 0 90 58 60
        E 0 90 4b 60
        E 0 90 3f 60
        E 120 80 3f 00
        E 480 80 4b 00
        E 120 80 64 00
        E 0 80 58 00
        E 240 90 63 60
        E 0 90 57 60
        E 0 90 4a 60
        E 0 90 3e 60
        E 120 80 3e 00
        E 480 80 4a 00
        E 120 80 63 00
        E 0 80 57 00
        E 240 90 61 60
        E 0 90 55 60
        E 0 90 48 60
        E 0 90 3c 60
        E 120 80 61 00
        E 0 80 55 00
        E 0 80 48 00
        E 0 80 3c 00
        E 360 90 62 60
        E 0 90 56 60
        E 0 90 49 60
        E 120 80 62 00
        E 0 80 56 00
        E 0 80 49 00
        E 360 90 63 60
        E 0 90 57 60
        E 0 90 4a 60
        E 0 90 3e 60
        E 120 80 63 00
        E 0 80 57 00
        E 0 80 4a 00
        E 0 80 3e 00
        E 360 90 62 60
        E 0 90 56 60
        E 0 90 49 60
        E 120 80 62 00
        E 0 80 56 00
        E 0 80 49 00
        E 360 90 61 60
        E 0 90 56 60
        E 0 90 49 60
        E 0 90 3d 60
        E 120 80 61 00
        E 0 90 62 60
        E 0 80 3d 00
        E 480 80 49 00
        E 120 80 56 00
        E 0 80 62 00
        E 240 90 61 60
        E 0 90 55 60
        E 0 90 48 60
        E 0 90 3c 60
        E 120 80 3c 00
        E 480 80 48 00
        E 120 80 61 00
        E 0 80 55 00
        E 240 90 60 60
        E 0 90 74 60
        E 0 90 54 60
        E 0 90 48 60
        E 0 90 3c 60
        E 120 80 60 00
        E 0 80 54 00
        E 0 80 48 00
        E 0 80 3c 00
        E 360 90 61 60
        E 0 90 55 60
        E 0 90 48 60
        E 120 80 61 00
        E 0 80 55 00
        E 0 80 48 00
        E 360 90 62 60
        E 0 90 56 60
        E 0 90 49 60
        E 0 90 3d 60
        E 120 80 62 00
        E 0 80 56 00
        E 0 80 49 00
        E 0 80 3d 00
        E 360 90 61 60
        E 0 90 55 60
        E 0 90 48 60
        E 120 80 61 00
        E 0 80 55 00
        E 0 80 48 00
        E 360 90 62 60
        E 0 90 56 60
        E 0 90 49 60
        E 0 90 3d 60
        E 120 80 62 00
        E 0 80 56 00
        E 0 80 49 00
        E 0 80 3d 00
        E 120 90 61 60
        E 0 90 65 60
        E 0 90 55 60
        E 120 80 61 00
        E 0 80 55 00
        E 120 90 62 60
        E 0 90 56 60
        E 0 90 49 60
        E 120 80 62 00
        E 0 80 56 00
        E 0 80 49 00
        E 120 90 64 60
        E 0 90 58 60
        E 120 80 64 00
        E 0 80 58 00
        E 120 90 63 60
        E 0 90 57 60
        E 0 90 4a 60
        E 0 90 3e 60
        E 120 80 65 00
        E 0 80 63 00
        E 0 80 57 00
        E 0 80 4a 00
        E 0 80 3e 00
        E 360 90 62 60
        E 0 90 56 60
        E 0 90 49 60
        E 120 80 62 00
        E 0 80 56 00
        E 0 80 49 00
        E 360 80 74 00
        E 0 90 61 60
        E 0 90 55 60
        E 0 90 48 60
        E 0 90 3c 60
        E 120 80 61 00
        E 0 80 55 00
        E 0 80 48 00
        E 0 80 3c 00
        E 360 90 62 60
        E 0 90 56 60
        E 0 90 49 60
        E 120 80 62 00
        E 0 80 56 00
        E 0 80 49 00
        E 360 90 63 60
        E 0 90 57 60
        E 0 90 4a 60
        E 0 90 3e 60
        E 120 80 63 00
        E 0 80 57 00
        E 0 80 4a 00
        E 0 80 3e 00
        E 360 90 61 60
        E 0 90 55 60
        E 0 90 48 60
        E 120 80 61 00
        E 0 80 55 00
        E 0 80 48 00
        E 360 90 63 60
        E 0 90 57 60
        E 0 90 4a 60
        E 0 90 3e 60
        E 120 80 63 00
        E 0 80 57 00
        E 0 80 4a 00
        E 0 80 3e 00
        E 360 90 64 60
        E 0 90 58 60
        E 0 90 4b 60
        E 120 80 64 00
        E 0 80 58 00
        E 0 80 4b 00
        E 360 90 63 60
        E 0 90 57 60
        E 0 90 4a 60
        E 0 90 3e 60
        E 120 80 63 00
        E 0 80 57 00
        E 0 80 4a 00
        E 0 80 3e 00
        E 360 90 62 60
        E 0 90 56 60
        E 0 90 49 60
        E 120 80 62 00
        E 0 80 56 00
        E 0 80 49 00
        E 360 90 61 60
        E 0 90 55 60
        E 0 90 48 60
        E 0 90 3c 60
        E 120 80 61 00
        E 0 80 55 00
        E 0 80 48 00
        E 0 80 3c 00
        E 360 90 62 60
        E 0 90 56 60
        E 0 90 49 60
        E 120 80 62 00
        E 0 80 56 00
        E 0 80 49 00
        E 360 90 63 60
        E 0 90 57 60
        E 0 90 4a 60
        E 0 90 3e 60
        E 120 80 63 00
        E 0 80 57 00
        E 0 80 4a 00
        E 0 80 3e 00
        E 360 90 62 60
        E 0 90 56 60
        E 0 90 49 60
        E 120 80 62 00
        E 0 80 56 00
        E 0 80 49 00
        E 360 90 64 60
        E 0 90 58 60
        E 0 90 4b 60
        E 0 90 3f 60
        E 120 80 3f 00
        E 480 80 4b 00
        E 120 80 64 00
        E 0 80 58 00
        E 240 90 63 60
        E 0 90 57 60
        E 0 90 4a 60
        E 0 90 3e 60
        E 120 80 3e 00
        E 480 80 4a 00
        E 120 80 63 00
        E 0 80 57 00
        E 240 90 61 60
        E 0 90 55 60
        E 0 90 48 60
        E 0 90 3c 60
        E 120 80 61 00
        E 0 80 55 00
        E 0 80 48 00
        E 0 80 3c 00
        E 360 90 62 60
        E 0 90 56 60
        E 0 90 49 60
        E 120 80 62 00
        E 0 80 56 00
        E 0 80 49 00
        E 360 90 63 60
        E 0 90 57 60
        E 0 90 4a 60
        E 0 90 3e 60
        E 120 80 63 00
        E 0 80 57 00
        E 0 80 4a 00
        E 0 80 3e 00
        E 360 90 62 60
        E 0 90 56 60
        E 0 90 49 60
        E 120 80 62 00
        E 0 80 56 00
        E 0 80 49 00
        E 360 90 61 60
        E 0 90 56 60
        E 0 90 49 60
        E 0 90 3d 60
        E 120 80 61 00
        E 0 90 62 60
        E 0 80 3d 00
        E 480 80 49 00
        E 120 80 56 00
        E 0 80 62 00
        E 240 90 61 60
        E 0 90 55 60
        E 0 90 48 60
        E 0 90 3c 60
        E 120 80 3c 00
        E 480 80 48 00
        E 120 80 61 00
        E 0 80 55 00
        E 240 90 60 60
        E 0 90 54 60
        E 0 90 48 60
        E 0 90 3c 60
        E 120 80 60 00
        E 0 80 54 00
        E 0 80 48 00
        E 0 80 3c 00
        E 360 90 61 60
        E 0 90 55 60
        E 0 90 48 60
        E 120 80 61 00
        E 0 80 55 00
        E 0 80 48 00
        E 360 90 62 60
        E 0 90 56 60
        E 0 90 49 60
        E 0 90 3d 60
        E 120 80 62 00
        E 0 80 56 00
        E 0 80 49 00
        E 0 80 3d 00
        E 360 90 61 60
        E 0 90 55 60
        E 0 90 48 60
        E 120 80 61 00
        E 0 80 55 00
        E 0 80 48 00
        E 360 90 62 60
        E 0 90 56 60
        E 0 90 49 60
        E 0 90 3d 60
        E 120 80 62 00
        E 0 80 56 00
        E 0 80 49 00
        E 0 80 3d 00
        E 120 90 61 60
        E 0 90 65 60
        E 0 90 55 60
        E 120 80 61 00
        E 0 80 55 00
        E 120 90 62 60
        E 0 90 56 60
        E 0 90 49 60
        E 120 80 62 00
        E 0 80 56 00
        E 0 80 49 00
        E 120 90 64 60
        E 0 90 58 60
        E 120 80 64 00
        E 0 80 58 00
        E 120 90 63 60
        E 0 90 57 60
        E 0 90 4a 60
        E 0 90 3e 60
        E 120 80 65 00
        E 0 80 63 00
        E 0 80 57 00
        E 0 80 4a 00
        E 0 80 3e 00
        E 360 90 62 60
        E 0 90 56 60
        E 0 90 49 60
        E 120 80 62 00
        E 0 80 56 00
        E 0 80 49 00
        E 360 90 61 60
        E 0 90 55 60
        E 0 90 48 60
        E 0 90 3c 60
        E 120 80 61 00
        E 0 80 55 00
        E 0 80 48 00
        E 0 80 3c 00
        E 359 90 62 60
        E 0 90 56 60
        E 0 90 49 60
        E 120 80 62 00
        E 0 80 56 00
        E 0 80 49 00
        E 361 90 63 60
        E 0 90 57 60
        E 0 90 4a 60
        E 0 90 3e 60
        E 120 80 63 00
        E 0 80 57 00
        E 0 80 4a 00
        E 0 80 3e 00
        E 360 90 61 60
        E 0 90 55 60
        E 0 90 48 60
        E 120 80 61 00
        E 0 80 55 00
        E 0 80 48 00
        E 360 90 63 60
        E 0 90 57 60
        E 0 90 4a 60
        E 0 90 3e 60
        E 120 80 63 00
        E 0 80 57 00
        E 0 80 4a 00
        E 0 80 3e 00
        E 360 90 64 60
        E 0 90 58 60
        E 0 90 4b 60
        E 120 80 64 00
        E 0 80 58 00
        E 0 80 4b 00
        E 360 90 63 60
        E 0 90 57 60
        E 0 90 4a 60
        E 0 90 3e 60
        E 120 80 63 00
        E 0 80 57 00
        E 0 80 4a 00
        E 0 80 3e 00
        E 360 90 62 60
        E 0 90 56 60
        E 0 90 49 60
        E 120 80 62 00
        E 0 80 56 00
        E 0 80 49 00
        E 360 90 60 60
        E 0 90 54 60
        E 0 90 48 60
        E 0 90 3c 60
        E 3360 80 3c 00
        E 120 80 48 00
        E 120 80 60 00
        E 0 80 54 00
        E 240 90 60 60
        E 0 90 62 60
        E 0 90 64 60
        E 0 90 55 60
        E 0 90 58 60
        E 0 90 4a 60
        E 0 90 4c 60
        E 0 90 3e 60
        E 3360 80 3e 00
        E 120 80 4a 00
        E 0 80 4c 00
        E 120 80 60 00
        E 0 80 62 00
        E 0 80 64 00
        E 0 80 55 00
        E 0 80 58 00
        E 240 90 60 60
        E 0 90 61 60
        E 0 90 62 60
        E 0 90 54 60
        E 0 90 55 60
        E 0 90 48 60
        E 0 90 49 60
        E 0 90 3c 60
        E 3360 80 3c 00
        E 120 80 48 00
        E 0 80 49 00
        E 120 80 60 00
        E 0 80 61 00
        E 0 80 62 00
        E 0 80 54 00
        E 0 80 55 00
        E 240 90 60 60
        E 0 90 62 60
        E 0 90 63 60
        E 0 90 54 60
        E 0 90 57 60
        E 0 90 48 60
        E 0 90 4a 60
        E 0 90 3d 60
        E 3360 80 3d 00
        E 120 80 48 00
        E 0 80 4a 00
        E 120 80 60 00
        E 0 80 62 00
        E 0 80 63 00
        E 0 80 54 00
        E 0 80 57 00
        E 240 90 61 60
        E 0 90 62 60
        E 0 90 63 60
        E 0 90 55 60
        E 0 90 57 60
        E 0 90 49 60
        E 0 90 4b 60
        E 0 90 3e 60
        E 3360 80 3e 00
        E 120 80 49 00
        E 0 80 4b 00
        E 120 80 61 00
        E 0 80 62 00
        E 0 80 63 00
        E 0 80 55 00
        E 0 80 57 00
        E 240 90 60 60
        E 0 90 62 60
        E 0 90 64 60
        E 0 90 55 60
        E 0 90 58 60
        E 0 90 4a 60
        E 0 90 4c 60
        E 0 90 3e 60
        E 3360 80 3e 00
        E 120 80 4a 00
        E 0 80 4c 00
        E 120 80 60 00
        E 0 80 62 00
        E 0 80 64 00
        E 0 80 55 00
        E 0 80 58 00
        E 240 90 60 60
        E 0 90 61 60
        E 0 90 62 60
        E 0 90 74 60
        E 0 90 54 60
        E 0 90 55 60
        E 0 90 48 60
        E 0 90 49 60
        E 0 90 3c 60
        E 3360 80 3c 00
        E 120 80 48 00
        E 0 80 49 00
        E 120 80 60 00
        E 0 80 61 00
        E 0 80 62 00
        E 0 80 54 00
        E 0 80 55 00
        E 240 80 74 00
        E 0 90 60 60
        E 0 90 62 60
        E 0 90 63 60
        E 0 90 54 60
        E 0 90 57 60
        E 0 90 48 60
        E 0 90 4a 60
        E 0 90 3d 60
        E 3360 80 3d 00
        E 120 80 48 00
        E 0 80 4a 00
        E 120 80 60 00
        E 0 80 62 00
        E 0 80 63 00
        E 0 80 54 00
        E 0 80 57 00
        E 240 90 63 60
        E 0 90 57 60
        E 0 90 4a 60
        E 0 90 3e 60
        E 120 80 3e 00
        E 480 80 4a 00
        E 120 80 63 00
        E 0 80 57 00
        E 240 90 62 60
        E 0 90 56 60
        E 0 90 49 60
        E 0 90 3d 60
        E 120 80 3d 00
        E 480 80 49 00
        E 120 80 62 00
        E 0 80 56 00
        E 240 90 61 60
        E 0 90 55 60
        E 0 90 48 60
        E 0 90 3c 60
        E 120 80 61 00
        E 0 80 55 00
        E 0 80 48 00
        E 0 80 3c 00
        E 360 90 64 60
        E 0 90 58 60
        E 0 90 4b 60
        E 120 80 64 00
        E 0 80 58 00
        E 0 80 4b 00
        E 360 90 63 60
        E 0 90 57 60
        E 0 90 4a 60
        E 0 90 3e 60
        E 120 80 63 00
        E 0 80 57 00
        E 0 80 4a 00
        E 0 80 3e 00
        E 360 90 61 60
        E 0 90 55 60
        E 0 90 48 60
        E 1560 80 48 00
        E 120 80 61 00
        E 0 80 55 00
        E 240 90 60 60
        E 0 90 54 60
        E 0 90 48 60
        E 0 90 3c 60
        E 120 80 60 00
        E 0 80 54 00
        E 0 80 48 00
        E 0 80 3c 00
        E 360 90 61 60
        E 0 90 55 60
        E 0 90 48 60
        E 0 90 3c 60
        E 120 80 61 00
        E 0 80 55 00
        E 0 80 48 00
        E 0 80 3c 00
        E 360 90 60 60
        E 0 90 54 60
        E 0 90 48 60
        E 120 80 60 00
        E 0 80 54 00
        E 0 80 48 00
        E 360 90 62 60
        E 0 90 56 60
        E 0 90 49 60
        E 0 90 3d 60
        E 120 80 3d 00
        E 480 80 49 00
        E 120 80 62 00
        E 0 80 56 00
        E 240 90 64 60
        E 0 90 58 60
        E 0 90 4b 60
        E 0 90 3f 60
        E 120 80 64 00
        E 0 80 58 00
        E 0 80 4b 00
        E 0 80 3f 00
        E 120 90 63 60
        E 0 90 65 60
        E 0 90 57 60
        E 120 80 63 00
        E 0 80 57 00
        E 120 90 62 60
        E 0 90 56 60
        E 0 90 49 60
        E 120 80 62 00
        E 0 80 56 00
        E 0 80 49 00
        E 120 90 63 60
        E 0 90 57 60
        E 120 80 63 00
        E 0 80 57 00
        E 120 90 62 60
        E 0 90 56 60
        E 0 90 49 60
        E 0 90 3d 60
        E 120 80 62 00
        E 0 80 56 00
        E 0 80 49 00
        E 0 80 3d 00
        E 120 90 61 60
        E 0 90 55 60
        E 120 80 61 00
        E 0 80 55 00
        E 120 90 62 60
        E 0 90 56 60
        E 0 90 49 60
        E 0 90 3d 60
        E 120 80 62 00
        E 0 80 56 00
        E 0 80 49 00
        E 0 80 3d 00
        E 120 90 60 60
        E 0 90 54 60
        E 120 80 60 00
        E 0 80 54 00
        E 120 90 62 60
        E 0 90 56 60
        E 0 90 49 60
        E 0 90 3d 60
        E 120 80 65 00
        E 0 80 62 00
        E 0 80 56 00
        E 0 80 49 00
        E 0 80 3d 00
        E 360 90 63 60
        E 0 90 57 60
        E 0 90 4a 60
        E 120 80 63 00
        E 0 80 57 00
        E 0 80 4a 00
        E 360 90 64 60
        E 0 90 58 60
        E 0 90 4b 60
        E 0 90 3f 60
        E 120 80 64 00
        E 0 80 58 00
        E 0 80 4b 00
        E 0 80 3f 00
        E 360 90 60 60
        E 0 90 54 60
        E 0 90 48 60
        E 120 80 54 00
        E 0 80 48 00
        E 360 80 60 00
        E 240 90 61 60
        E 0 90 55 60
        E 120 80 61 00
        E 0 80 55 00
        E 0 90 65 60
        E 120 90 62 60
        E 0 90 56 60
        E 0 90 49 60
        E 120 80 62 00
        E 0 80 56 00
        E 0 80 49 00
        E 120 90 63 60
        E 0 90 57 60
        E 120 80 63 00
        E 0 80 57 00
        E 120 90 64 60
        E 0 90 58 60
        E 0 90 4b 60
        E 0 90 3f 60
        E 120 80 65 00
        E 0 80 64 00
        E 0 80 58 00
        E 0 80 4b 00
        E 0 80 3f 00
        E 360 90 61 60
        E 0 90 55 60
        E 0 90 48 60
        E 120 80 61 00
        E 0 80 55 00
        E 0 80 48 00
        E 600 90 62 60
        E 0 90 56 60
        E 0 90 49 60
        E 120 80 62 00
        E 0 80 56 00
        E 0 80 49 00
        E 120 90 62 60
        E 0 90 65 60
        E 0 90 56 60
        E 0 90 49 60
        E 120 80 62 00
        E 0 80 56 00
        E 0 80 49 00
        E 120 90 63 60
        E 0 90 57 60
        E 120 80 63 00
        E 0 80 57 00
        E 120 90 64 60
        E 0 90 58 60
        E 0 90 4b 60
        E 0 90 3f 60
        E 120 80 65 00
        E 0 80 64 00
        E 0 80 58 00
        E 0 80 4b 00
        E 0 80 3f 00
        E 360 90 62 60
        E 0 90 56 60
        E 0 90 49 60
        E 120 80 62 00
        E 0 80 56 00
        E 0 80 49 00
        E 120 90 62 60
        E 0 90 56 60
        E 120 80 62 00
        E 0 80 56 00
        E 120 90 61 60
        E 0 90 65 60
        E 0 90 74 60
        E 0 90 55 60
        E 0 90 48 60
        E 0 90 3c 60
        E 120 80 61 00
        E 0 80 65 00
        E 0 80 55 00
        E 0 80 48 00
        E 0 80 3c 00
        E 360 90 60 60
        E 0 90 54 60
        E 0 90 48 60
        E 120 80 60 00
        E 0 80 54 00
        E 0 80 48 00
        E 360 90 62 60
        E 0 90 56 60
        E 0 90 49 60
        E 0 90 3d 60
        E 120 80 62 00
        E 0 80 56 00
        E 0 80 49 00
        E 0 80 3d 00
        E 360 90 60 60
        E 0 90 54 60
        E 0 90 48 60
        E 120 80 60 00
        E 0 80 54 00
        E 0 80 48 00
        E 360 90 63 60
        E 0 90 57 60
        E 0 90 4a 60
        E 0 90 3e 60
        E 120 80 63 00
        E 0 80 57 00
        E 0 80 4a 00
        E 0 80 3e 00
        E 360 90 64 60
        E 0 90 58 60
        E 0 90 4b 60
        E 120 80 64 00
        E 0 80 58 00
        E 0 80 4b 00
        E 360 90 62 60
        E 0 90 56 60
        E 0 90 49 60
        E 0 90 3d 60
        E 120 80 62 00
        E 0 80 56 00
        E 0 80 49 00
        E 0 80 3d 00
        E 360 90 61 60
        E 0 90 55 60
        E 0 90 48 60
        E 600 80 48 00
        E 120 80 61 00
        E 0 80 55 00
        E 240 90 60 60
        E 0 90 54 60
        E 0 90 48 60
        E 0 90 3c 60
        E 120 80 60 00
        E 0 80 54 00
        E 0 80 48 00
        E 0 80 3c 00
        E 360 90 61 60
        E 0 90 55 60
        E 0 90 48 60
        E 0 90 3c 60
        E 120 80 61 00
        E 0 80 55 00
        E 0 80 48 00
        E 0 80 3c 00
        E 360 90 60 60
        E 0 90 54 60
        E 0 90 48 60
        E 120 80 60 00
        E 0 80 54 00
        E 0 80 48 00
        E 360 90 62 60
        E 0 90 56 60
        E 0 90 49 60
        E 0 90 3d 60
        E 120 80 62 00
        E 0 80 56 00
        E 0 80 49 00
        E 0 80 3d 00
        E 360 90 63 60
        E 0 90 57 60
        E 0 90 4a 60
        E 120 80 63 00
        E 0 80 57 00
        E 0 80 4a 00
        E 360 90 62 60
        E 0 90 56 60
        E 0 90 49 60
        E 0 90 3d 60
        E 120 80 62 00
        E 0 80 56 00
        E 0 80 49 00
        E 0 80 3d 00
        E 360 90 61 60
        E 0 90 55 60
        E 0 90 48 60
        E 120 80 61 00
        E 0 80 55 00
        E 0 80 48 00
        E 360 80 74 00
        E 0 90 64 60
        E 0 90 58 60
        E 0 90 4b 60
        E 0 90 3f 60
        E 120 80 3f 00
        E 480 80 4b 00
        E 120 80 64 00
        E 0 80 58 00
        E 240 90 63 60
        E 0 90 57 60
        E 0 90 4a 60
        E 0 90 3e 60
        E 120 80 3e 00
        E 480 80 4a 00
        E 120 80 63 00
        E 0 80 57 00
        E 240 90 62 60
        E 0 90 56 60
        E 0 90 49 60
        E 0 90 3d 60
        E 120 80 3d 00
        E 480 80 49 00
        E 120 80 62 00
        E 0 80 56 00
        E 240 90 61 60
        E 0 90 55 60
        E 0 90 48 60
        E 0 90 3c 60
        E 120 80 3c 00
        E 480 80 48 00
        E 120 80 61 00
        E 0 80 55 00
        E 240 90 64 60
        E 0 90 58 60
        E 0 90 4b 60
        E 0 90 3f 60
        E 120 80 3f 00
        E 479 80 4b 00
        E 120 80 58 00
        E 1 80 64 00
        E 239 90 63 60
        E 0 90 57 60
        E 0 90 4a 60
        E 0 90 3e 60
        E 120 80 3e 00
        E 481 80 4a 00
        E 120 80 63 00
        E 0 80 57 00
        E 240 90 61 60
        E 0 90 55 60
        E 0 90 48 60
        E 0 90 3c 60
        E 120 80 3c 00
        E 480 80 48 00
        E 120 80 61 00
        E 0 80 55 00
        E 240 90 62 60
        E 0 90 56 60
        E 0 90 49 60
        E 0 90 3d 60
        E 120 80 3d 00
        E 480 80 49 00
        E 120 80 62 00
        E 0 80 56 00
        E 240 90 62 60
        E 0 90 56 60
        E 0 90 49 60
        E 0 90 3d 60
        E 120 80 62 00
        E 0 80 56 00
        E 0 80 49 00
        E 0 80 3d 00
        E 600 90 62 60
        E 0 90 56 60
        E 0 90 49 60
        E 120 80 62 00
        E 0 80 56 00
        E 0 80 49 00
        E 600 90 62 60
        E 0 90 56 60
        E 0 90 49 60
        E 0 90 3d 60
        E 120 80 62 00
        E 0 80 56 00
        E 0 80 49 00
        E 0 80 3d 00
        E 600 90 62 60
        E 0 90 56 60
        E 0 90 49 60
        E 120 80 62 00
        E 0 80 56 00
        E 0 80 49 00
        E 600 90 62 60
        E 0 90 56 60
        E 0 90 49 60
        E 0 90 3d 60
        E 120 80 62 00
        E 0 80 56 00
        E 0 80 49 00
        E 0 80 3d 00
        E 120 90 61 60
        E 0 90 65 60
        E 0 90 55 60
        E 120 80 61 00
        E 0 80 55 00
        E 120 90 62 60
        E 0 90 56 60
        E 0 90 49 60
        E 120 80 62 00
        E 0 80 56 00
        E 0 80 49 00
        E 120 90 63 60
        E 0 90 57 60
        E 120 80 63 00
        E 0 80 57 00
        E 120 90 61 60
        E 0 90 55 60
        E 0 90 48 60
        E 0 90 3c 60
        E 120 80 65 00
        E 0 80 61 00
        E 0 80 55 00
        E 0 80 48 00
        E 0 80 3c 00
        E 600 90 61 60
        E 0 90 55 60
        E 0 90 48 60
        E 120 80 61 00
        E 0 80 55 00
        E 0 80 48 00
        E 600 90 61 60
        E 0 90 55 60
        E 0 90 48 60
        E 0 90 3c 60
        E 120 80 61 00
        E 0 80 55 00
        E 0 80 48 00
        E 0 80 3c 00
        E 600 90 61 60
        E 0 90 55 60
        E 0 90 48 60
        E 120 80 61 00
        E 0 80 55 00
        E 0 80 48 00
        E 600 90 61 60
        E 0 90 55 60
        E 0 90 48 60
        E 0 90 3c 60
        E 120 80 61 00
        E 0 80 55 00
        E 0 80 48 00
        E 0 80 3c 00
        E 120 90 60 60
        E 0 90 65 60
        E 0 90 54 60
        E 120 80 60 00
        E 0 80 54 00
        E 120 90 61 60
        E 0 90 55 60
        E 0 90 48 60
        E 120 80 61 00
        E 0 80 55 00
        E 0 80 48 00
        E 120 90 62 60
        E 0 90 56 60
        E 120 80 62 00
        E 0 80 56 00
        E 120 90 63 60
        E 0 90 57 60
        E 0 90 4a 60
        E 0 90 3e 60
        E 120 80 65 00
        E 0 80 63 00
        E 0 80 57 00
        E 0 80 4a 00
        E 0 80 3e 00
        E 600 90 63 60
        E 0 90 57 60
        E 0 90 4a 60
        E 120 80 63 00
        E 0 80 57 00
        E 0 80 4a 00
        E 600 90 63 60
        E 0 90 57 60
        E 0 90 4a 60
        E 0 90 3e 60
        E 120 80 63 00
        E 0 80 57 00
        E 0 80 4a 00
        E 0 80 3e 00
        E 600 90 63 60
        E 0 90 57 60
        E 0 90 4a 60
        E 120 80 63 00
        E 0 80 57 00
        E 0 80 4a 00
        E 600 90 64 60
        E 0 90 58 60
        E 0 90 4b 60
        E 0 90 3f 60
        E 120 80 64 00
        E 0 80 58 00
        E 0 80 4b 00
        E 0 80 3f 00
        E 120 90 63 60
        E 0 90 65 60
        E 0 90 57 60
        E 120 80 63 00
        E 0 80 57 00
        E 120 90 62 60
        E 0 90 56 60
        E 0 90 49 60
        E 120 80 62 00
        E 0 80 56 00
        E 0 80 49 00
        E 120 90 60 60
        E 0 90 54 60
        E 120 80 60 00
        E 0 80 54 00
        E 120 90 61 60
        E 0 90 55 60
        E 0 90 48 60
        E 0 90 3c 60
        E 120 80 65 00
        E 0 80 61 00
        E 0 80 55 00
        E 0 80 48 00
        E 0 80 3c 00
        E 600 90 61 60
        E 0 90 55 60
        E 0 90 48 60
        E 120 80 61 00
        E 0 80 55 00
        E 0 80 48 00
        E 600 90 61 60
        E 0 90 55 60
        E 0 90 48 60
        E 0 90 3c 60
        E 120 80 61 00
        E 0 80 55 00
        E 0 80 48 00
        E 0 80 3c 00
        E 600 90 61 60
        E 0 90 55 60
        E 0 90 48 60
        E 120 80 61 00
        E 0 80 55 00
        E 0 80 48 00
        E 600 90 61 60
        E 0 90 74 60
        E 0 90 55 60
        E 0 90 48 60
        E 0 90 3c 60
        E 120 80 61 00
        E 0 80 55 00
        E 0 80 48 00
        E 0 80 3c 00
        E 120 90 60 60
        E 0 90 65 60
        E 0 90 54 60
        E 120 80 60 00
        E 0 80 54 00
        E 120 90 61 60
        E 0 90 55 60
        E 0 90 48 60
        E 120 80 61 00
        E 0 80 55 00
        E 0 80 48 00
        E 120 90 62 60
        E 0 90 56 60
        E 120 80 62 00
        E 0 80 56 00
        <X 120 0
          /wFbaW50ZW5zZV0=
        >
        E 0 80 74 00
        E 0 90 64 60
        E 0 90 58 60
        E 0 90 4b 60
        E 0 90 3f 60
        E 120 80 65 00
        E 0 80 64 00
        E 0 80 58 00
        E 0 80 4b 00
        E 0 80 3f 00
        E 360 90 63 60
        E 0 90 57 60
        E 0 90 4a 60
        E 120 80 63 00
        E 0 80 57 00
        E 0 80 4a 00
        E 360 90 62 60
        E 0 90 56 60
        E 0 90 49 60
        E 0 90 3d 60
        E 120 80 62 00
        E 0 80 56 00
        E 0 80 49 00
        E 0 80 3d 00
        E 360 90 61 60
        E 0 90 55 60
        E 0 90 48 60
        E 120 80 61 00
        E 0 80 55 00
        E 0 80 48 00
        E 360 90 63 60
        E 0 90 57 60
        E 0 90 4a 60
        E 0 90 3e 60
        E 120 80 63 00
        E 0 80 57 00
        E 0 80 4a 00
        E 0 80 3e 00
        E 360 90 62 60
        E 0 90 56 60
        E 0 90 49 60
        E 120 80 62 00
        E 0 80 56 00
        E 0 80 49 00
        E 360 90 61 60
        E 0 90 55 60
        E 0 90 48 60
        E 0 90 3c 60
        E 120 80 61 00
        E 0 80 55 00
        E 0 80 48 00
        E 0 80 3c 00
        E 360 90 62 60
        E 0 90 56 60
        E 0 90 49 60
        E 120 80 62 00
        E 0 80 56 00
        E 0 80 49 00
        E 840 90 61 60
        E 0 90 55 60
        E 0 90 48 60
        E 0 90 3c 60
        E 2880 80 3c 00
        E 120 80 48 00
        E 120 80 61 00
        E 0 80 55 00
        E 240 90 61 60
        E 0 90 55 60
        E 0 90 48 60
        E 0 90 3c 60
        E 120 80 61 00
        E 0 80 55 00
        E 0 80 48 00
        E 0 80 3c 00
        E 360 90 60 60
        E 0 90 54 60
        E 0 90 48 60
        E 0 90 3c 60
        E 120 80 60 00
        E 0 80 54 00
        E 0 80 48 00
        E 0 80 3c 00
        E 360 90 61 60
        E 0 90 55 60
        E 0 90 48 60
        E 0 90 3c 60
        E 120 80 61 00
        E 0 80 55 00
        E 0 80 48 00
        E 0 80 3c 00
        E 360 90 60 60
        E 0 90 54 60
        E 0 90 48 60
        E 120 80 60 00
        E 0 80 54 00
        E 0 80 48 00
        E 360 90 62 60
        E 0 90 56 60
        E 0 90 49 60
        E 0 90 3d 60
        E 120 80 62 00
        E 0 80 56 00
        E 0 80 49 00
        E 0 80 3d 00
        E 360 90 61 60
        E 0 90 55 60
        E 0 90 48 60
        E 120 80 61 00
        E 0 80 55 00
        E 0 80 48 00
        E 360 90 62 60
        E 0 90 56 60
        E 0 90 49 60
        E 0 90 3d 60
        E 120 80 62 00
        E 0 80 56 00
        E 0 80 49 00
        E 0 80 3d 00
        E 360 90 63 60
        E 0 90 57 60
        E 0 90 4a 60
        E 120 80 63 00
        E 0 80 57 00
        E 0 80 4a 00
        E 840 90 62 60
        E 0 90 56 60
        E 0 90 49 60
        E 0 90 3d 60
        E 960 80 3d 00
        E 120 80 49 00
        E 120 80 62 00
        E 0 80 56 00
        E 240 90 61 60
        E 0 90 55 60
        E 0 90 48 60
        E 0 90 3c 60
        E 1440 80 3c 00
        E 120 80 48 00
        E 120 80 61 00
        E 0 80 55 00
        E 240 90 62 60
        E 0 90 74 60
        E 0 90 56 60
        E 0 90 49 60
        E 0 90 3d 60
        E 120 80 62 00
        E 0 80 56 00
        E 0 80 49 00
        E 0 80 3d 00
        E 360 90 61 60
        E 0 90 55 60
        E 0 90 48 60
        E 120 80 61 00
        E 0 80 55 00
        E 0 80 48 00
        E 360 90 62 60
        E 0 90 56 60
        E 0 90 49 60
        E 0 90 3d 60
        E 120 80 62 00
        E 0 80 56 00
        E 0 80 49 00
        E 0 80 3d 00
        E 360 90 63 60
        E 0 90 57 60
        E 0 90 4a 60
        E 120 80 63 00
        E 0 80 57 00
        E 0 80 4a 00
        E 360 90 64 60
        E 0 90 58 60
        E 0 90 4b 60
        E 0 90 3f 60
        E 120 80 64 00
        E 0 80 58 00
        E 0 80 4b 00
        E 0 80 3f 00
        E 360 90 62 60
        E 0 90 56 60
        E 0 90 49 60
        E 120 80 62 00
        E 0 80 56 00
        E 0 80 49 00
        E 360 90 64 60
        E 0 90 58 60
        E 0 90 4b 60
        E 0 90 3f 60
        E 120 80 64 00
        E 0 80 58 00
        E 0 80 4b 00
        E 0 80 3f 00
        E 120 90 63 60
        E 0 90 65 60
        E 0 90 57 60
        E 120 80 63 00
        E 0 80 57 00
        E 120 90 62 60
        E 0 90 56 60
        E 0 90 49 60
        E 120 80 62 00
        E 0 80 56 00
        E 0 80 49 00
        E 360 90 62 60
        E 0 90 56 60
        E 0 90 49 60
        E 0 90 3d 60
        E 120 80 62 00
        E 0 80 56 00
        E 0 80 49 00
        E 0 80 3d 00
        E 120 90 61 60
        E 0 90 55 60
        E 120 80 61 00
        E 0 80 55 00
        E 120 90 60 60
        E 0 90 54 60
        E 0 90 48 60
        E 120 80 60 00
        E 0 80 54 00
        E 0 80 48 00
        E 120 90 62 60
        E 0 90 56 60
        E 120 80 62 00
        E 0 80 56 00
        E 120 90 63 60
        E 0 90 57 60
        E 0 90 4a 60
        E 0 90 3e 60
        E 120 80 63 00
        E 0 80 57 00
        E 0 80 4a 00
        E 0 80 3e 00
        E 120 90 60 60
        E 0 90 54 60
        E 120 80 60 00
        E 0 80 54 00
        E 120 90 61 60
        E 0 90 55 60
        E 0 90 48 60
        E 120 80 61 00
        E 0 80 55 00
        E 0 80 48 00
        E 120 90 60 60
        E 0 90 54 60
        E 120 80 60 00
        E 0 80 54 00
        E 120 90 64 60
        E 0 90 58 60
        E 0 90 4b 60
        E 0 90 3f 60
        E 120 80 64 00
        E 0 80 58 00
        E 0 80 4b 00
        E 0 80 3f 00
        E 120 90 62 60
        E 0 90 56 60
        E 120 80 62 00
        E 0 80 56 00
        E 120 90 63 60
        E 0 90 57 60
        E 0 90 4a 60
        E 120 80 63 00
        E 0 80 57 00
        E 0 80 4a 00
        E 120 90 64 60
        E 0 90 58 60
        E 120 80 64 00
        E 0 80 58 00
        E 120 90 63 60
        E 0 90 57 60
        E 0 90 4a 60
        E 0 90 3e 60
        E 120 80 63 00
        E 0 80 57 00
        E 0 80 4a 00
        E 0 80 3e 00
        E 120 90 62 60
        E 0 90 56 60
        E 120 80 62 00
        E 0 80 56 00
        E 120 90 61 60
        E 0 90 55 60
        E 0 90 48 60
        E 120 80 61 00
        E 0 80 55 00
        E 0 80 48 00
        E 120 90 62 60
        E 0 90 56 60
        E 120 80 62 00
        E 0 80 56 00
        E 120 80 74 00
        E 0 90 61 60
        E 0 90 55 60
        E 0 90 48 60
        E 0 90 3c 60
        E 120 80 65 00
        E 0 80 61 00
        E 0 80 55 00
        E 0 80 48 00
        E 0 80 3c 00
        E 360 90 60 60
        E 0 90 54 60
        E 0 90 48 60
        E 0 90 3c 60
        E 120 80 60 00
        E 0 80 54 00
        E 0 80 48 00
        E 0 80 3c 00
        E 360 90 61 60
        E 0 90 55 60
        E 0 90 48 60
        E 0 90 3c 60
        E 120 80 61 00
        E 0 80 55 00
        E 0 80 48 00
        E 0 80 3c 00
        E 360 90 62 60
        E 0 90 56 60
        E 0 90 49 60
        E 120 80 62 00
        E 0 80 56 00
        E 0 80 49 00
        E 360 90 63 60
        E 0 90 57 60
        E 0 90 4a 60
        E 0 90 3e 60
        E 120 80 63 00
        E 0 80 57 00
        E 0 80 4a 00
        E 0 80 3e 00
        E 360 90 62 60
        E 0 90 56 60
        E 0 90 49 60
        E 120 80 62 00
        E 0 80 56 00
        E 0 80 49 00
        E 360 90 63 60
        E 0 90 57 60
        E 0 90 4a 60
        E 0 90 3e 60
        E 120 80 3e 00
        E 480 80 4a 00
        E 120 80 63 00
        E 0 80 57 00
        E 240 90 64 60
        E 0 90 58 60
        E 0 90 4b 60
        E 0 90 3f 60
        E 120 80 64 00
        E 0 80 58 00
        E 0 80 4b 00
        E 0 80 3f 00
        E 120 90 63 60
        E 0 90 65 60
        E 0 90 57 60
        E 120 80 63 00
        E 0 80 57 00
        E 120 90 62 60
        E 0 90 56 60
        E 0 90 49 60
        E 120 80 62 00
        E 0 80 56 00
        E 0 80 49 00
        E 120 90 61 60
        E 0 90 55 60
        E 120 80 61 00
        E 0 80 55 00
        E 120 90 62 60
        E 0 90 56 60
        E 0 90 49 60
        E 0 90 3d 60
        E 120 80 62 00
        E 0 80 56 00
        E 0 80 49 00
        E 0 80 3d 00
        E 120 90 61 60
        E 0 90 55 60
        E 120 80 61 00
        E 0 80 55 00
        E 120 90 60 60
        E 0 90 54 60
        E 0 90 48 60
        E 120 80 60 00
        E 0 80 54 00
        E 0 80 48 00
        E 120 90 61 60
        E 0 90 55 60
        E 120 80 61 00
        E 0 80 55 00
        E 120 90 62 60
        E 0 90 56 60
        E 0 90 49 60
        E 0 90 3d 60
        E 120 80 62 00
        E 0 80 56 00
        E 0 80 49 00
        E 0 80 3d 00
        E 120 90 60 60
        E 0 90 54 60
        E 120 80 60 00
        E 0 80 54 00
        E 120 90 62 60
        E 0 90 56 60
        E 0 90 49 60
        E 120 80 62 00
        E 0 80 56 00
        E 0 80 49 00
        E 120 90 60 60
        E 0 90 54 60
        E 120 80 60 00
        E 0 80 54 00
        E 120 90 61 60
        E 0 90 55 60
        E 0 90 48 60
        E 0 90 3c 60
        E 120 80 65 00
        E 0 80 61 00
        E 0 80 55 00
        E 0 80 48 00
        E 0 80 3c 00
        E 360 90 63 60
        E 0 90 57 60
        E 0 90 4a 60
        E 120 80 63 00
        E 0 80 57 00
        E 0 80 4a 00
        E 360 90 62 60
        E 0 90 56 60
        E 0 90 49 60
        E 0 90 3d 60
        E 120 80 3d 00
        E 480 80 49 00
        E 120 80 62 00
        E 0 80 56 00
        E 240 90 61 60
        E 0 90 55 60
        E 0 90 48 60
        E 0 90 3c 60
        E 120 80 3c 00
        E 480 80 48 00
        E 120 80 61 00
        E 0 80 55 00
        E 240 90 60 60
        E 0 90 54 60
        E 0 90 48 60
        E 0 90 3c 60
        E 120 80 3c 00
        E 480 80 48 00
        E 120 80 60 00
        E 0 80 54 00
        E 240 90 62 60
        E 0 90 56 60
        E 0 90 49 60
        E 0 90 3d 60
        E 120 80 3d 00
        E 480 80 49 00
        E 120 80 62 00
        E 0 80 56 00
        E 240 90 63 60
        E 0 90 57 60
        E 0 90 4a 60
        E 0 90 3e 60
        E 3360 80 3e 00
        E 120 80 4a 00
        E 120 80 63 00
        E 0 80 57 00
        E 240 90 62 60
        E 0 90 56 60
        E 0 90 49 60
        E 0 90 3d 60
        E 120 80 62 00
        E 0 80 56 00
        E 0 80 49 00
        E 0 80 3d 00
        E 360 90 61 60
        E 0 90 55 60
        E 0 90 48 60
        E 120 80 61 00
        E 0 80 55 00
        E 0 80 48 00
        E 360 90 62 60
        E 0 90 56 60
        E 0 90 49 60
        E 0 90 3d 60
        E 120 80 62 00
        E 0 80 56 00
        E 0 80 49 00
        E 0 80 3d 00
        E 360 90 61 60
        E 0 90 55 60
        E 0 90 48 60
        E 120 80 61 00
        E 0 80 55 00
        E 0 80 48 00
        E 360 90 63 60
        E 0 90 57 60
        E 0 90 4a 60
        E 0 90 3e 60
        E 120 80 63 00
        E 0 80 57 00
        E 0 80 4a 00
        E 0 80 3e 00
        E 360 90 62 60
        E 0 90 56 60
        E 0 90 49 60
        E 120 80 62 00
        E 0 80 56 00
        E 0 80 49 00
        E 360 90 63 60
        E 0 90 57 60
        E 0 90 4a 60
        E 0 90 3e 60
        E 120 80 63 00
        E 0 80 57 00
        E 0 80 4a 00
        E 0 80 3e 00
        E 360 90 64 60
        E 0 90 58 60
        E 0 90 4b 60
        E 120 80 64 00
        E 0 80 58 00
        E 0 80 4b 00
        E 840 90 63 60
        E 0 90 57 60
        E 0 90 4a 60
        E 0 90 3e 60
        E 960 80 3e 00
        E 120 80 4a 00
        E 120 80 63 00
        E 0 80 57 00
        E 240 90 62 60
        E 0 90 56 60
        E 0 90 49 60
        E 0 90 3d 60
        E 1440 80 3d 00
        E 120 80 49 00
        E 120 80 62 00
        E 0 80 56 00
        E 240 90 62 60
        E 0 90 56 60
        E 0 90 49 60
        E 0 90 3d 60
        E 120 80 62 00
        E 0 80 56 00
        E 0 80 49 00
        E 0 80 3d 00
        E 360 90 61 60
        E 0 90 55 60
        E 0 90 48 60
        E 120 80 61 00
        E 0 80 55 00
        E 0 80 48 00
        E 360 90 62 60
        E 0 90 56 60
        E 0 90 49 60
        E 0 90 3d 60
        E 120 80 62 00
        E 0 80 56 00
        E 0 80 49 00
        E 0 80 3d 00
        E 360 90 63 60
        E 0 90 57 60
        E 0 90 4a 60
        E 120 80 63 00
        E 0 80 57 00
        E 0 80 4a 00
        E 360 90 64 60
        E 0 90 58 60
        E 0 90 4b 60
        E 0 90 3f 60
        E 120 80 64 00
        E 0 80 58 00
        E 0 80 4b 00
        E 0 80 3f 00
        E 360 90 62 60
        E 0 90 56 60
        E 0 90 49 60
        E 120 80 62 00
        E 0 80 56 00
        E 0 80 49 00
        E 360 90 64 60
        E 0 90 58 60
        E 0 90 4b 60
        E 0 90 3f 60
        E 120 80 64 00
        E 0 80 58 00
        E 0 80 4b 00
        E 0 80 3f 00
        E 120 90 63 60
        E 0 90 65 60
        E 0 90 57 60
        E 120 80 63 00
        E 0 80 57 00
        E 120 90 62 60
        E 0 90 56 60
        E 0 90 49 60
        E 120 80 62 00
        E 0 80 56 00
        E 0 80 49 00
        E 360 90 62 60
        E 0 90 56 60
        E 0 90 49 60
        E 0 90 3d 60
        E 120 80 62 00
        E 0 80 56 00
        E 0 80 49 00
        E 0 80 3d 00
        E 120 90 61 60
        E 0 90 55 60
        E 120 80 61 00
        E 0 80 55 00
        E 120 90 60 60
        E 0 90 54 60
        E 0 90 48 60
        E 120 80 60 00
        E 0 80 54 00
        E 0 80 48 00
        E 120 90 62 60
        E 0 90 56 60
        E 120 80 62 00
        E 0 80 56 00
        E 120 90 63 60
        E 0 90 57 60
        E 0 90 4a 60
        E 0 90 3e 60
        E 120 80 63 00
        E 0 80 57 00
        E 0 80 4a 00
        E 0 80 3e 00
        E 120 90 60 60
        E 0 90 54 60
        E 120 80 60 00
        E 0 80 54 00
        E 120 90 61 60
        E 0 90 55 60
        E 0 90 48 60
        E 120 80 61 00
        E 0 80 55 00
        E 0 80 48 00
        E 120 90 60 60
        E 0 90 54 60
        E 120 80 60 00
        E 0 80 54 00
        E 120 90 64 60
        E 0 90 58 60
        E 0 90 4b 60
        E 0 90 3f 60
        E 120 80 64 00
        E 0 80 58 00
        E 0 80 4b 00
        E 0 80 3f 00
        E 120 90 62 60
        E 0 90 56 60
        E 120 80 62 00
        E 0 80 56 00
        E 120 90 63 60
        E 0 90 57 60
        E 0 90 4a 60
        E 120 80 63 00
        E 0 80 57 00
        E 0 80 4a 00
        E 120 90 64 60
        E 0 90 58 60
        E 120 80 64 00
        E 0 80 58 00
        E 120 90 63 60
        E 0 90 57 60
        E 0 90 4a 60
        E 0 90 3e 60
        E 120 80 63 00
        E 0 80 57 00
        E 0 80 4a 00
        E 0 80 3e 00
        E 120 90 62 60
        E 0 90 56 60
        E 120 80 62 00
        E 0 80 56 00
        E 120 90 61 60
        E 0 90 55 60
        E 0 90 48 60
        E 120 80 61 00
        E 0 80 55 00
        E 0 80 48 00
        E 120 90 62 60
        E 0 90 56 60
        E 120 80 62 00
        E 0 80 56 00
        E 120 90 61 60
        E 0 90 74 60
        E 0 90 55 60
        E 0 90 48 60
        E 0 90 3c 60
        E 120 80 65 00
        E 0 80 61 00
        E 0 80 55 00
        E 0 80 48 00
        E 0 80 3c 00
        E 360 90 60 60
        E 0 90 54 60
        E 0 90 48 60
        E 0 90 3c 60
        E 120 80 60 00
        E 0 80 54 00
        E 0 80 48 00
        E 0 80 3c 00
        E 360 90 61 60
        E 0 90 55 60
        E 0 90 48 60
        E 0 90 3c 60
        E 120 80 61 00
        E 0 80 55 00
        E 0 80 48 00
        E 0 80 3c 00
        E 360 90 62 60
        E 0 90 56 60
        E 0 90 49 60
        E 120 80 62 00
        E 0 80 56 00
        E 0 80 49 00
        E 360 90 63 60
        E 0 90 57 60
        E 0 90 4a 60
        E 0 90 3e 60
        E 120 80 63 00
        E 0 80 57 00
        E 0 80 4a 00
        E 0 80 3e 00
        E 360 90 62 60
        E 0 90 56 60
        E 0 90 49 60
        E 120 80 62 00
        E 0 80 56 00
        E 0 80 49 00
        E 360 90 63 60
        E 0 90 57 60
        E 0 90 4a 60
        E 0 90 3e 60
        E 120 80 3e 00
        E 480 80 4a 00
        E 120 80 63 00
        E 0 80 57 00
        E 240 90 62 60
        E 0 90 56 60
        E 0 90 49 60
        E 0 90 3d 60
        E 1440 80 3d 00
        E 120 80 49 00
        E 120 80 62 00
        E 0 80 56 00
        E 240 80 74 00
        E 0 90 64 60
        E 0 90 58 60
        E 0 90 4b 60
        E 0 90 3f 60
        E 1440 80 3f 00
        E 120 80 4b 00
        E 120 80 64 00
        E 0 80 58 00
        E 240 90 63 60
        E 0 90 57 60
        E 0 90 4a 60
        E 0 90 3e 60
        <X 3840 0
          /wFbaWRsZV0=
        >
        E 0 80 63 00
        E 0 80 57 00
        E 0 80 4a 00
        E 0 80 3e 00
        <X 3840 0
          /wFbcGxheV0=
        >
        E 0 90 64 60
        E 0 90 58 60
        E 0 90 4b 60
        E 0 90 3f 60
        E 1440 80 3f 00
        E 120 80 4b 00
        E 120 80 64 00
        E 0 80 58 00
        E 240 90 62 60
        E 0 90 56 60
        E 0 90 49 60
        E 0 90 3d 60
        E 1440 80 3d 00
        E 120 80 49 00
        E 120 80 62 00
        E 0 80 56 00
        E 240 90 63 60
        E 0 90 57 60
        E 0 90 4a 60
        E 0 90 3e 60
        E 1440 80 3e 00
        E 120 80 4a 00
        E 120 80 63 00
        E 0 80 57 00
        E 240 90 61 60
        E 0 90 55 60
        E 0 90 48 60
        E 0 90 3c 60
        E 1440 80 3c 00
        E 120 80 48 00
        E 120 80 55 00
        E 120 80 61 00
        E 120 90 63 60
        E 0 90 57 60
        E 0 90 4a 60
        E 0 90 3e 60
        E 1440 80 3e 00
        E 120 80 4a 00
        E 120 80 63 00
        E 0 80 57 00
        E 240 90 60 60
        E 0 90 54 60
        E 0 90 48 60
        E 0 90 3c 60
        E 2400 80 3c 00
        E 120 80 48 00
        E 120 80 60 00
        E 0 80 54 00
        E 240 90 61 60
        E 0 90 55 60
        E 0 90 48 60
        E 0 90 3c 60
        E 120 80 3c 00
        E 480 80 48 00
        E 120 80 61 00
        E 0 80 55 00
        E 240 90 62 60
        E 0 90 56 60
        E 0 90 49 60
        E 0 90 3d 60
        E 120 80 3d 00
        E 480 80 49 00
        E 120 80 62 00
        E 0 80 56 00
        E 240 90 63 60
        E 0 90 57 60
        E 0 90 4a 60
        E 0 90 3e 60
        E 120 80 3e 00
        E 480 80 4a 00
        E 120 80 63 00
        E 0 80 57 00
        E 240 90 64 60
        E 0 90 58 60
        E 0 90 4b 60
        E 0 90 3f 60
        E 1440 80 3f 00
        E 120 80 4b 00
        E 119 80 64 00
        E 0 80 58 00
        E 241 90 62 60
        E 0 90 56 60
        E 0 90 49 60
        E 0 90 3d 60
        E 1440 80 3d 00
        E 120 80 49 00
        E 120 80 62 00
        E 0 80 56 00
        E 240 90 63 60
        E 0 90 57 60
        E 0 90 4a 60
        E 0 90 3e 60
        E 1440 80 3e 00
        E 120 80 4a 00
        E 120 80 63 00
        E 0 80 57 00
        E 240 90 61 60
        E 0 90 55 60
        E 0 90 48 60
        E 0 90 3c 60
        E 1440 80 3c 00
        E 120 80 48 00
        E 120 80 55 00
        E 120 80 61 00
        E 120 90 63 60
        E 0 90 57 60
        E 0 90 4a 60
        E 0 90 3e 60
        E 1440 80 3e 00
        E 120 80 4a 00
        E 120 80 63 00
        E 0 80 57 00
        E 240 90 60 60
        E 0 90 54 60
        E 0 90 48 60
        E 0 90 3c 60
        E 1920 90 74 60
        E 480 80 3c 00
        E 120 80 48 00
        E 120 80 60 00
        E 0 80 54 00
        E 240 90 61 60
        E 0 90 55 60
        E 0 90 48 60
        E 0 90 3c 60
        E 120 80 3c 00
        E 480 80 48 00
        E 120 80 61 00
        E 0 80 55 00
        E 240 90 62 60
        E 0 90 56 60
        E 0 90 49 60
        E 0 90 3d 60
        E 120 80 3d 00
        E 480 80 49 00
        E 120 80 62 00
        E 0 80 56 00
        E 240 90 63 60
        E 0 90 57 60
        E 0 90 4a 60
        E 0 90 3e 60
        E 120 80 3e 00
        E 480 80 4a 00
        E 120 80 63 00
        E 0 80 57 00
        E 240 80 74 00
        E 0 90 64 60
        E 0 90 58 60
        E 0 90 4b 60
        E 0 90 3f 60
        E 1440 80 3f 00
        E 120 80 4b 00
        E 119 80 64 00
        E 0 80 58 00
        E 241 90 62 60
        E 0 90 56 60
        E 0 90 49 60
        E 0 90 3d 60
        E 1440 80 3d 00
        E 120 80 49 00
        E 120 80 62 00
        E 0 80 56 00
        E 240 90 63 60
        E 0 90 57 60
        E 0 90 4a 60
        E 0 90 3e 60
        E 1440 80 3e 00
        E 120 80 4a 00
        E 120 80 63 00
        E 0 80 57 00
        E 240 90 61 60
        E 0 90 55 60
        E 0 90 48 60
        E 0 90 3c 60
        E 1440 80 3c 00
        E 120 80 48 00
        E 120 80 55 00
        E 120 80 61 00
        E 120 90 63 60
        E 0 90 57 60
        E 0 90 4a 60
        E 0 90 3e 60
        E 1440 80 3e 00
        E 120 80 4a 00
        E 120 80 63 00
        E 0 80 57 00
        E 240 90 60 60
        E 0 90 54 60
        E 0 90 48 60
        E 0 90 3c 60
        E 2400 80 3c 00
        E 120 80 48 00
        E 120 80 60 00
        E 0 80 54 00
        E 240 90 61 60
        E 0 90 55 60
        E 0 90 48 60
        E 0 90 3c 60
        E 120 80 3c 00
        E 480 80 48 00
        E 120 80 61 00
        E 0 80 55 00
        E 240 90 62 60
        E 0 90 56 60
        E 0 90 49 60
        E 0 90 3d 60
        E 120 80 3d 00
        E 480 80 49 00
        E 120 80 62 00
        E 0 80 56 00
        E 240 90 63 60
        E 0 90 57 60
        E 0 90 4a 60
        E 0 90 3e 60
        E 120 80 3e 00
        E 480 80 4a 00
        E 120 80 63 00
        E 0 80 57 00
        E 240 90 64 60
        E 0 90 58 60
        E 0 90 4b 60
        E 0 90 3f 60
        E 1440 80 3f 00
        E 120 80 4b 00
        E 119 80 64 00
        E 0 80 58 00
        E 241 90 62 60
        E 0 90 56 60
        E 0 90 49 60
        E 0 90 3d 60
        E 1440 80 3d 00
        E 120 80 49 00
        E 120 80 62 00
        E 0 80 56 00
        E 240 90 63 60
        E 0 90 57 60
        E 0 90 4a 60
        E 0 90 3e 60
        E 1440 80 3e 00
        E 120 80 4a 00
        E 120 80 63 00
        E 0 80 57 00
        E 240 90 61 60
        E 0 90 55 60
        E 0 90 48 60
        E 0 90 3c 60
        E 1440 80 3c 00
        E 120 80 48 00
        E 120 80 55 00
        E 120 80 61 00
        E 120 90 63 60
        E 0 90 57 60
        E 0 90 4a 60
        E 0 90 3e 60
        E 1440 80 3e 00
        E 120 80 4a 00
        E 120 80 63 00
        E 0 80 57 00
        E 240 90 60 60
        E 0 90 54 60
        E 0 90 48 60
        E 0 90 3c 60
        E 1920 90 74 60
        E 480 80 3c 00
        E 120 80 48 00
        E 120 80 60 00
        E 0 80 54 00
        E 240 90 61 60
        E 0 90 55 60
        E 0 90 48 60
        E 0 90 3c 60
        E 120 80 3c 00
        E 480 80 48 00
        E 120 80 61 00
        E 0 80 55 00
        E 240 90 62 60
        E 0 90 56 60
        E 0 90 49 60
        E 0 90 3d 60
        E 120 80 3d 00
        E 480 80 49 00
        E 120 80 62 00
        E 0 80 56 00
        E 240 90 63 60
        E 0 90 57 60
        E 0 90 4a 60
        E 0 90 3e 60
        E 120 80 3e 00
        E 480 80 4a 00
        E 120 80 63 00
        E 0 80 57 00
        E 240 90 62 60
        E 0 90 56 60
        E 0 90 49 60
        E 0 90 3d 60
        E 120 80 74 00
        E 0 80 62 00
        E 0 80 56 00
        E 0 80 49 00
        E 0 80 3d 00
        E 600 90 62 60
        E 0 90 56 60
        E 0 90 49 60
        E 120 80 62 00
        E 0 80 56 00
        E 0 80 49 00
        E 600 90 62 60
        E 0 90 56 60
        E 0 90 49 60
        E 0 90 3d 60
        E 120 80 62 00
        E 0 80 56 00
        E 0 80 49 00
        E 0 80 3d 00
        E 600 90 62 60
        E 0 90 56 60
        E 0 90 49 60
        E 120 80 62 00
        E 0 80 56 00
        E 0 80 49 00
        E 600 90 62 60
        E 0 90 56 60
        E 0 90 49 60
        E 0 90 3d 60
        E 120 80 62 00
        E 0 80 56 00
        E 0 80 49 00
        E 0 80 3d 00
        E 120 90 61 60
        E 0 90 65 60
        E 0 90 55 60
        E 120 80 61 00
        E 0 80 55 00
        E 120 90 62 60
        E 0 90 56 60
        E 0 90 49 60
        E 120 80 62 00
        E 0 80 56 00
        E 0 80 49 00
        E 120 90 63 60
        E 0 90 57 60
        E 120 80 63 00
        E 0 80 57 00
        E 120 90 61 60
        E 0 90 55 60
        E 0 90 48 60
        E 0 90 3c 60
        E 120 80 65 00
        E 0 80 61 00
        E 0 80 55 00
        E 0 80 48 00
        E 0 80 3c 00
        E 600 90 61 60
        E 0 90 55 60
        E 0 90 48 60
        E 120 80 61 00
        E 0 80 55 00
        E 0 80 48 00
        E 600 90 61 60
        E 0 90 55 60
        E 0 90 48 60
        E 0 90 3c 60
        E 120 80 61 00
        E 0 80 55 00
        E 0 80 48 00
        E 0 80 3c 00
        E 600 90 61 60
        E 0 90 55 60
        E 0 90 48 60
        E 120 80 61 00
        E 0 80 55 00
        E 0 80 48 00
        E 600 90 61 60
        E 0 90 55 60
        E 0 90 48 60
        E 0 90 3c 60
        E 120 80 61 00
        E 0 80 55 00
        E 0 80 48 00
        E 0 80 3c 00
        E 120 90 60 60
        E 0 90 65 60
        E 0 90 54 60
        E 120 80 60 00
        E 0 80 54 00
        E 120 90 61 60
        E 0 90 55 60
        E 0 90 48 60
        E 120 80 61 00
        E 0 80 55 00
        E 0 80 48 00
        E 120 90 62 60
        E 0 90 56 60
        E 120 80 62 00
        E 0 80 56 00
        E 120 90 63 60
        E 0 90 57 60
        E 0 90 4a 60
        E 0 90 3e 60
        E 120 80 65 00
        E 0 80 63 00
        E 0 80 57 00
        E 0 80 4a 00
        E 0 80 3e 00
        E 600 90 63 60
        E 0 90 57 60
        E 0 90 4a 60
        E 120 80 63 00
        E 0 80 57 00
        E 0 80 4a 00
        E 600 90 63 60
        E 0 90 57 60
        E 0 90 4a 60
        E 0 90 3e 60
        E 120 80 63 00
        E 0 80 57 00
        E 0 80 4a 00
        E 0 80 3e 00
        E 600 90 63 60
        E 0 90 57 60
        E 0 90 4a 60
        E 120 80 63 00
        E 0 80 57 00
        E 0 80 4a 00
        E 600 90 64 60
        E 0 90 58 60
        E 0 90 4b 60
        E 0 90 3f 60
        E 120 80 64 00
        E 0 80 58 00
        E 0 80 4b 00
        E 0 80 3f 00
        E 120 90 63 60
        E 0 90 65 60
        E 0 90 57 60
        E 120 80 63 00
        E 0 80 57 00
        E 120 90 62 60
        E 0 90 56 60
        E 0 90 49 60
        E 120 80 62 00
        E 0 80 56 00
        E 0 80 49 00
        E 120 90 60 60
        E 0 90 54 60
        E 120 80 60 00
        E 0 80 54 00
        E 120 90 61 60
        E 0 90 55 60
        E 0 90 48 60
        E 0 90 3c 60
        E 120 80 65 00
        E 0 80 61 00
        E 0 80 55 00
        E 0 80 48 00
        E 0 80 3c 00
        E 600 90 61 60
        E 0 90 55 60
        E 0 90 48 60
        E 120 80 61 00
        E 0 80 55 00
        E 0 80 48 00
        E 600 90 61 60
        E 0 90 55 60
        E 0 90 48 60
        E 0 90 3c 60
        E 120 80 61 00
        E 0 80 55 00
        E 0 80 48 00
        E 0 80 3c 00
        E 600 90 61 60
        E 0 90 55 60
        E 0 90 48 60
        E 120 80 61 00
        E 0 80 55 00
        E 0 80 48 00
        E 600 90 61 60
        E 0 90 55 60
        E 0 90 48 60
        E 0 90 3c 60
        E 120 80 61 00
        E 0 80 55 00
        E 0 80 48 00
        E 0 80 3c 00
        E 120 90 60 60
        E 0 90 65 60
        E 0 90 54 60
        E 120 80 60 00
        E 0 80 54 00
        E 120 90 61 60
        E 0 90 55 60
        E 0 90 48 60
        E 120 80 61 00
        E 0 80 55 00
        E 0 80 48 00
        E 120 90 62 60
        E 0 90 56 60
        E 120 80 62 00
        E 0 80 56 00
        E 120 90 62 60
        E 0 90 56 60
        E 0 90 49 60
        E 0 90 3d 60
        E 120 80 65 00
        E 0 80 62 00
        E 0 80 56 00
        E 0 80 49 00
        E 0 80 3d 00
        E 600 90 62 60
        E 0 90 56 60
        E 0 90 49 60
        E 120 80 62 00
        E 0 80 56 00
        E 0 80 49 00
        E 600 90 62 60
        E 0 90 56 60
        E 0 90 49 60
        E 0 90 3d 60
        E 120 80 62 00
        E 0 80 56 00
        E 0 80 49 00
        E 0 80 3d 00
        E 600 90 62 60
        E 0 90 56 60
        E 0 90 49 60
        E 120 80 62 00
        E 0 80 56 00
        E 0 80 49 00
        E 600 90 62 60
        E 0 90 56 60
        E 0 90 49 60
        E 0 90 3d 60
        E 120 80 62 00
        E 0 80 56 00
        E 0 80 49 00
        E 0 80 3d 00
        E 120 90 61 60
        E 0 90 65 60
        E 0 90 55 60
        E 120 80 61 00
        E 0 80 55 00
        E 120 90 62 60
        E 0 90 56 60
        E 0 90 49 60
        E 120 80 62 00
        E 0 80 56 00
        E 0 80 49 00
        E 120 90 63 60
        E 0 90 57 60
        E 120 80 63 00
        E 0 80 57 00
        E 120 90 61 60
        E 0 90 55 60
        E 0 90 48 60
        E 0 90 3c 60
        E 120 80 65 00
        E 0 80 61 00
        E 0 80 55 00
        E 0 80 48 00
        E 0 80 3c 00
        E 600 90 61 60
        E 0 90 55 60
        E 0 90 48 60
        E 120 80 61 00
        E 0 80 55 00
        E 0 80 48 00
        E 600 90 61 60
        E 0 90 55 60
        E 0 90 48 60
        E 0 90 3c 60
        E 120 80 61 00
        E 0 80 55 00
        E 0 80 48 00
        E 0 80 3c 00
        E 600 90 61 60
        E 0 90 55 60
        E 0 90 48 60
        E 120 80 61 00
        E 0 80 55 00
        E 0 80 48 00
        E 600 90 61 60
        E 0 90 55 60
        E 0 90 48 60
        E 0 90 3c 60
        E 120 80 61 00
        E 0 80 55 00
        E 0 80 48 00
        E 0 80 3c 00
        E 120 90 60 60
        E 0 90 65 60
        E 0 90 54 60
        E 120 80 60 00
        E 0 80 54 00
        E 120 90 61 60
        E 0 90 55 60
        E 0 90 48 60
        E 120 80 61 00
        E 0 80 55 00
        E 0 80 48 00
        E 120 90 62 60
        E 0 90 56 60
        E 120 80 62 00
        E 0 80 56 00
        E 120 90 63 60
        E 0 90 57 60
        E 0 90 4a 60
        E 0 90 3e 60
        E 120 80 65 00
        E 0 80 63 00
        E 0 80 57 00
        E 0 80 4a 00
        E 0 80 3e 00
        E 600 90 63 60
        E 0 90 57 60
        E 0 90 4a 60
        E 120 80 63 00
        E 0 80 57 00
        E 0 80 4a 00
        E 600 90 63 60
        E 0 90 57 60
        E 0 90 4a 60
        E 0 90 3e 60
        E 120 80 63 00
        E 0 80 57 00
        E 0 80 4a 00
        E 0 80 3e 00
        E 600 90 63 60
        E 0 90 57 60
        E 0 90 4a 60
        E 120 80 63 00
        E 0 80 57 00
        E 0 80 4a 00
        E 600 90 64 60
        E 0 90 58 60
        E 0 90 4b 60
        E 0 90 3f 60
        E 120 80 64 00
        E 0 80 58 00
        E 0 80 4b 00
        E 0 80 3f 00
        E 120 90 63 60
        E 0 90 65 60
        E 0 90 57 60
        E 120 80 63 00
        E 0 80 57 00
        E 120 90 62 60
        E 0 90 56 60
        E 0 90 49 60
        E 120 80 62 00
        E 0 80 56 00
        E 0 80 49 00
        E 120 90 60 60
        E 0 90 54 60
        E 120 80 60 00
        E 0 80 54 00
        E 120 90 61 60
        E 0 90 55 60
        E 0 90 48 60
        E 0 90 3c 60
        E 120 80 65 00
        E 0 80 61 00
        E 0 80 55 00
        E 0 80 48 00
        E 0 80 3c 00
        E 600 90 61 60
        E 0 90 55 60
        E 0 90 48 60
        E 120 80 61 00
        E 0 80 55 00
        E 0 80 48 00
        E 600 90 61 60
        E 0 90 55 60
        E 0 90 48 60
        E 0 90 3c 60
        E 120 80 61 00
        E 0 80 55 00
        E 0 80 48 00
        E 0 80 3c 00
        E 600 90 61 60
        E 0 90 55 60
        E 0 90 48 60
        E 120 80 61 00
        E 0 80 55 00
        E 0 80 48 00
        E 600 90 61 60
        E 0 90 55 60
        E 0 90 48 60
        E 0 90 3c 60
        E 120 80 61 00
        E 0 80 55 00
        E 0 80 48 00
        E 0 80 3c 00
        E 120 90 60 60
        E 0 90 65 60
        E 0 90 54 60
        E 120 80 60 00
        E 0 80 54 00
        E 120 90 61 60
        E 0 90 55 60
        E 0 90 48 60
        E 0 90 3c 60
        E 120 80 61 00
        E 0 80 55 00
        E 0 80 48 00
        E 0 80 3c 00
        E 120 90 62 60
        E 0 90 56 60
        E 120 80 62 00
        E 0 80 56 00
        E 120 90 61 60
        E 0 90 55 60
        E 0 90 48 60
        E 0 90 3c 60
        E 120 80 65 00
        E 0 80 61 00
        E 0 80 55 00
        E 0 80 48 00
        E 0 80 3c 00
        E 600 90 61 60
        E 0 90 55 60
        E 0 90 48 60
        E 120 80 61 00
        E 0 80 55 00
        E 0 80 48 00
        E 600 90 61 60
        E 0 90 55 60
        E 0 90 48 60
        E 0 90 3c 60
        E 120 80 61 00
        E 0 80 55 00
        E 0 80 48 00
        E 0 80 3c 00
        E 600 90 61 60
        E 0 90 55 60
        E 0 90 48 60
        E 120 80 61 00
        E 0 80 55 00
        E 0 80 48 00
        E 600 90 61 60
        E 0 90 55 60
        E 0 90 48 60
        E 0 90 3c 60
        E 120 80 61 00
        E 0 80 55 00
        E 0 80 48 00
        E 0 80 3c 00
        E 120 90 60 60
        E 0 90 65 60
        E 0 90 54 60
        E 120 80 60 00
        E 0 80 54 00
        E 120 90 61 60
        E 0 90 55 60
        E 0 90 48 60
        E 0 90 3c 60
        E 120 80 61 00
        E 0 80 55 00
        E 0 80 48 00
        E 0 80 3c 00
        E 120 90 62 60
        E 0 90 56 60
        E 120 80 62 00
        E 0 80 56 00
        E 120 90 61 60
        E 0 90 55 60
        E 0 90 48 60
        E 0 90 3c 60
        E 120 80 65 00
        E 0 80 61 00
        E 0 80 55 00
        E 0 80 48 00
        E 0 80 3c 00
        E 600 90 61 60
        E 0 90 55 60
        E 0 90 48 60
        E 120 80 61 00
        E 0 80 55 00
        E 0 80 48 00
        E 600 90 61 60
        E 0 90 55 60
        E 0 90 48 60
        E 0 90 3c 60
        E 120 80 61 00
        E 0 80 55 00
        E 0 80 48 00
        E 0 80 3c 00
        E 600 90 61 60
        E 0 90 55 60
        E 0 90 48 60
        E 120 80 61 00
        E 0 80 55 00
        E 0 80 48 00
        E 600 90 61 60
        E 0 90 55 60
        E 0 90 48 60
        E 0 90 3c 60
        E 120 80 61 00
        E 0 80 55 00
        E 0 80 48 00
        E 0 80 3c 00
        E 120 90 60 60
        E 0 90 65 60
        E 0 90 54 60
        E 120 80 60 00
        E 0 80 54 00
        E 120 90 61 60
        E 0 90 55 60
        E 0 90 48 60
        E 120 80 61 00
        E 0 80 55 00
        E 0 80 48 00
        E 120 90 62 60
        E 0 90 56 60
        E 120 80 65 00
        E 0 80 62 00
        E 0 80 56 00
        E 120 90 62 60
        E 0 90 74 60
        E 0 90 56 60
        E 0 90 49 60
        E 0 90 3d 60
        E 120 80 62 00
        E 0 80 56 00
        E 0 80 49 00
        E 0 80 3d 00
        E 600 90 62 60
        E 0 90 56 60
        E 120 80 62 00
        E 0 80 56 00
        E 120 90 61 60
        E 0 90 65 60
        E 0 90 55 60
        E 0 90 48 60
        E 0 90 3c 60
        E 120 80 61 00
        E 0 80 65 00
        E 0 80 55 00
        E 0 80 48 00
        E 0 80 3c 00
        E 360 90 62 60
        E 0 90 56 60
        E 0 90 49 60
        E 120 80 62 00
        E 0 80 56 00
        E 0 80 49 00
        E 600 90 62 60
        E 0 90 56 60
        E 0 90 49 60
        E 0 90 3d 60
        E 120 80 62 00
        E 0 80 56 00
        E 0 80 49 00
        E 0 80 3d 00
        E 360 90 61 60
        E 0 90 55 60
        E 120 80 61 00
        E 0 80 55 00
        E 120 90 62 60
        E 0 90 65 60
        E 0 90 56 60
        E 0 90 49 60
        E 0 90 3d 60
        E 120 80 62 00
        E 0 80 56 00
        E 0 80 49 00
        E 0 80 3d 00
        E 120 90 61 60
        E 0 90 55 60
        E 120 80 61 00
        E 0 80 55 00
        E 120 90 62 60
        E 0 90 56 60
        E 0 90 49 60
        E 0 90 3d 60
        E 120 80 74 00
        E 0 80 62 00
        E 0 80 56 00
        E 0 80 49 00
        E 0 80 3d 00
        E 120 90 63 60
        E 0 90 57 60
        E 120 80 65 00
        E 0 80 63 00
        E 0 80 57 00
        <X 2040 0
          /wFbaW50ZW5zZV0=
        >
        E 0 90 64 60
        E 0 90 58 60
        E 0 90 4b 60
        E 0 90 3f 60
        E 120 80 64 00
        E 0 80 58 00
        E 0 80 4b 00
        E 0 80 3f 00
        E 360 90 63 60
        E 0 90 57 60
        E 0 90 4a 60
        E 120 80 63 00
        E 0 80 57 00
        E 0 80 4a 00
        E 360 90 62 60
        E 0 90 56 60
        E 0 90 49 60
        E 0 90 3d 60
        E 120 80 62 00
        E 0 80 56 00
        E 0 80 49 00
        E 0 80 3d 00
        E 360 90 61 60
        E 0 90 55 60
        E 0 90 48 60
        E 120 80 61 00
        E 0 80 55 00
        E 0 80 48 00
        E 360 90 63 60
        E 0 90 57 60
        E 0 90 4a 60
        E 0 90 3e 60
        E 120 80 63 00
        E 0 80 57 00
        E 0 80 4a 00
        E 0 80 3e 00
        E 360 90 62 60
        E 0 90 56 60
        E 0 90 49 60
        E 120 80 62 00
        E 0 80 56 00
        E 0 80 49 00
        E 360 90 61 60
        E 0 90 55 60
        E 0 90 48 60
        E 0 90 3c 60
        E 120 80 61 00
        E 0 80 55 00
        E 0 80 48 00
        E 0 80 3c 00
        E 360 90 62 60
        E 0 90 56 60
        E 0 90 49 60
        E 120 80 62 00
        E 0 80 56 00
        E 0 80 49 00
        E 840 90 61 60
        E 0 90 55 60
        E 0 90 48 60
        E 0 90 3c 60
        E 2880 80 3c 00
        E 120 80 48 00
        E 120 80 61 00
        E 0 80 55 00
        E 240 90 61 60
        E 0 90 55 60
        E 0 90 48 60
        E 0 90 3c 60
        E 120 80 61 00
        E 0 80 55 00
        E 0 80 48 00
        E 0 80 3c 00
        E 360 90 60 60
        E 0 90 54 60
        E 0 90 48 60
        E 0 90 3c 60
        E 120 80 60 00
        E 0 80 54 00
        E 0 80 48 00
        E 0 80 3c 00
        E 360 90 61 60
        E 0 90 55 60
        E 0 90 48 60
        E 0 90 3c 60
        E 120 80 61 00
        E 0 80 55 00
        E 0 80 48 00
        E 0 80 3c 00
        E 360 90 60 60
        E 0 90 54 60
        E 0 90 48 60
        E 120 80 60 00
        E 0 80 54 00
        E 0 80 48 00
        E 360 90 62 60
        E 0 90 56 60
        E 0 90 49 60
        E 0 90 3d 60
        E 120 80 62 00
        E 0 80 56 00
        E 0 80 49 00
        E 0 80 3d 00
        E 360 90 61 60
        E 0 90 55 60
        E 0 90 48 60
        E 120 80 61 00
        E 0 80 55 00
        E 0 80 48 00
        E 360 90 62 60
        E 0 90 56 60
        E 0 90 49 60
        E 0 90 3d 60
        E 120 80 62 00
        E 0 80 56 00
        E 0 80 49 00
        E 0 80 3d 00
        E 360 90 63 60
        E 0 90 57 60
        E 0 90 4a 60
        E 120 80 63 00
        E 0 80 57 00
        E 0 80 4a 00
        E 840 90 62 60
        E 0 90 56 60
        E 0 90 49 60
        E 0 90 3d 60
        E 960 80 3d 00
        E 120 80 49 00
        E 120 80 62 00
        E 0 80 56 00
        E 240 90 61 60
        E 0 90 55 60
        E 0 90 48 60
        E 0 90 3c 60
        E 1440 80 3c 00
        E 120 80 48 00
        E 120 80 61 00
        E 0 80 55 00
        E 240 90 62 60
        E 0 90 56 60
        E 0 90 49 60
        E 0 90 3d 60
        E 120 80 62 00
        E 0 80 56 00
        E 0 80 49 00
        E 0 80 3d 00
        E 360 90 61 60
        E 0 90 55 60
        E 0 90 48 60
        E 120 80 61 00
        E 0 80 55 00
        E 0 80 48 00
        E 360 90 62 60
        E 0 90 56 60
        E 0 90 49 60
        E 0 90 3d 60
        E 120 80 62 00
        E 0 80 56 00
        E 0 80 49 00
        E 0 80 3d 00
        E 360 90 63 60
        E 0 90 57 60
        E 0 90 4a 60
        E 120 80 63 00
        E 0 80 57 00
        E 0 80 4a 00
        E 360 90 64 60
        E 0 90 58 60
        E 0 90 4b 60
        E 0 90 3f 60
        E 120 80 64 00
        E 0 80 58 00
        E 0 80 4b 00
        E 0 80 3f 00
        E 360 90 62 60
        E 0 90 56 60
        E 0 90 49 60
        E 120 80 62 00
        E 0 80 56 00
        E 0 80 49 00
        E 360 90 64 60
        E 0 90 58 60
        E 0 90 4b 60
        E 0 90 3f 60
        E 120 80 64 00
        E 0 80 58 00
        E 0 80 4b 00
        E 0 80 3f 00
        E 120 90 63 60
        E 0 90 65 60
        E 0 90 57 60
        E 120 80 63 00
        E 0 80 57 00
        E 120 90 62 60
        E 0 90 56 60
        E 0 90 49 60
        E 120 80 62 00
        E 0 80 56 00
        E 0 80 49 00
        E 360 90 62 60
        E 0 90 56 60
        E 0 90 49 60
        E 0 90 3d 60
        E 120 80 62 00
        E 0 80 56 00
        E 0 80 49 00
        E 0 80 3d 00
        E 120 90 61 60
        E 0 90 55 60
        E 120 80 61 00
        E 0 80 55 00
        E 120 90 60 60
        E 0 90 54 60
        E 0 90 48 60
        E 120 80 60 00
        E 0 80 54 00
        E 0 80 48 00
        E 120 90 62 60
        E 0 90 56 60
        E 120 80 62 00
        E 0 80 56 00
        E 120 90 63 60
        E 0 90 57 60
        E 0 90 4a 60
        E 0 90 3e 60
        E 120 80 63 00
        E 0 80 57 00
        E 0 80 4a 00
        E 0 80 3e 00
        E 120 90 60 60
        E 0 90 54 60
        E 120 80 60 00
        E 0 80 54 00
        E 120 90 61 60
        E 0 90 55 60
        E 0 90 48 60
        E 120 80 61 00
        E 0 80 55 00
        E 0 80 48 00
        E 120 90 60 60
        E 0 90 54 60
        E 120 80 60 00
        E 0 80 54 00
        E 120 90 64 60
        E 0 90 74 60
        E 0 90 58 60
        E 0 90 4b 60
        E 0 90 3f 60
        E 120 80 64 00
        E 0 80 58 00
        E 0 80 4b 00
        E 0 80 3f 00
        E 120 90 62 60
        E 0 90 56 60
        E 120 80 62 00
        E 0 80 56 00
        E 120 90 63 60
        E 0 90 57 60
        E 0 90 4a 60
        E 120 80 63 00
        E 0 80 57 00
        E 0 80 4a 00
        E 120 90 64 60
        E 0 90 58 60
        E 120 80 64 00
        E 0 80 58 00
        E 120 90 63 60
        E 0 90 57 60
        E 0 90 4a 60
        E 0 90 3e 60
        E 120 80 63 00
        E 0 80 57 00
        E 0 80 4a 00
        E 0 80 3e 00
        E 120 90 62 60
        E 0 90 56 60
        E 120 80 62 00
        E 0 80 56 00
        E 120 90 61 60
        E 0 90 55 60
        E 0 90 48 60
        E 120 80 61 00
        E 0 80 55 00
        E 0 80 48 00
        E 120 90 62 60
        E 0 90 56 60
        E 120 80 62 00
        E 0 80 56 00
        E 120 80 74 00
        E 0 90 61 60
        E 0 90 55 60
        E 0 90 48 60
        E 0 90 3c 60
        E 120 80 65 00
        E 0 80 61 00
        E 0 80 55 00
        E 0 80 48 00
        E 0 80 3c 00
        E 360 90 60 60
        E 0 90 54 60
        E 0 90 48 60
        E 0 90 3c 60
        E 120 80 60 00
        E 0 80 54 00
        E 0 80 48 00
        E 0 80 3c 00
        E 360 90 61 60
        E 0 90 55 60
        E 0 90 48 60
        E 0 90 3c 60
        E 120 80 61 00
        E 0 80 55 00
        E 0 80 48 00
        E 0 80 3c 00
        E 360 90 62 60
        E 0 90 56 60
        E 0 90 49 60
        E 120 80 62 00
        E 0 80 56 00
        E 0 80 49 00
        E 360 90 63 60
        E 0 90 57 60
        E 0 90 4a 60
        E 0 90 3e 60
        E 120 80 63 00
        E 0 80 57 00
        E 0 80 4a 00
        E 0 80 3e 00
        E 360 90 62 60
        E 0 90 56 60
        E 0 90 49 60
        E 120 80 62 00
        E 0 80 56 00
        E 0 80 49 00
        E 360 90 63 60
        E 0 90 57 60
        E 0 90 4a 60
        E 0 90 3e 60
        E 120 80 3e 00
        E 480 80 4a 00
        E 120 80 63 00
        E 0 80 57 00
        E 240 90 64 60
        E 0 90 58 60
        E 0 90 4b 60
        E 0 90 3f 60
        E 120 80 64 00
        E 0 80 58 00
        E 0 80 4b 00
        E 0 80 3f 00
        E 120 90 63 60
        E 0 90 65 60
        E 0 90 57 60
        E 120 80 63 00
        E 0 80 57 00
        E 120 90 62 60
        E 0 90 56 60
        E 0 90 49 60
        E 120 80 62 00
        E 0 80 56 00
        E 0 80 49 00
        E 120 90 61 60
        E 0 90 55 60
        E 120 80 61 00
        E 0 80 55 00
        E 120 90 62 60
        E 0 90 56 60
        E 0 90 49 60
        E 0 90 3d 60
        E 120 80 62 00
        E 0 80 56 00
        E 0 80 49 00
        E 0 80 3d 00
        E 120 90 61 60
        E 0 90 55 60
        E 120 80 61 00
        E 0 80 55 00
        E 120 90 60 60
        E 0 90 54 60
        E 0 90 48 60
        E 120 80 60 00
        E 0 80 54 00
        E 0 80 48 00
        E 120 90 61 60
        E 0 90 55 60
        E 120 80 61 00
        E 0 80 55 00
        E 120 90 62 60
        E 0 90 56 60
        E 0 90 49 60
        E 0 90 3d 60
        E 120 80 62 00
        E 0 80 56 00
        E 0 80 49 00
        E 0 80 3d 00
        E 120 90 60 60
        E 0 90 54 60
        E 120 80 60 00
        E 0 80 54 00
        E 120 90 62 60
        E 0 90 56 60
        E 0 90 49 60
        E 120 80 62 00
        E 0 80 56 00
        E 0 80 49 00
        E 120 90 60 60
        E 0 90 54 60
        E 120 80 60 00
        E 0 80 54 00
        E 120 90 61 60
        E 0 90 55 60
        E 0 90 48 60
        E 0 90 3c 60
        E 120 80 65 00
        E 0 80 61 00
        E 0 80 55 00
        E 0 80 48 00
        E 0 80 3c 00
        E 360 90 63 60
        E 0 90 57 60
        E 0 90 4a 60
        E 120 80 63 00
        E 0 80 57 00
        E 0 80 4a 00
        E 360 90 62 60
        E 0 90 56 60
        E 0 90 49 60
        E 0 90 3d 60
        E 120 80 3d 00
        E 480 80 49 00
        E 120 80 62 00
        E 0 80 56 00
        E 240 90 61 60
        E 0 90 55 60
        E 0 90 48 60
        E 0 90 3c 60
        E 120 80 3c 00
        E 480 80 48 00
        E 120 80 61 00
        E 0 80 55 00
        E 240 90 60 60
        E 0 90 54 60
        E 0 90 48 60
        E 0 90 3c 60
        E 120 80 3c 00
        E 480 80 48 00
        E 120 80 60 00
        E 0 80 54 00
        E 240 90 62 60
        E 0 90 56 60
        E 0 90 49 60
        E 0 90 3d 60
        E 120 80 3d 00
        E 480 80 49 00
        E 120 80 62 00
        E 0 80 56 00
        E 240 90 63 60
        E 0 90 57 60
        E 0 90 4a 60
        E 0 90 3e 60
        E 3360 80 3e 00
        E 120 80 4a 00
        E 120 80 63 00
        E 0 80 57 00
        E 240 90 62 60
        E 0 90 56 60
        E 0 90 49 60
        E 0 90 3d 60
        E 120 80 62 00
        E 0 80 56 00
        E 0 80 49 00
        E 0 80 3d 00
        E 360 90 61 60
        E 0 90 55 60
        E 0 90 48 60
        E 120 80 61 00
        E 0 80 55 00
        E 0 80 48 00
        E 360 90 62 60
        E 0 90 56 60
        E 0 90 49 60
        E 0 90 3d 60
        E 120 80 62 00
        E 0 80 56 00
        E 0 80 49 00
        E 0 80 3d 00
        E 360 90 61 60
        E 0 90 55 60
        E 0 90 48 60
        E 120 80 61 00
        E 0 80 55 00
        E 0 80 48 00
        E 360 90 63 60
        E 0 90 57 60
        E 0 90 4a 60
        E 0 90 3e 60
        E 120 80 63 00
        E 0 80 57 00
        E 0 80 4a 00
        E 0 80 3e 00
        E 360 90 62 60
        E 0 90 56 60
        E 0 90 49 60
        E 120 80 62 00
        E 0 80 56 00
        E 0 80 49 00
        E 360 90 63 60
        E 0 90 57 60
        E 0 90 4a 60
        E 0 90 3e 60
        E 120 80 63 00
        E 0 80 57 00
        E 0 80 4a 00
        E 0 80 3e 00
        E 360 90 64 60
        E 0 90 58 60
        E 0 90 4b 60
        E 120 80 64 00
        E 0 80 58 00
        E 0 80 4b 00
        E 840 90 63 60
        E 0 90 57 60
        E 0 90 4a 60
        E 0 90 3e 60
        E 960 80 3e 00
        E 120 80 4a 00
        E 120 80 63 00
        E 0 80 57 00
        E 240 90 62 60
        E 0 90 56 60
        E 0 90 49 60
        E 0 90 3d 60
        E 1440 80 3d 00
        E 120 80 49 00
        E 120 80 62 00
        E 0 80 56 00
        E 240 90 62 60
        E 0 90 56 60
        E 0 90 49 60
        E 0 90 3d 60
        E 120 80 62 00
        E 0 80 56 00
        E 0 80 49 00
        E 0 80 3d 00
        E 360 90 61 60
        E 0 90 55 60
        E 0 90 48 60
        E 120 80 61 00
        E 0 80 55 00
        E 0 80 48 00
        E 360 90 62 60
        E 0 90 74 60
        E 0 90 56 60
        E 0 90 49 60
        E 0 90 3d 60
        E 120 80 62 00
        E 0 80 56 00
        E 0 80 49 00
        E 0 80 3d 00
        E 360 90 63 60
        E 0 90 57 60
        E 0 90 4a 60
        E 120 80 63 00
        E 0 80 57 00
        E 0 80 4a 00
        E 360 90 64 60
        E 0 90 58 60
        E 0 90 4b 60
        E 0 90 3f 60
        E 120 80 64 00
        E 0 80 58 00
        E 0 80 4b 00
        E 0 80 3f 00
        E 360 90 62 60
        E 0 90 56 60
        E 0 90 49 60
        E 120 80 62 00
        E 0 80 56 00
        E 0 80 49 00
        E 360 90 64 60
        E 0 90 58 60
        E 0 90 4b 60
        E 0 90 3f 60
        E 120 80 64 00
        E 0 80 58 00
        E 0 80 4b 00
        E 0 80 3f 00
        E 120 90 63 60
        E 0 90 65 60
        E 0 90 57 60
        E 120 80 63 00
        E 0 80 57 00
        E 120 90 62 60
        E 0 90 56 60
        E 0 90 49 60
        E 120 80 62 00
        E 0 80 56 00
        E 0 80 49 00
        E 360 90 62 60
        E 0 90 56 60
        E 0 90 49 60
        E 0 90 3d 60
        E 120 80 62 00
        E 0 80 56 00
        E 0 80 49 00
        E 0 80 3d 00
        E 120 90 61 60
        E 0 90 55 60
        E 120 80 61 00
        E 0 80 55 00
        E 120 90 60 60
        E 0 90 54 60
        E 0 90 48 60
        E 120 80 60 00
        E 0 80 54 00
        E 0 80 48 00
        E 120 90 62 60
        E 0 90 56 60
        E 120 80 62 00
        E 0 80 56 00
        E 120 90 63 60
        E 0 90 57 60
        E 0 90 4a 60
        E 0 90 3e 60
        E 120 80 63 00
        E 0 80 57 00
        E 0 80 4a 00
        E 0 80 3e 00
        E 120 90 60 60
        E 0 90 54 60
        E 120 80 60 00
        E 0 80 54 00
        E 120 80 74 00
        E 0 90 61 60
        E 0 90 55 60
        E 0 90 48 60
        E 120 80 61 00
        E 0 80 55 00
        E 0 80 48 00
        E 120 90 60 60
        E 0 90 54 60
        E 120 80 60 00
        E 0 80 54 00
        E 120 90 64 60
        E 0 90 58 60
        E 0 90 4b 60
        E 0 90 3f 60
        E 120 80 64 00
        E 0 80 58 00
        E 0 80 4b 00
        E 0 80 3f 00
        E 120 90 62 60
        E 0 90 56 60
        E 120 80 62 00
        E 0 80 56 00
        E 120 90 63 60
        E 0 90 57 60
        E 0 90 4a 60
        E 120 80 63 00
        E 0 80 57 00
        E 0 80 4a 00
        E 120 90 64 60
        E 0 90 58 60
        E 120 80 64 00
        E 0 80 58 00
        E 120 90 63 60
        E 0 90 57 60
        E 0 90 4a 60
        E 0 90 3e 60
        E 120 80 63 00
        E 0 80 57 00
        E 0 80 4a 00
        E 0 80 3e 00
        E 120 90 62 60
        E 0 90 56 60
        E 120 80 62 00
        E 0 80 56 00
        E 120 90 61 60
        E 0 90 55 60
        E 0 90 48 60
        E 120 80 61 00
        E 0 80 55 00
        E 0 80 48 00
        E 120 90 62 60
        E 0 90 56 60
        E 120 80 62 00
        E 0 80 56 00
        E 120 90 61 60
        E 0 90 55 60
        E 0 90 48 60
        E 0 90 3c 60
        E 120 80 65 00
        E 0 80 61 00
        E 0 80 55 00
        E 0 80 48 00
        E 0 80 3c 00
        E 360 90 60 60
        E 0 90 54 60
        E 0 90 48 60
        E 0 90 3c 60
        E 120 80 60 00
        E 0 80 54 00
        E 0 80 48 00
        E 0 80 3c 00
        E 360 90 61 60
        E 0 90 55 60
        E 0 90 48 60
        E 0 90 3c 60
        E 120 80 61 00
        E 0 80 55 00
        E 0 80 48 00
        E 0 80 3c 00
        E 360 90 62 60
        E 0 90 56 60
        E 0 90 49 60
        E 120 80 62 00
        E 0 80 56 00
        E 0 80 49 00
        E 360 90 63 60
        E 0 90 57 60
        E 0 90 4a 60
        E 0 90 3e 60
        E 120 80 63 00
        E 0 80 57 00
        E 0 80 4a 00
        E 0 80 3e 00
        E 360 90 62 60
        E 0 90 56 60
        E 0 90 49 60
        E 120 80 62 00
        E 0 80 56 00
        E 0 80 49 00
        E 360 90 63 60
        E 0 90 57 60
        E 0 90 4a 60
        E 0 90 3e 60
        E 120 80 3e 00
        E 480 80 4a 00
        E 120 80 63 00
        E 0 80 57 00
        E 240 90 62 60
        E 0 90 56 60
        E 0 90 49 60
        E 0 90 3d 60
        E 1440 80 3d 00
        E 120 80 49 00
        E 120 80 62 00
        E 0 80 56 00
        E 240 90 64 60
        E 0 90 58 60
        E 0 90 4b 60
        E 0 90 3f 60
        E 120 80 3f 00
        E 480 80 4b 00
        E 120 80 64 00
        E 0 80 58 00
        E 240 90 63 60
        E 0 90 57 60
        E 0 90 4a 60
        E 0 90 3e 60
        E 120 80 3e 00
        E 480 80 4a 00
        E 120 80 63 00
        E 0 80 57 00
        E 240 90 62 60
        E 0 90 56 60
        E 0 90 49 60
        E 0 90 3d 60
        E 3840 80 62 00
        E 0 80 56 00
        E 0 80 49 00
        E 0 80 3d 00
        E 1920 90 61 60
        E 0 90 55 60
        E 0 90 48 60
        E 0 90 3c 60
        E 120 80 3c 00
        E 480 80 48 00
        E 120 80 61 00
        E 0 80 55 00
        E 240 90 62 60
        E 0 90 56 60
        E 0 90 49 60
        E 0 90 3d 60
        E 120 80 3d 00
        E 480 80 49 00
        E 120 80 62 00
        E 0 80 56 00
        E 240 90 60 60
        E 0 90 54 60
        E 0 90 48 60
        E 0 90 3c 60
        <X 21119 0
          /wFbaWRsZV9yZWFsdGltZV0=
        >
        E 0 80 60 00
        E 0 80 54 00
        E 0 80 48 00
        E 0 80 3c 00
        E 5761 b0 7b 00
        GUID {E316F29E-D43E-404D-B158-383A565787C7}
        IGNTEMPO 0 120.00000000 4 4
        SRCCOLOR 4
        VELLANE 132 128 60
        COLORMAP "C:\Program Files\REAPER (x64)\Data\color_maps\rockband_guitarbass.png"
        CFGEDITVIEW -4879.484042 21.662927 0 14 0 0 0
        CFGEDIT 1 1 0 1 1 0 1 1 1 1 1 0.25000000 -8 -8 1544 872 0 2 1 1 0.00000000 0 1 1 0 0.500000 0 0 1.000000 64
        KEYSNAP 0 7 "102030050700" 0 "Pentatonic"
        EVTFILTER 0 -1 -1 -1 -1 0 1 0 0 -1.00000000 -1.00000000
      >
    >
  >
  <TRACK '{52576B14-E367-4590-AFC7-8F036E5A67E1}'
    NAME "PART REAL_KEYS_X"
    PEAKCOL 16576
    BEAT -1
    AUTOMODE 0
    VOLPAN 1.00000000000000 0.00000000000000 -1.00000000000000 -1.00000000000000 1.00000000000000
    MUTESOLO 0 0 0
    IPHASE 0
    ISBUS 0 0
    BUSCOMP 0 0
    SHOWINMIX 1 0.666700 0.500000 1 0.500000 -1 -1 -1
    FREEMODE 0
    SEL 0
    REC 0 0 0 0 0 0 0
    VU 2
    TRACKHEIGHT 0 0
    INQ 0 0 0 0.5000000000 100 0 0 100
    NCHAN 2
    FX 0
    TRACKID {52576B14-E367-4590-AFC7-8F036E5A67E1}
    PERF 0
    MIDIOUT -1
    <MIDINOTENAMES
      0 127 "TRILL MARKER"
      0 126 "GLISSANDO MARKER"
      0 125 "---"
      0 116 "OVERDRIVE"
      0 115 "SOLO"
      0 114 "---"
      0 72 "Highest playable note B#3"
      0 71 "B3"
      0 70 "A#3"
      0 69 "A3"
      0 68 "G#3"
      0 67 "G3"
      0 66 "F#3"
      0 65 "F3"
      0 64 "E3"
      0 63 "D#3"
      0 62 "D3"
      0 61 "C#3"
      0 60 "C3"
      0 59 "B2"
      0 58 "A#2"
      0 57 "A2"
      0 56 "G#2"
      0 55 "G2"
      0 54 "F#2"
      0 53 "F2"
      0 52 "E2"
      0 51 "D#2"
      0 50 "D2"
      0 49 "C#2"
      0 48 "Lowest playable note C2"
      0 10 "---"
      0 9 "Range A2-C4"
      0 8 "Range"
      0 7 "Range"
      0 6 "Range"
      0 5 "Range F2-A3"
      0 4 "Range"
      0 3 "Range"
      0 2 "Range"
      0 1 "Range"
      0 0 "Range C2-E3"
    >
    MAINSEND 1 0
    <FXCHAIN
      WNDRECT 0 43 655 467
      SHOW 0
      LASTSEL 1
      DOCKED 0
      BYPASS 0 0
      <JS "MIDI/midi_note_filter" ""
        48.000000 72.000000 - - - - - - - - - - - - - - - - - - - - - - - - - - - - - - - - - - - - - - - - - - - - - - - - - - - - - - - - - - - - - - 
      >
      FLOATPOS 0 0 0 0
      FXID {A40312AC-33DF-4933-9B4C-8B2E9CCB2591}
      WAK 0
      BYPASS 0 0
      <VST "VSTi: ReaSynth (Cockos)" "reasynth.dll" 0 ""
        eXNlcu9e7f4AAAAAAgAAAAEAAAAAAAAAAgAAAAAAAAA4AAAAAAAAAA==
        AAAQAO++rd4N8K3eppvEOxe30ToAAIA/AAAAAAAAAADMm4A+6WeIPQ==
        AAAAAAAAAD8AAIA/AACAPwAAAD8AABAAAAA=
      >
      FLOATPOS 0 0 0 0
      FXID {D6D8206B-CA56-4D7D-A67B-B71E70388190}
      WAK 0
    >
    <ITEM
      POSITION 0.00000000000000
      SNAPOFFS 0.00000000000000
      LENGTH 286.40908800000000
      LOOP 0
      ALLTAKES 0
      SEL 0
      FADEIN 1 0.000000 0.000000 1 0
      FADEOUT 1 0.000000 0.000000 1 0
      MUTE 0
      IGUID {8868CF93-C089-4F12-853B-F33ECA8940DA}
      IID 5
      NAME "PART REAL_KEYS_X"
      VOLPAN 1.000000 0.000000 1.000000 -1.000000
      SOFFS 0.00000000000000 0.00000000000000
      PLAYRATE 1.00000000000000 1 0.00000000000000 -1
      CHANMODE 0
      GUID {709D7BC2-51F3-4897-8C72-F2672D8CE2E7}
      <SOURCE MIDI
        HASDATA 1 480 QN
        POOLEDEVTS {4FD8A8ED-A944-4E30-BCBA-896CBFD168BC}
        <X 0 0
          /wNQQVJUIFJFQUxfS0VZU19Y
        >
        E 0 90 00 60
        E 120 80 00 00
        <X 5640 0
          /wFbYmVnaW5fa2V5IHNvbmdfdHJhaW5lcl9rZXlfMV0=
        >
        E 0 90 37 60
        E 0 90 3c 60
        E 0 90 3f 60
        E 3600 80 37 00
        E 0 80 3c 00
        E 0 80 3f 00
        <X 240 0
          /wFba2V5X25vcm0gc29uZ190cmFpbmVyX2tleV8xXQ==
        >
        E 0 90 37 60
        E 0 90 3a 60
        E 0 90 3f 60
        E 3600 80 37 00
        E 0 80 3a 00
        E 0 80 3f 00
        E 240 90 32 60
        E 0 90 37 60
        E 0 90 3a 60
        E 3600 80 32 00
        E 0 80 37 00
        E 0 80 3a 00
        E 240 90 35 60
        E 0 90 3a 60
        E 0 90 3e 60
        E 3600 80 35 00
        E 0 80 3a 00
        E 0 80 3e 00
        <X 240 0
          /wFbZW5kX2tleSBzb25nX3RyYWluZXJfa2V5XzFd
        >
        E 0 90 37 60
        E 0 90 3c 60
        E 0 90 3f 60
        E 0 90 74 60
        E 3600 80 37 00
        E 0 80 3c 00
        E 0 80 3f 00
        E 240 90 37 60
        E 0 90 3a 60
        E 0 90 3f 60
        E 960 80 74 00
        E 2640 80 37 00
        E 0 80 3a 00
        E 0 80 3f 00
        E 240 90 32 60
        E 0 90 37 60
        E 0 90 3a 60
        E 3600 80 32 00
        E 0 80 37 00
        E 0 80 3a 00
        E 240 90 35 60
        E 0 90 3a 60
        E 0 90 3e 60
        E 3600 80 35 00
        E 0 80 3a 00
        E 0 80 3e 00
        <X 240 0
          /wFbYmVnaW5fa2V5IHNvbmdfdHJhaW5lcl9rZXlfMl0=
        >
        E 0 90 33 60
        E 120 80 33 00
        E 360 90 37 60
        E 120 80 37 00
        E 360 90 3a 60
        E 120 80 3a 00
        E 360 90 37 60
        E 120 80 37 00
        E 360 90 3c 60
        E 720 80 3c 00
        E 240 90 3a 60
        E 720 80 3a 00
        <X 240 0
          /wFba2V5X25vcm0gc29uZ190cmFpbmVyX2tleV8yXQ==
        >
        E 0 90 33 60
        E 120 80 33 00
        E 360 90 35 60
        E 120 80 35 00
        E 360 90 37 60
        E 120 80 37 00
        E 360 90 33 60
        E 120 80 33 00
        E 360 90 32 60
        E 720 80 32 00
        E 240 90 30 60
        E 720 80 30 00
        E 240 90 3a 60
        E 0 90 74 60
        E 120 80 3a 00
        E 360 90 30 60
        E 120 80 30 00
        E 360 90 33 60
        E 120 80 33 00
        E 360 90 30 60
        E 120 80 30 00
        E 360 90 35 60
        E 120 80 35 00
        E 120 90 33 60
        E 120 80 33 00
        E 120 90 35 60
        E 120 80 35 00
        E 120 90 3a 60
        E 120 80 3a 00
        E 120 90 37 60
        E 120 80 37 00
        E 360 90 35 60
        E 120 80 35 00
        E 360 80 74 00
        E 0 90 33 60
        E 120 80 33 00
        E 360 90 35 60
        E 120 80 35 00
        E 360 90 37 60
        E 120 80 37 00
        E 360 90 33 60
        E 120 80 33 00
        E 360 90 3a 60
        E 120 80 3a 00
        E 360 90 3c 60
        E 120 80 3c 00
        E 360 90 3a 60
        E 120 80 3a 00
        E 360 90 37 60
        E 120 80 37 00
        <X 360 0
          /wFbZW5kX2tleSBzb25nX3RyYWluZXJfa2V5XzJd
        >
        E 0 90 33 60
        E 120 80 33 00
        E 360 90 37 60
        E 120 80 37 00
        E 360 90 3a 60
        E 120 80 3a 00
        E 360 90 37 60
        E 120 80 37 00
        E 360 90 3c 60
        E 720 80 3c 00
        E 240 90 3a 60
        E 720 80 3a 00
        E 240 90 33 60
        E 120 80 33 00
        E 360 90 35 60
        E 120 80 35 00
        E 360 90 37 60
        E 120 80 37 00
        E 360 90 33 60
        E 120 80 33 00
        E 360 90 32 60
        E 720 80 32 00
        E 240 90 30 60
        E 720 80 30 00
        E 240 90 3a 60
        E 120 80 3a 00
        E 360 90 30 60
        E 120 80 30 00
        E 360 90 33 60
        E 120 80 33 00
        E 360 90 30 60
        E 120 80 30 00
        E 360 90 35 60
        E 120 80 35 00
        E 120 90 33 60
        E 120 80 33 00
        E 120 90 35 60
        E 120 80 35 00
        E 120 90 3a 60
        E 120 80 3a 00
        E 120 90 37 60
        E 120 80 37 00
        E 360 90 35 60
        E 120 80 35 00
        E 360 90 33 60
        E 120 80 33 00
        E 360 90 35 60
        E 120 80 35 00
        E 360 90 37 60
        E 120 80 37 00
        E 360 90 33 60
        E 120 80 33 00
        E 360 90 3a 60
        E 120 80 3a 00
        E 360 90 3c 60
        E 120 80 3c 00
        E 360 90 3a 60
        E 120 80 3a 00
        E 360 90 37 60
        E 120 80 37 00
        E 360 90 33 60
        E 3600 80 33 00
        E 240 90 37 60
        E 0 90 3a 60
        E 0 90 3f 60
        E 3600 80 37 00
        E 0 80 3a 00
        E 0 80 3f 00
        E 240 90 32 60
        E 0 90 37 60
        E 0 90 3a 60
        E 3600 80 32 00
        E 0 80 37 00
        E 0 80 3a 00
        E 240 90 35 60
        E 0 90 3a 60
        E 0 90 3e 60
        E 3600 80 35 00
        E 0 80 3a 00
        E 0 80 3e 00
        E 240 90 37 60
        E 0 90 3c 60
        E 0 90 3f 60
        E 3600 80 37 00
        E 0 80 3c 00
        E 0 80 3f 00
        E 240 90 37 60
        E 0 90 3a 60
        E 0 90 3f 60
        E 3600 80 37 00
        E 0 80 3a 00
        E 0 80 3f 00
        E 240 90 32 60
        E 0 90 37 60
        E 0 90 3a 60
        E 0 90 74 60
        E 3600 80 32 00
        E 0 80 37 00
        E 0 80 3a 00
        E 240 80 74 00
        E 0 90 35 60
        E 0 90 3a 60
        E 0 90 3e 60
        E 3600 80 35 00
        E 0 80 3a 00
        E 0 80 3e 00
        <X 240 0
          /wFbYmVnaW5fa2V5IHNvbmdfdHJhaW5lcl9rZXlfM10=
        >
        E 0 90 37 60
        E 720 80 37 00
        E 240 90 35 60
        E 720 80 35 00
        E 240 90 33 60
        E 120 80 33 00
        E 360 90 37 60
        E 120 80 37 00
        E 360 90 35 60
        E 120 80 35 00
        E 360 90 30 60
        E 1680 80 30 00
        E 240 90 3a 60
        E 120 80 3a 00
        E 360 90 33 60
        E 120 80 33 00
        E 360 90 3a 60
        E 120 80 3a 00
        E 360 90 3a 60
        E 720 80 3a 00
        E 240 90 3c 60
        E 120 80 3c 00
        E 120 90 37 60
        E 120 80 37 00
        E 120 90 30 60
        E 120 80 30 00
        E 120 90 3a 60
        E 120 80 3a 00
        E 120 90 37 60
        E 120 80 37 00
        E 120 90 33 60
        E 120 80 33 00
        E 120 90 35 60
        E 120 80 35 00
        E 120 90 35 60
        E 120 80 35 00
        E 120 90 33 60
        E 120 80 33 00
        E 360 90 35 60
        E 120 80 35 00
        E 360 90 37 60
        E 120 80 37 00
        E 360 90 33 60
        E 600 80 33 00
        E 120 90 35 60
        E 120 80 35 00
        E 120 90 3f 60
        E 120 80 3f 00
        E 120 90 35 60
        E 120 80 35 00
        E 120 90 37 60
        E 120 80 37 00
        E 120 90 3f 60
        E 120 80 3f 00
        E 120 90 35 60
        E 120 80 35 00
        E 120 90 3f 60
        E 120 80 3f 00
        E 360 90 3a 60
        E 120 80 3a 00
        E 120 90 3f 60
        E 120 80 3f 00
        E 120 90 35 60
        E 120 80 35 00
        E 120 90 37 60
        E 120 80 37 00
        E 120 90 3f 60
        E 120 80 3f 00
        E 120 90 3a 60
        E 120 80 3a 00
        E 120 90 3a 60
        E 120 80 3a 00
        <X 120 0
          /wFbZW5kX2tleSBzb25nX3RyYWluZXJfa2V5XzNd
        >
        <X 0 0
          /wFbYmVnaW5fa2V5IHNvbmdfdHJhaW5lcl9rZXlfNF0=
        >
        E 0 90 37 60
        E 0 90 74 60
        E 120 80 37 00
        E 360 90 35 60
        E 120 80 35 00
        E 360 90 3a 60
        E 120 80 3a 00
        E 360 90 35 60
        E 120 80 35 00
        E 360 90 3c 60
        E 120 80 3c 00
        E 360 90 3f 60
        E 120 80 3f 00
        E 360 90 3a 60
        E 120 80 3a 00
        E 360 90 33 60
        E 720 80 33 00
        E 240 90 30 60
        E 120 80 30 00
        E 360 90 33 60
        E 120 80 33 00
        E 360 90 30 60
        E 120 80 30 00
        E 360 90 35 60
        E 120 80 35 00
        E 360 90 37 60
        E 120 80 37 00
        E 360 90 35 60
        E 120 80 35 00
        E 360 90 33 60
        E 120 80 33 00
        E 360 80 74 00
        E 0 90 38 60
        E 720 80 38 00
        E 240 90 37 60
        E 720 80 37 00
        E 240 90 35 60
        E 720 80 35 00
        E 240 90 33 60
        E 720 80 33 00
        E 240 90 38 60
        E 720 80 38 00
        E 240 90 37 60
        E 720 80 37 00
        E 240 90 35 60
        E 720 80 35 00
        E 240 90 37 60
        E 720 80 37 00
        <X 240 0
          /wFbZW5kX2tleSBzb25nX3RyYWluZXJfa2V5XzRd
        >
        <X 0 0
          /wFbYmVnaW5fa2V5IHNvbmdfdHJhaW5lcl9rZXlfNV0=
        >
        E 0 90 37 60
        E 120 80 37 00
        E 600 90 37 60
        E 120 80 37 00
        E 600 90 37 60
        E 120 80 37 00
        E 600 90 37 60
        E 120 80 37 00
        E 600 90 37 60
        E 120 80 37 00
        E 120 90 35 60
        E 120 80 35 00
        E 120 90 37 60
        E 120 80 37 00
        E 120 90 3a 60
        E 120 80 3a 00
        <X 120 0
          /wFba2V5X25vcm0gc29uZ190cmFpbmVyX2tleV80XQ==
        >
        E 0 90 33 60
        E 120 80 33 00
        E 600 90 33 60
        E 120 80 33 00
        E 600 90 33 60
        E 120 80 33 00
        E 600 90 33 60
        E 120 80 33 00
        E 600 90 33 60
        E 120 80 33 00
        E 120 90 30 60
        E 120 80 30 00
        E 120 90 33 60
        E 120 80 33 00
        E 120 90 35 60
        E 120 80 35 00
        E 120 90 37 60
        E 120 80 37 00
        E 600 90 37 60
        E 120 80 37 00
        E 600 90 37 60
        E 120 80 37 00
        E 600 90 37 60
        E 120 80 37 00
        E 600 90 3c 60
        E 120 80 3c 00
        E 120 90 3a 60
        E 120 80 3a 00
        E 120 90 37 60
        E 120 80 37 00
        E 120 90 33 60
        E 120 80 33 00
        E 120 90 35 60
        E 120 80 35 00
        E 600 90 35 60
        E 120 80 35 00
        E 600 90 35 60
        E 120 80 35 00
        E 600 90 35 60
        E 120 80 35 00
        E 600 90 35 60
        E 0 90 74 60
        E 120 80 35 00
        E 120 90 33 60
        E 120 80 33 00
        E 120 90 35 60
        E 120 80 35 00
        E 120 90 37 60
        E 120 80 37 00
        <X 120 0
          /wFbYmVnaW5fa2V5IHNvbmdfdHJhaW5lcl9rZXlfNl0=
        >
        <X 0 0
          /wFbZW5kX2tleSBzb25nX3RyYWluZXJfa2V5XzVd
        >
        E 0 80 74 00
        E 0 90 3c 60
        E 120 80 3c 00
        E 360 90 3a 60
        E 120 80 3a 00
        E 360 90 37 60
        E 120 80 37 00
        E 360 90 35 60
        E 120 80 35 00
        E 360 90 37 60
        E 120 80 37 00
        E 360 90 35 60
        E 120 80 35 00
        E 360 90 33 60
        E 120 80 33 00
        E 360 90 35 60
        E 120 80 35 00
        E 840 90 30 60
        E 3120 80 30 00
        E 240 90 30 60
        E 120 80 30 00
        E 360 90 3a 60
        E 120 80 3a 00
        E 360 90 30 60
        E 120 80 30 00
        E 360 90 3a 60
        E 120 80 3a 00
        E 360 90 35 60
        E 120 80 35 00
        E 360 90 33 60
        E 120 80 33 00
        E 360 90 35 60
        E 120 80 35 00
        E 360 90 3a 60
        E 120 80 3a 00
        E 840 90 37 60
        E 1200 80 37 00
        E 240 90 35 60
        E 1680 80 35 00
        <X 240 0
          /wFbZW5kX2tleSBzb25nX3RyYWluZXJfa2V5XzZd
        >
        <X 0 0
          /wFbYmVnaW5fa2V5IHNvbmdfdHJhaW5lcl9rZXlfN10=
        >
        E 0 90 3c 60
        E 0 90 74 60
        E 120 80 3c 00
        E 360 90 3a 60
        E 120 80 3a 00
        E 360 90 3c 60
        E 120 80 3c 00
        E 360 90 3f 60
        E 120 80 3f 00
        E 360 90 35 60
        E 120 80 35 00
        E 360 90 3c 60
        E 120 80 3c 00
        E 360 90 37 60
        E 120 80 37 00
        E 120 90 35 60
        E 120 80 35 00
        E 120 90 3c 60
        E 120 80 3c 00
        E 360 90 3c 60
        E 120 80 3c 00
        E 120 90 3a 60
        E 120 80 3a 00
        E 120 90 35 60
        E 120 80 35 00
        E 120 90 3f 60
        E 120 80 3f 00
        E 120 90 35 60
        E 120 80 35 00
        E 120 90 35 60
        E 120 80 35 00
        E 120 90 37 60
        E 120 80 37 00
        E 120 90 35 60
        E 120 80 35 00
        E 120 90 35 60
        E 120 80 35 00
        E 120 90 35 60
        E 120 80 35 00
        E 120 90 3f 60
        E 120 80 3f 00
        E 120 90 35 60
        E 120 80 35 00
        E 120 90 37 60
        E 120 80 37 00
        E 120 90 35 60
        E 120 80 35 00
        E 120 90 3c 60
        E 120 80 3c 00
        E 120 90 3f 60
        E 120 80 3f 00
        E 120 80 74 00
        E 0 90 3a 60
        E 120 80 3a 00
        E 360 90 37 60
        E 120 80 37 00
        E 360 90 3a 60
        E 120 80 3a 00
        E 360 90 3c 60
        E 120 80 3c 00
        E 360 90 3f 60
        E 120 80 3f 00
        E 360 90 35 60
        E 120 80 35 00
        E 360 90 37 60
        E 120 80 37 00
        E 840 90 3a 60
        E 120 80 3a 00
        E 120 90 37 60
        E 120 80 37 00
        E 120 90 35 60
        E 120 80 35 00
        E 120 90 3f 60
        E 120 80 3f 00
        E 120 90 35 60
        E 120 80 35 00
        E 120 90 3a 60
        E 120 80 3a 00
        E 120 90 37 60
        E 120 80 37 00
        E 120 90 3a 60
        E 120 80 3a 00
        E 120 90 35 60
        E 120 80 35 00
        E 120 90 3c 60
        E 120 80 3c 00
        E 120 90 35 60
        E 120 80 35 00
        E 120 90 3a 60
        E 120 80 3a 00
        E 120 90 37 60
        E 120 80 37 00
        E 360 90 3e 60
        E 120 80 3e 00
        <X 360 0
          /wFbYmVnaW5fa2V5IHNvbmdfdHJhaW5lcl9rZXlfOF0=
        >
        <X 0 0
          /wFbZW5kX2tleSBzb25nX3RyYWluZXJfa2V5Xzdd
        >
        E 0 90 3c 60
        E 720 80 3c 00
        E 240 90 3a 60
        E 720 80 3a 00
        E 240 90 35 60
        E 720 80 35 00
        E 240 90 35 60
        E 720 80 35 00
        E 240 90 37 60
        E 3600 80 37 00
        E 240 90 3c 60
        E 120 80 3c 00
        E 360 90 3a 60
        E 120 80 3a 00
        E 360 90 3c 60
        E 120 80 3c 00
        E 360 90 3a 60
        E 120 80 3a 00
        E 360 90 35 60
        E 120 80 35 00
        E 360 90 3f 60
        E 120 80 3f 00
        E 360 90 35 60
        E 120 80 35 00
        E 360 90 3a 60
        E 120 80 3a 00
        E 840 90 37 60
        E 1200 80 37 00
        E 240 90 35 60
        E 1680 80 35 00
        <X 240 0
          /wFbZW5kX2tleSBzb25nX3RyYWluZXJfa2V5Xzhd
        >
        E 0 90 3c 60
        E 120 80 3c 00
        E 360 90 3a 60
        E 120 80 3a 00
        E 360 90 3c 60
        E 120 80 3c 00
        E 360 90 3f 60
        E 120 80 3f 00
        E 360 90 35 60
        E 120 80 35 00
        E 360 90 3c 60
        E 120 80 3c 00
        E 360 90 37 60
        E 120 80 37 00
        E 120 90 35 60
        E 120 80 35 00
        E 120 90 3c 60
        E 120 80 3c 00
        E 360 90 3c 60
        E 120 80 3c 00
        E 120 90 3a 60
        E 120 80 3a 00
        E 120 90 35 60
        E 120 80 35 00
        E 120 90 3f 60
        E 120 80 3f 00
        E 120 90 35 60
        E 120 80 35 00
        E 120 90 35 60
        E 120 80 35 00
        E 120 90 37 60
        E 120 80 37 00
        E 120 90 35 60
        E 120 80 35 00
        E 120 90 35 60
        E 120 80 35 00
        E 120 90 35 60
        E 120 80 35 00
        E 120 90 3f 60
        E 120 80 3f 00
        E 120 90 35 60
        E 120 80 35 00
        E 120 90 37 60
        E 120 80 37 00
        E 120 90 35 60
        E 120 80 35 00
        E 120 90 3c 60
        E 120 80 3c 00
        E 120 90 3f 60
        E 120 80 3f 00
        E 120 90 3a 60
        E 0 90 74 60
        E 120 80 3a 00
        E 360 90 37 60
        E 120 80 37 00
        E 360 90 3a 60
        E 120 80 3a 00
        E 360 90 3c 60
        E 120 80 3c 00
        E 360 90 3f 60
        E 120 80 3f 00
        E 360 90 35 60
        E 120 80 35 00
        E 360 90 37 60
        E 720 80 37 00
        E 240 90 35 60
        E 1680 80 35 00
        E 240 80 74 00
        E 0 90 39 60
        E 1680 80 39 00
        E 240 90 37 60
        E 3840 80 37 00
        <X 3840 0
          /wFbYmVnaW5fa2V5IHNvbmdfdHJhaW5lcl9rZXlfOV0=
        >
        E 0 90 35 60
        E 1680 80 35 00
        E 240 90 3c 60
        E 1680 80 3c 00
        <X 240 0
          /wFba2V5X25vcm0gc29uZ190cmFpbmVyX2tleV85XQ==
        >
        E 0 90 3e 60
        E 1680 80 3e 00
        E 240 90 3a 60
        E 1680 80 3a 00
        E 240 90 3e 60
        E 1680 80 3e 00
        E 240 90 37 60
        E 2640 80 37 00
        E 240 90 35 60
        E 720 80 35 00
        E 240 90 3a 60
        E 720 80 3a 00
        E 240 90 3f 60
        E 720 80 3f 00
        <X 240 0
          /wFbZW5kX2tleSBzb25nX3RyYWluZXJfa2V5Xzld
        >
        E 0 90 35 60
        E 1680 80 35 00
        E 240 90 3c 60
        E 1680 80 3c 00
        E 240 90 3e 60
        E 1680 80 3e 00
        E 240 90 3a 60
        E 1680 80 3a 00
        E 240 90 3e 60
        E 1680 80 3e 00
        E 240 90 37 60
        E 1920 90 74 60
        E 720 80 37 00
        E 240 90 35 60
        E 720 80 35 00
        E 240 90 3a 60
        E 720 80 3a 00
        E 240 90 3f 60
        E 720 80 3f 00
        E 240 80 74 00
        E 0 90 35 60
        E 1680 80 35 00
        E 240 90 3c 60
        E 1680 80 3c 00
        E 240 90 3e 60
        E 1680 80 3e 00
        E 240 90 3a 60
        E 1680 80 3a 00
        E 240 90 3e 60
        E 1680 80 3e 00
        E 240 90 37 60
        E 2640 80 37 00
        E 240 90 35 60
        E 720 80 35 00
        E 240 90 3a 60
        E 720 80 3a 00
        E 240 90 3f 60
        E 720 80 3f 00
        E 240 90 35 60
        E 1680 80 35 00
        E 240 90 3c 60
        E 1680 80 3c 00
        E 240 90 3e 60
        E 1680 80 3e 00
        E 240 90 3a 60
        E 1680 80 3a 00
        E 240 90 3e 60
        E 1680 80 3e 00
        E 240 90 37 60
        E 1920 90 74 60
        E 720 80 37 00
        E 240 90 35 60
        E 720 80 35 00
        E 240 90 3a 60
        E 720 80 3a 00
        E 240 90 3f 60
        E 720 80 3f 00
        E 240 90 37 60
        E 120 80 74 00
        E 0 80 37 00
        E 600 90 37 60
        E 120 80 37 00
        E 600 90 37 60
        E 120 80 37 00
        E 600 90 37 60
        E 120 80 37 00
        E 600 90 37 60
        E 120 80 37 00
        E 120 90 35 60
        E 120 80 35 00
        E 120 90 37 60
        E 120 80 37 00
        E 120 90 3a 60
        E 120 80 3a 00
        E 120 90 33 60
        E 120 80 33 00
        E 600 90 33 60
        E 120 80 33 00
        E 600 90 33 60
        E 120 80 33 00
        E 600 90 33 60
        E 120 80 33 00
        E 600 90 33 60
        E 120 80 33 00
        E 120 90 30 60
        E 120 80 30 00
        E 120 90 33 60
        E 120 80 33 00
        E 120 90 35 60
        E 120 80 35 00
        E 120 90 37 60
        E 120 80 37 00
        E 600 90 37 60
        E 120 80 37 00
        E 600 90 37 60
        E 120 80 37 00
        E 600 90 37 60
        E 120 80 37 00
        E 600 90 3c 60
        E 120 80 3c 00
        E 120 90 3a 60
        E 120 80 3a 00
        E 120 90 37 60
        E 120 80 37 00
        E 120 90 33 60
        E 120 80 33 00
        E 120 90 35 60
        E 120 80 35 00
        E 600 90 35 60
        E 120 80 35 00
        E 600 90 35 60
        E 120 80 35 00
        E 600 90 35 60
        E 120 80 35 00
        E 600 90 35 60
        E 120 80 35 00
        E 120 90 33 60
        E 120 80 33 00
        E 120 90 35 60
        E 120 80 35 00
        E 120 90 37 60
        E 120 80 37 00
        E 120 90 37 60
        E 120 80 37 00
        E 600 90 37 60
        E 120 80 37 00
        E 600 90 37 60
        E 120 80 37 00
        E 600 90 37 60
        E 120 80 37 00
        E 600 90 37 60
        E 120 80 37 00
        E 120 90 35 60
        E 120 80 35 00
        E 120 90 37 60
        E 120 80 37 00
        E 120 90 3a 60
        E 120 80 3a 00
        E 120 90 33 60
        E 120 80 33 00
        E 600 90 33 60
        E 120 80 33 00
        E 600 90 33 60
        E 120 80 33 00
        E 600 90 33 60
        E 120 80 33 00
        E 600 90 33 60
        E 120 80 33 00
        E 120 90 30 60
        E 120 80 30 00
        E 120 90 33 60
        E 120 80 33 00
        E 120 90 35 60
        E 120 80 35 00
        E 120 90 37 60
        E 120 80 37 00
        E 600 90 37 60
        E 120 80 37 00
        E 600 90 37 60
        E 120 80 37 00
        E 600 90 37 60
        E 120 80 37 00
        E 600 90 3c 60
        E 120 80 3c 00
        E 120 90 3a 60
        E 120 80 3a 00
        E 120 90 37 60
        E 120 80 37 00
        E 120 90 33 60
        E 120 80 33 00
        E 120 90 35 60
        E 120 80 35 00
        E 600 90 35 60
        E 120 80 35 00
        E 600 90 35 60
        E 120 80 35 00
        E 600 90 35 60
        E 120 80 35 00
        E 600 90 35 60
        E 120 80 35 00
        E 120 90 33 60
        E 120 80 33 00
        E 120 90 35 60
        E 120 80 35 00
        E 120 90 37 60
        E 120 80 37 00
        E 120 90 35 60
        E 120 80 35 00
        E 600 90 35 60
        E 120 80 35 00
        E 600 90 35 60
        E 120 80 35 00
        E 600 90 35 60
        E 120 80 35 00
        E 600 90 35 60
        E 120 80 35 00
        E 120 90 33 60
        E 120 80 33 00
        E 120 90 35 60
        E 120 80 35 00
        E 120 90 37 60
        E 120 80 37 00
        E 120 90 35 60
        E 120 80 35 00
        E 600 90 35 60
        E 120 80 35 00
        E 600 90 35 60
        E 120 80 35 00
        E 600 90 35 60
        E 120 80 35 00
        E 600 90 35 60
        E 120 80 35 00
        E 120 90 33 60
        E 120 80 33 00
        E 120 90 35 60
        E 120 80 35 00
        E 120 90 37 60
        E 120 80 37 00
        E 120 90 35 60
        E 0 90 74 60
        E 120 80 35 00
        E 600 90 35 60
        E 120 80 35 00
        E 600 90 35 60
        E 120 80 35 00
        E 600 90 35 60
        E 120 80 35 00
        E 600 90 35 60
        E 120 80 35 00
        E 120 90 33 60
        E 120 80 33 00
        E 120 90 35 60
        E 120 80 74 00
        E 0 80 35 00
        E 120 90 37 60
        E 120 80 37 00
        E 2040 90 3c 60
        E 120 80 3c 00
        E 360 90 3a 60
        E 120 80 3a 00
        E 360 90 37 60
        E 120 80 37 00
        E 360 90 35 60
        E 120 80 35 00
        E 360 90 37 60
        E 120 80 37 00
        E 360 90 35 60
        E 120 80 35 00
        E 360 90 33 60
        E 120 80 33 00
        E 360 90 35 60
        E 120 80 35 00
        E 840 90 30 60
        E 3120 80 30 00
        E 240 90 30 60
        E 120 80 30 00
        E 360 90 3a 60
        E 120 80 3a 00
        E 360 90 30 60
        E 120 80 30 00
        E 360 90 3a 60
        E 120 80 3a 00
        E 360 90 35 60
        E 120 80 35 00
        E 360 90 33 60
        E 120 80 33 00
        E 360 90 35 60
        E 120 80 35 00
        E 360 90 3a 60
        E 120 80 3a 00
        E 840 90 37 60
        E 1200 80 37 00
        E 240 90 35 60
        E 1680 80 35 00
        E 240 90 3c 60
        E 120 80 3c 00
        E 360 90 3a 60
        E 120 80 3a 00
        E 360 90 3c 60
        E 120 80 3c 00
        E 360 90 3f 60
        E 120 80 3f 00
        E 360 90 35 60
        E 120 80 35 00
        E 360 90 3c 60
        E 120 80 3c 00
        E 360 90 37 60
        E 120 80 37 00
        E 120 90 35 60
        E 120 80 35 00
        E 120 90 3c 60
        E 120 80 3c 00
        E 360 90 3c 60
        E 120 80 3c 00
        E 120 90 3a 60
        E 120 80 3a 00
        E 120 90 35 60
        E 120 80 35 00
        E 120 90 3f 60
        E 120 80 3f 00
        E 120 90 35 60
        E 120 80 35 00
        E 120 90 35 60
        E 120 80 35 00
        E 120 90 37 60
        E 120 80 37 00
        E 120 90 35 60
        E 120 80 35 00
        E 120 90 35 60
        E 0 90 74 60
        E 120 80 35 00
        E 120 90 35 60
        E 120 80 35 00
        E 120 90 3f 60
        E 120 80 3f 00
        E 120 90 35 60
        E 120 80 35 00
        E 120 90 37 60
        E 120 80 37 00
        E 120 90 35 60
        E 120 80 35 00
        E 120 90 3c 60
        E 120 80 3c 00
        E 120 90 3f 60
        E 120 80 3f 00
        E 120 80 74 00
        E 0 90 3a 60
        E 120 80 3a 00
        E 360 90 37 60
        E 120 80 37 00
        E 360 90 3a 60
        E 120 80 3a 00
        E 360 90 3c 60
        E 120 80 3c 00
        E 360 90 3f 60
        E 120 80 3f 00
        E 360 90 35 60
        E 120 80 35 00
        E 360 90 37 60
        E 120 80 37 00
        E 840 90 3a 60
        E 120 80 3a 00
        E 120 90 37 60
        E 120 80 37 00
        E 120 90 35 60
        E 120 80 35 00
        E 120 90 3f 60
        E 120 80 3f 00
        E 120 90 35 60
        E 120 80 35 00
        E 120 90 3a 60
        E 120 80 3a 00
        E 120 90 37 60
        E 120 80 37 00
        E 120 90 3a 60
        E 120 80 3a 00
        E 120 90 35 60
        E 120 80 35 00
        E 120 90 3c 60
        E 120 80 3c 00
        E 120 90 35 60
        E 120 80 35 00
        E 120 90 3a 60
        E 120 80 3a 00
        E 120 90 37 60
        E 120 80 37 00
        E 360 90 3e 60
        E 120 80 3e 00
        E 360 90 3c 60
        E 720 80 3c 00
        E 240 90 3a 60
        E 720 80 3a 00
        E 240 90 35 60
        E 720 80 35 00
        E 240 90 35 60
        E 720 80 35 00
        E 240 90 37 60
        E 3600 80 37 00
        E 240 90 3c 60
        E 120 80 3c 00
        E 360 90 3a 60
        E 120 80 3a 00
        E 360 90 3c 60
        E 120 80 3c 00
        E 360 90 3a 60
        E 120 80 3a 00
        E 360 90 35 60
        E 120 80 35 00
        E 360 90 3f 60
        E 120 80 3f 00
        E 360 90 35 60
        E 120 80 35 00
        E 360 90 3a 60
        E 120 80 3a 00
        E 840 90 37 60
        E 1200 80 37 00
        E 240 90 35 60
        E 1680 80 35 00
        E 240 90 3c 60
        E 120 80 3c 00
        E 360 90 3a 60
        E 120 80 3a 00
        E 360 90 3c 60
        E 0 90 74 60
        E 120 80 3c 00
        E 360 90 3f 60
        E 120 80 3f 00
        E 360 90 35 60
        E 120 80 35 00
        E 360 90 3c 60
        E 120 80 3c 00
        E 360 90 37 60
        E 120 80 37 00
        E 120 90 35 60
        E 120 80 35 00
        E 120 90 3c 60
        E 120 80 3c 00
        E 360 90 3c 60
        E 120 80 3c 00
        E 120 90 3a 60
        E 120 80 3a 00
        E 120 90 35 60
        E 120 80 35 00
        E 120 90 3f 60
        E 120 80 3f 00
        E 120 90 35 60
        E 120 80 35 00
        E 120 90 35 60
        E 120 80 35 00
        E 120 80 74 00
        E 0 90 37 60
        E 120 80 37 00
        E 120 90 35 60
        E 120 80 35 00
        E 120 90 35 60
        E 120 80 35 00
        E 120 90 35 60
        E 120 80 35 00
        E 120 90 3f 60
        E 120 80 3f 00
        E 120 90 35 60
        E 120 80 35 00
        E 120 90 37 60
        E 120 80 37 00
        E 120 90 35 60
        E 120 80 35 00
        E 120 90 3c 60
        E 120 80 3c 00
        E 120 90 3f 60
        E 120 80 3f 00
        E 120 90 3a 60
        E 120 80 3a 00
        E 360 90 37 60
        E 120 80 37 00
        E 360 90 3a 60
        E 120 80 3a 00
        E 360 90 3c 60
        E 120 80 3c 00
        E 360 90 3f 60
        E 120 80 3f 00
        E 360 90 35 60
        E 120 80 35 00
        E 360 90 37 60
        E 720 80 37 00
        E 240 90 35 60
        E 1680 80 35 00
        E 240 90 3a 60
        E 720 80 3a 00
        E 240 90 39 60
        E 720 80 39 00
        E 240 90 37 60
        E 3840 80 37 00
        E 1920 90 35 60
        E 720 80 35 00
        E 240 90 37 60
        E 720 80 37 00
        E 240 90 3a 60
        E 21119 80 3a 00
        E 5761 b0 7b 00
        GUID {E6414106-A769-4A0F-8DF4-C9273B97FBC2}
        IGNTEMPO 0 120.00000000 4 4
        SRCCOLOR 5
        VELLANE 132 128 60
        COLORMAP "C:\Program Files\REAPER (x64)\Data\color_maps\rockband_guitarbass.png"
        CFGEDITVIEW -4879.484042 21.662927 0 13 0 0 0
        CFGEDIT 1 1 0 1 1 0 1 1 1 1 1 0.25000000 -8 -8 1544 872 0 2 1 1 0.00000000 0 1 1 0 0.500000 0 0 1.000000 64
        KEYSNAP 0 7 "102030050700" 0 "Pentatonic"
        EVTFILTER 0 -1 -1 -1 -1 0 1 0 0 -1.00000000 -1.00000000
      >
    >
  >
  <TRACK '{FD8CFD16-AB31-45B1-BB53-14F7D21BFBE1}'
    NAME "PART REAL_KEYS_H"
    PEAKCOL 16576
    BEAT -1
    AUTOMODE 0
    VOLPAN 1.00000000000000 0.00000000000000 -1.00000000000000 -1.00000000000000 1.00000000000000
    MUTESOLO 0 0 0
    IPHASE 0
    ISBUS 0 0
    BUSCOMP 0 0
    SHOWINMIX 1 0.666700 0.500000 1 0.500000 -1 -1 -1
    FREEMODE 0
    SEL 0
    REC 0 0 0 0 0 0 0
    VU 2
    TRACKHEIGHT 0 0
    INQ 0 0 0 0.5000000000 100 0 0 100
    NCHAN 2
    FX 1
    TRACKID {FD8CFD16-AB31-45B1-BB53-14F7D21BFBE1}
    PERF 0
    MIDIOUT -1
    <MIDINOTENAMES
      0 72 "Highest playable note B#3"
      0 71 "B3"
      0 70 "A#3"
      0 69 "A3"
      0 68 "G#3"
      0 67 "G3"
      0 66 "F#3"
      0 65 "F3"
      0 64 "E3"
      0 63 "D#3"
      0 62 "D3"
      0 61 "C#3"
      0 60 "C3"
      0 59 "B2"
      0 58 "A#2"
      0 57 "A2"
      0 56 "G#2"
      0 55 "G2"
      0 54 "F#2"
      0 53 "F2"
      0 52 "E2"
      0 51 "D#2"
      0 50 "D2"
      0 49 "C#2"
      0 48 "Lowest playable note C2"
      0 10 "---"
      0 9 "Range A2-C4"
      0 8 "Range"
      0 7 "Range"
      0 6 "Range"
      0 5 "Range F2-A3"
      0 4 "Range"
      0 3 "Range"
      0 2 "Range"
      0 1 "Range"
      0 0 "Range C2-E3"
    >
    MAINSEND 1 0
    <FXCHAIN
      SHOW 0
      LASTSEL 0
      DOCKED 0
    >
    <ITEM
      POSITION 0.00000000000000
      SNAPOFFS 0.00000000000000
      LENGTH 286.40908800000000
      LOOP 0
      ALLTAKES 0
      SEL 0
      FADEIN 1 0.000000 0.000000 1 0
      FADEOUT 1 0.000000 0.000000 1 0
      MUTE 0
      IGUID {D0F362D4-9710-4B44-A45E-C88227F1265F}
      IID 6
      NAME "PART REAL_KEYS_H"
      VOLPAN 1.000000 0.000000 1.000000 -1.000000
      SOFFS 0.00000000000000 0.00000000000000
      PLAYRATE 1.00000000000000 1 0.00000000000000 -1
      CHANMODE 0
      GUID {9D9B9396-F10E-4820-8154-CC2325982E2D}
      <SOURCE MIDI
        HASDATA 1 480 QN
        POOLEDEVTS {88F3F799-FFA1-4158-AE6D-DEA24F394751}
        <X 0 0
          /wNQQVJUIFJFQUxfS0VZU19I
        >
        E 0 90 00 60
        E 120 80 00 00
        E 5640 90 37 60
        E 0 90 3c 60
        E 0 90 3f 60
        E 3600 80 37 00
        E 0 80 3c 00
        E 0 80 3f 00
        E 240 90 37 60
        E 0 90 3a 60
        E 0 90 3f 60
        E 3600 80 37 00
        E 0 80 3a 00
        E 0 80 3f 00
        E 240 90 32 60
        E 0 90 37 60
        E 0 90 3a 60
        E 3600 80 32 00
        E 0 80 37 00
        E 0 80 3a 00
        E 240 90 35 60
        E 0 90 3a 60
        E 0 90 3e 60
        E 3600 80 35 00
        E 0 80 3a 00
        E 0 80 3e 00
        E 240 90 37 60
        E 0 90 3c 60
        E 0 90 3f 60
        E 3600 80 37 00
        E 0 80 3c 00
        E 0 80 3f 00
        E 240 90 37 60
        E 0 90 3a 60
        E 0 90 3f 60
        E 3600 80 37 00
        E 0 80 3a 00
        E 0 80 3f 00
        E 240 90 32 60
        E 0 90 37 60
        E 0 90 3a 60
        E 3600 80 32 00
        E 0 80 37 00
        E 0 80 3a 00
        E 240 90 35 60
        E 0 90 3a 60
        E 0 90 3e 60
        E 3600 80 35 00
        E 0 80 3a 00
        E 0 80 3e 00
        E 240 90 33 60
        E 120 80 33 00
        E 360 90 37 60
        E 120 80 37 00
        E 360 90 3a 60
        E 120 80 3a 00
        E 360 90 37 60
        E 120 80 37 00
        E 360 90 3c 60
        E 720 80 3c 00
        E 240 90 3a 60
        E 720 80 3a 00
        E 240 90 33 60
        E 120 80 33 00
        E 360 90 35 60
        E 120 80 35 00
        E 360 90 37 60
        E 120 80 37 00
        E 360 90 33 60
        E 120 80 33 00
        E 360 90 32 60
        E 720 80 32 00
        E 240 90 30 60
        E 720 80 30 00
        E 240 90 3a 60
        E 120 80 3a 00
        E 360 90 30 60
        E 120 80 30 00
        E 360 90 33 60
        E 120 80 33 00
        E 360 90 30 60
        E 120 80 30 00
        E 360 90 35 60
        E 120 80 35 00
        E 120 90 33 60
        E 120 80 33 00
        E 120 90 35 60
        E 120 80 35 00
        E 120 90 3a 60
        E 120 80 3a 00
        E 120 90 37 60
        E 120 80 37 00
        E 360 90 35 60
        E 120 80 35 00
        E 360 90 33 60
        E 120 80 33 00
        E 360 90 35 60
        E 120 80 35 00
        E 360 90 37 60
        E 120 80 37 00
        E 360 90 33 60
        E 120 80 33 00
        E 360 90 3a 60
        E 120 80 3a 00
        E 360 90 3c 60
        E 120 80 3c 00
        E 360 90 3a 60
        E 120 80 3a 00
        E 360 90 37 60
        E 120 80 37 00
        E 360 90 33 60
        E 120 80 33 00
        E 360 90 37 60
        E 120 80 37 00
        E 360 90 3a 60
        E 120 80 3a 00
        E 360 90 37 60
        E 120 80 37 00
        E 360 90 3c 60
        E 720 80 3c 00
        E 240 90 3a 60
        E 720 80 3a 00
        E 240 90 33 60
        E 120 80 33 00
        E 360 90 35 60
        E 120 80 35 00
        E 360 90 37 60
        E 120 80 37 00
        E 360 90 33 60
        E 120 80 33 00
        E 360 90 32 60
        E 720 80 32 00
        E 240 90 30 60
        E 720 80 30 00
        E 240 90 3a 60
        E 120 80 3a 00
        E 360 90 30 60
        E 120 80 30 00
        E 360 90 33 60
        E 120 80 33 00
        E 360 90 30 60
        E 120 80 30 00
        E 360 90 35 60
        E 120 80 35 00
        E 120 90 33 60
        E 120 80 33 00
        E 120 90 35 60
        E 120 80 35 00
        E 120 90 3a 60
        E 120 80 3a 00
        E 120 90 37 60
        E 120 80 37 00
        E 360 90 35 60
        E 120 80 35 00
        E 360 90 33 60
        E 120 80 33 00
        E 840 90 37 60
        E 120 80 37 00
        E 360 90 33 60
        E 120 80 33 00
        E 360 90 3a 60
        E 120 80 3a 00
        E 360 90 3c 60
        E 120 80 3c 00
        E 360 90 3a 60
        E 120 80 3a 00
        E 360 90 37 60
        E 120 80 37 00
        E 360 90 33 60
        E 3600 80 33 00
        E 240 90 37 60
        E 0 90 3a 60
        E 0 90 3f 60
        E 3600 80 37 00
        E 0 80 3a 00
        E 0 80 3f 00
        E 240 90 32 60
        E 0 90 37 60
        E 0 90 3a 60
        E 3600 80 32 00
        E 0 80 37 00
        E 0 80 3a 00
        E 240 90 35 60
        E 0 90 3a 60
        E 0 90 3e 60
        E 3600 80 35 00
        E 0 80 3a 00
        E 0 80 3e 00
        E 240 90 37 60
        E 0 90 3c 60
        E 0 90 3f 60
        E 3600 80 37 00
        E 0 80 3c 00
        E 0 80 3f 00
        E 240 90 37 60
        E 0 90 3a 60
        E 0 90 3f 60
        E 3600 80 37 00
        E 0 80 3a 00
        E 0 80 3f 00
        E 240 90 32 60
        E 0 90 37 60
        E 0 90 3a 60
        E 3600 80 32 00
        E 0 80 37 00
        E 0 80 3a 00
        E 240 90 35 60
        E 0 90 3a 60
        E 0 90 3e 60
        E 3600 80 35 00
        E 0 80 3a 00
        E 0 80 3e 00
        E 240 90 37 60
        E 720 80 37 00
        E 240 90 35 60
        E 720 80 35 00
        E 240 90 33 60
        E 120 80 33 00
        E 360 90 37 60
        E 120 80 37 00
        E 360 90 35 60
        E 120 80 35 00
        E 360 90 30 60
        E 1680 80 30 00
        E 240 90 3a 60
        E 120 80 3a 00
        E 360 90 33 60
        E 120 80 33 00
        E 360 90 3a 60
        E 120 80 3a 00
        E 360 90 3a 60
        E 720 80 3a 00
        E 240 90 3c 60
        E 120 80 3c 00
        E 120 90 37 60
        E 120 80 37 00
        E 120 90 30 60
        E 120 80 30 00
        E 120 90 3a 60
        E 120 80 3a 00
        E 120 90 37 60
        E 120 80 37 00
        E 120 90 33 60
        E 120 80 33 00
        E 120 90 35 60
        E 120 80 35 00
        E 120 90 35 60
        E 120 80 35 00
        E 120 90 33 60
        E 120 80 33 00
        E 360 90 35 60
        E 120 80 35 00
        E 360 90 37 60
        E 120 80 37 00
        E 360 90 33 60
        E 480 80 33 00
        E 240 90 35 60
        E 120 80 35 00
        E 120 90 3f 60
        E 120 80 3f 00
        E 120 90 35 60
        E 120 80 35 00
        E 120 90 37 60
        E 120 80 37 00
        E 360 90 35 60
        E 120 80 35 00
        E 600 90 3a 60
        E 120 80 3a 00
        E 120 90 3f 60
        E 120 80 3f 00
        E 120 90 35 60
        E 120 80 35 00
        E 120 90 37 60
        E 120 80 37 00
        E 360 90 3a 60
        E 120 80 3a 00
        E 120 90 3a 60
        E 120 80 3a 00
        E 120 90 37 60
        E 120 80 37 00
        E 360 90 35 60
        E 120 80 35 00
        E 360 90 3a 60
        E 120 80 3a 00
        E 360 90 35 60
        E 120 80 35 00
        E 360 90 3c 60
        E 120 80 3c 00
        E 360 90 3f 60
        E 120 80 3f 00
        E 360 90 3a 60
        E 120 80 3a 00
        E 360 90 33 60
        E 720 80 33 00
        E 240 90 30 60
        E 120 80 30 00
        E 360 90 33 60
        E 120 80 33 00
        E 360 90 30 60
        E 120 80 30 00
        E 360 90 35 60
        E 120 80 35 00
        E 360 90 37 60
        E 120 80 37 00
        E 360 90 35 60
        E 120 80 35 00
        E 360 90 33 60
        E 120 80 33 00
        E 360 90 38 60
        E 720 80 38 00
        E 240 90 37 60
        E 720 80 37 00
        E 240 90 35 60
        E 720 80 35 00
        E 240 90 33 60
        E 720 80 33 00
        E 240 90 38 60
        E 720 80 38 00
        E 1200 90 35 60
        E 720 80 35 00
        E 240 90 37 60
        E 720 80 37 00
        E 240 90 37 60
        E 120 80 37 00
        E 600 90 37 60
        E 120 80 37 00
        E 600 90 37 60
        E 120 80 37 00
        E 600 90 37 60
        E 120 80 37 00
        E 600 90 37 60
        E 120 80 37 00
        E 120 90 35 60
        E 120 80 35 00
        E 120 90 37 60
        E 120 80 37 00
        E 120 90 3a 60
        E 120 80 3a 00
        E 120 90 33 60
        E 120 80 33 00
        E 600 90 33 60
        E 120 80 33 00
        E 600 90 33 60
        E 120 80 33 00
        E 600 90 33 60
        E 120 80 33 00
        E 600 90 33 60
        E 120 80 33 00
        E 120 90 30 60
        E 120 80 30 00
        E 120 90 33 60
        E 120 80 33 00
        E 120 90 35 60
        E 120 80 35 00
        E 120 90 37 60
        E 120 80 37 00
        E 600 90 37 60
        E 120 80 37 00
        E 600 90 37 60
        E 120 80 37 00
        E 600 90 37 60
        E 120 80 37 00
        E 600 90 3c 60
        E 120 80 3c 00
        E 120 90 3a 60
        E 120 80 3a 00
        E 120 90 37 60
        E 120 80 37 00
        E 120 90 33 60
        E 120 80 33 00
        E 120 90 35 60
        E 120 80 35 00
        E 600 90 35 60
        E 120 80 35 00
        E 600 90 35 60
        E 120 80 35 00
        E 600 90 35 60
        E 120 80 35 00
        E 600 90 35 60
        E 120 80 35 00
        E 120 90 33 60
        E 120 80 33 00
        E 120 90 35 60
        E 120 80 35 00
        E 120 90 37 60
        E 120 80 37 00
        E 120 90 3c 60
        E 120 80 3c 00
        E 360 90 3a 60
        E 120 80 3a 00
        E 360 90 37 60
        E 120 80 37 00
        E 360 90 35 60
        E 120 80 35 00
        E 360 90 37 60
        E 120 80 37 00
        E 360 90 35 60
        E 120 80 35 00
        E 360 90 33 60
        E 120 80 33 00
        E 360 90 35 60
        E 120 80 35 00
        E 840 90 30 60
        E 3120 80 30 00
        E 240 90 30 60
        E 120 80 30 00
        E 360 90 3a 60
        E 120 80 3a 00
        E 360 90 30 60
        E 120 80 30 00
        E 360 90 3a 60
        E 120 80 3a 00
        E 360 90 35 60
        E 120 80 35 00
        E 360 90 33 60
        E 120 80 33 00
        E 360 90 35 60
        E 120 80 35 00
        E 360 90 3a 60
        E 120 80 3a 00
        E 840 90 37 60
        E 1200 80 37 00
        E 240 90 35 60
        E 1680 80 35 00
        E 240 90 3c 60
        E 120 80 3c 00
        E 360 90 3a 60
        E 120 80 3a 00
        E 360 90 3c 60
        E 120 80 3c 00
        E 360 90 3f 60
        E 120 80 3f 00
        E 360 90 35 60
        E 120 80 35 00
        E 360 90 3c 60
        E 120 80 3c 00
        E 360 90 37 60
        E 120 80 37 00
        E 120 90 35 60
        E 120 80 35 00
        E 120 90 3c 60
        E 120 80 3c 00
        E 360 90 3c 60
        E 120 80 3c 00
        E 120 90 3a 60
        E 120 80 3a 00
        E 120 90 35 60
        E 120 80 35 00
        E 120 90 3f 60
        E 120 80 3f 00
        E 120 90 35 60
        E 120 80 35 00
        E 120 90 35 60
        E 120 80 35 00
        E 120 90 37 60
        E 120 80 37 00
        E 120 90 35 60
        E 120 80 35 00
        E 120 90 35 60
        E 120 80 35 00
        E 120 90 35 60
        E 120 80 35 00
        E 120 90 3f 60
        E 120 80 3f 00
        E 120 90 35 60
        E 120 80 35 00
        E 120 90 37 60
        E 120 80 37 00
        E 120 90 35 60
        E 120 80 35 00
        E 120 90 3c 60
        E 120 80 3c 00
        E 120 90 3f 60
        E 120 80 3f 00
        E 120 90 3a 60
        E 120 80 3a 00
        E 360 90 37 60
        E 120 80 37 00
        E 360 90 3a 60
        E 120 80 3a 00
        E 360 90 3c 60
        E 120 80 3c 00
        E 360 90 3f 60
        E 120 80 3f 00
        E 360 90 35 60
        E 120 80 35 00
        E 360 90 37 60
        E 120 80 37 00
        E 840 90 3a 60
        E 120 80 3a 00
        E 120 90 37 60
        E 120 80 37 00
        E 120 90 35 60
        E 120 80 35 00
        E 120 90 3f 60
        E 120 80 3f 00
        E 120 90 35 60
        E 120 80 35 00
        E 120 90 3a 60
        E 120 80 3a 00
        E 120 90 37 60
        E 120 80 37 00
        E 120 90 3a 60
        E 120 80 3a 00
        E 120 90 35 60
        E 120 80 35 00
        E 120 90 3c 60
        E 120 80 3c 00
        E 120 90 35 60
        E 120 80 35 00
        E 120 90 3a 60
        E 120 80 3a 00
        E 120 90 37 60
        E 120 80 37 00
        E 360 90 3e 60
        E 120 80 3e 00
        E 360 90 3c 60
        E 720 80 3c 00
        E 240 90 3a 60
        E 720 80 3a 00
        E 240 90 35 60
        E 720 80 35 00
        E 240 90 35 60
        E 720 80 35 00
        E 240 90 37 60
        E 3600 80 37 00
        E 240 90 3c 60
        E 120 80 3c 00
        E 360 90 3a 60
        E 120 80 3a 00
        E 360 90 3c 60
        E 120 80 3c 00
        E 360 90 3a 60
        E 120 80 3a 00
        E 360 90 35 60
        E 120 80 35 00
        E 360 90 3f 60
        E 120 80 3f 00
        E 360 90 35 60
        E 120 80 35 00
        E 360 90 3a 60
        E 120 80 3a 00
        E 840 90 37 60
        E 1200 80 37 00
        E 240 90 35 60
        E 1680 80 35 00
        E 240 90 3c 60
        E 120 80 3c 00
        E 360 90 3a 60
        E 120 80 3a 00
        E 360 90 3c 60
        E 120 80 3c 00
        E 360 90 3f 60
        E 120 80 3f 00
        E 360 90 35 60
        E 120 80 35 00
        E 360 90 3c 60
        E 120 80 3c 00
        E 360 90 37 60
        E 120 80 37 00
        E 120 90 35 60
        E 120 80 35 00
        E 120 90 3c 60
        E 120 80 3c 00
        E 360 90 3c 60
        E 120 80 3c 00
        E 120 90 3a 60
        E 120 80 3a 00
        E 120 90 35 60
        E 120 80 35 00
        E 120 90 3f 60
        E 120 80 3f 00
        E 120 90 35 60
        E 120 80 35 00
        E 120 90 35 60
        E 120 80 35 00
        E 120 90 37 60
        E 120 80 37 00
        E 120 90 35 60
        E 120 80 35 00
        E 120 90 35 60
        E 120 80 35 00
        E 120 90 35 60
        E 120 80 35 00
        E 120 90 3f 60
        E 120 80 3f 00
        E 120 90 35 60
        E 120 80 35 00
        E 120 90 37 60
        E 120 80 37 00
        E 120 90 35 60
        E 120 80 35 00
        E 120 90 3c 60
        E 120 80 3c 00
        E 120 90 3f 60
        E 120 80 3f 00
        E 120 90 3a 60
        E 120 80 3a 00
        E 360 90 37 60
        E 120 80 37 00
        E 360 90 3a 60
        E 120 80 3a 00
        E 360 90 3c 60
        E 120 80 3c 00
        E 360 90 3f 60
        E 120 80 3f 00
        E 360 90 35 60
        E 120 80 35 00
        E 360 90 37 60
        E 720 80 37 00
        E 240 90 35 60
        E 1680 80 35 00
        E 240 90 39 60
        E 1680 80 39 00
        E 240 90 37 60
        E 3840 80 37 00
        E 3840 90 35 60
        E 1680 80 35 00
        E 240 90 3c 60
        E 1680 80 3c 00
        E 240 90 3e 60
        E 1680 80 3e 00
        E 240 90 3a 60
        E 1680 80 3a 00
        E 240 90 3e 60
        E 1680 80 3e 00
        E 240 90 37 60
        E 2640 80 37 00
        E 240 90 35 60
        E 720 80 35 00
        E 240 90 3a 60
        E 720 80 3a 00
        E 240 90 3f 60
        E 720 80 3f 00
        E 240 90 35 60
        E 1680 80 35 00
        E 240 90 3c 60
        E 1680 80 3c 00
        E 240 90 3e 60
        E 1680 80 3e 00
        E 240 90 3a 60
        E 1680 80 3a 00
        E 240 90 3e 60
        E 1680 80 3e 00
        E 240 90 37 60
        E 2640 80 37 00
        E 240 90 35 60
        E 720 80 35 00
        E 240 90 3a 60
        E 720 80 3a 00
        E 240 90 3f 60
        E 720 80 3f 00
        E 240 90 35 60
        E 1680 80 35 00
        E 240 90 3c 60
        E 1680 80 3c 00
        E 240 90 3e 60
        E 1680 80 3e 00
        E 240 90 3a 60
        E 1680 80 3a 00
        E 240 90 3e 60
        E 1680 80 3e 00
        E 240 90 37 60
        E 2640 80 37 00
        E 240 90 35 60
        E 720 80 35 00
        E 240 90 3a 60
        E 720 80 3a 00
        E 240 90 3f 60
        E 720 80 3f 00
        E 240 90 35 60
        E 1680 80 35 00
        E 240 90 3c 60
        E 1680 80 3c 00
        E 240 90 3e 60
        E 1680 80 3e 00
        E 240 90 3a 60
        E 1680 80 3a 00
        E 240 90 3e 60
        E 1680 80 3e 00
        E 240 90 37 60
        E 2640 80 37 00
        E 240 90 35 60
        E 720 80 35 00
        E 240 90 3a 60
        E 720 80 3a 00
        E 240 90 3f 60
        E 720 80 3f 00
        E 240 90 37 60
        E 120 80 37 00
        E 600 90 37 60
        E 120 80 37 00
        E 600 90 37 60
        E 120 80 37 00
        E 600 90 37 60
        E 120 80 37 00
        E 600 90 37 60
        E 120 80 37 00
        E 120 90 35 60
        E 120 80 35 00
        E 120 90 37 60
        E 120 80 37 00
        E 120 90 3a 60
        E 120 80 3a 00
        E 120 90 33 60
        E 120 80 33 00
        E 600 90 33 60
        E 120 80 33 00
        E 600 90 33 60
        E 120 80 33 00
        E 600 90 33 60
        E 120 80 33 00
        E 600 90 33 60
        E 120 80 33 00
        E 120 90 30 60
        E 120 80 30 00
        E 120 90 33 60
        E 120 80 33 00
        E 120 90 35 60
        E 120 80 35 00
        E 120 90 37 60
        E 120 80 37 00
        E 600 90 37 60
        E 120 80 37 00
        E 600 90 37 60
        E 120 80 37 00
        E 600 90 37 60
        E 120 80 37 00
        E 600 90 3c 60
        E 120 80 3c 00
        E 120 90 3a 60
        E 120 80 3a 00
        E 120 90 37 60
        E 120 80 37 00
        E 120 90 33 60
        E 120 80 33 00
        E 120 90 35 60
        E 120 80 35 00
        E 600 90 35 60
        E 120 80 35 00
        E 600 90 35 60
        E 120 80 35 00
        E 600 90 35 60
        E 120 80 35 00
        E 600 90 35 60
        E 120 80 35 00
        E 120 90 33 60
        E 120 80 33 00
        E 120 90 35 60
        E 120 80 35 00
        E 120 90 37 60
        E 120 80 37 00
        E 120 90 37 60
        E 120 80 37 00
        E 600 90 37 60
        E 120 80 37 00
        E 600 90 37 60
        E 120 80 37 00
        E 600 90 37 60
        E 120 80 37 00
        E 600 90 37 60
        E 120 80 37 00
        E 120 90 35 60
        E 120 80 35 00
        E 120 90 37 60
        E 120 80 37 00
        E 120 90 3a 60
        E 120 80 3a 00
        E 120 90 33 60
        E 120 80 33 00
        E 600 90 33 60
        E 120 80 33 00
        E 600 90 33 60
        E 120 80 33 00
        E 600 90 33 60
        E 120 80 33 00
        E 600 90 33 60
        E 120 80 33 00
        E 120 90 30 60
        E 120 80 30 00
        E 120 90 33 60
        E 120 80 33 00
        E 120 90 35 60
        E 120 80 35 00
        E 120 90 37 60
        E 120 80 37 00
        E 600 90 37 60
        E 120 80 37 00
        E 600 90 37 60
        E 120 80 37 00
        E 600 90 37 60
        E 120 80 37 00
        E 600 90 3c 60
        E 120 80 3c 00
        E 120 90 3a 60
        E 120 80 3a 00
        E 120 90 37 60
        E 120 80 37 00
        E 120 90 33 60
        E 120 80 33 00
        E 120 90 35 60
        E 120 80 35 00
        E 600 90 35 60
        E 120 80 35 00
        E 600 90 35 60
        E 120 80 35 00
        E 600 90 35 60
        E 120 80 35 00
        E 600 90 35 60
        E 120 80 35 00
        E 120 90 33 60
        E 120 80 33 00
        E 120 90 35 60
        E 120 80 35 00
        E 120 90 37 60
        E 120 80 37 00
        E 120 90 35 60
        E 120 80 35 00
        E 600 90 35 60
        E 120 80 35 00
        E 600 90 35 60
        E 120 80 35 00
        E 600 90 35 60
        E 120 80 35 00
        E 600 90 35 60
        E 120 80 35 00
        E 120 90 33 60
        E 120 80 33 00
        E 120 90 35 60
        E 120 80 35 00
        E 120 90 37 60
        E 120 80 37 00
        E 120 90 35 60
        E 120 80 35 00
        E 600 90 35 60
        E 120 80 35 00
        E 600 90 35 60
        E 120 80 35 00
        E 600 90 35 60
        E 120 80 35 00
        E 600 90 35 60
        E 120 80 35 00
        E 120 90 33 60
        E 120 80 33 00
        E 120 90 35 60
        E 120 80 35 00
        E 120 90 37 60
        E 120 80 37 00
        E 120 90 35 60
        E 120 80 35 00
        E 600 90 35 60
        E 120 80 35 00
        E 600 90 35 60
        E 120 80 35 00
        E 600 90 35 60
        E 120 80 35 00
        E 600 90 35 60
        E 120 80 35 00
        E 120 90 33 60
        E 120 80 33 00
        E 120 90 35 60
        E 120 80 35 00
        E 120 90 37 60
        E 120 80 37 00
        E 2040 90 3c 60
        E 120 80 3c 00
        E 360 90 3a 60
        E 120 80 3a 00
        E 360 90 37 60
        E 120 80 37 00
        E 360 90 35 60
        E 120 80 35 00
        E 360 90 37 60
        E 120 80 37 00
        E 360 90 35 60
        E 120 80 35 00
        E 360 90 33 60
        E 120 80 33 00
        E 360 90 35 60
        E 120 80 35 00
        E 840 90 30 60
        E 3120 80 30 00
        E 240 90 30 60
        E 120 80 30 00
        E 360 90 3a 60
        E 120 80 3a 00
        E 360 90 30 60
        E 120 80 30 00
        E 360 90 3a 60
        E 120 80 3a 00
        E 360 90 35 60
        E 120 80 35 00
        E 360 90 33 60
        E 120 80 33 00
        E 360 90 35 60
        E 120 80 35 00
        E 360 90 3a 60
        E 120 80 3a 00
        E 840 90 37 60
        E 1200 80 37 00
        E 240 90 35 60
        E 1680 80 35 00
        E 240 90 3c 60
        E 120 80 3c 00
        E 360 90 3a 60
        E 120 80 3a 00
        E 360 90 3c 60
        E 120 80 3c 00
        E 360 90 3f 60
        E 120 80 3f 00
        E 360 90 35 60
        E 120 80 35 00
        E 360 90 3c 60
        E 120 80 3c 00
        E 360 90 37 60
        E 120 80 37 00
        E 120 90 35 60
        E 120 80 35 00
        E 120 90 3c 60
        E 120 80 3c 00
        E 360 90 3c 60
        E 120 80 3c 00
        E 120 90 3a 60
        E 120 80 3a 00
        E 120 90 35 60
        E 120 80 35 00
        E 120 90 3f 60
        E 120 80 3f 00
        E 120 90 35 60
        E 120 80 35 00
        E 120 90 35 60
        E 120 80 35 00
        E 120 90 37 60
        E 120 80 37 00
        E 120 90 35 60
        E 120 80 35 00
        E 120 90 35 60
        E 120 80 35 00
        E 120 90 35 60
        E 120 80 35 00
        E 120 90 3f 60
        E 120 80 3f 00
        E 120 90 35 60
        E 120 80 35 00
        E 120 90 37 60
        E 120 80 37 00
        E 120 90 35 60
        E 120 80 35 00
        E 120 90 3c 60
        E 120 80 3c 00
        E 120 90 3f 60
        E 120 80 3f 00
        E 120 90 3a 60
        E 120 80 3a 00
        E 360 90 37 60
        E 120 80 37 00
        E 360 90 3a 60
        E 120 80 3a 00
        E 360 90 3c 60
        E 120 80 3c 00
        E 360 90 3f 60
        E 120 80 3f 00
        E 360 90 35 60
        E 120 80 35 00
        E 360 90 37 60
        E 120 80 37 00
        E 840 90 3a 60
        E 120 80 3a 00
        E 120 90 37 60
        E 120 80 37 00
        E 120 90 35 60
        E 120 80 35 00
        E 120 90 3f 60
        E 120 80 3f 00
        E 120 90 35 60
        E 120 80 35 00
        E 120 90 3a 60
        E 120 80 3a 00
        E 120 90 37 60
        E 120 80 37 00
        E 120 90 3a 60
        E 120 80 3a 00
        E 120 90 35 60
        E 120 80 35 00
        E 120 90 3c 60
        E 120 80 3c 00
        E 120 90 35 60
        E 120 80 35 00
        E 120 90 3a 60
        E 120 80 3a 00
        E 120 90 37 60
        E 120 80 37 00
        E 360 90 3e 60
        E 120 80 3e 00
        E 360 90 3c 60
        E 720 80 3c 00
        E 240 90 3a 60
        E 720 80 3a 00
        E 240 90 35 60
        E 720 80 35 00
        E 240 90 35 60
        E 720 80 35 00
        E 240 90 37 60
        E 3600 80 37 00
        E 240 90 3c 60
        E 120 80 3c 00
        E 360 90 3a 60
        E 120 80 3a 00
        E 360 90 3c 60
        E 120 80 3c 00
        E 360 90 3a 60
        E 120 80 3a 00
        E 360 90 35 60
        E 120 80 35 00
        E 360 90 3f 60
        E 120 80 3f 00
        E 360 90 35 60
        E 120 80 35 00
        E 360 90 3a 60
        E 120 80 3a 00
        E 840 90 37 60
        E 1200 80 37 00
        E 240 90 35 60
        E 1680 80 35 00
        E 240 90 3c 60
        E 120 80 3c 00
        E 360 90 3a 60
        E 120 80 3a 00
        E 360 90 3c 60
        E 120 80 3c 00
        E 360 90 3f 60
        E 120 80 3f 00
        E 360 90 35 60
        E 120 80 35 00
        E 360 90 3c 60
        E 120 80 3c 00
        E 360 90 37 60
        E 120 80 37 00
        E 120 90 35 60
        E 120 80 35 00
        E 120 90 3c 60
        E 120 80 3c 00
        E 360 90 3c 60
        E 120 80 3c 00
        E 120 90 3a 60
        E 120 80 3a 00
        E 120 90 35 60
        E 120 80 35 00
        E 120 90 3f 60
        E 120 80 3f 00
        E 120 90 35 60
        E 120 80 35 00
        E 120 90 35 60
        E 120 80 35 00
        E 120 90 37 60
        E 120 80 37 00
        E 120 90 35 60
        E 120 80 35 00
        E 120 90 35 60
        E 120 80 35 00
        E 120 90 35 60
        E 120 80 35 00
        E 120 90 3f 60
        E 120 80 3f 00
        E 120 90 35 60
        E 120 80 35 00
        E 120 90 37 60
        E 120 80 37 00
        E 120 90 35 60
        E 120 80 35 00
        E 120 90 3c 60
        E 120 80 3c 00
        E 120 90 3f 60
        E 120 80 3f 00
        E 120 90 3a 60
        E 120 80 3a 00
        E 360 90 37 60
        E 120 80 37 00
        E 360 90 3a 60
        E 120 80 3a 00
        E 360 90 3c 60
        E 120 80 3c 00
        E 360 90 3f 60
        E 120 80 3f 00
        E 360 90 35 60
        E 120 80 35 00
        E 360 90 37 60
        E 720 80 37 00
        E 240 90 35 60
        E 1680 80 35 00
        E 240 90 3a 60
        E 720 80 3a 00
        E 240 90 39 60
        E 720 80 39 00
        E 240 90 37 60
        E 3840 80 37 00
        E 1920 90 35 60
        E 720 80 35 00
        E 240 90 37 60
        E 720 80 37 00
        E 240 90 3a 60
        E 21119 80 3a 00
        E 5761 b0 7b 00
        GUID {6FAFA6BF-82BD-4E62-84E6-C2DE541884D5}
        IGNTEMPO 0 120.00000000 4 4
        SRCCOLOR 6
        VELLANE 132 128 60
        COLORMAP "C:\Program Files\REAPER (x64)\Data\color_maps\rockband_guitarbass.png"
        CFGEDITVIEW -4879.484042 21.662927 0 15 0 0 0
        CFGEDIT 1 1 0 1 1 0 1 1 1 1 1 0.25000000 -8 -8 1544 872 0 2 1 1 0.00000000 0 1 1 0 0.500000 0 0 1.000000 64
        KEYSNAP 0 7 "102030050700" 0 "Pentatonic"
        EVTFILTER 0 -1 -1 -1 -1 0 1 0 0 -1.00000000 -1.00000000
      >
    >
  >
  <TRACK '{D0E85D2A-0901-4214-B22B-9B1D1059670F}'
    NAME "PART REAL_KEYS_M"
    PEAKCOL 16576
    BEAT -1
    AUTOMODE 0
    VOLPAN 1.00000000000000 0.00000000000000 -1.00000000000000 -1.00000000000000 1.00000000000000
    MUTESOLO 0 0 0
    IPHASE 0
    ISBUS 0 0
    BUSCOMP 0 0
    SHOWINMIX 1 0.666700 0.500000 1 0.500000 -1 -1 -1
    FREEMODE 0
    SEL 0
    REC 0 0 0 0 0 0 0
    VU 2
    TRACKHEIGHT 0 0
    INQ 0 0 0 0.5000000000 100 0 0 100
    NCHAN 2
    FX 1
    TRACKID {D0E85D2A-0901-4214-B22B-9B1D1059670F}
    PERF 0
    MIDIOUT -1
    <MIDINOTENAMES
      0 72 "Highest playable note B#3"
      0 71 "B3"
      0 70 "A#3"
      0 69 "A3"
      0 68 "G#3"
      0 67 "G3"
      0 66 "F#3"
      0 65 "F3"
      0 64 "E3"
      0 63 "D#3"
      0 62 "D3"
      0 61 "C#3"
      0 60 "C3"
      0 59 "B2"
      0 58 "A#2"
      0 57 "A2"
      0 56 "G#2"
      0 55 "G2"
      0 54 "F#2"
      0 53 "F2"
      0 52 "E2"
      0 51 "D#2"
      0 50 "D2"
      0 49 "C#2"
      0 48 "Lowest playable note C2"
      0 10 "---"
      0 9 "Range A2-C4"
      0 8 "Range"
      0 7 "Range"
      0 6 "Range"
      0 5 "Range F2-A3"
      0 4 "Range"
      0 3 "Range"
      0 2 "Range"
      0 1 "Range"
      0 0 "Range C2-E3"
    >
    MAINSEND 1 0
    <FXCHAIN
      SHOW 0
      LASTSEL 0
      DOCKED 0
    >
    <ITEM
      POSITION 0.00000000000000
      SNAPOFFS 0.00000000000000
      LENGTH 286.40908800000000
      LOOP 0
      ALLTAKES 0
      SEL 0
      FADEIN 1 0.000000 0.000000 1 0
      FADEOUT 1 0.000000 0.000000 1 0
      MUTE 0
      IGUID {16FF4D72-64A3-4CA6-BB51-271318362B04}
      IID 7
      NAME "PART REAL_KEYS_M"
      VOLPAN 1.000000 0.000000 1.000000 -1.000000
      SOFFS 0.00000000000000 0.00000000000000
      PLAYRATE 1.00000000000000 1 0.00000000000000 -1
      CHANMODE 0
      GUID {70C09C48-11D1-4E19-BB54-232760D2830C}
      <SOURCE MIDI
        HASDATA 1 480 QN
        POOLEDEVTS {605FBB90-FCAE-4F73-94C3-830AE56949AD}
        <X 0 0
          /wNQQVJUIFJFQUxfS0VZU19N
        >
        E 0 90 00 60
        E 120 80 00 00
        E 5640 90 37 60
        E 0 90 3c 60
        E 3600 80 37 00
        E 0 80 3c 00
        E 240 90 3a 60
        E 0 90 3f 60
        E 3600 80 3a 00
        E 0 80 3f 00
        E 240 90 37 60
        E 0 90 3a 60
        E 3600 80 37 00
        E 0 80 3a 00
        E 240 90 35 60
        E 0 90 3a 60
        E 3600 80 35 00
        E 0 80 3a 00
        E 240 90 37 60
        E 0 90 3c 60
        E 3600 80 37 00
        E 0 80 3c 00
        E 240 90 3a 60
        E 0 90 3f 60
        E 3600 80 3a 00
        E 0 80 3f 00
        E 240 90 37 60
        E 0 90 3a 60
        E 3600 80 37 00
        E 0 80 3a 00
        E 240 90 35 60
        E 0 90 3a 60
        E 3600 80 35 00
        E 0 80 3a 00
        E 240 90 33 60
        E 120 80 33 00
        E 360 90 37 60
        E 120 80 37 00
        E 360 90 3a 60
        E 120 80 3a 00
        E 360 90 37 60
        E 120 80 37 00
        E 360 90 3c 60
        E 720 80 3c 00
        E 240 90 3a 60
        E 720 80 3a 00
        E 240 90 33 60
        E 120 80 33 00
        E 360 90 35 60
        E 120 80 35 00
        E 360 90 37 60
        E 120 80 37 00
        E 360 90 33 60
        E 120 80 33 00
        E 360 90 32 60
        E 720 80 32 00
        E 240 90 30 60
        E 720 80 30 00
        E 240 90 3a 60
        E 120 80 3a 00
        E 360 90 30 60
        E 120 80 30 00
        E 360 90 33 60
        E 120 80 33 00
        E 360 90 30 60
        E 120 80 30 00
        E 360 90 35 60
        E 120 80 35 00
        E 360 90 35 60
        E 120 80 35 00
        E 360 90 37 60
        E 120 80 37 00
        E 360 90 35 60
        E 120 80 35 00
        E 360 90 33 60
        E 120 80 33 00
        E 360 90 35 60
        E 120 80 35 00
        E 360 90 37 60
        E 120 80 37 00
        E 360 90 33 60
        E 120 80 33 00
        E 360 90 3a 60
        E 120 80 3a 00
        E 360 90 3c 60
        E 120 80 3c 00
        E 360 90 3a 60
        E 120 80 3a 00
        E 360 90 37 60
        E 120 80 37 00
        E 360 90 33 60
        E 120 80 33 00
        E 360 90 37 60
        E 120 80 37 00
        E 360 90 3a 60
        E 120 80 3a 00
        E 360 90 37 60
        E 120 80 37 00
        E 360 90 3c 60
        E 720 80 3c 00
        E 240 90 3a 60
        E 720 80 3a 00
        E 240 90 33 60
        E 120 80 33 00
        E 360 90 35 60
        E 120 80 35 00
        E 360 90 37 60
        E 120 80 37 00
        E 360 90 33 60
        E 120 80 33 00
        E 360 90 32 60
        E 720 80 32 00
        E 240 90 30 60
        E 720 80 30 00
        E 240 90 3a 60
        E 120 80 3a 00
        E 360 90 30 60
        E 120 80 30 00
        E 360 90 33 60
        E 120 80 33 00
        E 360 90 30 60
        E 120 80 30 00
        E 360 90 35 60
        E 120 80 35 00
        E 360 90 35 60
        E 120 80 35 00
        E 360 90 37 60
        E 120 80 37 00
        E 360 90 35 60
        E 120 80 35 00
        E 360 90 33 60
        E 120 80 33 00
        E 840 90 37 60
        E 120 80 37 00
        E 360 90 33 60
        E 120 80 33 00
        E 360 90 3a 60
        E 120 80 3a 00
        E 360 90 3c 60
        E 120 80 3c 00
        E 360 90 3a 60
        E 120 80 3a 00
        E 360 90 37 60
        E 120 80 37 00
        E 360 90 33 60
        E 3600 80 33 00
        E 240 90 3a 60
        E 0 90 3f 60
        E 3600 80 3a 00
        E 0 80 3f 00
        E 240 90 37 60
        E 0 90 3a 60
        E 3600 80 37 00
        E 0 80 3a 00
        E 240 90 35 60
        E 0 90 3a 60
        E 3600 80 35 00
        E 0 80 3a 00
        E 240 90 37 60
        E 0 90 3c 60
        E 3600 80 37 00
        E 0 80 3c 00
        E 240 90 3a 60
        E 0 90 3f 60
        E 3600 80 3a 00
        E 0 80 3f 00
        E 240 90 37 60
        E 0 90 3a 60
        E 3600 80 37 00
        E 0 80 3a 00
        E 240 90 35 60
        E 0 90 3a 60
        E 3600 80 35 00
        E 0 80 3a 00
        E 240 90 37 60
        E 720 80 37 00
        E 240 90 35 60
        E 720 80 35 00
        E 240 90 33 60
        E 120 80 33 00
        E 360 90 37 60
        E 120 80 37 00
        E 360 90 35 60
        E 120 80 35 00
        E 360 90 30 60
        E 1680 80 30 00
        E 240 90 3a 60
        E 120 80 3a 00
        E 360 90 33 60
        E 120 80 33 00
        E 360 90 3a 60
        E 120 80 3a 00
        E 360 90 3a 60
        E 720 80 3a 00
        E 240 90 3c 60
        E 120 80 3c 00
        E 360 90 30 60
        E 120 80 30 00
        E 360 90 37 60
        E 120 80 37 00
        E 360 90 35 60
        E 120 80 35 00
        E 360 90 33 60
        E 120 80 33 00
        E 360 90 35 60
        E 120 80 35 00
        E 360 90 37 60
        E 120 80 37 00
        E 360 90 33 60
        E 120 80 33 00
        E 840 90 3f 60
        E 120 80 3f 00
        E 360 90 37 60
        E 120 80 37 00
        E 360 90 35 60
        E 120 80 35 00
        E 600 90 3a 60
        E 120 80 3a 00
        E 120 90 3f 60
        E 120 80 3f 00
        E 360 90 37 60
        E 120 80 37 00
        E 360 90 3a 60
        E 120 80 3a 00
        E 360 90 37 60
        E 120 80 37 00
        E 360 90 35 60
        E 120 80 35 00
        E 360 90 3a 60
        E 120 80 3a 00
        E 360 90 35 60
        E 120 80 35 00
        E 360 90 3c 60
        E 120 80 3c 00
        E 360 90 3f 60
        E 120 80 3f 00
        E 360 90 3a 60
        E 120 80 3a 00
        E 360 90 33 60
        E 720 80 33 00
        E 240 90 30 60
        E 120 80 30 00
        E 360 90 33 60
        E 120 80 33 00
        E 360 90 30 60
        E 120 80 30 00
        E 360 90 35 60
        E 120 80 35 00
        E 360 90 37 60
        E 120 80 37 00
        E 360 90 35 60
        E 120 80 35 00
        E 360 90 33 60
        E 120 80 33 00
        E 360 90 38 60
        E 720 80 38 00
        E 240 90 37 60
        E 720 80 37 00
        E 240 90 35 60
        E 720 80 35 00
        E 240 90 33 60
        E 720 80 33 00
        E 240 90 38 60
        E 720 80 38 00
        E 1200 90 35 60
        E 720 80 35 00
        E 240 90 37 60
        E 720 80 37 00
        E 240 90 37 60
        E 120 80 37 00
        E 600 90 37 60
        E 120 80 37 00
        E 600 90 37 60
        E 120 80 37 00
        E 600 90 37 60
        E 120 80 37 00
        E 600 90 37 60
        E 120 80 37 00
        E 360 90 37 60
        E 120 80 37 00
        E 360 90 33 60
        E 120 80 33 00
        E 600 90 33 60
        E 120 80 33 00
        E 600 90 33 60
        E 120 80 33 00
        E 600 90 33 60
        E 120 80 33 00
        E 600 90 33 60
        E 120 80 33 00
        E 360 90 33 60
        E 120 80 33 00
        E 360 90 37 60
        E 120 80 37 00
        E 600 90 37 60
        E 120 80 37 00
        E 600 90 37 60
        E 120 80 37 00
        E 600 90 37 60
        E 120 80 37 00
        E 600 90 3c 60
        E 120 80 3c 00
        E 360 90 37 60
        E 120 80 37 00
        E 360 90 35 60
        E 120 80 35 00
        E 600 90 35 60
        E 120 80 35 00
        E 600 90 35 60
        E 120 80 35 00
        E 600 90 35 60
        E 120 80 35 00
        E 600 90 35 60
        E 120 80 35 00
        E 360 90 35 60
        E 120 80 35 00
        E 360 90 3c 60
        E 120 80 3c 00
        E 360 90 3a 60
        E 120 80 3a 00
        E 360 90 37 60
        E 120 80 37 00
        E 360 90 35 60
        E 120 80 35 00
        E 360 90 37 60
        E 120 80 37 00
        E 360 90 35 60
        E 120 80 35 00
        E 360 90 33 60
        E 120 80 33 00
        E 360 90 35 60
        E 120 80 35 00
        E 840 90 30 60
        E 3120 80 30 00
        E 240 90 30 60
        E 120 80 30 00
        E 360 90 3a 60
        E 120 80 3a 00
        E 360 90 30 60
        E 120 80 30 00
        E 360 90 3a 60
        E 120 80 3a 00
        E 360 90 35 60
        E 120 80 35 00
        E 360 90 33 60
        E 120 80 33 00
        E 360 90 35 60
        E 120 80 35 00
        E 360 90 3a 60
        E 120 80 3a 00
        E 840 90 37 60
        E 1200 80 37 00
        E 240 90 35 60
        E 1680 80 35 00
        E 240 90 3c 60
        E 120 80 3c 00
        E 360 90 3a 60
        E 120 80 3a 00
        E 360 90 3c 60
        E 120 80 3c 00
        E 360 90 3f 60
        E 120 80 3f 00
        E 360 90 35 60
        E 120 80 35 00
        E 360 90 3c 60
        E 120 80 3c 00
        E 360 90 37 60
        E 120 80 37 00
        E 360 90 3c 60
        E 120 80 3c 00
        E 360 90 3c 60
        E 120 80 3c 00
        E 360 90 35 60
        E 120 80 35 00
        E 360 90 35 60
        E 120 80 35 00
        E 360 90 37 60
        E 120 80 37 00
        E 360 90 35 60
        E 120 80 35 00
        E 360 90 3f 60
        E 120 80 3f 00
        E 360 90 37 60
        E 120 80 37 00
        E 360 90 3c 60
        E 120 80 3c 00
        E 360 90 3a 60
        E 120 80 3a 00
        E 360 90 37 60
        E 120 80 37 00
        E 360 90 3a 60
        E 120 80 3a 00
        E 360 90 3c 60
        E 120 80 3c 00
        E 360 90 3f 60
        E 120 80 3f 00
        E 360 90 35 60
        E 120 80 35 00
        E 360 90 37 60
        E 120 80 37 00
        E 840 90 3a 60
        E 120 80 3a 00
        E 360 90 35 60
        E 120 80 35 00
        E 360 90 35 60
        E 120 80 35 00
        E 360 90 37 60
        E 120 80 37 00
        E 360 90 35 60
        E 120 80 35 00
        E 360 90 35 60
        E 120 80 35 00
        E 360 90 37 60
        E 120 80 37 00
        E 360 90 3e 60
        E 120 80 3e 00
        E 360 90 3c 60
        E 720 80 3c 00
        E 240 90 3a 60
        E 720 80 3a 00
        E 240 90 35 60
        E 720 80 35 00
        E 240 90 35 60
        E 720 80 35 00
        E 240 90 37 60
        E 3600 80 37 00
        E 240 90 3c 60
        E 120 80 3c 00
        E 360 90 3a 60
        E 120 80 3a 00
        E 360 90 3c 60
        E 120 80 3c 00
        E 360 90 3a 60
        E 120 80 3a 00
        E 360 90 35 60
        E 120 80 35 00
        E 360 90 3f 60
        E 120 80 3f 00
        E 360 90 35 60
        E 120 80 35 00
        E 360 90 3a 60
        E 120 80 3a 00
        E 840 90 37 60
        E 1200 80 37 00
        E 240 90 35 60
        E 1680 80 35 00
        E 240 90 3c 60
        E 120 80 3c 00
        E 360 90 3a 60
        E 120 80 3a 00
        E 360 90 3c 60
        E 120 80 3c 00
        E 360 90 3f 60
        E 120 80 3f 00
        E 360 90 35 60
        E 120 80 35 00
        E 360 90 3c 60
        E 120 80 3c 00
        E 360 90 37 60
        E 120 80 37 00
        E 360 90 3c 60
        E 120 80 3c 00
        E 360 90 3c 60
        E 120 80 3c 00
        E 360 90 35 60
        E 120 80 35 00
        E 360 90 35 60
        E 120 80 35 00
        E 360 90 37 60
        E 120 80 37 00
        E 360 90 35 60
        E 120 80 35 00
        E 360 90 3f 60
        E 120 80 3f 00
        E 360 90 37 60
        E 120 80 37 00
        E 360 90 3c 60
        E 120 80 3c 00
        E 360 90 3a 60
        E 120 80 3a 00
        E 360 90 37 60
        E 120 80 37 00
        E 360 90 3a 60
        E 120 80 3a 00
        E 360 90 3c 60
        E 120 80 3c 00
        E 360 90 3f 60
        E 120 80 3f 00
        E 360 90 35 60
        E 120 80 35 00
        E 360 90 37 60
        E 720 80 37 00
        E 240 90 35 60
        E 1680 80 35 00
        E 240 90 39 60
        E 1680 80 39 00
        E 240 90 37 60
        E 3840 80 37 00
        E 3840 90 35 60
        E 1680 80 35 00
        E 240 90 3c 60
        E 1680 80 3c 00
        E 240 90 3e 60
        E 1680 80 3e 00
        E 240 90 3a 60
        E 1680 80 3a 00
        E 240 90 3e 60
        E 1680 80 3e 00
        E 240 90 37 60
        E 2640 80 37 00
        E 240 90 35 60
        E 720 80 35 00
        E 240 90 3a 60
        E 720 80 3a 00
        E 240 90 3f 60
        E 720 80 3f 00
        E 240 90 35 60
        E 1680 80 35 00
        E 240 90 3c 60
        E 1680 80 3c 00
        E 240 90 3e 60
        E 1680 80 3e 00
        E 240 90 3a 60
        E 1680 80 3a 00
        E 240 90 3e 60
        E 1680 80 3e 00
        E 240 90 37 60
        E 2640 80 37 00
        E 240 90 35 60
        E 720 80 35 00
        E 240 90 3a 60
        E 720 80 3a 00
        E 240 90 3f 60
        E 720 80 3f 00
        E 240 90 35 60
        E 1680 80 35 00
        E 240 90 3c 60
        E 1680 80 3c 00
        E 240 90 3e 60
        E 1680 80 3e 00
        E 240 90 3a 60
        E 1680 80 3a 00
        E 240 90 3e 60
        E 1680 80 3e 00
        E 240 90 37 60
        E 2640 80 37 00
        E 240 90 35 60
        E 720 80 35 00
        E 240 90 3a 60
        E 720 80 3a 00
        E 240 90 3f 60
        E 720 80 3f 00
        E 240 90 35 60
        E 1680 80 35 00
        E 240 90 3c 60
        E 1680 80 3c 00
        E 240 90 3e 60
        E 1680 80 3e 00
        E 240 90 3a 60
        E 1680 80 3a 00
        E 240 90 3e 60
        E 1680 80 3e 00
        E 240 90 37 60
        E 2640 80 37 00
        E 240 90 35 60
        E 720 80 35 00
        E 240 90 3a 60
        E 720 80 3a 00
        E 240 90 3f 60
        E 720 80 3f 00
        E 240 90 37 60
        E 120 80 37 00
        E 600 90 37 60
        E 120 80 37 00
        E 600 90 37 60
        E 120 80 37 00
        E 600 90 37 60
        E 120 80 37 00
        E 600 90 37 60
        E 120 80 37 00
        E 360 90 37 60
        E 120 80 37 00
        E 360 90 33 60
        E 120 80 33 00
        E 600 90 33 60
        E 120 80 33 00
        E 600 90 33 60
        E 120 80 33 00
        E 600 90 33 60
        E 120 80 33 00
        E 600 90 33 60
        E 120 80 33 00
        E 360 90 33 60
        E 120 80 33 00
        E 360 90 37 60
        E 120 80 37 00
        E 600 90 37 60
        E 120 80 37 00
        E 600 90 37 60
        E 120 80 37 00
        E 600 90 37 60
        E 120 80 37 00
        E 600 90 3c 60
        E 120 80 3c 00
        E 360 90 37 60
        E 120 80 37 00
        E 360 90 35 60
        E 120 80 35 00
        E 600 90 35 60
        E 120 80 35 00
        E 600 90 35 60
        E 120 80 35 00
        E 600 90 35 60
        E 120 80 35 00
        E 600 90 35 60
        E 120 80 35 00
        E 360 90 35 60
        E 120 80 35 00
        E 360 90 37 60
        E 120 80 37 00
        E 600 90 37 60
        E 120 80 37 00
        E 600 90 37 60
        E 120 80 37 00
        E 600 90 37 60
        E 120 80 37 00
        E 600 90 37 60
        E 120 80 37 00
        E 360 90 37 60
        E 120 80 37 00
        E 360 90 33 60
        E 120 80 33 00
        E 600 90 33 60
        E 120 80 33 00
        E 600 90 33 60
        E 120 80 33 00
        E 600 90 33 60
        E 120 80 33 00
        E 600 90 33 60
        E 120 80 33 00
        E 360 90 33 60
        E 120 80 33 00
        E 360 90 37 60
        E 120 80 37 00
        E 600 90 37 60
        E 120 80 37 00
        E 600 90 37 60
        E 120 80 37 00
        E 600 90 37 60
        E 120 80 37 00
        E 600 90 3c 60
        E 120 80 3c 00
        E 360 90 37 60
        E 120 80 37 00
        E 360 90 35 60
        E 120 80 35 00
        E 600 90 35 60
        E 120 80 35 00
        E 600 90 35 60
        E 120 80 35 00
        E 600 90 35 60
        E 120 80 35 00
        E 600 90 35 60
        E 120 80 35 00
        E 360 90 35 60
        E 120 80 35 00
        E 360 90 35 60
        E 120 80 35 00
        E 600 90 35 60
        E 120 80 35 00
        E 600 90 35 60
        E 120 80 35 00
        E 600 90 35 60
        E 120 80 35 00
        E 600 90 35 60
        E 120 80 35 00
        E 360 90 35 60
        E 120 80 35 00
        E 360 90 35 60
        E 120 80 35 00
        E 600 90 35 60
        E 120 80 35 00
        E 600 90 35 60
        E 120 80 35 00
        E 600 90 35 60
        E 120 80 35 00
        E 600 90 35 60
        E 120 80 35 00
        E 360 90 35 60
        E 120 80 35 00
        E 360 90 35 60
        E 120 80 35 00
        E 1320 90 35 60
        E 120 80 35 00
        E 600 90 35 60
        E 120 80 35 00
        E 600 90 35 60
        E 120 80 35 00
        E 360 90 35 60
        E 120 80 35 00
        E 2280 90 3c 60
        E 120 80 3c 00
        E 360 90 3a 60
        E 120 80 3a 00
        E 360 90 37 60
        E 120 80 37 00
        E 360 90 35 60
        E 120 80 35 00
        E 360 90 37 60
        E 120 80 37 00
        E 360 90 35 60
        E 120 80 35 00
        E 360 90 33 60
        E 120 80 33 00
        E 360 90 35 60
        E 120 80 35 00
        E 840 90 30 60
        E 3120 80 30 00
        E 240 90 30 60
        E 120 80 30 00
        E 360 90 3a 60
        E 120 80 3a 00
        E 360 90 30 60
        E 120 80 30 00
        E 360 90 3a 60
        E 120 80 3a 00
        E 360 90 35 60
        E 120 80 35 00
        E 360 90 33 60
        E 120 80 33 00
        E 360 90 35 60
        E 120 80 35 00
        E 360 90 3a 60
        E 120 80 3a 00
        E 840 90 37 60
        E 1200 80 37 00
        E 240 90 35 60
        E 1680 80 35 00
        E 240 90 3c 60
        E 120 80 3c 00
        E 360 90 3a 60
        E 120 80 3a 00
        E 360 90 3c 60
        E 120 80 3c 00
        E 360 90 3f 60
        E 120 80 3f 00
        E 360 90 35 60
        E 120 80 35 00
        E 360 90 3c 60
        E 120 80 3c 00
        E 360 90 37 60
        E 120 80 37 00
        E 360 90 3c 60
        E 120 80 3c 00
        E 360 90 3c 60
        E 120 80 3c 00
        E 360 90 35 60
        E 120 80 35 00
        E 360 90 35 60
        E 120 80 35 00
        E 360 90 37 60
        E 120 80 37 00
        E 360 90 35 60
        E 120 80 35 00
        E 360 90 3f 60
        E 120 80 3f 00
        E 360 90 37 60
        E 120 80 37 00
        E 360 90 3c 60
        E 120 80 3c 00
        E 360 90 3a 60
        E 120 80 3a 00
        E 360 90 37 60
        E 120 80 37 00
        E 360 90 3a 60
        E 120 80 3a 00
        E 360 90 3c 60
        E 120 80 3c 00
        E 360 90 3f 60
        E 120 80 3f 00
        E 360 90 35 60
        E 120 80 35 00
        E 360 90 37 60
        E 120 80 37 00
        E 840 90 3a 60
        E 120 80 3a 00
        E 360 90 35 60
        E 120 80 35 00
        E 360 90 35 60
        E 120 80 35 00
        E 360 90 37 60
        E 120 80 37 00
        E 360 90 35 60
        E 120 80 35 00
        E 360 90 35 60
        E 120 80 35 00
        E 360 90 37 60
        E 120 80 37 00
        E 360 90 3e 60
        E 120 80 3e 00
        E 360 90 3c 60
        E 720 80 3c 00
        E 240 90 3a 60
        E 720 80 3a 00
        E 240 90 35 60
        E 720 80 35 00
        E 240 90 35 60
        E 720 80 35 00
        E 240 90 37 60
        E 3600 80 37 00
        E 240 90 3c 60
        E 120 80 3c 00
        E 360 90 3a 60
        E 120 80 3a 00
        E 360 90 3c 60
        E 120 80 3c 00
        E 360 90 3a 60
        E 120 80 3a 00
        E 360 90 35 60
        E 120 80 35 00
        E 360 90 3f 60
        E 120 80 3f 00
        E 360 90 35 60
        E 120 80 35 00
        E 360 90 3a 60
        E 120 80 3a 00
        E 840 90 37 60
        E 1200 80 37 00
        E 240 90 35 60
        E 1680 80 35 00
        E 240 90 3c 60
        E 120 80 3c 00
        E 360 90 3a 60
        E 120 80 3a 00
        E 360 90 3c 60
        E 120 80 3c 00
        E 360 90 3f 60
        E 120 80 3f 00
        E 360 90 35 60
        E 120 80 35 00
        E 360 90 3c 60
        E 120 80 3c 00
        E 360 90 37 60
        E 120 80 37 00
        E 360 90 3c 60
        E 120 80 3c 00
        E 360 90 3c 60
        E 120 80 3c 00
        E 360 90 35 60
        E 120 80 35 00
        E 360 90 35 60
        E 120 80 35 00
        E 360 90 37 60
        E 120 80 37 00
        E 360 90 35 60
        E 120 80 35 00
        E 360 90 3f 60
        E 120 80 3f 00
        E 360 90 37 60
        E 120 80 37 00
        E 360 90 3c 60
        E 120 80 3c 00
        E 360 90 3a 60
        E 120 80 3a 00
        E 360 90 37 60
        E 120 80 37 00
        E 360 90 3a 60
        E 120 80 3a 00
        E 360 90 3c 60
        E 120 80 3c 00
        E 360 90 3f 60
        E 120 80 3f 00
        E 360 90 35 60
        E 120 80 35 00
        E 360 90 37 60
        E 720 80 37 00
        E 240 90 35 60
        E 1680 80 35 00
        E 240 90 3a 60
        E 720 80 3a 00
        E 240 90 39 60
        E 720 80 39 00
        E 240 90 37 60
        E 3840 80 37 00
        E 1920 90 35 60
        E 720 80 35 00
        E 240 90 37 60
        E 720 80 37 00
        E 240 90 3a 60
        E 21119 80 3a 00
        E 5761 b0 7b 00
        GUID {4BE8B46E-EDD4-40C5-950E-3F80265BCC84}
        IGNTEMPO 0 120.00000000 4 4
        SRCCOLOR 7
        VELLANE 132 128 60
        COLORMAP "C:\Program Files\REAPER (x64)\Data\color_maps\rockband_guitarbass.png"
        CFGEDITVIEW -4879.484042 21.662927 9 15 0 0 0
        CFGEDIT 1 1 0 1 1 0 1 1 1 1 1 0.25000000 -8 -8 1544 872 0 2 1 1 0.00000000 0 1 1 0 0.500000 0 0 1.000000 64
        KEYSNAP 0 7 "102030050700" 0 "Pentatonic"
        EVTFILTER 0 -1 -1 -1 -1 0 1 0 0 -1.00000000 -1.00000000
      >
    >
  >
  <TRACK '{DF76186A-451C-426B-84F6-87C5E5E4A11A}'
    NAME "PART REAL_KEYS_E"
    PEAKCOL 16576
    BEAT -1
    AUTOMODE 0
    VOLPAN 1.00000000000000 0.00000000000000 -1.00000000000000 -1.00000000000000 1.00000000000000
    MUTESOLO 0 0 0
    IPHASE 0
    ISBUS 0 0
    BUSCOMP 0 0
    SHOWINMIX 1 0.666700 0.500000 1 0.500000 -1 -1 -1
    FREEMODE 0
    SEL 0
    REC 0 0 0 0 0 0 0
    VU 2
    TRACKHEIGHT 0 0
    INQ 0 0 0 0.5000000000 100 0 0 100
    NCHAN 2
    FX 1
    TRACKID {DF76186A-451C-426B-84F6-87C5E5E4A11A}
    PERF 0
    MIDIOUT -1
    <MIDINOTENAMES
      0 72 "Highest playable note B#3"
      0 71 "B3"
      0 70 "A#3"
      0 69 "A3"
      0 68 "G#3"
      0 67 "G3"
      0 66 "F#3"
      0 65 "F3"
      0 64 "E3"
      0 63 "D#3"
      0 62 "D3"
      0 61 "C#3"
      0 60 "C3"
      0 59 "B2"
      0 58 "A#2"
      0 57 "A2"
      0 56 "G#2"
      0 55 "G2"
      0 54 "F#2"
      0 53 "F2"
      0 52 "E2"
      0 51 "D#2"
      0 50 "D2"
      0 49 "C#2"
      0 48 "Lowest playable note C2"
      0 10 "---"
      0 9 "Range A2-C4"
      0 8 "Range"
      0 7 "Range"
      0 6 "Range"
      0 5 "Range F2-A3"
      0 4 "Range"
      0 3 "Range"
      0 2 "Range"
      0 1 "Range"
      0 0 "Range C2-E3"
    >
    MAINSEND 1 0
    <FXCHAIN
      SHOW 0
      LASTSEL 0
      DOCKED 0
    >
    <ITEM
      POSITION 0.00000000000000
      SNAPOFFS 0.00000000000000
      LENGTH 286.40908800000000
      LOOP 0
      ALLTAKES 0
      SEL 0
      FADEIN 1 0.000000 0.000000 1 0
      FADEOUT 1 0.000000 0.000000 1 0
      MUTE 0
      IGUID {30F7F6FD-762E-48CA-AE0E-A49982DBEEF9}
      IID 8
      NAME "PART REAL_KEYS_E"
      VOLPAN 1.000000 0.000000 1.000000 -1.000000
      SOFFS 0.00000000000000 0.00000000000000
      PLAYRATE 1.00000000000000 1 0.00000000000000 -1
      CHANMODE 0
      GUID {7F729FE2-270C-4C6A-90E7-C3AE61E1E3F2}
      <SOURCE MIDI
        HASDATA 1 480 QN
        POOLEDEVTS {11608AE6-2D32-4F76-80B8-548C9BAAAA20}
        <X 0 0
          /wNQQVJUIFJFQUxfS0VZU19F
        >
        E 0 90 00 60
        E 120 80 00 00
        E 5640 90 3c 60
        E 3600 80 3c 00
        E 240 90 3f 60
        E 3600 80 3f 00
        E 240 90 37 60
        E 3600 80 37 00
        E 240 90 3a 60
        E 3600 80 3a 00
        E 240 90 3c 60
        E 3600 80 3c 00
        E 240 90 3f 60
        E 3600 80 3f 00
        E 240 90 37 60
        E 3600 80 37 00
        E 240 90 3a 60
        E 3600 80 3a 00
        E 240 90 33 60
        E 120 80 33 00
        E 840 90 3a 60
        E 120 80 3a 00
        E 840 90 3c 60
        E 720 80 3c 00
        E 240 90 3a 60
        E 720 80 3a 00
        E 240 90 33 60
        E 120 80 33 00
        E 840 90 37 60
        E 120 80 37 00
        E 840 90 32 60
        E 720 80 32 00
        E 240 90 30 60
        E 720 80 30 00
        E 240 90 3a 60
        E 120 80 3a 00
        E 840 90 33 60
        E 120 80 33 00
        E 840 90 35 60
        E 120 80 35 00
        E 840 90 37 60
        E 120 80 37 00
        E 840 90 33 60
        E 120 80 33 00
        E 840 90 37 60
        E 120 80 37 00
        E 840 90 3a 60
        E 120 80 3a 00
        E 840 90 3a 60
        E 120 80 3a 00
        E 840 90 33 60
        E 120 80 33 00
        E 840 90 3a 60
        E 120 80 3a 00
        E 840 90 3c 60
        E 720 80 3c 00
        E 240 90 3a 60
        E 720 80 3a 00
        E 240 90 33 60
        E 120 80 33 00
        E 840 90 37 60
        E 120 80 37 00
        E 840 90 32 60
        E 720 80 32 00
        E 240 90 30 60
        E 720 80 30 00
        E 240 90 3a 60
        E 120 80 3a 00
        E 840 90 33 60
        E 120 80 33 00
        E 840 90 35 60
        E 120 80 35 00
        E 840 90 37 60
        E 120 80 37 00
        E 840 90 33 60
        E 120 80 33 00
        E 840 90 37 60
        E 120 80 37 00
        E 840 90 3a 60
        E 120 80 3a 00
        E 840 90 3a 60
        E 120 80 3a 00
        E 840 90 33 60
        E 3600 80 33 00
        E 240 90 3f 60
        E 3600 80 3f 00
        E 240 90 37 60
        E 3600 80 37 00
        E 240 90 3a 60
        E 3600 80 3a 00
        E 240 90 3c 60
        E 3600 80 3c 00
        E 240 90 3f 60
        E 3600 80 3f 00
        E 240 90 37 60
        E 3600 80 37 00
        E 240 90 3a 60
        E 3600 80 3a 00
        E 240 90 37 60
        E 720 80 37 00
        E 240 90 35 60
        E 720 80 35 00
        E 240 90 33 60
        E 120 80 33 00
        E 840 90 35 60
        E 120 80 35 00
        E 2280 90 3a 60
        E 120 80 3a 00
        E 360 90 33 60
        E 120 80 33 00
        E 840 90 3a 60
        E 720 80 3a 00
        E 240 90 3c 60
        E 120 80 3c 00
        E 840 90 37 60
        E 120 80 37 00
        E 360 90 35 60
        E 120 80 35 00
        E 360 90 33 60
        E 120 80 33 00
        E 840 90 37 60
        E 120 80 37 00
        E 1800 90 37 60
        E 120 80 37 00
        E 1800 90 37 60
        E 120 80 37 00
        E 840 90 37 60
        E 120 80 37 00
        E 840 90 3a 60
        E 120 80 3a 00
        E 840 90 3c 60
        E 120 80 3c 00
        E 840 90 3a 60
        E 120 80 3a 00
        E 1320 90 30 60
        E 120 80 30 00
        E 360 90 33 60
        E 120 80 33 00
        E 840 90 35 60
        E 120 80 35 00
        E 840 90 35 60
        E 120 80 35 00
        E 840 90 38 60
        E 720 80 38 00
        E 240 90 37 60
        E 720 80 37 00
        E 240 90 35 60
        E 720 80 35 00
        E 240 90 33 60
        E 720 80 33 00
        E 240 90 38 60
        E 720 80 38 00
        E 1200 90 35 60
        E 720 80 35 00
        E 240 90 37 60
        E 720 80 37 00
        E 240 90 37 60
        E 120 80 37 00
        E 1320 90 37 60
        E 120 80 37 00
        E 1320 90 37 60
        E 120 80 37 00
        E 840 90 33 60
        E 120 80 33 00
        E 1320 90 33 60
        E 120 80 33 00
        E 1320 90 33 60
        E 120 80 33 00
        E 840 90 37 60
        E 120 80 37 00
        E 1320 90 37 60
        E 120 80 37 00
        E 1320 90 3c 60
        E 120 80 3c 00
        E 840 90 35 60
        E 120 80 35 00
        E 1320 90 35 60
        E 120 80 35 00
        E 1320 90 35 60
        E 120 80 35 00
        E 840 90 3c 60
        E 120 80 3c 00
        E 840 90 37 60
        E 120 80 37 00
        E 840 90 37 60
        E 120 80 37 00
        E 840 90 33 60
        E 120 80 33 00
        E 1320 90 30 60
        E 3120 80 30 00
        E 240 90 30 60
        E 120 80 30 00
        E 360 90 3a 60
        E 120 80 3a 00
        E 360 90 30 60
        E 120 80 30 00
        E 840 90 35 60
        E 120 80 35 00
        E 840 90 35 60
        E 120 80 35 00
        E 1320 90 37 60
        E 1200 80 37 00
        E 240 90 35 60
        E 1680 80 35 00
        E 240 90 3c 60
        E 120 80 3c 00
        E 840 90 3c 60
        E 120 80 3c 00
        E 840 90 35 60
        E 120 80 35 00
        E 840 90 37 60
        E 120 80 37 00
        E 840 90 3c 60
        E 120 80 3c 00
        E 840 90 35 60
        E 120 80 35 00
        E 840 90 35 60
        E 120 80 35 00
        E 840 90 37 60
        E 120 80 37 00
        E 840 90 3a 60
        E 120 80 3a 00
        E 360 90 37 60
        E 120 80 37 00
        E 360 90 3a 60
        E 120 80 3a 00
        E 840 90 3f 60
        E 120 80 3f 00
        E 840 90 37 60
        E 120 80 37 00
        E 840 90 3a 60
        E 120 80 3a 00
        E 840 90 35 60
        E 120 80 35 00
        E 840 90 35 60
        E 120 80 35 00
        E 840 90 37 60
        E 120 80 37 00
        E 840 90 3c 60
        E 720 80 3c 00
        E 240 90 3a 60
        E 720 80 3a 00
        E 240 90 35 60
        E 720 80 35 00
        E 240 90 35 60
        E 720 80 35 00
        E 240 90 37 60
        E 3600 80 37 00
        E 240 90 3c 60
        E 120 80 3c 00
        E 840 90 3c 60
        E 120 80 3c 00
        E 840 90 35 60
        E 120 80 35 00
        E 840 90 35 60
        E 120 80 35 00
        E 1320 90 37 60
        E 1200 80 37 00
        E 240 90 35 60
        E 1680 80 35 00
        E 240 90 3c 60
        E 120 80 3c 00
        E 840 90 3c 60
        E 120 80 3c 00
        E 840 90 35 60
        E 120 80 35 00
        E 840 90 37 60
        E 120 80 37 00
        E 840 90 3c 60
        E 120 80 3c 00
        E 840 90 35 60
        E 120 80 35 00
        E 840 90 35 60
        E 120 80 35 00
        E 840 90 37 60
        E 120 80 37 00
        E 840 90 3a 60
        E 120 80 3a 00
        E 360 90 37 60
        E 120 80 37 00
        E 360 90 3a 60
        E 120 80 3a 00
        E 840 90 3f 60
        E 120 80 3f 00
        E 840 90 37 60
        E 720 80 37 00
        E 240 90 35 60
        E 1680 80 35 00
        E 240 90 39 60
        E 1680 80 39 00
        E 240 90 37 60
        E 3840 80 37 00
        E 3840 90 35 60
        E 1680 80 35 00
        E 240 90 3c 60
        E 1680 80 3c 00
        E 240 90 3e 60
        E 1680 80 3e 00
        E 240 90 3a 60
        E 1680 80 3a 00
        E 240 90 3e 60
        E 1680 80 3e 00
        E 240 90 37 60
        E 2640 80 37 00
        E 240 90 35 60
        E 720 80 35 00
        E 240 90 3a 60
        E 720 80 3a 00
        E 240 90 3f 60
        E 720 80 3f 00
        E 240 90 35 60
        E 1680 80 35 00
        E 240 90 3c 60
        E 1680 80 3c 00
        E 240 90 3e 60
        E 1680 80 3e 00
        E 240 90 3a 60
        E 1680 80 3a 00
        E 240 90 3e 60
        E 1680 80 3e 00
        E 240 90 37 60
        E 2640 80 37 00
        E 240 90 35 60
        E 720 80 35 00
        E 240 90 3a 60
        E 720 80 3a 00
        E 240 90 3f 60
        E 720 80 3f 00
        E 240 90 35 60
        E 1680 80 35 00
        E 240 90 3c 60
        E 1680 80 3c 00
        E 240 90 3e 60
        E 1680 80 3e 00
        E 240 90 3a 60
        E 1680 80 3a 00
        E 240 90 3e 60
        E 1680 80 3e 00
        E 240 90 37 60
        E 2640 80 37 00
        E 240 90 35 60
        E 720 80 35 00
        E 240 90 3a 60
        E 720 80 3a 00
        E 240 90 3f 60
        E 720 80 3f 00
        E 240 90 35 60
        E 1680 80 35 00
        E 240 90 3c 60
        E 1680 80 3c 00
        E 240 90 3e 60
        E 1680 80 3e 00
        E 240 90 3a 60
        E 1680 80 3a 00
        E 240 90 3e 60
        E 1680 80 3e 00
        E 240 90 37 60
        E 2640 80 37 00
        E 240 90 35 60
        E 720 80 35 00
        E 240 90 3a 60
        E 720 80 3a 00
        E 240 90 3f 60
        E 720 80 3f 00
        E 240 90 37 60
        E 120 80 37 00
        E 1320 90 37 60
        E 120 80 37 00
        E 1320 90 37 60
        E 120 80 37 00
        E 840 90 33 60
        E 120 80 33 00
        E 1320 90 33 60
        E 120 80 33 00
        E 1320 90 33 60
        E 120 80 33 00
        E 840 90 37 60
        E 120 80 37 00
        E 1320 90 37 60
        E 120 80 37 00
        E 1320 90 3c 60
        E 120 80 3c 00
        E 840 90 35 60
        E 120 80 35 00
        E 1320 90 35 60
        E 120 80 35 00
        E 1320 90 35 60
        E 120 80 35 00
        E 840 90 37 60
        E 120 80 37 00
        E 1320 90 37 60
        E 120 80 37 00
        E 1320 90 37 60
        E 120 80 37 00
        E 840 90 33 60
        E 120 80 33 00
        E 1320 90 33 60
        E 120 80 33 00
        E 1320 90 33 60
        E 120 80 33 00
        E 840 90 37 60
        E 120 80 37 00
        E 1320 90 37 60
        E 120 80 37 00
        E 1320 90 3c 60
        E 120 80 3c 00
        E 840 90 35 60
        E 120 80 35 00
        E 1320 90 35 60
        E 120 80 35 00
        E 1320 90 35 60
        E 120 80 35 00
        E 360 90 35 60
        E 120 80 35 00
        E 360 90 35 60
        E 120 80 35 00
        E 1320 90 35 60
        E 120 80 35 00
        E 1320 90 35 60
        E 120 80 35 00
        E 360 90 35 60
        E 120 80 35 00
        E 360 90 35 60
        E 120 80 35 00
        E 1320 90 35 60
        E 120 80 35 00
        E 1320 90 35 60
        E 120 80 35 00
        E 840 90 35 60
        E 120 80 35 00
        E 2040 90 35 60
        E 120 80 35 00
        E 600 90 35 60
        E 120 80 35 00
        E 360 90 35 60
        E 120 80 35 00
        E 2280 90 3c 60
        E 120 80 3c 00
        E 840 90 37 60
        E 120 80 37 00
        E 840 90 37 60
        E 120 80 37 00
        E 840 90 33 60
        E 120 80 33 00
        E 1320 90 30 60
        E 3120 80 30 00
        E 240 90 30 60
        E 120 80 30 00
        E 360 90 3a 60
        E 120 80 3a 00
        E 360 90 30 60
        E 120 80 30 00
        E 840 90 35 60
        E 120 80 35 00
        E 840 90 35 60
        E 120 80 35 00
        E 1320 90 37 60
        E 1200 80 37 00
        E 240 90 35 60
        E 1680 80 35 00
        E 240 90 3c 60
        E 120 80 3c 00
        E 840 90 3c 60
        E 120 80 3c 00
        E 840 90 35 60
        E 120 80 35 00
        E 840 90 37 60
        E 120 80 37 00
        E 840 90 3c 60
        E 120 80 3c 00
        E 840 90 35 60
        E 120 80 35 00
        E 840 90 35 60
        E 120 80 35 00
        E 840 90 37 60
        E 120 80 37 00
        E 840 90 3a 60
        E 120 80 3a 00
        E 360 90 37 60
        E 120 80 37 00
        E 360 90 3a 60
        E 120 80 3a 00
        E 840 90 3f 60
        E 120 80 3f 00
        E 840 90 37 60
        E 120 80 37 00
        E 840 90 3a 60
        E 120 80 3a 00
        E 840 90 35 60
        E 120 80 35 00
        E 840 90 35 60
        E 120 80 35 00
        E 840 90 37 60
        E 120 80 37 00
        E 840 90 3c 60
        E 720 80 3c 00
        E 240 90 3a 60
        E 720 80 3a 00
        E 240 90 35 60
        E 720 80 35 00
        E 240 90 35 60
        E 720 80 35 00
        E 240 90 37 60
        E 3600 80 37 00
        E 240 90 3c 60
        E 120 80 3c 00
        E 840 90 3c 60
        E 120 80 3c 00
        E 840 90 35 60
        E 120 80 35 00
        E 840 90 35 60
        E 120 80 35 00
        E 1320 90 37 60
        E 1200 80 37 00
        E 240 90 35 60
        E 1680 80 35 00
        E 240 90 3c 60
        E 120 80 3c 00
        E 840 90 3c 60
        E 120 80 3c 00
        E 840 90 35 60
        E 120 80 35 00
        E 840 90 37 60
        E 120 80 37 00
        E 840 90 3c 60
        E 120 80 3c 00
        E 840 90 35 60
        E 120 80 35 00
        E 840 90 35 60
        E 120 80 35 00
        E 840 90 37 60
        E 120 80 37 00
        E 840 90 3a 60
        E 120 80 3a 00
        E 360 90 37 60
        E 120 80 37 00
        E 360 90 3a 60
        E 120 80 3a 00
        E 840 90 3f 60
        E 120 80 3f 00
        E 840 90 37 60
        E 720 80 37 00
        E 240 90 35 60
        E 1680 80 35 00
        E 240 90 3a 60
        E 720 80 3a 00
        E 240 90 39 60
        E 720 80 39 00
        E 240 90 37 60
        E 3840 80 37 00
        E 1920 90 35 60
        E 720 80 35 00
        E 240 90 37 60
        E 720 80 37 00
        E 240 90 3a 60
        E 21119 80 3a 00
        E 5761 b0 7b 00
        GUID {54F9A9F4-0C63-4C5F-8954-F75F96ACE1B1}
        IGNTEMPO 0 120.00000000 4 4
        SRCCOLOR 8
        VELLANE 132 128 60
        COLORMAP "C:\Program Files\REAPER (x64)\Data\color_maps\rockband_guitarbass.png"
        CFGEDITVIEW -26958.646950 3.920965 9 15 0 0 0
        CFGEDIT 1 1 0 1 1 0 1 1 1 1 1 0.25000000 -8 -8 1544 872 0 2 1 1 0.00000000 0 1 1 0 0.500000 0 0 1.000000 64
        KEYSNAP 0 7 "102030050700" 0 "Pentatonic"
        EVTFILTER 0 -1 -1 -1 -1 0 1 0 0 -1.00000000 -1.00000000
      >
    >
  >
  <TRACK '{7CCDFFC5-8A1E-451F-A8A9-B37374C211E9}'
    NAME "PART KEYS_ANIM_RH"
    PEAKCOL 16576
    BEAT -1
    AUTOMODE 0
    VOLPAN 1.00000000000000 0.00000000000000 -1.00000000000000 -1.00000000000000 1.00000000000000
    MUTESOLO 0 0 0
    IPHASE 0
    ISBUS 0 0
    BUSCOMP 0 0
    SHOWINMIX 1 0.666700 0.500000 1 0.500000 -1 -1 -1
    FREEMODE 0
    SEL 0
    REC 0 0 0 0 0 0 0
    VU 2
    TRACKHEIGHT 0 0
    INQ 0 0 0 0.5000000000 100 0 0 100
    NCHAN 2
    FX 1
    TRACKID {7CCDFFC5-8A1E-451F-A8A9-B37374C211E9}
    PERF 0
    MIDIOUT -1
    <MIDINOTENAMES
      0 72 "Highest playable note B#3"
      0 71 "B3"
      0 70 "A#3"
      0 69 "A3"
      0 68 "G#3"
      0 67 "G3"
      0 66 "F#3"
      0 65 "F3"
      0 64 "E3"
      0 63 "D#3"
      0 62 "D3"
      0 61 "C#3"
      0 60 "C3"
      0 59 "B2"
      0 58 "A#2"
      0 57 "A2"
      0 56 "G#2"
      0 55 "G2"
      0 54 "F#2"
      0 53 "F2"
      0 52 "E2"
      0 51 "D#2"
      0 50 "D2"
      0 49 "C#2"
      0 48 "Lowest playable note C2"
    >
    MAINSEND 1 0
    <FXCHAIN
      SHOW 0
      LASTSEL 0
      DOCKED 0
    >
    <ITEM
      POSITION 0.00000000000000
      SNAPOFFS 0.00000000000000
      LENGTH 286.40908800000000
      LOOP 0
      ALLTAKES 0
      SEL 0
      FADEIN 1 0.000000 0.000000 1 0
      FADEOUT 1 0.000000 0.000000 1 0
      MUTE 0
      IGUID {F7199FAF-4DA2-4AA6-B868-91BF67BD466D}
      IID 9
      NAME "PART KEYS_ANIM_RH"
      VOLPAN 1.000000 0.000000 1.000000 -1.000000
      SOFFS 0.00000000000000 0.00000000000000
      PLAYRATE 1.00000000000000 1 0.00000000000000 -1
      CHANMODE 0
      GUID {4DD858A3-B1AB-4248-94D1-1EE0BC7DACFD}
      <SOURCE MIDI
        HASDATA 1 480 QN
        POOLEDEVTS {5CA759BA-2183-47EF-9014-71D226D59010}
        <X 0 0
          /wNQQVJUIEtFWVNfQU5JTV9SSA==
        >
        E 5760 90 37 60
        E 0 90 3c 60
        E 0 90 3f 60
        E 3600 80 37 00
        E 0 80 3c 00
        E 0 80 3f 00
        E 240 90 37 60
        E 0 90 3a 60
        E 0 90 3f 60
        E 3600 80 37 00
        E 0 80 3a 00
        E 0 80 3f 00
        E 240 90 32 60
        E 0 90 37 60
        E 0 90 3a 60
        E 3600 80 32 00
        E 0 80 37 00
        E 0 80 3a 00
        E 240 90 35 60
        E 0 90 3a 60
        E 0 90 3e 60
        E 3600 80 35 00
        E 0 80 3a 00
        E 0 80 3e 00
        E 240 90 37 60
        E 0 90 3c 60
        E 0 90 3f 60
        E 3600 80 37 00
        E 0 80 3c 00
        E 0 80 3f 00
        E 240 90 37 60
        E 0 90 3a 60
        E 0 90 3f 60
        E 3600 80 37 00
        E 0 80 3a 00
        E 0 80 3f 00
        E 240 90 32 60
        E 0 90 37 60
        E 0 90 3a 60
        E 3600 80 32 00
        E 0 80 37 00
        E 0 80 3a 00
        E 240 90 35 60
        E 0 90 3a 60
        E 0 90 3e 60
        E 3600 80 35 00
        E 0 80 3a 00
        E 0 80 3e 00
        E 240 90 33 60
        E 120 80 33 00
        E 360 90 37 60
        E 120 80 37 00
        E 360 90 3a 60
        E 120 80 3a 00
        E 360 90 37 60
        E 120 80 37 00
        E 360 90 3c 60
        E 720 80 3c 00
        E 240 90 3a 60
        E 720 80 3a 00
        E 240 90 33 60
        E 120 80 33 00
        E 360 90 35 60
        E 120 80 35 00
        E 360 90 37 60
        E 120 80 37 00
        E 360 90 33 60
        E 120 80 33 00
        E 360 90 32 60
        E 720 80 32 00
        E 240 90 30 60
        E 720 80 30 00
        E 240 90 3a 60
        E 120 80 3a 00
        E 360 90 30 60
        E 120 80 30 00
        E 360 90 33 60
        E 120 80 33 00
        E 360 90 30 60
        E 120 80 30 00
        E 360 90 35 60
        E 120 80 35 00
        E 120 90 33 60
        E 120 80 33 00
        E 120 90 35 60
        E 120 80 35 00
        E 120 90 3a 60
        E 120 80 3a 00
        E 120 90 37 60
        E 120 80 37 00
        E 360 90 35 60
        E 120 80 35 00
        E 360 90 33 60
        E 120 80 33 00
        E 360 90 35 60
        E 120 80 35 00
        E 360 90 37 60
        E 120 80 37 00
        E 360 90 33 60
        E 120 80 33 00
        E 360 90 3a 60
        E 120 80 3a 00
        E 360 90 3c 60
        E 120 80 3c 00
        E 360 90 3a 60
        E 120 80 3a 00
        E 360 90 37 60
        E 120 80 37 00
        E 360 90 33 60
        E 120 80 33 00
        E 360 90 37 60
        E 120 80 37 00
        E 360 90 3a 60
        E 120 80 3a 00
        E 360 90 37 60
        E 120 80 37 00
        E 360 90 3c 60
        E 720 80 3c 00
        E 240 90 3a 60
        E 720 80 3a 00
        E 240 90 33 60
        E 120 80 33 00
        E 360 90 35 60
        E 120 80 35 00
        E 360 90 37 60
        E 120 80 37 00
        E 360 90 33 60
        E 120 80 33 00
        E 360 90 32 60
        E 720 80 32 00
        E 240 90 30 60
        E 720 80 30 00
        E 240 90 3a 60
        E 120 80 3a 00
        E 360 90 30 60
        E 120 80 30 00
        E 360 90 33 60
        E 120 80 33 00
        E 360 90 30 60
        E 120 80 30 00
        E 360 90 35 60
        E 120 80 35 00
        E 120 90 33 60
        E 120 80 33 00
        E 120 90 35 60
        E 120 80 35 00
        E 120 90 3a 60
        E 120 80 3a 00
        E 120 90 37 60
        E 120 80 37 00
        E 360 90 35 60
        E 120 80 35 00
        E 360 90 33 60
        E 120 80 33 00
        E 360 90 35 60
        E 120 80 35 00
        E 360 90 37 60
        E 120 80 37 00
        E 360 90 33 60
        E 120 80 33 00
        E 360 90 3a 60
        E 120 80 3a 00
        E 360 90 3c 60
        E 120 80 3c 00
        E 360 90 3a 60
        E 120 80 3a 00
        E 360 90 37 60
        E 120 80 37 00
        E 360 90 33 60
        E 3600 80 33 00
        E 240 90 37 60
        E 0 90 3a 60
        E 0 90 3f 60
        E 3600 80 37 00
        E 0 80 3a 00
        E 0 80 3f 00
        E 240 90 32 60
        E 0 90 37 60
        E 0 90 3a 60
        E 3600 80 32 00
        E 0 80 37 00
        E 0 80 3a 00
        E 240 90 35 60
        E 0 90 3a 60
        E 0 90 3e 60
        E 3600 80 35 00
        E 0 80 3a 00
        E 0 80 3e 00
        E 240 90 37 60
        E 0 90 3c 60
        E 0 90 3f 60
        E 3600 80 37 00
        E 0 80 3c 00
        E 0 80 3f 00
        E 240 90 37 60
        E 0 90 3a 60
        E 0 90 3f 60
        E 3600 80 37 00
        E 0 80 3a 00
        E 0 80 3f 00
        E 240 90 32 60
        E 0 90 37 60
        E 0 90 3a 60
        E 3600 80 32 00
        E 0 80 37 00
        E 0 80 3a 00
        E 240 90 35 60
        E 0 90 3a 60
        E 0 90 3e 60
        E 3600 80 35 00
        E 0 80 3a 00
        E 0 80 3e 00
        E 240 90 37 60
        E 720 80 37 00
        E 240 90 35 60
        E 720 80 35 00
        E 240 90 33 60
        E 120 80 33 00
        E 360 90 37 60
        E 120 80 37 00
        E 360 90 35 60
        E 120 80 35 00
        E 360 90 30 60
        E 1680 80 30 00
        E 240 90 3a 60
        E 120 80 3a 00
        E 360 90 33 60
        E 120 80 33 00
        E 360 90 3a 60
        E 120 80 3a 00
        E 360 90 3a 60
        E 720 80 3a 00
        E 240 90 3c 60
        E 120 80 3c 00
        E 120 90 37 60
        E 120 80 37 00
        E 120 90 30 60
        E 120 80 30 00
        E 120 90 3a 60
        E 120 80 3a 00
        E 120 90 37 60
        E 120 80 37 00
        E 120 90 33 60
        E 120 80 33 00
        E 120 90 35 60
        E 120 80 35 00
        E 120 90 35 60
        E 120 80 35 00
        E 120 90 33 60
        E 120 80 33 00
        E 360 90 35 60
        E 120 80 35 00
        E 360 90 37 60
        E 120 80 37 00
        E 360 90 33 60
        E 720 90 35 60
        E 120 80 35 00
        E 120 90 3f 60
        E 120 80 3f 00
        E 120 90 35 60
        E 120 80 35 00
        E 120 90 37 60
        E 120 80 37 00
        E 120 90 3f 60
        E 120 80 3f 00
        E 120 90 35 60
        E 120 80 35 00
        E 120 90 3f 60
        E 120 80 3f 00
        E 360 90 3a 60
        E 120 80 3a 00
        E 120 90 3f 60
        E 120 80 3f 00
        E 120 90 35 60
        E 120 80 35 00
        E 120 90 37 60
        E 120 80 37 00
        E 120 90 3f 60
        E 120 80 3f 00
        E 120 90 3a 60
        E 120 80 3a 00
        E 120 80 33 00
        E 0 90 3a 60
        E 120 80 3a 00
        E 120 90 37 60
        E 120 80 37 00
        E 360 90 35 60
        E 120 80 35 00
        E 360 90 3a 60
        E 120 80 3a 00
        E 360 90 35 60
        E 120 80 35 00
        E 360 90 3c 60
        E 120 80 3c 00
        E 360 90 3f 60
        E 120 80 3f 00
        E 360 90 3a 60
        E 120 80 3a 00
        E 360 90 33 60
        E 720 80 33 00
        E 240 90 30 60
        E 120 80 30 00
        E 360 90 33 60
        E 120 80 33 00
        E 360 90 30 60
        E 120 80 30 00
        E 360 90 35 60
        E 120 80 35 00
        E 360 90 37 60
        E 120 80 37 00
        E 360 90 35 60
        E 120 80 35 00
        E 360 90 33 60
        E 120 80 33 00
        E 360 90 38 60
        E 720 80 38 00
        E 240 90 37 60
        E 720 80 37 00
        E 240 90 35 60
        E 720 80 35 00
        E 240 90 33 60
        E 720 80 33 00
        E 240 90 38 60
        E 720 80 38 00
        E 240 90 37 60
        E 720 80 37 00
        E 240 90 35 60
        E 720 80 35 00
        E 240 90 37 60
        E 720 80 37 00
        E 240 90 37 60
        E 120 80 37 00
        E 600 90 37 60
        E 120 80 37 00
        E 600 90 37 60
        E 120 80 37 00
        E 600 90 37 60
        E 120 80 37 00
        E 600 90 37 60
        E 120 80 37 00
        E 120 90 35 60
        E 120 80 35 00
        E 120 90 37 60
        E 120 80 37 00
        E 120 90 3a 60
        E 120 80 3a 00
        E 120 90 33 60
        E 120 80 33 00
        E 600 90 33 60
        E 120 80 33 00
        E 600 90 33 60
        E 120 80 33 00
        E 600 90 33 60
        E 120 80 33 00
        E 600 90 33 60
        E 120 80 33 00
        E 120 90 30 60
        E 120 80 30 00
        E 120 90 33 60
        E 120 80 33 00
        E 120 90 35 60
        E 120 80 35 00
        E 120 90 37 60
        E 120 80 37 00
        E 600 90 37 60
        E 120 80 37 00
        E 600 90 37 60
        E 120 80 37 00
        E 600 90 37 60
        E 120 80 37 00
        E 600 90 3c 60
        E 120 80 3c 00
        E 120 90 3a 60
        E 120 80 3a 00
        E 120 90 37 60
        E 120 80 37 00
        E 120 90 33 60
        E 120 80 33 00
        E 120 90 35 60
        E 120 80 35 00
        E 600 90 35 60
        E 120 80 35 00
        E 600 90 35 60
        E 120 80 35 00
        E 600 90 35 60
        E 120 80 35 00
        E 600 90 35 60
        E 120 80 35 00
        E 120 90 33 60
        E 120 80 33 00
        E 120 90 35 60
        E 120 80 35 00
        E 120 90 37 60
        E 120 80 37 00
        E 120 90 3c 60
        E 120 80 3c 00
        E 360 90 3a 60
        E 120 80 3a 00
        E 360 90 37 60
        E 120 80 37 00
        E 360 90 35 60
        E 120 80 35 00
        E 360 90 37 60
        E 120 80 37 00
        E 360 90 35 60
        E 120 80 35 00
        E 360 90 33 60
        E 120 80 33 00
        E 360 90 35 60
        E 120 80 35 00
        E 840 90 30 60
        E 3120 80 30 00
        E 240 90 30 60
        E 120 80 30 00
        E 360 90 3a 60
        E 120 80 3a 00
        E 360 90 30 60
        E 120 80 30 00
        E 360 90 3a 60
        E 120 80 3a 00
        E 360 90 35 60
        E 120 80 35 00
        E 360 90 33 60
        E 120 80 33 00
        E 360 90 35 60
        E 120 80 35 00
        E 360 90 3a 60
        E 120 80 3a 00
        E 840 90 37 60
        E 1200 80 37 00
        E 240 90 35 60
        E 1680 80 35 00
        E 240 90 3c 60
        E 120 80 3c 00
        E 360 90 3a 60
        E 120 80 3a 00
        E 360 90 3c 60
        E 120 80 3c 00
        E 360 90 3f 60
        E 120 80 3f 00
        E 360 90 35 60
        E 120 80 35 00
        E 360 90 3c 60
        E 120 80 3c 00
        E 360 90 37 60
        E 120 80 37 00
        E 120 90 35 60
        E 120 80 35 00
        E 120 90 3c 60
        E 120 80 3c 00
        E 360 90 3c 60
        E 120 80 3c 00
        E 120 90 3a 60
        E 120 80 3a 00
        E 120 90 35 60
        E 120 80 35 00
        E 120 90 3f 60
        E 120 80 3f 00
        E 120 90 35 60
        E 120 80 35 00
        E 120 90 35 60
        E 120 80 35 00
        E 120 90 37 60
        E 120 80 37 00
        E 120 90 35 60
        E 120 80 35 00
        E 120 90 35 60
        E 120 80 35 00
        E 120 90 35 60
        E 120 80 35 00
        E 120 90 3f 60
        E 120 80 3f 00
        E 120 90 35 60
        E 120 80 35 00
        E 120 90 37 60
        E 120 80 37 00
        E 120 90 35 60
        E 120 80 35 00
        E 120 90 3c 60
        E 120 80 3c 00
        E 120 90 3f 60
        E 120 80 3f 00
        E 120 90 3a 60
        E 120 80 3a 00
        E 360 90 37 60
        E 120 80 37 00
        E 360 90 3a 60
        E 120 80 3a 00
        E 360 90 3c 60
        E 120 80 3c 00
        E 360 90 3f 60
        E 120 80 3f 00
        E 360 90 35 60
        E 120 80 35 00
        E 360 90 37 60
        E 120 80 37 00
        E 840 90 3a 60
        E 120 80 3a 00
        E 120 90 37 60
        E 120 80 37 00
        E 120 90 35 60
        E 120 80 35 00
        E 120 90 3f 60
        E 120 80 3f 00
        E 120 90 35 60
        E 120 80 35 00
        E 120 90 3a 60
        E 120 80 3a 00
        E 120 90 37 60
        E 120 80 37 00
        E 120 90 3a 60
        E 120 80 3a 00
        E 120 90 35 60
        E 120 80 35 00
        E 120 90 3c 60
        E 120 80 3c 00
        E 120 90 35 60
        E 120 80 35 00
        E 120 90 3a 60
        E 120 80 3a 00
        E 120 90 37 60
        E 120 80 37 00
        E 360 90 3e 60
        E 120 80 3e 00
        E 360 90 3c 60
        E 720 80 3c 00
        E 240 90 3a 60
        E 720 80 3a 00
        E 240 90 35 60
        E 720 80 35 00
        E 240 90 35 60
        E 720 80 35 00
        E 240 90 37 60
        E 3600 80 37 00
        E 240 90 3c 60
        E 120 80 3c 00
        E 360 90 3a 60
        E 120 80 3a 00
        E 360 90 3c 60
        E 120 80 3c 00
        E 360 90 3a 60
        E 120 80 3a 00
        E 360 90 35 60
        E 120 80 35 00
        E 360 90 3f 60
        E 120 80 3f 00
        E 360 90 35 60
        E 120 80 35 00
        E 360 90 3a 60
        E 120 80 3a 00
        E 840 90 37 60
        E 1200 80 37 00
        E 240 90 35 60
        E 1680 80 35 00
        E 240 90 3c 60
        E 120 80 3c 00
        E 360 90 3a 60
        E 120 80 3a 00
        E 360 90 3c 60
        E 120 80 3c 00
        E 360 90 3f 60
        E 120 80 3f 00
        E 360 90 35 60
        E 120 80 35 00
        E 360 90 3c 60
        E 120 80 3c 00
        E 360 90 37 60
        E 120 80 37 00
        E 120 90 35 60
        E 120 80 35 00
        E 120 90 3c 60
        E 120 80 3c 00
        E 360 90 3c 60
        E 120 80 3c 00
        E 120 90 3a 60
        E 120 80 3a 00
        E 120 90 35 60
        E 120 80 35 00
        E 120 90 3f 60
        E 120 80 3f 00
        E 120 90 35 60
        E 120 80 35 00
        E 120 90 35 60
        E 120 80 35 00
        E 120 90 37 60
        E 120 80 37 00
        E 120 90 35 60
        E 120 80 35 00
        E 120 90 35 60
        E 120 80 35 00
        E 120 90 35 60
        E 120 80 35 00
        E 120 90 3f 60
        E 120 80 3f 00
        E 120 90 35 60
        E 120 80 35 00
        E 120 90 37 60
        E 120 80 37 00
        E 120 90 35 60
        E 120 80 35 00
        E 120 90 3c 60
        E 120 80 3c 00
        E 120 90 3f 60
        E 120 80 3f 00
        E 120 90 3a 60
        E 120 80 3a 00
        E 360 90 37 60
        E 120 80 37 00
        E 360 90 3a 60
        E 120 80 3a 00
        E 360 90 3c 60
        E 120 80 3c 00
        E 360 90 3f 60
        E 120 80 3f 00
        E 360 90 35 60
        E 120 80 35 00
        E 360 90 37 60
        E 720 80 37 00
        E 240 90 35 60
        E 1680 80 35 00
        E 240 90 39 60
        E 1680 80 39 00
        E 240 90 37 60
        E 3840 80 37 00
        E 3840 90 35 60
        E 1680 80 35 00
        E 240 90 3c 60
        E 1680 80 3c 00
        E 240 90 3e 60
        E 1680 80 3e 00
        E 240 90 3a 60
        E 1680 80 3a 00
        E 240 90 3e 60
        E 1680 80 3e 00
        E 240 90 37 60
        E 2640 80 37 00
        E 240 90 35 60
        E 720 80 35 00
        E 240 90 3a 60
        E 720 80 3a 00
        E 240 90 3f 60
        E 720 80 3f 00
        E 240 90 35 60
        E 1680 80 35 00
        E 240 90 3c 60
        E 1680 80 3c 00
        E 240 90 3e 60
        E 1680 80 3e 00
        E 240 90 3a 60
        E 1680 80 3a 00
        E 240 90 3e 60
        E 1680 80 3e 00
        E 240 90 37 60
        E 2640 80 37 00
        E 240 90 35 60
        E 720 80 35 00
        E 240 90 3a 60
        E 720 80 3a 00
        E 240 90 3f 60
        E 720 80 3f 00
        E 240 90 35 60
        E 1680 80 35 00
        E 240 90 3c 60
        E 1680 80 3c 00
        E 240 90 3e 60
        E 1680 80 3e 00
        E 240 90 3a 60
        E 1680 80 3a 00
        E 240 90 3e 60
        E 1680 80 3e 00
        E 240 90 37 60
        E 2640 80 37 00
        E 240 90 35 60
        E 720 80 35 00
        E 240 90 3a 60
        E 720 80 3a 00
        E 240 90 3f 60
        E 720 80 3f 00
        E 240 90 35 60
        E 1680 80 35 00
        E 240 90 3c 60
        E 1680 80 3c 00
        E 240 90 3e 60
        E 1680 80 3e 00
        E 240 90 3a 60
        E 1680 80 3a 00
        E 240 90 3e 60
        E 1680 80 3e 00
        E 240 90 37 60
        E 2640 80 37 00
        E 240 90 35 60
        E 720 80 35 00
        E 240 90 3a 60
        E 720 80 3a 00
        E 240 90 3f 60
        E 720 80 3f 00
        E 240 90 37 60
        E 120 80 37 00
        E 600 90 37 60
        E 120 80 37 00
        E 600 90 37 60
        E 120 80 37 00
        E 600 90 37 60
        E 120 80 37 00
        E 600 90 37 60
        E 120 80 37 00
        E 120 90 35 60
        E 120 80 35 00
        E 120 90 37 60
        E 120 80 37 00
        E 120 90 3a 60
        E 120 80 3a 00
        E 120 90 33 60
        E 120 80 33 00
        E 600 90 33 60
        E 120 80 33 00
        E 600 90 33 60
        E 120 80 33 00
        E 600 90 33 60
        E 120 80 33 00
        E 600 90 33 60
        E 120 80 33 00
        E 120 90 30 60
        E 120 80 30 00
        E 120 90 33 60
        E 120 80 33 00
        E 120 90 35 60
        E 120 80 35 00
        E 120 90 37 60
        E 120 80 37 00
        E 600 90 37 60
        E 120 80 37 00
        E 600 90 37 60
        E 120 80 37 00
        E 600 90 37 60
        E 120 80 37 00
        E 600 90 3c 60
        E 120 80 3c 00
        E 120 90 3a 60
        E 120 80 3a 00
        E 120 90 37 60
        E 120 80 37 00
        E 120 90 33 60
        E 120 80 33 00
        E 120 90 35 60
        E 120 80 35 00
        E 600 90 35 60
        E 120 80 35 00
        E 600 90 35 60
        E 120 80 35 00
        E 600 90 35 60
        E 120 80 35 00
        E 600 90 35 60
        E 120 80 35 00
        E 120 90 33 60
        E 120 80 33 00
        E 120 90 35 60
        E 120 80 35 00
        E 120 90 37 60
        E 120 80 37 00
        E 120 90 37 60
        E 120 80 37 00
        E 600 90 37 60
        E 120 80 37 00
        E 600 90 37 60
        E 120 80 37 00
        E 600 90 37 60
        E 120 80 37 00
        E 600 90 37 60
        E 120 80 37 00
        E 120 90 35 60
        E 120 80 35 00
        E 120 90 37 60
        E 120 80 37 00
        E 120 90 3a 60
        E 120 80 3a 00
        E 120 90 33 60
        E 120 80 33 00
        E 600 90 33 60
        E 120 80 33 00
        E 600 90 33 60
        E 120 80 33 00
        E 600 90 33 60
        E 120 80 33 00
        E 600 90 33 60
        E 120 80 33 00
        E 120 90 30 60
        E 120 80 30 00
        E 120 90 33 60
        E 120 80 33 00
        E 120 90 35 60
        E 120 80 35 00
        E 120 90 37 60
        E 120 80 37 00
        E 600 90 37 60
        E 120 80 37 00
        E 600 90 37 60
        E 120 80 37 00
        E 600 90 37 60
        E 120 80 37 00
        E 600 90 3c 60
        E 120 80 3c 00
        E 120 90 3a 60
        E 120 80 3a 00
        E 120 90 37 60
        E 120 80 37 00
        E 120 90 33 60
        E 120 80 33 00
        E 120 90 35 60
        E 120 80 35 00
        E 600 90 35 60
        E 120 80 35 00
        E 600 90 35 60
        E 120 80 35 00
        E 600 90 35 60
        E 120 80 35 00
        E 600 90 35 60
        E 120 80 35 00
        E 120 90 33 60
        E 120 80 33 00
        E 120 90 35 60
        E 120 80 35 00
        E 120 90 37 60
        E 120 80 37 00
        E 120 90 35 60
        E 120 80 35 00
        E 600 90 35 60
        E 120 80 35 00
        E 600 90 35 60
        E 120 80 35 00
        E 600 90 35 60
        E 120 80 35 00
        E 600 90 35 60
        E 120 80 35 00
        E 120 90 33 60
        E 120 80 33 00
        E 120 90 35 60
        E 120 80 35 00
        E 120 90 37 60
        E 120 80 37 00
        E 120 90 35 60
        E 120 80 35 00
        E 600 90 35 60
        E 120 80 35 00
        E 600 90 35 60
        E 120 80 35 00
        E 600 90 35 60
        E 120 80 35 00
        E 600 90 35 60
        E 120 80 35 00
        E 120 90 33 60
        E 120 80 33 00
        E 120 90 35 60
        E 120 80 35 00
        E 120 90 37 60
        E 120 80 37 00
        E 120 90 35 60
        E 120 80 35 00
        E 600 90 35 60
        E 120 80 35 00
        E 600 90 35 60
        E 120 80 35 00
        E 600 90 35 60
        E 120 80 35 00
        E 600 90 35 60
        E 120 80 35 00
        E 120 90 33 60
        E 120 80 33 00
        E 120 90 35 60
        E 120 80 35 00
        E 120 90 37 60
        E 120 80 37 00
        E 2040 90 3c 60
        E 120 80 3c 00
        E 360 90 3a 60
        E 120 80 3a 00
        E 360 90 37 60
        E 120 80 37 00
        E 360 90 35 60
        E 120 80 35 00
        E 360 90 37 60
        E 120 80 37 00
        E 360 90 35 60
        E 120 80 35 00
        E 360 90 33 60
        E 120 80 33 00
        E 360 90 35 60
        E 120 80 35 00
        E 840 90 30 60
        E 3120 80 30 00
        E 240 90 30 60
        E 120 80 30 00
        E 360 90 3a 60
        E 120 80 3a 00
        E 360 90 30 60
        E 120 80 30 00
        E 360 90 3a 60
        E 120 80 3a 00
        E 360 90 35 60
        E 120 80 35 00
        E 360 90 33 60
        E 120 80 33 00
        E 360 90 35 60
        E 120 80 35 00
        E 360 90 3a 60
        E 120 80 3a 00
        E 840 90 37 60
        E 1200 80 37 00
        E 240 90 35 60
        E 1680 80 35 00
        E 240 90 3c 60
        E 120 80 3c 00
        E 360 90 3a 60
        E 120 80 3a 00
        E 360 90 3c 60
        E 120 80 3c 00
        E 360 90 3f 60
        E 120 80 3f 00
        E 360 90 35 60
        E 120 80 35 00
        E 360 90 3c 60
        E 120 80 3c 00
        E 360 90 37 60
        E 120 80 37 00
        E 120 90 35 60
        E 120 80 35 00
        E 120 90 3c 60
        E 120 80 3c 00
        E 360 90 3c 60
        E 120 80 3c 00
        E 120 90 3a 60
        E 120 80 3a 00
        E 120 90 35 60
        E 120 80 35 00
        E 120 90 3f 60
        E 120 80 3f 00
        E 120 90 35 60
        E 120 80 35 00
        E 120 90 35 60
        E 120 80 35 00
        E 120 90 37 60
        E 120 80 37 00
        E 120 90 35 60
        E 120 80 35 00
        E 120 90 35 60
        E 120 80 35 00
        E 120 90 35 60
        E 120 80 35 00
        E 120 90 3f 60
        E 120 80 3f 00
        E 120 90 35 60
        E 120 80 35 00
        E 120 90 37 60
        E 120 80 37 00
        E 120 90 35 60
        E 120 80 35 00
        E 120 90 3c 60
        E 120 80 3c 00
        E 120 90 3f 60
        E 120 80 3f 00
        E 120 90 3a 60
        E 120 80 3a 00
        E 360 90 37 60
        E 120 80 37 00
        E 360 90 3a 60
        E 120 80 3a 00
        E 360 90 3c 60
        E 120 80 3c 00
        E 360 90 3f 60
        E 120 80 3f 00
        E 360 90 35 60
        E 120 80 35 00
        E 360 90 37 60
        E 120 80 37 00
        E 840 90 3a 60
        E 120 80 3a 00
        E 120 90 37 60
        E 120 80 37 00
        E 120 90 35 60
        E 120 80 35 00
        E 120 90 3f 60
        E 120 80 3f 00
        E 120 90 35 60
        E 120 80 35 00
        E 120 90 3a 60
        E 120 80 3a 00
        E 120 90 37 60
        E 120 80 37 00
        E 120 90 3a 60
        E 120 80 3a 00
        E 120 90 35 60
        E 120 80 35 00
        E 120 90 3c 60
        E 120 80 3c 00
        E 120 90 35 60
        E 120 80 35 00
        E 120 90 3a 60
        E 120 80 3a 00
        E 120 90 37 60
        E 120 80 37 00
        E 360 90 3e 60
        E 120 80 3e 00
        E 360 90 3c 60
        E 720 80 3c 00
        E 240 90 3a 60
        E 720 80 3a 00
        E 240 90 35 60
        E 720 80 35 00
        E 240 90 35 60
        E 720 80 35 00
        E 240 90 37 60
        E 3600 80 37 00
        E 240 90 3c 60
        E 120 80 3c 00
        E 360 90 3a 60
        E 120 80 3a 00
        E 360 90 3c 60
        E 120 80 3c 00
        E 360 90 3a 60
        E 120 80 3a 00
        E 360 90 35 60
        E 120 80 35 00
        E 360 90 3f 60
        E 120 80 3f 00
        E 360 90 35 60
        E 120 80 35 00
        E 360 90 3a 60
        E 120 80 3a 00
        E 840 90 37 60
        E 1200 80 37 00
        E 240 90 35 60
        E 1680 80 35 00
        E 240 90 3c 60
        E 120 80 3c 00
        E 360 90 3a 60
        E 120 80 3a 00
        E 360 90 3c 60
        E 120 80 3c 00
        E 360 90 3f 60
        E 120 80 3f 00
        E 360 90 35 60
        E 120 80 35 00
        E 360 90 3c 60
        E 120 80 3c 00
        E 360 90 37 60
        E 120 80 37 00
        E 120 90 35 60
        E 120 80 35 00
        E 120 90 3c 60
        E 120 80 3c 00
        E 360 90 3c 60
        E 120 80 3c 00
        E 120 90 3a 60
        E 120 80 3a 00
        E 120 90 35 60
        E 120 80 35 00
        E 120 90 3f 60
        E 120 80 3f 00
        E 120 90 35 60
        E 120 80 35 00
        E 120 90 35 60
        E 120 80 35 00
        E 120 90 37 60
        E 120 80 37 00
        E 120 90 35 60
        E 120 80 35 00
        E 120 90 35 60
        E 120 80 35 00
        E 120 90 35 60
        E 120 80 35 00
        E 120 90 3f 60
        E 120 80 3f 00
        E 120 90 35 60
        E 120 80 35 00
        E 120 90 37 60
        E 120 80 37 00
        E 120 90 35 60
        E 120 80 35 00
        E 120 90 3c 60
        E 120 80 3c 00
        E 120 90 3f 60
        E 120 80 3f 00
        E 120 90 3a 60
        E 120 80 3a 00
        E 360 90 37 60
        E 120 80 37 00
        E 360 90 3a 60
        E 120 80 3a 00
        E 360 90 3c 60
        E 120 80 3c 00
        E 360 90 3f 60
        E 120 80 3f 00
        E 360 90 35 60
        E 120 80 35 00
        E 360 90 37 60
        E 720 80 37 00
        E 240 90 35 60
        E 1680 80 35 00
        E 240 90 3a 60
        E 720 80 3a 00
        E 240 90 39 60
        E 720 80 39 00
        E 240 90 37 60
        E 3840 80 37 00
        E 1920 90 35 60
        E 720 80 35 00
        E 240 90 37 60
        E 720 80 37 00
        E 240 90 3a 60
        E 21119 80 3a 00
        E 5761 b0 7b 00
        GUID {3A555812-3451-479D-9FFE-B66A573E5796}
        IGNTEMPO 0 120.00000000 4 4
        SRCCOLOR 9
        VELLANE 132 128 60
        COLORMAP "C:\Program Files\REAPER (x64)\Data\color_maps\rockband_guitarbass.png"
        CFGEDITVIEW -26958.646950 3.920965 9 22 0 0 0
        CFGEDIT 1 1 0 1 1 0 1 1 1 1 1 0.25000000 -8 -8 1544 872 0 2 1 1 0.00000000 0 1 1 0 0.500000 0 0 1.000000 64
        KEYSNAP 0 7 "102030050700" 0 "Pentatonic"
        EVTFILTER 0 -1 -1 -1 -1 0 1 0 0 -1.00000000 -1.00000000
      >
    >
  >
  <TRACK '{10736267-6791-4228-8515-A88A04EEF404}'
    NAME "keys"
    PEAKCOL 16576
    BEAT -1
    AUTOMODE 0
    VOLPAN 1.00000000000000 0.00000000000000 -1.00000000000000 -1.00000000000000 1.00000000000000
    MUTESOLO 0 0 0
    IPHASE 0
    ISBUS 2 -1
    BUSCOMP 0 0
    SHOWINMIX 1 0.666700 0.500000 1 0.500000 -1 -1 -1
    FREEMODE 0
    SEL 0
    REC 0 0 0 0 0 0 0
    VU 2
    TRACKHEIGHT 0 0
    INQ 0 0 0 0.5000000000 100 0 0 100
    NCHAN 2
    FX 1
    TRACKID {10736267-6791-4228-8515-A88A04EEF404}
    PERF 0
    MIDIOUT -1
    MAINSEND 1 0
    <ITEM
      POSITION 0.00000000000000
      SNAPOFFS 0.00000000000000
      LENGTH 286.40909297052156
      LOOP 0
      ALLTAKES 0
      SEL 0
      FADEIN 1 0.000000 0.000000 1 0
      FADEOUT 1 0.000000 0.000000 1 0
      MUTE 0
      IGUID {E0CCAAD2-BE1A-4F31-9362-5BFFD94589E4}
      IID 18
      NAME "keys.wav"
      VOLPAN 1.000000 0.000000 1.000000 -1.000000
      SOFFS 0.00000000000000
      PLAYRATE 1.00000000000000 1 0.00000000000000 -1
      CHANMODE 0
      GUID {5573C35A-0E71-45A7-8CAA-3F637E6D2F61}
      <SOURCE WAVE
        FILE "C:\Users\Ruggery\Documents\Visual Studio Code\Projects\ruggy-customs-projects\songs\itstimetojump\wav\keys.wav"
      >
    >
  >
  <TRACK '{D8641178-F8D0-4D1F-BF2A-D1C6F35E3DEA}'
    NAME "PART REAL_BASS"
    PEAKCOL 16576
    BEAT -1
    AUTOMODE 0
    VOLPAN 1.00000000000000 0.00000000000000 -1.00000000000000 -1.00000000000000 1.00000000000000
    MUTESOLO 0 0 0
    IPHASE 0
    ISBUS 0 0
    BUSCOMP 0 0
    SHOWINMIX 1 0.666700 0.500000 1 0.500000 -1 -1 -1
    FREEMODE 0
    SEL 0
    REC 0 0 0 0 0 0 0
    VU 2
    TRACKHEIGHT 0 0
    INQ 0 0 0 0.5000000000 100 0 0 100
    NCHAN 2
    FX 0
    TRACKID {D8641178-F8D0-4D1F-BF2A-D1C6F35E3DEA}
    PERF 0
    MIDIOUT -1
    <MIDINOTENAMES
      0 127 "Trill Marker"
      0 126 "Tremolo Marker"
      0 125 "BRE"
      0 124 "BRE"
      0 123 "BRE"
      0 122 "BRE"
      0 121 "BRE"
      0 120 "BRE (use all 6)"
      0 119 "-----------"
      0 116 "OVERDRIVE"
      0 115 "Solo Marker"
      0 109 "-----------"
      0 108 "Fret Hand Position"
      0 107 "Force Chord Numbering"
      0 106 "Loose Strumming"
      0 105 "Strum Direction"
      0 104 "Arpeggio Marker"
      0 103 "Slide Marker"
      0 102 "Force HOPO"
      0 101 "EXPERT e String"
      0 100 "EXPERT B String"
      0 99 "EXPERT G String"
      0 98 "EXPERT D String"
      0 97 "EXPERT A String"
      0 96 "EXPERT E String"
      0 95 "-----------"
      0 82 "Loose Strumming"
      0 81 "Strum Direction"
      0 80 "Arpeggio Marker"
      0 79 "Slide Marker"
      0 78 "Force HOPO"
      0 77 "HARD e String"
      0 76 "HARD B String"
      0 75 "HARD G String"
      0 74 "HARD D String"
      0 73 "HARD A String"
      0 72 "HARD E String"
      0 71 "-----------"
      0 58 "Loose Strumming"
      0 56 "Arpeggio Marker"
      0 55 "Slide Marker"
      0 53 "MEDIUM e String"
      0 52 "MEDIUM B String"
      0 51 "MEDIUM G String"
      0 50 "MEDIUM D String"
      0 49 "MEDIUM A String"
      0 48 "MEDIUM E String"
      0 47 "-----------"
      0 32 "Arpeggio Marker"
      0 31 "Slide Marker"
      0 29 "EASY e String"
      0 28 "EASY B String"
      0 27 "EASY G String"
      0 26 "EASY D String"
      0 25 "EASY A String"
      0 24 "EASY E String"
      0 21 "-----------"
      0 18 "Flat/Sharp Swap"
      0 17 "Hide Chord Names"
      0 16 "Slash Chord"
      0 15 "D#"
      0 14 "D"
      0 13 "C#"
      0 12 "C"
      0 11 "B"
      0 10 "A#"
      0 9 "A"
      0 8 "G#"
      0 7 "G"
      0 6 "F#"
      0 5 "F"
      0 4 "E"
    >
    MAINSEND 1 0
    <FXCHAIN
      WNDRECT 0 43 655 467
      SHOW 0
      LASTSEL 2
      DOCKED 0
      BYPASS 0 0
      <JS "c3/progtr" ""
        0.000000 3.000000 0.000000 0.000000 0.000000 0.000000 0.000000 0.000000 0.000000 1.000000 - - - - - - - - - - - - - - - - - - - - - - - - - - - - - - - - - - - - - - - - - - - - - - - - - - - - - - 
      >
      FLOATPOS 0 0 0 0
      FXID {CA2AAF69-648E-4BAD-8F64-6F15082D66D4}
      WAK 0
      BYPASS 0 0
      <JS "MIDI/midi_transpose" ""
        -12.000000 1.000000 0.000000 127.000000 - - - - - - - - - - - - - - - - - - - - - - - - - - - - - - - - - - - - - - - - - - - - - - - - - - - - - - - - - - - - 
      >
      FLOATPOS 0 0 0 0
      FXID {6B5490ED-B148-4C70-96FF-98440339691C}
      WAK 0
      BYPASS 0 0
      <VST "VSTi: ReaSynth (Cockos)" "reasynth.dll" 0 ""
        eXNlcu9e7f4AAAAAAgAAAAEAAAAAAAAAAgAAAAAAAAA4AAAAAAAAAA==
        AAAQAO++rd4N8K3eppvEO+gJMjwAAAAAAAAAAAAAgD8AAIA/4jAEPA==
        AAAAAAAAAD+01hM+j8L1PQAAAD8AABAAAAA=
      >
      FLOATPOS 0 0 0 0
      FXID {4FFA90E9-70DB-48C9-9E5F-A4E9A4D8DE88}
      WAK 0
    >
    <ITEM
      POSITION 0.00000000000000
      SNAPOFFS 0.00000000000000
      LENGTH 286.40908800000000
      LOOP 0
      ALLTAKES 0
      SEL 0
      FADEIN 1 0.000000 0.000000 1 0
      FADEOUT 1 0.000000 0.000000 1 0
      MUTE 0
      IGUID {13AC4F05-46FD-4CD1-A7E7-DDE3E4239F4B}
      IID 10
      NAME "PART REAL_BASS"
      VOLPAN 1.000000 0.000000 1.000000 -1.000000
      SOFFS 0.00000000000000 0.00000000000000
      PLAYRATE 1.00000000000000 1 0.00000000000000 -1
      CHANMODE 0
      GUID {C4848066-E6D6-4CB3-A570-279862171E85}
      <SOURCE MIDI
        HASDATA 1 480 QN
        POOLEDEVTS {F7AFDAC8-684C-4A14-A692-A2627DE3D658}
        <X 0 0
          /wNQQVJUIFJFQUxfQkFTUw==
        >
        <X 5760 0
          /wFbYmVnaW5fcGIgc29uZ190cmFpbmVyX3BiXzFd
        >
        E 0 90 19 67
        E 0 90 31 67
        E 0 90 49 67
        E 0 90 61 67
        E 0 90 6c 67
        E 120 80 6c 00
        E 3480 80 19 00
        E 0 80 31 00
        E 0 80 49 00
        E 0 80 61 00
        <X 240 0
          /wFbcGJfbm9ybSBzb25nX3RyYWluZXJfcGJfMV0=
        >
        E 0 90 19 6a
        E 0 90 31 6a
        E 0 90 49 6a
        E 0 90 61 6a
        E 2640 80 19 00
        E 0 80 31 00
        E 0 80 49 00
        E 0 80 61 00
        E 240 90 1a 6a
        E 0 90 32 6a
        E 0 90 4a 6a
        E 0 90 62 6a
        E 720 80 1a 00
        E 0 80 32 00
        E 0 80 4a 00
        E 0 80 62 00
        E 240 90 1a 69
        E 0 90 32 69
        E 0 90 4a 69
        E 0 90 62 69
        E 2640 80 1a 00
        E 0 80 32 00
        E 0 80 4a 00
        E 0 80 62 00
        E 240 90 1b 69
        E 0 90 33 69
        E 0 90 4b 69
        E 0 90 63 69
        E 720 80 1b 00
        E 0 80 33 00
        E 0 80 4b 00
        E 0 80 63 00
        E 240 90 1b 67
        E 0 90 33 67
        E 0 90 4b 67
        E 0 90 63 67
        E 3600 80 1b 00
        E 0 80 33 00
        E 0 80 4b 00
        E 0 80 63 00
        <X 240 0
          /wFbZW5kX3BiIHNvbmdfdHJhaW5lcl9wYl8xXQ==
        >
        E 0 90 19 67
        E 0 90 31 67
        E 0 90 49 67
        E 0 90 61 67
        E 3600 80 19 00
        E 0 80 31 00
        E 0 80 49 00
        E 0 80 61 00
        E 240 90 19 6a
        E 0 90 31 6a
        E 0 90 49 6a
        E 0 90 61 6a
        E 2640 80 19 00
        E 0 80 31 00
        E 0 80 49 00
        E 0 80 61 00
        E 240 90 1a 6a
        E 0 90 32 6a
        E 0 90 4a 6a
        E 0 90 62 6a
        E 0 90 74 60
        E 720 80 1a 00
        E 0 80 32 00
        E 0 80 4a 00
        E 0 80 62 00
        E 240 90 1a 69
        E 0 90 32 69
        E 0 90 4a 69
        E 0 90 62 69
        E 2640 80 1a 00
        E 0 80 32 00
        E 0 80 4a 00
        E 0 80 62 00
        E 240 90 1b 69
        E 0 90 33 69
        E 0 90 4b 69
        E 0 90 63 69
        E 720 80 1b 00
        E 0 80 33 00
        E 0 80 4b 00
        E 0 80 63 00
        E 240 90 1b 67
        E 0 90 33 67
        E 0 90 4b 67
        E 0 90 63 67
        E 240 80 74 00
        E 3360 80 1b 00
        E 0 80 33 00
        E 0 80 4b 00
        E 0 80 63 00
        E 240 90 19 67
        E 0 90 31 67
        E 0 90 49 67
        E 0 90 61 67
        E 3600 80 19 00
        E 0 80 31 00
        E 0 80 49 00
        E 0 80 61 00
        E 240 90 19 6a
        E 0 90 31 6a
        E 0 90 49 6a
        E 0 90 61 6a
        E 2640 80 19 00
        E 0 80 31 00
        E 0 80 49 00
        E 0 80 61 00
        E 240 90 1a 6a
        E 0 90 32 6a
        E 0 90 4a 6a
        E 0 90 62 6a
        E 720 80 1a 00
        E 0 80 32 00
        E 0 80 4a 00
        E 0 80 62 00
        E 240 90 1a 69
        E 0 90 32 69
        E 0 90 4a 69
        E 0 90 62 69
        E 2640 80 1a 00
        E 0 80 32 00
        E 0 80 4a 00
        E 0 80 62 00
        E 240 90 1b 69
        E 0 90 33 69
        E 0 90 4b 69
        E 0 90 63 69
        E 720 80 1b 00
        E 0 80 33 00
        E 0 80 4b 00
        E 0 80 63 00
        E 240 90 1b 67
        E 0 90 33 67
        E 0 90 4b 67
        E 0 90 63 67
        E 3600 80 1b 00
        E 0 80 33 00
        E 0 80 4b 00
        E 0 80 63 00
        E 240 90 19 67
        E 0 90 31 67
        E 0 90 49 67
        E 0 90 61 67
        E 3600 80 19 00
        E 0 80 31 00
        E 0 80 49 00
        E 0 80 61 00
        E 240 90 19 6a
        E 0 90 31 6a
        E 0 90 49 6a
        E 0 90 61 6a
        E 2640 80 19 00
        E 0 80 31 00
        E 0 80 49 00
        E 0 80 61 00
        E 240 90 1a 6a
        E 0 90 32 6a
        E 0 90 4a 6a
        E 0 90 62 6a
        E 720 80 1a 00
        E 0 80 32 00
        E 0 80 4a 00
        E 0 80 62 00
        E 240 90 1a 69
        E 0 90 32 69
        E 0 90 4a 69
        E 0 90 62 69
        E 2640 80 1a 00
        E 0 80 32 00
        E 0 80 4a 00
        E 0 80 62 00
        E 240 90 1b 69
        E 0 90 33 69
        E 0 90 4b 69
        E 0 90 63 69
        E 0 90 74 60
        E 720 80 1b 00
        E 0 80 33 00
        E 0 80 4b 00
        E 0 80 63 00
        E 240 90 1b 67
        E 0 90 33 67
        E 0 90 4b 67
        E 0 90 63 67
        E 3600 80 1b 00
        E 0 80 33 00
        E 0 80 4b 00
        E 0 80 63 00
        <X 240 0
          /wFbYmVnaW5fcGIgc29uZ190cmFpbmVyX3BiXzJd
        >
        E 0 80 74 00
        E 0 90 1b 69
        E 0 90 33 69
        E 0 90 4b 69
        E 0 90 63 69
        E 0 90 6c 65
        E 120 80 1b 00
        E 0 80 33 00
        E 0 80 4b 00
        E 0 80 63 00
        E 0 80 6c 00
        E 360 90 33 69
        E 0 90 4b 69
        E 0 90 63 69
        E 120 80 33 00
        E 0 80 4b 00
        E 0 80 63 00
        E 360 90 1b 69
        E 0 90 33 69
        E 0 90 4b 69
        E 0 90 63 69
        E 120 80 1b 00
        E 0 80 33 00
        E 0 80 4b 00
        E 0 80 63 00
        E 360 90 33 69
        E 0 90 4b 69
        E 0 90 63 69
        E 120 80 33 00
        E 0 80 4b 00
        E 0 80 63 00
        E 360 90 1b 69
        E 0 90 33 69
        E 0 90 4b 69
        E 0 90 63 69
        E 120 80 1b 00
        E 0 80 33 00
        E 0 80 4b 00
        E 0 80 63 00
        E 360 90 33 69
        E 0 90 4b 69
        E 0 90 63 69
        E 120 80 33 00
        E 0 80 4b 00
        E 0 80 63 00
        E 360 90 1b 69
        E 0 90 33 69
        E 0 90 4b 69
        E 0 90 63 69
        E 120 80 1b 00
        E 0 80 33 00
        E 0 80 4b 00
        E 0 80 63 00
        E 360 90 33 69
        E 0 90 4b 69
        E 0 90 63 69
        E 120 80 33 00
        E 0 80 4b 00
        E 0 80 63 00
        <X 360 0
          /wFbcGJfbm9ybSBzb25nX3RyYWluZXJfcGJfMl0=
        >
        E 0 90 1a 65
        E 0 90 32 65
        E 0 90 4a 65
        E 0 90 62 65
        E 120 80 1a 00
        E 0 80 32 00
        E 0 80 4a 00
        E 0 80 62 00
        E 360 90 32 65
        E 0 90 4a 65
        E 0 90 62 65
        E 120 80 32 00
        E 0 80 4a 00
        E 0 80 62 00
        E 360 90 1a 65
        E 0 90 32 65
        E 0 90 4a 65
        E 0 90 62 65
        E 120 80 1a 00
        E 0 80 32 00
        E 0 80 4a 00
        E 0 80 62 00
        E 360 90 32 65
        E 0 90 4a 65
        E 0 90 62 65
        E 120 80 32 00
        E 0 80 4a 00
        E 0 80 62 00
        E 360 90 1a 65
        E 0 90 32 65
        E 0 90 4a 65
        E 0 90 62 65
        E 120 80 1a 00
        E 0 80 32 00
        E 0 80 4a 00
        E 0 80 62 00
        E 360 90 32 65
        E 0 90 4a 65
        E 0 90 62 65
        E 120 80 32 00
        E 0 80 4a 00
        E 0 80 62 00
        E 360 90 1a 65
        E 0 90 32 65
        E 0 90 4a 65
        E 0 90 62 65
        E 120 80 1a 00
        E 0 80 32 00
        E 0 80 4a 00
        E 0 80 62 00
        E 360 90 32 65
        E 0 90 4a 65
        E 0 90 62 65
        E 120 80 32 00
        E 0 80 4a 00
        E 0 80 62 00
        E 360 90 1a 69
        E 0 90 32 69
        E 0 90 4a 69
        E 0 90 62 69
        E 120 80 1a 00
        E 0 80 32 00
        E 0 80 4a 00
        E 0 80 62 00
        E 360 90 32 69
        E 0 90 4a 69
        E 0 90 62 69
        E 120 80 32 00
        E 0 80 4a 00
        E 0 80 62 00
        E 360 90 1a 69
        E 0 90 32 69
        E 0 90 4a 69
        E 0 90 62 69
        E 120 80 1a 00
        E 0 80 32 00
        E 0 80 4a 00
        E 0 80 62 00
        E 360 90 32 69
        E 0 90 4a 69
        E 0 90 62 69
        E 120 80 32 00
        E 0 80 4a 00
        E 0 80 62 00
        E 360 90 1a 69
        E 0 90 32 69
        E 0 90 4a 69
        E 0 90 62 69
        E 120 80 1a 00
        E 0 80 32 00
        E 0 80 4a 00
        E 0 80 62 00
        E 360 90 32 69
        E 0 90 4a 69
        E 0 90 62 69
        E 120 80 32 00
        E 0 80 4a 00
        E 0 80 62 00
        E 360 90 1a 69
        E 0 90 32 69
        E 0 90 4a 69
        E 0 90 62 69
        E 120 80 1a 00
        E 0 80 32 00
        E 0 80 4a 00
        E 0 80 62 00
        E 360 90 32 69
        E 0 90 4a 69
        E 0 90 62 69
        E 120 80 32 00
        E 0 80 4a 00
        E 0 80 62 00
        E 360 90 1a 67
        E 0 90 32 67
        E 0 90 4a 67
        E 0 90 62 67
        E 120 80 1a 00
        E 0 80 32 00
        E 0 80 4a 00
        E 0 80 62 00
        E 360 90 32 67
        E 0 90 4a 67
        E 0 90 62 67
        E 120 80 32 00
        E 0 80 4a 00
        E 0 80 62 00
        E 360 90 1a 67
        E 0 90 32 67
        E 0 90 4a 67
        E 0 90 62 67
        E 120 80 1a 00
        E 0 80 32 00
        E 0 80 4a 00
        E 0 80 62 00
        E 360 90 32 67
        E 0 90 4a 67
        E 0 90 62 67
        E 120 80 32 00
        E 0 80 4a 00
        E 0 80 62 00
        E 360 90 1a 67
        E 0 90 32 67
        E 0 90 4a 67
        E 0 90 62 67
        E 120 80 1a 00
        E 0 80 32 00
        E 0 80 4a 00
        E 0 80 62 00
        E 360 90 32 67
        E 0 90 4a 67
        E 0 90 62 67
        E 120 80 32 00
        E 0 80 4a 00
        E 0 80 62 00
        E 360 90 1a 67
        E 0 90 32 67
        E 0 90 4a 67
        E 0 90 62 67
        E 120 80 1a 00
        E 0 80 32 00
        E 0 80 4a 00
        E 0 80 62 00
        E 360 90 32 67
        E 0 90 4a 67
        E 0 90 62 67
        E 120 80 32 00
        E 0 80 4a 00
        E 0 80 62 00
        <X 360 0
          /wFbZW5kX3BiIHNvbmdfdHJhaW5lcl9wYl8yXQ==
        >
        E 0 90 1b 69
        E 0 90 33 69
        E 0 90 4b 69
        E 0 90 63 69
        E 120 80 1b 00
        E 0 80 33 00
        E 0 80 4b 00
        E 0 80 63 00
        E 360 90 33 69
        E 0 90 4b 69
        E 0 90 63 69
        E 120 80 33 00
        E 0 80 4b 00
        E 0 80 63 00
        E 360 90 1b 69
        E 0 90 33 69
        E 0 90 4b 69
        E 0 90 63 69
        E 120 80 1b 00
        E 0 80 33 00
        E 0 80 4b 00
        E 0 80 63 00
        E 360 90 33 69
        E 0 90 4b 69
        E 0 90 63 69
        E 120 80 33 00
        E 0 80 4b 00
        E 0 80 63 00
        E 360 90 1b 69
        E 0 90 33 69
        E 0 90 4b 69
        E 0 90 63 69
        E 120 80 1b 00
        E 0 80 33 00
        E 0 80 4b 00
        E 0 80 63 00
        E 360 90 33 69
        E 0 90 4b 69
        E 0 90 63 69
        E 120 80 33 00
        E 0 80 4b 00
        E 0 80 63 00
        E 360 90 1b 69
        E 0 90 33 69
        E 0 90 4b 69
        E 0 90 63 69
        E 120 80 1b 00
        E 0 80 33 00
        E 0 80 4b 00
        E 0 80 63 00
        E 360 90 33 69
        E 0 90 4b 69
        E 0 90 63 69
        E 120 80 33 00
        E 0 80 4b 00
        E 0 80 63 00
        E 360 90 1a 65
        E 0 90 32 65
        E 0 90 4a 65
        E 0 90 62 65
        E 120 80 1a 00
        E 0 80 32 00
        E 0 80 4a 00
        E 0 80 62 00
        E 360 90 32 65
        E 0 90 4a 65
        E 0 90 62 65
        E 120 80 32 00
        E 0 80 4a 00
        E 0 80 62 00
        E 360 90 1a 65
        E 0 90 32 65
        E 0 90 4a 65
        E 0 90 62 65
        E 120 80 1a 00
        E 0 80 32 00
        E 0 80 4a 00
        E 0 80 62 00
        E 360 90 32 65
        E 0 90 4a 65
        E 0 90 62 65
        E 120 80 32 00
        E 0 80 4a 00
        E 0 80 62 00
        E 360 90 1a 65
        E 0 90 32 65
        E 0 90 4a 65
        E 0 90 62 65
        E 120 80 1a 00
        E 0 80 32 00
        E 0 80 4a 00
        E 0 80 62 00
        E 360 90 32 65
        E 0 90 4a 65
        E 0 90 62 65
        E 120 80 32 00
        E 0 80 4a 00
        E 0 80 62 00
        E 360 90 1a 65
        E 0 90 32 65
        E 0 90 4a 65
        E 0 90 62 65
        E 120 80 1a 00
        E 0 80 32 00
        E 0 80 4a 00
        E 0 80 62 00
        E 360 90 32 65
        E 0 90 4a 65
        E 0 90 62 65
        E 120 80 32 00
        E 0 80 4a 00
        E 0 80 62 00
        E 360 90 1a 69
        E 0 90 32 69
        E 0 90 4a 69
        E 0 90 62 69
        E 120 80 1a 00
        E 0 80 32 00
        E 0 80 4a 00
        E 0 80 62 00
        E 360 90 32 69
        E 0 90 4a 69
        E 0 90 62 69
        E 120 80 32 00
        E 0 80 4a 00
        E 0 80 62 00
        E 360 90 1a 69
        E 0 90 32 69
        E 0 90 4a 69
        E 0 90 62 69
        E 120 80 1a 00
        E 0 80 32 00
        E 0 80 4a 00
        E 0 80 62 00
        E 360 90 32 69
        E 0 90 4a 69
        E 0 90 62 69
        E 120 80 32 00
        E 0 80 4a 00
        E 0 80 62 00
        E 360 90 1a 69
        E 0 90 32 69
        E 0 90 4a 69
        E 0 90 62 69
        E 120 80 1a 00
        E 0 80 32 00
        E 0 80 4a 00
        E 0 80 62 00
        E 360 90 32 69
        E 0 90 4a 69
        E 0 90 62 69
        E 120 80 32 00
        E 0 80 4a 00
        E 0 80 62 00
        E 360 90 1a 69
        E 0 90 32 69
        E 0 90 4a 69
        E 0 90 62 69
        E 120 80 1a 00
        E 0 80 32 00
        E 0 80 4a 00
        E 0 80 62 00
        E 360 90 32 69
        E 0 90 4a 69
        E 0 90 62 69
        E 120 80 32 00
        E 0 80 4a 00
        E 0 80 62 00
        E 360 90 1a 67
        E 0 90 32 67
        E 0 90 4a 67
        E 0 90 62 67
        E 120 80 1a 00
        E 0 80 32 00
        E 0 80 4a 00
        E 0 80 62 00
        E 360 90 32 67
        E 0 90 4a 67
        E 0 90 62 67
        E 120 80 32 00
        E 0 80 4a 00
        E 0 80 62 00
        E 360 90 1a 67
        E 0 90 32 67
        E 0 90 4a 67
        E 0 90 62 67
        E 120 80 1a 00
        E 0 80 32 00
        E 0 80 4a 00
        E 0 80 62 00
        E 360 90 32 67
        E 0 90 4a 67
        E 0 90 62 67
        E 120 80 32 00
        E 0 80 4a 00
        E 0 80 62 00
        E 360 90 1a 67
        E 0 90 32 67
        E 0 90 4a 67
        E 0 90 62 67
        E 120 80 1a 00
        E 0 80 32 00
        E 0 80 4a 00
        E 0 80 62 00
        E 360 90 32 67
        E 0 90 4a 67
        E 0 90 62 67
        E 120 80 32 00
        E 0 80 4a 00
        E 0 80 62 00
        E 360 90 1a 67
        E 0 90 32 67
        E 0 90 4a 67
        E 0 90 62 67
        E 120 80 1a 00
        E 0 80 32 00
        E 0 80 4a 00
        E 0 80 62 00
        E 360 90 32 67
        E 0 90 4a 67
        E 0 90 62 67
        E 120 80 32 00
        E 0 80 4a 00
        E 0 80 62 00
        E 360 90 1b 69
        E 0 90 33 69
        E 0 90 4b 69
        E 0 90 63 69
        E 120 80 1b 00
        E 0 80 33 00
        E 0 80 4b 00
        E 0 80 63 00
        E 360 90 33 69
        E 0 90 4b 69
        E 0 90 63 69
        E 120 80 33 00
        E 0 80 4b 00
        E 0 80 63 00
        E 360 90 1b 69
        E 0 90 33 69
        E 0 90 4b 69
        E 0 90 63 69
        E 120 80 1b 00
        E 0 80 33 00
        E 0 80 4b 00
        E 0 80 63 00
        E 360 90 33 69
        E 0 90 4b 69
        E 0 90 63 69
        E 120 80 33 00
        E 0 80 4b 00
        E 0 80 63 00
        E 360 90 1b 69
        E 0 90 33 69
        E 0 90 4b 69
        E 0 90 63 69
        E 120 80 1b 00
        E 0 80 33 00
        E 0 80 4b 00
        E 0 80 63 00
        E 360 90 33 69
        E 0 90 4b 69
        E 0 90 63 69
        E 120 80 33 00
        E 0 80 4b 00
        E 0 80 63 00
        E 360 90 1b 69
        E 0 90 33 69
        E 0 90 4b 69
        E 0 90 63 69
        E 120 80 1b 00
        E 0 80 33 00
        E 0 80 4b 00
        E 0 80 63 00
        E 360 90 33 69
        E 0 90 4b 69
        E 0 90 63 69
        E 120 80 33 00
        E 0 80 4b 00
        E 0 80 63 00
        E 360 90 1a 65
        E 0 90 32 65
        E 0 90 4a 65
        E 0 90 62 65
        E 120 80 1a 00
        E 0 80 32 00
        E 0 80 4a 00
        E 0 80 62 00
        E 360 90 32 65
        E 0 90 4a 65
        E 0 90 62 65
        E 120 80 32 00
        E 0 80 4a 00
        E 0 80 62 00
        E 360 90 1a 65
        E 0 90 32 65
        E 0 90 4a 65
        E 0 90 62 65
        E 120 80 1a 00
        E 0 80 32 00
        E 0 80 4a 00
        E 0 80 62 00
        E 360 90 32 65
        E 0 90 4a 65
        E 0 90 62 65
        E 120 80 32 00
        E 0 80 4a 00
        E 0 80 62 00
        E 360 90 1a 65
        E 0 90 32 65
        E 0 90 4a 65
        E 0 90 62 65
        E 120 80 1a 00
        E 0 80 32 00
        E 0 80 4a 00
        E 0 80 62 00
        E 360 90 32 65
        E 0 90 4a 65
        E 0 90 62 65
        E 120 80 32 00
        E 0 80 4a 00
        E 0 80 62 00
        E 360 90 1a 65
        E 0 90 32 65
        E 0 90 4a 65
        E 0 90 62 65
        E 120 80 1a 00
        E 0 80 32 00
        E 0 80 4a 00
        E 0 80 62 00
        E 360 90 32 65
        E 0 90 4a 65
        E 0 90 62 65
        E 120 80 32 00
        E 0 80 4a 00
        E 0 80 62 00
        E 360 90 1a 69
        E 0 90 32 69
        E 0 90 4a 69
        E 0 90 62 69
        E 120 80 1a 00
        E 0 80 32 00
        E 0 80 4a 00
        E 0 80 62 00
        E 360 90 32 69
        E 0 90 4a 69
        E 0 90 62 69
        E 120 80 32 00
        E 0 80 4a 00
        E 0 80 62 00
        E 360 90 1a 69
        E 0 90 32 69
        E 0 90 4a 69
        E 0 90 62 69
        E 120 80 1a 00
        E 0 80 32 00
        E 0 80 4a 00
        E 0 80 62 00
        E 360 90 32 69
        E 0 90 4a 69
        E 0 90 62 69
        E 120 80 32 00
        E 0 80 4a 00
        E 0 80 62 00
        E 360 90 1a 69
        E 0 90 32 69
        E 0 90 4a 69
        E 0 90 62 69
        E 120 80 1a 00
        E 0 80 32 00
        E 0 80 4a 00
        E 0 80 62 00
        E 360 90 32 69
        E 0 90 4a 69
        E 0 90 62 69
        E 120 80 32 00
        E 0 80 4a 00
        E 0 80 62 00
        E 360 90 1a 69
        E 0 90 32 69
        E 0 90 4a 69
        E 0 90 62 69
        E 120 80 1a 00
        E 0 80 32 00
        E 0 80 4a 00
        E 0 80 62 00
        E 360 90 32 69
        E 0 90 4a 69
        E 0 90 62 69
        E 120 80 32 00
        E 0 80 4a 00
        E 0 80 62 00
        E 360 90 1a 67
        E 0 90 32 67
        E 0 90 4a 67
        E 0 90 62 67
        E 120 80 1a 00
        E 0 80 32 00
        E 0 80 4a 00
        E 0 80 62 00
        E 360 90 32 67
        E 0 90 4a 67
        E 0 90 62 67
        E 120 80 32 00
        E 0 80 4a 00
        E 0 80 62 00
        E 360 90 1a 67
        E 0 90 32 67
        E 0 90 4a 67
        E 0 90 62 67
        E 120 80 1a 00
        E 0 80 32 00
        E 0 80 4a 00
        E 0 80 62 00
        E 360 90 32 67
        E 0 90 4a 67
        E 0 90 62 67
        E 120 80 32 00
        E 0 80 4a 00
        E 0 80 62 00
        E 360 90 1a 67
        E 0 90 32 67
        E 0 90 4a 67
        E 0 90 62 67
        E 120 80 1a 00
        E 0 80 32 00
        E 0 80 4a 00
        E 0 80 62 00
        E 360 90 32 67
        E 0 90 4a 67
        E 0 90 62 67
        E 120 80 32 00
        E 0 80 4a 00
        E 0 80 62 00
        E 360 90 1a 67
        E 0 90 32 67
        E 0 90 4a 67
        E 0 90 62 67
        E 120 80 1a 00
        E 0 80 32 00
        E 0 80 4a 00
        E 0 80 62 00
        E 360 90 32 67
        E 0 90 4a 67
        E 0 90 62 67
        E 120 80 32 00
        E 0 80 4a 00
        E 0 80 62 00
        E 360 90 1b 69
        E 0 90 33 69
        E 0 90 4b 69
        E 0 90 63 69
        E 0 90 74 60
        E 120 80 1b 00
        E 0 80 33 00
        E 0 80 4b 00
        E 0 80 63 00
        E 360 90 33 69
        E 0 90 4b 69
        E 0 90 63 69
        E 120 80 33 00
        E 0 80 4b 00
        E 0 80 63 00
        E 360 90 1b 69
        E 0 90 33 69
        E 0 90 4b 69
        E 0 90 63 69
        E 120 80 1b 00
        E 0 80 33 00
        E 0 80 4b 00
        E 0 80 63 00
        E 360 90 33 69
        E 0 90 4b 69
        E 0 90 63 69
        E 120 80 33 00
        E 0 80 4b 00
        E 0 80 63 00
        E 360 90 1b 69
        E 0 90 33 69
        E 0 90 4b 69
        E 0 90 63 69
        E 120 80 1b 00
        E 0 80 33 00
        E 0 80 4b 00
        E 0 80 63 00
        E 360 90 33 69
        E 0 90 4b 69
        E 0 90 63 69
        E 120 80 33 00
        E 0 80 4b 00
        E 0 80 63 00
        E 360 90 1b 69
        E 0 90 33 69
        E 0 90 4b 69
        E 0 90 63 69
        E 120 80 1b 00
        E 0 80 33 00
        E 0 80 4b 00
        E 0 80 63 00
        E 360 90 33 69
        E 0 90 4b 69
        E 0 90 63 69
        E 120 80 33 00
        E 0 80 4b 00
        E 0 80 63 00
        E 360 90 1a 65
        E 0 90 32 65
        E 0 90 4a 65
        E 0 90 62 65
        E 120 80 1a 00
        E 0 80 32 00
        E 0 80 4a 00
        E 0 80 62 00
        E 360 90 32 65
        E 0 90 4a 65
        E 0 90 62 65
        E 120 80 32 00
        E 0 80 4a 00
        E 0 80 62 00
        E 360 90 1a 65
        E 0 90 32 65
        E 0 90 4a 65
        E 0 90 62 65
        E 120 80 1a 00
        E 0 80 32 00
        E 0 80 4a 00
        E 0 80 62 00
        E 360 90 32 65
        E 0 90 4a 65
        E 0 90 62 65
        E 120 80 32 00
        E 0 80 4a 00
        E 0 80 62 00
        E 360 90 1a 65
        E 0 90 32 65
        E 0 90 4a 65
        E 0 90 62 65
        E 120 80 1a 00
        E 0 80 32 00
        E 0 80 4a 00
        E 0 80 62 00
        E 360 90 32 65
        E 0 90 4a 65
        E 0 90 62 65
        E 120 80 32 00
        E 0 80 4a 00
        E 0 80 62 00
        E 360 90 1a 65
        E 0 90 32 65
        E 0 90 4a 65
        E 0 90 62 65
        E 120 80 1a 00
        E 0 80 32 00
        E 0 80 4a 00
        E 0 80 62 00
        E 360 90 32 65
        E 0 90 4a 65
        E 0 90 62 65
        E 120 80 32 00
        E 0 80 4a 00
        E 0 80 62 00
        E 360 80 74 00
        E 0 90 1a 69
        E 0 90 32 69
        E 0 90 4a 69
        E 0 90 62 69
        E 120 80 1a 00
        E 0 80 32 00
        E 0 80 4a 00
        E 0 80 62 00
        E 360 90 32 69
        E 0 90 4a 69
        E 0 90 62 69
        E 120 80 32 00
        E 0 80 4a 00
        E 0 80 62 00
        E 360 90 1a 69
        E 0 90 32 69
        E 0 90 4a 69
        E 0 90 62 69
        E 120 80 1a 00
        E 0 80 32 00
        E 0 80 4a 00
        E 0 80 62 00
        E 360 90 32 69
        E 0 90 4a 69
        E 0 90 62 69
        E 120 80 32 00
        E 0 80 4a 00
        E 0 80 62 00
        E 360 90 1a 69
        E 0 90 32 69
        E 0 90 4a 69
        E 0 90 62 69
        E 120 80 1a 00
        E 0 80 32 00
        E 0 80 4a 00
        E 0 80 62 00
        E 360 90 32 69
        E 0 90 4a 69
        E 0 90 62 69
        E 120 80 32 00
        E 0 80 4a 00
        E 0 80 62 00
        E 360 90 1a 69
        E 0 90 32 69
        E 0 90 4a 69
        E 0 90 62 69
        E 120 80 1a 00
        E 0 80 32 00
        E 0 80 4a 00
        E 0 80 62 00
        E 360 90 32 69
        E 0 90 4a 69
        E 0 90 62 69
        E 120 80 32 00
        E 0 80 4a 00
        E 0 80 62 00
        E 360 90 1b 67
        E 0 90 33 67
        E 0 90 4b 67
        E 0 90 63 67
        E 120 80 1b 00
        E 0 80 33 00
        E 0 80 4b 00
        E 0 80 63 00
        E 360 90 33 67
        E 0 90 4b 67
        E 0 90 63 67
        E 120 80 33 00
        E 0 80 4b 00
        E 0 80 63 00
        E 360 90 1b 67
        E 0 90 33 67
        E 0 90 4b 67
        E 0 90 63 67
        E 120 80 1b 00
        E 0 80 33 00
        E 0 80 4b 00
        E 0 80 63 00
        E 360 90 33 67
        E 0 90 4b 67
        E 0 90 63 67
        E 120 80 33 00
        E 0 80 4b 00
        E 0 80 63 00
        E 360 90 1b 67
        E 0 90 33 67
        E 0 90 4b 67
        E 0 90 63 67
        E 120 80 1b 00
        E 0 80 33 00
        E 0 80 4b 00
        E 0 80 63 00
        E 360 90 33 67
        E 0 90 4b 67
        E 0 90 63 67
        E 120 80 33 00
        E 0 80 4b 00
        E 0 80 63 00
        E 360 90 1b 67
        E 0 90 33 67
        E 0 90 4b 67
        E 0 90 63 67
        E 120 80 1b 00
        E 0 80 33 00
        E 0 80 4b 00
        E 0 80 63 00
        E 360 90 33 67
        E 0 90 4b 67
        E 0 90 63 67
        E 120 80 33 00
        E 0 80 4b 00
        E 0 80 63 00
        <X 360 0
          /wFbYmVnaW5fcGIgc29uZ190cmFpbmVyX3BiXzNd
        >
        E 0 90 1a 69
        E 0 90 32 69
        E 0 90 4a 69
        E 0 90 62 69
        E 0 90 6c 69
        E 0 90 74 60
        E 120 80 6c 00
        E 3000 80 1a 00
        E 0 80 32 00
        E 0 80 4a 00
        E 0 80 62 00
        E 240 90 31 6a
        E 0 90 49 6a
        E 0 90 61 6a
        E 120 80 31 00
        E 0 80 49 00
        E 0 80 61 00
        <X 360 0
          /wFbcGJfbm9ybSBzb25nX3RyYWluZXJfcGJfM10=
        >
        E 0 90 1a 6a
        E 0 90 32 6a
        E 0 90 4a 6a
        E 0 90 62 6a
        E 2640 80 1a 00
        E 0 80 32 00
        E 0 80 4a 00
        E 0 80 62 00
        E 240 80 74 00
        E 0 90 1a 6c
        E 0 90 32 6c
        E 0 90 4a 6c
        E 0 90 62 6c
        E 720 80 1a 00
        E 0 80 32 00
        E 0 80 4a 00
        E 0 80 62 00
        E 240 90 19 6a
        E 0 90 31 6a
        E 0 90 49 6a
        E 0 90 61 6a
        E 3120 80 19 00
        E 0 80 31 00
        E 0 80 49 00
        E 0 80 61 00
        E 240 90 31 6c
        E 0 90 49 6c
        E 0 90 61 6c
        E 0 90 6c 6c
        E 120 80 31 00
        E 0 80 49 00
        E 0 80 61 00
        E 0 80 6c 00
        E 360 90 19 6c
        E 0 90 31 6c
        E 0 90 49 6c
        E 0 90 61 6c
        E 120 80 19 00
        E 0 80 31 00
        E 0 80 49 00
        E 0 80 61 00
        E 360 90 31 6c
        E 0 90 49 6c
        E 0 90 61 6c
        E 120 80 31 00
        E 0 80 49 00
        E 0 80 61 00
        E 360 90 19 6c
        E 0 90 31 6c
        E 0 90 49 6c
        E 0 90 61 6c
        E 120 80 19 00
        E 0 80 31 00
        E 0 80 49 00
        E 0 80 61 00
        E 360 90 31 6c
        E 0 90 49 6c
        E 0 90 61 6c
        E 120 80 31 00
        E 0 80 49 00
        E 0 80 61 00
        E 120 90 4a 6e
        E 0 90 62 6e
        E 120 80 4a 00
        E 0 80 62 00
        E 120 90 1b 6e
        E 0 90 33 6e
        E 0 90 4b 6e
        E 0 90 63 6e
        E 120 80 1b 00
        E 0 80 33 00
        E 0 80 4b 00
        E 0 80 63 00
        E 360 90 33 6e
        E 0 90 4b 6e
        E 0 90 63 6e
        E 120 80 33 00
        E 0 80 4b 00
        E 0 80 63 00
        E 360 90 1b 6e
        E 0 90 33 6e
        E 0 90 4b 6e
        E 0 90 63 6e
        E 120 80 1b 00
        E 0 80 33 00
        E 0 80 4b 00
        E 0 80 63 00
        E 360 90 33 6e
        E 0 90 4b 6e
        E 0 90 63 6e
        E 120 80 33 00
        E 0 80 4b 00
        E 0 80 63 00
        <X 360 0
          /wFbYmVnaW5fcGIgc29uZ190cmFpbmVyX3BiXzRd
        >
        <X 0 0
          /wFbZW5kX3BiIHNvbmdfdHJhaW5lcl9wYl8zXQ==
        >
        E 0 90 1a 65
        E 0 90 32 65
        E 0 90 4a 65
        E 0 90 62 65
        E 0 90 6c 65
        E 120 80 6c 00
        E 3480 80 1a 00
        E 0 80 32 00
        E 0 80 4a 00
        E 0 80 62 00
        <X 240 0
          /wFbcGJfbm9ybSBzb25nX3RyYWluZXJfcGJfNF0=
        >
        E 0 90 19 67
        E 0 90 31 67
        E 0 90 49 67
        E 0 90 61 67
        E 3600 80 19 00
        E 0 80 31 00
        E 0 80 49 00
        E 0 80 61 00
        E 240 90 1b 67
        E 0 90 33 67
        E 0 90 4b 67
        E 0 90 63 67
        E 3600 80 1b 00
        E 0 80 33 00
        E 0 80 4b 00
        E 0 80 63 00
        E 240 90 1b 64
        E 0 90 33 64
        E 0 90 4b 64
        E 0 90 63 64
        E 1680 80 1b 00
        E 0 80 33 00
        E 0 80 4b 00
        E 0 80 63 00
        E 240 90 1a 67
        E 0 90 32 67
        E 0 90 4a 67
        E 0 90 62 67
        E 1680 80 1a 00
        E 0 80 32 00
        E 0 80 4a 00
        E 0 80 62 00
        <X 240 0
          /wFbZW5kX3BiIHNvbmdfdHJhaW5lcl9wYl80XQ==
        >
        E 0 90 1a 65
        E 0 90 32 65
        E 0 90 4a 65
        E 0 90 62 65
        E 0 90 74 60
        E 3600 80 1a 00
        E 0 80 32 00
        E 0 80 4a 00
        E 0 80 62 00
        E 240 90 1a 67
        E 0 90 32 67
        E 0 90 4a 67
        E 0 90 62 67
        E 3600 80 1a 00
        E 0 80 32 00
        E 0 80 4a 00
        E 0 80 62 00
        E 240 80 74 00
        E 0 90 1b 67
        E 0 90 33 67
        E 0 90 4b 67
        E 0 90 63 67
        E 3600 80 1b 00
        E 0 80 33 00
        E 0 80 4b 00
        E 0 80 63 00
        E 240 90 1b 64
        E 0 90 33 64
        E 0 90 4b 64
        E 0 90 63 64
        E 1680 80 1b 00
        E 0 80 33 00
        E 0 80 4b 00
        E 0 80 63 00
        E 240 90 1a 67
        E 0 90 32 67
        E 0 90 4a 67
        E 0 90 62 67
        E 1680 80 1a 00
        E 0 80 32 00
        E 0 80 4a 00
        E 0 80 62 00
        E 240 90 1a 65
        E 0 90 32 65
        E 0 90 4a 65
        E 0 90 62 65
        E 3600 80 1a 00
        E 0 80 32 00
        E 0 80 4a 00
        E 0 80 62 00
        E 240 90 19 67
        E 0 90 31 67
        E 0 90 49 67
        E 0 90 61 67
        E 3600 80 19 00
        E 0 80 31 00
        E 0 80 49 00
        E 0 80 61 00
        E 240 90 1b 67
        E 0 90 33 67
        E 0 90 4b 67
        E 0 90 63 67
        E 3600 80 1b 00
        E 0 80 33 00
        E 0 80 4b 00
        E 0 80 63 00
        E 240 90 1b 64
        E 0 90 33 64
        E 0 90 4b 64
        E 0 90 63 64
        E 1680 80 1b 00
        E 0 80 33 00
        E 0 80 4b 00
        E 0 80 63 00
        E 240 90 1a 67
        E 0 90 32 67
        E 0 90 4a 67
        E 0 90 62 67
        E 1680 80 1a 00
        E 0 80 32 00
        E 0 80 4a 00
        E 0 80 62 00
        E 240 90 1a 65
        E 0 90 32 65
        E 0 90 4a 65
        E 0 90 62 65
        E 3600 80 1a 00
        E 0 80 32 00
        E 0 80 4a 00
        E 0 80 62 00
        E 240 90 1a 67
        E 0 90 32 67
        E 0 90 4a 67
        E 0 90 62 67
        E 3600 80 1a 00
        E 0 80 32 00
        E 0 80 4a 00
        E 0 80 62 00
        E 240 90 1b 67
        E 0 90 33 67
        E 0 90 4b 67
        E 0 90 63 67
        E 3600 80 1b 00
        E 0 80 33 00
        E 0 80 4b 00
        E 0 80 63 00
        E 240 90 1b 64
        E 0 90 33 64
        E 0 90 4b 64
        E 0 90 63 64
        E 1680 80 1b 00
        E 0 80 33 00
        E 0 80 4b 00
        E 0 80 63 00
        E 240 90 1a 67
        E 0 90 32 67
        E 0 90 4a 67
        E 0 90 62 67
        E 0 90 74 60
        E 1680 80 1a 00
        E 0 80 32 00
        E 0 80 4a 00
        E 0 80 62 00
        E 240 90 1a 65
        E 0 90 32 65
        E 0 90 4a 65
        E 0 90 62 65
        E 240 80 74 00
        E 7200 80 1a 00
        E 0 80 32 00
        E 0 80 4a 00
        E 0 80 62 00
        <X 240 0
          /wFbYmVnaW5fcGIgc29uZ190cmFpbmVyX3BiXzVd
        >
        E 0 90 1b 64
        E 0 90 33 64
        E 0 90 4b 64
        E 0 90 63 64
        E 3600 80 1b 00
        E 0 80 33 00
        E 0 80 4b 00
        E 0 80 63 00
        <X 240 0
          /wFbcGJfbm9ybSBzb25nX3RyYWluZXJfcGJfNV0=
        >
        E 0 90 1a 65
        E 0 90 32 65
        E 0 90 4a 65
        E 0 90 62 65
        E 2640 80 1a 00
        E 0 80 32 00
        E 0 80 4a 00
        E 0 80 62 00
        E 240 90 1b 64
        E 0 90 33 64
        E 0 90 4b 64
        E 0 90 63 64
        E 720 80 1b 00
        E 0 80 33 00
        E 0 80 4b 00
        E 0 80 63 00
        E 240 90 1b 67
        E 0 90 33 67
        E 0 90 4b 67
        E 0 90 63 67
        E 3600 80 1b 00
        E 0 80 33 00
        E 0 80 4b 00
        E 0 80 63 00
        E 240 90 1a 65
        E 0 90 32 65
        E 0 90 4a 65
        E 0 90 62 65
        E 1680 80 1a 00
        E 0 80 32 00
        E 0 80 4a 00
        E 0 80 62 00
        E 240 90 1a 67
        E 0 90 32 67
        E 0 90 4a 67
        E 0 90 62 67
        E 1680 80 1a 00
        E 0 80 32 00
        E 0 80 4a 00
        E 0 80 62 00
        <X 240 0
          /wFbZW5kX3BiIHNvbmdfdHJhaW5lcl9wYl81XQ==
        >
        E 0 90 1b 64
        E 0 90 33 64
        E 0 90 4b 64
        E 0 90 63 64
        E 3600 80 1b 00
        E 0 80 33 00
        E 0 80 4b 00
        E 0 80 63 00
        E 240 90 1a 65
        E 0 90 32 65
        E 0 90 4a 65
        E 0 90 62 65
        E 2640 80 1a 00
        E 0 80 32 00
        E 0 80 4a 00
        E 0 80 62 00
        E 240 90 1b 64
        E 0 90 33 64
        E 0 90 4b 64
        E 0 90 63 64
        E 720 80 1b 00
        E 0 80 33 00
        E 0 80 4b 00
        E 0 80 63 00
        E 240 90 1b 67
        E 0 90 33 67
        E 0 90 4b 67
        E 0 90 63 67
        E 3600 80 1b 00
        E 0 80 33 00
        E 0 80 4b 00
        E 0 80 63 00
        E 240 90 62 65
        E 1680 80 62 00
        E 240 90 1a 67
        E 0 90 32 67
        E 0 90 4a 67
        E 0 90 62 67
        E 1680 80 1a 00
        E 0 80 32 00
        E 0 80 4a 00
        E 0 80 62 00
        E 240 90 1b 64
        E 0 90 33 64
        E 0 90 4b 64
        E 0 90 63 64
        E 3600 80 1b 00
        E 0 80 33 00
        E 0 80 4b 00
        E 0 80 63 00
        E 240 90 1a 65
        E 0 90 32 65
        E 0 90 4a 65
        E 0 90 62 65
        E 2640 80 1a 00
        E 0 80 32 00
        E 0 80 4a 00
        E 0 80 62 00
        E 240 90 1b 64
        E 0 90 33 64
        E 0 90 4b 64
        E 0 90 63 64
        E 720 80 1b 00
        E 0 80 33 00
        E 0 80 4b 00
        E 0 80 63 00
        E 240 90 1b 67
        E 0 90 33 67
        E 0 90 4b 67
        E 0 90 63 67
        E 3600 80 1b 00
        E 0 80 33 00
        E 0 80 4b 00
        E 0 80 63 00
        E 240 90 62 65
        E 0 90 74 60
        E 1680 80 62 00
        E 240 90 1a 67
        E 0 90 32 67
        E 0 90 4a 67
        E 0 90 62 67
        E 1680 80 1a 00
        E 0 80 32 00
        E 0 80 4a 00
        E 0 80 62 00
        E 240 90 1b 64
        E 0 90 33 64
        E 0 90 4b 64
        E 0 90 63 64
        E 240 80 74 00
        E 3360 80 1b 00
        E 0 80 33 00
        E 0 80 4b 00
        E 0 80 63 00
        E 240 90 1a 65
        E 0 90 32 65
        E 0 90 4a 65
        E 0 90 62 65
        E 2640 80 1a 00
        E 0 80 32 00
        E 0 80 4a 00
        E 0 80 62 00
        E 240 90 1b 64
        E 0 90 33 64
        E 0 90 4b 64
        E 0 90 63 64
        E 720 80 1b 00
        E 0 80 33 00
        E 0 80 4b 00
        E 0 80 63 00
        E 240 90 1b 67
        E 0 90 33 67
        E 0 90 4b 67
        E 0 90 63 67
        E 3600 80 1b 00
        E 0 80 33 00
        E 0 80 4b 00
        E 0 80 63 00
        E 240 90 62 65
        E 1680 80 62 00
        E 240 90 1a 67
        E 0 90 32 67
        E 0 90 4a 67
        E 0 90 62 67
        E 1680 80 1a 00
        E 0 80 32 00
        E 0 80 4a 00
        E 0 80 62 00
        <X 240 0
          /wFbYmVnaW5fcGIgc29uZ190cmFpbmVyX3BiXzZd
        >
        E 0 90 1b 64
        E 0 90 33 64
        E 0 90 4b 64
        E 0 90 63 64
        E 3600 80 1b 00
        E 0 80 33 00
        E 0 80 4b 00
        E 0 80 63 00
        <X 240 0
          /wFbcGJfbm9ybSBzb25nX3RyYWluZXJfcGJfNl0=
        >
        E 0 90 1b 65
        E 0 90 33 65
        E 0 90 4b 65
        E 0 90 63 65
        E 2640 80 1b 00
        E 0 80 33 00
        E 0 80 4b 00
        E 0 80 63 00
        E 240 90 1b 67
        E 0 90 33 67
        E 0 90 4b 67
        E 0 90 63 67
        E 720 80 1b 00
        E 0 80 33 00
        E 0 80 4b 00
        E 0 80 63 00
        E 240 90 1a 65
        E 0 90 32 65
        E 0 90 4a 65
        E 0 90 62 65
        E 3600 80 1a 00
        E 0 80 32 00
        E 0 80 4a 00
        E 0 80 62 00
        <X 240 0
          /wFbZW5kX3BiIHNvbmdfdHJhaW5lcl9wYl82XQ==
        >
        E 0 90 1a 67
        E 0 90 32 67
        E 0 90 4a 67
        E 0 90 62 67
        E 3600 80 1a 00
        E 0 80 32 00
        E 0 80 4a 00
        E 0 80 62 00
        E 240 90 1b 64
        E 0 90 33 64
        E 0 90 4b 64
        E 0 90 63 64
        E 3120 80 1b 00
        E 0 80 33 00
        E 0 80 4b 00
        E 0 80 63 00
        E 240 90 32 65
        E 0 90 4a 65
        E 0 90 62 65
        E 120 80 32 00
        E 0 80 4a 00
        E 0 80 62 00
        E 360 90 1b 65
        E 0 90 33 65
        E 0 90 4b 65
        E 0 90 63 65
        E 2640 80 1b 00
        E 0 80 33 00
        E 0 80 4b 00
        E 0 80 63 00
        E 240 90 1b 67
        E 0 90 33 67
        E 0 90 4b 67
        E 0 90 63 67
        E 720 80 1b 00
        E 0 80 33 00
        E 0 80 4b 00
        E 0 80 63 00
        E 240 90 1a 65
        E 0 90 32 65
        E 0 90 4a 65
        E 0 90 62 65
        E 3600 80 1a 00
        E 0 80 32 00
        E 0 80 4a 00
        E 0 80 62 00
        E 240 90 1a 67
        E 0 90 32 67
        E 0 90 4a 67
        E 0 90 62 67
        E 0 90 6c 67
        E 120 80 1a 00
        E 0 80 32 00
        E 0 80 4a 00
        E 0 80 62 00
        E 0 80 6c 00
        E 360 90 32 67
        E 0 90 4a 67
        E 0 90 62 67
        E 120 80 32 00
        E 0 80 4a 00
        E 0 80 62 00
        E 360 90 1a 67
        E 0 90 32 67
        E 0 90 4a 67
        E 0 90 62 67
        E 120 80 1a 00
        E 0 80 32 00
        E 0 80 4a 00
        E 0 80 62 00
        E 360 90 32 67
        E 0 90 4a 67
        E 0 90 62 67
        E 120 80 32 00
        E 0 80 4a 00
        E 0 80 62 00
        E 360 90 1a 67
        E 0 90 32 67
        E 0 90 4a 67
        E 0 90 62 67
        E 120 80 1a 00
        E 0 80 32 00
        E 0 80 4a 00
        E 0 80 62 00
        E 360 90 32 67
        E 0 90 4a 67
        E 0 90 62 67
        E 120 80 32 00
        E 0 80 4a 00
        E 0 80 62 00
        E 360 90 1a 67
        E 0 90 32 67
        E 0 90 4a 67
        E 0 90 62 67
        E 120 80 1a 00
        E 0 80 32 00
        E 0 80 4a 00
        E 0 80 62 00
        E 360 90 32 67
        E 0 90 4a 67
        E 0 90 62 67
        E 120 80 32 00
        E 0 80 4a 00
        E 0 80 62 00
        E 360 90 1a 67
        E 0 90 32 67
        E 0 90 4a 67
        E 0 90 62 67
        E 120 80 1a 00
        E 0 80 32 00
        E 0 80 4a 00
        E 0 80 62 00
        E 360 90 32 67
        E 0 90 4a 67
        E 0 90 62 67
        E 120 80 32 00
        E 0 80 4a 00
        E 0 80 62 00
        E 360 90 1a 67
        E 0 90 32 67
        E 0 90 4a 67
        E 0 90 62 67
        E 120 80 1a 00
        E 0 80 32 00
        E 0 80 4a 00
        E 0 80 62 00
        E 360 90 32 67
        E 0 90 4a 67
        E 0 90 62 67
        E 120 80 32 00
        E 0 80 4a 00
        E 0 80 62 00
        E 360 90 1a 67
        E 0 90 32 67
        E 0 90 4a 67
        E 0 90 62 67
        E 120 80 1a 00
        E 0 80 32 00
        E 0 80 4a 00
        E 0 80 62 00
        E 360 90 32 67
        E 0 90 4a 67
        E 0 90 62 67
        E 120 80 32 00
        E 0 80 4a 00
        E 0 80 62 00
        E 360 90 1a 67
        E 0 90 32 67
        E 0 90 4a 67
        E 0 90 62 67
        E 120 80 1a 00
        E 0 80 32 00
        E 0 80 4a 00
        E 0 80 62 00
        E 360 90 32 67
        E 0 90 4a 67
        E 0 90 62 67
        E 120 80 32 00
        E 0 80 4a 00
        E 0 80 62 00
        <X 360 0
          /wFbYmVnaW5fcGIgc29uZ190cmFpbmVyX3BiXzdd
        >
        E 0 90 1a 67
        E 0 90 32 67
        E 0 90 4a 67
        E 0 90 62 67
        E 120 80 1a 00
        E 0 80 32 00
        E 0 80 4a 00
        E 0 80 62 00
        E 360 90 32 67
        E 0 90 4a 67
        E 0 90 62 67
        E 120 80 32 00
        E 0 80 4a 00
        E 0 80 62 00
        E 360 90 1a 67
        E 0 90 32 67
        E 0 90 4a 67
        E 0 90 62 67
        E 120 80 1a 00
        E 0 80 32 00
        E 0 80 4a 00
        E 0 80 62 00
        E 360 90 32 67
        E 0 90 4a 67
        E 0 90 62 67
        E 120 80 32 00
        E 0 80 4a 00
        E 0 80 62 00
        <X 360 0
          /wFbcGJfbm9ybSBzb25nX3RyYWluZXJfcGJfN10=
        >
        E 0 90 1a 67
        E 0 90 32 67
        E 0 90 4a 67
        E 0 90 62 67
        E 120 80 1a 00
        E 0 80 32 00
        E 0 80 4a 00
        E 0 80 62 00
        E 360 90 32 67
        E 0 90 4a 67
        E 0 90 62 67
        E 120 80 32 00
        E 0 80 4a 00
        E 0 80 62 00
        E 360 90 1a 67
        E 0 90 32 67
        E 0 90 4a 67
        E 0 90 62 67
        E 120 80 1a 00
        E 0 80 32 00
        E 0 80 4a 00
        E 0 80 62 00
        E 360 90 32 67
        E 0 90 4a 67
        E 0 90 62 67
        E 120 80 32 00
        E 0 80 4a 00
        E 0 80 62 00
        E 120 90 4f 64
        E 0 90 67 64
        E 0 93 4a 67
        E 0 93 62 67
        E 180 80 4f 00
        E 0 80 67 00
        E 0 83 4a 00
        E 0 83 62 00
        E 60 90 1a 73
        E 0 90 32 73
        E 0 90 4a 73
        E 0 90 62 73
        E 0 90 6c 73
        E 0 90 74 60
        E 120 80 1a 00
        E 0 80 32 00
        E 0 80 4a 00
        E 0 80 62 00
        E 0 80 6c 00
        E 360 90 32 73
        E 0 90 4a 73
        E 0 90 62 73
        E 120 80 32 00
        E 0 80 4a 00
        E 0 80 62 00
        E 360 90 1a 73
        E 0 90 32 73
        E 0 90 4a 73
        E 0 90 62 73
        E 120 80 1a 00
        E 0 80 32 00
        E 0 80 4a 00
        E 0 80 62 00
        E 360 90 32 73
        E 0 90 4a 73
        E 0 90 62 73
        E 120 80 32 00
        E 0 80 4a 00
        E 0 80 62 00
        E 360 90 1a 73
        E 0 90 32 73
        E 0 90 4a 73
        E 0 90 62 73
        E 120 80 1a 00
        E 0 80 32 00
        E 0 80 4a 00
        E 0 80 62 00
        E 360 90 32 73
        E 0 90 4a 73
        E 0 90 62 73
        E 120 80 32 00
        E 0 80 4a 00
        E 0 80 62 00
        E 360 90 1a 73
        E 0 90 32 73
        E 0 90 4a 73
        E 0 90 62 73
        E 120 80 1a 00
        E 0 80 32 00
        E 0 80 4a 00
        E 0 80 62 00
        E 360 90 32 73
        E 0 90 4a 73
        E 0 90 62 73
        E 120 80 74 00
        E 0 80 32 00
        E 0 80 4a 00
        E 0 80 62 00
        <X 360 0
          /wFbZW5kX3BiIHNvbmdfdHJhaW5lcl9wYl83XQ==
        >
        E 1920 90 1a 65
        E 0 90 32 65
        E 0 90 4a 65
        E 0 90 62 65
        E 0 90 6c 65
        E 120 80 6c 00
        E 3480 80 1a 00
        E 0 80 32 00
        E 0 80 4a 00
        E 0 80 62 00
        E 240 90 19 67
        E 0 90 31 67
        E 0 90 49 67
        E 0 90 61 67
        E 3600 80 19 00
        E 0 80 31 00
        E 0 80 49 00
        E 0 80 61 00
        E 240 90 1b 67
        E 0 90 33 67
        E 0 90 4b 67
        E 0 90 63 67
        E 3600 80 1b 00
        E 0 80 33 00
        E 0 80 4b 00
        E 0 80 63 00
        E 240 90 1b 64
        E 0 90 33 64
        E 0 90 4b 64
        E 0 90 63 64
        E 1680 80 1b 00
        E 0 80 33 00
        E 0 80 4b 00
        E 0 80 63 00
        E 240 90 1a 67
        E 0 90 32 67
        E 0 90 4a 67
        E 0 90 62 67
        E 1680 80 1a 00
        E 0 80 32 00
        E 0 80 4a 00
        E 0 80 62 00
        E 240 90 1a 65
        E 0 90 32 65
        E 0 90 4a 65
        E 0 90 62 65
        E 3600 80 1a 00
        E 0 80 32 00
        E 0 80 4a 00
        E 0 80 62 00
        E 240 90 1a 67
        E 0 90 32 67
        E 0 90 4a 67
        E 0 90 62 67
        E 3600 80 1a 00
        E 0 80 32 00
        E 0 80 4a 00
        E 0 80 62 00
        E 240 90 1b 67
        E 0 90 33 67
        E 0 90 4b 67
        E 0 90 63 67
        E 3600 80 1b 00
        E 0 80 33 00
        E 0 80 4b 00
        E 0 80 63 00
        E 240 90 1b 64
        E 0 90 33 64
        E 0 90 4b 64
        E 0 90 63 64
        E 1680 80 1b 00
        E 0 80 33 00
        E 0 80 4b 00
        E 0 80 63 00
        E 240 90 1a 67
        E 0 90 32 67
        E 0 90 4a 67
        E 0 90 62 67
        E 1680 80 1a 00
        E 0 80 32 00
        E 0 80 4a 00
        E 0 80 62 00
        E 240 90 1a 65
        E 0 90 32 65
        E 0 90 4a 65
        E 0 90 62 65
        E 0 90 74 60
        E 3600 80 1a 00
        E 0 80 32 00
        E 0 80 4a 00
        E 0 80 62 00
        E 240 90 19 67
        E 0 90 31 67
        E 0 90 49 67
        E 0 90 61 67
        E 120 80 74 00
        E 3480 80 19 00
        E 0 80 31 00
        E 0 80 49 00
        E 0 80 61 00
        E 240 90 1b 67
        E 0 90 33 67
        E 0 90 4b 67
        E 0 90 63 67
        E 3600 80 1b 00
        E 0 80 33 00
        E 0 80 4b 00
        E 0 80 63 00
        E 240 90 1b 64
        E 0 90 33 64
        E 0 90 4b 64
        E 0 90 63 64
        E 1680 80 1b 00
        E 0 80 33 00
        E 0 80 4b 00
        E 0 80 63 00
        E 240 90 1a 67
        E 0 90 32 67
        E 0 90 4a 67
        E 0 90 62 67
        E 1680 80 1a 00
        E 0 80 32 00
        E 0 80 4a 00
        E 0 80 62 00
        E 240 90 1a 65
        E 0 90 32 65
        E 0 90 4a 65
        E 0 90 62 65
        E 3600 80 1a 00
        E 0 80 32 00
        E 0 80 4a 00
        E 0 80 62 00
        E 240 90 1a 67
        E 0 90 32 67
        E 0 90 4a 67
        E 0 90 62 67
        E 3600 80 1a 00
        E 0 80 32 00
        E 0 80 4a 00
        E 0 80 62 00
        E 240 90 1b 67
        E 0 90 33 67
        E 0 90 4b 67
        E 0 90 63 67
        E 3600 80 1b 00
        E 0 80 33 00
        E 0 80 4b 00
        E 0 80 63 00
        E 240 90 1b 64
        E 0 90 33 64
        E 0 90 4b 64
        E 0 90 63 64
        E 1680 80 1b 00
        E 0 80 33 00
        E 0 80 4b 00
        E 0 80 63 00
        E 240 90 1a 67
        E 0 90 32 67
        E 0 90 4a 67
        E 0 90 62 67
        E 1680 80 1a 00
        E 0 80 32 00
        E 0 80 4a 00
        E 0 80 62 00
        E 240 90 1a 65
        E 0 90 32 65
        E 0 90 4a 65
        E 0 90 62 65
        E 5520 80 1a 00
        E 0 80 32 00
        E 0 80 4a 00
        E 0 80 62 00
        E 240 90 1a 67
        E 0 90 32 67
        E 0 90 4a 67
        E 0 90 62 67
        E 720 80 1a 00
        E 0 80 32 00
        E 0 80 4a 00
        E 0 80 62 00
        E 240 90 1b 64
        E 0 90 33 64
        E 0 90 4b 64
        E 0 90 63 64
        E 720 80 1b 00
        E 0 80 33 00
        E 0 80 4b 00
        E 0 80 63 00
        E 240 90 1b 67
        E 0 90 33 67
        E 0 90 4b 67
        E 0 90 63 67
        E 0 90 6c 67
        E 120 80 6c 00
        E 20999 80 1b 00
        E 0 80 33 00
        E 0 80 4b 00
        E 0 80 63 00
        E 5761 b0 7b 00
        GUID {9EE5B252-5BE9-4450-88CC-320A5CB9BF79}
        IGNTEMPO 0 120.00000000 4 4
        SRCCOLOR 10
        VELLANE 132 128 60
        COLORMAP "C:\Program Files\REAPER (x64)\Data\color_maps\rockband_guitarbass.png"
        CFGEDITVIEW -26958.646950 3.920965 0 12 0 0 0
        CFGEDIT 1 1 0 1 1 0 1 1 1 1 1 0.25000000 -8 -8 1544 872 0 2 1 1 0.00000000 0 1 1 0 0.500000 0 0 1.000000 64
        KEYSNAP 0 7 "102030050700" 0 "Pentatonic"
        EVTFILTER 0 -1 -1 -1 -1 0 1 0 0 -1.00000000 -1.00000000
      >
    >
  >
  <TRACK '{9D6A28F9-253D-43A4-9B35-9A72E9121425}'
    NAME "PART REAL_GUITAR"
    PEAKCOL 16576
    BEAT -1
    AUTOMODE 0
    VOLPAN 1.00000000000000 0.00000000000000 -1.00000000000000 -1.00000000000000 1.00000000000000
    MUTESOLO 0 0 0
    IPHASE 0
    ISBUS 0 0
    BUSCOMP 0 0
    SHOWINMIX 1 0.666700 0.500000 1 0.500000 -1 -1 -1
    FREEMODE 0
    SEL 0
    REC 0 0 0 0 0 0 0
    VU 2
    TRACKHEIGHT 0 0
    INQ 0 0 0 0.5000000000 100 0 0 100
    NCHAN 2
    FX 0
    TRACKID {9D6A28F9-253D-43A4-9B35-9A72E9121425}
    PERF 0
    MIDIOUT -1
    <MIDINOTENAMES
      0 127 "Trill Marker"
      0 126 "Tremolo Marker"
      0 125 "BRE"
      0 124 "BRE"
      0 123 "BRE"
      0 122 "BRE"
      0 121 "BRE"
      0 120 "BRE (use all 6)"
      0 119 "-----------"
      0 116 "OVERDRIVE"
      0 115 "Solo Marker"
      0 109 "-----------"
      0 108 "Fret Hand Position"
      0 107 "Force Chord Numbering"
      0 106 "Loose Strumming"
      0 105 "Strum Direction"
      0 104 "Arpeggio Marker"
      0 103 "Slide Marker"
      0 102 "Force HOPO"
      0 101 "EXPERT e String"
      0 100 "EXPERT B String"
      0 99 "EXPERT G String"
      0 98 "EXPERT D String"
      0 97 "EXPERT A String"
      0 96 "EXPERT E String"
      0 95 "-----------"
      0 82 "Loose Strumming"
      0 81 "Strum Direction"
      0 80 "Arpeggio Marker"
      0 79 "Slide Marker"
      0 78 "Force HOPO"
      0 77 "HARD e String"
      0 76 "HARD B String"
      0 75 "HARD G String"
      0 74 "HARD D String"
      0 73 "HARD A String"
      0 72 "HARD E String"
      0 71 "-----------"
      0 58 "Loose Strumming"
      0 56 "Arpeggio Marker"
      0 55 "Slide Marker"
      0 53 "MEDIUM e String"
      0 52 "MEDIUM B String"
      0 51 "MEDIUM G String"
      0 50 "MEDIUM D String"
      0 49 "MEDIUM A String"
      0 48 "MEDIUM E String"
      0 47 "-----------"
      0 32 "Arpeggio Marker"
      0 31 "Slide Marker"
      0 29 "EASY e String"
      0 28 "EASY B String"
      0 27 "EASY G String"
      0 26 "EASY D String"
      0 25 "EASY A String"
      0 24 "EASY E String"
      0 21 "-----------"
      0 18 "Flat/Sharp Swap"
      0 17 "Hide Chord Names"
      0 16 "Slash Chord"
      0 15 "D#"
      0 14 "D"
      0 13 "C#"
      0 12 "C"
      0 11 "B"
      0 10 "A#"
      0 9 "A"
      0 8 "G#"
      0 7 "G"
      0 6 "F#"
      0 5 "F"
      0 4 "E"
    >
    MAINSEND 1 0
    <FXCHAIN
      WNDRECT 0 43 655 467
      SHOW 0
      LASTSEL 1
      DOCKED 0
      BYPASS 0 0
      <JS "c3/progtr" ""
        0.000000 3.000000 0.000000 0.000000 0.000000 0.000000 0.000000 0.000000 0.000000 1.000000 - - - - - - - - - - - - - - - - - - - - - - - - - - - - - - - - - - - - - - - - - - - - - - - - - - - - - - 
      >
      FLOATPOS 0 0 0 0
      FXID {DB936D04-62AB-4BCE-9BAC-3A78495A9E26}
      WAK 0
      BYPASS 0 0
      <VST "VSTi: ReaSynth (Cockos)" "reasynth.dll" 0 ""
        eXNlcu9e7f4AAAAAAgAAAAEAAAAAAAAAAgAAAAAAAAA4AAAAAAAAAA==
        AAAQAO++rd4N8K3eppvEO+gJMjyHFlk/AAAAAAAAAADMm4A+4jAEPA==
        AAAAAAAAAD+01hM+j8L1PQAAAD8AABAAAAA=
      >
      FLOATPOS 0 0 0 0
      FXID {C0969D32-C51D-4B3B-8902-AEF8F7720AA7}
      WAK 0
    >
    <ITEM
      POSITION 0.00000000000000
      SNAPOFFS 0.00000000000000
      LENGTH 286.40908800000000
      LOOP 0
      ALLTAKES 0
      SEL 0
      FADEIN 1 0.000000 0.000000 1 0
      FADEOUT 1 0.000000 0.000000 1 0
      MUTE 0
      IGUID {1D9A6380-A4E0-46F1-861D-717A30F52270}
      IID 11
      NAME "PART REAL_GUITAR"
      VOLPAN 1.000000 0.000000 1.000000 -1.000000
      SOFFS 0.00000000000000 0.00000000000000
      PLAYRATE 1.00000000000000 1 0.00000000000000 -1
      CHANMODE 0
      GUID {DBB8318B-13EC-4610-B44C-6C15195AE03A}
      <SOURCE MIDI
        HASDATA 1 480 QN
        POOLEDEVTS {99D6B5AB-EC6B-4E04-B642-011F860F4AC8}
        <X 0 0
          /wNQQVJUIFJFQUxfR1VJVEFS
        >
        <X 36480 0
          /wFbYmVnaW5fcGcgc29uZ190cmFpbmVyX3BnXzFd
        >
        E 0 90 1b 6c
        E 0 90 33 6c
        E 0 90 4b 6c
        E 0 90 63 6c
        E 0 90 6c 6a
        E 120 80 1b 00
        E 0 80 33 00
        E 0 80 4b 00
        E 0 80 63 00
        E 0 80 6c 00
        E 360 90 34 6c
        E 0 90 4c 6c
        E 0 90 64 6c
        E 120 80 34 00
        E 0 80 4c 00
        E 0 80 64 00
        E 360 90 1d 6a
        E 0 90 35 6a
        E 0 90 4d 6a
        E 0 90 65 6a
        E 120 80 1d 00
        E 0 80 35 00
        E 0 80 4d 00
        E 0 80 65 00
        E 360 90 34 6c
        E 0 90 4c 6c
        E 0 90 64 6c
        E 120 80 34 00
        E 0 80 4c 00
        E 0 80 64 00
        E 360 90 1d 6c
        E 0 90 35 6c
        E 0 90 4d 6c
        E 0 90 65 6c
        E 720 80 1d 00
        E 0 80 35 00
        E 0 80 4d 00
        E 0 80 65 00
        E 240 90 1d 6a
        E 0 90 35 6a
        E 0 90 4d 6a
        E 0 90 65 6a
        E 720 80 1d 00
        E 0 80 35 00
        E 0 80 4d 00
        E 0 80 65 00
        <X 240 0
          /wFbcGdfbm9ybSBzb25nX3RyYWluZXJfcGdfMV0=
        >
        E 0 90 1b 6c
        E 0 90 33 6c
        E 0 90 4b 6c
        E 0 90 63 6c
        E 120 80 1b 00
        E 0 80 33 00
        E 0 80 4b 00
        E 0 80 63 00
        E 360 90 34 6a
        E 0 90 4c 6a
        E 0 90 64 6a
        E 120 80 34 00
        E 0 80 4c 00
        E 0 80 64 00
        E 360 90 1c 6c
        E 0 90 34 6c
        E 0 90 4c 6c
        E 0 90 64 6c
        E 120 80 1c 00
        E 0 80 34 00
        E 0 80 4c 00
        E 0 80 64 00
        E 360 90 33 6c
        E 0 90 4b 6c
        E 0 90 63 6c
        E 120 80 33 00
        E 0 80 4b 00
        E 0 80 63 00
        E 360 90 1a 6e
        E 0 90 32 6e
        E 0 90 4a 6e
        E 0 90 62 6e
        E 0 90 6c 6e
        E 120 80 1a 00
        E 0 80 32 00
        E 0 80 4a 00
        E 0 80 62 00
        E 0 80 6c 00
        E 0 90 62 70
        E 0 90 66 64
        E 600 80 62 00
        E 0 80 66 00
        E 240 90 1a 6e
        E 0 90 32 6e
        E 0 90 4a 6e
        E 0 90 62 6e
        E 720 80 1a 00
        E 0 80 32 00
        E 0 80 4a 00
        E 0 80 62 00
        E 240 90 1a 6c
        E 0 90 32 6c
        E 0 90 4a 6c
        E 0 90 62 6c
        E 0 90 6c 6c
        E 0 90 74 60
        E 120 80 1a 00
        E 0 80 32 00
        E 0 80 4a 00
        E 0 80 62 00
        E 0 80 6c 00
        E 360 90 32 6e
        E 0 90 4a 6e
        E 0 90 62 6e
        E 120 80 32 00
        E 0 80 4a 00
        E 0 80 62 00
        E 360 90 1b 6c
        E 0 90 33 6c
        E 0 90 4b 6c
        E 0 90 63 6c
        E 120 80 1b 00
        E 0 80 33 00
        E 0 80 4b 00
        E 0 80 63 00
        E 360 90 32 6e
        E 0 90 4a 6e
        E 0 90 62 6e
        E 120 80 32 00
        E 0 80 4a 00
        E 0 80 62 00
        E 360 90 1c 6a
        E 0 90 34 6a
        E 0 90 4c 6a
        E 0 90 64 6a
        E 0 90 6c 6a
        E 120 80 1c 00
        E 0 80 34 00
        E 0 80 4c 00
        E 0 80 64 00
        E 0 80 6c 00
        E 120 90 4b 6c
        E 0 90 63 6c
        E 120 80 4b 00
        E 0 80 63 00
        E 120 90 34 6a
        E 0 90 4c 6a
        E 0 90 64 6a
        E 120 80 34 00
        E 0 80 4c 00
        E 0 80 64 00
        E 120 90 4d 6a
        E 0 90 65 6a
        E 120 80 4d 00
        E 0 80 65 00
        E 120 90 1c 6c
        E 0 90 34 6c
        E 0 90 4c 6c
        E 0 90 64 6c
        E 120 80 1c 00
        E 0 80 34 00
        E 0 80 4c 00
        E 0 80 64 00
        E 360 90 34 6a
        E 0 90 4c 6a
        E 0 90 64 6a
        E 120 80 34 00
        E 0 80 4c 00
        E 0 80 64 00
        E 360 80 74 00
        E 0 90 1b 6c
        E 0 90 33 6c
        E 0 90 4b 6c
        E 0 90 63 6c
        E 120 80 1b 00
        E 0 80 33 00
        E 0 80 4b 00
        E 0 80 63 00
        E 360 90 34 6a
        E 0 90 4c 6a
        E 0 90 64 6a
        E 120 80 34 00
        E 0 80 4c 00
        E 0 80 64 00
        E 360 90 1c 6c
        E 0 90 34 6c
        E 0 90 4c 6c
        E 0 90 64 6c
        E 120 80 1c 00
        E 0 80 34 00
        E 0 80 4c 00
        E 0 80 64 00
        E 360 90 33 6c
        E 0 90 4b 6c
        E 0 90 63 6c
        E 120 80 33 00
        E 0 80 4b 00
        E 0 80 63 00
        E 360 90 1d 6a
        E 0 90 35 6a
        E 0 90 4d 6a
        E 0 90 65 6a
        E 120 80 1d 00
        E 0 80 35 00
        E 0 80 4d 00
        E 0 80 65 00
        E 360 90 1d 6c
        E 0 90 35 6c
        E 0 90 4d 6c
        E 0 90 65 6c
        E 120 80 1d 00
        E 0 80 35 00
        E 0 80 4d 00
        E 0 80 65 00
        E 360 90 1d 6a
        E 0 90 35 6a
        E 0 90 4d 6a
        E 0 90 65 6a
        E 120 80 1d 00
        E 0 80 35 00
        E 0 80 4d 00
        E 0 80 65 00
        E 360 90 34 6c
        E 0 90 4c 6c
        E 0 90 64 6c
        E 120 80 34 00
        E 0 80 4c 00
        E 0 80 64 00
        <X 360 0
          /wFbZW5kX3BnIHNvbmdfdHJhaW5lcl9wZ18xXQ==
        >
        E 0 90 1b 6c
        E 0 90 33 6c
        E 0 90 4b 6c
        E 0 90 63 6c
        E 120 80 1b 00
        E 0 80 33 00
        E 0 80 4b 00
        E 0 80 63 00
        E 360 90 34 6c
        E 0 90 4c 6c
        E 0 90 64 6c
        E 120 80 34 00
        E 0 80 4c 00
        E 0 80 64 00
        E 360 90 1d 6a
        E 0 90 35 6a
        E 0 90 4d 6a
        E 0 90 65 6a
        E 120 80 1d 00
        E 0 80 35 00
        E 0 80 4d 00
        E 0 80 65 00
        E 360 90 34 6c
        E 0 90 4c 6c
        E 0 90 64 6c
        E 120 80 34 00
        E 0 80 4c 00
        E 0 80 64 00
        E 360 90 1d 6c
        E 0 90 35 6c
        E 0 90 4d 6c
        E 0 90 65 6c
        E 720 80 1d 00
        E 0 80 35 00
        E 0 80 4d 00
        E 0 80 65 00
        E 240 90 1d 6a
        E 0 90 35 6a
        E 0 90 4d 6a
        E 0 90 65 6a
        E 720 80 1d 00
        E 0 80 35 00
        E 0 80 4d 00
        E 0 80 65 00
        E 240 90 1b 6c
        E 0 90 33 6c
        E 0 90 4b 6c
        E 0 90 63 6c
        E 120 80 1b 00
        E 0 80 33 00
        E 0 80 4b 00
        E 0 80 63 00
        E 360 90 34 6a
        E 0 90 4c 6a
        E 0 90 64 6a
        E 120 80 34 00
        E 0 80 4c 00
        E 0 80 64 00
        E 360 90 1c 6c
        E 0 90 34 6c
        E 0 90 4c 6c
        E 0 90 64 6c
        E 120 80 1c 00
        E 0 80 34 00
        E 0 80 4c 00
        E 0 80 64 00
        E 360 90 33 6c
        E 0 90 4b 6c
        E 0 90 63 6c
        E 120 80 33 00
        E 0 80 4b 00
        E 0 80 63 00
        E 360 90 6c 6e
        E 1 90 62 6e
        E 119 80 6c 00
        E 0 90 66 64
        E 1 80 62 00
        E 0 90 62 70
        E 599 80 66 00
        E 1 80 62 00
        E 240 90 62 6e
        E 720 80 62 00
        E 239 90 1a 6c
        E 0 90 32 6c
        E 0 90 4a 6c
        E 0 90 62 6c
        E 0 90 6c 6c
        E 120 80 1a 00
        E 0 80 32 00
        E 0 80 4a 00
        E 0 80 62 00
        E 0 80 6c 00
        E 360 90 32 6e
        E 0 90 4a 6e
        E 0 90 62 6e
        E 120 80 32 00
        E 0 80 4a 00
        E 0 80 62 00
        E 360 90 1b 6c
        E 0 90 33 6c
        E 0 90 4b 6c
        E 0 90 63 6c
        E 120 80 1b 00
        E 0 80 33 00
        E 0 80 4b 00
        E 0 80 63 00
        E 360 90 32 6e
        E 0 90 4a 6e
        E 0 90 62 6e
        E 120 80 32 00
        E 0 80 4a 00
        E 0 80 62 00
        E 360 90 1c 6a
        E 0 90 34 6a
        E 0 90 4c 6a
        E 0 90 64 6a
        E 0 90 6c 6a
        E 120 80 1c 00
        E 0 80 34 00
        E 0 80 4c 00
        E 0 80 64 00
        E 0 80 6c 00
        E 120 90 4b 6c
        E 0 90 63 6c
        E 120 80 4b 00
        E 0 80 63 00
        E 120 90 34 6a
        E 0 90 4c 6a
        E 0 90 64 6a
        E 120 80 34 00
        E 0 80 4c 00
        E 0 80 64 00
        E 120 90 4d 6a
        E 0 90 65 6a
        E 120 80 4d 00
        E 0 80 65 00
        E 120 90 1c 6c
        E 0 90 34 6c
        E 0 90 4c 6c
        E 0 90 64 6c
        E 0 90 74 60
        E 120 80 1c 00
        E 0 80 34 00
        E 0 80 4c 00
        E 0 80 64 00
        E 360 90 34 6a
        E 0 90 4c 6a
        E 0 90 64 6a
        E 120 80 34 00
        E 0 80 4c 00
        E 0 80 64 00
        E 360 90 1b 6c
        E 0 90 33 6c
        E 0 90 4b 6c
        E 0 90 63 6c
        E 120 80 1b 00
        E 0 80 33 00
        E 0 80 4b 00
        E 0 80 63 00
        E 360 90 64 6a
        E 120 80 64 00
        E 361 90 64 6c
        E 120 80 64 00
        E 359 90 33 6c
        E 0 90 4b 6c
        E 0 90 63 6c
        E 120 80 33 00
        E 0 80 4b 00
        E 0 80 63 00
        E 360 90 1d 6a
        E 0 90 35 6a
        E 0 90 4d 6a
        E 0 90 65 6a
        E 120 80 1d 00
        E 0 80 35 00
        E 0 80 4d 00
        E 0 80 65 00
        E 360 90 1d 6c
        E 0 90 35 6c
        E 0 90 4d 6c
        E 0 90 65 6c
        E 120 80 1d 00
        E 0 80 35 00
        E 0 80 4d 00
        E 0 80 65 00
        E 360 90 1d 6a
        E 0 90 35 6a
        E 0 90 4d 6a
        E 0 90 65 6a
        E 120 80 1d 00
        E 0 80 35 00
        E 0 80 4d 00
        E 0 80 65 00
        E 360 90 34 6c
        E 0 90 4c 6c
        E 0 90 64 6c
        E 120 80 34 00
        E 0 80 4c 00
        E 0 80 64 00
        <X 360 0
          /wFbYmVnaW5fcGcgc29uZ190cmFpbmVyX3BnXzJd
        >
        E 0 80 74 00
        E 0 90 19 67
        E 0 90 31 67
        E 0 90 49 67
        E 0 90 61 67
        E 0 90 6c 67
        E 120 80 6c 00
        E 3480 80 19 00
        E 0 80 31 00
        E 0 80 49 00
        E 0 80 61 00
        <X 240 0
          /wFbcGdfbm9ybSBzb25nX3RyYWluZXJfcGdfMl0=
        >
        E 0 90 19 6a
        E 0 90 31 6a
        E 0 90 49 6a
        E 0 90 61 6a
        E 3600 80 19 00
        E 0 80 31 00
        E 0 80 49 00
        E 0 80 61 00
        E 240 90 1a 69
        E 0 90 32 69
        E 0 90 4a 69
        E 0 90 62 69
        E 3600 80 1a 00
        E 0 80 32 00
        E 0 80 4a 00
        E 0 80 62 00
        E 240 90 1a 67
        E 0 90 32 67
        E 0 90 4a 67
        E 0 90 62 67
        E 3600 80 1a 00
        E 0 80 32 00
        E 0 80 4a 00
        E 0 80 62 00
        <X 240 0
          /wFbZW5kX3BnIHNvbmdfdHJhaW5lcl9wZ18yXQ==
        >
        E 0 90 19 67
        E 0 90 31 67
        E 0 90 49 67
        E 0 90 61 67
        E 3600 80 19 00
        E 0 80 31 00
        E 0 80 49 00
        E 0 80 61 00
        E 240 90 19 6a
        E 0 90 31 6a
        E 0 90 49 6a
        E 0 90 61 6a
        E 3600 80 19 00
        E 0 80 31 00
        E 0 80 49 00
        E 0 80 61 00
        E 240 90 1a 69
        E 0 90 32 69
        E 0 90 4a 69
        E 0 90 62 69
        E 3600 80 1a 00
        E 0 80 32 00
        E 0 80 4a 00
        E 0 80 62 00
        E 240 90 1a 67
        E 0 90 32 67
        E 0 90 4a 67
        E 0 90 62 67
        E 3600 80 1a 00
        E 0 80 32 00
        E 0 80 4a 00
        E 0 80 62 00
        <X 240 0
          /wFbYmVnaW5fcGcgc29uZ190cmFpbmVyX3BnXzNd
        >
        E 0 90 1b 64
        E 0 90 33 64
        E 0 90 4b 64
        E 0 90 63 64
        E 0 90 6c 67
        E 120 80 1b 00
        E 0 80 33 00
        E 0 80 4b 00
        E 0 80 63 00
        E 0 80 6c 00
        E 600 90 33 67
        E 0 90 4b 67
        E 0 90 63 67
        E 120 80 33 00
        E 0 80 4b 00
        E 0 80 63 00
        E 600 90 1c 68
        E 0 90 34 68
        E 0 90 4c 68
        E 0 90 64 68
        E 0 90 6c 68
        E 120 80 1c 00
        E 0 80 34 00
        E 0 80 4c 00
        E 0 80 64 00
        E 0 80 6c 00
        E 600 90 33 6a
        E 0 90 4b 6a
        E 0 90 63 6a
        E 120 80 33 00
        E 0 80 4b 00
        E 0 80 63 00
        E 600 90 1c 68
        E 0 90 34 68
        E 0 90 4c 68
        E 0 90 64 68
        E 120 80 1c 00
        E 0 80 34 00
        E 0 80 4c 00
        E 0 80 64 00
        E 360 90 33 6a
        E 0 90 4b 6a
        E 0 90 63 6a
        E 120 80 33 00
        E 0 80 4b 00
        E 0 80 63 00
        <X 360 0
          /wFbcGdfbm9ybSBzb25nX3RyYWluZXJfcGdfM10=
        >
        E 0 90 1b 64
        E 0 90 33 64
        E 0 90 4b 64
        E 0 90 63 64
        E 0 90 6c 67
        E 120 80 1b 00
        E 0 80 33 00
        E 0 80 4b 00
        E 0 80 63 00
        E 0 80 6c 00
        E 600 90 33 67
        E 0 90 4b 67
        E 0 90 63 67
        E 120 80 33 00
        E 0 80 4b 00
        E 0 80 63 00
        E 600 90 1c 68
        E 0 90 34 68
        E 0 90 4c 68
        E 0 90 64 68
        E 0 90 6c 68
        E 120 80 1c 00
        E 0 80 34 00
        E 0 80 4c 00
        E 0 80 64 00
        E 0 80 6c 00
        E 600 90 33 6a
        E 0 90 4b 6a
        E 0 90 63 6a
        E 120 80 33 00
        E 0 80 4b 00
        E 0 80 63 00
        E 600 90 1c 68
        E 0 90 34 68
        E 0 90 4c 68
        E 0 90 64 68
        E 120 80 1c 00
        E 0 80 34 00
        E 0 80 4c 00
        E 0 80 64 00
        E 360 90 33 6a
        E 0 90 4b 6a
        E 0 90 63 6a
        E 120 80 33 00
        E 0 80 4b 00
        E 0 80 63 00
        E 360 90 1b 64
        E 0 90 33 64
        E 0 90 4b 64
        E 0 90 63 64
        E 0 90 6c 67
        E 120 80 1b 00
        E 0 80 33 00
        E 0 80 4b 00
        E 0 80 63 00
        E 0 80 6c 00
        E 600 90 33 67
        E 0 90 4b 67
        E 0 90 63 67
        E 120 80 33 00
        E 0 80 4b 00
        E 0 80 63 00
        E 600 90 1c 68
        E 0 90 34 68
        E 0 90 4c 68
        E 0 90 64 68
        E 0 90 6c 68
        E 120 80 1c 00
        E 0 80 34 00
        E 0 80 4c 00
        E 0 80 64 00
        E 0 80 6c 00
        E 600 90 33 6a
        E 0 90 4b 6a
        E 0 90 63 6a
        E 120 80 33 00
        E 0 80 4b 00
        E 0 80 63 00
        E 600 90 1c 68
        E 0 90 34 68
        E 0 90 4c 68
        E 0 90 64 68
        E 120 80 1c 00
        E 0 80 34 00
        E 0 80 4c 00
        E 0 80 64 00
        E 360 90 33 6a
        E 0 90 4b 6a
        E 0 90 63 6a
        E 120 80 33 00
        E 0 80 4b 00
        E 0 80 63 00
        E 360 90 1b 64
        E 0 90 33 64
        E 0 90 4b 64
        E 0 90 63 64
        E 0 90 6c 67
        E 120 80 1b 00
        E 0 80 33 00
        E 0 80 4b 00
        E 0 80 63 00
        E 0 80 6c 00
        E 600 90 33 67
        E 0 90 4b 67
        E 0 90 63 67
        E 120 80 33 00
        E 0 80 4b 00
        E 0 80 63 00
        E 600 90 1c 68
        E 0 90 34 68
        E 0 90 4c 68
        E 0 90 64 68
        E 0 90 6c 68
        E 120 80 1c 00
        E 0 80 34 00
        E 0 80 4c 00
        E 0 80 64 00
        E 0 80 6c 00
        E 600 90 33 6a
        E 0 90 4b 6a
        E 0 90 63 6a
        E 120 80 33 00
        E 0 80 4b 00
        E 0 80 63 00
        E 600 90 1c 68
        E 0 90 34 68
        E 0 90 4c 68
        E 0 90 64 68
        E 120 80 1c 00
        E 0 80 34 00
        E 0 80 4c 00
        E 0 80 64 00
        E 360 90 34 6a
        E 0 90 4c 6a
        E 0 90 64 6a
        E 120 80 34 00
        E 0 80 4c 00
        E 0 80 64 00
        <X 360 0
          /wFbZW5kX3BnIHNvbmdfdHJhaW5lcl9wZ18zXQ==
        >
        E 0 90 1b 64
        E 0 90 33 64
        E 0 90 4b 64
        E 0 90 63 64
        E 0 90 6c 67
        E 0 90 74 60
        E 120 80 1b 00
        E 0 80 33 00
        E 0 80 4b 00
        E 0 80 63 00
        E 0 80 6c 00
        E 600 90 33 67
        E 0 90 4b 67
        E 0 90 63 67
        E 120 80 33 00
        E 0 80 4b 00
        E 0 80 63 00
        E 600 90 1c 68
        E 0 90 34 68
        E 0 90 4c 68
        E 0 90 64 68
        E 0 90 6c 68
        E 120 80 1c 00
        E 0 80 34 00
        E 0 80 4c 00
        E 0 80 64 00
        E 0 80 6c 00
        E 600 90 33 6a
        E 0 90 4b 6a
        E 0 90 63 6a
        E 120 80 33 00
        E 0 80 4b 00
        E 0 80 63 00
        E 600 90 1c 68
        E 0 90 34 68
        E 0 90 4c 68
        E 0 90 64 68
        E 120 80 1c 00
        E 0 80 34 00
        E 0 80 4c 00
        E 0 80 64 00
        E 360 90 33 6a
        E 0 90 4b 6a
        E 0 90 63 6a
        E 120 80 33 00
        E 0 80 4b 00
        E 0 80 63 00
        E 360 90 1b 64
        E 0 90 33 64
        E 0 90 4b 64
        E 0 90 63 64
        E 0 90 6c 67
        E 120 80 1b 00
        E 0 80 33 00
        E 0 80 4b 00
        E 0 80 63 00
        E 0 80 6c 00
        E 600 90 33 67
        E 0 90 4b 67
        E 0 90 63 67
        E 120 80 33 00
        E 0 80 4b 00
        E 0 80 63 00
        E 600 90 1c 68
        E 0 90 34 68
        E 0 90 4c 68
        E 0 90 64 68
        E 0 90 6c 68
        E 120 80 1c 00
        E 0 80 34 00
        E 0 80 4c 00
        E 0 80 64 00
        E 0 80 6c 00
        E 600 90 33 6a
        E 0 90 4b 6a
        E 0 90 63 6a
        E 120 80 33 00
        E 0 80 4b 00
        E 0 80 63 00
        E 600 90 1c 68
        E 0 90 34 68
        E 0 90 4c 68
        E 0 90 64 68
        E 120 80 1c 00
        E 0 80 34 00
        E 0 80 4c 00
        E 0 80 64 00
        E 360 90 33 6a
        E 0 90 4b 6a
        E 0 90 63 6a
        E 120 80 33 00
        E 0 80 4b 00
        E 0 80 63 00
        E 360 80 74 00
        E 0 90 1b 64
        E 0 90 33 64
        E 0 90 4b 64
        E 0 90 63 64
        E 0 90 6c 67
        E 120 80 1b 00
        E 0 80 33 00
        E 0 80 4b 00
        E 0 80 63 00
        E 0 80 6c 00
        E 600 90 33 67
        E 0 90 4b 67
        E 0 90 63 67
        E 120 80 33 00
        E 0 80 4b 00
        E 0 80 63 00
        E 600 90 1c 68
        E 0 90 34 68
        E 0 90 4c 68
        E 0 90 64 68
        E 0 90 6c 68
        E 120 80 1c 00
        E 0 80 34 00
        E 0 80 4c 00
        E 0 80 64 00
        E 0 80 6c 00
        E 600 90 33 6a
        E 0 90 4b 6a
        E 0 90 63 6a
        E 120 80 33 00
        E 0 80 4b 00
        E 0 80 63 00
        E 600 90 1c 68
        E 0 90 34 68
        E 0 90 4c 68
        E 0 90 64 68
        E 120 80 1c 00
        E 0 80 34 00
        E 0 80 4c 00
        E 0 80 64 00
        E 360 90 33 6a
        E 0 90 4b 6a
        E 0 90 63 6a
        E 120 80 33 00
        E 0 80 4b 00
        E 0 80 63 00
        E 360 90 1b 64
        E 0 90 33 64
        E 0 90 4b 64
        E 0 90 63 64
        E 0 90 6c 67
        E 120 80 1b 00
        E 0 80 33 00
        E 0 80 4b 00
        E 0 80 63 00
        E 0 80 6c 00
        E 600 90 33 67
        E 0 90 4b 67
        E 0 90 63 67
        E 120 80 33 00
        E 0 80 4b 00
        E 0 80 63 00
        E 600 90 1c 68
        E 0 90 34 68
        E 0 90 4c 68
        E 0 90 64 68
        E 0 90 6c 68
        E 120 80 1c 00
        E 0 80 34 00
        E 0 80 4c 00
        E 0 80 64 00
        E 0 80 6c 00
        E 600 90 33 6a
        E 0 90 4b 6a
        E 0 90 63 6a
        E 120 80 33 00
        E 0 80 4b 00
        E 0 80 63 00
        E 600 90 1c 68
        E 0 90 34 68
        E 0 90 4c 68
        E 0 90 64 68
        E 120 80 1c 00
        E 0 80 34 00
        E 0 80 4c 00
        E 0 80 64 00
        E 359 90 65 67
        E 1 90 6c 67
        E 119 80 65 00
        E 1 80 6c 00
        <X 360 0
          /wFbYmVnaW5fcGcgc29uZ190cmFpbmVyX3BnXzRd
        >
        E 0 90 1d 67
        E 0 90 35 67
        E 0 90 4d 67
        E 0 90 65 67
        E 3120 80 1d 00
        E 0 80 35 00
        E 0 80 4d 00
        E 0 80 65 00
        E 240 90 1c 68
        E 0 90 34 68
        E 0 90 4c 68
        E 0 90 64 68
        <X 480 0
          /wFbcGdfbm9ybSBzb25nX3RyYWluZXJfcGdfNF0=
        >
        E 3600 80 1c 00
        E 0 80 34 00
        E 0 80 4c 00
        E 0 80 64 00
        E 240 90 1d 67
        E 0 90 35 67
        E 0 90 4d 67
        E 0 90 65 67
        E 3120 80 1d 00
        E 0 80 35 00
        E 0 80 4d 00
        E 0 80 65 00
        E 240 90 1d 65
        E 0 90 35 65
        E 0 90 4d 65
        E 0 90 65 65
        E 0 90 6c 65
        E 120 80 6c 00
        E 3000 80 1d 00
        E 0 80 35 00
        E 0 80 4d 00
        E 0 80 65 00
        E 240 90 0f 6a
        E 0 93 19 6a
        E 0 93 31 6a
        E 0 93 32 6c
        E 0 93 49 6a
        E 0 93 4a 6c
        E 0 93 4b 6c
        E 0 93 61 6a
        E 0 93 62 6c
        E 0 93 63 6c
        E 120 80 0f 00
        E 0 83 19 00
        E 0 83 31 00
        E 0 83 32 00
        E 0 83 49 00
        E 0 83 4a 00
        E 0 83 4b 00
        E 0 83 61 00
        E 0 83 62 00
        E 0 83 63 00
        E 120 93 61 6a
        E 0 93 62 6c
        E 0 93 63 6c
        E 120 83 61 00
        E 0 83 62 00
        E 0 83 63 00
        E 120 93 49 6a
        E 0 93 4a 6c
        E 0 93 4b 6c
        E 0 93 61 6a
        E 0 93 62 6c
        E 0 93 63 6c
        E 120 83 49 00
        E 0 83 4a 00
        E 0 83 4b 00
        E 0 83 61 00
        E 0 83 62 00
        E 0 83 63 00
        E 120 93 61 6a
        E 0 93 62 6c
        E 0 93 63 6c
        E 120 83 61 00
        E 0 83 62 00
        E 0 83 63 00
        <X 120 0
          /wFbYmVnaW5fcGcgc29uZ190cmFpbmVyX3BnXzVd
        >
        <X 0 0
          /wFbZW5kX3BnIHNvbmdfdHJhaW5lcl9wZ180XQ==
        >
        E 0 90 19 6a
        E 0 90 31 6a
        E 0 90 32 6c
        E 0 90 49 6a
        E 0 90 4a 6c
        E 0 90 4b 6c
        E 0 90 61 6a
        E 0 90 62 6c
        E 0 90 63 6c
        E 0 90 6c 6a
        E 0 90 74 60
        E 120 80 6c 00
        E 3480 80 19 00
        E 0 80 31 00
        E 0 80 32 00
        E 0 80 49 00
        E 0 80 4a 00
        E 0 80 4b 00
        E 0 80 61 00
        E 0 80 62 00
        E 0 80 63 00
        <X 240 0
          /wFbcGdfbm9ybSBzb25nX3RyYWluZXJfcGdfNV0=
        >
        E 0 90 1b 69
        E 0 90 33 69
        E 0 90 4b 69
        E 0 90 63 69
        E 0 90 6c 67
        E 120 80 74 00
        E 0 80 6c 00
        E 1080 80 1b 00
        E 0 80 33 00
        E 0 80 4b 00
        E 0 80 63 00
        E 240 90 1b 67
        E 0 90 33 67
        E 0 90 4b 67
        E 0 90 63 67
        E 1200 80 1b 00
        E 0 80 33 00
        E 0 80 4b 00
        E 0 80 63 00
        E 240 90 1b 64
        E 0 90 33 64
        E 0 90 4b 64
        E 0 90 63 64
        E 720 80 1b 00
        E 0 80 33 00
        E 0 80 4b 00
        E 0 80 63 00
        E 240 90 0a 6c
        E 0 90 19 71
        E 0 90 31 71
        E 0 90 32 73
        E 0 90 49 71
        E 0 90 4a 73
        E 0 90 4b 73
        E 0 90 61 71
        E 0 90 62 73
        E 0 90 63 73
        E 0 90 6c 71
        E 120 80 0a 00
        E 0 80 6c 00
        E 3480 80 19 00
        E 0 80 31 00
        E 0 80 32 00
        E 0 80 49 00
        E 0 80 4a 00
        E 0 80 4b 00
        E 0 80 61 00
        E 0 80 62 00
        E 0 80 63 00
        E 240 90 19 6c
        E 0 90 31 6c
        E 0 90 49 6c
        E 0 90 61 6c
        E 0 90 6c 6c
        E 120 80 6c 00
        E 2520 80 19 00
        E 0 80 31 00
        E 0 80 49 00
        E 0 80 61 00
        E 240 90 1a 6e
        E 0 90 32 6e
        E 0 90 4a 6e
        E 0 90 62 6e
        E 720 80 1a 00
        E 0 80 32 00
        E 0 80 4a 00
        E 0 80 62 00
        <X 240 0
          /wFbZW5kX3BnIHNvbmdfdHJhaW5lcl9wZ181XQ==
        >
        <X 0 0
          /wFbYmVnaW5fcGcgc29uZ190cmFpbmVyX3BnXzZd
        >
        E 0 90 1b 67
        E 0 90 1f 64
        E 0 90 33 67
        E 0 90 37 64
        E 0 90 4b 67
        E 0 90 4f 64
        E 0 90 63 67
        E 0 90 67 64
        E 0 90 6c 67
        E 120 80 6c 00
        E 780 80 1b 00
        E 0 80 33 00
        E 0 80 4b 00
        E 0 80 63 00
        E 60 90 1b 70
        E 0 90 1e 64
        E 0 90 33 70
        E 0 90 36 64
        E 0 90 4b 70
        E 0 90 4e 64
        E 0 90 63 70
        E 0 90 66 64
        E 900 80 1b 00
        E 0 80 33 00
        E 0 80 4b 00
        E 0 80 63 00
        E 60 90 1b 67
        E 0 90 33 67
        E 0 90 4b 67
        E 0 90 63 67
        E 900 80 1b 00
        E 0 80 33 00
        E 0 80 4b 00
        E 0 80 63 00
        E 60 80 1f 00
        E 0 80 37 00
        E 0 80 4f 00
        E 0 80 67 00
        E 0 90 1b 70
        E 0 90 33 70
        E 0 90 4b 70
        E 0 90 63 70
        E 840 80 1e 00
        E 0 80 36 00
        E 0 80 4e 00
        E 0 80 66 00
        E 0 80 1b 00
        E 0 80 33 00
        E 0 80 4b 00
        E 0 80 63 00
        <X 120 0
          /wFbcGdfbm9ybSBzb25nX3RyYWluZXJfcGdfNl0=
        >
        E 0 90 1a 6e
        E 0 90 32 6e
        E 0 90 4a 6e
        E 0 90 62 6e
        E 0 90 6c 6c
        E 120 80 6c 00
        E 1080 80 1a 00
        E 0 80 32 00
        E 0 80 4a 00
        E 0 80 62 00
        E 240 90 1a 6c
        E 0 90 32 6c
        E 0 90 4a 6c
        E 0 90 62 6c
        E 1200 80 1a 00
        E 0 80 32 00
        E 0 80 4a 00
        E 0 80 62 00
        E 240 90 19 6e
        E 0 90 31 6e
        E 0 90 49 6e
        E 0 90 61 6e
        E 720 80 19 00
        E 0 80 31 00
        E 0 80 49 00
        E 0 80 61 00
        E 240 90 19 71
        E 0 90 31 71
        E 0 90 32 73
        E 0 90 49 71
        E 0 90 4a 73
        E 0 90 4b 73
        E 0 90 61 71
        E 0 90 62 73
        E 0 90 63 73
        E 0 90 6c 71
        E 120 80 6c 00
        E 3480 80 19 00
        E 0 80 31 00
        E 0 80 32 00
        E 0 80 49 00
        E 0 80 4a 00
        E 0 80 4b 00
        E 0 80 61 00
        E 0 80 62 00
        E 0 80 63 00
        E 240 90 1c 6c
        E 0 90 34 6c
        E 0 90 4c 6c
        E 0 90 64 6c
        E 0 90 6c 6a
        E 0 90 74 60
        E 120 80 6c 00
        E 1560 80 1c 00
        E 0 80 34 00
        E 0 80 4c 00
        E 0 80 64 00
        E 240 90 1c 6a
        E 0 90 34 6a
        E 0 90 4c 6a
        E 0 90 64 6a
        E 1680 80 1c 00
        E 0 80 34 00
        E 0 80 4c 00
        E 0 80 64 00
        <X 240 0
          /wFbZW5kX3BnIHNvbmdfdHJhaW5lcl9wZ182XQ==
        >
        E 0 80 74 00
        E 0 90 0f 6a
        E 0 90 19 6a
        E 0 90 31 6a
        E 0 90 32 6c
        E 0 90 49 6a
        E 0 90 4a 6c
        E 0 90 4b 6c
        E 0 90 61 6a
        E 0 90 62 6c
        E 0 90 63 6c
        E 0 90 6c 6a
        E 120 80 0f 00
        E 0 80 6c 00
        E 3480 80 19 00
        E 0 80 31 00
        E 0 80 32 00
        E 0 80 49 00
        E 0 80 4a 00
        E 0 80 4b 00
        E 0 80 61 00
        E 0 80 62 00
        E 0 80 63 00
        E 240 90 1b 69
        E 0 90 33 69
        E 0 90 4b 69
        E 0 90 63 69
        E 0 90 6c 67
        E 120 80 6c 00
        E 1080 80 1b 00
        E 0 80 33 00
        E 0 80 4b 00
        E 0 80 63 00
        E 240 90 1b 67
        E 0 90 33 67
        E 0 90 4b 67
        E 0 90 63 67
        E 1200 80 1b 00
        E 0 80 33 00
        E 0 80 4b 00
        E 0 80 63 00
        E 240 90 1b 64
        E 0 90 33 64
        E 0 90 4b 64
        E 0 90 63 64
        E 720 80 1b 00
        E 0 80 33 00
        E 0 80 4b 00
        E 0 80 63 00
        E 240 90 0a 6c
        E 0 90 19 71
        E 0 90 31 71
        E 0 90 32 73
        E 0 90 49 71
        E 0 90 4a 73
        E 0 90 4b 73
        E 0 90 61 71
        E 0 90 62 73
        E 0 90 63 73
        E 0 90 6c 71
        E 120 80 0a 00
        E 0 80 6c 00
        E 3480 80 19 00
        E 0 80 31 00
        E 0 80 32 00
        E 0 80 49 00
        E 0 80 4a 00
        E 0 80 4b 00
        E 0 80 61 00
        E 0 80 62 00
        E 0 80 63 00
        E 240 90 19 6c
        E 0 90 31 6c
        E 0 90 49 6c
        E 0 90 61 6c
        E 0 90 6c 6c
        E 120 80 6c 00
        E 2520 80 19 00
        E 0 80 31 00
        E 0 80 49 00
        E 0 80 61 00
        E 240 90 1a 6e
        E 0 90 32 6e
        E 0 90 4a 6e
        E 0 90 62 6e
        E 720 80 1a 00
        E 0 80 32 00
        E 0 80 4a 00
        E 0 80 62 00
        E 240 90 1b 67
        E 0 90 1f 64
        E 0 90 33 67
        E 0 90 37 64
        E 0 90 4b 67
        E 0 90 4f 64
        E 0 90 63 67
        E 0 90 67 64
        E 0 90 6c 67
        E 120 80 6c 00
        E 780 80 1b 00
        E 0 80 33 00
        E 0 80 4b 00
        E 0 80 63 00
        E 60 90 1b 70
        E 0 90 33 70
        E 0 90 36 64
        E 0 90 4b 70
        E 0 90 4e 64
        E 0 90 63 70
        E 0 90 66 64
        E 0 90 74 60
        E 900 80 1b 00
        E 0 80 33 00
        E 0 80 4b 00
        E 0 80 63 00
        E 60 90 1b 67
        E 0 90 33 67
        E 0 90 4b 67
        E 0 90 63 67
        E 900 80 1f 00
        E 0 80 37 00
        E 0 80 4f 00
        E 0 80 67 00
        E 0 80 1b 00
        E 0 80 33 00
        E 0 80 4b 00
        E 0 80 63 00
        E 60 90 1b 70
        E 0 90 33 70
        E 0 90 4b 70
        E 0 90 63 70
        E 840 80 36 00
        E 0 80 4e 00
        E 0 80 66 00
        E 0 80 1b 00
        E 0 80 33 00
        E 0 80 4b 00
        E 0 80 63 00
        E 120 80 74 00
        E 0 90 1a 6e
        E 0 90 32 6e
        E 0 90 4a 6e
        E 0 90 62 6e
        E 0 90 6c 6c
        E 120 80 6c 00
        E 1079 80 1a 00
        E 0 80 32 00
        E 0 80 4a 00
        E 0 80 62 00
        E 240 90 62 6c
        E 1200 80 62 00
        E 240 90 61 6e
        E 720 80 61 00
        E 241 90 19 71
        E 0 90 31 71
        E 0 90 32 73
        E 0 90 49 71
        E 0 90 4a 73
        E 0 90 4b 73
        E 0 90 61 71
        E 0 90 62 73
        E 0 90 63 73
        E 0 90 6c 71
        E 120 80 6c 00
        E 3480 80 19 00
        E 0 80 31 00
        E 0 80 32 00
        E 0 80 49 00
        E 0 80 4a 00
        E 0 80 4b 00
        E 0 80 61 00
        E 0 80 62 00
        E 0 80 63 00
        E 239 90 64 6c
        E 1 90 6c 6a
        E 120 80 6c 00
        E 1559 80 64 00
        E 240 90 64 6a
        E 1680 80 64 00
        E 241 90 1b 6c
        E 0 90 33 6c
        E 0 90 4b 6c
        E 0 90 63 6c
        E 7440 80 1b 00
        E 0 80 33 00
        E 0 80 4b 00
        E 0 80 63 00
        <X 240 0
          /wFbYmVnaW5fcGcgc29uZ190cmFpbmVyX3BnXzdd
        >
        E 0 90 1a 69
        E 0 90 32 69
        E 0 90 4a 69
        E 0 90 62 69
        E 0 90 6c 65
        E 120 80 6c 00
        E 3480 80 1a 00
        E 0 80 32 00
        E 0 80 4a 00
        E 0 80 62 00
        <X 240 0
          /wFbcGdfbm9ybSBzb25nX3RyYWluZXJfcGdfN10=
        >
        E 0 90 1a 67
        E 0 90 32 67
        E 0 90 4a 67
        E 0 90 62 67
        E 7440 80 1a 00
        E 0 80 32 00
        E 0 80 4a 00
        E 0 80 62 00
        E 240 90 1a 65
        E 0 90 32 65
        E 0 90 4a 65
        E 0 90 62 65
        E 1680 80 1a 00
        E 0 80 32 00
        E 0 80 4a 00
        E 0 80 62 00
        E 240 90 1a 67
        E 0 90 32 67
        E 0 90 4a 67
        E 0 90 62 67
        E 1680 80 1a 00
        E 0 80 32 00
        E 0 80 4a 00
        E 0 80 62 00
        <X 240 0
          /wFbZW5kX3BnIHNvbmdfdHJhaW5lcl9wZ183XQ==
        >
        E 0 90 1a 69
        E 0 90 32 69
        E 0 90 4a 69
        E 0 90 62 69
        E 3600 80 1a 00
        E 0 80 32 00
        E 0 80 4a 00
        E 0 80 62 00
        E 240 90 1a 67
        E 0 90 32 67
        E 0 90 4a 67
        E 0 90 62 67
        E 7440 80 1a 00
        E 0 80 32 00
        E 0 80 4a 00
        E 0 80 62 00
        E 240 90 1a 65
        E 0 90 32 65
        E 0 90 4a 65
        E 0 90 62 65
        E 0 90 74 60
        E 1680 80 1a 00
        E 0 80 32 00
        E 0 80 4a 00
        E 0 80 62 00
        E 240 90 1a 67
        E 0 90 32 67
        E 0 90 4a 67
        E 0 90 62 67
        E 1680 80 1a 00
        E 0 80 32 00
        E 0 80 4a 00
        E 0 80 62 00
        E 240 80 74 00
        E 0 90 1a 69
        E 0 90 32 69
        E 0 90 4a 69
        E 0 90 62 69
        E 3600 80 1a 00
        E 0 80 32 00
        E 0 80 4a 00
        E 0 80 62 00
        E 240 90 1a 67
        E 0 90 32 67
        E 0 90 4a 67
        E 0 90 62 67
        E 7440 80 1a 00
        E 0 80 32 00
        E 0 80 4a 00
        E 0 80 62 00
        E 240 90 62 65
        E 1680 80 62 00
        E 240 90 1a 67
        E 0 90 32 67
        E 0 90 4a 67
        E 0 90 62 67
        E 1680 80 1a 00
        E 0 80 32 00
        E 0 80 4a 00
        E 0 80 62 00
        E 240 90 1a 69
        E 0 90 32 69
        E 0 90 4a 69
        E 0 90 62 69
        E 3600 80 1a 00
        E 0 80 32 00
        E 0 80 4a 00
        E 0 80 62 00
        E 240 90 1a 67
        E 0 90 32 67
        E 0 90 4a 67
        E 0 90 62 67
        E 7440 80 1a 00
        E 0 80 32 00
        E 0 80 4a 00
        E 0 80 62 00
        E 240 90 62 65
        E 1680 80 62 00
        E 240 90 1a 67
        E 0 90 32 67
        E 0 90 4a 67
        E 0 90 62 67
        E 1920 80 1a 00
        E 0 80 32 00
        E 0 80 4a 00
        E 0 80 62 00
        E 26880 90 18 65
        E 0 90 30 65
        E 0 90 48 65
        E 0 90 60 65
        E 3600 80 18 00
        E 0 80 30 00
        E 0 80 48 00
        E 0 80 60 00
        E 240 90 18 65
        E 0 90 30 65
        E 0 90 48 65
        E 0 90 60 65
        E 3600 80 18 00
        E 0 80 30 00
        E 0 80 48 00
        E 0 80 60 00
        E 240 90 18 65
        E 0 90 30 65
        E 0 90 48 65
        E 0 90 60 65
        E 3600 80 18 00
        E 0 80 30 00
        E 0 80 48 00
        E 0 80 60 00
        E 240 90 18 65
        E 0 90 30 65
        E 0 90 48 65
        E 0 90 60 65
        E 0 90 74 60
        E 3480 80 74 00
        E 360 80 18 00
        E 0 80 30 00
        E 0 80 48 00
        E 0 80 60 00
        E 1920 90 0f 6a
        E 0 90 19 6a
        E 0 90 31 6a
        E 0 90 32 6c
        E 0 90 49 6a
        E 0 90 4a 6c
        E 0 90 4b 6c
        E 0 90 61 6a
        E 0 90 62 6c
        E 0 90 63 6c
        E 0 90 6c 6a
        E 120 80 0f 00
        E 0 80 6c 00
        E 3480 80 19 00
        E 0 80 31 00
        E 0 80 32 00
        E 0 80 49 00
        E 0 80 4a 00
        E 0 80 4b 00
        E 0 80 61 00
        E 0 80 62 00
        E 0 80 63 00
        E 240 90 1b 69
        E 0 90 33 69
        E 0 90 4b 69
        E 0 90 63 69
        E 0 90 6c 67
        E 120 80 6c 00
        E 1080 80 1b 00
        E 0 80 33 00
        E 0 80 4b 00
        E 0 80 63 00
        E 240 90 1b 67
        E 0 90 33 67
        E 0 90 4b 67
        E 0 90 63 67
        E 1200 80 1b 00
        E 0 80 33 00
        E 0 80 4b 00
        E 0 80 63 00
        E 240 90 1b 64
        E 0 90 33 64
        E 0 90 4b 64
        E 0 90 63 64
        E 720 80 1b 00
        E 0 80 33 00
        E 0 80 4b 00
        E 0 80 63 00
        E 240 90 0a 6c
        E 0 90 19 71
        E 0 90 31 71
        E 0 90 32 73
        E 0 90 49 71
        E 0 90 4a 73
        E 0 90 4b 73
        E 0 90 61 71
        E 0 90 62 73
        E 0 90 63 73
        E 0 90 6c 71
        E 120 80 0a 00
        E 0 80 6c 00
        E 3480 80 19 00
        E 0 80 31 00
        E 0 80 32 00
        E 0 80 49 00
        E 0 80 4a 00
        E 0 80 4b 00
        E 0 80 61 00
        E 0 80 62 00
        E 0 80 63 00
        E 240 90 19 6c
        E 0 90 31 6c
        E 0 90 49 6c
        E 0 90 61 6c
        E 0 90 6c 6c
        E 120 80 6c 00
        E 2520 80 19 00
        E 0 80 31 00
        E 0 80 49 00
        E 0 80 61 00
        E 240 90 1a 6e
        E 0 90 32 6e
        E 0 90 4a 6e
        E 0 90 62 6e
        E 720 80 1a 00
        E 0 80 32 00
        E 0 80 4a 00
        E 0 80 62 00
        E 240 90 1b 67
        E 0 90 1f 64
        E 0 90 33 67
        E 0 90 37 64
        E 0 90 4b 67
        E 0 90 4f 64
        E 0 90 63 67
        E 0 90 67 64
        E 0 90 6c 67
        E 120 80 6c 00
        E 780 80 1b 00
        E 0 80 33 00
        E 0 80 4b 00
        E 0 80 63 00
        E 60 90 1b 70
        E 0 90 33 70
        E 0 90 36 64
        E 0 90 4b 70
        E 0 90 4e 64
        E 0 90 63 70
        E 0 90 66 64
        E 900 80 1b 00
        E 0 80 33 00
        E 0 80 4b 00
        E 0 80 63 00
        E 60 90 1b 67
        E 0 90 33 67
        E 0 90 4b 67
        E 0 90 63 67
        E 900 80 1f 00
        E 0 80 37 00
        E 0 80 4f 00
        E 0 80 67 00
        E 0 80 1b 00
        E 0 80 33 00
        E 0 80 4b 00
        E 0 80 63 00
        E 60 90 1b 70
        E 0 90 33 70
        E 0 90 4b 70
        E 0 90 63 70
        E 840 80 36 00
        E 0 80 4e 00
        E 0 80 66 00
        E 0 80 1b 00
        E 0 80 33 00
        E 0 80 4b 00
        E 0 80 63 00
        E 120 90 1a 6e
        E 0 90 32 6e
        E 0 90 4a 6e
        E 0 90 62 6e
        E 0 90 6c 6c
        E 120 80 6c 00
        E 1080 80 1a 00
        E 0 80 32 00
        E 0 80 4a 00
        E 0 80 62 00
        E 240 90 1a 6c
        E 0 90 32 6c
        E 0 90 4a 6c
        E 0 90 62 6c
        E 1200 80 1a 00
        E 0 80 32 00
        E 0 80 4a 00
        E 0 80 62 00
        E 240 90 19 6e
        E 0 90 31 6e
        E 0 90 49 6e
        E 0 90 61 6e
        E 720 80 19 00
        E 0 80 31 00
        E 0 80 49 00
        E 0 80 61 00
        E 240 90 19 71
        E 0 90 31 71
        E 0 90 32 73
        E 0 90 49 71
        E 0 90 4a 73
        E 0 90 4b 73
        E 0 90 61 71
        E 0 90 62 73
        E 0 90 63 73
        E 0 90 6c 71
        E 0 90 74 60
        E 120 80 6c 00
        E 3480 80 19 00
        E 0 80 31 00
        E 0 80 32 00
        E 0 80 49 00
        E 0 80 4a 00
        E 0 80 4b 00
        E 0 80 61 00
        E 0 80 62 00
        E 0 80 63 00
        E 240 90 1c 6c
        E 0 90 34 6c
        E 0 90 4c 6c
        E 0 90 64 6c
        E 0 90 6c 6a
        E 120 80 6c 00
        E 1560 80 1c 00
        E 0 80 34 00
        E 0 80 4c 00
        E 0 80 64 00
        E 240 90 1c 6a
        E 0 90 34 6a
        E 0 90 4c 6a
        E 0 90 64 6a
        E 1680 80 1c 00
        E 0 80 34 00
        E 0 80 4c 00
        E 0 80 64 00
        E 240 80 74 00
        E 0 90 0f 6a
        E 0 90 19 6a
        E 0 90 31 6a
        E 0 90 32 6c
        E 0 90 49 6a
        E 0 90 4a 6c
        E 0 90 4b 6c
        E 0 90 61 6a
        E 0 90 62 6c
        E 0 90 63 6c
        E 120 80 0f 00
        E 3480 80 19 00
        E 0 80 31 00
        E 0 80 32 00
        E 0 80 49 00
        E 0 80 4a 00
        E 0 80 4b 00
        E 0 80 61 00
        E 0 80 62 00
        E 0 80 63 00
        E 240 90 1b 69
        E 0 90 33 69
        E 0 90 4b 69
        E 0 90 63 69
        E 0 90 6c 67
        E 120 80 6c 00
        E 1080 80 1b 00
        E 0 80 33 00
        E 0 80 4b 00
        E 0 80 63 00
        E 240 90 1b 67
        E 0 90 33 67
        E 0 90 4b 67
        E 0 90 63 67
        E 1200 80 1b 00
        E 0 80 33 00
        E 0 80 4b 00
        E 0 80 63 00
        E 240 90 1b 64
        E 0 90 33 64
        E 0 90 4b 64
        E 0 90 63 64
        E 720 80 1b 00
        E 0 80 33 00
        E 0 80 4b 00
        E 0 80 63 00
        E 240 90 0a 6c
        E 0 90 19 71
        E 0 90 31 71
        E 0 90 32 73
        E 0 90 49 71
        E 0 90 4a 73
        E 0 90 4b 73
        E 0 90 61 71
        E 0 90 62 73
        E 0 90 63 73
        E 0 90 6c 71
        E 120 80 0a 00
        E 0 80 6c 00
        E 3480 80 19 00
        E 0 80 31 00
        E 0 80 32 00
        E 0 80 49 00
        E 0 80 4a 00
        E 0 80 4b 00
        E 0 80 61 00
        E 0 80 62 00
        E 0 80 63 00
        E 240 90 19 6c
        E 0 90 31 6c
        E 0 90 49 6c
        E 0 90 61 6c
        E 0 90 6c 6c
        E 120 80 6c 00
        E 2520 80 19 00
        E 0 80 31 00
        E 0 80 49 00
        E 0 80 61 00
        E 240 90 1a 6e
        E 0 90 32 6e
        E 0 90 4a 6e
        E 0 90 62 6e
        E 720 80 1a 00
        E 0 80 32 00
        E 0 80 4a 00
        E 0 80 62 00
        E 240 90 1b 67
        E 0 90 1f 64
        E 0 90 33 67
        E 0 90 37 64
        E 0 90 4b 67
        E 0 90 4f 64
        E 0 90 63 67
        E 0 90 67 64
        E 0 90 6c 67
        E 120 80 6c 00
        E 780 80 1b 00
        E 0 80 33 00
        E 0 80 4b 00
        E 0 80 63 00
        E 60 90 1b 70
        E 0 90 33 70
        E 0 90 36 64
        E 0 90 4b 70
        E 0 90 4e 64
        E 0 90 63 70
        E 0 90 66 64
        E 0 90 74 60
        E 900 80 1b 00
        E 0 80 33 00
        E 0 80 4b 00
        E 0 80 63 00
        E 60 90 1b 67
        E 0 90 33 67
        E 0 90 4b 67
        E 0 90 63 67
        E 900 80 1f 00
        E 0 80 37 00
        E 0 80 4f 00
        E 0 80 67 00
        E 0 80 1b 00
        E 0 80 33 00
        E 0 80 4b 00
        E 0 80 63 00
        E 60 90 1b 70
        E 0 90 33 70
        E 0 90 4b 70
        E 0 90 63 70
        E 840 80 36 00
        E 0 80 4e 00
        E 0 80 66 00
        E 0 80 1b 00
        E 0 80 33 00
        E 0 80 4b 00
        E 0 80 63 00
        E 120 90 1a 6e
        E 0 90 32 6e
        E 0 90 4a 6e
        E 0 90 62 6e
        E 0 90 6c 6c
        E 120 80 6c 00
        E 1080 80 1a 00
        E 0 80 32 00
        E 0 80 4a 00
        E 0 80 62 00
        E 240 80 74 00
        E 0 90 1a 6c
        E 0 90 32 6c
        E 0 90 4a 6c
        E 0 90 62 6c
        E 1200 80 1a 00
        E 0 80 32 00
        E 0 80 4a 00
        E 0 80 62 00
        E 240 90 19 6e
        E 0 90 31 6e
        E 0 90 49 6e
        E 0 90 61 6e
        E 720 80 19 00
        E 0 80 31 00
        E 0 80 49 00
        E 0 80 61 00
        E 240 90 19 71
        E 0 90 31 71
        E 0 90 32 73
        E 0 90 49 71
        E 0 90 4a 73
        E 0 90 4b 73
        E 0 90 61 71
        E 0 90 62 73
        E 0 90 63 73
        E 0 90 6c 71
        E 120 80 6c 00
        E 3480 80 19 00
        E 0 80 31 00
        E 0 80 32 00
        E 0 80 49 00
        E 0 80 4a 00
        E 0 80 4b 00
        E 0 80 61 00
        E 0 80 62 00
        E 0 80 63 00
        E 240 90 1c 6c
        E 0 90 34 6c
        E 0 90 4c 6c
        E 0 90 64 6c
        E 0 90 6c 6a
        E 120 80 6c 00
        E 1560 80 1c 00
        E 0 80 34 00
        E 0 80 4c 00
        E 0 80 64 00
        E 240 90 1c 6a
        E 0 90 34 6a
        E 0 90 4c 6a
        E 0 90 64 6a
        E 1680 80 1c 00
        E 0 80 34 00
        E 0 80 4c 00
        E 0 80 64 00
        E 240 90 1c 6c
        E 0 90 34 6c
        E 0 90 4c 6c
        E 0 90 64 6c
        E 5520 80 1c 00
        E 0 80 34 00
        E 0 80 4c 00
        E 0 80 64 00
        E 240 90 1c 6a
        E 0 90 34 6a
        E 0 90 4c 6a
        E 0 90 64 6a
        E 720 80 1c 00
        E 0 80 34 00
        E 0 80 4c 00
        E 0 80 64 00
        E 240 90 1c 6c
        E 0 90 34 6c
        E 0 90 4c 6c
        E 0 90 64 6c
        E 720 80 1c 00
        E 0 80 34 00
        E 0 80 4c 00
        E 0 80 64 00
        E 240 90 1b 67
        E 0 90 33 67
        E 0 90 4b 67
        E 0 90 63 67
        E 0 90 6c 67
        E 120 80 6c 00
        E 1680 80 1b 00
        E 0 80 33 00
        E 0 80 4b 00
        E 0 80 63 00
        E 120 90 1b 6e
        E 0 90 33 6e
        E 0 90 36 64
        E 0 90 4b 6e
        E 0 90 4e 64
        E 0 90 63 6e
        E 0 90 66 64
        E 0 90 6c 6e
        E 120 80 6c 00
        E 360 80 36 00
        E 0 80 4e 00
        E 0 80 66 00
        E 18719 80 1b 00
        E 0 80 33 00
        E 0 80 4b 00
        E 0 80 63 00
        E 5761 b0 7b 00
        GUID {EF95E975-3CEB-430A-9592-8B7FE4DB5FE5}
        IGNTEMPO 0 120.00000000 4 4
        SRCCOLOR 11
        VELLANE 132 128 60
        COLORMAP "C:\Program Files\REAPER (x64)\Data\color_maps\rockband_guitarbass.png"
        CFGEDITVIEW -26958.646950 3.920965 7 12 0 0 0
        CFGEDIT 1 1 0 1 1 0 1 1 1 1 1 0.25000000 -8 -8 1544 872 0 2 1 1 0.00000000 0 1 1 0 0.500000 0 0 1.000000 64
        KEYSNAP 0 7 "102030050700" 0 "Pentatonic"
        EVTFILTER 0 -1 -1 -1 -1 0 1 0 0 -1.00000000 -1.00000000
      >
    >
  >
  <TRACK '{FAD32A2B-7E07-4E97-A146-33363C21B8BD}'
    NAME "EVENTS"
    PEAKCOL 16576
    BEAT -1
    AUTOMODE 0
    VOLPAN 1.00000000000000 0.00000000000000 -1.00000000000000 -1.00000000000000 1.00000000000000
    MUTESOLO 0 0 0
    IPHASE 0
    ISBUS 0 0
    BUSCOMP 0 0
    SHOWINMIX 1 0.666700 0.500000 1 0.500000 -1 -1 -1
    FREEMODE 0
    SEL 0
    REC 0 0 0 0 0 0 0
    VU 2
    TRACKHEIGHT 0 0
    INQ 0 0 0 0.5000000000 100 0 0 100
    NCHAN 2
    FX 1
    TRACKID {FAD32A2B-7E07-4E97-A146-33363C21B8BD}
    PERF 0
    MIDIOUT -1
    <MIDINOTENAMES
      0 26 "Hi-Hat"
      0 25 "Snare"
      0 24 "Kick"
    >
    MAINSEND 1 0
    <FXCHAIN
      SHOW 0
      LASTSEL 0
      DOCKED 0
    >
    <ITEM
      POSITION 0.00000000000000
      SNAPOFFS 0.00000000000000
      LENGTH 286.40908800000000
      LOOP 0
      ALLTAKES 0
      SEL 0
      FADEIN 1 0.000000 0.000000 1 0
      FADEOUT 1 0.000000 0.000000 1 0
      MUTE 0
      IGUID {6A131ACA-6B2E-41E1-90C7-2C7F5968636A}
      IID 12
      NAME "EVENTS"
      VOLPAN 1.000000 0.000000 1.000000 -1.000000
      SOFFS 0.00000000000000 0.00000000000000
      PLAYRATE 1.00000000000000 1 0.00000000000000 -1
      CHANMODE 0
      GUID {592BFA7D-2F67-46F7-84B7-30A61B81AD2C}
      <SOURCE MIDI
        HASDATA 1 480 QN
        POOLEDEVTS {A4E75ECA-0B9A-47AE-BC2E-859AF421AEC4}
        <X 0 0
          /wNFVkVOVFM=
        >
        <X 5760 0
          /wFbY3Jvd2Rfbm9ybWFsXQ==
        >
        <X 0 0
          /wFbcHJjX2ludHJvX2Fd
        >
        <X 0 0
          /wFbbXVzaWNfc3RhcnRd
        >
        <X 30720 0
          /wFbcHJjX2ludHJvX2Jd
        >
        <X 30720 0
          /wFbcHJjX2ludHJvX3ZlcnNlXQ==
        >
        <X 30720 0
          /wFbcHJjX3ZlcnNlXzFd
        >
        <X 46080 0
          /wFbcHJjX2Nob3J1c18xYV0=
        >
        <X 30720 0
          /wFbcHJjX2Nob3J1c18xYl0=
        >
        <X 38400 0
          /wFbcHJjX3ZlcnNlXzJhXQ==
        >
        <X 30720 0
          /wFbcHJjX3ZlcnNlXzJiXQ==
        >
        <X 30720 0
          /wFbcHJjX2JyZWFrXQ==
        >
        <X 44160 0
          /wFbcHJjX2Nob3J1c18yYV0=
        >
        <X 30720 0
          /wFbcHJjX2Nob3J1c18yYl0=
        >
        <X 30720 0
          /wFbcHJjX291dHJvXQ==
        >
        <X 9600 0
          /wFbbXVzaWNfZW5kXQ==
        >
        <X 24959 0
          /wFbZW5kXQ==
        >
        E 1 b0 7b 00
        GUID {AC9F0208-D883-41F1-B250-0E2919A3BD9B}
        IGNTEMPO 0 120.00000000 4 4
        SRCCOLOR 12
        VELLANE 132 128 60
        COLORMAP "C:\Program Files\REAPER (x64)\Data\color_maps\rockband_guitarbass.png"
        CFGEDITVIEW -26958.646950 3.920965 0 48 0 0 0
        CFGEDIT 1 1 0 1 1 0 1 1 1 1 1 0.25000000 -8 -8 1544 872 0 2 1 1 0.00000000 0 1 1 0 0.500000 0 0 1.000000 64
        KEYSNAP 0 7 "102030050700" 0 "Pentatonic"
        EVTFILTER 0 -1 -1 -1 -1 0 1 0 0 -1.00000000 -1.00000000
      >
    >
  >
  <TRACK '{51015D78-5B19-4CAC-8205-FD1D10B6673B}'
    NAME "BEAT"
    PEAKCOL 16576
    BEAT -1
    AUTOMODE 0
    VOLPAN 1.00000000000000 0.00000000000000 -1.00000000000000 -1.00000000000000 1.00000000000000
    MUTESOLO 0 0 0
    IPHASE 0
    ISBUS 0 0
    BUSCOMP 0 0
    SHOWINMIX 1 0.666700 0.500000 1 0.500000 -1 -1 -1
    FREEMODE 0
    SEL 1
    REC 0 0 0 0 0 0 0
    VU 2
    TRACKHEIGHT 0 0
    INQ 0 0 0 0.5000000000 100 0 0 100
    NCHAN 2
    FX 1
    TRACKID {51015D78-5B19-4CAC-8205-FD1D10B6673B}
    PERF 0
    MIDIOUT -1
    <MIDINOTENAMES
      0 13 "Up Beats"
      0 12 "Downbeat"
    >
    MAINSEND 1 0
    <FXCHAIN
      SHOW 0
      LASTSEL 0
      DOCKED 0
    >
    <ITEM
      POSITION 0.00000000000000
      SNAPOFFS 0.00000000000000
      LENGTH 286.40908800000000
      LOOP 0
      ALLTAKES 0
      SEL 0
      FADEIN 1 0.000000 0.000000 1 0
      FADEOUT 1 0.000000 0.000000 1 0
      MUTE 0
      IGUID {19EA4635-95F6-4D85-A112-DAEA3ABBEB20}
      IID 13
      NAME "BEAT"
      VOLPAN 1.000000 0.000000 1.000000 -1.000000
      SOFFS 0.00000000000000 0.00000000000000
      PLAYRATE 1.00000000000000 1 0.00000000000000 -1
      CHANMODE 0
      GUID {89516564-11B3-4654-AE57-C85B2056917E}
      <SOURCE MIDI
        HASDATA 1 480 QN
        POOLEDEVTS {148A1A38-4E47-484E-86A9-70E84F9C313E}
        <X 0 0
          /wNCRUFU
        >
        E 0 96 0c 64
        E 120 86 0c 40
        E 360 96 0d 64
        E 120 86 0d 40
        E 360 96 0d 64
        E 120 86 0d 40
        E 360 96 0d 64
        E 120 86 0d 40
        E 360 96 0c 64
        E 120 86 0c 40
        E 360 96 0d 64
        E 120 86 0d 40
        E 360 96 0d 64
        E 120 86 0d 40
        E 360 96 0d 64
        E 120 86 0d 40
        E 360 96 0c 64
        E 120 86 0c 40
        E 360 96 0d 64
        E 120 86 0d 40
        E 360 96 0d 64
        E 120 86 0d 40
        E 360 96 0d 64
        E 120 86 0d 40
        E 360 96 0c 64
        E 120 86 0c 40
        E 360 96 0d 64
        E 120 86 0d 40
        E 360 96 0d 64
        E 120 86 0d 40
        E 360 96 0d 64
        E 120 86 0d 40
        E 360 96 0c 64
        E 120 86 0c 40
        E 360 96 0d 64
        E 120 86 0d 40
        E 360 96 0d 64
        E 120 86 0d 40
        E 360 96 0d 64
        E 120 86 0d 40
        E 360 96 0c 64
        E 120 86 0c 40
        E 360 96 0d 64
        E 120 86 0d 40
        E 360 96 0d 64
        E 120 86 0d 40
        E 360 96 0d 64
        E 120 86 0d 40
        E 360 96 0c 64
        E 120 86 0c 40
        E 360 96 0d 64
        E 120 86 0d 40
        E 360 96 0d 64
        E 120 86 0d 40
        E 360 96 0d 64
        E 120 86 0d 40
        E 360 96 0c 64
        E 120 86 0c 40
        E 360 96 0d 64
        E 120 86 0d 40
        E 360 96 0d 64
        E 120 86 0d 40
        E 360 96 0d 64
        E 120 86 0d 40
        E 360 96 0c 64
        E 120 86 0c 40
        E 360 96 0d 64
        E 120 86 0d 40
        E 360 96 0d 64
        E 120 86 0d 40
        E 360 96 0d 64
        E 120 86 0d 40
        E 360 96 0c 64
        E 120 86 0c 40
        E 360 96 0d 64
        E 120 86 0d 40
        E 360 96 0d 64
        E 120 86 0d 40
        E 360 96 0d 64
        E 120 86 0d 40
        E 360 96 0c 64
        E 120 86 0c 40
        E 360 96 0d 64
        E 120 86 0d 40
        E 360 96 0d 64
        E 120 86 0d 40
        E 360 96 0d 64
        E 120 86 0d 40
        E 360 96 0c 64
        E 120 86 0c 40
        E 360 96 0d 64
        E 120 86 0d 40
        E 360 96 0d 64
        E 120 86 0d 40
        E 360 96 0d 64
        E 120 86 0d 40
        E 360 96 0c 64
        E 120 86 0c 40
        E 360 96 0d 64
        E 120 86 0d 40
        E 360 96 0d 64
        E 120 86 0d 40
        E 360 96 0d 64
        E 120 86 0d 40
        E 360 96 0c 64
        E 120 86 0c 40
        E 360 96 0d 64
        E 120 86 0d 40
        E 360 96 0d 64
        E 120 86 0d 40
        E 360 96 0d 64
        E 120 86 0d 40
        E 360 96 0c 64
        E 120 86 0c 40
        E 360 96 0d 64
        E 120 86 0d 40
        E 360 96 0d 64
        E 120 86 0d 40
        E 360 96 0d 64
        E 120 86 0d 40
        E 360 96 0c 64
        E 120 86 0c 40
        E 360 96 0d 64
        E 120 86 0d 40
        E 360 96 0d 64
        E 120 86 0d 40
        E 360 96 0d 64
        E 120 86 0d 40
        E 360 96 0c 64
        E 120 86 0c 40
        E 360 96 0d 64
        E 120 86 0d 40
        E 360 96 0d 64
        E 120 86 0d 40
        E 360 96 0d 64
        E 120 86 0d 40
        E 360 96 0c 64
        E 120 86 0c 40
        E 360 96 0d 64
        E 120 86 0d 40
        E 360 96 0d 64
        E 120 86 0d 40
        E 360 96 0d 64
        E 120 86 0d 40
        E 360 96 0c 64
        E 120 86 0c 40
        E 360 96 0d 64
        E 120 86 0d 40
        E 360 96 0d 64
        E 120 86 0d 40
        E 360 96 0d 64
        E 120 86 0d 40
        E 360 96 0c 64
        E 120 86 0c 40
        E 360 96 0d 64
        E 120 86 0d 40
        E 360 96 0d 64
        E 120 86 0d 40
        E 360 96 0d 64
        E 120 86 0d 40
        E 360 96 0c 64
        E 120 86 0c 40
        E 360 96 0d 64
        E 120 86 0d 40
        E 360 96 0d 64
        E 120 86 0d 40
        E 360 96 0d 64
        E 120 86 0d 40
        E 360 96 0c 64
        E 120 86 0c 40
        E 360 96 0d 64
        E 120 86 0d 40
        E 360 96 0d 64
        E 120 86 0d 40
        E 360 96 0d 64
        E 120 86 0d 40
        E 360 96 0c 64
        E 120 86 0c 40
        E 360 96 0d 64
        E 120 86 0d 40
        E 360 96 0d 64
        E 120 86 0d 40
        E 360 96 0d 64
        E 120 86 0d 40
        E 360 96 0c 64
        E 120 86 0c 40
        E 360 96 0d 64
        E 120 86 0d 40
        E 360 96 0d 64
        E 120 86 0d 40
        E 360 96 0d 64
        E 120 86 0d 40
        E 360 96 0c 64
        E 120 86 0c 40
        E 360 96 0d 64
        E 120 86 0d 40
        E 360 96 0d 64
        E 120 86 0d 40
        E 360 96 0d 64
        E 120 86 0d 40
        E 360 96 0c 64
        E 120 86 0c 40
        E 360 96 0d 64
        E 120 86 0d 40
        E 360 96 0d 64
        E 120 86 0d 40
        E 360 96 0d 64
        E 120 86 0d 40
        E 360 96 0c 64
        E 120 86 0c 40
        E 360 96 0d 64
        E 120 86 0d 40
        E 360 96 0d 64
        E 120 86 0d 40
        E 360 96 0d 64
        E 120 86 0d 40
        E 360 96 0c 64
        E 120 86 0c 40
        E 360 96 0d 64
        E 120 86 0d 40
        E 360 96 0d 64
        E 120 86 0d 40
        E 360 96 0d 64
        E 120 86 0d 40
        E 360 96 0c 64
        E 120 86 0c 40
        E 360 96 0d 64
        E 120 86 0d 40
        E 360 96 0d 64
        E 120 86 0d 40
        E 360 96 0d 64
        E 120 86 0d 40
        E 360 96 0c 64
        E 120 86 0c 40
        E 360 96 0d 64
        E 120 86 0d 40
        E 360 96 0d 64
        E 120 86 0d 40
        E 360 96 0d 64
        E 120 86 0d 40
        E 360 96 0c 64
        E 120 86 0c 40
        E 360 96 0d 64
        E 120 86 0d 40
        E 360 96 0d 64
        E 120 86 0d 40
        E 360 96 0d 64
        E 120 86 0d 40
        E 360 96 0c 64
        E 120 86 0c 40
        E 360 96 0d 64
        E 120 86 0d 40
        E 360 96 0d 64
        E 120 86 0d 40
        E 360 96 0d 64
        E 120 86 0d 40
        E 360 96 0c 64
        E 120 86 0c 40
        E 360 96 0d 64
        E 120 86 0d 40
        E 360 96 0d 64
        E 120 86 0d 40
        E 360 96 0d 64
        E 120 86 0d 40
        E 360 96 0c 64
        E 120 86 0c 40
        E 360 96 0d 64
        E 120 86 0d 40
        E 360 96 0d 64
        E 120 86 0d 40
        E 360 96 0d 64
        E 120 86 0d 40
        E 360 96 0c 64
        E 120 86 0c 40
        E 360 96 0d 64
        E 120 86 0d 40
        E 360 96 0d 64
        E 120 86 0d 40
        E 360 96 0d 64
        E 120 86 0d 40
        E 360 96 0c 64
        E 120 86 0c 40
        E 360 96 0d 64
        E 120 86 0d 40
        E 360 96 0d 64
        E 120 86 0d 40
        E 360 96 0d 64
        E 120 86 0d 40
        E 360 96 0c 64
        E 120 86 0c 40
        E 360 96 0d 64
        E 120 86 0d 40
        E 360 96 0d 64
        E 120 86 0d 40
        E 360 96 0d 64
        E 120 86 0d 40
        E 360 96 0c 64
        E 120 86 0c 40
        E 360 96 0d 64
        E 120 86 0d 40
        E 360 96 0d 64
        E 120 86 0d 40
        E 360 96 0d 64
        E 120 86 0d 40
        E 360 96 0c 64
        E 120 86 0c 40
        E 360 96 0d 64
        E 120 86 0d 40
        E 360 96 0d 64
        E 120 86 0d 40
        E 360 96 0d 64
        E 120 86 0d 40
        E 360 96 0c 64
        E 120 86 0c 40
        E 360 96 0d 64
        E 120 86 0d 40
        E 360 96 0d 64
        E 120 86 0d 40
        E 360 96 0d 64
        E 120 86 0d 40
        E 360 96 0c 64
        E 120 86 0c 40
        E 360 96 0d 64
        E 120 86 0d 40
        E 360 96 0d 64
        E 120 86 0d 40
        E 360 96 0d 64
        E 120 86 0d 40
        E 360 96 0c 64
        E 120 86 0c 40
        E 360 96 0d 64
        E 120 86 0d 40
        E 360 96 0d 64
        E 120 86 0d 40
        E 360 96 0d 64
        E 120 86 0d 40
        E 360 96 0c 64
        E 120 86 0c 40
        E 360 96 0d 64
        E 120 86 0d 40
        E 360 96 0d 64
        E 120 86 0d 40
        E 360 96 0d 64
        E 120 86 0d 40
        E 360 96 0c 64
        E 120 86 0c 40
        E 360 96 0d 64
        E 120 86 0d 40
        E 360 96 0d 64
        E 120 86 0d 40
        E 360 96 0d 64
        E 120 86 0d 40
        E 360 96 0c 64
        E 120 86 0c 40
        E 360 96 0d 64
        E 120 86 0d 40
        E 360 96 0d 64
        E 120 86 0d 40
        E 360 96 0d 64
        E 120 86 0d 40
        E 360 96 0c 64
        E 120 86 0c 40
        E 360 96 0d 64
        E 120 86 0d 40
        E 360 96 0d 64
        E 120 86 0d 40
        E 360 96 0d 64
        E 120 86 0d 40
        E 360 96 0c 64
        E 120 86 0c 40
        E 360 96 0d 64
        E 120 86 0d 40
        E 360 96 0d 64
        E 120 86 0d 40
        E 360 96 0d 64
        E 120 86 0d 40
        E 360 96 0c 64
        E 120 86 0c 40
        E 360 96 0d 64
        E 120 86 0d 40
        E 360 96 0d 64
        E 120 86 0d 40
        E 360 96 0d 64
        E 120 86 0d 40
        E 360 96 0c 64
        E 120 86 0c 40
        E 360 96 0d 64
        E 120 86 0d 40
        E 360 96 0d 64
        E 120 86 0d 40
        E 360 96 0d 64
        E 120 86 0d 40
        E 360 96 0c 64
        E 120 86 0c 40
        E 360 96 0d 64
        E 120 86 0d 40
        E 360 96 0d 64
        E 120 86 0d 40
        E 360 96 0d 64
        E 120 86 0d 40
        E 360 96 0c 64
        E 120 86 0c 40
        E 360 96 0d 64
        E 120 86 0d 40
        E 360 96 0d 64
        E 120 86 0d 40
        E 360 96 0d 64
        E 120 86 0d 40
        E 360 96 0c 64
        E 120 86 0c 40
        E 360 96 0d 64
        E 120 86 0d 40
        E 360 96 0d 64
        E 120 86 0d 40
        E 360 96 0d 64
        E 120 86 0d 40
        E 360 96 0c 64
        E 120 86 0c 40
        E 360 96 0d 64
        E 120 86 0d 40
        E 360 96 0d 64
        E 120 86 0d 40
        E 360 96 0d 64
        E 120 86 0d 40
        E 360 96 0c 64
        E 120 86 0c 40
        E 360 96 0d 64
        E 120 86 0d 40
        E 360 96 0d 64
        E 120 86 0d 40
        E 360 96 0d 64
        E 120 86 0d 40
        E 360 96 0c 64
        E 120 86 0c 40
        E 360 96 0d 64
        E 120 86 0d 40
        E 360 96 0d 64
        E 120 86 0d 40
        E 360 96 0d 64
        E 120 86 0d 40
        E 360 96 0c 64
        E 120 86 0c 40
        E 360 96 0d 64
        E 120 86 0d 40
        E 360 96 0d 64
        E 120 86 0d 40
        E 360 96 0d 64
        E 120 86 0d 40
        E 360 96 0c 64
        E 120 86 0c 40
        E 360 96 0d 64
        E 120 86 0d 40
        E 360 96 0d 64
        E 120 86 0d 40
        E 360 96 0d 64
        E 120 86 0d 40
        E 360 96 0c 64
        E 120 86 0c 40
        E 360 96 0d 64
        E 120 86 0d 40
        E 360 96 0d 64
        E 120 86 0d 40
        E 360 96 0d 64
        E 120 86 0d 40
        E 360 96 0c 64
        E 120 86 0c 40
        E 360 96 0d 64
        E 120 86 0d 40
        E 360 96 0d 64
        E 120 86 0d 40
        E 360 96 0d 64
        E 120 86 0d 40
        E 360 96 0c 64
        E 120 86 0c 40
        E 360 96 0d 64
        E 120 86 0d 40
        E 360 96 0d 64
        E 120 86 0d 40
        E 360 96 0d 64
        E 120 86 0d 40
        E 360 96 0c 64
        E 120 86 0c 40
        E 360 96 0d 64
        E 120 86 0d 40
        E 360 96 0d 64
        E 120 86 0d 40
        E 360 96 0d 64
        E 120 86 0d 40
        E 360 96 0c 64
        E 120 86 0c 40
        E 360 96 0d 64
        E 120 86 0d 40
        E 360 96 0d 64
        E 120 86 0d 40
        E 360 96 0d 64
        E 120 86 0d 40
        E 360 96 0c 64
        E 120 86 0c 40
        E 360 96 0d 64
        E 120 86 0d 40
        E 360 96 0d 64
        E 120 86 0d 40
        E 360 96 0d 64
        E 120 86 0d 40
        E 360 96 0c 64
        E 120 86 0c 40
        E 360 96 0d 64
        E 120 86 0d 40
        E 360 96 0d 64
        E 120 86 0d 40
        E 360 96 0d 64
        E 120 86 0d 40
        E 360 96 0c 64
        E 120 86 0c 40
        E 360 96 0d 64
        E 120 86 0d 40
        E 360 96 0d 64
        E 120 86 0d 40
        E 360 96 0d 64
        E 120 86 0d 40
        E 360 96 0c 64
        E 120 86 0c 40
        E 360 96 0d 64
        E 120 86 0d 40
        E 360 96 0d 64
        E 120 86 0d 40
        E 360 96 0d 64
        E 120 86 0d 40
        E 360 96 0c 64
        E 120 86 0c 40
        E 360 96 0d 64
        E 120 86 0d 40
        E 360 96 0d 64
        E 120 86 0d 40
        E 360 96 0d 64
        E 120 86 0d 40
        E 360 96 0c 64
        E 120 86 0c 40
        E 360 96 0d 64
        E 120 86 0d 40
        E 360 96 0d 64
        E 120 86 0d 40
        E 360 96 0d 64
        E 120 86 0d 40
        E 360 96 0c 64
        E 120 86 0c 40
        E 360 96 0d 64
        E 120 86 0d 40
        E 360 96 0d 64
        E 120 86 0d 40
        E 360 96 0d 64
        E 120 86 0d 40
        E 360 96 0c 64
        E 120 86 0c 40
        E 360 96 0d 64
        E 120 86 0d 40
        E 360 96 0d 64
        E 120 86 0d 40
        E 360 96 0d 64
        E 120 86 0d 40
        E 360 96 0c 64
        E 120 86 0c 40
        E 360 96 0d 64
        E 120 86 0d 40
        E 360 96 0d 64
        E 120 86 0d 40
        E 360 96 0d 64
        E 120 86 0d 40
        E 360 96 0c 64
        E 120 86 0c 40
        E 360 96 0d 64
        E 120 86 0d 40
        E 360 96 0d 64
        E 120 86 0d 40
        E 360 96 0d 64
        E 120 86 0d 40
        E 360 96 0c 64
        E 120 86 0c 40
        E 360 96 0d 64
        E 120 86 0d 40
        E 360 96 0d 64
        E 120 86 0d 40
        E 360 96 0d 64
        E 120 86 0d 40
        E 360 96 0c 64
        E 120 86 0c 40
        E 360 96 0d 64
        E 120 86 0d 40
        E 360 96 0d 64
        E 120 86 0d 40
        E 360 96 0d 64
        E 120 86 0d 40
        E 360 96 0c 64
        E 120 86 0c 40
        E 360 96 0d 64
        E 120 86 0d 40
        E 360 96 0d 64
        E 120 86 0d 40
        E 360 96 0d 64
        E 120 86 0d 40
        E 360 96 0c 64
        E 120 86 0c 40
        E 360 96 0d 64
        E 120 86 0d 40
        E 360 96 0d 64
        E 120 86 0d 40
        E 360 96 0d 64
        E 120 86 0d 40
        E 360 96 0c 64
        E 120 86 0c 40
        E 360 96 0d 64
        E 120 86 0d 40
        E 360 96 0d 64
        E 120 86 0d 40
        E 360 96 0d 64
        E 120 86 0d 40
        E 360 96 0c 64
        E 120 86 0c 40
        E 360 96 0d 64
        E 120 86 0d 40
        E 360 96 0d 64
        E 120 86 0d 40
        E 360 96 0d 64
        E 120 86 0d 40
        E 360 96 0c 64
        E 120 86 0c 40
        E 360 96 0d 64
        E 120 86 0d 40
        E 360 96 0d 64
        E 120 86 0d 40
        E 360 96 0d 64
        E 120 86 0d 40
        E 360 96 0c 64
        E 120 86 0c 40
        E 360 96 0d 64
        E 120 86 0d 40
        E 360 96 0d 64
        E 120 86 0d 40
        E 360 96 0d 64
        E 120 86 0d 40
        E 360 96 0c 64
        E 120 86 0c 40
        E 360 96 0d 64
        E 120 86 0d 40
        E 360 96 0d 64
        E 120 86 0d 40
        E 360 96 0d 64
        E 120 86 0d 40
        E 360 96 0c 64
        E 120 86 0c 40
        E 360 96 0d 64
        E 120 86 0d 40
        E 360 96 0d 64
        E 120 86 0d 40
        E 360 96 0d 64
        E 120 86 0d 40
        E 360 96 0c 64
        E 120 86 0c 40
        E 360 96 0d 64
        E 120 86 0d 40
        E 360 96 0d 64
        E 120 86 0d 40
        E 360 96 0d 64
        E 120 86 0d 40
        E 360 96 0c 64
        E 120 86 0c 40
        E 360 96 0d 64
        E 120 86 0d 40
        E 360 96 0d 64
        E 120 86 0d 40
        E 360 96 0d 64
        E 120 86 0d 40
        E 360 96 0c 64
        E 120 86 0c 40
        E 360 96 0d 64
        E 120 86 0d 40
        E 360 96 0d 64
        E 120 86 0d 40
        E 360 96 0d 64
        E 120 86 0d 40
        E 360 96 0c 64
        E 120 86 0c 40
        E 360 96 0d 64
        E 120 86 0d 40
        E 360 96 0d 64
        E 120 86 0d 40
        E 360 96 0d 64
        E 120 86 0d 40
        E 360 96 0c 64
        E 120 86 0c 40
        E 360 96 0d 64
        E 120 86 0d 40
        E 360 96 0d 64
        E 120 86 0d 40
        E 360 96 0d 64
        E 120 86 0d 40
        E 360 96 0c 64
        E 120 86 0c 40
        E 360 96 0d 64
        E 120 86 0d 40
        E 360 96 0d 64
        E 120 86 0d 40
        E 360 96 0d 64
        E 120 86 0d 40
        E 360 96 0c 64
        E 120 86 0c 40
        E 360 96 0d 64
        E 120 86 0d 40
        E 360 96 0d 64
        E 120 86 0d 40
        E 360 96 0d 64
        E 120 86 0d 40
        E 360 96 0c 64
        E 120 86 0c 40
        E 360 96 0d 64
        E 120 86 0d 40
        E 360 96 0d 64
        E 120 86 0d 40
        E 360 96 0d 64
        E 120 86 0d 40
        E 360 96 0c 64
        E 120 86 0c 40
        E 360 96 0d 64
        E 120 86 0d 40
        E 360 96 0d 64
        E 120 86 0d 40
        E 360 96 0d 64
        E 120 86 0d 40
        E 360 96 0c 64
        E 120 86 0c 40
        E 360 96 0d 64
        E 120 86 0d 40
        E 360 96 0d 64
        E 120 86 0d 40
        E 360 96 0d 64
        E 120 86 0d 40
        E 360 96 0c 64
        E 120 86 0c 40
        E 360 96 0d 64
        E 120 86 0d 40
        E 360 96 0d 64
        E 120 86 0d 40
        E 360 96 0d 64
        E 120 86 0d 40
        E 360 96 0c 64
        E 120 86 0c 40
        E 360 96 0d 64
        E 120 86 0d 40
        E 360 96 0d 64
        E 120 86 0d 40
        E 360 96 0d 64
        E 120 86 0d 40
        E 360 96 0c 64
        E 120 86 0c 40
        E 360 96 0d 64
        E 120 86 0d 40
        E 360 96 0d 64
        E 120 86 0d 40
        E 360 96 0d 64
        E 120 86 0d 40
        E 360 96 0c 64
        E 120 86 0c 40
        E 360 96 0d 64
        E 120 86 0d 40
        E 360 96 0d 64
        E 120 86 0d 40
        E 360 96 0d 64
        E 120 86 0d 40
        E 360 96 0c 64
        E 120 86 0c 40
        E 360 96 0d 64
        E 120 86 0d 40
        E 360 96 0d 64
        E 120 86 0d 40
        E 360 96 0d 64
        E 120 86 0d 40
        E 360 96 0c 64
        E 120 86 0c 40
        E 360 96 0d 64
        E 120 86 0d 40
        E 360 96 0d 64
        E 120 86 0d 40
        E 360 96 0d 64
        E 120 86 0d 40
        E 360 96 0c 64
        E 120 86 0c 40
        E 360 96 0d 64
        E 120 86 0d 40
        E 360 96 0d 64
        E 120 86 0d 40
        E 360 96 0d 64
        E 120 86 0d 40
        E 360 96 0c 64
        E 120 86 0c 40
        E 360 96 0d 64
        E 120 86 0d 40
        E 360 96 0d 64
        E 120 86 0d 40
        E 360 96 0d 64
        E 120 86 0d 40
        E 360 96 0c 64
        E 120 86 0c 40
        E 360 96 0d 64
        E 120 86 0d 40
        E 360 96 0d 64
        E 120 86 0d 40
        E 360 96 0d 64
        E 120 86 0d 40
        E 360 96 0c 64
        E 120 86 0c 40
        E 360 96 0d 64
        E 120 86 0d 40
        E 360 96 0d 64
        E 120 86 0d 40
        E 360 96 0d 64
        E 120 86 0d 40
        E 360 96 0c 64
        E 120 86 0c 40
        E 360 96 0d 64
        E 120 86 0d 40
        E 360 96 0d 64
        E 120 86 0d 40
        E 360 96 0d 64
        E 120 86 0d 40
        E 360 96 0c 64
        E 120 86 0c 40
        E 360 96 0d 64
        E 120 86 0d 40
        E 360 96 0d 64
        E 120 86 0d 40
        E 360 96 0d 64
        E 120 86 0d 40
        E 360 96 0c 64
        E 120 86 0c 40
        E 360 96 0d 64
        E 120 86 0d 40
        E 360 96 0d 64
        E 120 86 0d 40
        E 360 96 0d 64
        E 120 86 0d 40
        E 360 96 0c 64
        E 120 86 0c 40
        E 360 96 0d 64
        E 120 86 0d 40
        E 360 96 0d 64
        E 120 86 0d 40
        E 360 96 0d 64
        E 120 86 0d 40
        E 360 96 0c 64
        E 120 86 0c 40
        E 360 96 0d 64
        E 120 86 0d 40
        E 360 96 0d 64
        E 120 86 0d 40
        E 360 96 0d 64
        E 120 86 0d 40
        E 360 96 0c 64
        E 120 86 0c 40
        E 360 96 0d 64
        E 120 86 0d 40
        E 360 96 0d 64
        E 120 86 0d 40
        E 360 96 0d 64
        E 120 86 0d 40
        E 360 96 0c 64
        E 120 86 0c 40
        E 360 96 0d 64
        E 120 86 0d 40
        E 360 96 0d 64
        E 120 86 0d 40
        E 360 96 0d 64
        E 120 86 0d 40
        E 360 96 0c 64
        E 120 86 0c 40
        E 360 96 0d 64
        E 120 86 0d 40
        E 360 96 0d 64
        E 120 86 0d 40
        E 360 96 0d 64
        E 120 86 0d 40
        E 360 96 0c 64
        E 120 86 0c 40
        E 360 96 0d 64
        E 120 86 0d 40
        E 360 96 0d 64
        E 120 86 0d 40
        E 360 96 0d 64
        E 120 86 0d 40
        E 360 96 0c 64
        E 120 86 0c 40
        E 360 96 0d 64
        E 120 86 0d 40
        E 360 96 0d 64
        E 120 86 0d 40
        E 360 96 0d 64
        E 120 86 0d 40
        E 360 96 0c 64
        E 120 86 0c 40
        E 360 96 0d 64
        E 120 86 0d 40
        E 360 96 0d 64
        E 120 86 0d 40
        E 360 96 0d 64
        E 120 86 0d 40
        E 360 96 0c 64
        E 120 86 0c 40
        E 360 96 0d 64
        E 120 86 0d 40
        E 360 96 0d 64
        E 120 86 0d 40
        E 360 96 0d 64
        E 120 86 0d 40
        E 360 96 0c 64
        E 120 86 0c 40
        E 360 96 0d 64
        E 120 86 0d 40
        E 360 96 0d 64
        E 120 86 0d 40
        E 360 96 0d 64
        E 120 86 0d 40
        E 360 96 0c 64
        E 120 86 0c 40
        E 360 96 0d 64
        E 120 86 0d 40
        E 360 96 0d 64
        E 120 86 0d 40
        E 360 96 0d 64
        E 120 86 0d 40
        E 360 96 0c 64
        E 120 86 0c 40
        E 360 96 0d 64
        E 120 86 0d 40
        E 360 96 0d 64
        E 120 86 0d 40
        E 360 96 0d 64
        E 120 86 0d 40
        E 360 96 0c 64
        E 120 86 0c 40
        E 360 96 0d 64
        E 120 86 0d 40
        E 360 96 0d 64
        E 120 86 0d 40
        E 360 96 0d 64
        E 120 86 0d 40
        E 360 96 0c 64
        E 120 86 0c 40
        E 360 96 0d 64
        E 120 86 0d 40
        E 360 96 0d 64
        E 120 86 0d 40
        E 360 96 0d 64
        E 120 86 0d 40
        E 360 96 0c 64
        E 120 86 0c 40
        E 360 96 0d 64
        E 120 86 0d 40
        E 360 96 0d 64
        E 120 86 0d 40
        E 360 96 0d 64
        E 120 86 0d 40
        E 360 96 0c 64
        E 120 86 0c 40
        E 360 96 0d 64
        E 120 86 0d 40
        E 360 96 0d 64
        E 120 86 0d 40
        E 360 96 0d 64
        E 120 86 0d 40
        E 360 96 0c 64
        E 120 86 0c 40
        E 360 96 0d 64
        E 120 86 0d 40
        E 360 96 0d 64
        E 120 86 0d 40
        E 360 96 0d 64
        E 120 86 0d 40
        E 360 96 0c 64
        E 120 86 0c 40
        E 360 96 0d 64
        E 120 86 0d 40
        E 360 96 0d 64
        E 120 86 0d 40
        E 360 96 0d 64
        E 120 86 0d 40
        E 360 96 0c 64
        E 120 86 0c 40
        E 360 96 0d 64
        E 120 86 0d 40
        E 360 96 0d 64
        E 120 86 0d 40
        E 360 96 0d 64
        E 120 86 0d 40
        E 360 96 0c 64
        E 120 86 0c 40
        E 360 96 0d 64
        E 120 86 0d 40
        E 360 96 0d 64
        E 120 86 0d 40
        E 360 96 0d 64
        E 120 86 0d 40
        E 360 96 0c 64
        E 120 86 0c 40
        E 360 96 0d 64
        E 120 86 0d 40
        E 360 96 0d 64
        E 120 86 0d 40
        E 360 96 0d 64
        E 120 86 0d 40
        E 360 96 0c 64
        E 120 86 0c 40
        E 360 96 0d 64
        E 120 86 0d 40
        E 360 96 0d 64
        E 120 86 0d 40
        E 360 96 0d 64
        E 120 86 0d 40
        E 360 96 0c 64
        E 120 86 0c 40
        E 360 96 0d 64
        E 120 86 0d 40
        E 360 96 0d 64
        E 120 86 0d 40
        E 360 96 0d 64
        E 120 86 0d 40
        E 360 96 0c 64
        E 120 86 0c 40
        E 360 96 0d 64
        E 120 86 0d 40
        E 360 96 0d 64
        E 120 86 0d 40
        E 360 96 0d 64
        E 120 86 0d 40
        E 360 96 0c 64
        E 120 86 0c 40
        E 360 96 0d 64
        E 120 86 0d 40
        E 360 96 0d 64
        E 120 86 0d 40
        E 360 96 0d 64
        E 120 86 0d 40
        E 360 96 0c 64
        E 120 86 0c 40
        E 360 96 0d 64
        E 120 86 0d 40
        E 360 96 0d 64
        E 120 86 0d 40
        E 360 96 0d 64
        E 120 86 0d 40
        E 360 96 0c 64
        E 120 86 0c 40
        E 360 96 0d 64
        E 120 86 0d 40
        E 360 96 0d 64
        E 120 86 0d 40
        E 360 96 0d 64
        E 120 86 0d 40
        E 360 96 0c 64
        E 120 86 0c 40
        E 360 96 0d 64
        E 120 86 0d 40
        E 360 96 0d 64
        E 120 86 0d 40
        E 360 96 0d 64
        E 120 86 0d 40
        E 360 96 0c 64
        E 120 86 0c 40
        E 360 96 0d 64
        E 120 86 0d 40
        E 360 96 0d 64
        E 120 86 0d 40
        E 360 96 0d 64
        E 120 86 0d 40
        E 360 96 0c 64
        E 120 86 0c 40
        E 360 96 0d 64
        E 120 86 0d 40
        E 360 96 0d 64
        E 120 86 0d 40
        E 360 96 0d 64
        E 120 86 0d 40
        E 360 96 0c 64
        E 120 86 0c 40
        E 360 96 0d 64
        E 120 86 0d 40
        E 360 96 0d 64
        E 120 86 0d 40
        E 360 96 0d 64
        E 120 86 0d 40
        E 360 96 0c 64
        E 120 86 0c 40
        E 360 96 0d 64
        E 120 86 0d 40
        E 360 96 0d 64
        E 120 86 0d 40
        E 360 96 0d 64
        E 120 86 0d 40
        E 360 96 0c 64
        E 120 86 0c 40
        E 360 96 0d 64
        E 120 86 0d 40
        E 360 96 0d 64
        E 120 86 0d 40
        E 360 96 0d 64
        E 120 86 0d 40
        E 360 96 0c 64
        E 120 86 0c 40
        E 360 96 0d 64
        E 120 86 0d 40
        E 360 96 0d 64
        E 120 86 0d 40
        E 360 96 0d 64
        E 120 86 0d 40
        E 360 96 0c 64
        E 120 86 0c 40
        E 360 96 0d 64
        E 120 86 0d 40
        E 360 96 0d 64
        E 120 86 0d 40
        E 360 96 0d 64
        E 120 86 0d 40
        E 360 96 0c 64
        E 120 86 0c 40
        E 360 96 0d 64
        E 120 86 0d 40
        E 360 96 0d 64
        E 120 86 0d 40
        E 360 96 0d 64
        E 120 86 0d 40
        E 360 96 0c 64
        E 120 86 0c 40
        E 360 96 0d 64
        E 120 86 0d 40
        E 360 96 0d 64
        E 120 86 0d 40
        E 360 96 0d 64
        E 120 86 0d 40
        E 360 96 0c 64
        E 120 86 0c 40
        E 360 96 0d 64
        E 120 86 0d 40
        E 360 96 0d 64
        E 120 86 0d 40
        E 360 96 0d 64
        E 120 86 0d 40
        E 360 96 0c 64
        E 120 86 0c 40
        E 360 96 0d 64
        E 120 86 0d 40
        E 360 96 0d 64
        E 120 86 0d 40
        E 360 96 0d 64
        E 120 86 0d 40
        E 360 96 0c 64
        E 120 86 0c 40
        E 360 96 0d 64
        E 120 86 0d 40
        E 360 96 0d 64
        E 120 86 0d 40
        E 360 96 0d 64
        E 120 86 0d 40
        E 360 96 0c 64
        E 120 86 0c 40
        E 360 96 0d 64
        E 120 86 0d 40
        E 360 96 0d 64
        E 120 86 0d 40
        E 360 96 0d 64
        E 120 86 0d 40
        E 360 96 0c 64
        E 120 86 0c 40
        E 360 96 0d 64
        E 120 86 0d 40
        E 360 96 0d 64
        E 120 86 0d 40
        E 360 96 0d 64
        E 120 86 0d 40
        E 360 96 0c 64
        E 120 86 0c 40
        E 360 96 0d 64
        E 120 86 0d 40
        E 360 96 0d 64
        E 120 86 0d 40
        E 360 96 0d 64
        E 120 86 0d 40
        E 360 96 0c 64
        E 120 86 0c 40
        E 360 96 0d 64
        E 120 86 0d 40
        E 360 96 0d 64
        E 120 86 0d 40
        E 360 96 0d 64
        E 120 86 0d 40
        E 360 96 0c 64
        E 120 86 0c 40
        E 360 96 0d 64
        E 120 86 0d 40
        E 360 96 0d 64
        E 120 86 0d 40
        E 360 96 0d 64
        E 120 86 0d 40
        E 360 96 0c 64
        E 120 86 0c 40
        E 360 96 0d 64
        E 120 86 0d 40
        E 360 96 0d 64
        E 120 86 0d 40
        E 360 96 0d 64
        E 120 86 0d 40
        E 360 96 0c 64
        E 120 86 0c 40
        E 360 96 0d 64
        E 120 86 0d 40
        E 360 96 0d 64
        E 120 86 0d 40
        E 360 96 0d 64
        E 120 86 0d 40
        E 360 96 0c 64
        E 120 86 0c 40
        E 360 96 0d 64
        E 120 86 0d 40
        E 360 96 0d 64
        E 120 86 0d 40
        E 360 96 0d 64
        E 120 86 0d 40
        E 360 96 0c 64
        E 120 86 0c 40
        E 360 96 0d 64
        E 120 86 0d 40
        E 360 96 0d 64
        E 120 86 0d 40
        E 360 96 0d 64
        E 120 86 0d 40
        E 360 96 0c 64
        E 120 86 0c 40
        E 360 96 0d 64
        E 120 86 0d 40
        E 360 96 0d 64
        E 120 86 0d 40
        E 360 96 0d 64
        E 120 86 0d 40
        E 360 96 0c 64
        E 120 86 0c 40
        E 360 96 0d 64
        E 120 86 0d 40
        E 360 96 0d 64
        E 120 86 0d 40
        E 360 96 0d 64
        E 120 86 0d 40
        E 360 96 0c 64
        E 120 86 0c 40
        E 360 96 0d 64
        E 120 86 0d 40
        E 360 96 0d 64
        E 120 86 0d 40
        E 360 96 0d 64
        E 120 86 0d 40
        E 360 96 0c 64
        E 120 86 0c 40
        E 360 96 0d 64
        E 120 86 0d 40
        E 360 96 0d 64
        E 120 86 0d 40
        E 360 96 0d 64
        E 120 86 0d 40
        E 360 96 0c 64
        E 120 86 0c 40
        E 360 96 0d 64
        E 120 86 0d 40
        E 360 96 0d 64
        E 120 86 0d 40
        E 360 96 0d 64
        E 120 86 0d 40
        E 360 96 0c 64
        E 120 86 0c 40
        E 360 96 0d 64
        E 120 86 0d 40
        E 360 96 0d 64
        E 120 86 0d 40
        E 360 96 0d 64
        E 120 86 0d 40
        E 360 96 0c 64
        E 120 86 0c 40
        E 360 96 0d 64
        E 120 86 0d 40
        E 360 96 0d 64
        E 120 86 0d 40
        E 360 96 0d 64
        E 120 86 0d 40
        E 360 96 0c 64
        E 120 86 0c 40
        E 360 96 0d 64
        E 120 86 0d 40
        E 360 96 0d 64
        E 120 86 0d 40
        E 360 96 0d 64
        E 120 86 0d 40
        E 360 96 0c 64
        E 120 86 0c 40
        E 360 96 0d 64
        E 120 86 0d 40
        E 360 96 0d 64
        E 120 86 0d 40
        E 360 96 0d 64
        E 120 86 0d 40
        E 360 96 0c 64
        E 120 86 0c 40
        E 360 96 0d 64
        E 120 86 0d 40
        E 360 96 0d 64
        E 120 86 0d 40
        E 360 96 0d 64
        E 120 86 0d 40
        E 360 96 0c 64
        E 120 86 0c 40
        E 360 96 0d 64
        E 120 86 0d 40
        E 360 96 0d 64
        E 120 86 0d 40
        E 360 96 0d 64
        E 120 86 0d 40
        E 360 96 0c 64
        E 120 86 0c 40
        E 360 96 0d 64
        E 120 86 0d 40
        E 360 96 0d 64
        E 120 86 0d 40
        E 360 96 0d 64
        E 120 86 0d 40
        E 360 96 0c 64
        E 120 86 0c 40
        E 360 96 0d 64
        E 120 86 0d 40
        E 360 96 0d 64
        E 120 86 0d 40
        E 360 96 0d 64
        E 120 86 0d 40
        E 360 96 0c 64
        E 120 86 0c 40
        E 360 96 0d 64
        E 120 86 0d 40
        E 360 96 0d 64
        E 120 86 0d 40
        E 360 96 0d 64
        E 120 86 0d 40
        E 360 96 0c 64
        E 120 86 0c 40
        E 360 96 0d 64
        E 120 86 0d 40
        E 360 96 0d 64
        E 120 86 0d 40
        E 360 96 0d 64
        E 120 86 0d 40
        E 360 96 0c 64
        E 120 86 0c 40
        E 360 96 0d 64
        E 120 86 0d 40
        E 360 96 0d 64
        E 120 86 0d 40
        E 360 96 0d 64
        E 120 86 0d 40
        E 360 96 0c 64
        E 120 86 0c 40
        E 360 96 0d 64
        E 120 86 0d 40
        E 360 96 0d 64
        E 120 86 0d 40
        E 360 96 0d 64
        E 120 86 0d 40
        E 360 96 0c 64
        E 120 86 0c 40
        E 360 96 0d 64
        E 120 86 0d 40
        E 360 96 0d 64
        E 120 86 0d 40
        E 360 96 0d 64
        E 120 86 0d 40
        E 360 96 0c 64
        E 120 86 0c 40
        E 360 96 0d 64
        E 120 86 0d 40
        E 360 96 0d 64
        E 120 86 0d 40
        E 360 96 0d 64
        E 120 86 0d 40
        E 360 96 0c 64
        E 120 86 0c 40
        E 360 96 0d 64
        E 120 86 0d 40
        E 360 96 0d 64
        E 120 86 0d 40
        E 360 96 0d 64
        E 120 86 0d 40
        E 360 96 0c 64
        E 120 86 0c 40
        E 360 96 0d 64
        E 120 86 0d 40
        E 360 96 0d 64
        E 120 86 0d 40
        E 360 96 0d 64
        E 120 86 0d 40
        E 360 96 0c 64
        E 120 86 0c 40
        E 360 96 0d 64
        E 120 86 0d 40
        E 360 96 0d 64
        E 120 86 0d 40
        E 360 96 0d 64
        E 120 86 0d 40
        E 360 96 0c 64
        E 120 86 0c 40
        E 360 96 0d 64
        E 120 86 0d 40
        E 360 96 0d 64
        E 120 86 0d 40
        E 360 96 0d 64
        E 120 86 0d 40
        E 360 96 0c 64
        E 120 86 0c 40
        E 360 96 0d 64
        E 120 86 0d 40
        E 360 96 0d 64
        E 120 86 0d 40
        E 360 96 0d 64
        E 120 86 0d 40
        E 360 96 0c 64
        E 120 86 0c 40
        E 360 96 0d 64
        E 120 86 0d 40
        E 360 96 0d 64
        E 120 86 0d 40
        E 360 96 0d 64
        E 120 86 0d 40
        E 360 96 0c 64
        E 120 86 0c 40
        E 360 96 0d 64
        E 120 86 0d 40
        E 360 96 0d 64
        E 120 86 0d 40
        E 360 96 0d 64
        E 120 86 0d 40
        E 360 96 0c 64
        E 120 86 0c 40
        E 360 96 0d 64
        E 120 86 0d 40
        E 360 96 0d 64
        E 120 86 0d 40
        E 360 96 0d 64
        E 120 86 0d 40
        E 360 96 0c 64
        E 120 86 0c 40
        E 360 96 0d 64
        E 120 86 0d 40
        E 360 96 0d 64
        E 120 86 0d 40
        E 360 96 0d 64
        E 120 86 0d 40
        E 360 96 0c 64
        E 120 86 0c 40
        E 360 96 0d 64
        E 120 86 0d 40
        E 360 96 0d 64
        E 120 86 0d 40
        E 360 96 0d 64
        E 120 86 0d 40
        E 360 96 0c 64
        E 120 86 0c 40
        E 360 96 0d 64
        E 120 86 0d 40
        E 360 96 0d 64
        E 120 86 0d 40
        E 360 96 0d 64
        E 120 86 0d 40
        E 360 96 0c 64
        E 120 86 0c 40
        E 360 96 0d 64
        E 120 86 0d 40
        E 360 96 0d 64
        E 120 86 0d 40
        E 360 96 0d 64
        E 120 86 0d 40
        E 360 96 0c 64
        E 120 86 0c 40
        E 360 96 0d 64
        E 120 86 0d 40
        E 360 96 0d 64
        E 120 86 0d 40
        E 360 96 0d 64
        E 120 86 0d 40
        E 360 96 0c 64
        E 120 86 0c 40
        E 360 96 0d 64
        E 120 86 0d 40
        E 360 96 0d 64
        E 120 86 0d 40
        E 360 96 0d 64
        E 120 86 0d 40
        E 360 96 0c 64
        E 120 86 0c 40
        E 360 96 0d 64
        E 120 86 0d 40
        E 360 96 0d 64
        E 120 86 0d 40
        E 360 96 0d 64
        E 120 86 0d 40
        E 360 96 0c 64
        E 120 86 0c 40
        E 360 96 0d 64
        E 120 86 0d 40
        E 360 96 0d 64
        E 120 86 0d 40
        E 360 96 0d 64
        E 120 86 0d 40
        E 360 96 0c 64
        E 120 86 0c 40
        E 360 96 0d 64
        E 120 86 0d 40
        E 360 96 0d 64
        E 120 86 0d 40
        E 360 96 0d 64
        E 120 86 0d 40
        E 360 96 0c 64
        E 120 86 0c 40
        E 360 96 0d 64
        E 120 86 0d 40
        E 360 96 0d 64
        E 120 86 0d 40
        E 360 96 0d 64
        E 120 86 0d 40
        E 360 96 0c 64
        E 120 86 0c 40
        E 360 96 0d 64
        E 120 86 0d 40
        E 360 96 0d 64
        E 120 86 0d 40
        E 360 96 0d 64
        E 120 86 0d 40
        E 360 96 0c 64
        E 120 86 0c 40
        E 360 96 0d 64
        E 120 86 0d 40
        E 360 96 0d 64
        E 120 86 0d 40
        E 360 96 0d 64
        E 120 86 0d 40
        E 360 96 0c 64
        E 120 86 0c 40
        E 360 96 0d 64
        E 120 86 0d 40
        E 360 96 0d 64
        E 120 86 0d 40
        E 360 96 0d 64
        E 120 86 0d 40
        E 360 96 0c 64
        E 120 86 0c 40
        E 360 96 0d 64
        E 120 86 0d 40
        E 360 96 0d 64
        E 120 86 0d 40
        E 360 96 0d 64
        E 120 86 0d 40
        E 360 96 0c 64
        E 120 86 0c 40
        E 360 96 0d 64
        E 120 86 0d 40
        E 360 96 0d 64
        E 120 86 0d 40
        E 360 96 0d 64
        E 120 86 0d 40
        E 360 96 0c 64
        E 120 86 0c 40
        E 360 96 0d 64
        E 120 86 0d 40
        E 360 96 0d 64
        E 120 86 0d 40
        E 360 96 0d 64
        E 120 86 0d 40
        E 360 96 0c 64
        E 120 86 0c 40
        E 360 96 0d 64
        E 120 86 0d 40
        E 360 96 0d 64
        E 120 86 0d 40
        E 360 96 0d 64
        E 120 86 0d 40
        E 360 96 0c 64
        E 120 86 0c 40
        E 360 96 0d 64
        E 120 86 0d 40
        E 360 96 0d 64
        E 120 86 0d 40
        E 360 96 0d 64
        E 120 86 0d 40
        E 360 96 0c 64
        E 120 86 0c 40
        E 360 96 0d 64
        E 120 86 0d 40
        E 360 96 0d 64
        E 120 86 0d 40
        E 360 96 0d 64
        E 120 86 0d 40
        E 360 96 0c 64
        E 120 86 0c 40
        E 360 96 0d 64
        E 120 86 0d 40
        E 360 96 0d 64
        E 120 86 0d 40
        E 360 96 0d 64
        E 120 86 0d 40
        E 360 96 0c 64
        E 120 86 0c 40
        E 360 96 0d 64
        E 120 86 0d 40
        E 360 96 0d 64
        E 120 86 0d 40
        E 360 96 0d 64
        E 120 86 0d 40
        E 360 96 0c 64
        E 120 86 0c 40
        E 360 96 0d 64
        E 120 86 0d 40
        E 360 96 0d 64
        E 120 86 0d 40
        E 360 96 0d 64
        E 120 86 0d 40
        E 360 96 0c 64
        E 120 86 0c 40
        E 360 96 0d 64
        E 120 86 0d 40
        E 360 96 0d 64
        E 120 86 0d 40
        E 360 96 0d 64
        E 120 86 0d 40
        E 360 96 0c 64
        E 120 86 0c 40
        E 360 96 0d 64
        E 120 86 0d 40
        E 360 96 0d 64
        E 120 86 0d 40
        E 360 96 0d 64
        E 120 86 0d 40
        E 360 96 0c 64
        E 120 86 0c 40
        E 360 96 0d 64
        E 120 86 0d 40
        E 360 96 0d 64
        E 120 86 0d 40
        E 360 96 0d 64
        E 120 86 0d 40
        E 360 96 0c 64
        E 120 86 0c 40
        E 360 96 0d 64
        E 120 86 0d 40
        E 360 96 0d 64
        E 120 86 0d 40
        E 360 96 0d 64
        E 120 86 0d 40
        E 360 96 0c 64
        E 120 86 0c 40
        E 360 96 0d 64
        E 120 86 0d 40
        E 360 96 0d 64
        E 120 86 0d 40
        E 360 96 0d 64
        E 120 86 0d 40
        E 360 96 0c 64
        E 120 86 0c 40
        E 360 96 0d 64
        E 120 86 0d 40
        E 360 96 0d 64
        E 120 86 0d 40
        E 360 96 0d 64
        E 120 86 0d 40
        E 360 96 0c 64
        E 120 86 0c 40
        E 360 96 0d 64
        E 120 86 0d 40
        E 360 96 0d 64
        E 120 86 0d 40
        E 360 96 0d 64
        E 120 86 0d 40
        E 360 96 0c 64
        E 120 86 0c 40
        E 360 96 0d 64
        E 120 86 0d 40
        E 360 96 0d 64
        E 120 86 0d 40
        E 360 96 0d 64
        E 120 86 0d 40
        E 360 96 0c 64
        E 120 86 0c 40
        E 360 96 0d 64
        E 120 86 0d 40
        E 360 96 0d 64
        E 120 86 0d 40
        E 360 96 0d 64
        E 120 86 0d 40
        E 360 96 0c 64
        E 120 86 0c 40
        E 360 96 0d 64
        E 120 86 0d 40
        E 360 96 0d 64
        E 120 86 0d 40
        E 360 96 0d 64
        E 120 86 0d 40
        E 360 96 0c 64
        E 120 86 0c 40
        E 360 96 0d 64
        E 120 86 0d 40
        E 360 96 0d 64
        E 120 86 0d 40
        E 360 96 0d 64
        E 120 86 0d 40
        E 360 96 0c 64
        E 120 86 0c 40
        E 360 96 0d 64
        E 120 86 0d 40
        E 360 96 0d 64
        E 120 86 0d 40
        E 360 96 0d 64
        E 120 86 0d 40
        E 360 96 0c 64
        E 120 86 0c 40
        E 360 96 0d 64
        E 120 86 0d 40
        E 360 96 0d 64
        E 120 86 0d 40
        E 360 96 0d 64
        E 120 86 0d 40
        E 360 b0 7b 00
        GUID {169EC85E-E3BA-47F4-80E0-734BB1775578}
        IGNTEMPO 0 120.00000000 4 4
        SRCCOLOR 13
        VELLANE 132 128 60
        COLORMAP "C:\Program Files\REAPER (x64)\Data\color_maps\rockband_guitarbass.png"
        CFGEDITVIEW 46301.048814 30.491723 0 48 0 0 0
        CFGEDIT 1 1 0 1 1 0 1 1 1 1 1 0.25000000 -8 -8 1544 872 0 2 1 1 0.00000000 0 1 1 0 0.500000 0 0 1.000000 64
        KEYSNAP 0 7 "102030050700" 0 "Pentatonic"
        EVTFILTER 0 -1 -1 -1 -1 0 1 0 0 -1.00000000 -1.00000000
      >
    >
  >
  <TRACK '{2C051EB0-0626-49DD-9816-154C0BD23354}'
    NAME "backing"
    PEAKCOL 16576
    BEAT -1
    AUTOMODE 0
    VOLPAN 1.00000000000000 0.00000000000000 -1.00000000000000 -1.00000000000000 1.00000000000000
    MUTESOLO 0 0 0
    IPHASE 0
    ISBUS 0 0
    BUSCOMP 0 0
    SHOWINMIX 1 0.666700 0.500000 1 0.500000 -1 -1 -1
    FREEMODE 0
    SEL 0
    REC 0 0 0 0 0 0 0
    VU 2
    TRACKHEIGHT 0 0
    INQ 0 0 0 0.5000000000 100 0 0 100
    NCHAN 2
    FX 1
    TRACKID {2C051EB0-0626-49DD-9816-154C0BD23354}
    PERF 0
    MIDIOUT -1
    MAINSEND 1 0
    <ITEM
      POSITION 0.00000000000000
      SNAPOFFS 0.00000000000000
      LENGTH 286.40909297052156
      LOOP 0
      ALLTAKES 0
      SEL 0
      FADEIN 1 0.000000 0.000000 1 0
      FADEOUT 1 0.000000 0.000000 1 0
      MUTE 0
      IGUID {423C133E-AADA-438E-85EA-B2B12CDA6C9C}
      IID 14
      NAME "backing.wav"
      VOLPAN 1.000000 0.000000 1.000000 -1.000000
      SOFFS 0.00000000000000
      PLAYRATE 1.00000000000000 1 0.00000000000000 -1
      CHANMODE 0
      GUID {7092FECF-9DAB-466C-A990-3946EBE830E6}
      <SOURCE WAVE
        FILE "C:\Users\Ruggery\Documents\Visual Studio Code\Projects\ruggy-customs-projects\songs\itstimetojump\wav\backing.wav"
      >
    >
  >
  <EXTENSIONS
  >
>
